<svg class="w-full" xmlns="http://www.w3.org/2000/svg" enable-background="new 0 0 763.9 108" viewBox="0 0 763.9 108">
<path d="m759.1 61.5c10-18.1-10-34.4-25.5-38.3-28.4-7.3-37 9.7-40.5 6.8-5.9-5-14.9-8.4-24.2-8.3-18.7-.3-23.6 10.2-26.4 8-5.5-4.5-11.2-7.3-18.6-7.8-1.9-8-6.8-11.2-13.7-16.6-14.9-11.9-38.2-2.8-38 16.3 0 3.9-13.9-5.1-32.9 5.9-4.1-3.1.8-2.6-12-13.1-17.3-14.1-36.8-5-39.7 10.3-1 .4-1.9.9-2.8 1.4-7.9-3.9-17.8-5.9-31.8-3.4-5-8.2-21.1-22.6-41.4-22.6-28.4 0-35-1.6-43.2 6.2-6.3 6.3-3 8.4-5.9 6-13.1-10.7-34.3-4.8-37.4 12-.8.3-1.5.6-2.1 1-6-2.8-12.7-4.1-19.2-4-22-.3-27.2 11.9-29.9 9.8-9.8-7.9-20-10.9-30-9.7-1.4-8.8-7.4-11.7-12.3-15.8-12.6-10.4-35.8-5.4-46.3 4.9-7.3 7-7.5 12.9-8.7 13.4-7.4-4-17.3-2.6-23.6.3-7.8-4.1-18.5-3.8-26.1 2.5-3 2.5-12-9.7-33.6-4.1-3.5-5.1-6.8-7.5-9.9-10.2-18.6-14.8-24.6-12.2-58.5-12.2-12.5-.3-22.6 9.6-22.2 22.1 0 66.3-2.9 65.6 10.5 76.6 23.5 18.6 42.4 5.6 42.4-19 4.5 0 7.4.1 12.2-.8 7 15.9 33.4 38.3 66.9 23.8 15.1 10.7 37.4 1.4 36.9-17.3 0-18.3-.5-15.9 1.1-16.1 7.8-.8-6.2 14.1 12.3 29 25.9 21.6 40.5-2.9 40.5-2.8 9 7.2 17.4 11.9 31.1 11.7 10.5-.1 21.8-3.9 27-7.8 12.8 9.5 34 10.8 50.1 1.5 6.9-4 3.4-5.9 7.5-2.6 11.2 9.5 30 10.4 39.4 5.8 12.2 6.4 34.4 3.3 34.4-24.5 3.9 0 6.4.1 10.4-.4 3.6 14.6 28.1 35.4 50.3 25.9 9.5 4.5 21.8 2.1 28-6.4 13.2 10.5 33.5 10.5 42.2 3.8 13.1 6.9 29.2 6.4 41.8.8 9.4 6.4 23.1 5.3 30.6-3.1 11 9.5 26 9.3 34.4.3 12.3 8.3 31 9.9 48.3 1.6 20.8 11.4 63 6.3 62.8-24.7.3-8.6-4.6-16.5-4.7-16.1z" fill="#fea540"></path>
<path d="m732.9 25.6c-29.7-7.7-35.8 10.9-39.9 7.5-.1-.1-2-1.6-2.3-1.8-12.6-10-34-10.3-47.4 2.3-7.2-5.9-12.9-9.7-22-9.5-1-7.4-5.3-10.7-9.2-13.8-20.1-16.1-38-4-37.9 11 0 5.5.5 4.8-1.4 4.3-21.7-5.8-33.6 5.3-34.4 4.5-7.8-6.3.8-3-15.9-16.1-11.9-9.5-31.4-3.4-33 12.4-1.8.6-3.4 1.4-4.9 2.5-9.4-5.6-22.5-5.6-33.1-3.5-3.5-6.4-7.3-8.9-13.7-13.9-13.1-11.2-28.7-8.7-53.2-8.7-8.9-.3-17.4 5.4-19.2 14.9-6-4.9-10-8.4-17.8-8.2-9.8-.4-19 6.5-20 16.8-9.2 2.9 1.6 2.8-12-.9-26.6-7-40 10.3-40.9 9.5-10.2-8.2-18.5-12.7-32.8-10.5-.6-25.4-53.5-32.8-62.5 1.5-.9.3-1.8.5-2.6.9-7-4.4-17.1-3-23.5.4-7-4.5-17.3-4.3-24.5 1.6-4 3.3-.6 3.1-6.5-.3-9.4-5.3-20.5-5.8-29.9-2.9-3.9-7.3-8.5-10-14.4-14.7-14.2-10-20.3-8.3-52.7-8.3-11.2-.1-20.1 8.7-19.8 20 0 60.9-2.4 65.6 7.9 73.2 20.5 18.6 40 5.5 40-10.8 0-9.3-1.5-7.4 6-7.4 14.2 0 7.9-4.3 12.7 4.1 3.6 6.5 7.7 9.3 13.4 13.8.4 0 18.2 18.1 50 4.9 14.4 11 34.5 2.1 34-14.4 0-24.3-2.8-16.4 8.4-19.3 0 21.1-1.6 21 12.6 33.1 13.6 10.8 30.5 4.4 33.9-8 22.6 20.7 50.2 14.4 60 5.4 17.7 14.3 47.8 8.7 54.8-3.4 16.7 13.1 33.1 13.2 41.9 8.2 7.5 4.6 18.6 4.4 26-2.6 6.7-6.7 5.9-13.4 5.9-21.6 6.3 0 9.7.1 14.8-.8 2.5 16.2 28.6 35 48.3 25.5 7 3.9 17.1 3.6 24-2.8 2.8-2.6 3.3-4.5 3.5-4.5 10.5 9.7 32.6 13.2 42.3 4.1 21 13.4 42.5 1.8 42.7 1.8 7.5 5.9 19.6 6.2 27.2-.8 3.6-3.3 1.5-3.9 5-1.1 10 8.5 22 7.4 29.2.9 4.8-3.4.1-3 8.3 1.1 14.3 7 31 5 42.7-1.1 1.5-.9 2.6 2.3 12 4.3 44.2 8.7 57.7-24.3 43.2-42.4 8.7-10.4-.8-30.8-23.3-36.4z" fill="#fe9b34"></path>
<path d="m752.7 61.7c19.5-21.6-34.6-52.5-58.1-24.1-.3-.3-4.9-3.9-5.4-4.3-13.1-10.2-33.9-9-45.8 3.6-10.4-9.2-14.8-10.4-24.5-10.4.3-12.2-22.2-30.4-36.9-17.4-6.3 5.6-5.4 11.9-5.4 20.2-12.2-4.8-27.5-3.8-38.3 3.9-11-8.8-2-4.8-12.7-13.6-19.2-15.6-33.8-3.6-33.9 8.7-2.6.5-5.1 1.8-7.2 3.6-9.3-6.5-24-6.4-34.6-3.8-2.9-6.3-6.7-9.4-14.7-15.4-11.6-9.4-22.5-7.7-51-7.7-9.8-.4-17.6 7.3-17.2 17.2 0 .4-6.4-4.8-6.5-4.9-14.8-11.5-30.8-2.5-31 10.9-2.4.5-4.5 1.5-6.4 3-10.8-5.9-25.9-6.8-38.3-.5-12.4 6.4-7 10.3-13.3 5.4-7.2-5.9-13.6-9.7-23.8-9.4-10.4 0-8.5 3-8.5-1.1.3-7.9-5.1-11.3-9.5-14.8-12.5-11.3-43.7-5.2-48.4 17.7-1.9.1-3.8.6-5.4 1.4-6.4-4.9-16.9-3.4-23.3.4-3.1-2.4-7-3.6-10.9-3.5-11.9-.3-14.3 9-15.8 7.9-11.4-9.2-24.3-9.8-35.1-5.6-4.6-10.8-20.2-23.8-38.7-23.8-51.3 0-44.4-6.7-44.4 73.9-.6 22.5 43.8 34.3 42.9 5.6v-9.9h8.5c17.7.1 8.4-6 14.8 5.4 5.6 9.9 25.4 27.5 50.3 21 14.7-3.4 9.3-5.8 12.3-3.1 13.9 10.2 30.6 1.3 30-12.4 0-23.5-1.6-20.3 5.6-21.1 10.2-.9 7.8-7.7 7.8 15.3-.4 8.5 4.9 12.7 12.2 18.1 7 8.3 29.2 4.8 30.1-11.5 20.7 22.1 51.6 19 61.4 7 20.5 15.7 47.9 8.5 53.3-2.3 1.5-2.9-.4-2.9 5.9 2 15.1 12 31.5 10.5 37.9 5.8 11.3 8.4 29.7 1.6 29.2-14.2 0-17.7-3-5.6 19.6-11.2.9 16.8 27.2 36.9 46.6 26.1 9.5 6 23.1 2.3 26.2-8.4 19.1 15.8 37.2 12.4 42.9 5.3 20.8 14.6 41.9 0 44.4 2.1 6.5 5.1 17.2 5.4 24-.8 4.9-4.6 2-6.5 6.3-3 .6 0 14.8 14.6 28.4 2.4 3.8-3.5 2.8-5 3.8-4.1 17.3 13.7 41.4 8.4 49 3.3 10.7 7.5 35 9.3 47.8.1 20.1-13.6 3.8-37.8 3.8-35z" fill="#fe8f2c"></path>
<path d="m750.2 62.9c-2.1-1.6-1.1-.3 1.3-3.3 15.9-21-39.4-45.6-56.4-18.2-13.7-11.4-27.1-16.9-42.8-8-12.4 7-4.5 10.3-13.7 3-6.7-5.3-11.7-8.4-22.1-7 0-8.9-1.4-10.4-7.7-15.3-15.4-13.2-29.7-4-29.5 7.4 0 16.3 2.4 11.7-7.7 9-22-5.8-32.3 6.9-33.6 5.8-.1-.1-4.4-3.8-6.9-4.8-1.1-5.9-5-8-10.2-12.2-10.7-9.2-26.7-4.8-26.7 11.3-3.6.3-7 2-9.3 4.9-8.4-7.2-22.1-7.3-32.9-5.1-8.4 1.8 2 .5-15.3-13.3-7.7-6.2-13.1-9.4-25.1-9.4-35.5 0-41.9-4.3-41.9 24-2.3-1.1 2.1-2.1-10.8-12.4-10.7-9.2-26.7-4.8-26.7 11.3-3.3.3-6.3 1.6-8.5 4-14.2-9-37.3-7.5-48.2 7.8-11.9-11.3-24.9-17.1-40.2-11 3.6-7.2.6-12.9-5.8-17.7-14.5-13.5-43.1-4.8-46.2 16.5-6.3.4-6.4 3.1-7.8 2.1-6.7-5.4-17.2-3.4-22.7.9-10.7-8-22.5-2.9-25 5.8-11.7-9.3-23.3-13.8-38.2-6.8-2.1-6.8-5.9-10.2-10.5-13.8-15.2-12-14.3-10.7-54-10.7-8.5-.4-15.1 6.3-14.7 14.7 0 71.8-2.8 62 11.4 73.7 12.2 9.4 26.9 1.4 26.4-11.3v-12.3c12 0 16.9.5 24.7-2.3 3.2 15.8 25.3 35.5 50.7 28.8 10.9-2.5 11.2-5.1 12-4.6 8.5 7.5 17.1 7.3 23.6 2.4 6-5 4.8-10 4.8-29.1-.8-8.7 10.9-2.4 18.3-9.4.3.1.1-1.6.1 21.7-.3 4.9 2.3 9.4 5.6 11.7 8.4 7.8 17.7 11.9 26.7 4.9 5.5-4.6 4.8-10 4.8-17.8 13.1 26 55.2 26.4 63.4 11.2 1.6 0 8.2 10.5 26.5 10.5 11.7.3 26.6-4 26.6-16.7 2.1 3.1 4.3 4.6 5.5 5.8 9.5 7.5 11.2 9.7 25 10.7 14.6 0 12.6-5.1 14.3-3.8 7.4 5.9 16.3 4.9 22-.3 5.3-5.4 4.4-10.5 4.4-23.5 12.6 0 17.1.4 24.6-2.3 0 24 30.4 36.6 44.1 26.5 8.8 7.5 24.5 2.5 24.3-10.3 15.3 15.3 38.4 18.3 44.2 6.5 5.8 4.9 13.4 7.4 22.6 7.4 15.7.4 20-6.9 22.5-4.8 11.9 9.2 25.1 3.4 26.6-7.3 1.4 2 2.4 2.8 7.5 6.8 10.9 9.4 24.6 4.5 26.9-5.5 18.8 16.4 42.8 10.7 50.6 3.8 3.5 2.6 7.3 4.6 12.7 5.8 41.7 8.4 51.1-23.7 36.4-36.4z" fill="#fff"></path>
<path d="m18.5 86.2c-3.6-3.9-2.6-2.9-2.6-63.9-.4-5.3 3.5-9.4 9-9 27.9 0 37.9-1.5 46.4 6.3 9.2 8.3 9.4 26.4 0 35.1-8.5 7.8-19.6 6.4-35.9 6.4 0 19 .9 21.5-2.6 25.1-3.9 3.5-10.6 3.7-14.3 0zm41.5-48.8c0-11.5-11.4-9.2-24.6-9.2v18.3c13.8.1 24.6 2.2 24.6-9.1zm66.4 36c7.3 9.7-8.2 15.6-20.2 15.8-25.5.6-34.6-23.7-25.4-41.2 8.9-17.2 35.8-17.9 44.3-1.1 2.1 4.4 4.6 13.9 1.9 17.4-1.6 1.9-1.1 1.4-31.3 1.4 1.6 10.9 10.5 11.3 20.7 7.3 3.7-1.3 7.5-2.7 10 .4zm-30.7-16.5h16.7c-1.1-13.5-16.4-11.7-16.7 0zm75.8-20.4c3.8 3 2.1 9.9-.1 12-2.3 2.3-6.9 2.4-10.3 2.8-19.1 2.3-3.8 27.7-12.6 35.4-6.7 4.8-16.8 1.4-16.2-6.5 0-40.7-.9-39.9 2.8-42.9 4.6-3.8 15.2-4.1 15.2 7.8 5-14.6 18.5-10.7 21.2-8.6zm35.5-.5c7 0 14.3-.9 14.3 6.9s-7.4 7-14.3 7c0 32.6.9 33.4-2.8 36.6-6.5 4.9-16.7 1.4-16.2-6.5 0-34.5 1.3-30-3-30-5.6 0-8.5-2.4-8.5-7 0-6.8 5.4-6.9 11.5-6.9.5-25.9 30-24.1 33.6-21.1 2.8 2.5 2.6 7.3.1 9.8-5.4 4.7-14.7-2.2-14.7 11.2zm63.2 37.4c7.3 9.7-8.2 15.6-20.2 15.8-24.7.5-34.9-23-25.4-41.2 9-17.1 35.8-17.7 44.2-.9 2.1 4.4 4.5 13.8 1.9 17.4-1.6 1.9-1.1 1.4-31.3 1.4 1.6 10.9 10.5 11.3 20.7 7.3 8.9-3.5 10.3.2 10.1.2zm-30.7-16.5h16.7c-.8-11.3-10.4-10.7-14.1-6.9-.2-.1-2.5 2.8-2.6 6.9zm42.8 24.9c-14.4-14.1-8.5-47.7 21.3-47.1 11.9 0 25.4 6 18.6 15.9-3.3 4.8-10 0-13.9-1.3-17.8-5.5-18.2 26.2-3.3 25.4 5.3 0 8.7-3.9 13.2-3.8 6-.1 7.7 10.4 2.4 13.6-21.6 12.4-38.2-2.7-38.3-2.7zm88.7-.1c.6 10.7-21.6 8-28.5 1-6-6.2-4.9-12.4-4.9-32.9-6.3 0-11.5-.1-11.5-7s5.6-6.9 11.5-6.9c0-7.3-.6-10.3 2.5-13.3 6.4-5 16.7-1.8 16.3 6.4 0 8.7-1.5 6.9 5.8 6.9 5.6 0 8.5 2.3 8.5 6.9 0 7.8-7.4 7-14.3 7v20.5c0 9.1 14.8.7 14.6 11.4zm6.8 4.5c-3.6-3.9-2.6-2.9-2.6-63.9-.3-5.3 3.8-9.4 9.2-9 27.9 0 37.9-1.5 46.4 6.3 9.2 8.3 9.4 26.4 0 35-8.7 7.9-20 6.4-35.9 6.4 0 19.3.9 21.6-2.6 25.1-7 6.4-14.4.1-14.5.1zm41.6-48.8c0-11.5-11.4-9.2-24.6-9.2v18.3c13.9.1 24.6 2.2 24.6-9.1zm62.7 3.1c7.5 7.5 5.8 19.6 5.8 39.8.5 11.3-17.6 11.4-17.7.8-2.1 5.5-7.8 8.3-13.4 8.2-16.4.3-24-16.3-16.2-26 5.1-5.9 18.6-6.5 26.5-6.3 3.4 0 2.9.4 2.9-1.3 1.3-13.4-20.5-3.4-24.3-3.1-6.3.3-8.5-9.9-1.8-13.3 10.1-5.3 29.7-7.2 38.2 1.2zm-12.2 25c-3.1 0-8.4-.1-11.3 1.3-3.4 1.1-3.8 5.6-1.4 8.2 3.1 2.9 12.7 2.3 12.7-9.5zm63.4 16.2c.6 10.7-21.7 7.9-28.5 1-6-6.2-4.9-12.3-4.9-32.9-6.3 0-11.5-.1-11.5-7s5.6-6.9 11.5-6.9c0-7.2-.6-10.3 2.5-13.3 6.4-5 16.7-1.8 16.3 6.4 0 8.7-1.5 6.9 5.8 6.9 5.6 0 8.5 2.3 8.5 6.9 0 7.8-7.4 7-14.3 7v20.5c-.2 9.1 14.5.7 14.6 11.4zm6.8.1c-14.3-13.9-8.7-47.7 21.2-47.1 11.9 0 25.4 6.2 18.5 15.9-3.3 4.8-10.2 0-13.9-1.3-17.7-5.5-18.2 26.4-3.3 25.4 5.4 0 8.5-3.9 13.2-3.8 6-.1 7.7 10.4 2.4 13.6-21 12-39.7-2.7-38.1-2.7zm94-41.5c5.6 7 4.4 16.7 4.4 39.8.4 8-9.9 11.3-16.3 6.4-3.4-3.3-2.5-4.4-2.5-29.7 0-9.8-9.5-8.8-13.3-4.9-3.1 3.6-2.5 4.9-2.5 28.2.4 8-9.9 11.3-16.3 6.4-3.4-3.3-2.5-.6-2.5-65.1-.3-11.2 19.3-11.4 18.8-.3 0 30.5-2.4 19.8 7.2 15.6 14.7-6.5 22.9 3.6 23 3.6zm37 48.8c-25.7.6-34.5-23.8-25.4-41.2 9-17.3 35.8-17.7 44.2-1 2.1 4.4 4.5 13.8 1.9 17.4-1.6 1.9-1.3 1.4-31.3 1.4 1.6 10.9 10.5 11.3 20.7 7.3 16-6.2 19.2 15.6-10.1 16.1zm-10.5-32.2h16.6c-.8-11.3-10.4-10.7-14.1-6.9-.1-.1-2.4 3-2.5 6.9zm37.3 16.4c3.4-4.3 8.9-.3 16.2 1.6 10.9 2.4 14.9-1.8 12-4.3-6.4-4.3-28.4-1.1-28.4-18.7-.1-11.7 14.7-20.6 32.5-16.1 16.9 4.3 11.4 16.4 5.8 16.4-6.7-.4-12.6-6.8-19.8-3.4-2.3 1-1.8 4.3.6 4.9 7.2 2.6 16.9 2.5 22.7 7.5 10.5 9.3 3.8 33.3-31.4 26.5-8-.2-15.5-7.8-10.2-14.4z" fill="#272f35"></path>
</svg>