<?xml version="1.0" encoding="utf-8"?>
<!-- Generator: Adobe Illustrator 22.1.0, SVG Export Plug-In . SVG Version: 6.00 Build 0)  -->
<svg version="1.2" baseProfile="tiny" id="Layer_1" xmlns="http://www.w3.org/2000/svg" xmlns:xlink="http://www.w3.org/1999/xlink"
	 x="0px" y="0px" viewBox="0 0 1024 180" xml:space="preserve">
<g>
	<g>
		<path fill="#474B51" d="M86.58,41.38V53l-10.29,1.98v53.65c0,9.28-3.03,16.64-9.07,22.07c-6.05,5.43-13.69,8.15-22.93,8.15
			c-10.03,0-17.97-2.44-23.82-7.32c-5.85-4.88-8.67-12.08-8.45-21.58l0.13-0.4h18.74c0,5.06,1.21,8.74,3.63,11.05
			c2.42,2.31,5.67,3.46,9.77,3.46c3.56,0,6.59-1.37,9.07-4.12c2.48-2.75,3.73-6.52,3.73-11.32V54.98L46.79,53V41.38h29.5H86.58z"/>
		<path fill="#474B51" d="M140.05,128.43c-2.29,3.34-5.11,5.92-8.48,7.72c-3.37,1.8-7.2,2.71-11.52,2.71
			c-7.52,0-13.42-2.41-17.69-7.23c-4.27-4.82-6.4-12.31-6.4-22.47v-29.5l-7.85-1.98V66.07h7.85h19.27v43.22
			c0,5.19,0.87,8.92,2.61,11.19c1.74,2.27,4.32,3.4,7.75,3.4c3.04,0,5.66-0.5,7.89-1.49c2.22-0.99,4.04-2.41,5.44-4.26V79.66
			l-8.45-1.98V66.07h8.45h19.27v57.87l8.64,1.98v11.55h-25.54L140.05,128.43z"/>
		<path fill="#474B51" d="M228.55,90.61h-12.93l-2.05-8.91c-1.32-1.06-2.98-1.94-4.98-2.64c-2-0.7-4.21-1.06-6.63-1.06
			c-3.39,0-6.07,0.76-8.05,2.28c-1.98,1.52-2.97,3.42-2.97,5.71c0,2.16,0.95,3.95,2.84,5.38c1.89,1.43,5.68,2.7,11.35,3.8
			c8.84,1.76,15.4,4.34,19.67,7.75c4.27,3.41,6.4,8.11,6.4,14.09c0,6.42-2.76,11.67-8.28,15.74c-5.52,4.07-12.79,6.1-21.81,6.1
			c-5.5,0-10.55-0.8-15.14-2.41c-4.6-1.61-8.68-3.9-12.24-6.9l-0.2-16.04h13.46l2.64,9.3c1.14,0.97,2.71,1.68,4.69,2.15
			c1.98,0.46,4.05,0.69,6.2,0.69c3.91,0,6.9-0.7,8.94-2.11c2.05-1.41,3.07-3.32,3.07-5.74c0-2.11-1.03-3.94-3.1-5.48
			c-2.07-1.54-5.87-2.9-11.42-4.09c-8.4-1.72-14.75-4.26-19.04-7.62s-6.43-7.95-6.43-13.76c0-5.98,2.46-11.14,7.39-15.47
			c4.93-4.33,11.94-6.5,21.05-6.5c5.54,0,10.79,0.75,15.74,2.24c4.95,1.5,8.83,3.41,11.65,5.74L228.55,90.61z"/>
		<path fill="#474B51" d="M265.86,48.58v17.49h12.54v13.53h-12.54v36.36c0,2.77,0.57,4.75,1.72,5.94c1.14,1.19,2.68,1.78,4.62,1.78
			c1.32,0,2.48-0.05,3.46-0.17c0.99-0.11,2.1-0.3,3.33-0.56l1.65,13.93c-2.16,0.66-4.29,1.15-6.4,1.48s-4.4,0.5-6.86,0.5
			c-6.64,0-11.76-1.83-15.34-5.48c-3.59-3.65-5.38-9.44-5.38-17.36V79.59h-10.49V66.07h10.49V48.58H265.86z"/>
	</g>
	<g>
		<path fill="#0095B4" d="M290.91,41.38h25.16v74.93h40.83v21.45h-65.99V41.38z"/>
		<path fill="#0095B4" d="M439.53,137.76l-6.6-17.05h-41.66l-6.74,17.05h-25.85l41.38-96.38h25.85l40.42,96.38H439.53z
			 M398.83,101.46h26.67l-13.2-34.37L398.83,101.46z"/>
		<path fill="#0095B4" d="M538.1,41.38h23.37v96.38h-22l-43.72-57.61v57.61h-23.51V41.38h22.13l43.86,58.02L538.1,41.38z"/>
		<path fill="#0095B4" d="M712.15,137.76l-6.6-17.05H663.9l-6.74,17.05h-25.85l41.38-96.38h25.85l40.42,96.38H712.15z
			 M671.46,101.46h26.67l-13.2-34.37L671.46,101.46z"/>
		<path fill="#0095B4" d="M802.75,137.76l-14.02-26.67h-0.55h-18.15v26.67h-25.16V41.38h43.31c12.74,0,22.62,2.96,29.63,8.87
			c7.01,5.91,10.52,14.23,10.52,24.95c0,7.24-1.47,13.5-4.4,18.77c-2.93,5.27-7.2,9.37-12.79,12.31l20.07,31.48H802.75z
			 M770.03,91.02h18.29c5.13,0,9.09-1.28,11.89-3.85c2.79-2.57,4.19-6.28,4.19-11.14c0-4.67-1.4-8.27-4.19-10.79
			c-2.8-2.52-6.76-3.78-11.89-3.78h-18.29V91.02z"/>
		<path fill="#0095B4" d="M905.8,47.43c7.74,4.03,13.77,9.69,18.08,16.98c4.31,7.29,6.46,15.65,6.46,25.09
			c0,9.44-2.18,17.83-6.53,25.16c-4.35,7.33-10.5,13.02-18.42,17.05c-7.93,4.03-17.03,6.05-27.29,6.05h-40.56V41.38h41.52
			C889.14,41.38,898.05,43.4,905.8,47.43z M892.67,113.98c3.76-2.29,6.69-5.54,8.8-9.76c2.11-4.21,3.16-9.03,3.16-14.44
			c0-5.5-1.12-10.36-3.37-14.57c-2.25-4.21-5.34-7.49-9.28-9.83c-3.94-2.34-8.43-3.51-13.47-3.51h-15.81v55.54h17.05
			C884.6,117.41,888.91,116.27,892.67,113.98z"/>
		<path fill="#0095B4" d="M985.95,62.97c-5.82-1.93-10.7-2.89-14.64-2.89c-3.12,0-5.57,0.57-7.35,1.72
			c-1.79,1.15-2.68,2.82-2.68,5.02c0,2.11,0.78,3.87,2.34,5.29c1.56,1.42,3.48,2.57,5.77,3.44c2.29,0.87,5.68,1.99,10.17,3.37
			c6.69,1.93,12.21,3.85,16.57,5.77c4.35,1.93,8.09,4.88,11.2,8.87c3.11,3.99,4.67,9.19,4.67,15.6c0,6.42-1.7,11.89-5.09,16.43
			c-3.39,4.54-8.04,7.95-13.96,10.24c-5.91,2.29-12.49,3.44-19.73,3.44c-7.97,0-15.93-1.4-23.85-4.19
			c-7.93-2.79-14.78-6.62-20.55-11.48l9.76-19.66c4.86,4.31,10.61,7.84,17.25,10.59c6.64,2.75,12.53,4.13,17.67,4.13
			c3.76,0,6.71-0.69,8.87-2.06c2.15-1.38,3.23-3.39,3.23-6.05c0-2.2-0.8-4.03-2.41-5.5c-1.6-1.47-3.62-2.63-6.05-3.51
			c-2.43-0.87-5.84-1.9-10.24-3.09c-6.6-1.83-12.05-3.69-16.36-5.57c-4.31-1.88-8-4.72-11.07-8.52c-3.07-3.8-4.61-8.87-4.61-15.19
			c0-5.96,1.58-11.18,4.74-15.67c3.16-4.49,7.65-7.95,13.47-10.38c5.82-2.43,12.58-3.64,20.28-3.64c6.96,0,13.84,0.99,20.62,2.96
			c6.78,1.97,12.74,4.61,17.87,7.91l-9.49,20.07C997.24,67.37,991.77,64.89,985.95,62.97z"/>
	</g>
	<g>
		<polygon fill="#E03B43" points="618.38,73.74 586.62,11.66 557.75,11.66 589.51,73.74 		"/>
		<polygon fill="#AD2330" points="603.95,45.52 601.95,41.62 589.51,73.74 		"/>
		<polygon fill="#FD494F" points="589.51,73.74 621.27,11.66 650.14,11.66 618.38,73.74 		"/>
		<path fill="#585D60" d="M605.38,127.75c-0.8,0-1.48-0.62-1.55-1.43c-0.07-0.86,0.57-1.61,1.43-1.68
			c8.11-0.67,14.45-7.57,14.45-15.71c0-8.69-7.07-15.77-15.77-15.77c-8.69,0-15.76,7.07-15.76,15.77c0,4.91,2.23,9.45,6.11,12.46
			c0.68,0.53,0.8,1.51,0.27,2.19c-0.53,0.68-1.51,0.8-2.19,0.27c-4.65-3.61-7.31-9.05-7.31-14.92c0-10.41,8.47-18.88,18.88-18.88
			c10.41,0,18.88,8.47,18.88,18.88c0,9.75-7.61,18.02-17.31,18.82C605.47,127.74,605.43,127.75,605.38,127.75z"/>
		<path fill="#AFB5BC" d="M616.35,118.04v48.59c0,0.95-0.77,1.71-1.71,1.71h-21.39c-0.95,0-1.71-0.77-1.71-1.71v-48.59
			c0-0.95,0.77-1.71,1.71-1.71h21.39C615.59,116.32,616.35,117.09,616.35,118.04z"/>
		<path fill="#FD494F" d="M591.54,99.81v-4.52c0-0.05,0-0.11-0.01-0.16l-2.02-21.39h2.03h24.81h2.03l-2.02,21.39
			c-0.01,0.05-0.01,0.11-0.01,0.16v4.52c0,0.95-0.77,1.71-1.71,1.71h-21.39C592.31,101.53,591.54,100.76,591.54,99.81z"/>
		<circle fill="#232628" cx="603.95" cy="126.25" r="3.64"/>
		<path fill="#585D60" d="M605.38,127.75c-0.8,0-1.48-0.62-1.55-1.43c-0.07-0.86,0.57-1.61,1.43-1.68
			c8.11-0.67,14.45-7.57,14.45-15.71c0-0.86,0.7-1.56,1.56-1.56c0.86,0,1.56,0.7,1.56,1.56c0,9.75-7.61,18.02-17.31,18.82
			C605.47,127.74,605.43,127.75,605.38,127.75z"/>
	</g>
</g>
</svg>
