<svg id="a3eee63a-70b6-424a-b05d-fa7cc39e33c2" data-name="b6e24f64-c79b-442d-bd3d-5c66af167ca2" xmlns="http://www.w3.org/2000/svg" viewBox="0 0 784 211.1"><defs><style>.b4c7cc64-a57b-4bd2-ba83-826f573fbbab{fill:#e53a40;}.b5b40e7a-66e2-4f3f-acfd-88949af25f4c{fill:#fff;}.ae1159ca-5407-4b86-b001-cd2724f5858a{fill:#256eff;}</style></defs><path class="b4c7cc64-a57b-4bd2-ba83-826f573fbbab" d="M662.1,28.4c.5.4.9.9,1.4,1.3l-18,18c-.5-.4-.9-.9-1.4-1.3Zm-2.9-2.6-18,18c.5.4.9.8,1.4,1.2l18-18a17.72,17.72,0,0,1-1.4-1.2m-3.1-2.6L638,41.3a16.52,16.52,0,0,1,1.4,1.1l18.1-18.1a16.52,16.52,0,0,1-1.4-1.1m-3.2-2.4L634.7,39a17,17,0,0,1,1.4,1l18.2-18.2a17,17,0,0,0-1.4-1m-3.3-2.4L631.2,36.8l1.5.9L651,19.4a17,17,0,0,0-1.4-1m-3.3-2.2L627.7,34.8c.5.3,1,.5,1.5.8l18.5-18.5c-.5-.3-1-.6-1.4-.9m-3.6-2.1L623.9,32.9c.5.2,1,.5,1.5.7l18.7-18.7c-.4-.3-.9-.5-1.4-.8m-3.5-2L620,31.2l1.5.6,19-19a8.14,8.14,0,0,1-1.3-.7m-3.8-1.9L615.9,29.7c.5.2,1,.3,1.5.5l19.3-19.3a8.14,8.14,0,0,1-1.3-.7m-3.8-1.7L611.7,28.4c.5.1,1,.3,1.5.4L633,9.1c-.5-.2-1-.4-1.4-.6m-4.1-1.6L607.1,27.3l1.5.3L628.8,7.4c-.4-.2-.8-.3-1.3-.5m-4.1-1.5-21,21a7.52,7.52,0,0,0,1.5.2L624.7,5.8a4.9,4.9,0,0,1-1.3-.4m-4.3-1.3L597.4,25.8c.5,0,1,.1,1.5.1L620.4,4.4l-1.3-.3m-4.5-1.2L592,25.5h1.5L615.8,3.2c-.3-.1-.8-.2-1.2-.3M610,2,586.4,25.6a9.49,9.49,0,0,0,1.6-.1L611.3,2.2A5.18,5.18,0,0,0,610,2m-4.8-.9-25,25c.5-.1,1.1-.1,1.6-.2L606.4,1.3a4.86,4.86,0,0,1-1.2-.2m-5-.5L573.5,27.3l1.6-.3L601.4.7a4.83,4.83,0,0,0-1.2-.1M514.1,81.1a12.65,12.65,0,0,0-.5,1.8L508.5,88c-.5.4-1.1.8-1.6,1.2a2.15,2.15,0,0,0-.5-.4ZM594.9.2a4.83,4.83,0,0,1,1.2.1L567.6,28.7a12.65,12.65,0,0,1-1.8.5ZM517.6,71.9l-.9,2.1L503.8,86.9a2.44,2.44,0,0,0-.7-.4ZM590.3.1h.3L558.8,31.9l-2.1.9L589.5,0a2,2,0,0,0,.8.1m-64.5,58c-.8,1.1-1.7,2.3-2.4,3.5L500.1,84.9c-.3-.1-.5-.2-.8-.3ZM584.7.2,546.3,38.6c-1.2.8-2.4,1.6-3.5,2.4L583.5.3a4,4,0,0,0,1.2-.1m-6.1.5c-.4,0-.7.1-1.1.1L494.9,83.4c.3,0,.6.1.8.1Zm-6.7,1c-.4.1-.7.1-1.1.2L489.5,83.2h.9Zm-7.2,1.5-1.1.3L488.2,78.9c-.1.4-.2.7-.3,1.1Zm-8.1,2.4c-.4.1-.7.3-1.1.4L490.7,70.8c-.1.4-.3.7-.4,1.1Zm-9.5,3.7a5.74,5.74,0,0,1-1.2.5L494.5,61.2a5.74,5.74,0,0,0-.5,1.2Zm-12,6.4-1.5.9L501.3,48.9l-.9,1.5ZM693.2,82.6l-.6.6a1.66,1.66,0,0,0,.7-.1,4,4,0,0,1-.1-.5m-1.1-4.5-6.5,6.5c.7-.2,1.5-.4,2.3-.6l4.5-4.5c-.1-.5-.2-.9-.3-1.4m-1.3-4.4L669.5,95c.1.5.1,1,.2,1.6l.2-.2a27.38,27.38,0,0,1,8.3-8.3l13-13c-.1-.5-.3-1-.4-1.4m-1.5-4.2L668.7,90.1c.1.5.2,1,.3,1.6l20.8-20.8a5.7,5.7,0,0,0-.5-1.4m-1.6-4.2L667.6,85.4c.1.5.3,1,.4,1.5l20.3-20.2c-.2-.5-.4-.9-.6-1.4M686,61.4,666.4,81c.2.5.3,1,.5,1.5l19.8-19.8a5.44,5.44,0,0,1-.7-1.3m-1.9-3.9L664.9,76.7l.6,1.5,19.4-19.4a7.21,7.21,0,0,1-.8-1.3m-1.9-3.6L663.3,72.8a10.23,10.23,0,0,0,.7,1.5l19-19c-.3-.5-.6-1-.8-1.4M680,50.3,661.3,69c.3.5.5,1,.8,1.5l18.8-18.8c-.3-.5-.6-1-.9-1.4m-2.2-3.5L659.4,65.2l.9,1.5,18.5-18.5a7,7,0,0,1-1-1.4m-2.3-3.3L657.2,61.7l.9,1.5,18.3-18.3c-.3-.5-.6-1-.9-1.4M673,40.2,654.9,58.3a13.48,13.48,0,0,1,1,1.5l18.2-18.1c-.4-.5-.7-1-1.1-1.5m-2.6-3.1-18,18a14.41,14.41,0,0,1,1.1,1.5l18.1-18.1c-.4-.5-.8-.9-1.2-1.4m-2.7-3-18,18a17.23,17.23,0,0,0,1.3,1.4l18-18a9.07,9.07,0,0,0-1.3-1.4M665,31.2l-18,18,1.4,1.4,18-18L665,31.2M531.1,159.4l-18,18c.4.5.9.9,1.3,1.4l18-18c-.4-.5-.9-.9-1.3-1.4m-2.6-3-18,18c.4.5.8.9,1.2,1.4l18-18c-.42-.45-.82-.91-1.2-1.4m-2.5-3.2-18.1,18.1,1.1,1.4,18.1-18.1c-.3-.4-.7-.9-1.1-1.4m-2.3-3.2-18.2,18.2c.3.5.7.9,1,1.4l18.2-18.2a11.49,11.49,0,0,0-1-1.4m-2.1-3.5-18.4,18.4a11.49,11.49,0,0,0,1,1.4L522.5,148l-.9-1.5m-2.1-3.6-18.6,18.6c.3.5.6.9.9,1.4l18.5-18.5a10.79,10.79,0,0,0-.8-1.5m-2.8-2.8L498.8,158c.3.5.5.9.8,1.4l18.8-18.8c0-.1-.1-.1-.1-.2-.5-.1-1-.2-1.6-.3m-4.3-1.2-15.5,15.5c.2.5.5.9.7,1.4l16.3-16.3a9.78,9.78,0,0,0-1.5-.6m-3.5-.2a9,9,0,0,1-3.2,1.2L495,150.6a9.15,9.15,0,0,0,.7,1.4Zm-7.1,1.4h-1.9l-6.6,6.6c.2.4.4.9.6,1.3Zm-5.6,0h-1.8l-2.7,2.7c.2.4.3.9.5,1.3Zm177.1,30.7-17.8,17.8,3-2.4,12.4-12.3c.7-1,1.6-2.1,2.4-3.1m10.4-16-44.1,44.1c.5-.2.9-.5,1.4-.7l42-42c.2-.5.5-.9.7-1.4m4.8-10.4-59.4,59.4c.4-.2.8-.3,1.2-.5L688,145.6c.2-.4.3-.8.5-1.2m-1.1-4.7-67.1,67.1,1.2-.3,66.6-66.6a5.6,5.6,0,0,1-.7-.2m-4.2-1.4-70.5,70.4c.4-.1.8-.2,1.1-.3l69.9-69.9a1.69,1.69,0,0,1-.5-.2m-5.3.5a13.15,13.15,0,0,1-1.8.8L605.7,210c.4-.1.8-.1,1.2-.2Zm-6.9,1.3h-1.1l-70.6,70.6c.4,0,.8-.1,1.2-.1Zm-40,34.4-36.6,36.6h-1.2L628.3,176q1.5-.75,2.7-1.5m34.4-34.4-6.2,6.2c.5-.9,1-1.8,1.5-2.6l3.6-3.6Zm-45.5,39.8c-.7.3-1.3.5-2,.8l-30.4,30.4h1.2Zm-8.4,2.8c-.6.2-1.2.3-1.8.5l-27.6,27.6c.4,0,.8.1,1.2.1Zm-7.2,1.7-1.7.3L577,210.2c.4.1.8.1,1.3.2Zm-6.5.9a8.55,8.55,0,0,1-1.6.1l-24.1,24.1c.4.1.9.1,1.3.2Zm-6,.3h-1.6l-22.9,22.9,1.3.3Zm-7-.2-22,22,1.3.3,22.3-22.3a8.55,8.55,0,0,1-1.6,0m-5.2-.5-21.2,21.2c.4.1.9.3,1.3.4L581.2,185a7.78,7.78,0,0,1-1.6-.1m-4.9-.8-20.6,20.6c.4.2.9.3,1.4.5l20.8-20.8c-.6-.1-1.1-.2-1.6-.3M570,183l-20,20c.5.2.9.4,1.4.6l20.2-20.2a12.47,12.47,0,0,1-1.6-.4m-4.3-1.3-19.6,19.6c.5.2.9.4,1.4.6l19.7-19.7a8.8,8.8,0,0,1-1.5-.5m-4.3-1.5-19.2,19.2c.5.2.9.5,1.4.7l19.3-19.3-1.5-.6m-4-1.6-18.9,18.9c.5.3.9.5,1.4.8l19-19a10.23,10.23,0,0,0-1.5-.7m-3.8-1.9L535,195.3c.5.3.9.6,1.4.9l18.7-18.7c-.5-.3-1-.5-1.5-.8m-3.7-2-18.4,18.4c.5.3.9.6,1.4.9l18.5-18.5c-.5-.3-1-.5-1.5-.8m-3.5-2.2-18.2,18.2c.5.3.9.7,1.4,1l18.3-18.3-1.5-.9m-3.4-2.3-18.1,18.1,1.4,1.1,18.2-18.2c-.5-.3-1-.7-1.5-1m-3.2-2.5-18,18c.5.4.9.8,1.4,1.2l18.1-18.1a14.41,14.41,0,0,1-1.5-1.1m-3.1-2.7-18,18c.5.4.9.9,1.4,1.3l18-18c-.4-.4-.9-.8-1.4-1.3m-2.8-2.7-18,18,1.4,1.4,18-18-1.4-1.4"/><path class="b5b40e7a-66e2-4f3f-acfd-88949af25f4c" d="M26.8,81.7c8,0,13.4,3.2,18.5,7.7l-8.2,9.3A13.73,13.73,0,0,0,26.7,94c-7.5,0-12.4,5.5-12.4,12.4a12.14,12.14,0,0,0,11.77,12.5h.73a13.11,13.11,0,0,0,10.4-4.7l8.2,9.3c-5.2,4.5-10.6,7.7-18.5,7.7C10.6,131.2,0,119.8,0,106.5S10.6,81.7,26.8,81.7Zm45.1,29c0-2.8-.6-6.1-4.2-6.1s-4.2,3.3-4.2,6.1v19.8H49.3V80.8H63.4v18c2-3.2,5.2-5.2,10-5.2,11.2,0,12.6,9.8,12.6,15.7v21.1H71.9ZM117.8,126c-1.9,3.2-5.6,5.2-10.3,5.2-9.6,0-17-7.9-17-18.8s7.3-18.8,17-18.8c4.7,0,8.4,2,10.3,5.3V94.4H132v36.1H117.8Zm-6.4-5.5c4.1,0,6.7-3.5,6.7-8s-2.5-8-6.7-8-6.7,3.5-6.7,8S107.3,120.5,111.4,120.5Zm41.4,10H138.7V80.8h14.1Zm20.9,0H159.6V80.8h14.1Zm4.8-17.9c0-9.9,7.1-19,20.2-19,11.4,0,19.9,6.9,19.9,18.4a17.17,17.17,0,0,1-.3,3.2H191.7c0,2,3.2,5.4,9.3,5.4a15.82,15.82,0,0,0,9.8-3.5l5.8,7.8c-4.5,4.5-10.8,6.2-16.8,6.2-13.4.1-21.3-8.2-21.3-18.5Zm13.2-3.9h14.1c-.2-3.5-3.6-5.2-7.1-5.2s-6.8,1.7-7,5.2Zm54.2,2c0-2.8-.6-6.1-4.3-6.1s-4.2,3.3-4.2,6.1v19.8H223.3V94.4h14.1v4.5c2-3.2,5.1-5.2,10-5.2,11.2,0,12.6,9.8,12.6,15.7v21.1H245.9Zm35.4,20.5c-9.6,0-16.8-8.4-16.8-18.8s7.1-18.8,16.8-18.8c4.7,0,8.4,2,10.3,5.3V94.4h13.7v31.4c0,15.4-9.3,20.8-21.1,20.8-6.5,0-13.3-1.5-18-4.7l5.1-9.3c3,1.8,6.9,3.6,11.1,3.6,5.6,0,9.3-2.8,9.3-10.2C289.9,129.2,285.9,131.2,281.3,131.2Zm3.8-10.5c4.1,0,6.7-3.7,6.7-8.2s-2.5-8.2-6.7-8.2-6.8,3.7-6.8,8.2,2.7,8.2,6.8,8.2Zm25-8.1c0-9.9,7.1-19,20.2-19,11.4,0,19.9,6.9,19.9,18.4a17.17,17.17,0,0,1-.3,3.2H323.3c0,2,3.2,5.4,9.3,5.4a15.82,15.82,0,0,0,9.8-3.5l5.8,7.8c-4.5,4.5-10.9,6.2-16.8,6.2-13.4.1-21.3-8.2-21.3-18.5Zm13.2-3.9h14.1c-.2-3.5-3.6-5.2-7.1-5.2S323.5,105.2,323.3,108.7Zm56.6-27c8,0,13.4,3.2,18.5,7.7l-8.2,9.3A13.73,13.73,0,0,0,379.8,94c-7.5,0-12.4,5.5-12.4,12.4s4.9,12.4,12.4,12.4a13.11,13.11,0,0,0,10.4-4.7l8.2,9.3c-5.1,4.5-10.6,7.7-18.5,7.7-16.2,0-26.8-11.4-26.8-24.8S363.7,81.7,379.9,81.7Zm40.4,49.5c-12.4,0-20.9-8.4-20.9-18.8s8.5-18.8,20.9-18.8,20.9,8.4,20.9,18.8S432.7,131.2,420.3,131.2Zm0-11a7.85,7.85,0,1,0-7.8-7.9v.1a7.42,7.42,0,0,0,7.05,7.79h.15a.64.64,0,0,0,.6,0ZM453,79.5c5.4,0,7.9,2.8,7.9,6.3s-2.8,6.3-7.9,6.3-7.9-2.8-7.9-6.3S447.7,79.5,453,79.5Zm7.1,14.9H446v36.1h14.1Zm29.3,16.3c0-2.8-.6-6.1-4.2-6.1s-4.2,3.3-4.2,6.1v19.8H466.9V94.4H481v4.5c2-3.2,5.1-5.2,10-5.2,11.2,0,12.6,9.8,12.6,15.7v21.1H489.5Zm28.4,6.6c.7,3.4,3,4.4,5.9,4.4,2.1,0,3.4-.6,3.4-1.8,0-.7-.3-1.2-2.4-1.9l-4.1-1.5c-2-.8-11.3-3.1-11.3-11,0-7.2,6.4-11.9,14.7-11.9,6.5,0,11.5,2.5,14.3,9.2l-10.2,2.9a4.32,4.32,0,0,0-4.2-2.9c-1.5,0-2.3.8-2.3,1.7s.8,1.3,2.4,1.8l4,1.7c7.8,2.7,11.3,6.6,11.5,11.5,0,8.1-7.3,11.7-15.7,11.7-9,0-15-3.7-16.2-11.6Zm133.4.8h21.6v12.4h-36v-48h14.4Zm24-5.5c0-9.9,7.1-19,20.2-19,11.4,0,19.9,6.9,19.9,18.4a17.17,17.17,0,0,1-.3,3.2H688.4c0,2,3.2,5.4,9.3,5.4a15.82,15.82,0,0,0,9.8-3.5l5.8,7.8c-4.5,4.5-10.8,6.2-16.8,6.2-13.4.1-21.3-8.2-21.3-18.5Zm13.2-3.9h14.1c-.2-3.5-3.6-5.2-7.1-5.2s-6.8,1.7-7,5.2Zm39.5,8.6c.7,3.4,3,4.4,5.9,4.4,2.1,0,3.4-.6,3.4-1.8,0-.7-.3-1.2-2.4-1.9l-4.1-1.5c-2-.8-11.2-3.1-11.2-11,0-7.2,6.4-11.9,14.7-11.9,6.5,0,11.5,2.5,14.3,9.2l-10.2,2.9a4.32,4.32,0,0,0-4.2-2.9c-1.5,0-2.3.8-2.3,1.7s.8,1.3,2.4,1.8l4,1.7c7.8,2.7,11.3,6.6,11.5,11.5,0,8.1-7.3,11.7-15.7,11.7-9,0-15-3.7-16.2-11.6Zm34.4,0c.7,3.4,3,4.4,5.9,4.4,2.1,0,3.4-.6,3.4-1.8,0-.7-.3-1.2-2.4-1.9l-4.1-1.5c-2-.8-11.3-3.1-11.3-11,0-7.2,6.4-11.9,14.7-11.9,6.5,0,11.5,2.5,14.3,9.2l-10.2,2.9a4.32,4.32,0,0,0-4.2-2.9c-1.5,0-2.3.8-2.3,1.7s.8,1.3,2.4,1.8l4,1.7c7.8,2.7,11.3,6.6,11.5,11.5,0,8.1-7.3,11.7-15.7,11.7-9,0-15-3.7-16.2-11.6Z"/><path class="ae1159ca-5407-4b86-b001-cd2724f5858a" d="M543.4,130.3V118.5a1.42,1.42,0,0,1,.2-.6l53.3-61.5a.89.89,0,0,1,.7-.3H611a.9.9,0,0,1,.9.9h0v55.4a.9.9,0,0,0,.9.9h18.1a.9.9,0,0,1,.9.9h0v16.1a.9.9,0,0,1-.9.9H612.8a.9.9,0,0,0-.9.9h0v23.3a.9.9,0,0,1-.9.9H591a.9.9,0,0,1-.9-.9h0V132.1a.9.9,0,0,0-.9-.9h-45a.88.88,0,0,1-.8-.9Zm46.8-17.8V89.9a.87.87,0,0,0-.83-.89.88.88,0,0,0-.67.29L569,111.9a.85.85,0,0,0,.06,1.19.87.87,0,0,0,.64.21h19.7A.86.86,0,0,0,590.2,112.5Z"/><path class="b5b40e7a-66e2-4f3f-acfd-88949af25f4c" d="M772.1,78H768a.5.5,0,0,0,0,1h1.6v4.9a.5.5,0,0,0,1,0V79h1.6a.47.47,0,0,0,.5-.44V78.5C772.5,78.2,772.3,78,772.1,78Zm7.7,0a.36.36,0,0,0-.49.18v0l-2.6,3.5-2.6-3.5c-.1-.2-.3-.2-.5-.2s-.3.2-.3.4v5.4a.5.5,0,0,0,1,0V79.9l2.1,2.9a.61.61,0,0,0,.8,0l2.1-2.9v3.9a.5.5,0,0,0,1,0V78.4C780.1,78.2,780,78,779.8,78Z"/></svg>