<svg id="bc24b667-3fed-412f-a44f-ee77ba2558a2" data-name="Layer 1" xmlns="http://www.w3.org/2000/svg" viewBox="0 0 210.97 210.97"><defs><style>.effa79a5-62db-4c57-b4a2-fed5ca94a39c{fill:#256eff;}.a3ac58fa-64ec-4f75-ad73-2de0419b9bdf{fill:#e53a40;}</style></defs><path class="effa79a5-62db-4c57-b4a2-fed5ca94a39c" d="M57.28,127.58v-11.8a1.42,1.42,0,0,1,.2-.6l53.3-61.5a.91.91,0,0,1,.7-.3h13.4a.9.9,0,0,1,.9.9v55.4a.9.9,0,0,0,.9.9h18.1a.9.9,0,0,1,.9.9v16.1a.9.9,0,0,1-.9.9h-18.1a.9.9,0,0,0-.9.9v23.3a.9.9,0,0,1-.9.9h-20a.9.9,0,0,1-.9-.9v-23.3a.9.9,0,0,0-.9-.9h-45a.88.88,0,0,1-.8-.9Zm46.8-17.8V87.18a.86.86,0,0,0-1.5-.6l-19.7,22.6a.84.84,0,0,0,.7,1.4h19.7A.86.86,0,0,0,104.08,109.78Z"/><path class="a3ac58fa-64ec-4f75-ad73-2de0419b9bdf" d="M139,32.32l1.5.68L159,14.53l-1.38-.8Z"/><path class="a3ac58fa-64ec-4f75-ad73-2de0419b9bdf" d="M149.83,38.35c.48.32,1,.65,1.44,1L169.2,21.4l-1.39-1Z"/><path class="a3ac58fa-64ec-4f75-ad73-2de0419b9bdf" d="M146.35,36.17c.49.29,1,.58,1.46.88L165.88,19l-1.39-1Z"/><path class="a3ac58fa-64ec-4f75-ad73-2de0419b9bdf" d="M153.1,40.63c.48.36,1,.72,1.43,1.09l17.83-17.83L171,22.77Z"/><path class="a3ac58fa-64ec-4f75-ad73-2de0419b9bdf" d="M142.77,34.18c.49.26,1,.51,1.47.78L162.5,16.71l-1.39-.87Z"/><path class="a3ac58fa-64ec-4f75-ad73-2de0419b9bdf" d="M165,51.29c.42.47.83,1,1.25,1.44L184,35l-1.29-1.4Z"/><path class="a3ac58fa-64ec-4f75-ad73-2de0419b9bdf" d="M167.63,54.37c.39.47.76,1,1.14,1.45L186.58,38l-1.19-1.41Z"/><path class="a3ac58fa-64ec-4f75-ad73-2de0419b9bdf" d="M170.13,57.57c.36.49.7,1,1.05,1.47l17.91-17.9q-.54-.7-1.11-1.41Z"/><path class="a3ac58fa-64ec-4f75-ad73-2de0419b9bdf" d="M159.28,45.66l1.39,1.3L178.4,29.24,177,27.94Z"/><path class="a3ac58fa-64ec-4f75-ad73-2de0419b9bdf" d="M156.29,43.1c.48.39.94.79,1.41,1.19l17.76-17.75-1.39-1.22Z"/><path class="a3ac58fa-64ec-4f75-ad73-2de0419b9bdf" d="M126.67,27.84l1.5.43,19.5-19.5-1.34-.58Z"/><path class="a3ac58fa-64ec-4f75-ad73-2de0419b9bdf" d="M71.41,32.59c.7-.33,1.39-.64,2.1-1L105.16,0H104Z"/><path class="a3ac58fa-64ec-4f75-ad73-2de0419b9bdf" d="M95.09,25.69c.54-.07,1.08-.15,1.63-.21L121.06,1.14,119.82,1Z"/><path class="a3ac58fa-64ec-4f75-ad73-2de0419b9bdf" d="M107,25l1.54,0L130.58,3l-1.27-.31Z"/><path class="a3ac58fa-64ec-4f75-ad73-2de0419b9bdf" d="M80.63,28.94l1.8-.56L110.68.12l-1.18,0Z"/><path class="a3ac58fa-64ec-4f75-ad73-2de0419b9bdf" d="M88.39,26.84l1.66-.34,26-26L114.82.41Z"/><path class="a3ac58fa-64ec-4f75-ad73-2de0419b9bdf" d="M112.35,25.31c.51,0,1,.07,1.54.12L135.11,4.22l-1.3-.37Z"/><path class="a3ac58fa-64ec-4f75-ad73-2de0419b9bdf" d="M135.08,30.65l1.5.59,18.76-18.75L154,11.77Z"/><path class="a3ac58fa-64ec-4f75-ad73-2de0419b9bdf" d="M172.47,60.9c.33.49.64,1,.95,1.48l18.05-18-1-1.41Z"/><path class="a3ac58fa-64ec-4f75-ad73-2de0419b9bdf" d="M131,29.14c.5.17,1,.33,1.49.51l19.1-19.1-1.36-.64Z"/><path class="a3ac58fa-64ec-4f75-ad73-2de0419b9bdf" d="M117.34,25.87l1.51.25L139.4,5.56l-1.32-.43Z"/><path class="a3ac58fa-64ec-4f75-ad73-2de0419b9bdf" d="M122.14,26.74c.5.1,1,.23,1.49.34l20-20-1.33-.51Z"/><path class="a3ac58fa-64ec-4f75-ad73-2de0419b9bdf" d="M101.34,25.1l1.54,0L126,2l-1.26-.25Z"/><path class="a3ac58fa-64ec-4f75-ad73-2de0419b9bdf" d="M163.56,49.82,181.27,32.1c-.45-.47-.91-.93-1.37-1.39l-17.71,17.7C162.66,48.87,163.1,49.35,163.56,49.82Z"/><path class="a3ac58fa-64ec-4f75-ad73-2de0419b9bdf" d="M93.05.73,91.94.86.87,91.89c-.05.37-.09.74-.13,1.11Z"/><path class="a3ac58fa-64ec-4f75-ad73-2de0419b9bdf" d="M183.94,123.49c-.13.57-.25,1.15-.39,1.71L210.73,98l-.09-1.22Z"/><path class="a3ac58fa-64ec-4f75-ad73-2de0419b9bdf" d="M210.93,109c0-.39,0-.78,0-1.18l-33.36,33.36c-.39.79-.78,1.57-1.2,2.35Z"/><path class="a3ac58fa-64ec-4f75-ad73-2de0419b9bdf" d="M86.29,1.74,85.19,2,2,85.19c-.08.37-.15.74-.22,1.1Z"/><path class="a3ac58fa-64ec-4f75-ad73-2de0419b9bdf" d="M181.68,131.43c-.21.63-.41,1.26-.64,1.88L211,103.39l0-1.2Z"/><path class="a3ac58fa-64ec-4f75-ad73-2de0419b9bdf" d="M48.41,162.19,30.71,179.9l1.39,1.38,17.72-17.72C49.35,163.1,48.87,162.66,48.41,162.19Z"/><path class="a3ac58fa-64ec-4f75-ad73-2de0419b9bdf" d="M61.17,9.74,60,10.3,10.3,60c-.19.39-.38.79-.56,1.19Z"/><path class="a3ac58fa-64ec-4f75-ad73-2de0419b9bdf" d="M17.64,47.08c-.36.53-.71,1.06-1.06,1.6l32.1-32.1-1.6,1.06Z"/><path class="a3ac58fa-64ec-4f75-ad73-2de0419b9bdf" d="M79.06,3.34c-.37.09-.74.2-1.11.3L3.65,77.9,3.35,79Z"/><path class="a3ac58fa-64ec-4f75-ad73-2de0419b9bdf" d="M70.82,5.83l-1.12.4L6.23,69.7c-.14.37-.27.75-.4,1.12Z"/><path class="a3ac58fa-64ec-4f75-ad73-2de0419b9bdf" d="M186,104.33c0,.39,0,.78,0,1.17,0,.13,0,.26,0,.4l22.65-22.65c-.1-.44-.19-.87-.29-1.3Z"/><path class="a3ac58fa-64ec-4f75-ad73-2de0419b9bdf" d="M183.16,84.37c.14.5.28,1,.41,1.52l19.81-19.81c-.19-.46-.37-.92-.56-1.37Z"/><path class="a3ac58fa-64ec-4f75-ad73-2de0419b9bdf" d="M181.85,80c.16.5.35,1,.51,1.5l19.36-19.36c-.21-.46-.42-.92-.64-1.37Z"/><path class="a3ac58fa-64ec-4f75-ad73-2de0419b9bdf" d="M180.31,75.84c.2.5.4,1,.59,1.5l19-19c-.23-.47-.47-.93-.7-1.39Z"/><path class="a3ac58fa-64ec-4f75-ad73-2de0419b9bdf" d="M176.72,68l.77,1.5,18.42-18.43c-.28-.47-.57-.93-.86-1.4Z"/><path class="a3ac58fa-64ec-4f75-ad73-2de0419b9bdf" d="M178.61,71.86l.67,1.5L198,54.69l-.78-1.4Z"/><path class="a3ac58fa-64ec-4f75-ad73-2de0419b9bdf" d="M185.85,110.19c0,.55-.08,1.09-.13,1.63L209.54,88l-.21-1.29Z"/><path class="a3ac58fa-64ec-4f75-ad73-2de0419b9bdf" d="M184.29,89c.1.51.19,1,.29,1.54l20.35-20.35c-.16-.45-.32-.9-.49-1.35Z"/><path class="a3ac58fa-64ec-4f75-ad73-2de0419b9bdf" d="M185.22,116.51c-.07.55-.14,1.1-.23,1.64l25.25-25.24q-.06-.63-.15-1.26Z"/><path class="a3ac58fa-64ec-4f75-ad73-2de0419b9bdf" d="M174.68,64.41c.29.49.58,1,.86,1.49l18.21-18.21-.93-1.41Z"/><path class="a3ac58fa-64ec-4f75-ad73-2de0419b9bdf" d="M185.13,93.78c.08.52.14,1,.2,1.56l21-21c-.14-.45-.28-.89-.43-1.33Z"/><path class="a3ac58fa-64ec-4f75-ad73-2de0419b9bdf" d="M185.71,99c0,.52.08,1,.11,1.55l21.75-21.75c-.11-.43-.23-.87-.35-1.31Z"/><path class="a3ac58fa-64ec-4f75-ad73-2de0419b9bdf" d="M34.94,144.21c-.27-.49-.52-1-.78-1.48L15.81,161.07l.87,1.39Z"/><path class="a3ac58fa-64ec-4f75-ad73-2de0419b9bdf" d="M90.53,184.58,89,184.29,68.83,204.44l1.35.49Z"/><path class="a3ac58fa-64ec-4f75-ad73-2de0419b9bdf" d="M85.88,183.57l-1.51-.41L64.71,202.82l1.37.56Z"/><path class="a3ac58fa-64ec-4f75-ad73-2de0419b9bdf" d="M95.34,185.33c-.52-.06-1-.12-1.56-.2L73,205.89l1.33.43Z"/><path class="a3ac58fa-64ec-4f75-ad73-2de0419b9bdf" d="M105.9,186h-.4l-1.17,0L82,208.35l1.3.29Z"/><path class="a3ac58fa-64ec-4f75-ad73-2de0419b9bdf" d="M57.32,41.05c1.17-.88,2.37-1.72,3.59-2.54L99.24.19,98.1.26Z"/><path class="a3ac58fa-64ec-4f75-ad73-2de0419b9bdf" d="M69.54,177.49l-1.5-.77L49.71,195.05l1.4.86Z"/><path class="a3ac58fa-64ec-4f75-ad73-2de0419b9bdf" d="M65.86,175.52c-.5-.28-1-.56-1.49-.86L46.24,192.79c.46.32.94.63,1.41.94Z"/><path class="a3ac58fa-64ec-4f75-ad73-2de0419b9bdf" d="M81.54,182.36c-.51-.16-1-.34-1.5-.51L60.81,201.08l1.37.64Z"/><path class="a3ac58fa-64ec-4f75-ad73-2de0419b9bdf" d="M111.82,185.72c-.54.05-1.08.1-1.63.13L86.71,209.33l1.29.21Z"/><path class="a3ac58fa-64ec-4f75-ad73-2de0419b9bdf" d="M77.34,180.9c-.51-.19-1-.39-1.5-.59L57,199.19l1.39.7Z"/><path class="a3ac58fa-64ec-4f75-ad73-2de0419b9bdf" d="M73.33,179.27l-1.5-.68L53.25,197.17l1.39.78Z"/><path class="a3ac58fa-64ec-4f75-ad73-2de0419b9bdf" d="M198.75,154.86c.24-.45.48-.89.71-1.34l-45.94,45.94,1.34-.71Z"/><path class="a3ac58fa-64ec-4f75-ad73-2de0419b9bdf" d="M203.54,144.51c.16-.39.31-.79.46-1.18L143.33,204l1.18-.46Z"/><path class="a3ac58fa-64ec-4f75-ad73-2de0419b9bdf" d="M206.56,135.84c.11-.39.23-.77.34-1.15L134.69,206.9l1.15-.34Z"/><path class="a3ac58fa-64ec-4f75-ad73-2de0419b9bdf" d="M187.9,171.37c.65-.82,1.3-1.64,1.93-2.48l-20.94,20.94c.83-.63,1.66-1.28,2.48-1.93Z"/><path class="a3ac58fa-64ec-4f75-ad73-2de0419b9bdf" d="M208.51,128.33c.08-.38.17-.76.25-1.14l-81.57,81.57,1.14-.25Z"/><path class="a3ac58fa-64ec-4f75-ad73-2de0419b9bdf" d="M62.38,173.43c-.49-.32-1-.63-1.48-1l-18,18,1.41,1Z"/><path class="a3ac58fa-64ec-4f75-ad73-2de0419b9bdf" d="M209.81,121.37l.15-1.13L120.24,210l1.13-.16Z"/><path class="a3ac58fa-64ec-4f75-ad73-2de0419b9bdf" d="M125.2,183.55c-.56.14-1.14.26-1.71.39L96.8,210.64l1.22.09Z"/><path class="a3ac58fa-64ec-4f75-ad73-2de0419b9bdf" d="M133.27,181.05c-.62.23-1.25.43-1.88.65l-29.25,29.24,1.2,0Z"/><path class="a3ac58fa-64ec-4f75-ad73-2de0419b9bdf" d="M210.56,115c0-.38.08-.77.11-1.16l-44.54,44.52a81.93,81.93,0,0,1-7.8,7.79l-44.54,44.52,1.17-.1Z"/><path class="a3ac58fa-64ec-4f75-ad73-2de0419b9bdf" d="M143.56,176.41c-.78.42-1.57.81-2.35,1.2L107.85,211l1.18,0Z"/><path class="a3ac58fa-64ec-4f75-ad73-2de0419b9bdf" d="M118.11,185c-.54.09-1.09.15-1.64.23L91.6,210.08l1.26.16Z"/><path class="a3ac58fa-64ec-4f75-ad73-2de0419b9bdf" d="M100.5,185.83,99,185.71,77.44,207.22l1.31.35Z"/><path class="a3ac58fa-64ec-4f75-ad73-2de0419b9bdf" d="M25.07,108.51c0-.51,0-1,0-1.54L2.69,129.31c.1.42.21.85.31,1.27Z"/><path class="a3ac58fa-64ec-4f75-ad73-2de0419b9bdf" d="M25.43,113.89c-.05-.51-.08-1-.12-1.54L3.84,133.81c.13.44.25.87.38,1.3Z"/><path class="a3ac58fa-64ec-4f75-ad73-2de0419b9bdf" d="M28.26,128.14c-.15-.5-.29-1-.43-1.5L8.17,146.29c.19.45.39.89.58,1.34Z"/><path class="a3ac58fa-64ec-4f75-ad73-2de0419b9bdf" d="M25.06,102.88c0-.51,0-1,0-1.54L1.74,124.7c.08.42.16.84.25,1.26Z"/><path class="a3ac58fa-64ec-4f75-ad73-2de0419b9bdf" d="M27.08,123.63c-.11-.5-.24-1-.34-1.49L6.59,142.28l.51,1.33Z"/><path class="a3ac58fa-64ec-4f75-ad73-2de0419b9bdf" d="M26.12,118.85c-.08-.51-.17-1-.25-1.51L5.13,138.08c.15.44.29.89.43,1.33Z"/><path class="a3ac58fa-64ec-4f75-ad73-2de0419b9bdf" d="M38.51,60.91c.81-1.22,1.66-2.42,2.53-3.59L.26,98.1c0,.38-.05.76-.08,1.14Z"/><path class="a3ac58fa-64ec-4f75-ad73-2de0419b9bdf" d="M31.66,73.47c.3-.7.62-1.4.94-2.09L0,104c0,.38,0,.77,0,1.16Z"/><path class="a3ac58fa-64ec-4f75-ad73-2de0419b9bdf" d="M25.48,96.72c.06-.55.14-1.08.21-1.62L1,119.82c.05.41.11.83.17,1.24Z"/><path class="a3ac58fa-64ec-4f75-ad73-2de0419b9bdf" d="M59,171.16c-.49-.35-1-.69-1.47-1L39.69,188q.7.57,1.41,1.11Z"/><path class="a3ac58fa-64ec-4f75-ad73-2de0419b9bdf" d="M26.5,90.05c.11-.55.22-1.11.34-1.66L.41,114.82c0,.41.07.81.11,1.21Z"/><path class="a3ac58fa-64ec-4f75-ad73-2de0419b9bdf" d="M28.38,82.43c.18-.6.37-1.2.56-1.8L.08,109.5c0,.39,0,.79,0,1.18Z"/><path class="a3ac58fa-64ec-4f75-ad73-2de0419b9bdf" d="M44.29,157.7c-.4-.47-.8-.93-1.19-1.41L25.32,174.07l1.22,1.39Z"/><path class="a3ac58fa-64ec-4f75-ad73-2de0419b9bdf" d="M47,160.67c-.43-.46-.87-.91-1.3-1.39L27.94,177c.43.46.86.93,1.3,1.39Z"/><path class="a3ac58fa-64ec-4f75-ad73-2de0419b9bdf" d="M52.73,166.21c-.48-.42-1-.82-1.44-1.25L33.58,182.67c.46.44.93.87,1.4,1.29Z"/><path class="a3ac58fa-64ec-4f75-ad73-2de0419b9bdf" d="M55.82,168.77c-.48-.38-1-.75-1.46-1.14L36.6,185.39c.46.4.94.8,1.41,1.19Z"/><path class="a3ac58fa-64ec-4f75-ad73-2de0419b9bdf" d="M41.72,154.53c-.37-.47-.73-.95-1.09-1.43L22.77,171c.37.46.74.93,1.12,1.39Z"/><path class="a3ac58fa-64ec-4f75-ad73-2de0419b9bdf" d="M37.05,147.81c-.3-.48-.59-1-.88-1.46L18,164.5l1,1.38Z"/><path class="a3ac58fa-64ec-4f75-ad73-2de0419b9bdf" d="M39.33,151.28l-1-1.45-18,18c.34.47.68.93,1,1.39Z"/><path class="a3ac58fa-64ec-4f75-ad73-2de0419b9bdf" d="M33,140.48c-.24-.49-.45-1-.68-1.5L13.73,157.57c.26.47.53.92.8,1.38Z"/><path class="a3ac58fa-64ec-4f75-ad73-2de0419b9bdf" d="M31.23,136.54c-.21-.49-.39-1-.59-1.5L11.75,153.93l.72,1.37Z"/><path class="a3ac58fa-64ec-4f75-ad73-2de0419b9bdf" d="M29.65,132.45c-.18-.5-.34-1-.51-1.5L9.91,150.18c.21.46.42.91.64,1.36Z"/></svg>