<?xml version="1.0" encoding="UTF-8"?>
<svg id="Layer_1" xmlns="http://www.w3.org/2000/svg" version="1.1" viewBox="0 0 726.61 108.25">
  <!-- Generator: Adobe Illustrator 29.6.1, SVG Export Plug-In . SVG Version: 2.1.1 Build 9)  -->
  <defs>
    <style>
      .st0 {
        fill: #136693;
      }

      .st1 {
        fill: #0083c0;
      }

      .st2 {
        fill: #fff;
      }

      .st3 {
        fill: #bbb;
      }

      .st4 {
        fill: #b3b3b3;
      }

      .st5 {
        fill: #e90086;
      }

      .st6 {
        fill: #dcdcdc;
      }

      .st7 {
        fill: #999;
      }
    </style>
  </defs>
  <path class="st7" d="M646.25,27.56l-2.9,12.7-2.1.2.9-7.6.1-.8c0-.4-.3-.6-.6-.6h-.2l-9.6.9c-.3,0-.5.2-.5.5l-.1,1.3-2.3.3c-.07,0-.1-.03-.1-.1v-1.8l3.6-3.3,13.8-1.7h0Z"/>
  <path class="st0" d="M668.75,37.46l-13.9,1.6c2.8-3.4,8.3-10.6,8.6-14.7.7-8.3-4-14.2-11.2-16.4,3.7-2.7,8-2.9,12.9-2.2l-1.5-.9c2.5,1.2,5.2,3.3,7.3,6.8,3.1,5.3,3.8,11.5-2.2,25.8h0Z"/>
  <path class="st1" d="M665.15,5.66c-4.9-.7-9.2-.5-12.9,2.2-.9.7-1.8,1.5-2.6,2.5-3.8,4.6-4.6,9.4-4.8,11.7l-10.7,1.5c.8-3.9,4.5-18.8,16.3-20.6,6.9-.9,10,.1,13.1,1.8h.1l1.5.9h0Z"/>
  <path class="st0" d="M723.45,70.66c-.7,1.9-9.4,3.8-19.1,5-.9-.3-1.9-.6-3.1-.8-6.5-1.4-22.6-3.4-28.4-4.2l2.3-12.5c7.2,1.2,27.9,4.7,34.7,6.6,7.1,2,12.2,3.6,13.5,5.7.07.07.1.13.1.2Z"/>
  <path class="st1" d="M721.25,81.86c-.2.7-.1,2-4.3,3.6-3.8,1.5-9.9,3.9-25.1,5.2-9.6.9-18.4.9-22.6.8l2.6-14.2c5.7.1,17.2.2,26.5-.8,2-.2,4.1-.5,6.2-.8,9.6-1.3,18.4-3.1,19.1-5,0-.1.1-.1.1-.2.7,1.6-1.6,8.9-2.5,11.4Z"/>
  <g>
    <path class="st2" d="M603.65,74.26c-.3-1.1-.8-1.6-1.4-1.7-.6,0-1.2.4-1.6,1.4-.4.9-.7,2.1-.8,3.6-.2,1.5-.1,2.7.2,3.9.2,1,.7,1.6,1.3,1.7s1.1-.4,1.6-1.3c.5-1,.8-2.2.9-3.7.2-1.6.1-2.8-.2-3.9ZM616.05,55.66c-.6-1-1.5-1.5-2.7-1.4-.9.1-1.8.4-2.6,1.1-.8.7-1.6,1.6-2.3,2.9-.7,1.3-1.3,2.8-1.8,4.7s-.9,4-1.1,6.5c-.2,2.1-.2,4-.1,5.8.2,1.8.5,3.3.9,4.6.4,1.3,1,2.4,1.7,3.2.8.8,1.6,1.3,2.6,1.5,1.2.1,2.1-.1,2.8-.9.8-.8,1.2-2,1.4-3.6.1-.9.1-1.6,0-2.3-.1-.7-.3-1.3-.6-1.9-.4.3-.7.6-1.1.8-.4.3-.8.4-1.3.3-.8-.1-1.5-.8-1.9-2s-.5-3-.3-5.4c.1-1.2.3-2.2.5-3.1s.5-1.6.8-2.2.7-1.1,1.1-1.4c.4-.3.8-.5,1.2-.5s.9.1,1.2.4c.4.3.7.6,1,.9.2-.5.5-1,.7-1.7.3-.7.4-1.4.5-2.2.2-1.7,0-3.1-.6-4.1h0ZM631.55,58.26c-.6-1.5-1.3-2.6-2.2-3.4-.9-.8-1.9-1.2-3.1-1.1-1.2,0-2.3.5-3.3,1.3-1,.9-1.9,2-2.7,3.4-.8,1.4-1.5,3.1-2,5.1-.6,1.9-1,4.1-1.2,6.5-.3,2.4-.3,4.6-.2,6.5s.4,3.6.9,5,1.1,2.5,1.9,3.4c.8.9,1.7,1.4,2.8,1.6,1.1.1,2.2,0,3.2-.6s1.9-1.5,2.8-2.8c.9-1.3,1.7-3,2.3-5.1.7-2.1,1.2-4.5,1.5-7.3.3-2.6.4-5,.4-7-.2-2.2-.5-4-1.1-5.5h0ZM665.35,59.46c-.2-1.9-.7-3.5-1.4-4.6s-1.6-1.9-2.6-2.4-2.1-.7-3.2-.6c-1.5.1-2.9.5-4,1.2-1.1.8-2.1,1.6-3.1,2.7-.6-1.1-1.4-2-2.4-2.5s-2-.8-3-.7c-1.4.1-2.8.5-4.2,1.2-1.3.8-2.4,1.7-3.3,2.9-.5.6-.9,1.3-1.3,2.1-.4.8-.6,1.8-.8,3l-2.5,20.5c-.1,1.1-.2,2-.1,2.7.1.7.2,1.3.4,1.7.2.4.5.7.9.9.4.2.8.3,1.3.4.5,0,1,.1,1.5,0,.5,0,.9-.1,1.1-.2l3.2-24.5c.2-.2.5-.4.9-.7s.8-.4,1.2-.4c.6,0,1.1.3,1.5,1s.5,1.7.3,3.2l-2.3,17.1c-.1,1.2-.2,2.2-.1,2.9,0,.7.2,1.3.4,1.8.3.5.6.8,1,1,.5.2.9.3,1.5.4s1.1.2,1.7.1c.6,0,1-.1,1.3-.2l3.5-24.6c.1-.2.1-.3.1-.5v-.6c.2-.3.6-.7,1.1-1s.9-.5,1.3-.5c.8,0,1.4.4,1.8,1.1.4.7.4,1.8.2,3.4l-2.7,18.2c-.2,1.3-.3,2.3-.2,3.1.1.8.2,1.4.5,1.9s.6.9,1.1,1.1,1.1.4,1.7.5c.7.1,1.3.2,2,.1.7,0,1.2-.1,1.5-.2l3.9-24.9c.4-2.8.5-5.2.3-7.1h0Z"/>
    <path class="st2" d="M676.45,36.56l-7.7.9-13.9,1.6-11.5,1.3-2.1.2-.1,1.2-.4,3.7,2.2-.3c.5,0,1,.5,1,1v1.7c0,.6-.4,1-1,1l-14.4.9c-.5,0-1-.5-1-1v-.8c0-.5.5-1,1-1l2.2-.3.2-5-27.3,3.1c-1.2,0-1.9.8-2.1,1.9l-7.6,43.3c-.3,1.6.5,2.8,2.1,3.1l68.7,9.7c1.8.2,2.6-1.2,2.9-2.7l1.6-8.6,2.6-14.2,1.2-6.6,2.3-12.5,3.6-19.6c.2-1.6-.7-2.3-2.5-2h0ZM603.85,78.16c-.1,1.5-.4,2.7-.9,3.7-.5.9-1,1.4-1.6,1.3s-1.1-.7-1.3-1.7c-.3-1.2-.4-2.4-.2-3.9.1-1.5.4-2.7.8-3.6.4-1,1-1.4,1.6-1.4.6.1,1.1.6,1.4,1.7.3,1.1.4,2.3.2,3.9ZM616.65,59.76c-.1.8-.2,1.5-.5,2.2-.2.7-.5,1.2-.7,1.7-.3-.3-.6-.6-1-.9-.3-.3-.8-.4-1.2-.4s-.8.2-1.2.5-.8.8-1.1,1.4-.6,1.3-.8,2.2c-.2.9-.4,1.9-.5,3.1-.2,2.4-.1,4.2.3,5.4.4,1.2,1.1,1.9,1.9,2,.5.1.9,0,1.3-.3.4-.2.7-.5,1.1-.8.3.6.5,1.2.6,1.9.1.7.1,1.4,0,2.3-.2,1.6-.6,2.8-1.4,3.6-.7.8-1.6,1-2.8.9-1-.2-1.8-.7-2.6-1.5-.7-.8-1.3-1.9-1.7-3.2-.4-1.3-.7-2.8-.9-4.6-.1-1.8-.1-3.7.1-5.8.2-2.5.6-4.6,1.1-6.5s1.1-3.4,1.8-4.7,1.5-2.2,2.3-2.9,1.7-1,2.6-1.1c1.2-.1,2.1.4,2.7,1.4.6,1,.8,2.4.6,4.1h0ZM632.25,70.76c-.3,2.8-.8,5.2-1.5,7.3-.6,2.1-1.4,3.8-2.3,5.1-.9,1.3-1.8,2.2-2.8,2.8-1,.6-2.1.7-3.2.6-1.1-.2-2-.7-2.8-1.6s-1.4-2-1.9-3.4-.8-3.1-.9-5c-.1-1.9-.1-4.1.2-6.5.2-2.4.6-4.6,1.2-6.5.5-2,1.2-3.7,2-5.1s1.7-2.5,2.7-3.4c1-.8,2.1-1.3,3.3-1.3,1.2-.1,2.2.3,3.1,1.1.9.8,1.6,1.9,2.2,3.4.6,1.5.9,3.3,1.1,5.5,0,2-.1,4.4-.4,7h0ZM665.05,66.56l-3.9,24.9c-.3.1-.8.2-1.5.2-.7.1-1.3,0-2-.1-.6-.1-1.2-.3-1.7-.5s-.8-.6-1.1-1.1-.4-1.1-.5-1.9,0-1.8.2-3.1l2.7-18.2c.2-1.6.2-2.7-.2-3.4s-1-1.1-1.8-1.1c-.4,0-.8.2-1.3.5s-.9.7-1.1,1v.6c0,.2,0,.3-.1.5l-3.5,24.6c-.3.1-.7.2-1.3.2-.6.1-1.1,0-1.7-.1-.6-.1-1-.2-1.5-.4-.4-.2-.7-.5-1-1-.2-.5-.4-1.1-.4-1.8-.1-.7,0-1.7.1-2.9l2.3-17.1c.2-1.5.1-2.5-.3-3.2-.4-.7-.9-1-1.5-1-.4,0-.8.1-1.2.4s-.7.5-.9.7l-3.2,24.5c-.2.1-.6.2-1.1.2-.5.1-1,0-1.5,0-.5-.1-.9-.2-1.3-.4-.4-.2-.7-.5-.9-.9s-.3-1-.4-1.7c-.1-.7,0-1.6.1-2.7l2.5-20.5c.2-1.2.4-2.2.8-3,.4-.8.8-1.5,1.3-2.1.9-1.2,2-2.1,3.3-2.9,1.4-.7,2.8-1.1,4.2-1.2,1-.1,2,.2,3,.7s1.8,1.4,2.4,2.5c1-1.1,2-1.9,3.1-2.7,1.1-.7,2.5-1.1,4-1.2,1.1-.1,2.2.1,3.2.6s1.9,1.3,2.6,2.4c.7,1.1,1.2,2.7,1.4,4.6.2,1.9.1,4.3-.3,7.1h0Z"/>
  </g>
  <path class="st4" d="M642.15,32.16l-.1.8-.9,7.6-.1,1.2-.4,3.7-.2,1.8c0,.2-.2.4-.5.5l-8.7.8c-.5-.2-.7-.4-.7-.7l.1-1.2.2-5,.3-7.4.1-1.3c0-.3.2-.5.5-.5l9.6-.9h.2c.3,0,.6.2.6.6h0ZM646.95,21.86l-.7,5.7-13.9,1.8v-5.4s0-.1.1-.1l1.8-.3,10.7-1.5,2-.2c-.1-.1,0-.1,0,0h0Z"/>
  <g>
    <path class="st0" d="M603.85,78.16c-.1,1.5-.4,2.7-.9,3.7-.5.9-1,1.4-1.6,1.3s-1.1-.7-1.3-1.7c-.3-1.2-.4-2.4-.2-3.9.1-1.5.4-2.7.8-3.6.4-1,1-1.4,1.6-1.4.6.1,1.1.6,1.4,1.7.3,1.1.4,2.3.2,3.9Z"/>
    <path class="st0" d="M616.65,59.76c-.1.8-.2,1.5-.5,2.2-.2.7-.5,1.2-.7,1.7-.3-.3-.6-.6-1-.9-.3-.3-.8-.4-1.2-.4s-.8.2-1.2.5-.8.8-1.1,1.4-.6,1.3-.8,2.2c-.2.9-.4,1.9-.5,3.1-.2,2.4-.1,4.2.3,5.4.4,1.2,1.1,1.9,1.9,2,.5.1.9,0,1.3-.3.4-.2.7-.5,1.1-.8.3.6.5,1.2.6,1.9.1.7.1,1.4,0,2.3-.2,1.6-.6,2.8-1.4,3.6-.7.8-1.6,1-2.8.9-1-.2-1.8-.7-2.6-1.5-.7-.8-1.3-1.9-1.7-3.2-.4-1.3-.7-2.8-.9-4.6-.1-1.8-.1-3.7.1-5.8.2-2.5.6-4.6,1.1-6.5s1.1-3.4,1.8-4.7,1.5-2.2,2.3-2.9,1.7-1,2.6-1.1c1.2-.1,2.1.4,2.7,1.4.6,1,.8,2.4.6,4.1h0ZM631.55,58.26c-.6-1.5-1.3-2.6-2.2-3.4-.9-.8-1.9-1.2-3.1-1.1-1.2,0-2.3.5-3.3,1.3-1,.9-1.9,2-2.7,3.4-.8,1.4-1.5,3.1-2,5.1-.6,1.9-1,4.1-1.2,6.5-.3,2.4-.3,4.6-.2,6.5s.4,3.6.9,5,1.1,2.5,1.9,3.4c.8.9,1.7,1.4,2.8,1.6,1.1.1,2.2,0,3.2-.6s1.9-1.5,2.8-2.8c.9-1.3,1.7-3,2.3-5.1.7-2.1,1.2-4.5,1.5-7.3.3-2.6.4-5,.4-7-.2-2.2-.5-4-1.1-5.5h0ZM626.75,70.46c-.2,2.6-.7,4.5-1.3,5.9s-1.3,2-2.1,1.9-1.3-.8-1.6-2.2c-.3-1.4-.3-3.4,0-5.9s.7-4.4,1.2-5.7c.6-1.4,1.3-2.1,2.1-2.1s1.4.7,1.7,2.1.3,3.4,0,6h0ZM665.05,66.56l-3.9,24.9c-.3.1-.8.2-1.5.2-.7.1-1.3,0-2-.1-.6-.1-1.2-.3-1.7-.5s-.8-.6-1.1-1.1-.4-1.1-.5-1.9,0-1.8.2-3.1l2.7-18.2c.2-1.6.2-2.7-.2-3.4s-1-1.1-1.8-1.1c-.4,0-.8.2-1.3.5s-.9.7-1.1,1v.6c0,.2,0,.3-.1.5l-3.5,24.6c-.3.1-.7.2-1.3.2-.6.1-1.1,0-1.7-.1-.6-.1-1-.2-1.5-.4-.4-.2-.7-.5-1-1-.2-.5-.4-1.1-.4-1.8-.1-.7,0-1.7.1-2.9l2.3-17.1c.2-1.5.1-2.5-.3-3.2-.4-.7-.9-1-1.5-1-.4,0-.8.1-1.2.4s-.7.5-.9.7l-3.2,24.5c-.2.1-.6.2-1.1.2-.5.1-1,0-1.5,0-.5-.1-.9-.2-1.3-.4-.4-.2-.7-.5-.9-.9s-.3-1-.4-1.7c-.1-.7,0-1.6.1-2.7l2.5-20.5c.2-1.2.4-2.2.8-3,.4-.8.8-1.5,1.3-2.1.9-1.2,2-2.1,3.3-2.9,1.4-.7,2.8-1.1,4.2-1.2,1-.1,2,.2,3,.7s1.8,1.4,2.4,2.5c1-1.1,2-1.9,3.1-2.7,1.1-.7,2.5-1.1,4-1.2,1.1-.1,2.2.1,3.2.6s1.9,1.3,2.6,2.4c.7,1.1,1.2,2.7,1.4,4.6.2,1.9.1,4.3-.3,7.1h0Z"/>
  </g>
  <path class="st3" d="M592.17,48.67c-1.72-3.06-4.95-4.82-8.85-4.82h-4.74c-3.2,0-6.04,1.12-8.23,3.16-1.92-2.01-4.67-3.16-7.9-3.16h-5.18c-.44,0-.87.02-1.29.07-1.08-.43-2.26-.67-3.5-.67h-.65c-2.03,0-4.21.45-6.31,1.39-1.29-.52-2.73-.79-4.26-.79h-4.25c-3.37,0-6.27,1.26-8.31,3.44-3.69-2.62-8.37-4.03-13.59-4.03s-10.38,1.53-14.65,4.14c-.12-.17-.24-.34-.38-.5-1-1.18-2.28-2.04-3.72-2.54-.27-1.64-.95-3.14-2.02-4.39-1.74-2.03-4.29-3.15-7.19-3.15h-4.25c-4.47,0-8.22,2.62-9.8,6.83-.02.04-.13.38-.13.38-.89.17-1.73.47-2.51.87-2.8-1.07-5.94-1.65-9.18-1.65-5.28,0-10.27,1.46-14.52,3.96-1.89-2.17-4.68-3.36-7.88-3.36h-4.69c-1.56,0-3.02.27-4.34.77-2.07-.89-4.43-1.37-7-1.37-1.7,0-3.35.22-4.96.59-.12-2.94-1.36-4.93-2.23-5.97-1.89-2.26-4.74-3.51-8.01-3.51h-20.98c-5.71,0-10.06,3.59-11.19,9.18-.53,2.98-1.34,7.54-1.34,7.54h-13.65l1.04-5.89c.79-4.4-.94-7.27-2.04-8.59-1.89-2.26-4.74-3.51-8.01-3.51h-4.69c-5.71,0-10.07,3.59-11.19,9.18-.16.33-.31.68-.44,1.03-.53-.04-1.06-.07-1.61-.07-3.32,0-6.49.77-9.4,2.13-1.6-1.37-3.65-2.13-5.91-2.13h-.65c-2.03,0-4.21.45-6.31,1.39-1.16-.47-2.57-.79-4.26-.79h-4.25c-1.91,0-3.67.41-5.21,1.16-1.29-.66-2.94-1.16-5.03-1.16h-4.69c-1.56,0-3.02.27-4.34.77-2.07-.89-4.43-1.37-6.99-1.37-3.48,0-6.81.83-9.83,2.32-1.65-1.11-3.69-1.72-5.97-1.72h-4.74c-3.2,0-6.04,1.12-8.23,3.16-1.92-2.01-4.67-3.16-7.9-3.16h-5.18c-2.01,0-3.89.48-5.5,1.34-2.04-1.12-4.72-1.94-8.23-1.94-2.57,0-4.98.46-7.18,1.35-1.26-.5-2.67-.75-4.16-.75h-4.69c-1.91,0-3.67.41-5.21,1.16-1.29-.66-2.94-1.16-5.03-1.16h-4.69c-1.56,0-3.02.27-4.34.77-2.07-.89-4.43-1.37-6.99-1.37-10.62,0-19.85,7.67-22.84,18.57-.12.29-.22.59-.33.89h-2.49l2.86-16.24c.79-4.4-.94-7.27-2.04-8.59-1.89-2.26-4.74-3.51-8.01-3.51h-4.9c-5.71,0-10.06,3.59-11.19,9.18-.39,2.19-1.34,7.55-1.34,7.55h-17.11c-.27,0-.54,0-.81.03-.22-.31-.46-.61-.7-.9-3.79-4.5-9.74-6.98-16.74-6.98-5.99,0-11.46,1.84-15.87,5.01-1.89-2.21-5.34-4.78-11.2-5,.07-3.31-1.31-5.53-2.24-6.64-1.89-2.26-4.74-3.51-8.01-3.51h-4.69c-2.27,0-4.32.57-6.04,1.6-.9-.22-1.85-.35-2.84-.35h-25.17c-5.69,0-10.04,3.57-11.19,9.21-.44.92-.78,1.92-1,3.01-.49,1.01-.85,2.12-1.07,3.32l-.53,3.18c-.79,4.4.94,7.27,2.04,8.59,1.49,1.78,3.56,2.93,5.97,3.34l-2.89,16.41c-.79,4.41.94,7.27,2.04,8.59,1.89,2.26,4.74,3.51,8.01,3.51h4.69c4.29,0,7.81-2.03,9.78-5.4.4.81.85,1.45,1.22,1.9,1.89,2.26,4.74,3.51,8.01,3.51h4.69c2.58,0,4.89-.73,6.75-2.06,1.76,1.34,4,2.06,6.49,2.06h4.69c3.28,0,6.11-1.18,8.15-3.25,3.7,2.5,8.43,3.85,13.76,3.85s10.66-1.34,15.08-3.89c.03-.02.06-.04.09-.05,3.09-1.84,4.97-4.65,5.48-7.7.11-.22.23-.44.32-.67h14.52c-.63,4.19,1.03,6.93,2.1,8.21,1.89,2.26,4.74,3.51,8.01,3.51h22.01c2.72,0,5.13-.82,7.04-2.29,2.92,1.87,6.4,2.89,10.18,2.89,2.57,0,5.04-.48,7.3-1.39,1.29.52,2.72.79,4.25.79h4.69c1.92,0,3.67-.41,5.22-1.16,1.48.75,3.18,1.16,5.03,1.16h4.69c2.58,0,4.89-.73,6.75-2.06,1.76,1.34,4,2.06,6.49,2.06h4.69c.22,0,.44-.02.66-.03-.76,2.58-.53,5.17.73,7.42,1.72,3.06,4.95,4.82,8.85,4.82h4.09c4.5,0,8.17-2.07,10.62-5.99l8.46-13.6c.37.56.78,1.11,1.21,1.63,3.44,4.1,8.46,6.35,14.15,6.35,2.57,0,5.04-.48,7.3-1.39,1.29.52,2.72.79,4.25.79h4.69c1.92,0,3.67-.41,5.22-1.16,1.48.75,3.18,1.16,5.03,1.16h4.69c5.01,0,8.98-2.76,10.64-7.21.34.5.7.99,1.1,1.46,3.44,4.1,8.46,6.35,14.15,6.35,2.57,0,5.04-.48,7.3-1.39,1.29.52,2.72.79,4.25.79h4.69c5.71,0,10.07-3.59,11.19-9.19.38-.78.67-1.63.89-2.53h13.23c-.63,4.19,1.03,6.93,2.09,8.21,1.89,2.26,4.74,3.51,8.01,3.51h4.9c5.71,0,10.07-3.59,11.19-9.19.44-.92.78-1.92,1-2.99.37-.77.67-1.6.89-2.48h1.43c.6,3.36,1.98,6.39,4.09,8.91,3.44,4.1,8.46,6.35,14.15,6.35,2.57,0,5.04-.48,7.3-1.39,1.29.52,2.72.79,4.25.79h4.69c3.41,0,6.33-1.29,8.38-3.51,3.75,2.67,8.5,4.11,13.79,4.11,4.66,0,9.4-1.18,13.38-3.33.48-.25.92-.53,1.35-.83,2.98,2.72,7.13,4.15,12.14,4.15s9.62-1.53,13.03-4.29c3.74,2.79,8.55,4.29,13.94,4.29s10.16-1.41,14.33-3.86c1.19,1.32,3.63,3.26,7.79,3.26h4.69c2.98,0,5.77-.87,7.91-2.5.64-.48,1.1-.83,1.62-1.34-.06.24-.1.48-.14.72-1.84,3.41-1.24,7.51.44,10.5,1.72,3.06,4.95,4.82,8.85,4.82h4.09c4.5,0,8.17-2.07,10.62-5.99l21.56-34.66c.82-1.34,1.35-2.73,1.6-4.1.49-1,.82-2.01,1-3.02,1.54-3.17,1.56-6.49,0-9.28h-.07Z"/>
  <path class="st6" d="M592.17,48.67c-1.72-3.06-4.95-4.82-8.85-4.82h-4.74c-3.2,0-6.04,1.12-8.23,3.16-1.92-2.01-4.67-3.16-7.9-3.16h-5.18c-.44,0-.87.02-1.29.07-1.08-.43-2.26-.67-3.5-.67h-.65c-2.03,0-4.21.45-6.31,1.39-1.29-.52-2.73-.79-4.26-.79h-4.25c-3.37,0-6.27,1.26-8.31,3.44-3.69-2.62-8.37-4.03-13.59-4.03s-10.38,1.53-14.65,4.14c-.12-.17-.24-.34-.38-.5-1-1.18-2.28-2.04-3.72-2.54-.27-1.64-.95-3.14-2.02-4.39-1.74-2.03-4.29-3.15-7.19-3.15h-4.25c-4.47,0-8.22,2.62-9.8,6.83-.02.04-.13.38-.13.38-.89.17-1.73.47-2.51.87-2.8-1.07-5.94-1.65-9.18-1.65-5.28,0-10.27,1.46-14.52,3.96-1.89-2.17-4.68-3.36-7.88-3.36h-4.69c-1.56,0-3.02.27-4.34.77-2.07-.89-4.43-1.37-7-1.37-1.7,0-3.35.22-4.96.59-.12-2.94-1.36-4.93-2.23-5.97-1.89-2.26-4.74-3.51-8.01-3.51h-20.98c-5.71,0-10.06,3.59-11.19,9.18-.38,2.07-1.34,7.54-1.34,7.54h-13.65l1.04-5.89c.79-4.4-.94-7.27-2.04-8.59-1.89-2.26-4.74-3.51-8.01-3.51h-4.69c-5.71,0-10.07,3.59-11.19,9.18-.16.33-.31.68-.44,1.03-.53-.04-1.06-.07-1.61-.07-3.32,0-6.49.77-9.4,2.13-1.6-1.37-3.65-2.13-5.91-2.13h-.65c-2.03,0-4.21.45-6.31,1.39-1.16-.47-2.57-.79-4.26-.79h-4.25c-1.91,0-3.67.41-5.21,1.16-1.29-.66-2.94-1.16-5.03-1.16h-4.69c-1.56,0-3.02.27-4.34.77-2.07-.89-4.43-1.37-6.99-1.37-3.48,0-6.81.83-9.83,2.32-1.65-1.11-3.69-1.72-5.97-1.72h-4.74c-3.2,0-6.04,1.12-8.23,3.16-1.92-2.01-4.67-3.16-7.9-3.16h-5.18c-2.01,0-3.89.48-5.5,1.34-2.04-1.12-4.72-1.94-8.23-1.94-2.57,0-4.98.46-7.18,1.35-1.26-.5-2.67-.75-4.16-.75h-4.69c-1.91,0-3.67.41-5.21,1.16-1.29-.66-2.94-1.16-5.03-1.16h-4.69c-1.56,0-3.02.27-4.34.77-2.07-.89-4.43-1.37-6.99-1.37-10.62,0-19.85,7.67-22.84,18.57-.12.29-.22.59-.33.89h-2.49l2.86-16.24c.79-4.4-.94-7.27-2.04-8.59-1.89-2.26-4.74-3.51-8.01-3.51h-4.9c-5.71,0-10.06,3.59-11.19,9.18-.29,1.6-1.34,7.55-1.34,7.55h-17.11c-.27,0-.54,0-.81.03-.22-.31-.46-.61-.7-.9-3.79-4.5-9.74-6.98-16.74-6.98-5.99,0-11.46,1.84-15.87,5.01-1.89-2.21-5.34-4.78-11.2-5,.07-3.31-1.31-5.53-2.24-6.64-1.89-2.26-4.74-3.51-8.01-3.51h-4.69c-2.27,0-4.32.57-6.04,1.6-.9-.22-1.85-.35-2.84-.35h-25.17c-5.69,0-10.04,3.57-11.19,9.21-.49,1.01-.86,2.12-1.07,3.33l-.53,3.18c-.79,4.4.94,7.27,2.04,8.59,1.49,1.78,3.56,2.93,5.97,3.34l-2.89,16.41c-.79,4.41.94,7.27,2.04,8.59,1.89,2.26,4.74,3.51,8.01,3.51h4.69c4.29,0,7.81-2.03,9.78-5.4.4.81.85,1.45,1.22,1.9,1.89,2.26,4.74,3.51,8.01,3.51h4.69c2.58,0,4.89-.73,6.75-2.06,1.76,1.34,4,2.06,6.49,2.06h4.69c3.28,0,6.11-1.18,8.15-3.25,3.7,2.5,8.43,3.85,13.76,3.85s10.66-1.34,15.08-3.89c.03-.02.06-.04.09-.05,3.07-1.83,4.95-4.61,5.47-7.65.12-.24.23-.48.33-.73h14.52c-.63,4.19,1.03,6.93,2.1,8.21,1.89,2.26,4.74,3.51,8.01,3.51h22.01c2.72,0,5.13-.82,7.04-2.29,2.92,1.87,6.4,2.89,10.18,2.89,2.57,0,5.04-.48,7.3-1.39,1.29.52,2.72.79,4.25.79h4.69c1.92,0,3.67-.41,5.22-1.16,1.48.75,3.18,1.16,5.03,1.16h4.69c2.58,0,4.89-.73,6.75-2.06,1.76,1.34,4,2.06,6.49,2.06h4.69c.22,0,.44-.02.66-.03-.76,2.58-.53,5.17.73,7.42,1.72,3.06,4.95,4.82,8.85,4.82h4.09c4.5,0,8.17-2.07,10.62-5.99l8.46-13.6c.37.56.78,1.11,1.21,1.63,3.44,4.1,8.46,6.35,14.15,6.35,2.57,0,5.04-.48,7.3-1.39,1.29.52,2.72.79,4.25.79h4.69c1.92,0,3.67-.41,5.22-1.16,1.48.75,3.18,1.16,5.03,1.16h4.69c5.01,0,8.98-2.76,10.64-7.21.34.5.7.99,1.1,1.46,3.44,4.1,8.46,6.35,14.15,6.35,2.57,0,5.04-.48,7.3-1.39,1.29.52,2.72.79,4.25.79h4.69c5.71,0,10.06-3.59,11.19-9.18.38-.78.68-1.63.9-2.53h13.22c-.63,4.19,1.03,6.93,2.09,8.21,1.89,2.26,4.74,3.51,8.01,3.51h4.9c5.71,0,10.07-3.59,11.19-9.18.48-1,.85-2.1,1.06-3.28l.39-2.2h1.87c.6,3.36,1.98,6.39,4.09,8.91,3.44,4.1,8.46,6.35,14.15,6.35,2.57,0,5.04-.48,7.3-1.39,1.29.52,2.72.79,4.25.79h4.69c3.41,0,6.33-1.29,8.38-3.51,3.75,2.67,8.5,4.11,13.79,4.11,4.66,0,9.4-1.18,13.38-3.33.48-.25.92-.53,1.35-.83,2.98,2.72,7.13,4.15,12.14,4.15s9.62-1.53,13.03-4.29c3.74,2.79,8.55,4.29,13.94,4.29s10.16-1.41,14.33-3.86c1.19,1.32,3.63,3.26,7.79,3.26h4.69c2.98,0,5.77-.87,7.91-2.5.63-.48,1.09-.83,1.61-1.32-.06.24-.1.49-.14.73-1.83,3.41-1.22,7.49.46,10.47,1.72,3.06,4.95,4.82,8.85,4.82h4.09c4.5,0,8.17-2.07,10.62-5.99l21.56-34.66c.82-1.35,1.35-2.74,1.6-4.12,1.54-3.17,1.56-6.49,0-9.28h-.08Z"/>
  <path class="st2" d="M546.69,83.13c-.77.84-1.31,1.25-2.16,1.89-2.15,1.63-4.93,2.5-7.91,2.5h-4.69c-4.16,0-6.6-1.94-7.79-3.26-4.17,2.45-9.08,3.86-14.33,3.86s-10.2-1.5-13.94-4.29c-3.4,2.76-7.86,4.29-13.03,4.29s-9.16-1.43-12.14-4.15c-.43.3-.87.58-1.35.83-3.97,2.15-8.72,3.33-13.38,3.33-5.3,0-10.04-1.44-13.79-4.11-2.05,2.23-4.97,3.51-8.38,3.51h-4.69c-1.53,0-2.96-.27-4.25-.79-2.26.91-4.73,1.39-7.3,1.39-5.68,0-10.71-2.26-14.15-6.35-2.11-2.51-3.49-5.55-4.09-8.91h-2.34l-.92,5.2c-1.03,5.75-5.45,9.46-11.25,9.46h-4.9c-3.28,0-6.12-1.25-8.01-3.51-1.07-1.28-2.72-4.02-2.09-8.21h-13.66l-.39,2.24c-1.03,5.76-5.45,9.47-11.26,9.47h-4.69c-1.53,0-2.96-.27-4.25-.79-2.26.91-4.73,1.39-7.3,1.39-5.69,0-10.71-2.26-14.15-6.35-.39-.47-.76-.96-1.1-1.46-1.66,4.45-5.63,7.21-10.64,7.21h-4.69c-1.85,0-3.55-.41-5.03-1.16-1.54.75-3.3,1.16-5.22,1.16h-4.69c-1.53,0-2.96-.27-4.25-.79-2.26.91-4.73,1.39-7.3,1.39-5.69,0-10.71-2.26-14.15-6.35-.44-.52-.84-1.07-1.21-1.63l-8.46,13.6c-2.45,3.92-6.12,5.99-10.62,5.99h-4.09c-3.91,0-7.13-1.76-8.85-4.82-1.26-2.24-1.48-4.84-.73-7.42-.22.01-.44.03-.66.03h-4.69c-2.49,0-4.73-.72-6.49-2.06-1.86,1.32-4.17,2.06-6.75,2.06h-4.69c-1.85,0-3.55-.41-5.03-1.16-1.54.75-3.3,1.16-5.22,1.16h-4.69c-1.53,0-2.96-.27-4.25-.79-2.26.91-4.73,1.39-7.3,1.39-3.78,0-7.26-1.02-10.18-2.89-1.91,1.47-4.32,2.29-7.04,2.29h-22.01c-3.27,0-6.12-1.25-8.01-3.51-1.07-1.28-2.72-4.02-2.1-8.21h-14.52c-.08,0-.15,0-.22-.01-.32,3.32-2.27,6.41-5.59,8.38-.03.02-.06.04-.09.05-4.42,2.54-9.63,3.89-15.08,3.89s-10.05-1.35-13.76-3.85c-2.03,2.07-4.87,3.25-8.15,3.25h-4.69c-2.49,0-4.73-.72-6.49-2.06-1.86,1.32-4.17,2.06-6.75,2.06h-4.69c-3.27,0-6.12-1.25-8.01-3.51-.38-.45-.82-1.09-1.22-1.9-1.97,3.38-5.49,5.4-9.78,5.4h-4.69c-3.27,0-6.12-1.25-8.01-3.51-1.1-1.32-2.83-4.18-2.04-8.59l2.89-16.41c-2.41-.41-4.49-1.56-5.97-3.34-1.1-1.32-2.83-4.18-2.04-8.59l.53-3.18c1.05-5.83,5.46-9.54,11.27-9.54h25.17c.99,0,1.94.13,2.84.35,1.72-1.03,3.77-1.6,6.04-1.6h4.69c3.27,0,6.12,1.25,8.01,3.51.93,1.11,2.31,3.33,2.24,6.64,5.86.22,9.3,2.79,11.2,5,4.41-3.18,9.89-5.01,15.87-5.01,7,0,12.95,2.48,16.74,6.98.25.29.48.59.7.9.27-.02.54-.03.81-.03h17.11l1.28-7.26c1.03-5.76,5.45-9.47,11.26-9.47h4.9c3.27,0,6.12,1.25,8.01,3.51,1.1,1.32,2.83,4.18,2.04,8.59l-2.86,16.24h2.57c2.73-11.37,12.19-19.45,23.09-19.45,2.56,0,4.93.48,6.99,1.37,1.32-.5,2.78-.77,4.34-.77h4.69c2.09,0,3.74.5,5.03,1.16,1.54-.75,3.3-1.16,5.21-1.16h4.69c1.49,0,2.89.26,4.16.75,2.19-.89,4.6-1.35,7.18-1.35,3.5,0,6.18.82,8.23,1.94,1.62-.86,3.49-1.34,5.5-1.34h5.18c3.23,0,5.98,1.15,7.9,3.16,2.18-2.04,5.03-3.16,8.23-3.16h4.74c2.28,0,4.32.61,5.97,1.72,3.02-1.49,6.35-2.32,9.83-2.32,2.56,0,4.93.48,6.99,1.37,1.32-.5,2.78-.77,4.34-.77h4.69c2.09,0,3.74.5,5.03,1.16,1.54-.75,3.3-1.16,5.21-1.16h4.25c1.69,0,3.1.32,4.26.79,2.1-.94,4.28-1.39,6.31-1.39h.65c2.26,0,4.31.75,5.91,2.13,2.9-1.36,6.08-2.13,9.4-2.13.63,0,1.25.03,1.85.09l.13-.76c1.03-5.75,5.45-9.46,11.25-9.46h4.69c3.27,0,6.12,1.25,8.01,3.51,1.1,1.32,2.83,4.18,2.04,8.59l-1.04,5.89h13.65l1.28-7.26c1.04-5.76,5.45-9.47,11.26-9.47h20.98c3.27,0,6.12,1.25,8.01,3.51.86,1.03,2.11,3.03,2.23,5.97,1.61-.37,3.26-.59,4.96-.59,2.57,0,4.93.48,7,1.37,1.32-.5,2.78-.77,4.34-.77h4.69c3.2,0,5.99,1.2,7.88,3.36,4.24-2.5,9.24-3.96,14.52-3.96,3.24,0,6.38.58,9.18,1.65.78-.4,1.62-.7,2.51-.87,0,0,.12-.33.13-.38,1.58-4.21,5.33-6.83,9.8-6.83h4.25c2.89,0,5.44,1.12,7.19,3.15,1.07,1.25,1.75,2.75,2.02,4.39,1.44.5,2.71,1.36,3.72,2.54.14.16.25.33.38.5,4.26-2.61,9.31-4.14,14.65-4.14s9.9,1.41,13.59,4.03c2.04-2.18,4.94-3.44,8.31-3.44h4.25c1.53,0,2.97.27,4.26.79,2.1-.94,4.28-1.39,6.31-1.39h.65c1.24,0,2.42.24,3.5.67.42-.04.86-.07,1.29-.07h5.18c3.23,0,5.98,1.15,7.9,3.16,2.18-2.04,5.03-3.16,8.23-3.16h4.74c3.91,0,7.14,1.76,8.85,4.82,1.75,3.12,1.53,6.91-.6,10.4l-21.56,34.66c-2.45,3.92-6.12,5.99-10.62,5.99h-4.09c-3.91,0-7.13-1.76-8.85-4.82-1.75-3.12-2.34-7.42-.21-10.92l.44-.85h.07Z"/>
  <g>
    <path class="st5" d="M44.23,48.41l.54-3.27c.38-2.12-.54-3.27-2.67-3.27h-25.17c-2.12,0-3.49,1.14-3.87,3.27l-.54,3.27c-.38,2.12.54,3.27,2.67,3.27h6.87l-4.41,25.06c-.38,2.13.54,3.27,2.67,3.27h4.69c2.12,0,3.49-1.14,3.87-3.27l4.41-25.06h7.08c2.12,0,3.49-1.14,3.87-3.27h0Z"/>
    <path class="st5" d="M65.1,50.75c-3.87,0-6.65,1.58-8.66,4.14l1.91-11.01c.38-2.12-.54-3.27-2.67-3.27h-4.69c-2.12,0-3.49,1.14-3.87,3.27l-5.78,32.86c-.38,2.13.54,3.27,2.67,3.27h4.69c2.12,0,3.49-1.14,3.87-3.27l2.18-12.42c.38-2.23,1.31-4.85,4.2-4.85s2.89,2.62,2.51,4.85l-2.18,12.42c-.38,2.13.54,3.27,2.67,3.27h4.69c2.12,0,3.49-1.14,3.87-3.27l2.4-13.51c.82-4.69,1.09-12.48-7.79-12.48h-.02Z"/>
    <path class="st5" d="M93,50.75c-10.35,0-17.27,7.19-18.69,15.04-1.42,8.23,3.65,14.82,14.22,14.82,3.71,0,7.74-.82,11.33-2.89,2.02-1.2,2.4-3,1.47-4.63l-.71-1.14c-.87-1.63-2.34-1.74-4.36-.87-2.12.93-3.92,1.14-5.23,1.14-4.85,0-6.92-2.72-6.65-4.3h17.98c2.02,0,3.54-.76,3.87-2.56,1.58-9.15-4.2-14.6-13.24-14.6h.01ZM96.54,62.74h-11.22c.65-2.78,3.65-4.14,6.38-4.14s5.18,1.36,4.85,4.14h0Z"/>
    <path class="st5" d="M157.89,70.21h-13.84l4.41-25.06c.38-2.12-.54-3.27-2.67-3.27h-4.9c-2.13,0-3.49,1.14-3.87,3.27l-5.56,31.6c-.38,2.13.54,3.27,2.67,3.27h22.01c2.12,0,3.49-1.14,3.87-3.27l.54-3.27c.38-2.12-.54-3.27-2.67-3.27h0Z"/>
    <path class="st5" d="M194.67,51.35h-4.69c-2.12,0-3.49,1.14-3.87,3.27l-.05.33c-1.04-2.62-3.71-4.2-7.41-4.2-7.63,0-14.55,6.27-16.07,14.93-1.53,8.66,3.16,14.93,10.79,14.93,3.71,0,6.92-1.58,8.94-4.14l-.05.27c-.38,2.13.54,3.27,2.67,3.27h4.69c2.12,0,3.49-1.14,3.87-3.27l3.87-22.12c.38-2.12-.54-3.27-2.67-3.27h-.02ZM184.37,65.68c-.65,3.6-3.16,6.38-6.43,6.38s-4.79-2.78-4.14-6.38c.6-3.6,3.11-6.38,6.38-6.38s4.79,2.78,4.2,6.38h-.01Z"/>
    <path class="st5" d="M220.93,50.75c-3.87,0-6.65,1.58-8.66,4.14v-.27c.38-2.12-.54-3.27-2.67-3.27h-4.69c-2.12,0-3.49,1.14-3.87,3.27l-3.87,22.12c-.38,2.13.54,3.27,2.67,3.27h4.69c2.12,0,3.49-1.14,3.87-3.27l2.18-12.42c.38-2.23,1.31-4.85,4.2-4.85s2.89,2.62,2.51,4.85l-2.18,12.42c-.38,2.13.54,3.27,2.67,3.27h4.69c2.12,0,3.49-1.14,3.87-3.27l2.4-13.51c.82-4.69,1.09-12.48-7.79-12.48h-.02Z"/>
    <path class="st5" d="M260.71,51.35h-4.74c-1.85,0-3.27.82-4.2,2.62l-6.7,12.04-1.96-11.99c-.27-1.85-1.36-2.67-3.27-2.67h-5.18c-2.51,0-3.81,1.58-3.16,3.81l6.27,22.07-6.92,11.17c-1.36,2.23-.6,3.81,1.85,3.81h4.09c1.85,0,3.16-.71,4.25-2.45l21.52-34.6c1.36-2.23.6-3.81-1.85-3.81Z"/>
    <path class="st5" d="M292.53,51.35h-4.69c-2.12,0-3.49,1.14-3.87,3.27l-.05.33c-1.04-2.62-3.71-4.2-7.41-4.2-7.63,0-14.55,6.27-16.07,14.93-1.53,8.66,3.16,14.93,10.79,14.93,3.71,0,6.92-1.58,8.94-4.14l-.05.27c-.38,2.13.54,3.27,2.67,3.27h4.69c2.12,0,3.49-1.14,3.87-3.27l3.87-22.12c.38-2.12-.54-3.27-2.67-3.27h-.02ZM282.23,65.68c-.65,3.6-3.16,6.38-6.43,6.38s-4.79-2.78-4.14-6.38c.6-3.6,3.11-6.38,6.38-6.38s4.79,2.78,4.2,6.38h-.01Z"/>
    <path class="st5" d="M318.62,59.04l1.09-5.99c.16-1.04.05-2.29-1.47-2.29h-.65c-1.53,0-6.43.82-8.39,6.65l.49-2.78c.38-2.12-.54-3.27-2.67-3.27h-4.25c-2.12,0-3.49,1.14-3.87,3.27l-3.87,22.12c-.38,2.13.54,3.27,2.67,3.27h4.69c2.12,0,3.49-1.14,3.87-3.27l1.63-9.21c.49-3,2.18-6.16,6.76-6.16.38,0,.76,0,1.2.05,1.36.11,2.51-.65,2.78-2.4h-.01Z"/>
    <path class="st5" d="M351.48,40.62h-4.69c-2.12,0-3.49,1.14-3.87,3.27l-1.96,11.06c-1.04-2.62-3.71-4.2-7.41-4.2-7.63,0-14.55,6.27-16.07,14.93-1.53,8.66,3.16,14.93,10.79,14.93,3.71,0,6.92-1.58,8.94-4.14l-.05.27c-.38,2.13.54,3.27,2.67,3.27h4.69c2.12,0,3.49-1.14,3.87-3.27l5.78-32.86c.38-2.12-.54-3.27-2.67-3.27h-.02ZM339.27,65.68c-.65,3.6-3.16,6.38-6.43,6.38s-4.79-2.78-4.14-6.38c.6-3.6,3.11-6.38,6.38-6.38s4.79,2.78,4.2,6.38h-.01Z"/>
    <path class="st5" d="M405.91,51.68c2.12,0,3.49-1.14,3.87-3.27l.54-3.27c.38-2.12-.54-3.27-2.67-3.27h-20.98c-2.12,0-3.49,1.14-3.87,3.27l-5.56,31.6c-.38,2.13.54,3.27,2.67,3.27h4.9c2.12,0,3.49-1.14,3.87-3.27l2.02-11.39h10.73c2.12,0,3.43-1.14,3.81-3.27l.38-2.18c.38-2.12-.54-3.27-2.67-3.27h-10.73l.87-4.96h12.82Z"/>
    <path class="st5" d="M438.88,51.35h-4.69c-2.12,0-3.49,1.14-3.87,3.27l-.05.33c-1.04-2.62-3.71-4.2-7.41-4.2-7.63,0-14.55,6.27-16.07,14.93-1.53,8.66,3.16,14.93,10.79,14.93,3.71,0,6.92-1.58,8.94-4.14l-.05.27c-.38,2.13.54,3.27,2.67,3.27h4.69c2.12,0,3.49-1.14,3.87-3.27l3.87-22.12c.38-2.12-.54-3.27-2.67-3.27h-.02ZM428.58,65.68c-.65,3.6-3.16,6.38-6.43,6.38s-4.79-2.78-4.14-6.38c.6-3.6,3.11-6.38,6.38-6.38s4.79,2.78,4.2,6.38h-.01Z"/>
    <path class="st5" d="M470.37,53.21c-2.56-1.69-5.88-2.45-9.1-2.45-9.81,0-18.04,6.65-19.45,14.93-1.47,8.28,4.36,14.93,14.17,14.93,3.16,0,6.76-.76,9.86-2.45,2.12-1.09,2.51-2.94,1.47-4.58l-1.04-1.69c-.98-1.58-2.45-1.53-4.47-.65-1.42.54-2.67.71-3.54.71-3.71,0-5.88-2.62-5.23-6.27.6-3.65,3.76-6.27,7.46-6.27.87,0,2.02.16,3.27.71,1.74.87,3.11.87,4.63-.71l1.63-1.63c1.69-1.69,1.91-3.43.33-4.58h.01Z"/>
    <path class="st5" d="M493.52,67.15h-4.03c-1.09,0-1.58.6-1.69,1.74-.05.49-.05.6-.11.87-.16,1.04-.76,2.18-1.91,2.18-.76,0-1.25-.49-1.04-1.74l1.91-10.73h5.18c1.04,0,1.74-.6,1.91-1.63l.87-4.85c.16-1.04-.33-1.63-1.36-1.63h-5.18l.87-4.85c.22-1.42-.38-2.18-1.8-2.18h-4.25c-1.31,0-2.29.65-2.78,1.96l-1.8,5.07h-3.49c-1.04,0-1.74.6-1.91,1.63l-.87,4.85c-.16,1.04.33,1.63,1.36,1.63h2.29l-1.91,10.63c-1.47,8.39,3.92,10.52,9.04,10.52s10.95-2.02,12.37-10.03c.05-.76.11-1.53-.05-2.23-.11-.87-.76-1.2-1.63-1.2h0Z"/>
    <path class="st5" d="M515.1,50.75c-9.81,0-17.76,6.65-19.18,14.93-1.47,8.28,4.09,14.93,13.89,14.93s17.76-6.65,19.23-14.93c1.42-8.28-4.14-14.93-13.95-14.93h.01ZM518.64,65.68c-.65,3.65-3.71,6.21-7.25,6.21s-5.72-2.62-5.07-6.21c.6-3.6,3.65-6.21,7.25-6.21s5.67,2.56,5.07,6.21Z"/>
    <path class="st5" d="M553.95,53.04c.16-1.04.05-2.29-1.47-2.29h-.65c-1.53,0-6.43.82-8.39,6.65l.49-2.78c.38-2.12-.54-3.27-2.67-3.27h-4.25c-2.13,0-3.49,1.14-3.87,3.27l-3.87,22.12c-.38,2.13.54,3.27,2.67,3.27h4.69c2.12,0,3.49-1.14,3.87-3.27l1.63-9.21c.49-3,2.18-6.16,6.76-6.16.38,0,.76,0,1.2.05,1.36.11,2.51-.65,2.78-2.4l1.09-5.99h-.01Z"/>
    <path class="st5" d="M583.32,51.35h-4.74c-1.85,0-3.27.82-4.2,2.62l-6.7,12.04-1.96-11.99c-.27-1.85-1.36-2.67-3.27-2.67h-5.18c-2.51,0-3.81,1.58-3.16,3.81l6.27,22.07-6.92,11.17c-1.36,2.23-.6,3.81,1.85,3.81h4.09c1.85,0,3.16-.71,4.25-2.45l21.52-34.6c1.36-2.23.6-3.81-1.85-3.81h0Z"/>
    <path class="st5" d="M128.58,58.6h-17.33c-1.04,0-1.74.6-1.96,1.63l-1.14,6.43c-.16,1.04.33,1.63,1.36,1.63h17.33c1.04,0,1.74-.6,1.91-1.63l1.14-6.43c.22-1.04-.27-1.63-1.31-1.63Z"/>
    <path class="st5" d="M374.36,58.6h-17.33c-1.04,0-1.74.6-1.96,1.63l-1.14,6.43c-.16,1.04.33,1.63,1.36,1.63h17.33c1.04,0,1.74-.6,1.91-1.63l1.14-6.43c.22-1.04-.27-1.63-1.31-1.63Z"/>
  </g>
</svg>