<svg width="636" height="390" viewBox="0 0 636 390" fill="none" xmlns="http://www.w3.org/2000/svg">
<path d="M634.559 0H585.305L561.434 34.9037C560.829 34.7744 560.376 34.6451 559.772 34.6451C559.167 34.6451 558.563 34.7744 558.11 34.9037L534.087 0H484.833H474.711H425.457L401.585 34.9037C400.981 34.7744 400.528 34.6451 399.923 34.6451C399.319 34.6451 398.715 34.7744 398.261 34.9037L374.088 0H324.834H314.711H265.457L241.586 34.9037C240.981 34.7744 240.528 34.6451 239.924 34.6451C239.319 34.6451 238.715 34.7744 238.262 34.9037L214.239 0H164.985H154.863H105.609L81.7372 34.9037C81.1329 34.7744 80.6796 34.6451 80.0753 34.6451C79.471 34.6451 78.8666 34.7744 78.4134 34.9037L54.3908 0H4.98582H0V1.55127V4.39528C0.604342 4.39528 1.20868 4.266 1.66194 4.13673L25.5334 39.0404L1.66194 73.9441C1.20868 73.6855 0.604342 73.5563 0 73.5563V76.4003V79.3735V82.2175C0.604342 82.2175 1.20868 82.0883 1.66194 81.959L25.5334 116.863L1.66194 151.766C1.0576 151.637 0.604342 151.508 0 151.508V154.352V157.325V160.169C0.604342 160.169 1.20868 160.04 1.66194 159.911L25.5334 194.814L1.66194 229.718C1.0576 229.589 0.604342 229.459 0 229.459V232.303V235.277V238.121C0.604342 238.121 1.20868 237.991 1.66194 237.862L25.6845 272.766L1.66194 307.669C1.0576 307.54 0.604342 307.411 0 307.411V310.255V313.228V316.072C0.604342 316.072 1.20868 315.943 1.66194 315.814L25.5334 350.717L1.66194 385.621C1.20868 385.362 0.604342 385.233 0 385.233V388.077V389.628H4.98582H54.3908L78.2623 354.725C78.8666 354.854 79.3199 354.983 79.9242 354.983C80.5286 354.983 81.1329 354.854 81.7372 354.725L105.609 389.628H154.863H164.985H214.239L238.111 354.725C238.715 354.854 239.168 354.983 239.773 354.983C240.377 354.983 240.981 354.854 241.586 354.725L265.457 389.628H314.711H324.834H374.088L397.959 354.725C398.563 354.854 399.017 354.983 399.621 354.983C400.225 354.983 400.83 354.854 401.283 354.725L425.155 389.628H474.408H484.531H533.785L557.656 354.725C558.261 354.854 558.714 354.983 559.318 354.983C559.923 354.983 560.527 354.854 561.131 354.725L585.003 389.628H634.559H639.545V388.853V388.077V385.233C638.94 385.233 638.336 385.362 637.883 385.492L614.011 350.588L637.883 315.684C638.487 315.814 638.94 315.943 639.545 315.943V313.099V312.323V310.772V309.996V307.152C638.94 307.152 638.336 307.282 637.883 307.411L614.011 272.507L637.883 237.604C638.487 237.733 638.94 237.862 639.545 237.862V235.277V234.501V232.95V232.174V229.33C638.94 229.33 638.336 229.459 637.883 229.589L614.011 194.685L637.883 159.781C638.487 159.911 638.94 160.04 639.545 160.04V157.196V156.42V155.127V154.352V151.508C638.94 151.508 638.336 151.637 637.883 151.766L614.011 116.863L637.883 81.959C638.487 82.0883 638.94 82.2175 639.545 82.2175V79.3735V78.5979V77.0466V76.271V73.427C638.94 73.427 638.336 73.5563 637.883 73.6855L614.011 38.7819L637.883 3.87819C638.487 4.00746 638.94 4.13673 639.545 4.13673V1.55127V0.775637V0H634.559ZM506.892 349.812L483.02 314.909C483.927 314.262 484.531 313.357 484.682 312.453H532.576L556.448 347.356C555.541 348.003 554.937 348.907 554.786 349.812H506.892ZM478.034 385.492L454.163 350.588L478.034 315.684C478.639 315.814 479.092 315.943 479.696 315.943C480.301 315.943 480.905 315.814 481.358 315.684L505.23 350.588L481.358 385.492C480.754 385.362 480.301 385.233 479.696 385.233C479.092 385.233 478.488 385.362 478.034 385.492ZM404.758 349.812C404.607 348.778 404.003 348.003 403.096 347.356L426.968 312.453H474.862C475.013 313.487 475.617 314.392 476.524 314.909L452.652 349.812H404.758ZM347.043 349.812L323.172 314.909C324.078 314.262 324.683 313.357 324.834 312.453H372.728L396.599 347.356C395.693 348.003 395.089 348.907 394.937 349.812H347.043ZM318.035 385.492L294.163 350.588L318.035 315.684C318.639 315.814 319.093 315.943 319.697 315.943C320.301 315.943 320.906 315.814 321.359 315.684L345.23 350.588L321.359 385.492C320.754 385.362 320.301 385.233 319.697 385.233C319.244 385.233 318.639 385.362 318.035 385.492ZM244.758 349.812C244.607 348.778 244.003 348.003 243.097 347.356L266.968 312.453H314.862C315.013 313.487 315.618 314.392 316.524 314.909L292.653 349.812H244.758ZM187.044 349.812L163.172 314.909C164.079 314.262 164.683 313.357 164.834 312.453H212.728L236.6 347.356C235.693 348.003 235.089 348.907 234.938 349.812H187.044ZM158.186 385.492L134.315 350.588L158.186 315.684C158.791 315.814 159.244 315.943 159.848 315.943C160.453 315.943 161.057 315.814 161.661 315.684L185.533 350.588L161.661 385.492C161.057 385.362 160.604 385.233 160 385.233C159.244 385.233 158.791 385.362 158.186 385.492ZM84.91 349.812C84.7589 348.778 84.1546 348.003 83.2481 347.356L107.12 312.453H155.014C155.165 313.487 155.769 314.392 156.676 314.909L132.804 349.812H84.91ZM79.9242 346.322C79.3199 346.322 78.7155 346.451 78.2623 346.581L54.3908 311.677L78.2623 276.773C78.8666 276.902 79.3199 277.032 79.9242 277.032C80.5286 277.032 81.1329 276.902 81.7372 276.773L105.609 311.677L81.7372 346.581C81.1329 346.451 80.5286 346.322 79.9242 346.322ZM132.804 39.6868L156.676 74.5904C155.769 75.2368 155.165 76.1417 155.014 77.0466H107.12L83.2481 42.143C84.1546 41.4966 84.7589 40.5917 84.91 39.6868H132.804ZM159.848 4.266C160.453 4.266 161.057 4.13673 161.51 4.00746L185.382 38.9111L161.51 73.8148C160.906 73.6855 160.453 73.5563 159.848 73.5563C159.244 73.5563 158.64 73.6855 158.186 73.8148L134.315 38.9111L158.186 4.00746C158.791 4.266 159.244 4.266 159.848 4.266ZM234.938 39.6868C235.089 40.721 235.693 41.4966 236.6 42.143L212.728 77.0466H164.834C164.683 76.0124 164.079 75.2368 163.172 74.5904L187.044 39.6868H234.938ZM292.653 39.6868L316.524 74.5904C315.618 75.2368 315.013 76.1417 314.862 77.0466H266.968L243.097 42.143C244.003 41.4966 244.607 40.5917 244.758 39.6868H292.653ZM321.51 4.00746L345.381 38.9111L321.51 73.8148C320.906 73.6855 320.452 73.5563 319.848 73.5563C319.244 73.5563 318.639 73.6855 318.186 73.8148L294.315 38.9111L318.186 4.00746C318.79 4.13673 319.244 4.266 319.848 4.266C320.452 4.266 321.057 4.266 321.51 4.00746ZM394.786 39.6868C394.937 40.721 395.542 41.4966 396.448 42.143L372.577 77.0466H324.834C324.683 76.0124 324.078 75.2368 323.172 74.5904L347.043 39.6868H394.786ZM452.501 39.6868L476.372 74.5904C475.466 75.2368 474.862 76.1417 474.711 77.0466H426.816L402.945 42.143C403.851 41.4966 404.456 40.5917 404.607 39.6868H452.501ZM481.509 4.00746L505.381 38.9111L481.509 73.8148C480.905 73.6855 480.452 73.5563 479.847 73.5563C479.243 73.5563 478.639 73.6855 478.186 73.8148L454.314 38.9111L478.186 4.00746C478.79 4.13673 479.243 4.266 479.847 4.266C480.301 4.266 480.905 4.266 481.509 4.00746ZM554.786 39.6868C554.937 40.721 555.541 41.4966 556.448 42.143L532.576 77.0466H484.682C484.531 76.0124 483.927 75.2368 483.02 74.5904L506.892 39.6868H554.786ZM484.682 310.901C484.531 309.867 483.927 309.091 483.02 308.445L506.892 273.541H554.786C554.937 274.576 555.541 275.48 556.448 275.998L532.576 310.901H484.682ZM426.968 310.901L403.096 275.998C404.003 275.351 404.607 274.446 404.758 273.541H452.652L476.524 308.445C475.617 309.091 475.013 309.996 474.862 310.901H426.968ZM324.834 310.901C324.683 309.867 324.078 309.091 323.172 308.445L347.043 273.541H394.937C395.089 274.576 395.693 275.48 396.599 275.998L372.728 310.901H324.834ZM266.968 310.901L243.097 275.998C244.003 275.351 244.607 274.446 244.758 273.541H292.653L316.524 308.445C315.618 309.091 315.013 309.996 314.862 310.901H266.968ZM164.834 310.901C164.683 309.867 164.079 309.091 163.172 308.445L187.044 273.541H234.938C235.089 274.576 235.693 275.48 236.6 275.998L212.728 310.901H164.834ZM107.12 310.901L83.2481 275.998C84.1546 275.351 84.7589 274.446 84.91 273.541H132.804L156.676 308.445C155.769 309.091 155.165 309.996 155.014 310.901H107.12ZM155.014 78.7272C155.165 79.7614 155.769 80.537 156.676 81.1834L132.804 116.087H84.91C84.7589 115.053 84.1546 114.277 83.2481 113.631L107.12 78.7272H155.014ZM212.728 78.7272L236.6 113.631C235.693 114.277 235.089 115.182 234.938 116.087H187.044L163.172 81.1834C164.079 80.537 164.683 79.6321 164.834 78.7272H212.728ZM314.862 78.7272C315.013 79.7614 315.618 80.537 316.524 81.1834L292.653 116.087H244.758C244.607 115.053 244.003 114.277 243.097 113.631L266.968 78.7272H314.862ZM372.577 78.7272L396.448 113.631C395.542 114.277 394.937 115.182 394.786 116.087H346.892L323.021 81.1834C323.927 80.537 324.532 79.6321 324.683 78.7272H372.577ZM474.711 78.7272C474.862 79.7614 475.466 80.537 476.372 81.1834L452.501 116.087H404.607C404.456 115.053 403.851 114.277 402.945 113.631L426.816 78.7272H474.711ZM479.696 307.411C479.092 307.411 478.488 307.54 478.034 307.669L454.163 272.766L478.034 237.862C478.639 237.991 479.092 238.121 479.696 238.121C480.301 238.121 480.905 237.991 481.358 237.862L505.23 272.766L481.358 307.669C480.905 307.411 480.301 307.411 479.696 307.411ZM404.758 271.99C404.607 270.956 404.003 270.18 403.096 269.534L426.968 234.63H474.862C475.013 235.664 475.617 236.44 476.524 237.086L452.652 271.99H404.758ZM347.043 271.99L323.172 237.086C324.078 236.44 324.683 235.535 324.834 234.63H372.728L396.599 269.534C395.693 270.18 395.089 271.085 394.937 271.99H347.043ZM319.848 307.411C319.244 307.411 318.639 307.54 318.186 307.669L294.315 272.766L318.186 237.862C318.79 237.991 319.244 238.121 319.848 238.121C320.452 238.121 321.057 237.991 321.51 237.862L345.381 272.766L321.51 307.669C321.057 307.411 320.452 307.411 319.848 307.411ZM244.758 271.99C244.607 270.956 244.003 270.18 243.097 269.534L266.968 234.63H314.862C315.013 235.664 315.618 236.44 316.524 237.086L292.653 271.99H244.758ZM187.044 271.99L163.172 237.086C164.079 236.44 164.683 235.535 164.834 234.63H212.728L236.6 269.534C235.693 270.18 235.089 271.085 234.938 271.99H187.044ZM159.848 307.411C159.244 307.411 158.64 307.54 158.186 307.669L134.315 272.766L158.186 237.862C158.791 237.991 159.244 238.121 159.848 238.121C160.453 238.121 161.057 237.991 161.51 237.862L185.382 272.766L161.661 307.669C161.057 307.411 160.453 307.411 159.848 307.411ZM159.848 82.2175C160.453 82.2175 161.057 82.0883 161.51 81.959L185.382 116.863L161.51 151.766C160.906 151.637 160.453 151.508 159.848 151.508C159.244 151.508 158.64 151.637 158.186 151.766L134.315 116.863L158.186 81.959C158.791 82.0883 159.244 82.2175 159.848 82.2175ZM234.938 117.638C235.089 118.672 235.693 119.448 236.6 120.094L212.728 154.998H164.834C164.683 153.964 164.079 153.188 163.172 152.542L187.044 117.638H234.938ZM292.653 117.638L316.524 152.542C315.618 153.188 315.013 154.093 314.862 154.998H266.968L243.097 120.094C244.003 119.448 244.607 118.543 244.758 117.638H292.653ZM319.848 82.2175C320.452 82.2175 321.057 82.0883 321.51 81.959L345.381 116.863L321.51 151.766C320.906 151.637 320.452 151.508 319.848 151.508C319.244 151.508 318.639 151.637 318.186 151.766L294.315 116.863L318.186 81.959C318.639 82.0883 319.244 82.2175 319.848 82.2175ZM394.786 117.638C394.937 118.672 395.542 119.448 396.448 120.094L372.577 154.998H324.834C324.683 153.964 324.078 153.188 323.172 152.542L347.043 117.638H394.786ZM452.501 117.638L476.372 152.542C475.466 153.188 474.862 154.093 474.711 154.998H426.816L402.945 120.094C403.851 119.448 404.456 118.543 404.607 117.638H452.501ZM474.711 232.95H426.816L402.945 198.046C403.851 197.4 404.456 196.495 404.607 195.59H452.501L476.372 230.494C475.617 231.14 475.013 232.045 474.711 232.95ZM324.834 232.95C324.683 231.916 324.078 231.14 323.172 230.494L347.043 195.59H394.937C395.089 196.624 395.693 197.4 396.599 198.046L372.728 232.95H324.834ZM266.968 232.95L243.097 198.046C244.003 197.4 244.607 196.495 244.758 195.59H292.653L316.524 230.494C315.618 231.14 315.013 232.045 314.862 232.95H266.968ZM164.834 232.95C164.683 231.916 164.079 231.14 163.172 230.494L187.044 195.59H234.938C235.089 196.624 235.693 197.4 236.6 198.046L212.728 232.95H164.834ZM164.834 156.549H212.728L236.6 191.453C235.693 192.099 235.089 193.004 234.938 193.909H187.044L163.172 159.006C164.079 158.489 164.683 157.584 164.834 156.549ZM314.862 156.549C315.013 157.584 315.618 158.359 316.524 159.006L292.653 193.909H244.758C244.607 192.875 244.003 192.099 243.097 191.453L266.968 156.549H314.862ZM372.577 156.549L396.448 191.453C395.542 192.099 394.937 193.004 394.786 193.909H346.892L323.021 159.006C323.927 158.359 324.532 157.454 324.683 156.549H372.577ZM319.848 229.459C319.244 229.459 318.639 229.589 318.186 229.718L294.315 194.814L318.186 159.911C318.79 160.04 319.244 160.169 319.848 160.169C320.452 160.169 321.057 160.04 321.51 159.911L345.381 194.814L321.51 229.718C321.057 229.589 320.452 229.459 319.848 229.459ZM404.758 194.039C404.607 193.004 404.003 192.229 403.096 191.582L426.968 156.679H474.862C475.013 157.713 475.617 158.489 476.524 159.135L452.652 194.039H404.758ZM399.772 121.258C400.376 121.258 400.981 121.129 401.434 120.999L425.306 155.903L401.434 190.807C400.83 190.677 400.376 190.548 399.772 190.548C399.168 190.548 398.563 190.677 398.11 190.807L374.239 155.903L398.11 120.999C398.563 121.129 399.168 121.258 399.772 121.258ZM239.924 121.258C240.528 121.258 241.132 121.129 241.586 120.999L265.457 155.903L241.586 190.807C240.981 190.677 240.528 190.548 239.924 190.548C239.319 190.548 238.715 190.677 238.262 190.807L214.39 155.903L238.262 120.999C238.715 121.129 239.319 121.258 239.924 121.258ZM159.848 160.169C160.453 160.169 161.057 160.04 161.51 159.911L185.382 194.814L161.51 229.718C160.906 229.589 160.453 229.459 159.848 229.459C159.244 229.459 158.64 229.589 158.186 229.718L134.315 194.814L158.186 159.911C158.791 160.04 159.244 160.169 159.848 160.169ZM239.924 268.37C239.319 268.37 238.715 268.5 238.262 268.629L214.39 233.725L238.262 198.822C238.866 198.951 239.319 199.08 239.924 199.08C240.528 199.08 241.132 198.951 241.586 198.822L265.457 233.725L241.586 268.629C240.981 268.5 240.528 268.37 239.924 268.37ZM399.772 268.37C399.168 268.37 398.563 268.5 398.11 268.629L374.239 233.725L398.11 198.822C398.715 198.951 399.168 199.08 399.772 199.08C400.376 199.08 400.981 198.951 401.434 198.822L425.306 233.725L401.434 268.629C400.981 268.5 400.376 268.37 399.772 268.37ZM479.696 229.459C479.092 229.459 478.488 229.589 478.034 229.718L454.163 194.814L478.034 159.911C478.639 160.04 479.092 160.169 479.696 160.169C480.301 160.169 480.905 160.04 481.358 159.911L505.23 194.814L481.358 229.718C480.905 229.589 480.301 229.459 479.696 229.459ZM479.696 151.508C479.092 151.508 478.488 151.637 478.034 151.766L454.163 116.863L478.034 81.959C478.639 82.0883 479.092 82.2175 479.696 82.2175C480.301 82.2175 480.905 82.0883 481.358 81.959L505.23 116.863L481.358 151.766C480.905 151.637 480.301 151.508 479.696 151.508ZM84.91 117.638H132.804L156.676 152.542C155.769 153.188 155.165 154.093 155.014 154.998H107.12L83.2481 120.094C84.1546 119.448 84.7589 118.672 84.91 117.638ZM155.014 156.549C155.165 157.584 155.769 158.359 156.676 159.006L132.804 193.909H84.91C84.7589 192.875 84.1546 192.099 83.2481 191.453L107.12 156.549H155.014ZM84.91 195.59H132.804L156.676 230.494C155.769 231.14 155.165 232.045 155.014 232.95H107.12L83.2481 198.046C84.1546 197.4 84.7589 196.624 84.91 195.59ZM155.014 234.501C155.165 235.535 155.769 236.311 156.676 236.957L132.804 271.861H84.91C84.7589 270.827 84.1546 270.051 83.2481 269.405L107.12 234.501H155.014ZM554.786 271.99H506.892L483.02 237.086C483.927 236.44 484.531 235.535 484.682 234.63H532.576L556.448 269.534C555.541 270.051 554.937 270.956 554.786 271.99ZM484.682 232.95C484.531 231.916 483.927 231.14 483.02 230.494L506.892 195.59H554.786C554.937 196.624 555.541 197.4 556.448 198.046L532.576 232.95H484.682ZM554.786 194.039H506.892L483.02 159.135C483.927 158.489 484.531 157.584 484.682 156.679H532.576L556.448 191.582C555.541 192.099 554.937 193.004 554.786 194.039ZM484.682 155.127C484.531 154.093 483.927 153.318 483.02 152.671L506.892 117.768H554.786C554.937 118.802 555.541 119.577 556.448 120.224L532.576 155.127H484.682ZM554.786 116.087H506.892L483.02 81.1834C483.927 80.537 484.531 79.6321 484.682 78.7272H532.576L556.448 113.631C555.541 114.277 554.937 115.053 554.786 116.087ZM399.772 43.3064C400.376 43.3064 400.981 43.1771 401.434 43.0479L425.306 77.9515L401.434 112.855C400.83 112.726 400.376 112.597 399.772 112.597C399.168 112.597 398.563 112.726 398.11 112.855L374.239 77.9515L398.11 43.0479C398.563 43.1771 399.168 43.3064 399.772 43.3064ZM239.924 43.3064C240.528 43.3064 241.132 43.1771 241.586 43.0479L265.457 77.9515L241.586 112.855C240.981 112.726 240.528 112.597 239.924 112.597C239.319 112.597 238.715 112.726 238.262 112.855L214.39 77.9515L238.262 43.0479C238.715 43.1771 239.319 43.3064 239.924 43.3064ZM79.9242 43.3064C80.5286 43.3064 81.1329 43.1771 81.5862 43.0479L105.458 77.9515L81.5862 112.855C80.9818 112.726 80.5286 112.597 79.9242 112.597C79.3199 112.597 78.7155 112.726 78.2623 112.855L54.3908 77.9515L78.2623 43.0479C78.7155 43.1771 79.3199 43.3064 79.9242 43.3064ZM79.9242 121.258C80.5286 121.258 81.1329 121.129 81.5862 120.999L105.458 155.903L81.5862 190.807C80.9818 190.677 80.5286 190.548 79.9242 190.548C79.3199 190.548 78.7155 190.677 78.2623 190.807L54.3908 155.903L78.2623 120.999C78.7155 121.129 79.3199 121.258 79.9242 121.258ZM79.9242 199.08C80.5286 199.08 81.1329 198.951 81.5862 198.822L105.458 233.725L81.5862 268.629C80.9818 268.5 80.5286 268.37 79.9242 268.37C79.3199 268.37 78.7155 268.5 78.2623 268.629L54.3908 233.725L78.2623 198.822C78.7155 198.951 79.3199 199.08 79.9242 199.08ZM239.924 346.322C239.319 346.322 238.715 346.451 238.262 346.581L214.39 311.677L238.262 276.773C238.866 276.902 239.319 277.032 239.924 277.032C240.528 277.032 241.132 276.902 241.737 276.773L265.608 311.677L241.737 346.581C240.981 346.451 240.528 346.322 239.924 346.322ZM399.772 346.322C399.168 346.322 398.563 346.451 398.11 346.581L374.239 311.677L398.11 276.773C398.715 276.902 399.168 277.032 399.772 277.032C400.376 277.032 400.981 276.902 401.434 276.773L425.306 311.677L401.434 346.581C400.981 346.451 400.376 346.322 399.772 346.322ZM559.621 346.322C559.016 346.322 558.412 346.451 557.959 346.581L534.087 311.677L557.959 276.773C558.563 276.902 559.016 277.032 559.621 277.032C560.225 277.032 560.829 276.902 561.434 276.773L585.305 311.677L561.434 346.581C560.829 346.451 560.225 346.322 559.621 346.322ZM559.621 268.37C559.016 268.37 558.412 268.5 557.959 268.629L534.087 233.725L557.959 198.822C558.563 198.951 559.016 199.08 559.621 199.08C560.225 199.08 560.829 198.951 561.283 198.822L585.154 233.725L561.283 268.629C560.829 268.5 560.225 268.37 559.621 268.37ZM559.621 190.419C559.016 190.419 558.412 190.548 557.959 190.677L534.087 155.774L557.959 120.87C558.563 120.999 559.016 121.129 559.621 121.129C560.225 121.129 560.829 120.999 561.283 120.87L585.154 155.774L561.283 190.677C560.829 190.548 560.225 190.419 559.621 190.419ZM559.621 112.597C559.016 112.597 558.412 112.726 557.959 112.855L534.087 77.9515L557.959 43.0479C558.563 43.1771 559.016 43.3064 559.621 43.3064C560.225 43.3064 560.829 43.1771 561.283 43.0479L585.154 77.9515L561.283 112.855C560.829 112.726 560.225 112.597 559.621 112.597ZM556.448 35.6793C555.541 36.3257 554.937 37.2306 554.786 38.1355H506.892L483.02 3.23182C483.927 2.58546 484.531 1.68055 484.682 0.775637H532.576L556.448 35.6793ZM426.968 0.775637H474.862C475.013 1.80982 475.617 2.58546 476.524 3.23182L452.652 38.1355H404.758C404.607 37.1013 404.003 36.3257 403.096 35.6793L426.968 0.775637ZM396.448 35.6793C395.542 36.3257 394.937 37.2306 394.786 38.1355H346.892L323.021 3.23182C323.927 2.58546 324.532 1.68055 324.683 0.775637H372.577L396.448 35.6793ZM266.968 0.775637H314.862C315.013 1.80982 315.618 2.58546 316.524 3.23182L292.653 38.1355H244.758C244.607 37.1013 244.003 36.3257 243.097 35.6793L266.968 0.775637ZM236.6 35.6793C235.693 36.3257 235.089 37.2306 234.938 38.1355H187.044L163.172 3.23182C164.079 2.58546 164.683 1.68055 164.834 0.775637H212.728L236.6 35.6793ZM107.12 0.775637H155.014C155.165 1.80982 155.769 2.58546 156.676 3.23182L132.804 38.1355H84.91C84.7589 37.1013 84.1546 36.3257 83.2481 35.6793L107.12 0.775637ZM3.32388 3.23182C4.23039 2.58546 4.83473 1.68055 4.98582 0.775637H52.8799L76.7514 35.6793C75.8449 36.3257 75.2406 37.2306 75.0895 38.1355H27.1954L3.32388 3.23182ZM27.1954 39.6868H75.0895C75.2406 40.721 75.8449 41.4966 76.7514 42.143L52.8799 77.0466H4.98582C4.83473 76.0124 4.23039 75.2368 3.32388 74.5904L27.1954 39.6868ZM3.32388 81.1834C4.23039 80.537 4.83473 79.6321 4.98582 78.7272H52.8799L76.7514 113.631C75.8449 114.277 75.2406 115.182 75.0895 116.087H27.1954L3.32388 81.1834ZM27.1954 117.638H75.0895C75.2406 118.672 75.8449 119.448 76.7514 120.094L52.8799 154.998H4.98582C4.83473 153.964 4.23039 153.188 3.32388 152.542L27.1954 117.638ZM3.32388 159.135C4.23039 158.489 4.83473 157.584 4.98582 156.679H52.8799L76.7514 191.582C75.8449 192.229 75.2406 193.134 75.0895 194.039H27.1954L3.32388 159.135ZM27.1954 195.59H75.0895C75.2406 196.624 75.8449 197.4 76.7514 198.046L52.8799 232.95H4.98582C4.83473 231.916 4.23039 231.14 3.32388 230.494L27.1954 195.59ZM3.32388 237.086C4.23039 236.44 4.83473 235.535 4.98582 234.63H52.8799L76.7514 269.534C75.8449 270.18 75.2406 271.085 75.0895 271.99H27.1954L3.32388 237.086ZM27.1954 273.412H75.0895C75.2406 274.446 75.8449 275.351 76.7514 275.868L52.8799 310.772H4.98582C4.83473 309.738 4.23039 308.962 3.32388 308.316L27.1954 273.412ZM3.32388 314.909C4.23039 314.262 4.83473 313.357 4.98582 312.453H52.8799L76.7514 347.356C75.8449 348.003 75.2406 348.907 75.0895 349.812H27.1954L3.32388 314.909ZM52.7288 388.853H4.98582C4.83473 387.819 4.23039 387.043 3.32388 386.397L27.1954 351.493H75.0895C75.2406 352.527 75.8449 353.432 76.7514 353.949L52.7288 388.853ZM107.12 388.853L83.2481 353.949C84.1546 353.303 84.7589 352.398 84.91 351.493H132.804L156.676 386.397C155.769 387.043 155.165 387.948 155.014 388.853H107.12ZM212.728 388.853H164.834C164.683 387.819 164.079 387.043 163.172 386.397L187.044 351.493H234.938C235.089 352.527 235.693 353.432 236.6 353.949L212.728 388.853ZM266.968 388.853L243.097 353.949C244.003 353.303 244.607 352.398 244.758 351.493H292.653L316.524 386.397C315.618 387.043 315.013 387.948 314.862 388.853H266.968ZM372.577 388.853H324.834C324.683 387.819 324.078 387.043 323.172 386.397L347.043 351.493H394.937C395.089 352.527 395.693 353.432 396.599 353.949L372.577 388.853ZM426.968 388.853L403.096 353.949C404.003 353.303 404.607 352.398 404.758 351.493H452.652L476.524 386.397C475.617 387.043 475.013 387.948 474.862 388.853H426.968ZM532.576 388.853H484.682C484.531 387.819 483.927 387.043 483.02 386.397L506.892 351.493H554.786C554.937 352.527 555.541 353.432 556.448 353.949L532.576 388.853ZM636.372 386.267C635.466 386.914 634.861 387.819 634.71 388.724H586.816L562.944 353.82C563.851 353.173 564.455 352.269 564.606 351.364H612.5L636.372 386.267ZM612.5 349.812H564.606C564.455 348.778 563.851 348.003 562.944 347.356L586.816 312.453H634.71C634.861 313.487 635.466 314.392 636.372 314.909L612.5 349.812ZM636.372 308.445C635.466 309.091 634.861 309.996 634.71 310.901H586.816L562.944 275.998C563.851 275.351 564.455 274.446 564.606 273.541H612.5L636.372 308.445ZM612.5 271.99H564.606C564.455 270.956 563.851 270.18 562.944 269.534L586.816 234.63H634.71C634.861 235.664 635.466 236.44 636.372 237.086L612.5 271.99ZM636.372 230.494C635.466 231.14 634.861 232.045 634.71 232.95H586.816L562.944 198.046C563.851 197.4 564.455 196.495 564.606 195.59H612.5L636.372 230.494ZM612.5 194.039H564.606C564.455 193.004 563.851 192.229 562.944 191.582L586.816 156.679H634.71C634.861 157.713 635.466 158.489 636.372 159.135L612.5 194.039ZM636.372 152.542C635.466 153.188 634.861 154.093 634.71 154.998H586.816L562.944 120.094C563.851 119.448 564.455 118.543 564.606 117.638H612.5L636.372 152.542ZM612.5 116.087H564.606C564.455 115.053 563.851 114.277 562.944 113.631L586.816 78.7272H634.71C634.861 79.7614 635.466 80.537 636.372 81.1834L612.5 116.087ZM636.372 74.5904C635.466 75.2368 634.861 76.1417 634.71 77.0466H586.816L562.944 42.143C563.851 41.4966 564.455 40.5917 564.606 39.6868H612.5L636.372 74.5904ZM612.5 38.1355H564.606C564.455 37.1013 563.851 36.3257 562.944 35.6793L586.816 0.775637H634.71C634.861 1.80982 635.466 2.58546 636.372 3.23182L612.5 38.1355Z" fill="white" fill-opacity="0.3"/>
</svg>
