<svg viewBox="0 0 772.16 173.76" xmlns="http://www.w3.org/2000/svg" xmlns:xlink="http://www.w3.org/1999/xlink"><filter id="a" filterUnits="userSpaceOnUse" height="173.76" width="173.52" x="0" y="0"><feOffset dx="0" dy="0"/><feGaussianBlur result="uuid-b8589a33-288a-4128-b182-d639c41197e9" stdDeviation="2.01"/><feFlood flood-color="#fff" flood-opacity=".75"/><feComposite in2="uuid-b8589a33-288a-4128-b182-d639c41197e9" operator="in"/><feComposite in="SourceGraphic"/></filter><linearGradient id="b" gradientUnits="userSpaceOnUse" x1="59.37" x2="120" y1="157.5" y2="157.5"><stop offset="0" stop-color="#de2f58"/><stop offset="1" stop-color="#8d385e"/></linearGradient><linearGradient id="c" x1="29.2" x2="157.87" xlink:href="#b" y1="124.52" y2="124.52"/><linearGradient id="d" gradientUnits="userSpaceOnUse" x1="12.17" x2="161.05" y1="66.19" y2="66.19"><stop offset="0" stop-color="#0097cb"/><stop offset="1" stop-color="#0a5288"/></linearGradient><filter id="e" filterUnits="userSpaceOnUse" height="167.52" width="167.28" x="3.01" y="3.97"><feOffset dx="0" dy="1"/><feGaussianBlur result="uuid-ae297901-50b8-44cb-9cb6-c8e8641c5069" stdDeviation="1"/><feFlood flood-color="#231f20" flood-opacity=".75"/><feComposite in2="uuid-ae297901-50b8-44cb-9cb6-c8e8641c5069" operator="in"/><feComposite in="SourceGraphic"/></filter><filter id="f" filterUnits="userSpaceOnUse" height="41.28" width="42.96" x="65.17" y="20.29"><feOffset dx="0" dy="1"/><feGaussianBlur result="uuid-69e2f020-462f-4354-9c80-07d89d28803d" stdDeviation="1"/><feFlood flood-color="#231f20" flood-opacity=".75"/><feComposite in2="uuid-69e2f020-462f-4354-9c80-07d89d28803d" operator="in"/><feComposite in="SourceGraphic"/></filter><filter id="g" filterUnits="userSpaceOnUse" height="58.56" width="60.96" x="22.93" y="50.29"><feOffset dx="0" dy="1"/><feGaussianBlur result="uuid-f7b1563f-0411-4ba2-9181-728af26221c5" stdDeviation="1"/><feFlood flood-color="#231f20" flood-opacity=".75"/><feComposite in2="uuid-f7b1563f-0411-4ba2-9181-728af26221c5" operator="in"/><feComposite in="SourceGraphic"/></filter><filter id="h" filterUnits="userSpaceOnUse" height="54.48" width="57.12" x="87.01" y="44.05"><feOffset dx="0" dy="1"/><feGaussianBlur result="uuid-1561e558-7561-46d3-9f44-1bf7d0ede4df" stdDeviation="1"/><feFlood flood-color="#231f20" flood-opacity=".75"/><feComposite in2="uuid-1561e558-7561-46d3-9f44-1bf7d0ede4df" operator="in"/><feComposite in="SourceGraphic"/></filter><g fill="#fff"><path d="m183.53 24.79c0-.77.26-1.43.77-1.98s1.21-.83 2.11-.83h18.9c.72 0 1.38.26 1.98.77s.92 1.19.96 2.05v69.57h35.13c.77 0 1.43.26 1.98.77s.83 1.21.83 2.11v16.82c0 .73-.25 1.39-.73 1.98-.49.6-1.18.92-2.08.96h-57.03c-1.87 0-2.81-.94-2.81-2.81v-89.41z"/><path d="m335.01 112.27c0 .73-.13 1.42-.38 2.08-.26.66-.68 1.18-1.28 1.57-.47.47-1.02.77-1.66.9s-1.19.19-1.66.19h-12.58c-.89 0-1.62-.12-2.17-.35s-1-.56-1.34-.99-.63-.95-.86-1.57-.48-1.29-.73-2.01l-1.85-4.8c-1.15 1.15-2.41 2.38-3.77 3.68s-2.86 2.51-4.5 3.61c-1.64 1.11-3.42 2.04-5.33 2.78-1.92.75-3.96 1.12-6.13 1.12-3.87 0-7.59-.49-11.14-1.47-3.56-.98-6.88-2.38-9.96-4.19-3.09-1.81-5.89-3.99-8.4-6.52-2.51-2.54-4.67-5.36-6.48-8.47s-3.2-6.47-4.18-10.07-1.47-7.36-1.47-11.29c0-5.93 1.09-11.44 3.26-16.53s5.13-9.53 8.88-13.3 8.15-6.73 13.22-8.89c5.07-2.15 10.49-3.23 16.29-3.23 2.64 0 5.07.39 7.28 1.18s4.23 1.82 6.04 3.1 3.45 2.73 4.92 4.35 2.78 3.26 3.93 4.92l2.49-7.74c.43-1.06.78-1.93 1.05-2.59.28-.66.57-1.15.89-1.47s.71-.53 1.18-.64 1.13-.16 1.98-.16h9.52c.47 0 1.02.06 1.66.19s1.19.43 1.66.9c.6.47 1.02 1 1.28 1.6s.38 1.28.38 2.05v72.07zm-62.9-35.81c0 2.81.44 5.45 1.31 7.9s2.12 4.57 3.74 6.36 3.57 3.21 5.84 4.25c2.28 1.05 4.8 1.57 7.57 1.57s5.5-.52 7.95-1.57c2.45-1.04 4.58-2.46 6.39-4.25s3.23-3.91 4.25-6.36 1.53-5.08 1.53-7.9-.51-5.33-1.53-7.8-2.44-4.65-4.25-6.52c-1.81-1.88-3.94-3.36-6.39-4.44-2.45-1.09-5.1-1.63-7.95-1.63s-5.29.54-7.57 1.63-4.23 2.57-5.84 4.44c-1.62 1.88-2.86 4.05-3.74 6.52-.87 2.47-1.31 5.07-1.31 7.8z"/><path d="m345.1 36.56c.55-.47 1.13-.77 1.72-.9.6-.13 1.17-.19 1.72-.19h9.64c.81 0 1.48.13 2.01.38.53.26.97.61 1.31 1.06s.63.96.86 1.54.46 1.2.67 1.89l2.68 7.74c1.19-1.53 2.39-3.1 3.61-4.7 1.21-1.6 2.65-3.05 4.31-4.35s3.64-2.38 5.94-3.23 5.11-1.28 8.43-1.28c5.83 0 11.21 1.08 16.13 3.23s9.15 5.12 12.71 8.89c3.55 3.77 6.33 8.21 8.33 13.3s3 10.61 3 16.53-1 11.38-3 16.5-4.78 9.56-8.33 13.33c-3.56 3.77-7.79 6.75-12.71 8.92s-10.29 3.26-16.13 3.26c-2.77 0-5.15-.33-7.15-.99s-3.78-1.52-5.33-2.59-2.93-2.24-4.12-3.52-2.36-2.56-3.51-3.84v60.93c0 1.28-.38 2.37-1.15 3.26s-1.96 1.34-3.58 1.34h-14.62c-.51 0-1.06-.11-1.66-.32s-1.15-.51-1.66-.9c-.51-.38-.94-.86-1.28-1.44s-.51-1.23-.51-1.95v-128.26c0-.85.16-1.56.48-2.11s.71-1.06 1.18-1.53zm59.65 39.9c0-2.73-.45-5.32-1.34-7.77s-2.15-4.59-3.77-6.43c-1.62-1.83-3.56-3.28-5.81-4.35-2.26-1.06-4.75-1.6-7.47-1.6s-5.23.5-7.63 1.5c-2.41 1-4.51 2.37-6.32 4.09-1.81 1.73-3.28 3.76-4.41 6.11s-1.76 4.84-1.88 7.48v.96c0 2.81.53 5.46 1.6 7.93 1.06 2.47 2.51 4.61 4.34 6.43 1.83 1.81 3.98 3.25 6.45 4.32s5.09 1.6 7.86 1.6 5.21-.53 7.47-1.6c2.26-1.06 4.19-2.5 5.81-4.32 1.62-1.81 2.87-3.95 3.77-6.43.89-2.47 1.34-5.12 1.34-7.93z"/><path d="m502.02 107.29c-3.75 3.45-7.96 6.15-12.65 8.09-4.68 1.94-9.64 2.91-14.88 2.91-5.83 0-11.35-1.07-16.54-3.2-5.2-2.13-9.75-5.08-13.67-8.86-3.92-3.77-7.02-8.22-9.32-13.33-2.3-5.12-3.45-10.68-3.45-16.69 0-3.75.46-7.39 1.37-10.9.91-3.52 2.21-6.81 3.9-9.88 1.68-3.07 3.72-5.89 6.13-8.47 2.4-2.58 5.1-4.79 8.08-6.62s6.22-3.26 9.71-4.28 7.17-1.53 11.05-1.53c3.53 0 6.96.47 10.28 1.41s6.44 2.26 9.36 3.96c2.92 1.71 5.59 3.75 8.01 6.14 2.43 2.39 4.51 5 6.26 7.83 1.75 2.84 3.1 5.86 4.06 9.08s1.44 6.53 1.44 9.94c0 2.22-.03 4.03-.1 5.44-.06 1.41-.39 2.53-.99 3.36s-1.59 1.41-2.97 1.73-3.42.48-6.1.48h-45.98c.43 2.73 1.29 5.01 2.59 6.84s2.8 3.29 4.5 4.38 3.51 1.87 5.43 2.33c1.92.47 3.73.7 5.43.7 1.53 0 3.11-.16 4.73-.48s3.18-.75 4.69-1.28 2.89-1.15 4.15-1.85 2.27-1.44 3.03-2.21c.68-.55 1.27-.97 1.76-1.25s1.01-.42 1.56-.42 1.12.19 1.69.58 1.22.94 1.95 1.66l6.77 7.67c.47.55.77 1.06.89 1.5s.19.91.19 1.37c0 .85-.23 1.59-.7 2.21s-1.02 1.16-1.66 1.63zm-30.72-53.27c-1.66 0-3.27.33-4.82.99s-3.01 1.55-4.37 2.65c-1.36 1.11-2.59 2.37-3.67 3.77-1.09 1.41-1.97 2.84-2.65 4.28h32.63c-.89-1.66-1.86-3.2-2.91-4.6-1.04-1.41-2.24-2.64-3.58-3.71s-2.87-1.9-4.6-2.49c-1.72-.6-3.74-.9-6.03-.9z"/><path d="m517.6 16.54c0-1.36.34-2.51 1.02-3.45s1.85-1.41 3.51-1.41h15.65c.43 0 .87.12 1.34.35s.9.57 1.31.99c.4.43.74.94 1.02 1.53.28.6.42 1.26.42 1.98v95.54c0 1.62-.46 2.85-1.37 3.68-.92.83-2.1 1.25-3.54 1.25h-14.82c-1.66 0-2.83-.42-3.51-1.25s-1.02-2.06-1.02-3.68v-95.53z"/><path d="m584.84 24.99c0-.9.23-1.61.7-2.14s1.17-.8 2.11-.8h40.81c2.94 0 5.7.41 8.3 1.22s4.98 1.93 7.15 3.36 4.13 3.13 5.88 5.12c1.75 1.98 3.22 4.12 4.44 6.43 1.21 2.3 2.14 4.72 2.78 7.26s.96 5.11.96 7.71c0 3.84-.69 7.59-2.08 11.25-1.38 3.67-3.35 6.93-5.91 9.78-2.55 2.86-5.62 5.17-9.2 6.94s-7.54 2.68-11.88 2.72h-19.35v30.44c0 1.83-.98 2.75-2.94 2.75h-18.97c-.85 0-1.53-.22-2.04-.67s-.77-1.14-.77-2.08v-89.29zm48.09 28c0-1.28-.22-2.56-.67-3.84s-1.1-2.42-1.95-3.42-1.88-1.82-3.1-2.46-2.59-.96-4.12-.96h-13.54v21.36h13.54c1.53 0 2.92-.31 4.15-.93s2.27-1.42 3.1-2.4 1.47-2.11 1.92-3.39.67-2.6.67-3.96z"/><path d="m662.25 8.42c0-1.79.38-3.06 1.15-3.81s1.96-1.12 3.58-1.12h14.82c1.49 0 2.69.37 3.61 1.12s1.37 2.01 1.37 3.81v12.47c0 .51-.12 1.07-.35 1.66-.23.6-.57 1.17-.99 1.73-.43.55-.95 1.01-1.56 1.38-.62.36-1.31.54-2.08.54h-14.82c-3.15 0-4.73-1.77-4.73-5.31zm0 32.36c0-1.36.38-2.54 1.15-3.52s1.96-1.47 3.58-1.47h14.62c.51 0 1.06.12 1.66.35s1.15.58 1.66 1.02c.51.45.95.97 1.31 1.57s.54 1.28.54 2.05v71.3c0 1.62-.45 2.85-1.34 3.68s-2.17 1.25-3.83 1.25h-14.62c-3.15 0-4.73-1.64-4.73-4.92z"/><path d="m696.86 36.94c.55-.47 1.14-.77 1.76-.9s1.2-.19 1.76-.19h9.64c.77 0 1.43.14 1.98.42s1.02.65 1.41 1.12c.38.47.69 1 .93 1.59.23.6.46 1.21.67 1.85l1.98 8.16c.64-1.32 1.56-2.82 2.78-4.5 1.21-1.68 2.76-3.25 4.63-4.72s4.1-2.7 6.67-3.7c2.58-1 5.57-1.5 8.97-1.5 4.85 0 9.26.93 13.22 2.81 3.96 1.87 7.33 4.42 10.12 7.65s4.95 7.01 6.48 11.33 2.3 8.93 2.3 13.83v41.89c0 1.62-.35 2.85-1.05 3.68s-1.82 1.25-3.35 1.25h-14.75c-1.83 0-3.09-.31-3.77-.93s-1.02-1.82-1.02-3.61v-41.63c0-1.83-.42-3.57-1.25-5.21s-1.93-3.09-3.29-4.35-2.91-2.25-4.63-2.97-3.48-1.09-5.27-1.09c-1.53 0-3.1.34-4.69 1.02-1.6.68-3.07 1.63-4.41 2.85-1.34 1.21-2.47 2.64-3.38 4.28-.92 1.64-1.44 3.42-1.56 5.34v41.57c0 .73-.14 1.45-.41 2.17-.28.73-.69 1.28-1.25 1.66-.55.34-1.08.58-1.56.7-.49.13-1.05.19-1.69.19h-14.43c-1.83 0-3.15-.45-3.96-1.34-.81-.9-1.21-2.09-1.21-3.58v-71.51c0-.81.18-1.55.54-2.23s.86-1.21 1.5-1.59l-.38.19z"/><path d="m391.48 172c-2.31-1-4.12-2.42-5.44-4.26s-1.98-3.98-1.98-6.43h7.54c.16 1.84.9 3.35 2.19 4.53 1.3 1.19 3.12 1.78 5.47 1.78s4.32-.58 5.68-1.75 2.04-2.66 2.04-4.5c0-1.43-.42-2.59-1.27-3.49-.84-.9-1.89-1.59-3.15-2.08s-3-1.02-5.22-1.59c-2.8-.73-5.08-1.48-6.83-2.24s-3.24-1.93-4.48-3.52-1.85-3.72-1.85-6.37c0-2.45.62-4.59 1.85-6.43s2.97-3.25 5.19-4.23 4.8-1.47 7.72-1.47c4.16 0 7.57 1.03 10.22 3.09 2.66 2.06 4.13 4.89 4.42 8.48h-7.78c-.12-1.55-.87-2.88-2.22-3.98-1.36-1.1-3.15-1.65-5.37-1.65-2.02 0-3.67.51-4.94 1.53-1.28 1.02-1.92 2.49-1.92 4.41 0 1.31.4 2.38 1.21 3.22.8.84 1.82 1.5 3.06 1.99s2.92 1.02 5.07 1.59c2.84.78 5.16 1.55 6.95 2.33s3.31 1.97 4.57 3.58 1.88 3.77 1.88 6.46c0 2.17-.59 4.21-1.76 6.13s-2.88 3.46-5.13 4.62-4.89 1.75-7.94 1.75c-2.88 0-5.48-.5-7.78-1.5z"/><path d="m431.08 130.5v27.13c0 3.23.85 5.66 2.56 7.29s4.09 2.45 7.14 2.45 5.49-.82 7.2-2.45 2.56-4.06 2.56-7.29v-27.13h7.04v27.01c0 3.47-.76 6.41-2.29 8.82-1.52 2.41-3.56 4.21-6.12 5.39-2.55 1.18-5.37 1.78-8.46 1.78s-5.9-.59-8.43-1.78c-2.53-1.18-4.54-2.98-6.02-5.39s-2.22-5.35-2.22-8.82v-27.01z"/><path d="m496.88 149.31c-1.03 1.92-2.68 3.48-4.94 4.69-2.27 1.2-5.17 1.81-8.71 1.81h-7.78v17.27h-7.04v-42.57h14.83c3.29 0 6.09.56 8.37 1.68 2.29 1.12 3.99 2.64 5.13 4.56 1.13 1.92 1.7 4.06 1.7 6.43 0 2.17-.52 4.21-1.54 6.13zm-7.66-1.01c1.32-1.2 1.98-2.91 1.98-5.11 0-4.65-2.66-6.98-7.97-6.98h-7.78v13.9h7.78c2.68 0 4.67-.6 5.99-1.81z"/><path d="m513.87 136.14v12.5h14.83v5.7h-14.83v13.05h16.68v5.7h-23.72v-42.63h23.72v5.7h-16.68z"/><path d="m563.17 173.07-9.88-17.03h-5.37v17.03h-7.04v-42.57h14.83c3.29 0 6.09.57 8.37 1.71 2.29 1.14 3.99 2.67 5.13 4.59 1.13 1.92 1.7 4.06 1.7 6.43 0 2.78-.81 5.3-2.44 7.56-1.63 2.27-4.13 3.81-7.51 4.62l10.63 17.64h-8.4zm-15.26-22.6h7.78c2.64 0 4.62-.65 5.96-1.96s2.01-3.06 2.01-5.27-.66-3.93-1.98-5.18-3.32-1.87-5.99-1.87h-7.78v14.27z"/><path d="m587.94 172c-2.31-1-4.12-2.42-5.44-4.26s-1.98-3.98-1.98-6.43h7.54c.16 1.84.9 3.35 2.19 4.53 1.3 1.19 3.12 1.78 5.47 1.78s4.32-.58 5.68-1.75 2.04-2.66 2.04-4.5c0-1.43-.42-2.59-1.27-3.49-.84-.9-1.89-1.59-3.15-2.08s-3-1.02-5.22-1.59c-2.8-.73-5.08-1.48-6.83-2.24s-3.24-1.93-4.48-3.52-1.85-3.72-1.85-6.37c0-2.45.62-4.59 1.85-6.43s2.97-3.25 5.19-4.23 4.8-1.47 7.72-1.47c4.16 0 7.57 1.03 10.22 3.09 2.66 2.06 4.13 4.89 4.42 8.48h-7.78c-.12-1.55-.87-2.88-2.22-3.98-1.36-1.1-3.15-1.65-5.37-1.65-2.02 0-3.67.51-4.94 1.53-1.28 1.02-1.92 2.49-1.92 4.41 0 1.31.4 2.38 1.21 3.22.8.84 1.82 1.5 3.06 1.99s2.92 1.02 5.07 1.59c2.84.78 5.16 1.55 6.95 2.33s3.31 1.97 4.57 3.58 1.88 3.77 1.88 6.46c0 2.17-.59 4.21-1.76 6.13s-2.88 3.46-5.13 4.62-4.89 1.75-7.94 1.75c-2.88 0-5.48-.5-7.78-1.5z"/><path d="m648.3 130.5v5.7h-11.43v36.87h-7.04v-36.87h-11.49v-5.7z"/><path d="m665.63 170.71c-3.36-1.86-6.01-4.45-7.97-7.78s-2.93-7.07-2.93-11.24.98-7.9 2.93-11.21c1.96-3.31 4.61-5.89 7.97-7.75s7.03-2.79 11.03-2.79 7.73.93 11.09 2.79 6 4.44 7.94 7.75 2.9 7.04 2.9 11.21-.97 7.91-2.9 11.24c-1.94 3.33-4.58 5.92-7.94 7.78s-7.05 2.79-11.09 2.79-7.67-.93-11.03-2.79zm18.63-5.2c2.22-1.29 3.96-3.12 5.22-5.51s1.88-5.15 1.88-8.3-.63-5.9-1.88-8.27c-1.26-2.37-3-4.19-5.22-5.45s-4.76-1.9-7.6-1.9-5.37.63-7.6 1.9c-2.22 1.27-3.96 3.08-5.22 5.45s-1.88 5.12-1.88 8.27.63 5.91 1.88 8.3c1.26 2.39 3 4.23 5.22 5.51 2.22 1.29 4.76 1.93 7.6 1.93s5.38-.64 7.6-1.93z"/><path d="m729.48 173.07-9.88-17.03h-5.37v17.03h-7.04v-42.57h14.83c3.29 0 6.09.57 8.37 1.71 2.29 1.14 3.99 2.67 5.13 4.59 1.13 1.92 1.7 4.06 1.7 6.43 0 2.78-.81 5.3-2.44 7.56-1.63 2.27-4.13 3.81-7.51 4.62l10.63 17.64h-8.4zm-15.26-22.6h7.78c2.64 0 4.62-.65 5.96-1.96s2.01-3.06 2.01-5.27-.66-3.93-1.98-5.18-3.32-1.87-5.99-1.87h-7.78v14.27z"/><path d="m754.94 136.14v12.5h14.83v5.7h-14.83v13.05h16.68v5.7h-23.72v-42.63h23.72v5.7h-16.68z"/></g><ellipse cx="86.71" cy="86.81" fill="#e1e1e2" filter="url(#a)" rx="80.55" ry="80.66"/><path d="m53.41 145.11c-4.65 0-9.12-.06-13.35-.16 2.57 2.07 5.28 3.99 8.11 5.71 9.43.47 19.72.75 30.26.64 20.65-.21 38.41-1.85 53.04-4.86 4.85-3.66 9.24-7.9 13.07-12.62-26.74 9.03-62.32 11.28-91.13 11.28z" fill="#fff"/><path d="m59.37 156.22c8.47 3.36 17.69 5.22 27.33 5.22 11.96 0 23.26-2.85 33.29-7.89-14.97 2.12-30.95 2.88-46.17 2.88-4.92 0-9.76-.08-14.46-.22z" fill="url(#b)"/><path d="m157.87 109.04c-19.24 10.95-47 18.46-82.98 22.4-16.93 1.86-32.99 2.57-45.7 2.79 1.57 1.9 3.23 3.72 4.98 5.46 12.84.41 28.55.51 44.79-.33 30.16-1.57 54.01-5.95 70.83-12.88 3.4-5.39 6.14-11.24 8.07-17.45z" fill="url(#c)"/><path d="m86.71 12.17c-41.1 0-74.54 33.48-74.54 74.64 0 12 2.86 23.35 7.91 33.4 21.65-2.09 58.4-6.35 84.3-13.07 21.31-5.53 37.81-9.82 56.67-25.42-2.63-38.78-34.96-69.54-74.34-69.54z" fill="url(#d)"/><path d="m161.22 87.97c-18.62 14.41-35.46 18.8-55.57 24.02-25.37 6.59-60.9 10.82-82.94 13 .86 1.45 1.78 2.86 2.74 4.24 34.33-.41 98.76-4.43 134.24-27.21.95-4.55 1.46-9.25 1.53-14.06z" fill="#fff"/><g filter="url(#e)"><path d="m86.71 6.15c-44.49 0-80.55 36.11-80.55 80.66s36.06 80.66 80.55 80.66 80.55-36.11 80.55-80.66-36.06-80.66-80.55-80.66zm-74.54 80.66c0-41.16 33.44-74.64 74.54-74.64s71.72 30.76 74.34 69.54c-18.86 15.6-35.36 19.89-56.67 25.42-25.9 6.73-62.65 10.98-84.3 13.07-5.05-10.06-7.91-21.4-7.91-33.4zm74.54 74.63c-9.65 0-18.86-1.87-27.33-5.22 4.7.14 9.53.22 14.46.22 15.21 0 31.2-.76 46.17-2.88-10.03 5.03-21.33 7.89-33.29 7.89zm44.76-14.99c-14.63 3.01-32.39 4.65-53.04 4.86-10.54.11-20.83-.17-30.26-.64-2.84-1.72-5.54-3.64-8.11-5.71 4.23.1 8.7.16 13.35.16 28.81 0 64.39-2.25 91.13-11.28-3.83 4.72-8.22 8.96-13.07 12.62zm18.33-19.97c-16.82 6.94-40.67 11.31-70.83 12.88-16.24.85-31.95.74-44.79.33-1.75-1.74-3.41-3.56-4.98-5.46 12.71-.22 28.77-.94 45.7-2.79 35.98-3.94 63.74-11.45 82.98-22.4-1.94 6.2-4.68 12.05-8.07 17.45zm-124.36 2.76c-.96-1.38-1.87-2.79-2.74-4.24 22.04-2.18 57.57-6.41 82.94-13 20.11-5.22 36.95-9.61 55.57-24.02-.07 4.81-.59 9.51-1.53 14.06-35.48 22.78-99.91 26.79-134.24 27.21z" fill="#e1e1e2"/></g><path d="m86.63 22.47 4.34 13.37h14.04l-11.36 8.26 4.34 13.38-11.36-8.27-11.36 8.27 4.34-13.38-11.36-8.26h14.04z" fill="#e1e1e2" filter="url(#f)"/><path d="m53.36 52.51 6.46 19.92h20.91l-16.92 12.3 6.46 19.91-16.91-12.3-16.92 12.3 6.46-19.91-16.91-12.3h20.91z" fill="#e1e1e2" filter="url(#g)"/><path d="m115.53 46.07 6 18.49h19.42l-15.71 11.42 6 18.49-15.71-11.42-15.7 11.42 6-18.49-15.71-11.42h19.41z" fill="#e1e1e2" filter="url(#h)"/></svg>