<svg id="bdf93a43-4796-4176-a567-122c6ce289fc" data-name="Layer 1" xmlns="http://www.w3.org/2000/svg" xmlns:xlink="http://www.w3.org/1999/xlink" viewBox="0 0 800 466.61"><defs><style>.fa2d2bc4-7a8a-4e80-85c9-a78fe34f1d04{fill:#fff;}.f51b3da7-9a7d-47e0-948d-635f13c2059c{fill:url(#efdc1f69-c32e-42fa-b7a2-094d1447e6ae);}</style><linearGradient id="efdc1f69-c32e-42fa-b7a2-094d1447e6ae" x1="-98.83" y1="735.1" x2="-98.33" y2="735.6" gradientTransform="matrix(580.13, 0, 0, -656, 57901.33, 482553.71)" gradientUnits="userSpaceOnUse"><stop offset="0" stop-color="#09e"/><stop offset="0.5" stop-color="#8d33ff"/><stop offset="1" stop-color="#ff1f40"/></linearGradient></defs><path class="fa2d2bc4-7a8a-4e80-85c9-a78fe34f1d04" d="M188.51,398.3Q177.08,414.64,165,422.8A111.67,111.67,0,0,1,141,435.28a66.53,66.53,0,0,1-23,4.32,45.28,45.28,0,0,1-9.33-.93,37.52,37.52,0,0,1-8.4-2.8q-5.83-2.56-7.12-7.47t-1.28-14.46l.23-147.21a60.39,60.39,0,0,1,1-12.36,18.17,18.17,0,0,1,4.32-8.52,24.09,24.09,0,0,1,6.65-5.37A25.55,25.55,0,0,1,112,238v-9.1H2.1V238a13.47,13.47,0,0,1,7.23,1.87,25.09,25.09,0,0,1,6.07,5.59,12.84,12.84,0,0,1,2.68,4.9,25.63,25.63,0,0,1,.58,6.06,35.88,35.88,0,0,0-.23,4.08V429.14a53.8,53.8,0,0,1-.93,11.19A16.34,16.34,0,0,1,13.3,448,17.61,17.61,0,0,1,0,453.38v9.1H163.08a53.69,53.69,0,0,1,6.65.34,27.44,27.44,0,0,1,5.83,1.46,25,25,0,0,1,6.88,4l29.86-97.75-7-3A155.68,155.68,0,0,1,188.51,398.3Z" transform="translate(0 -1.71)"/><path class="fa2d2bc4-7a8a-4e80-85c9-a78fe34f1d04" d="M331.7,182q0,12.24,7.73,20,6.12,6,18.67,10.46A38.14,38.14,0,0,0,370,214a88.35,88.35,0,0,0,22.62-3.14q11.83-3.13,15.37-6.2l12.23-34.29-5-2.25-3.86,8.37a24.22,24.22,0,0,1-8.13,9.42q-5.55,3.94-10.7,3.94a9.84,9.84,0,0,1-5-1.29,24.39,24.39,0,0,1-7.73-6.28,13.49,13.49,0,0,1-2.74-8.53V105.66h17.06l5,.48,3.86,1.13,7.24-18.83a44.78,44.78,0,0,1-7.73,1.61,46.88,46.88,0,0,1-7.73.64H376.43V40.75a129.3,129.3,0,0,1-22.86,11.12A141.08,141.08,0,0,1,331.68,58a30.14,30.14,0,0,1,2.58,12.08,31.81,31.81,0,0,1-6,19.17A30.36,30.36,0,0,1,321.7,96a48,48,0,0,1-7.24,4v5.64h17.22V182Z" transform="translate(0 -1.71)"/><path class="fa2d2bc4-7a8a-4e80-85c9-a78fe34f1d04" d="M12.47,59.38a13,13,0,0,1,2.41,5.23,47.12,47.12,0,0,1,.48,7.89v2.25L15.68,180a42.53,42.53,0,0,1-1.61,11.19c-1.07,3.92-2.15,6.36-3.22,7.33a25.06,25.06,0,0,1-4.27,3.14,21.87,21.87,0,0,1-4.43,1.21V209H79.1v-6.28a13.92,13.92,0,0,1-10.95-5,12.92,12.92,0,0,1-2.82-5.3,34.36,34.36,0,0,1-.56-7.07V107.6h47.81v78.1a29.16,29.16,0,0,1-.72,6.83,13.59,13.59,0,0,1-2.66,5.38,13.34,13.34,0,0,1-10.79,4.82V209h78.07v-6.28q-6.12,0-9.66-3.54a12.74,12.74,0,0,1-2.66-5.87,39.23,39.23,0,0,1-.89-8.6L163,75.37a50.76,50.76,0,0,1,.72-9.17,17.89,17.89,0,0,1,3-7.08,10.2,10.2,0,0,1,5.79-4.18c1.39-.21,2.84-.48,4.35-.8V47.87H99.24v6.28c1.93.32,3.38.59,4.35.8,2.68.75,4.51,1.77,5.47,3.06a18.8,18.8,0,0,1,3,6.28q.88,3.38.88,12.07V91.17H64.79V75.88q0-11.1,5-17.71A9.21,9.21,0,0,1,74.61,55a18.86,18.86,0,0,1,5-.89V47.86H2v6.28a22.91,22.91,0,0,1,6.12,1.53A10.81,10.81,0,0,1,12.47,59.38Z" transform="translate(0 -1.71)"/><path class="f51b3da7-9a7d-47e0-948d-635f13c2059c" d="M675.8,227.82a29.57,29.57,0,0,1-1.52,9.69,24.62,24.62,0,0,1-4.81,8.18q-7.59,8.56-17.71,8.56v9.86H770.14v-8.6a18.55,18.55,0,0,1-9.61-2.54,32,32,0,0,1-4.81-3.56,20.84,20.84,0,0,1-6.2-9.15,38.8,38.8,0,0,1-1.64-11.94V188.65h21.25a38.41,38.41,0,0,1,5.31.39,7.63,7.63,0,0,1,4.55,2.2,6,6,0,0,1,1.9,3.76c.08,1.3.13,2.46.13,3.49l4.81.78L800,146.42l-5.31-1.52a32.8,32.8,0,0,1-12.39,10.37c-1.18.68-2.32,1.31-3.42,1.9s-4.77.89-11,.89H747.14V1.71H706.05s-7.22,15.78-56.61,82.39C605.38,143.5,568,169.57,568,169.57v19.1H675.8Zm-57.62-69.76s17.73-13.2,56.1-63.61v63.61Z" transform="translate(0 -1.71)"/><path class="fa2d2bc4-7a8a-4e80-85c9-a78fe34f1d04" d="M261.12,192.11c-.22,1.18.11,3.09,1,5.71a20.82,20.82,0,0,0,2.74,5.88,12.8,12.8,0,0,0,4.35,4.27,12.64,12.64,0,0,0,5.63,1.05h44.75V202.9a30.82,30.82,0,0,1-6.28-2.25,11.73,11.73,0,0,1-3.94-3.78,14.83,14.83,0,0,1-2.41-5,23.67,23.67,0,0,1-.56-5.55c0-.86,0-1.77.08-2.74s.08-2,.08-3.06V123.06a41.11,41.11,0,0,0-3.62-17.47,27.85,27.85,0,0,0-10.06-12,56.42,56.42,0,0,0-15.53-6.76,68.57,68.57,0,0,0-16.82-1.93,108.7,108.7,0,0,0-13,.88q-7.17.88-13.44,2-3.06.48-12.23,2.9-13,3.38-17.39,3.38a7.92,7.92,0,0,1-3.94-.8c-.91-.54-1.75-1-2.49-1.53s-1.61-1.1-2.58-1.85l-5.15,42.82,4.67.8a50.81,50.81,0,0,1,5-8.85,47.52,47.52,0,0,1,6.92-7.4q14.16-13,31.23-13h2.25c1,0,2.87.14,5.71.4s5.88,1.91,9.1,4.91A15,15,0,0,1,260,121l.16,8.05-9.82,1.45q-31.71,4.83-51.27,18.19t-19.56,31.39a37.31,37.31,0,0,0,.81,7.49,32.7,32.7,0,0,0,2.58,7.65q3.71,8.2,13.36,12.72A50.85,50.85,0,0,0,218,212.42a61.52,61.52,0,0,0,25.19-5.31Q255.14,201.76,261.12,192.11Zm-32.52-8.86a16.44,16.44,0,0,1-3.54-10.46,17.39,17.39,0,0,1,.48-4.19q3.71-13.68,19-21.25,12.72-6.28,16.1-4.35v10.46a47.93,47.93,0,0,1-4.75,21q-4.75,9.9-12,12.31a20.14,20.14,0,0,1-5.63,1A11.58,11.58,0,0,1,228.6,183.25Z" transform="translate(0 -1.71)"/><path class="fa2d2bc4-7a8a-4e80-85c9-a78fe34f1d04" d="M388,300.55q-23.81-18.9-66.26-18.9-42.93,0-72.67,25.9t-29.75,65.32q0,37.1,27.3,63.46,25.89,25.2,64.86,29.86a107.07,107.07,0,0,0,12.37.7,236.13,236.13,0,0,0,26.36-2.1q32.43-4,33.36-4a8.93,8.93,0,0,1,4,1.05c1.4.7,3.5,1.9,6.3,3.62L416,397.83l-7-4Q401.5,414.4,380.74,427q-17.5,10.74-33.83,10.73-22.86,0-37.91-17.84T294,378l126.92-24.73Q409.2,317.36,388,300.55ZM351.71,345l-57.84,12.46c-.18-.15-.27-1.17-.27-3a61.93,61.93,0,0,1,4.9-24.13q7.23-17.34,21.46-20.61a22.85,22.85,0,0,1,5.6-.7q11.43,0,18.9,9.94a36.26,36.26,0,0,1,7.47,22.34A26,26,0,0,1,351.71,345Z" transform="translate(0 -1.71)"/><path class="fa2d2bc4-7a8a-4e80-85c9-a78fe34f1d04" d="M593.16,361.05Q582,350.58,560,344.77l-41.29-10.7a89.65,89.65,0,0,1-14-4.42c-4.82-2.33-7.23-5.11-7.23-8.37a12.18,12.18,0,0,1,.47-2.56q2.32-7.91,8.63-10.35t16.57-2.44h15.4q12.12.93,23.8,10,13.77,10.5,17.26,19.36l6.07-.93-2.33-51.33q-1.64.7-4.55,2.1a26.68,26.68,0,0,1-5.37,2,19.63,19.63,0,0,1-4.55.58q-1.17,0-34.53-4.43a190.54,190.54,0,0,0-24.73-1.87q-32.89,0-55.29,14.7-25.42,16.8-25.43,47.36A39.34,39.34,0,0,0,439.66,371q10.72,11.67,27.76,15.63l48.76,11.9a70.21,70.21,0,0,1,15.4,5.37q7.7,4.2,7.7,10a12.77,12.77,0,0,1-.23,2.8,30.62,30.62,0,0,1-14.93,19.6q-10.5,6.07-25.43,6.07A74.63,74.63,0,0,1,473.14,438,59.79,59.79,0,0,1,452,425.15a54.94,54.94,0,0,1-17.73-31.5l-6.53,1.63,4.43,69.06a63.29,63.29,0,0,1,5.36-3.5,17.55,17.55,0,0,1,9.1-3q18.19,3.27,36.28,6.18a199.28,199.28,0,0,0,30.91,2.92q38.26,0,64.62-18.61,28.46-20,28.46-52.81Q606.93,374.07,593.16,361.05Z" transform="translate(0 -1.71)"/><path class="fa2d2bc4-7a8a-4e80-85c9-a78fe34f1d04" d="M781.88,361.05q-11.21-10.47-33.13-16.28l-41.29-10.7a89.65,89.65,0,0,1-14-4.42c-4.82-2.33-7.23-5.11-7.23-8.37a12.18,12.18,0,0,1,.47-2.56q2.32-7.91,8.63-10.35t16.56-2.44h15.4q12.13.93,23.8,10,13.77,10.5,17.26,19.36l6.07-.93-2.33-51.33q-1.64.7-4.55,2.1a26.68,26.68,0,0,1-5.37,2,19.63,19.63,0,0,1-4.55.58q-1.17,0-34.53-4.43a190.54,190.54,0,0,0-24.73-1.87q-32.9,0-55.29,14.7-25.43,16.8-25.43,47.36A39.34,39.34,0,0,0,628.37,371q10.73,11.67,27.76,15.63l48.76,11.9a70.21,70.21,0,0,1,15.4,5.37q7.69,4.2,7.7,10a12.77,12.77,0,0,1-.23,2.8,30.62,30.62,0,0,1-14.93,19.6q-10.5,6.07-25.43,6.07A74.63,74.63,0,0,1,661.85,438a59.79,59.79,0,0,1-21.11-12.83A54.94,54.94,0,0,1,623,393.65l-6.53,1.63,4.43,69.06a63.29,63.29,0,0,1,5.36-3.5,17.55,17.55,0,0,1,9.1-3q18.2,3.27,36.28,6.18a199.28,199.28,0,0,0,30.91,2.92q38.27,0,64.62-18.61,28.46-20,28.46-52.81Q795.64,374.07,781.88,361.05Z" transform="translate(0 -1.71)"/><path class="fa2d2bc4-7a8a-4e80-85c9-a78fe34f1d04" d="M494,191q-7.25,4.19-17.55,4.19a51.41,51.41,0,0,1-17.63-3.06,41.47,41.47,0,0,1-14.57-8.85A37.93,37.93,0,0,1,432,161.53l-4.51,1.13,3.06,47.65a42.73,42.73,0,0,1,3.7-2.41,12.14,12.14,0,0,1,6.28-2.09q12.56,2.25,25,4.27a137.33,137.33,0,0,0,21.33,2q26.4,0,44.59-12.84,19.63-13.8,19.64-36.44,0-14.77-9.5-23.76-7.73-7.22-22.86-11.24l-28.49-7.38a62,62,0,0,1-9.66-3.05q-5-2.4-5-5.78a9.23,9.23,0,0,1,.32-1.77q1.6-5.46,6-7.14A32.28,32.28,0,0,1,493.33,101H504q8.37.65,16.42,6.92,9.5,7.24,11.91,13.36l4.19-.64-1.61-35.42c-.75.32-1.8.8-3.14,1.45A19.15,19.15,0,0,1,528,88a13.51,13.51,0,0,1-3.14.4q-.81,0-23.82-3.06A130.71,130.71,0,0,0,484,84.09q-22.69,0-38.15,10.14-17.55,11.59-17.55,32.68a27.17,27.17,0,0,0,7.4,19,36.54,36.54,0,0,0,19.16,10.79l33.64,8.21a48.23,48.23,0,0,1,10.62,3.7q5.31,2.89,5.31,6.92a8.41,8.41,0,0,1-.16,1.93A21,21,0,0,1,494,191Z" transform="translate(0 -1.71)"/></svg>