<svg id="f7be5076-2fcc-4246-8138-ae2fa4a39791" data-name="Layer 1" xmlns="http://www.w3.org/2000/svg" xmlns:xlink="http://www.w3.org/1999/xlink" viewBox="0 0 1362.21 262.4"><defs><style>.bdb01232-79ac-4c35-844e-1ad3526af192{fill:#fff;}.bebe6762-51ef-420a-98be-121129e9a7ad{fill:url(#eb4b4641-f43f-48d8-a0bb-97a357076ab2);}</style><linearGradient id="eb4b4641-f43f-48d8-a0bb-97a357076ab2" x1="-100.84" y1="733.39" x2="-100.34" y2="733.89" gradientTransform="matrix(580.13, 0, 0, -656, 59065.37, 481430.24)" gradientUnits="userSpaceOnUse"><stop offset="0" stop-color="#09e"/><stop offset="0.5" stop-color="#8d33ff"/><stop offset="1" stop-color="#ff1f40"/></linearGradient></defs><path class="bdb01232-79ac-4c35-844e-1ad3526af192" d="M941.92,163.35q-7.9,11.31-16.31,17A76.53,76.53,0,0,1,909.06,189a45.88,45.88,0,0,1-15.91,3,31.22,31.22,0,0,1-6.45-.64,25.85,25.85,0,0,1-5.82-1.94c-2.69-1.18-4.33-2.91-4.93-5.17a42.47,42.47,0,0,1-.88-10l.16-101.9a42.24,42.24,0,0,1,.72-8.56,12.66,12.66,0,0,1,3-5.9,16.61,16.61,0,0,1,4.61-3.72A17.44,17.44,0,0,1,889,52.41v-6.3H812.88v6.3a9.38,9.38,0,0,1,5,1.29,17.6,17.6,0,0,1,4.2,3.87A8.89,8.89,0,0,1,823.94,61a17.79,17.79,0,0,1,.41,4.2,22.86,22.86,0,0,0-.16,2.82V184.7a37.15,37.15,0,0,1-.65,7.75,11.28,11.28,0,0,1-2.91,5.32,12.17,12.17,0,0,1-9.2,3.71v6.3H924.32a36.83,36.83,0,0,1,4.6.24,18.92,18.92,0,0,1,4,1,17.29,17.29,0,0,1,4.76,2.8l20.67-67.67-4.84-2.1A107.86,107.86,0,0,1,941.92,163.35Z"/><path class="bdb01232-79ac-4c35-844e-1ad3526af192" d="M329.69,180.26q0,12.24,7.73,20,6.12,6,18.67,10.46A38.14,38.14,0,0,0,368,212.29a88.35,88.35,0,0,0,22.62-3.14Q402.46,206,406,203l12.23-34.29-5-2.25-3.86,8.37a24.22,24.22,0,0,1-8.13,9.42q-5.55,3.95-10.7,3.94a9.84,9.84,0,0,1-5-1.29,24.39,24.39,0,0,1-7.73-6.28,13.49,13.49,0,0,1-2.74-8.53V104h17.06l5,.48,3.86,1.13,7.24-18.83a44.78,44.78,0,0,1-7.73,1.61,46.88,46.88,0,0,1-7.73.64H374.42V39a129.3,129.3,0,0,1-22.86,11.12,141.08,141.08,0,0,1-21.89,6.12,30.14,30.14,0,0,1,2.58,12.08,31.81,31.81,0,0,1-6,19.17,30.36,30.36,0,0,1-6.6,6.77,48,48,0,0,1-7.24,4V104h17.22v76.29Z"/><path class="bdb01232-79ac-4c35-844e-1ad3526af192" d="M10.46,57.67a13,13,0,0,1,2.41,5.23,47.12,47.12,0,0,1,.48,7.89V73l.32,105.28a42.53,42.53,0,0,1-1.61,11.19c-1.07,3.92-2.15,6.36-3.22,7.33A25.06,25.06,0,0,1,4.57,200a21.87,21.87,0,0,1-4.43,1.21v6.12h77V201a13.92,13.92,0,0,1-11-5,12.92,12.92,0,0,1-2.82-5.3,34.36,34.36,0,0,1-.56-7.07V105.89h47.81V184a29.16,29.16,0,0,1-.72,6.83,13.59,13.59,0,0,1-2.66,5.38A13.34,13.34,0,0,1,96.4,201v6.28h78.07V201q-6.12,0-9.66-3.54a12.74,12.74,0,0,1-2.66-5.87,39.23,39.23,0,0,1-.89-8.6l-.32-109.35a50.76,50.76,0,0,1,.72-9.17,17.89,17.89,0,0,1,3-7.08,10.2,10.2,0,0,1,5.79-4.18c1.39-.21,2.84-.48,4.35-.8V46.16H97.23v6.28c1.93.32,3.38.59,4.35.8,2.68.75,4.51,1.77,5.47,3.06a18.8,18.8,0,0,1,3,6.28q.89,3.38.88,12.07V89.46H62.78V74.17q0-11.1,5-17.71a9.21,9.21,0,0,1,4.83-3.14,18.86,18.86,0,0,1,5-.89V46.15H0v6.28A22.91,22.91,0,0,1,6.12,54,10.81,10.81,0,0,1,10.46,57.67Z"/><path class="bebe6762-51ef-420a-98be-121129e9a7ad" d="M673.79,226.11a29.57,29.57,0,0,1-1.52,9.69,24.62,24.62,0,0,1-4.81,8.18q-7.59,8.57-17.71,8.56v9.86H768.13v-8.6a18.55,18.55,0,0,1-9.61-2.54,32,32,0,0,1-4.81-3.56,20.84,20.84,0,0,1-6.2-9.15,38.8,38.8,0,0,1-1.64-11.94V186.94h21.25a38.41,38.41,0,0,1,5.31.39,7.63,7.63,0,0,1,4.55,2.2,6,6,0,0,1,1.9,3.76c.08,1.3.13,2.46.13,3.49l4.81.78L798,144.71l-5.31-1.52a32.8,32.8,0,0,1-12.39,10.37c-1.18.68-2.32,1.31-3.42,1.9s-4.77.89-11,.89H745.13V0H704s-7.22,15.78-56.61,82.39c-44.06,59.4-81.49,85.47-81.49,85.47V187H673.79Zm-57.62-69.76s17.73-13.2,56.1-63.61v63.61Z"/><path class="bdb01232-79ac-4c35-844e-1ad3526af192" d="M259.11,190.4c-.22,1.18.11,3.09,1,5.71a20.82,20.82,0,0,0,2.74,5.88,12.8,12.8,0,0,0,4.35,4.27,12.64,12.64,0,0,0,5.63,1.05h44.75v-6.12a30.82,30.82,0,0,1-6.28-2.25,11.73,11.73,0,0,1-3.94-3.78,14.83,14.83,0,0,1-2.41-5,23.67,23.67,0,0,1-.56-5.55c0-.86,0-1.77.08-2.74s.08-2,.08-3.06V121.35a41.11,41.11,0,0,0-3.62-17.47,27.85,27.85,0,0,0-10.06-12,56.42,56.42,0,0,0-15.53-6.76,68.57,68.57,0,0,0-16.82-1.93,108.7,108.7,0,0,0-13,.88q-7.17.89-13.44,2-3.06.48-12.23,2.9-13,3.38-17.39,3.38a7.92,7.92,0,0,1-3.94-.8c-.91-.54-1.75-1-2.49-1.53s-1.61-1.1-2.58-1.85L188.31,131l4.67.8a50.81,50.81,0,0,1,5-8.85,47.52,47.52,0,0,1,6.92-7.4q14.16-13,31.23-13h2.25c1,0,2.87.14,5.71.4s5.88,1.91,9.1,4.91A15,15,0,0,1,258,119.26l.16,8-9.82,1.45q-31.71,4.83-51.27,18.19t-19.56,31.39a37.31,37.31,0,0,0,.81,7.49,32.7,32.7,0,0,0,2.58,7.65q3.71,8.21,13.36,12.72A50.85,50.85,0,0,0,216,210.71a61.52,61.52,0,0,0,25.19-5.31Q253.13,200,259.11,190.4Zm-32.52-8.86a16.44,16.44,0,0,1-3.54-10.46,17.39,17.39,0,0,1,.48-4.19q3.71-13.68,19-21.25,12.72-6.28,16.1-4.35v10.46a47.93,47.93,0,0,1-4.75,21q-4.75,9.9-12,12.31a20.14,20.14,0,0,1-5.63,1A11.58,11.58,0,0,1,226.59,181.54Z"/><path class="bdb01232-79ac-4c35-844e-1ad3526af192" d="M1080,95.69q-16.49-13.08-45.87-13.09-29.72,0-50.31,17.93t-20.59,45.22q0,25.68,18.9,43.93,17.93,17.44,44.9,20.67a72.92,72.92,0,0,0,8.56.49,163.69,163.69,0,0,0,18.25-1.46q22.44-2.74,23.09-2.75a6.25,6.25,0,0,1,2.75.73c1,.49,2.42,1.32,4.36,2.51L1099.38,163l-4.84-2.75q-5.18,14.22-19.55,22.94-12.12,7.42-23.42,7.42-15.83,0-26.24-12.35a43.59,43.59,0,0,1-10.42-29l87.86-17.12Q1094.7,107.32,1080,95.69Zm-25.1,30.75-40,8.63a5.23,5.23,0,0,1-.19-2.1,43,43,0,0,1,3.39-16.71q5-12,14.86-14.27a16,16,0,0,1,3.88-.48q7.9,0,13.08,6.88a25.09,25.09,0,0,1,5.17,15.47A18.41,18.41,0,0,1,1054.9,126.44Z"/><path class="bdb01232-79ac-4c35-844e-1ad3526af192" d="M1222,137.57q-7.76-7.24-22.93-11.27l-28.59-7.41a62,62,0,0,1-9.69-3.06c-3.34-1.61-5-3.54-5-5.79a8.27,8.27,0,0,1,.32-1.77q1.61-5.47,6-7.17a32.18,32.18,0,0,1,11.47-1.69h10.66q8.38.65,16.47,7,9.54,7.26,12,13.4l4.2-.65-1.61-35.53c-.76.33-1.81.81-3.15,1.45a17.84,17.84,0,0,1-3.72,1.37,13.63,13.63,0,0,1-3.15.41q-.81,0-23.9-3.07a131.56,131.56,0,0,0-17.12-1.29q-22.77,0-38.27,10.17-17.61,11.63-17.61,32.79a27.21,27.21,0,0,0,7.43,19.05A36.56,36.56,0,0,0,1135,155.28l33.75,8.24a48.39,48.39,0,0,1,10.66,3.72q5.33,2.91,5.33,6.94a8.46,8.46,0,0,1-.16,1.94,21.17,21.17,0,0,1-10.33,13.57q-7.27,4.2-17.61,4.2a51.42,51.42,0,0,1-17.68-3.07,41.28,41.28,0,0,1-14.62-8.88,38,38,0,0,1-12.27-21.8l-4.52,1.12,3.07,47.81a43,43,0,0,1,3.71-2.42,12.13,12.13,0,0,1,6.3-2.1q12.58,2.26,25.11,4.28a138.29,138.29,0,0,0,21.4,2q26.49,0,44.73-12.88,19.7-13.84,19.7-36.56Q1231.57,146.58,1222,137.57Z"/><path class="bdb01232-79ac-4c35-844e-1ad3526af192" d="M1352.68,137.57q-7.76-7.24-22.93-11.27l-28.59-7.41a62,62,0,0,1-9.69-3.06q-5-2.42-5-5.79a8.27,8.27,0,0,1,.32-1.77q1.62-5.47,6-7.17a32.16,32.16,0,0,1,11.46-1.69h10.66q8.4.65,16.48,7,9.53,7.26,11.94,13.4l4.21-.65-1.62-35.53c-.75.33-1.8.81-3.15,1.45A18,18,0,0,1,1339,86.4a13.63,13.63,0,0,1-3.15.41q-.81,0-23.91-3.07a131.56,131.56,0,0,0-17.12-1.29q-22.77,0-38.27,10.17-17.6,11.63-17.6,32.79a27.2,27.2,0,0,0,7.42,19.05,36.56,36.56,0,0,0,19.22,10.82l33.75,8.24a48.39,48.39,0,0,1,10.66,3.72q5.34,2.91,5.33,6.94a9.21,9.21,0,0,1-.15,1.94,21.19,21.19,0,0,1-10.34,13.57q-7.28,4.2-17.6,4.2a51.52,51.52,0,0,1-17.69-3.07,41.24,41.24,0,0,1-14.61-8.88,38.62,38.62,0,0,1-8.16-10.17,39.29,39.29,0,0,1-4.12-11.63l-4.52,1.12,3.07,47.81a43,43,0,0,1,3.71-2.42,12.13,12.13,0,0,1,6.3-2.1q12.6,2.26,25.11,4.28a138.4,138.4,0,0,0,21.4,2q26.49,0,44.73-12.88,19.71-13.84,19.71-36.56Q1362.21,146.58,1352.68,137.57Z"/><path class="bdb01232-79ac-4c35-844e-1ad3526af192" d="M492,189.27q-7.25,4.18-17.55,4.19a51.41,51.41,0,0,1-17.63-3.06,41.47,41.47,0,0,1-14.57-8.85A37.93,37.93,0,0,1,430,159.82L425.48,161l3.06,47.65a42.73,42.73,0,0,1,3.7-2.41,12.14,12.14,0,0,1,6.28-2.09q12.56,2.25,25,4.27a137.33,137.33,0,0,0,21.33,2q26.4,0,44.59-12.84,19.63-13.8,19.64-36.44,0-14.78-9.5-23.76-7.73-7.22-22.86-11.24l-28.49-7.38a62,62,0,0,1-9.66-3q-5-2.4-5-5.78a9.23,9.23,0,0,1,.32-1.77q1.6-5.46,6-7.14a32.28,32.28,0,0,1,11.43-1.69h10.62q8.37.64,16.42,6.92,9.5,7.25,11.91,13.36l4.19-.64-1.61-35.42c-.75.32-1.8.8-3.14,1.45a19.15,19.15,0,0,1-3.7,1.37,13.51,13.51,0,0,1-3.14.4q-.81,0-23.82-3.06A130.71,130.71,0,0,0,482,82.38q-22.69,0-38.15,10.14-17.55,11.6-17.55,32.68a27.17,27.17,0,0,0,7.4,19A36.54,36.54,0,0,0,452.85,155l33.64,8.21a48.23,48.23,0,0,1,10.62,3.7q5.31,2.9,5.31,6.92a8.41,8.41,0,0,1-.16,1.93A21,21,0,0,1,492,189.27Z"/></svg>