<svg id="ac272093-3c2f-40ea-9da4-3c62ed0fab9c" data-name="Layer 1" xmlns="http://www.w3.org/2000/svg" viewBox="0 0 1280 218.6"><defs><style>.b8eee036-4db3-48c5-a89d-59eecf5d0a70{fill:#e80039;}.a90268f1-5ea1-4f29-838d-773d14d1e0ec{fill:#fff;}</style></defs><circle class="b8eee036-4db3-48c5-a89d-59eecf5d0a70" cx="109.3" cy="109.3" r="109.3"/><path class="a90268f1-5ea1-4f29-838d-773d14d1e0ec" d="M154.3,28.7c9.4.6,17.1,6.9,22.9,13.8,9.5,11.9,13.8,26.3,15.2,41.3.5,11.9.5,23.6-1.9,35.3a173.78,173.78,0,0,1-10.4,37.3c-5.1,11.8-11,22.4-21.4,30.3-4.6,3.3-10.8,4.9-16.3,3.4-7.7-1.6-13.9-7.9-18.4-14-10.7-15.3-15.7-35.5-18.6-53.7a71.72,71.72,0,0,1-1.5-16c.3-9.3-10.9,11.5-16.9,28.3-10.2,28.5-13.2,47.8-14.8,54.1-1.1,4.3-5.2,6.6-9.4,7.2a10.09,10.09,0,0,1-9.4-10.5c1.3-16.7,3.1-33.9,2.9-50.8.2-15-.2-29.8-2.9-44.6-.6-3-1.4-6.4-3.2-9a5,5,0,0,0-4.8,1.5C40.3,87.3,36.3,93.7,33,99.8c-1.8,3.2-4.2,6.4-8.1,7.1-5.2,1.1-10.8-3.6-11-8.8-.3-3.2,1.6-6.5,3.1-9.2C22.1,80.1,28.4,71,37.1,65.2c4.6-3,10.2-4.9,15.7-4,6.4,1,11.5,5.6,14.3,11.3,6.8,13.6,8.9,41,8.9,41s15-30.6,29-41.3c4.3-3.3,10.8-3.5,14.2.8,2.6,3,2.1,7,2.2,10.7.6,23.1,3.1,45.8,11,67.6,2.3,5.9,5.2,12.2,9.5,16.9,1.6,1.6,3.5,3.3,5.9,2.7s3.9-3,5.3-4.9c6.8-10.1,11.5-21.8,14.7-33.5,2.8-10.4,5-20.6,5.3-31.5.2-8.2.5-16.9-1.2-25a58.49,58.49,0,0,0-8-19.3,25.39,25.39,0,0,0-7.5-7.8,5.3,5.3,0,0,0-6.6.8c-2.8,2.3-5.3,6.6-8.9,7.5-3.7,1.3-8.1-.8-10.3-3.7-2.2-3.1-2.1-8.6.3-11.6,5.7-7.4,13.5-13.2,23.4-13.2Z"/><path class="a90268f1-5ea1-4f29-838d-773d14d1e0ec" d="M245.5,26.9h29.3V37.4H266l9.7,42.8a57.88,57.88,0,0,1,.8,6.6h.4a39.56,39.56,0,0,1,1.2-6.6l14.1-53.3h11.1l14.1,53.3a56.34,56.34,0,0,1,1.2,6.6h.4a57.88,57.88,0,0,1,.8-6.6l9.7-42.8h-8.8V26.9H350V37.4h-6.9l-16,64.6H311.6L299,54.7a56.25,56.25,0,0,1-1.2-6.9h-.3a40.64,40.64,0,0,1-1.2,6.9L283.9,102H268.4l-16-64.6h-6.9Z"/><path class="a90268f1-5ea1-4f29-838d-773d14d1e0ec" d="M356.8,91.6h9V37.4h-9V26.9h31.9V37.4h-9.1V59h34.1V37.4h-9.1V26.9h31.9V37.4h-9V91.6h9V102H404.6V91.6h9.1V70.1H379.6V91.6h9.1V102H356.8Z"/><path class="a90268f1-5ea1-4f29-838d-773d14d1e0ec" d="M484.6,25.7c22.2,0,38.9,16.8,38.9,38.3,0,22.1-16.7,39.3-38.9,39.3S445.7,86,445.7,63.9C445.7,42.5,462.4,25.7,484.6,25.7Zm0,65.4c13.5,0,24.6-11.7,24.6-27.2,0-14.8-11.1-26.1-24.6-26.1S460,49.1,460,63.9C459.9,79.3,471,91.1,484.6,91.1Z"/><path class="a90268f1-5ea1-4f29-838d-773d14d1e0ec" d="M532.6,91.6h9V38h-9V26.9h31.9V38h-9.1V90.8h22.2V79.2h11.8V102H532.5V91.6Z"/><path class="a90268f1-5ea1-4f29-838d-773d14d1e0ec" d="M597.4,91.6h9V37.4h-9V26.9h55.7V46.2H641.3V38h-21V58.6H645V69.7H620.3V90.8h22.6V82.3h11.8V102H597.4Z"/><path class="a90268f1-5ea1-4f29-838d-773d14d1e0ec" d="M677.4,77.8v5.6c0,4.9,6.1,7.7,13.2,7.7,7.6,0,13-3.3,13-9.3,0-7.6-8.6-10-17.2-13.4-10-3.8-19.9-8.3-19.9-21.8,0-15.1,12.3-20.9,25.2-20.9,11.8,0,23.8,4.5,23.8,13.2v9.8H702.9V43.6c0-3.8-5.6-5.8-11.2-5.8-6.1,0-11.2,2.5-11.2,8.2,0,6.9,7,9.3,14.8,12.3,11.2,4,22.4,8.5,22.4,22.5,0,15.3-12.9,22.4-27.1,22.4-12.5,0-25.8-5.6-25.8-16.9V77.7h12.6Z"/><path class="a90268f1-5ea1-4f29-838d-773d14d1e0ec" d="M723.9,91.6h6.9l22.5-64.7H769l22.5,64.7h6.9V102H770.2V91.6h7.4L773,77.5H749.3l-4.6,14.1h7.4V102H724V91.6Zm45.9-24.8-7.1-21.2a30.56,30.56,0,0,1-1.4-6.6H761a40.3,40.3,0,0,1-1.4,6.6l-7.2,21.2Z"/><path class="a90268f1-5ea1-4f29-838d-773d14d1e0ec" d="M805.1,91.6h9V38h-9V26.9H837V38h-9.1V90.8h22.2V79.2h11.8V102H805V91.6Z"/><path class="a90268f1-5ea1-4f29-838d-773d14d1e0ec" d="M869.9,91.6h9V37.4h-9V26.9h55.7V46.2H913.8V38h-21V58.6h24.7V69.7H892.8V90.8h22.6V82.3h11.8V102H869.9Z"/><path class="a90268f1-5ea1-4f29-838d-773d14d1e0ec" d="M287.3,115.4c9.1,0,29.3,3.2,29.3,15v10.1H304v-5.8c0-5.6-9.9-7.5-16.1-7.5-14.5,0-25,10.1-25,26,0,16.9,11,27.9,25.8,27.9,4.5,0,16.3-1.5,16.3-7.4v-5.8h12.6v10.3c0,11.2-19.3,14.8-29.7,14.8-22.7,0-39.2-17.2-39.2-39.1-.1-22.3,16.8-38.5,38.6-38.5Z"/><path class="a90268f1-5ea1-4f29-838d-773d14d1e0ec" d="M328.1,181.3h9V127.1h-9V116.6H360v10.5h-9.1v21.7H385V127.1h-9.1V116.6h31.9v10.5h-9v54.2h9v10.4H375.9V181.3H385V159.8H350.9v21.5H360v10.4H328.1Z"/><path class="a90268f1-5ea1-4f29-838d-773d14d1e0ec" d="M414.4,181.3h6.9l22.5-64.7h15.7L482,181.3h6.9v10.4H460.7V181.3h7.4l-4.6-14.1H439.8l-4.6,14.1h7.4v10.4H414.5V181.3Zm45.9-24.8-7.1-21.2a30.56,30.56,0,0,1-1.4-6.6h-.3a40.3,40.3,0,0,1-1.4,6.6l-7.2,21.2Z"/><path class="a90268f1-5ea1-4f29-838d-773d14d1e0ec" d="M495.6,181.3h9V127.7h-9V116.6h31.9v11.1h-9.1v52.8h22.2V168.9h11.8v22.7H495.5V181.3Z"/><path class="a90268f1-5ea1-4f29-838d-773d14d1e0ec" d="M560.4,181.3h9V127.7h-9V116.6h31.9v11.1h-9.1v52.8h22.2V168.9h11.8v22.7H560.3V181.3Z"/><path class="a90268f1-5ea1-4f29-838d-773d14d1e0ec" d="M625.2,181.3h9V127.1h-9V116.6h55.7V136H669.1v-8.2h-21v20.6h24.7v11.1H648v21.1h22.6v-8.5h11.8v19.6H625.1V181.3Z"/><path class="a90268f1-5ea1-4f29-838d-773d14d1e0ec" d="M692.9,181.3h9V127.1h-9V116.6h22.8l31.6,48.3a32.85,32.85,0,0,1,2.7,6.3h.3a59.89,59.89,0,0,1-.4-7.1V127h-9.3V116.5h32.1V127h-9v64.6H749.9l-31.6-48.1a35.87,35.87,0,0,1-2.7-6.3h-.4a50.07,50.07,0,0,1,.5,7v37.1H725v10.4H692.9Z"/><path class="a90268f1-5ea1-4f29-838d-773d14d1e0ec" d="M820.6,115.4c13.4,0,29.4,5.3,29.4,14.8v10.4H837.4V135c0-5.2-8.1-7.8-16.2-7.8-16,0-25.9,10.1-25.9,26.1s9.9,27.8,26.5,27.8c6,0,17.2-1.6,17.2-7.8v-8H825.4V154.9h26.2v22.6c0,11.4-20.1,15.4-31.2,15.4-23,0-39.5-16.7-39.5-39.1s16.4-38.4,39.7-38.4Z"/><path class="a90268f1-5ea1-4f29-838d-773d14d1e0ec" d="M862.9,181.3h9V127.1h-9V116.6h55.7V136H906.8v-8.2h-21v20.6h24.7v11.1H885.8v21.1h22.6v-8.5h11.8v19.6H862.9Z"/><path class="a90268f1-5ea1-4f29-838d-773d14d1e0ec" d="M968.5,115.4c9.1,0,29.3,3.2,29.3,15v10.1H985.2v-5.8c0-5.6-9.9-7.5-16.1-7.5-14.5,0-25,10.1-25,26,0,16.9,11,27.9,25.8,27.9,4.5,0,16.3-1.5,16.3-7.4v-5.8h12.6v10.3c0,11.2-19.3,14.8-29.7,14.8-22.7,0-39.2-17.2-39.2-39.1-.1-22.3,16.8-38.5,38.6-38.5Z"/><path class="a90268f1-5ea1-4f29-838d-773d14d1e0ec" d="M1047.3,115.4c22.2,0,38.9,16.8,38.9,38.3,0,22.1-16.7,39.3-38.9,39.3s-38.9-17.2-38.9-39.3C1008.4,132.2,1025.1,115.4,1047.3,115.4Zm0,65.4c13.5,0,24.6-11.7,24.6-27.2,0-14.8-11.1-26.1-24.6-26.1s-24.6,11.3-24.6,26.1C1022.7,169,1033.8,180.8,1047.3,180.8Z"/><path class="a90268f1-5ea1-4f29-838d-773d14d1e0ec" d="M1095.3,181.3h9V127.1h-9V116.6h31.9v10.5h-9.1v54.2h9.1v10.4h-31.9Z"/><path class="a90268f1-5ea1-4f29-838d-773d14d1e0ec" d="M1137.9,181.3h9V127.1h-9V116.6h22.8l31.6,48.3a32.85,32.85,0,0,1,2.7,6.3h.3a59.89,59.89,0,0,1-.4-7.1V127h-9.3V116.5h32.1V127h-9v64.6h-13.8l-31.6-48.1a35.87,35.87,0,0,1-2.7-6.3h-.4a50.07,50.07,0,0,1,.5,7v37.1h9.3v10.4h-32.1Z"/><path class="a90268f1-5ea1-4f29-838d-773d14d1e0ec" d="M1239.7,167.5v5.6c0,4.9,6.1,7.7,13.2,7.7,7.6,0,13-3.3,13-9.3,0-7.6-8.6-10-17.2-13.4-10-3.8-19.9-8.4-19.9-21.8,0-15.1,12.3-20.9,25.2-20.9,11.8,0,23.8,4.5,23.8,13.2v9.8h-12.6v-5.1c0-3.8-5.6-5.8-11.2-5.8-6.1,0-11.2,2.5-11.2,8.2,0,6.9,7,9.3,14.8,12.3,11.2,4,22.4,8.5,22.4,22.5,0,15.3-12.9,22.4-27.1,22.4-12.5,0-25.8-5.6-25.8-16.9v-8.6h12.6Z"/></svg>