<svg id="bc8a4ed5-4c68-43aa-8dc0-1b04d5c7a823" data-name="Layer 1" xmlns="http://www.w3.org/2000/svg" viewBox="0 0 946.9 95.1"><defs><style>.b0311da1-fd49-4311-a25d-d2c540b772af{fill:#fff;}.a176e4b3-1e51-424e-8a90-1878943815ff{fill:#fe8300;}</style></defs><path class="b0311da1-fd49-4311-a25d-d2c540b772af" d="M26,104.4,14.8,11.9H32.1l5.5,53.7,7.1-53.7H58.2l7.4,53.4,5.6-53.4H88.3L77.1,104.3H59.4L51.5,48.5l-7.6,55.8H26Z" transform="translate(-14.8 -10.6)"/><path class="b0311da1-fd49-4311-a25d-d2c540b772af" d="M98.7,104.4V11.9h20.5V49.3h14.2V11.9h20.5v92.4H133.4V63.9H119.2v40.5Z" transform="translate(-14.8 -10.6)"/><path class="b0311da1-fd49-4311-a25d-d2c540b772af" d="M194.4,105.7a38.81,38.81,0,0,1-13.1-2,19.56,19.56,0,0,1-8.6-6.1,25.49,25.49,0,0,1-4.6-9.5,53.56,53.56,0,0,1-1.4-12.9V41.1a53.56,53.56,0,0,1,1.4-12.9,25.49,25.49,0,0,1,4.6-9.5,18.63,18.63,0,0,1,8.6-6,38.81,38.81,0,0,1,13.1-2c10,0,17.2,2.6,21.5,7.7s6.5,12.7,6.5,22.7V75.2c0,10-2.2,17.6-6.5,22.8S204.4,105.7,194.4,105.7Zm-3.2-15.1a8.2,8.2,0,0,0,6.4.1,5.84,5.84,0,0,0,2.1-1.6,5.76,5.76,0,0,0,1.1-2.5,10.4,10.4,0,0,0,.5-2.9,32.18,32.18,0,0,0,.1-3.3V35.9a31.12,31.12,0,0,0-.1-3.2c-.1-.9-.3-1.9-.5-2.9a11.7,11.7,0,0,0-1.1-2.5,5.84,5.84,0,0,0-2.1-1.6,8.83,8.83,0,0,0-6.4,0,4.09,4.09,0,0,0-2,1.6,5.27,5.27,0,0,0-1.1,2.5,17.67,17.67,0,0,0-.5,2.9,30.14,30.14,0,0,0-.1,3.2V80.2a32.18,32.18,0,0,0,.1,3.3,17.67,17.67,0,0,0,.5,2.9,6.47,6.47,0,0,0,1.1,2.5A5.65,5.65,0,0,0,191.2,90.6Z" transform="translate(-14.8 -10.6)"/><path class="b0311da1-fd49-4311-a25d-d2c540b772af" d="M234.6,104.4V11.9H255V90.5h21.2v13.8H234.6Z" transform="translate(-14.8 -10.6)"/><path class="b0311da1-fd49-4311-a25d-d2c540b772af" d="M285.1,104.4V11.9h41.5V25.8H305.5V48.7h16.1V63H305.5V90.6h21.4v13.8Z" transform="translate(-14.8 -10.6)"/><path class="b0311da1-fd49-4311-a25d-d2c540b772af" d="M360.7,105.7c-8.8,0-15.3-2.3-19.6-7s-6.6-12.1-6.9-22.3l17.5-2.7q.15,8.7,2.1,12.6a6.31,6.31,0,0,0,5.9,3.9c3.5,0,5.2-2.2,5.2-6.7a17.31,17.31,0,0,0-1.3-6.9,20.5,20.5,0,0,0-3.3-5.4,48.12,48.12,0,0,0-5.5-5.2l-8.2-7.1a57,57,0,0,1-4.9-4.7,34.42,34.42,0,0,1-3.8-5,23.67,23.67,0,0,1-2.8-6.5,32.35,32.35,0,0,1-.9-7.9c0-7.7,2.3-13.6,6.9-17.8s10.9-6.3,19-6.4a29.1,29.1,0,0,1,7.5.9,25.07,25.07,0,0,1,5.7,2.3,17.87,17.87,0,0,1,4.1,3.7,21.54,21.54,0,0,1,2.8,4.4,22.56,22.56,0,0,1,1.7,5,25.26,25.26,0,0,1,.9,5c.2,1.5.3,3.2.4,4.9l-17.7,2.3c0-1.6-.1-2.9-.1-3.9s-.2-2.1-.3-3.3a13.33,13.33,0,0,0-.6-2.8,12.44,12.44,0,0,0-1-2,4,4,0,0,0-1.6-1.3,4.31,4.31,0,0,0-2.3-.3,4.65,4.65,0,0,0-4.1,2.3,9.31,9.31,0,0,0-1.4,4.9,18.57,18.57,0,0,0,.6,4.8,14.17,14.17,0,0,0,2.2,4.2c1.1,1.3,1.9,2.3,2.6,3s1.8,1.7,3.3,3.1l7.9,6.9a73.78,73.78,0,0,1,5.6,5.5,58.61,58.61,0,0,1,4.5,6,25.91,25.91,0,0,1,3.2,7.4,34.54,34.54,0,0,1,1.1,8.7,22.16,22.16,0,0,1-6.7,16.6c-4.5,4.4-10.5,6.8-17.7,6.8Z" transform="translate(-14.8 -10.6)"/><path class="b0311da1-fd49-4311-a25d-d2c540b772af" d="M390.4,104.4,407.9,12H431l17.4,92.4H429.6l-3.2-19.6H412.9l-3.1,19.6Zm24.3-31.8h9.9l-5-35.8Z" transform="translate(-14.8 -10.6)"/><path class="b0311da1-fd49-4311-a25d-d2c540b772af" d="M457.7,104.4V11.9h20.4V90.5h21.2v13.8H457.7Z" transform="translate(-14.8 -10.6)"/><path class="b0311da1-fd49-4311-a25d-d2c540b772af" d="M508.2,104.4V11.9h41.5V25.8H528.6V48.7h16.1V63H528.6V90.6H550v13.8Z" transform="translate(-14.8 -10.6)"/><path class="a176e4b3-1e51-424e-8a90-1878943815ff" d="M559.2,104.4V11.9H590q12.3,0,18.3,6.9c4.1,4.6,6.1,11.2,6.1,20a43.13,43.13,0,0,1-.9,9.3,21.32,21.32,0,0,1-2.7,7,21.6,21.6,0,0,1-4.1,4.8,17.44,17.44,0,0,1-5.5,3.1,35.26,35.26,0,0,1-6.4,1.6,53.08,53.08,0,0,1-7.2.5h-8v39.4H559.2Zm20.4-53.6h6.5c3.7,0,6.1-.9,7.3-2.8s1.8-5.1,1.8-9.6c0-1.6,0-2.9-.1-4a13,13,0,0,0-.7-3.3,7.13,7.13,0,0,0-1.5-2.6,8.77,8.77,0,0,0-2.7-1.6,12.87,12.87,0,0,0-4.2-.6h-6.5V50.8Z" transform="translate(-14.8 -10.6)"/><path class="a176e4b3-1e51-424e-8a90-1878943815ff" d="M614.7,104.4,632.2,12h23.1l17.4,92.4H653.9l-3.2-19.6H637.2l-3.1,19.6ZM639,72.6h9.9l-5-35.8Z" transform="translate(-14.8 -10.6)"/><path class="a176e4b3-1e51-424e-8a90-1878943815ff" d="M688.1,104.4V27.1H673.9V11.9h48.7V27H708.5v77.3H688.1Z" transform="translate(-14.8 -10.6)"/><path class="a176e4b3-1e51-424e-8a90-1878943815ff" d="M754.5,105.7a36.54,36.54,0,0,1-13.2-2.1,19.16,19.16,0,0,1-8.6-6.3,26.54,26.54,0,0,1-4.5-9.6,53.28,53.28,0,0,1-1.4-12.8v-33a55.94,55.94,0,0,1,1.4-13.1,26.24,26.24,0,0,1,4.5-9.7,18.28,18.28,0,0,1,8.6-6.2,43,43,0,0,1,25.9-.2,18.54,18.54,0,0,1,8.3,5.6,23.11,23.11,0,0,1,4.3,8.4,39.24,39.24,0,0,1,1.3,10.9v8.1h-20V36.4a30.22,30.22,0,0,0-.1-3.3,21.64,21.64,0,0,0-.4-2.9,4.87,4.87,0,0,0-1-2.6,5.62,5.62,0,0,0-2-1.6,7.66,7.66,0,0,0-6.4,0,4.89,4.89,0,0,0-2,1.7,7.57,7.57,0,0,0-1.1,2.7,19.82,19.82,0,0,0-.5,3.1c-.1.9-.1,2.1-.1,3.5V80.1a20.76,20.76,0,0,0,1.4,8.5c.9,1.9,2.8,2.9,5.5,2.9a6.57,6.57,0,0,0,3.2-.7,6.69,6.69,0,0,0,2-1.6,6.94,6.94,0,0,0,1-2.7,20.8,20.8,0,0,0,.4-3c0-.9.1-2,.1-3.4V70.4h20v8a49.37,49.37,0,0,1-.8,9,28.46,28.46,0,0,1-2.6,7.6,18.59,18.59,0,0,1-4.8,5.9,21.66,21.66,0,0,1-7.6,3.8,66.28,66.28,0,0,1-10.8,1Z" transform="translate(-14.8 -10.6)"/><path class="a176e4b3-1e51-424e-8a90-1878943815ff" d="M792.6,104.4V11.9h20.5V49.3h14.2V11.9h20.5v92.4H827.3V63.9H813.1v40.5Z" transform="translate(-14.8 -10.6)"/><path class="a176e4b3-1e51-424e-8a90-1878943815ff" d="M861.8,104.4V11.9h41.5V25.8H882.2V48.7h16.1V63H882.2V90.6h21.4v13.8Z" transform="translate(-14.8 -10.6)"/><path class="a176e4b3-1e51-424e-8a90-1878943815ff" d="M937.3,105.7c-8.8,0-15.3-2.3-19.6-7s-6.6-12.1-6.9-22.3l17.5-2.7q.15,8.7,2.1,12.6a6.31,6.31,0,0,0,5.9,3.9c3.5,0,5.2-2.2,5.2-6.7a17.31,17.31,0,0,0-1.3-6.9,20.5,20.5,0,0,0-3.3-5.4,48.12,48.12,0,0,0-5.5-5.2l-8.2-7.1a57,57,0,0,1-4.9-4.7,34.42,34.42,0,0,1-3.8-5,23.67,23.67,0,0,1-2.8-6.5,32.35,32.35,0,0,1-.9-7.9c0-7.7,2.3-13.6,6.9-17.8s10.9-6.3,19-6.4a29.1,29.1,0,0,1,7.5.9,25.07,25.07,0,0,1,5.7,2.3,17.87,17.87,0,0,1,4.1,3.7,21.54,21.54,0,0,1,2.8,4.4,22.56,22.56,0,0,1,1.7,5,25.26,25.26,0,0,1,.9,5c.2,1.5.3,3.2.4,4.9l-17.7,2.3c0-1.6-.1-2.9-.1-3.9s-.2-2.1-.3-3.3a13.33,13.33,0,0,0-.6-2.8,12.44,12.44,0,0,0-1-2,4,4,0,0,0-1.6-1.3,4.31,4.31,0,0,0-2.3-.3,4.54,4.54,0,0,0-4.1,2.3,9.31,9.31,0,0,0-1.4,4.9,18.57,18.57,0,0,0,.6,4.8,14.17,14.17,0,0,0,2.2,4.2c1.1,1.3,1.9,2.3,2.6,3s1.8,1.7,3.3,3.1l7.9,6.9a73.78,73.78,0,0,1,5.6,5.5,58.61,58.61,0,0,1,4.5,6,25.91,25.91,0,0,1,3.2,7.4,34.54,34.54,0,0,1,1.1,8.7A22.16,22.16,0,0,1,955,98.9c-4.5,4.4-10.4,6.8-17.7,6.8Z" transform="translate(-14.8 -10.6)"/></svg>