<svg viewBox="0 0 860 340" xmlns="http://www.w3.org/2000/svg" xmlns:xlink="http://www.w3.org/1999/xlink"><linearGradient id="a"><stop offset="0" stop-color="#aaa"/><stop offset=".9948" stop-color="#777"/></linearGradient><radialGradient id="b" cx="141.8824" cy="136.6351" gradientUnits="userSpaceOnUse" r="21.1229" xlink:href="#a"/><linearGradient id="c" gradientTransform="matrix(-1 0 0 1 723.8545 29.0547)" gradientUnits="userSpaceOnUse" x1="583.8545" x2="583.8545" y1="138.4751" y2="290.9453"><stop offset="0" stop-color="#ededed"/><stop offset="1" stop-color="#e6e6e6"/></linearGradient><radialGradient id="d" cx="138.3226" cy="167.0943" gradientUnits="userSpaceOnUse" r="17.5413" xlink:href="#a"/><linearGradient id="e"><stop offset="0" stop-color="#f8333c"/><stop offset="1" stop-color="#d0052b"/></linearGradient><linearGradient id="f" gradientTransform="matrix(-1 0 0 1 912.2227 0)" gradientUnits="userSpaceOnUse" x1="797.8148" x2="770.9379" xlink:href="#e" y1="15.4116" y2="133.5072"/><linearGradient id="g" gradientUnits="userSpaceOnUse" x1="167.4294" x2="140.4122" xlink:href="#e" y1="15.5593" y2="134.2716"/><path clip-rule="evenodd" d="m163.36 130.1s2.69 3.84-1.88 8.46c-4.57 4.64-7.64 6.16-14.21 6.51 0 0-10.76.82-15.47-.19-4.75-1.02-10.07-5.24-11.51-8.84-1.42-3.62-.08-4.8.52-5.61l.03-6.73s-4.26 2.29-5.39 5.5c-1.12 3.19-.32 7.87 2.17 10.77 2.48 2.92 6.16 9.37 17.77 9.56 11.64.24 20.07-.08 26.17-4.72 6.09-4.6 7.19-9.26 7.24-13.27.04-4-3.29-7.17-5.44-7.71z" fill="url(#b)" fill-rule="evenodd"/><path clip-rule="evenodd" d="m20 174.21v139.09c0 3.68 3.01 6.7 6.69 6.7h226.61c3.68 0 6.7-3.02 6.7-6.7v-139.09c0-3.68-3.02-6.68-6.7-6.68h-226.61c-3.68 0-6.69 3-6.69 6.68zm100.25 12.4c0-2.62 2.11-4.71 4.72-4.71h30.08c2.59 0 4.71 2.09 4.71 4.71 0 2.58-2.11 4.69-4.71 4.69h-30.08c-2.61-.01-4.72-2.11-4.72-4.69z" fill="url(#c)" fill-rule="evenodd"/><path clip-rule="evenodd" d="m126.9 164.1 7.28-1.44 2.52-9.82.21-1.16-.41-.88-.13-3.24.46-.41.04-.77 10.69.14.15.85.62.67-.14 2.94-.48 1.08 3.76 15.05.07.42h-5.39c-1.17-.94-2.22-1.75-4.65-1.58-2.68.19-4.09 1.24-5.41 4.45-.76 1.9-.94 2.69-1.09 4.98-.15 1.94-.22 7.63 5.95 8.45 1.65.22 3.94.2 6.16-1.9h4.86c-1.9 3.67-7.32 7.53-14.17 5.12-7.27-2.56-7.13-9.96-6.63-12.32l1.23-5.13.07-.41c-.53.08-1.27.18-2.27.29-4.21.49-5.39-.8-5.55-2.68-.14-1.91 2.25-2.7 2.25-2.7z" fill="url(#d)" fill-rule="evenodd"/><path d="m120.34 133.7h41.19l-25.09-113.7h-41.51z" fill="url(#f)"/><path d="m120.34 133.7h41.19l-23.67-107.26z" opacity=".25"/><path d="m161.53 133.7h-41.19l25.09-113.7h41.51z" fill="url(#g)"/><path d="m40.6 225.09h129.24c.67 0 1.21-.54 1.21-1.21s-.54-1.21-1.21-1.21h-129.24c-.67 0-1.21.54-1.21 1.21s.54 1.21 1.21 1.21z" fill="#d1d3d4"/><path d="m40.6 245h129.24c.67 0 1.21-.54 1.21-1.21s-.54-1.21-1.21-1.21h-129.24c-.67 0-1.21.54-1.21 1.21s.54 1.21 1.21 1.21z" fill="#d1d3d4"/><path d="m40.6 264.91h129.24c.67 0 1.21-.54 1.21-1.21s-.54-1.21-1.21-1.21h-129.24c-.67 0-1.21.54-1.21 1.21s.54 1.21 1.21 1.21z" fill="#d1d3d4"/><path d="m40.6 284.82h129.24c.67 0 1.21-.54 1.21-1.21s-.54-1.21-1.21-1.21h-129.24c-.67 0-1.21.54-1.21 1.21s.54 1.21 1.21 1.21z" fill="#d1d3d4"/><path clip-rule="evenodd" d="m190 211.29h56.13v82.62h-56.13z" fill="#d1d3d4" fill-rule="evenodd"/><path d="m280.11 186.43v-116.42h44.76c9.62 0 18.09 1.53 25.41 4.59s13.44 7.21 18.36 12.46 8.63 11.4 11.15 18.45c2.51 7.05 3.77 14.57 3.77 22.55 0 8.85-1.39 16.86-4.18 24.02s-6.75 13.28-11.89 18.36-11.31 9.02-18.53 11.81c-7.21 2.79-15.25 4.18-24.1 4.18zm71-58.37c0-4.48-.6-8.58-1.8-12.3-1.2-3.71-2.93-6.89-5.16-9.51-2.24-2.62-5-4.67-8.28-6.15s-6.94-2.21-10.99-2.21h-12.79v60.67h12.79c4.15 0 7.87-.76 11.15-2.3 3.28-1.53 6.04-3.66 8.28-6.39s3.94-5.96 5.08-9.67c1.15-3.72 1.72-7.77 1.72-12.14z" fill="#3498db"/><path d="m394.23 186.43v-116.42h31.97v116.42z" fill="#3498db"/><path d="m437.84 186.43v-116.42h53.45c5.68 0 10.93 1.18 15.74 3.52 4.81 2.35 8.94 5.41 12.38 9.18s6.15 8.09 8.12 12.95 2.95 9.76 2.95 14.67c0 6.78-1.47 13.09-4.43 18.94-2.95 5.85-7.05 10.63-12.3 14.35l24.59 42.79h-36.07l-20.5-35.74h-11.97v35.74h-31.96zm31.98-63.62h20.17c1.97 0 3.8-1.09 5.49-3.28s2.54-5.25 2.54-9.18c0-4.04-.98-7.13-2.95-9.26s-3.93-3.2-5.9-3.2h-19.35z" fill="#3498db"/><path d="m627.35 158.56v27.87h-82.97v-116.42h81.49v27.87h-49.52v16.4h42.3v25.91h-42.3v18.36h51z" fill="#3498db"/><path d="m627.14 127.24c0-7.1 1.34-14.1 4.02-20.99s6.58-13.06 11.72-18.53 11.37-9.89 18.69-13.28 15.69-5.08 25.09-5.08c11.26 0 21.01 2.32 29.27 6.97 8.25 4.65 14.4 10.8 18.45 18.45l-24.43 17.38c-1.09-2.84-2.54-5.19-4.34-7.05s-3.8-3.33-5.98-4.43c-2.19-1.09-4.46-1.86-6.81-2.3s-4.62-.66-6.8-.66c-4.59 0-8.55.9-11.89 2.71-3.34 1.8-6.07 4.16-8.2 7.05-2.13 2.9-3.72 6.18-4.75 9.84-1.04 3.66-1.56 7.3-1.56 10.9 0 4.05.6 7.93 1.8 11.64 1.2 3.72 2.95 7 5.25 9.84s5.11 5.11 8.44 6.8c3.33 1.7 7.08 2.54 11.23 2.54 2.19 0 4.43-.25 6.72-.74 2.3-.49 4.51-1.31 6.64-2.46s4.04-2.62 5.74-4.43c1.69-1.8 3.03-4.02 4.02-6.64l26.07 15.58c-1.75 4.26-4.4 8.09-7.95 11.48s-7.6 6.23-12.13 8.53c-4.54 2.3-9.4 4.04-14.59 5.25-5.19 1.2-10.25 1.8-15.17 1.8-8.64 0-16.54-1.72-23.69-5.16-7.16-3.44-13.34-8.01-18.53-13.69s-9.21-12.13-12.05-19.35c-2.86-7.22-4.28-14.54-4.28-21.97z" fill="#3498db"/><path d="m840 97.89h-33.45v88.54h-31.97v-88.54h-33.61v-27.88h99.03z" fill="#3498db"/><g fill="#2ecc71"><path d="m280 275.63v-79.63h21.87v60.56h36.11v19.07z"/><path d="m368.49 196h19.96l27.59 79.63h-22.21l-4.82-15.59h-21.2l-4.71 15.59h-22.32zm17.05 49.46-7.07-24.68-7.4 24.68z"/><path d="m442.29 236.49v39.14h-21.87v-79.63h17.05l31.96 40.49v-40.49h21.87v79.63h-17.38z"/><path d="m518.89 196 14.24 34.43 14.59-34.43h23.78l-27.48 53.27v26.36h-21.76v-26.58l-27.03-53.05z"/><path d="m578.79 196h19.96l27.59 79.63h-22.21l-4.82-15.59h-21.2l-4.71 15.59h-22.32zm17.04 49.46-7.07-24.68-7.4 24.68z"/><path d="m630.71 275.63v-79.63h36.56c3.89 0 7.48.8 10.77 2.41s6.11 3.7 8.47 6.28c2.35 2.58 4.21 5.53 5.55 8.86 1.35 3.33 2.02 6.67 2.02 10.04 0 4.64-1.01 8.96-3.03 12.95-2.02 4-4.82 7.27-8.41 9.81l16.82 29.27h-24.68l-14.02-24.45h-8.19v24.45h-21.86zm21.88-43.51h13.8c1.35 0 2.6-.75 3.76-2.24 1.16-1.5 1.74-3.59 1.74-6.28 0-2.77-.67-4.88-2.02-6.34s-2.69-2.19-4.04-2.19h-13.23v17.05z"/><path d="m704.18 275.63v-79.63h30.62c6.58 0 12.37 1.05 17.38 3.14s9.2 4.94 12.56 8.52c3.36 3.59 5.91 7.8 7.63 12.62s2.58 9.96 2.58 15.42c0 6.06-.95 11.53-2.86 16.43s-4.62 9.09-8.13 12.56c-3.52 3.48-7.74 6.17-12.67 8.08-4.94 1.91-10.43 2.86-16.49 2.86zm48.56-39.93c0-3.06-.41-5.87-1.23-8.41s-2-4.71-3.53-6.51c-1.53-1.79-3.42-3.2-5.66-4.21s-4.75-1.51-7.51-1.51h-8.75v41.5h8.75c2.84 0 5.38-.52 7.63-1.57 2.24-1.05 4.13-2.5 5.66-4.37s2.69-4.07 3.48-6.62c.77-2.54 1.16-5.3 1.16-8.3z"/><path d="m828.67 222.02c-2.24-1.35-4.56-2.54-6.95-3.59-2.02-.9-4.28-1.74-6.79-2.52s-4.95-1.18-7.35-1.18c-1.95 0-3.5.3-4.65.9-1.16.6-1.74 1.61-1.74 3.03 0 1.05.34 1.91 1.01 2.58s1.64 1.29 2.92 1.85c1.27.56 2.82 1.1 4.65 1.63 1.83.52 3.91 1.16 6.22 1.91 3.66 1.12 6.97 2.35 9.93 3.7 2.95 1.35 5.48 2.94 7.57 4.77s3.7 4.06 4.82 6.67c1.12 2.62 1.68 5.8 1.68 9.53 0 4.79-.88 8.81-2.64 12.06s-4.08 5.85-6.95 7.79c-2.88 1.95-6.13 3.35-9.76 4.21s-7.27 1.29-10.93 1.29c-2.92 0-5.91-.22-8.97-.67-3.07-.45-6.11-1.08-9.14-1.91-3.03-.82-5.94-1.79-8.75-2.92-2.8-1.12-5.4-2.39-7.79-3.81l9.42-19.18c2.62 1.65 5.34 3.1 8.19 4.37 2.39 1.12 5.1 2.13 8.13 3.03s6.11 1.35 9.25 1.35c2.39 0 4.06-.32 4.99-.95s1.4-1.48 1.4-2.52c0-1.12-.47-2.07-1.4-2.86-.94-.79-2.23-1.48-3.87-2.08-1.65-.6-3.53-1.2-5.66-1.79-2.13-.6-4.39-1.31-6.79-2.13-3.52-1.2-6.54-2.49-9.09-3.87-2.54-1.38-4.64-2.95-6.28-4.71-1.65-1.76-2.86-3.76-3.65-6s-1.18-4.82-1.18-7.74c0-4.41.8-8.3 2.41-11.66s3.79-6.17 6.56-8.41 5.93-3.94 9.48-5.1 7.31-1.74 11.27-1.74c2.92 0 5.76.28 8.52.84 2.77.56 5.44 1.27 8.02 2.13s4.99 1.79 7.24 2.8c2.24 1.01 4.26 1.96 6.06 2.86z"/></g></svg>