<?xml version="1.0" encoding="utf-8"?>
<!-- Generator: Adobe Illustrator 26.3.1, SVG Export Plug-In . SVG Version: 6.00 Build 0)  -->
<svg version="1.1" id="Layer_1" xmlns="http://www.w3.org/2000/svg" xmlns:xlink="http://www.w3.org/1999/xlink" x="0px" y="0px"
	 viewBox="0 0 860 340" style="enable-background:new 0 0 860 340;" xml:space="preserve">
<style type="text/css">
	.st0{fill-rule:evenodd;clip-rule:evenodd;fill:url(#SVGID_1_);}
	.st1{fill-rule:evenodd;clip-rule:evenodd;fill:#DDDDDD;}
	.st2{fill-rule:evenodd;clip-rule:evenodd;fill:url(#SVGID_00000091697991935532090050000011575970330805876400_);}
	.st3{fill:url(#SVGID_00000009590152248120342530000015722438148995841443_);}
	.st4{opacity:0.25;enable-background:new    ;}
	.st5{fill:url(#SVGID_00000087387424738952910090000016144675310533227939_);}
	.st6{fill:#BCBCBC;}
	.st7{fill-rule:evenodd;clip-rule:evenodd;fill:#BCBCBC;}
	.st8{fill:#3498DB;}
	.st9{fill:#2ECC71;}
</style>
<radialGradient id="SVGID_1_" cx="141.8772" cy="205.3562" r="21.1234" gradientTransform="matrix(1 0 0 -1 0 342)" gradientUnits="userSpaceOnUse">
	<stop  offset="0" style="stop-color:#AAAAAA"/>
	<stop  offset="0.9948" style="stop-color:#777777"/>
</radialGradient>
<path class="st0" d="M163.4,130.1c0,0,2.7,3.8-1.9,8.5c-4.6,4.6-7.6,6.2-14.2,6.5c0,0-10.8,0.8-15.5-0.2c-4.8-1-10.1-5.2-11.5-8.8
	c-1.4-3.6-0.1-4.8,0.5-5.6l0-6.7c0,0-4.3,2.3-5.4,5.5c-1.1,3.2-0.3,7.9,2.2,10.8c2.5,2.9,6.2,9.4,17.8,9.6
	c11.6,0.2,20.1-0.1,26.2-4.7c6.1-4.6,7.2-9.3,7.2-13.3c0-4-3.3-7.2-5.4-7.7L163.4,130.1z"/>
<path class="st1" d="M20,174.2v139.1c0,3.7,3,6.7,6.7,6.7h226.6c3.7,0,6.7-3,6.7-6.7V174.2c0-3.7-3-6.7-6.7-6.7H26.7
	C23,167.5,20,170.5,20,174.2L20,174.2z M120.2,186.6c0-2.6,2.1-4.7,4.7-4.7h30.1c2.6,0,4.7,2.1,4.7,4.7c0,2.6-2.1,4.7-4.7,4.7H125
	C122.4,191.3,120.2,189.2,120.2,186.6z"/>
<radialGradient id="SVGID_00000077284670104065605340000001973208255950093245_" cx="138.3071" cy="174.9104" r="17.5437" gradientTransform="matrix(1 0 0 -1 0 342)" gradientUnits="userSpaceOnUse">
	<stop  offset="0" style="stop-color:#AAAAAA"/>
	<stop  offset="0.9948" style="stop-color:#777777"/>
</radialGradient>
<path style="fill-rule:evenodd;clip-rule:evenodd;fill:url(#SVGID_00000077284670104065605340000001973208255950093245_);" d="
	M126.9,164.1l7.3-1.4l2.5-9.8l0.2-1.2l-0.4-0.9l-0.1-3.2l0.5-0.4l0-0.8l10.7,0.1l0.1,0.9l0.6,0.7l-0.1,2.9l-0.5,1.1l3.8,15.1
	l0.1,0.4h-5.4c-1.2-0.9-2.2-1.8-4.6-1.6c-2.7,0.2-4.1,1.2-5.4,4.4c-0.8,1.9-0.9,2.7-1.1,5c-0.1,1.9-0.2,7.6,5.9,8.4
	c1.6,0.2,3.9,0.2,6.2-1.9h4.9c-1.9,3.7-7.3,7.5-14.2,5.1c-7.3-2.6-7.1-10-6.6-12.3l1.2-5.1l0.1-0.4c-0.5,0.1-1.3,0.2-2.3,0.3
	c-4.2,0.5-5.4-0.8-5.6-2.7C124.5,164.9,126.9,164.1,126.9,164.1L126.9,164.1z"/>
<linearGradient id="SVGID_00000036953883942295578210000011608878734993695632_" gradientUnits="userSpaceOnUse" x1="1057.8152" y1="326.5883" x2="1030.9384" y2="208.4927" gradientTransform="matrix(-1 0 0 -1 1172.2227 342)">
	<stop  offset="0" style="stop-color:#F8333C"/>
	<stop  offset="1" style="stop-color:#D0052B"/>
</linearGradient>
<path style="fill:url(#SVGID_00000036953883942295578210000011608878734993695632_);" d="M120.3,133.7h41.2L136.4,20H94.9
	L120.3,133.7z"/>
<path class="st4" d="M120.3,133.7h41.2L137.9,26.4L120.3,133.7z"/>
<linearGradient id="SVGID_00000101812453129835169180000001368234209391449503_" gradientUnits="userSpaceOnUse" x1="167.4288" y1="326.4405" x2="140.4116" y2="207.7281" gradientTransform="matrix(1 0 0 -1 0 342)">
	<stop  offset="0" style="stop-color:#F8333C"/>
	<stop  offset="1" style="stop-color:#D0052B"/>
</linearGradient>
<path style="fill:url(#SVGID_00000101812453129835169180000001368234209391449503_);" d="M161.5,133.7h-41.2L145.4,20h41.5
	L161.5,133.7z"/>
<path class="st6" d="M40.6,225.1h129.2c0.7,0,1.2-0.5,1.2-1.2s-0.5-1.2-1.2-1.2H40.6c-0.7,0-1.2,0.5-1.2,1.2S39.9,225.1,40.6,225.1z
	"/>
<path class="st6" d="M40.6,245h129.2c0.7,0,1.2-0.5,1.2-1.2s-0.5-1.2-1.2-1.2H40.6c-0.7,0-1.2,0.5-1.2,1.2S39.9,245,40.6,245z"/>
<path class="st6" d="M40.6,264.9h129.2c0.7,0,1.2-0.5,1.2-1.2s-0.5-1.2-1.2-1.2H40.6c-0.7,0-1.2,0.5-1.2,1.2S39.9,264.9,40.6,264.9z
	"/>
<path class="st6" d="M40.6,284.8h129.2c0.7,0,1.2-0.5,1.2-1.2s-0.5-1.2-1.2-1.2H40.6c-0.7,0-1.2,0.5-1.2,1.2S39.9,284.8,40.6,284.8z
	"/>
<path class="st7" d="M190,211.3h56.1v82.6H190V211.3z"/>
<path class="st8" d="M280.1,186.4V70h44.8c9.6,0,18.1,1.5,25.4,4.6s13.4,7.2,18.4,12.5s8.6,11.4,11.1,18.5
	c2.5,7.1,3.8,14.6,3.8,22.6c0,8.9-1.4,16.9-4.2,24s-6.8,13.3-11.9,18.4s-11.3,9-18.5,11.8c-7.2,2.8-15.2,4.2-24.1,4.2H280.1z
	 M351.1,128.1c0-4.5-0.6-8.6-1.8-12.3c-1.2-3.7-2.9-6.9-5.2-9.5c-2.2-2.6-5-4.7-8.3-6.2s-6.9-2.2-11-2.2h-12.8v60.7h12.8
	c4.1,0,7.9-0.8,11.1-2.3c3.3-1.5,6-3.7,8.3-6.4s3.9-6,5.1-9.7C350.5,136.5,351.1,132.4,351.1,128.1z"/>
<path class="st8" d="M394.2,186.4V70h32v116.4H394.2z"/>
<path class="st8" d="M437.8,186.4V70h53.5c5.7,0,10.9,1.2,15.7,3.5c4.8,2.3,8.9,5.4,12.4,9.2s6.2,8.1,8.1,12.9s3,9.8,3,14.7
	c0,6.8-1.5,13.1-4.4,18.9c-3,5.9-7,10.6-12.3,14.4l24.6,42.8h-36.1l-20.5-35.7h-12v35.7L437.8,186.4L437.8,186.4z M469.8,122.8H490
	c2,0,3.8-1.1,5.5-3.3s2.5-5.2,2.5-9.2c0-4-1-7.1-3-9.3s-3.9-3.2-5.9-3.2h-19.4V122.8z"/>
<path class="st8" d="M627.3,158.6v27.9h-83V70h81.5v27.9h-49.5v16.4h42.3v25.9h-42.3v18.4L627.3,158.6L627.3,158.6z"/>
<path class="st8" d="M627.1,127.2c0-7.1,1.3-14.1,4-21s6.6-13.1,11.7-18.5s11.4-9.9,18.7-13.3s15.7-5.1,25.1-5.1
	c11.3,0,21,2.3,29.3,7c8.2,4.7,14.4,10.8,18.5,18.4L710,112.2c-1.1-2.8-2.5-5.2-4.3-7.1s-3.8-3.3-6-4.4c-2.2-1.1-4.5-1.9-6.8-2.3
	s-4.6-0.7-6.8-0.7c-4.6,0-8.5,0.9-11.9,2.7c-3.3,1.8-6.1,4.2-8.2,7.1c-2.1,2.9-3.7,6.2-4.8,9.8c-1,3.7-1.6,7.3-1.6,10.9
	c0,4.1,0.6,7.9,1.8,11.6c1.2,3.7,3,7,5.2,9.8s5.1,5.1,8.4,6.8c3.3,1.7,7.1,2.5,11.2,2.5c2.2,0,4.4-0.2,6.7-0.7
	c2.3-0.5,4.5-1.3,6.6-2.5s4-2.6,5.7-4.4c1.7-1.8,3-4,4-6.6l26.1,15.6c-1.8,4.3-4.4,8.1-8,11.5s-7.6,6.2-12.1,8.5
	c-4.5,2.3-9.4,4-14.6,5.2c-5.2,1.2-10.2,1.8-15.2,1.8c-8.6,0-16.5-1.7-23.7-5.2c-7.2-3.4-13.3-8-18.5-13.7s-9.2-12.1-12-19.4
	C628.6,142,627.1,134.7,627.1,127.2L627.1,127.2z"/>
<path class="st8" d="M840,97.9h-33.5v88.5h-32V97.9H741V70h99V97.9z"/>
<g>
	<path class="st9" d="M280,275.6V196h21.9v60.6H338v19.1H280z"/>
	<path class="st9" d="M368.5,196h20l27.6,79.6h-22.2L389,260h-21.2l-4.7,15.6h-22.3L368.5,196z M385.5,245.5l-7.1-24.7l-7.4,24.7
		H385.5z"/>
	<path class="st9" d="M442.3,236.5v39.1h-21.9V196h17l32,40.5V196h21.9v79.6h-17.4L442.3,236.5z"/>
	<path class="st9" d="M518.9,196l14.2,34.4l14.6-34.4h23.8L544,249.3v26.4h-21.8v-26.6l-27-53.1H518.9z"/>
	<path class="st9" d="M578.8,196h20l27.6,79.6h-22.2l-4.8-15.6h-21.2l-4.7,15.6h-22.3L578.8,196z M595.8,245.5l-7.1-24.7l-7.4,24.7
		H595.8z"/>
	<path class="st9" d="M630.7,275.6V196h36.6c3.9,0,7.5,0.8,10.8,2.4s6.1,3.7,8.5,6.3c2.3,2.6,4.2,5.5,5.5,8.9c1.3,3.3,2,6.7,2,10
		c0,4.6-1,9-3,12.9c-2,4-4.8,7.3-8.4,9.8l16.8,29.3h-24.7l-14-24.4h-8.2v24.4L630.7,275.6L630.7,275.6z M652.6,232.1h13.8
		c1.3,0,2.6-0.8,3.8-2.2c1.2-1.5,1.7-3.6,1.7-6.3c0-2.8-0.7-4.9-2-6.3s-2.7-2.2-4-2.2h-13.2L652.6,232.1L652.6,232.1z"/>
	<path class="st9" d="M704.2,275.6V196h30.6c6.6,0,12.4,1.1,17.4,3.1s9.2,4.9,12.6,8.5c3.4,3.6,5.9,7.8,7.6,12.6s2.6,10,2.6,15.4
		c0,6.1-1,11.5-2.9,16.4c-1.9,4.9-4.6,9.1-8.1,12.6c-3.5,3.5-7.7,6.2-12.7,8.1c-4.9,1.9-10.4,2.9-16.5,2.9L704.2,275.6z
		 M752.7,235.7c0-3.1-0.4-5.9-1.2-8.4s-2-4.7-3.5-6.5c-1.5-1.8-3.4-3.2-5.7-4.2s-4.8-1.5-7.5-1.5h-8.8v41.5h8.8
		c2.8,0,5.4-0.5,7.6-1.6c2.2-1.1,4.1-2.5,5.7-4.4s2.7-4.1,3.5-6.6C752.3,241.5,752.7,238.7,752.7,235.7L752.7,235.7z"/>
	<path class="st9" d="M828.7,222c-2.2-1.4-4.6-2.5-7-3.6c-2-0.9-4.3-1.7-6.8-2.5s-5-1.2-7.3-1.2c-2,0-3.5,0.3-4.7,0.9
		c-1.2,0.6-1.7,1.6-1.7,3c0,1.1,0.3,1.9,1,2.6s1.6,1.3,2.9,1.9c1.3,0.6,2.8,1.1,4.7,1.6c1.8,0.5,3.9,1.2,6.2,1.9
		c3.7,1.1,7,2.4,9.9,3.7c3,1.4,5.5,2.9,7.6,4.8s3.7,4.1,4.8,6.7c1.1,2.6,1.7,5.8,1.7,9.5c0,4.8-0.9,8.8-2.6,12.1s-4.1,5.9-7,7.8
		c-2.9,2-6.1,3.4-9.8,4.2s-7.3,1.3-10.9,1.3c-2.9,0-5.9-0.2-9-0.7c-3.1-0.5-6.1-1.1-9.1-1.9c-3-0.8-5.9-1.8-8.8-2.9
		c-2.8-1.1-5.4-2.4-7.8-3.8l9.4-19.2c2.6,1.6,5.3,3.1,8.2,4.4c2.4,1.1,5.1,2.1,8.1,3s6.1,1.4,9.2,1.4c2.4,0,4.1-0.3,5-0.9
		s1.4-1.5,1.4-2.5c0-1.1-0.5-2.1-1.4-2.9c-0.9-0.8-2.2-1.5-3.9-2.1c-1.7-0.6-3.5-1.2-5.7-1.8c-2.1-0.6-4.4-1.3-6.8-2.1
		c-3.5-1.2-6.5-2.5-9.1-3.9c-2.5-1.4-4.6-2.9-6.3-4.7c-1.7-1.8-2.9-3.8-3.7-6s-1.2-4.8-1.2-7.7c0-4.4,0.8-8.3,2.4-11.7
		s3.8-6.2,6.6-8.4s5.9-3.9,9.5-5.1s7.3-1.7,11.3-1.7c2.9,0,5.8,0.3,8.5,0.8c2.8,0.6,5.4,1.3,8,2.1s5,1.8,7.2,2.8
		c2.2,1,4.3,2,6.1,2.9L828.7,222z"/>
</g>
</svg>
