<?xml version="1.0" encoding="utf-8"?>
<!-- Generator: Adobe Illustrator 25.1.0, SVG Export Plug-In . SVG Version: 6.00 Build 0)  -->
<svg version="1.1" id="Layer_1" xmlns="http://www.w3.org/2000/svg" xmlns:xlink="http://www.w3.org/1999/xlink" x="0px" y="0px"
	 viewBox="0 0 512 512" style="enable-background:new 0 0 512 512;" xml:space="preserve">
<style type="text/css">
	.st0{fill:#FFFFFF;}
	.st1{fill:#FF0000;}
</style>
<g>
	<path d="M508.5,308.3L508.5,308.3c0.8-2.4,1.3-4.9,1.2-7.4l0,0c0.1-7.3-3.7-14-9.9-17.7c-3.1-1.8-6.4-3.2-9.9-4.1l0,0
		c-3.5-0.9-7.1-1.4-10.7-1.3c-3.1,0-6.2,0.3-9.2,1l0,0c-0.8-3.9-2.7-7.5-5.4-10.4l0,0c2-3.2,3-6.9,3-10.7l0,0c0-2.2-0.3-4.4-0.9-6.4
		l0,0c0.7-2.2,1.1-4.4,1.1-6.7l0,0c0.1-5.9-1.3-11.8-4-17.2l0,0c-2.8-5.4-7-9.9-12.3-12.9c-5.3-3-11.1-4.5-17.1-4.4l0,0
		c-3.7,0-7.3,0.5-10.7,1.6c-0.8-5-3.4-9.5-7.2-12.7c-8.6-6.8-20.8-6.8-29.4,0l0,0c-3.8,3.1-6.3,7.5-7.2,12.3
		c-3.4-0.8-7-1.3-10.5-1.2l0,0c-3.8,0-7.6,0.4-11.3,1.2l0,0c-3.6,0.7-7,1.8-10.3,3.4c-2.7-1.4-5.4-2.5-8.4-3.3l0,0
		c-3.5-0.9-7.1-1.4-10.7-1.3c-5.1,0-10.1,0.9-14.7,2.8l0,0c-2.1,0.8-4.1,1.9-5.9,3.2l0,0c-0.8-0.6-1.7-1.1-2.6-1.7
		c-5.3-3-11.1-4.5-17.1-4.4l0,0c-3.7,0-7.3,0.5-10.7,1.6c-0.8-5-3.4-9.5-7.2-12.7c-8.6-6.8-20.8-6.8-29.4,0l0,0
		c-4,3.3-6.5,7.9-7.3,12.9c-4.1-1.3-8.4-1.9-12.7-1.9l0,0c-6.3-0.1-12.5,1.3-18.2,4.1l0,0c-1.3,0.7-2.7,1.4-3.9,2.3
		c-4.6-3.9-10.3-6.1-16.3-6.3c-1-4.2-3.3-8-6.5-10.8c-4.2-3.6-9.5-5.5-15-5.4l0,0c-3.5,0-6.9,0.7-10.1,2.2c-7.2-3.6-15.7-3-22.3,1.4
		l0,0c-1.9,1.3-3.6,2.9-5.1,4.7c-1.4-1.8-3-3.3-4.9-4.6l0,0c-7.5-5.1-17.3-5.1-24.8-0.1l0,0c-2,1.3-3.7,2.9-5.2,4.8
		c-1.6-2.1-3.5-3.8-5.7-5.2l0,0c-3.6-2.2-7.8-3.4-12-3.4c-5.3,0-10.4,1.8-14.5,5.1l0,0c-5,4-7.8,10.1-7.7,16.4c0,2.7,0.5,5.4,1.4,8
		c0,0,10.5,28.2,14.4,38.9l0,0c-3,0.8-5.7,2.3-8.1,4.2l0,0c-5,4-7.8,10.1-7.7,16.4l0,0c0,2.7,0.5,5.4,1.4,8
		c0,0.1,15.9,42.9,15.9,42.9l0,0c1.7,4.8,5,8.7,9.4,11.3l0,0c7.6,4.5,17,4.5,24.7,0l0,0c2.1-1.2,3.9-2.8,5.5-4.6l0,0
		c1.6,1.8,3.4,3.4,5.5,4.6l0,0c7.6,4.5,17,4.5,24.7,0l0,0c1.5-0.9,2.9-2,4.2-3.2c0.4,0.4,0.9,0.9,1.4,1.3l0,0
		c8.6,6.6,20.6,6.6,29.1,0l0,0c0.6-0.5,1.3-1.1,1.9-1.7l0,0c0.6,0.6,1.2,1.2,1.9,1.7c4.1,3.3,9.3,5.1,14.6,5l0,0
		c4.1,0,8.1-1,11.7-3.1l0,0c2.1,0.9,4.3,1.6,6.5,2.1l0,0c4,0.8,8,1.2,12.1,1.1c8.6,0,15.9-2.1,21.7-6.3c0.1-0.1,0.2-0.2,0.4-0.3l0,0
		c5.1,3.7,11.1,5.8,17.4,6.1l2.4,0.1c0.7,0,1.4,0,2,0l0,0c3.1,0,6.1-0.5,9-1.5c2.7,1,5.6,1.6,8.6,1.5l0,0c2.9,0,5.8-0.5,8.5-1.5
		c3.3,1.1,6.8,1.7,10.3,1.7c6.1,0,12.1-1.7,17.2-5.1c0.2-0.2,0.5-0.3,0.7-0.5c1.2,0.9,2.6,1.7,4,2.4l0,0c4.4,2.1,9.2,3.3,14.1,3.2
		l0,0c3,0,6-0.4,8.9-1.4c6,2,12.5,1.5,18.2-1.3l0,0c3.3,1.7,7,2.6,10.8,2.5l0,0c4.6,0,9-1.2,12.8-3.7c8.2,5.2,18.7,4.9,26.6-0.7l0,0
		c4.9,3,10.6,4.6,16.3,4.6c3.5,0,6.9-0.5,10.3-1.7c2.7,1,5.5,1.5,8.5,1.5l0,0c4.1,0,8.1-1,11.7-3.1l0,0c2.1,0.9,4.3,1.6,6.5,2.1l0,0
		c4,0.8,8,1.2,12.1,1.1c8.6,0,15.9-2.1,21.7-6.3l0,0c7-4.9,11.2-13,11.1-21.6l0,0c0-4.3-0.9-8.6-2.9-12.4L508.5,308.3z"/>
	<path class="st0" d="M499.7,308.7L499.7,308.7c1.6-2.3,2.5-5.1,2.4-7.9l0,0c0.1-4.6-2.2-8.8-6.2-11.1c-2.5-1.5-5.2-2.6-7.9-3.3
		c-2.9-0.7-5.8-1.1-8.8-1.1l0,0c-4.1,0-8,0.7-11.8,2.2l0,0c-1.6,0.7-3.2,1.5-4.7,2.6V283l0,0c0-3.9-1.6-7.7-4.6-10.3
		c-1.8-1.6-3.9-2.7-6.2-3.2c0.2-0.1,0.4-0.2,0.7-0.3c0,0,0.1-0.1,0.2-0.1l0,0c4.4-2.2,7.1-6.6,7.1-11.5l0,0c0-2.3-0.5-4.6-1.6-6.6
		l0,0c1.2-2,1.8-4.2,1.7-6.5l0,0c0.1-4.8-1-9.4-3.1-13.7c-2.1-4.1-5.3-7.5-9.3-9.8c-4.1-2.3-8.7-3.5-13.3-3.4
		c-4.9,0-9.6,1.2-13.8,3.6l0,0c-1.5,0.8-2.9,1.9-4.2,3v-8.6l0,0c0.1-4.2-1.6-8.1-4.8-10.8c-5.8-4.5-13.9-4.5-19.7,0l0,0
		c-3.2,2.7-5,6.6-4.8,10.7v7.7c-4.3-3.8-10.2-5.7-17.7-5.7l0,0c-3.3,0-6.5,0.3-9.7,1l0,0c-3.1,0.6-6,1.6-8.9,3l-0.2,0.1l0,0
		c-1,0.5-2,1.2-2.9,2c-0.7-0.6-1.5-1.2-2.3-1.7c-2.5-1.5-5.2-2.6-7.9-3.3c-2.9-0.7-5.8-1.1-8.8-1.1c-4.1,0-8,0.7-11.8,2.2l0,0
		c-3.5,1.4-6.5,3.6-8.9,6.5l0,0c-1.8-2.1-4-4-6.3-5.3c-4.1-2.3-8.7-3.5-13.3-3.4l0,0c-4.9,0-9.6,1.2-13.8,3.6l0,0
		c-1.5,0.8-2.9,1.9-4.2,3v-8.8l0,0c0.1-4.2-1.6-8.1-4.8-10.8l0,0c-5.8-4.5-13.9-4.5-19.7,0l0,0c-3.2,2.7-5,6.6-4.8,10.7v8.9
		c-1.6-1.4-3.4-2.6-5.3-3.6l0,0c-9.3-4.4-20.1-4.4-29.4,0l0,0c-3.1,1.6-5.9,3.8-8.2,6.5c-0.5-1-1.1-1.9-1.8-2.8c-2.6-3.2-7.4-7-16-7
		l0,0c-1.6,0-3.2,0.1-4.7,0.4v-2.9l0,0c0-3.9-1.6-7.6-4.5-10.2c-2.8-2.4-6.3-3.6-10-3.6l0,0c-3.8-0.1-7.4,1.2-10.2,3.7
		c-0.1-0.1-0.2-0.2-0.3-0.3c-6-5.3-15.2-4.6-20.4,1.5c-1.2,1.4-2.1,3-2.7,4.7l-3.9,10.9l-3.7-10.7c-2.5-7.5-10.7-11.6-18.2-9.1
		c-4.2,1.4-7.5,4.7-9,8.8l-4,10.9l-3.8-10.8c-1-3.1-3.1-5.7-5.8-7.4c-5.5-3.4-12.6-3-17.7,1.1l0,0c-3.2,2.6-5,6.4-4.9,10.5l0,0
		c0,1.9,0.3,3.8,1,5.5L73.1,263l0,0c1.1,3.1,3.3,5.7,6.1,7.4l0,0c5.2,3.1,11.6,3.1,16.8,0l0,0c2.8-1.6,5-4.2,6.1-7.2
		c0,0,3.4-9.3,3.4-9.3l3.2,9.1l0,0c1.1,3.1,3.3,5.7,6.1,7.4c2.6,1.5,5.5,2.3,8.5,2.3c3,0,5.9-0.7,8.5-2.3l0,0
		c2.9-1.6,5.1-4.3,6.2-7.4l8.1-21.8v17.1l0,0c-0.1,3.9,1.5,7.7,4.4,10.4c5.9,5,14.6,5,20.5,0l0,0c1-0.9,1.9-2,2.6-3.2l0,0
		c0.7,1.2,1.5,2.3,2.6,3.2c0.5,0.4,1,0.9,1.6,1.3l0,0c-2.8,2.6-4.4,6.3-4.3,10.2l0,0c0,1.5,0.2,3.1,0.7,4.6h0c-0.4,0-0.9,0-1.3,0
		l-1,0l0,0c-2.8,0.1-5.5,0.9-7.9,2.2l0,0c-2.4-1.6-5.3-2.4-8.2-2.3c-0.4,0-0.7,0-1.1,0l0,0c0.2-0.9,0.3-1.8,0.3-2.8l0,0
		c0-4-1.6-7.7-4.6-10.3c-6-5.3-15.2-4.6-20.4,1.4c-1.2,1.4-2.1,3-2.7,4.7l-3.9,10.9l-3.7-10.7c-2.5-7.5-10.7-11.6-18.2-9.1
		c-4.2,1.4-7.5,4.7-9,8.8l-4,10.9L84.5,278c-1-3.1-3.1-5.7-5.8-7.4c-5.5-3.4-12.6-3-17.7,1.1l0,0c-3.2,2.6-5,6.4-4.9,10.5
		c0,1.9,0.3,3.7,1,5.5L73,330.4l0,0c1.1,3.1,3.3,5.7,6.1,7.4l0,0c5.2,3.1,11.6,3.1,16.8,0l0,0c2.8-1.6,5-4.2,6.1-7.2
		c0,0,3.4-9.3,3.4-9.3l3.2,9.1l0,0c1.1,3.1,3.3,5.7,6.1,7.4l0,0c2.6,1.5,5.5,2.3,8.5,2.3l0,0c3,0,5.9-0.7,8.5-2.3l0,0
		c2.9-1.6,5.1-4.3,6.2-7.4l3.3-8.9v4.2l0,0c-0.2,4.2,1.6,8.2,4.9,10.8l0,0c5.8,4.4,13.8,4.4,19.6,0l0,0c3.2-2.6,5.1-6.6,4.9-10.8
		v-13.5c0-0.1,0-0.2,0-0.2c0.1,0,0.3,0,0.5-0.1l2.3-0.2c0.3,0,0.5-0.1,0.8-0.1v14.1l0,0c-0.2,4.2,1.6,8.2,4.9,10.8l0,0
		c5.8,4.4,13.8,4.4,19.6,0l0,0c0.4-0.3,0.8-0.7,1.2-1.1c0.1,0,0.2,0.1,0.3,0.2l0,0c2.6,1.6,5.5,2.7,8.6,3.4l0,0
		c3.5,0.7,7,1,10.5,0.9c6.9,0,12.7-1.6,17.2-4.9l0,0c1.9-1.4,3.6-3.1,4.9-5l0,0c0.6,1,1.4,2,2.3,2.9c3.8,3.9,9,6,15.7,6.5l2.3,0.1
		c0.5,0,1.1,0,1.6,0c3.1,0.1,6.2-0.7,9-2.3c0,0,0.1,0,0.1-0.1c2.5,1.6,5.4,2.5,8.5,2.4c2.9,0,5.8-0.7,8.3-2.3l0.1,0
		c9.8,4.8,21.5,2.3,28.5-6c1.9,2.5,4.4,4.6,7.2,5.9l0,0c3.3,1.6,6.9,2.4,10.6,2.4l0,0c3.1,0,6.2-0.6,9-2l0,0
		c2.2,1.2,4.8,1.9,7.3,1.9c3.8,0.1,7.4-1.2,10.2-3.8c0.1-0.1,0.3-0.3,0.5-0.5c0.2,0.2,0.4,0.4,0.6,0.5c5.9,5,14.6,5,20.5,0l0,0
		c1-0.9,1.9-2,2.6-3.2c0.7,1.2,1.5,2.3,2.6,3.2c5.9,5,14.6,5,20.6,0l0,0c1.1-1,2-2.2,2.7-3.5c1.2,1.3,2.7,2.5,4.2,3.5l0,0
		c7,4.5,15.9,5.1,23.4,1.4l0.1,0l0,0c2.5,1.5,5.3,2.3,8.2,2.2l0,0c3.8,0.1,7.4-1.2,10.2-3.7c0.2-0.2,0.4-0.4,0.7-0.7
		c0.1,0.1,0.3,0.1,0.4,0.2l0,0c2.6,1.6,5.5,2.7,8.5,3.4l0,0c3.5,0.7,7,1,10.5,0.9c6.9,0,12.7-1.6,17.2-4.9l0,0
		c5.1-3.5,8-9.2,7.9-15.4l0,0c0.1-4.4-1.3-8.6-4.1-11.9L499.7,308.7z M263.1,278.5L263.1,278.5c-5.9-5.2-14.8-5.2-20.7,0l0,0
		c-2.4,2.2-3.9,5.3-4.2,8.5l0,0c-1.2,0.3-2.4,0.9-3.4,1.6c-1.9-0.9-3.9-1.6-5.9-2.2c-2.9-0.7-5.8-1.1-8.8-1.1l0,0
		c-4.1,0-8,0.7-11.8,2.2l0,0c-2.5,1-4.8,2.4-6.7,4.2c-0.3-0.4-0.5-0.8-0.9-1.2l0,0c5.3-5.9,4.9-15-1-20.4l0,0
		c-0.6-0.5-1.3-1-2.1-1.4l0,0c0.9-1,1.7-2.1,2.3-3.4c1.9,1.8,4.1,3.4,6.4,4.6l0,0c9.3,4.4,20.1,4.4,29.4,0l0,0
		c2.4-1.2,4.6-2.9,6.5-4.8c0.8,1.8,2,3.4,3.6,4.7l0,0c5.8,4.4,13.8,4.4,19.6,0l0,0c1.5-1.2,2.7-2.8,3.5-4.5l0,0
		c1.9,1.9,4.1,3.5,6.5,4.7c0,0,0.1,0,0.2,0.1l0,0c-1.7,0.6-3.3,1.5-4.7,2.8l0,0c-2.9,2.6-4.6,6.3-4.5,10.2v0.7l0,0
		c-0.7-2-1.9-3.9-3.5-5.3H263.1z M433.5,282.8v2.8c-1.3-0.2-2.7-0.3-4-0.3c-4.6,0-9.1,1.2-13,3.6l0,0c-2.4,1.5-4.5,3.4-6.1,5.6l0,0
		c-0.4-0.8-1-1.5-1.6-2.3c-2.6-3.2-7.5-6.9-16.2-6.9l0,0c-3.6,0-7.2,0.7-10.5,2.3l-0.2,0.1l0,0c-2.4-1.6-5.3-2.4-8.2-2.3l0,0
		c-3.8-0.1-7.4,1.2-10.2,3.7l0,0c-1.1,1-2.1,2.2-2.8,3.5c-0.2-0.3-0.5-0.6-0.8-0.9c-4.3-4.3-10.6-6.5-18.6-6.5l0,0
		c-3.3,0-6.5,0.3-9.8,1l0,0c-3.1,0.6-6,1.6-8.9,3c0,0-0.1,0-0.2,0.1l0,0c-1.8,0.9-3.4,2.3-4.6,4c-1.5-1.7-3.2-3.2-5.2-4.5
		c-3.9-2.4-8.4-3.7-13-3.6c-1.3,0-2.7,0.1-4,0.3v-2.8l0,0c0-3.6-1.4-7.1-4-9.7l0,0c2.3-0.1,4.7-0.5,6.9-1.1l0,0
		c2.7-0.6,5.4-1.6,7.9-2.8c0,0,0.1-0.1,0.2-0.1c0.4-0.2,0.8-0.5,1.3-0.8c0.2,0.2,0.5,0.3,0.9,0.5l0,0c2.6,1.6,5.5,2.7,8.6,3.4l0,0
		c3.5,0.7,7,1,10.5,0.9c6.9,0,12.7-1.6,17.2-4.9l0,0c0.7-0.5,1.5-1.1,2.1-1.8l0,0c1.6,1.7,3.6,3.1,5.7,4.2l0,0
		c3.3,1.6,6.9,2.4,10.6,2.4c3.1,0,6.2-0.6,9-2c2.2,1.2,4.8,1.9,7.3,1.9c3.8,0.1,7.4-1.2,10.2-3.8c0.1-0.1,0.3-0.3,0.4-0.5l0,0
		c0.3,0.3,0.7,0.7,1.1,1l0,0c5.8,4.4,13.8,4.4,19.6,0l0,0c1.5-1.2,2.7-2.8,3.5-4.5l0,0c1.9,1.9,4.1,3.5,6.5,4.7l0,0
		c4.6,2.2,9.6,3.4,14.7,3.3c0.4,0,0.8,0,1.2,0l0,0c-2.6,2.5-4,6-3.9,9.6L433.5,282.8z"/>
	<path class="st1" d="M141.2,276.7c-1.4,0-2.8,0.4-3.9,1.2l0,0c-1.2,0.8-2.1,2-2.6,3.4l-11.2,31.7l-10.7-31.6
		c-0.8-2.8-3.5-4.7-6.4-4.7c-1.4,0-2.8,0.4-3.9,1.2l0,0c-1.2,0.8-2.1,2-2.6,3.4l-11.4,31l-10.7-31c-0.4-1.4-1.4-2.6-2.6-3.4
		c-1.2-0.7-2.6-1.1-4.1-1.1c-1.8,0-3.5,0.5-4.9,1.7l0,0c-1.4,1.1-2.2,2.8-2.1,4.6l0,0c0,1,0.2,2,0.5,3l15.9,42.7l0,0
		c0.5,1.4,1.5,2.7,2.8,3.4l0,0c1.4,0.8,2.9,1.2,4.6,1.2l0,0c1.6,0,3.1-0.4,4.5-1.2l0,0c1.3-0.8,2.3-2,2.9-3.4l10.7-29.2l10.2,29.2
		l0,0c0.5,1.4,1.5,2.7,2.8,3.4l0,0c1.4,0.8,2.9,1.2,4.6,1.2c1.6,0,3.2-0.4,4.6-1.2l0,0c1.3-0.7,2.4-2,2.9-3.4l15.8-42.7l0,0
		c0.3-1,0.6-2.1,0.6-3.1l0,0c0.1-1.7-0.6-3.4-1.9-4.5c-1.2-1.1-2.9-1.7-4.5-1.7L141.2,276.7z M173.8,293.1l-1.1,0.1l0,0
		c-2.2,0.1-4.2,0.8-6,2l0,0c-1.9,1.3-3.4,3.2-4.1,5.3v-1.5l0,0c0.1-1.7-0.5-3.3-1.8-4.4l0,0c-1.3-1.1-3-1.7-4.7-1.6l0,0
		c-1.7,0-3.5,0.5-4.9,1.6l0,0c-1.4,1.1-2.1,2.9-2,4.6v27.2l0,0c-0.1,1.8,0.6,3.6,2,4.8c3,2.1,7,2.1,10,0l0,0c1.4-1.2,2.1-3,2-4.9
		v-13.5l0,0c-0.1-2,0.5-3.9,1.7-5.4c1.1-1.3,3-2.2,5.6-2.5l2.4-0.2c2.5-0.2,4.3-0.9,5.2-1.8l0,0c1.1-1.3,1.6-2.9,1.4-4.6l0,0
		c0.1-1.6-0.4-3.2-1.6-4.3l0,0c-1.2-1-2.7-1.4-4.3-1.2L173.8,293.1z M194.8,276c-3.4-2.4-7.9-2.4-11.2,0l0,0c-1.4,1.2-2.2,3-2.1,4.9
		l0,0c-0.1,1.9,0.7,3.7,2.1,4.9l0,0c3.3,2.5,7.9,2.5,11.2,0l0,0c1.4-1.2,2.1-3.1,2.1-4.9l0,0C197,279,196.2,277.2,194.8,276
		L194.8,276z M194.2,294.8c-3-2.1-7-2.1-10,0l0,0c-1.4,1.2-2.1,3-2,4.8v27l0,0c-0.1,1.8,0.6,3.6,2,4.8c3,2.1,7,2.1,10,0l0,0
		c1.4-1.2,2.1-3,2-4.9v-27l0,0c0.1-1.8-0.6-3.6-2-4.9L194.2,294.8z M233.9,312.9c-2.1-1.8-5.7-3.2-10.7-4.1l0,0
		c-2.1-0.3-4.1-0.8-6.1-1.6l0,0c-0.9-0.3-1.5-1-1.5-2l0,0c0-0.7,0.4-1.4,1.1-1.7l0,0c0.9-0.4,2-0.6,3.1-0.6l0,0
		c1.1,0,2.3,0.1,3.4,0.4l0,0c1.1,0.3,2.2,0.8,3.3,1.3c1.5,0.8,3.2,1.2,4.9,1.3l0,0c1.1,0,2.2-0.5,2.9-1.5l0,0c0.8-1,1.2-2.4,1.2-3.7
		l0,0c0.1-1.9-0.8-3.6-2.4-4.6l0,0c-1.8-1.1-3.9-1.9-5.9-2.4c-2.2-0.6-4.6-0.9-6.9-0.9l0,0c-3,0-6,0.5-8.8,1.6l0,0
		c-2.4,0.9-4.6,2.5-6.2,4.6l0,0c-1.5,1.8-2.3,4.2-2.2,6.5l0,0c-0.2,2.9,0.9,5.7,3.1,7.7c2.1,1.8,5.4,3.2,10.1,4.1
		c2.6,0.5,4.5,0.9,5.6,1.2c0.8,0.1,1.5,0.4,2.2,0.9c0.4,0.3,0.6,0.8,0.6,1.3l0,0c0,0.7-0.5,1.4-1.2,1.7l0,0c-1,0.4-2.2,0.6-3.3,0.6
		l0,0c-1.6,0-3.3-0.1-4.9-0.5c-1.3-0.3-2.8-0.7-4.5-1.3l0,0c-0.8-0.3-1.6-0.6-2.5-0.9l0,0c-0.7-0.2-1.5-0.3-2.2-0.3
		c-1.1,0-2.2,0.5-2.9,1.4l0,0c-0.8,1-1.2,2.2-1.1,3.5l0,0c0,1,0.2,2,0.6,3c0.3,0.8,0.9,1.5,1.7,1.9l0,0c1.9,1.2,4.1,2,6.3,2.5l0,0
		c2.9,0.5,5.9,0.8,8.9,0.8c5.3,0,9.6-1.1,12.8-3.4l0,0c3-2,4.9-5.5,4.8-9.2C237,317.2,236,314.6,233.9,312.9L233.9,312.9z
		 M265.3,323.1L263,323l0,0c-0.9,0-1.7-0.4-2.3-1.1l0,0c-0.6-0.7-0.9-1.6-0.9-2.5v-15.1h4.3c4.2,0,6.3-1.7,6.3-5.2
		c0-3.4-2.1-5.1-6.3-5.1h-4.3v-5.1l0,0c0.1-1.8-0.6-3.5-1.9-4.8c-3-2.4-7.2-2.4-10.2,0l0,0c-1.3,1.2-2,3-1.9,4.8v5.1h-2.3
		c-4.2,0-6.3,1.7-6.3,5.1c0,3.5,2.1,5.2,6.3,5.2h2.3v13.9c0,4.5,1.2,7.9,3.7,10.4c2.4,2.5,6,3.9,10.7,4.3l2.2,0.1l0,0
		c2.1,0.2,4.2-0.1,6-1.1l0,0c1.4-0.9,2.2-2.4,2.1-4.1C270.5,324.8,268.8,323.3,265.3,323.1L265.3,323.1z M308.7,295.4
		c-2.7-1.7-5.7-2.5-8.9-2.4c-2.4,0-4.7,0.5-6.8,1.5l0,0c-1.9,0.9-3.6,2.3-4.9,4v-15.7l0,0c0-1.7-0.6-3.3-1.9-4.4
		c-1.4-1.1-3.2-1.7-5-1.7c-1.9-0.1-3.8,0.5-5.2,1.8l0,0c-1.3,1.1-2,2.8-2,4.5v43.5l0,0c-0.1,1.7,0.6,3.5,1.8,4.7
		c1.3,1.2,3.2,1.8,5,1.8l0,0c1.7,0.1,3.5-0.4,4.8-1.5l0,0c1.2-1,2-2.6,2.1-4.2l0,0c1.1,1.9,2.8,3.4,4.8,4.3c5.1,2.4,11.1,2,15.9-1
		l0,0c2.7-1.8,4.8-4.3,6-7.2l0,0c1.5-3.3,2.2-7,2.2-10.6l0,0c0.1-3.6-0.6-7.2-2.2-10.5l0,0C313.3,299.4,311.2,297.1,308.7,295.4
		L308.7,295.4z M301.1,320.2L301.1,320.2c-2.7,3.1-7.4,3.4-10.5,0.7c-0.2-0.2-0.5-0.4-0.7-0.7c-1.3-1.7-2-4.1-2-7.2
		c0-3.1,0.6-5.4,2-7.1l0,0c1.4-1.7,3.5-2.6,5.6-2.5l0,0c2.1-0.1,4.2,0.8,5.5,2.4c1.4,2,2.1,4.5,1.9,7
		C303.1,316,302.4,318.5,301.1,320.2L301.1,320.2z M341.3,292.9L341.3,292.9c-2.8,0-5.5,0.3-8.2,0.8l0,0c-2.4,0.4-4.7,1.2-6.9,2.3
		l0,0c-0.9,0.4-1.7,1.1-2.3,2l0,0c-0.5,0.8-0.7,1.8-0.7,2.8l0,0c0,1.3,0.3,2.6,1.2,3.7l0,0c0.7,0.9,1.9,1.4,3.1,1.4l0,0
		c1,0,2.1-0.2,3.1-0.6l0,0c3-1.2,6.2-2,9.4-2.2l0,0c1.5-0.1,3,0.3,4.2,1.2l0,0c0.9,1.1,1.4,2.5,1.2,4v0.9h-2.2l0,0
		c-4.3-0.1-8.6,0.2-12.7,1.1l0,0c-2.6,0.4-5,1.7-6.9,3.6l0,0c-1.5,1.9-2.3,4.3-2.2,6.6l0,0c0,2.3,0.6,4.6,1.8,6.5s3,3.5,5.1,4.5
		c2.2,1.1,4.7,1.6,7.2,1.6l0,0c2.2,0,4.3-0.5,6.2-1.6l0,0c1.7-1,3-2.6,3.7-4.4l0,0c0,1.6,0.7,3.2,1.9,4.3l0,0
		c1.2,1.1,2.9,1.6,4.5,1.6c1.8,0.1,3.6-0.5,4.9-1.7l0,0c1.2-1.2,1.8-3,1.7-4.7V310c0-5.8-1.4-10.2-4.3-13s-7.3-4.3-13.2-4.3
		L341.3,292.9z M345.5,316.7c0,1.9-0.6,3.7-1.8,5.2l0,0c-1.2,1.3-2.9,2-4.7,2l0,0c-1.1,0-2.2-0.4-2.9-1.2l0,0
		c-0.8-0.8-1.2-1.9-1.1-3c0-1.4,0.8-2.6,2.1-3l0,0c2.3-0.7,4.7-1,7.1-0.9h1.2L345.5,316.7z M392.7,292.9c-2.5,0-4.9,0.5-7.2,1.6l0,0
		c-2.1,1-4,2.6-5.3,4.6l0,0c0-1.6-0.6-3.2-1.8-4.3c-1.3-1.1-3-1.7-4.8-1.7l0,0c-1.9-0.1-3.7,0.5-5.1,1.8l0,0c-1.3,1.1-2,2.8-2,4.5
		v27.2l0,0c-0.1,1.8,0.6,3.5,1.9,4.7c3,2.3,7.2,2.3,10.2,0l0,0c1.3-1.2,2-3,1.9-4.7v-15.7c-0.1-2,0.5-3.9,1.8-5.4l0,0
		c1.3-1.4,3.1-2.1,5-2l0,0c1.4-0.1,2.8,0.5,3.7,1.6l0,0c0.9,1.5,1.3,3.3,1.2,5v16.3l0,0c-0.1,1.8,0.6,3.5,1.9,4.7
		c3,2.3,7.2,2.3,10.2,0l0,0c1.3-1.2,2-3,1.9-4.7v-17c0-5.6-1.1-9.8-3.4-12.5c-2.3-2.8-5.7-4.2-10.3-4.2L392.7,292.9z M453.1,278.5
		L453.1,278.5c-1.4-1.2-3.3-1.8-5.2-1.8l0,0c-1.8-0.1-3.6,0.5-5,1.6l0,0c-1.2,1.1-1.9,2.7-1.8,4.4v15.7l0,0c-1.2-1.7-2.9-3.1-4.9-4
		c-2.1-1-4.5-1.5-6.8-1.5l0,0c-3.2,0-6.2,0.8-8.9,2.4l0,0c-2.7,1.7-4.8,4.1-6,6.9l0,0c-1.5,3.3-2.2,6.9-2.2,10.5l0,0
		c-0.1,3.7,0.7,7.3,2.2,10.6c1.3,2.9,3.4,5.4,6.1,7.2c4.8,3,10.7,3.4,15.9,1l0,0c2-0.9,3.7-2.4,4.8-4.3l0,0c0.1,1.6,0.8,3.1,2.1,4.2
		l0,0c2.9,2.1,6.9,2,9.8-0.2l0,0c1.3-1.2,2-3,1.9-4.7V283l0,0c0-1.7-0.7-3.4-2-4.5L453.1,278.5z M439.4,320.2L439.4,320.2
		c-1.4,1.7-3.5,2.6-5.6,2.5l0,0c-2.2,0.1-4.2-0.9-5.5-2.6l0,0c-1.5-2.1-2.2-4.7-2-7.3l0,0c-0.2-2.5,0.5-5,2-7l0,0
		c2.9-3.1,7.7-3.3,10.8-0.4c0.1,0.1,0.3,0.3,0.4,0.4c1.3,1.6,1.9,4,2,7.1C441.4,316,440.7,318.5,439.4,320.2L439.4,320.2z
		 M492.9,312.8c-2.1-1.8-5.7-3.2-10.7-4.1l0,0c-2.1-0.3-4.1-0.8-6.1-1.6l0,0c-0.9-0.3-1.5-1-1.5-2l0,0c0-0.7,0.4-1.4,1.1-1.7l0,0
		c0.9-0.4,2-0.6,3.1-0.6l0,0c1.1,0,2.3,0.1,3.4,0.4l0,0c1.1,0.3,2.2,0.8,3.3,1.3c1.5,0.8,3.2,1.2,4.9,1.3l0,0c1.1,0,2.2-0.5,2.9-1.5
		l0,0c0.8-1,1.2-2.4,1.2-3.7l0,0c0.1-1.9-0.8-3.6-2.4-4.6l0,0c-1.8-1.1-3.9-1.9-5.9-2.4c-2.2-0.6-4.6-0.9-6.9-0.9l0,0
		c-3,0-6,0.5-8.8,1.6l0,0c-2.4,0.9-4.6,2.5-6.2,4.6l0,0c-1.5,1.8-2.3,4.2-2.2,6.5l0,0c-0.2,2.9,0.9,5.7,3.1,7.7
		c2.1,1.8,5.4,3.2,10.1,4.1c2.6,0.5,4.5,0.9,5.6,1.2c0.8,0.1,1.5,0.4,2.2,0.9c0.4,0.3,0.6,0.8,0.6,1.3l0,0c0,0.7-0.5,1.4-1.2,1.7
		l0,0c-1,0.4-2.2,0.6-3.3,0.6l0,0c-1.6,0-3.3-0.1-4.9-0.5c-1.3-0.3-2.8-0.7-4.5-1.3l0,0c-0.8-0.3-1.6-0.6-2.5-0.9
		c-0.7-0.2-1.5-0.3-2.2-0.3c-1.1,0-2.2,0.5-2.9,1.4l0,0c-0.8,1-1.2,2.2-1.1,3.5l0,0c0,1,0.2,2,0.6,3c0.3,0.8,0.9,1.5,1.7,1.9l0,0
		c1.9,1.2,4.1,2,6.3,2.5l0,0c2.9,0.5,5.9,0.8,8.9,0.8c5.3,0,9.6-1.1,12.8-3.4l0,0c3-2,4.9-5.5,4.8-9.2
		C496,317.1,494.9,314.5,492.9,312.8L492.9,312.8z M141.1,209c-1.4,0-2.8,0.4-3.9,1.2l0,0c-1.2,0.8-2.1,2-2.6,3.4l-11.2,31.7
		l-10.7-31.6c-0.8-2.8-3.5-4.7-6.4-4.7c-1.4,0-2.8,0.4-3.9,1.2l0,0c-1.2,0.8-2.1,2-2.6,3.4l-11.4,31l-10.7-31
		c-0.4-1.4-1.4-2.6-2.6-3.4l0,0c-1.2-0.7-2.6-1.1-4.1-1.1l0,0c-1.8,0-3.5,0.5-4.9,1.7l0,0c-1.4,1.1-2.2,2.8-2.1,4.6c0,1,0.2,2,0.5,3
		L80.5,261l0,0c0.5,1.4,1.5,2.7,2.8,3.4l0,0c1.4,0.8,2.9,1.2,4.6,1.2l0,0c1.6,0,3.1-0.4,4.5-1.2l0,0c1.3-0.8,2.3-2,2.9-3.4
		l10.7-29.2l10.2,29.2l0,0c0.5,1.4,1.5,2.7,2.8,3.4l0,0c1.4,0.8,2.9,1.2,4.6,1.2c1.6,0,3.2-0.4,4.6-1.2l0,0c1.3-0.7,2.4-2,2.9-3.4
		l15.8-42.7l0,0c0.3-1,0.6-2.1,0.6-3.1l0,0c0.1-1.7-0.6-3.4-1.9-4.5c-1.2-1.1-2.9-1.7-4.5-1.7L141.1,209z M181.6,263.7
		c3,2.3,7.2,2.3,10.2,0l0,0c1.3-1.2,2-3,1.9-4.7v-17c0-5.6-1.1-9.8-3.3-12.5c-2.2-2.8-5.5-4.2-10.1-4.2c-2.4,0-4.9,0.4-7.1,1.4l0,0
		c-2.1,0.9-3.9,2.4-5.3,4.2v-15.8l0,0c0-1.7-0.6-3.3-1.9-4.4l0,0c-1.4-1.1-3.2-1.7-5-1.7l0,0c-1.9-0.1-3.8,0.5-5.2,1.8l0,0
		c-1.3,1.1-2,2.8-2,4.5v43.5l0,0c-0.1,1.8,0.6,3.5,1.9,4.7c3,2.3,7.2,2.3,10.2,0l0,0c1.3-1.2,2-3,1.9-4.7v-15.6
		c-0.1-2,0.5-3.9,1.8-5.4l0,0c1.3-1.4,3.1-2.1,5-2c3.2,0,4.9,1.9,4.9,5.6v17.3l0,0c-0.1,1.8,0.6,3.5,1.9,4.7L181.6,263.7z
		 M209.8,263.1c7.1,3.3,15.3,3.3,22.4,0l0,0c3.1-1.6,5.7-4,7.4-7l0,0c1.8-3.3,2.7-7,2.6-10.7l0,0c0.1-3.7-0.8-7.4-2.6-10.6l0,0
		c-1.7-3-4.3-5.4-7.4-7l0,0c-7.1-3.3-15.4-3.3-22.5,0l0,0c-3.1,1.5-5.7,4-7.4,6.9l0,0c-1.8,3.2-2.7,6.9-2.6,10.6l0,0
		c-0.1,3.7,0.8,7.4,2.6,10.7C204.1,259,206.7,261.4,209.8,263.1L209.8,263.1z M221,235.6c5,0,7.5,3.2,7.5,9.8c0,6.5-2.5,9.8-7.5,9.8
		c-5,0-7.5-3.3-7.5-9.8C213.6,238.9,216,235.6,221,235.6L221,235.6z M250.7,263.8c3,2.1,7,2.1,10,0l0,0c1.4-1.2,2.1-3,2-4.9v-43.3
		l0,0c0.1-1.8-0.6-3.7-2-4.9c-3-2.2-7-2.2-10,0l0,0c-1.4,1.2-2.1,3-2,4.9v43.4l0,0c-0.1,1.8,0.6,3.6,2,4.8L250.7,263.8z
		 M278.9,263.1L278.9,263.1c3.5,1.7,7.3,2.5,11.2,2.4l0,0c2.3,0,4.5-0.3,6.7-0.9l0,0c2.2-0.5,4.3-1.3,6.3-2.2l0,0
		c1.9-0.8,3.1-2.7,3.1-4.8l0,0c0-1.3-0.3-2.6-1.1-3.7l0,0c-0.7-0.9-1.8-1.4-2.9-1.4l0,0c-0.7,0-1.4,0.1-2.1,0.3
		c-0.7,0.2-1.5,0.5-2.3,0.8l0,0c-1.2,0.4-2.4,0.9-3.7,1.2l0,0c-1.2,0.3-2.4,0.4-3.6,0.4l0,0c-2,0.1-4-0.4-5.6-1.7
		c-1.4-1.5-2.3-3.4-2.4-5.4h20.8c0.9,0,1.8-0.3,2.4-1l0,0c0.6-0.8,0.9-1.8,0.8-2.8l0,0c0.1-3.5-0.7-7-2.2-10.2l0,0
		c-1.4-2.8-3.6-5.1-6.3-6.7c-2.9-1.6-6.2-2.4-9.5-2.4l0,0c-3.5,0-7,0.8-10,2.6l0,0c-2.9,1.7-5.3,4.2-6.9,7.1l0,0
		c-1.7,3.2-2.5,6.8-2.5,10.4l0,0c-0.1,3.7,0.8,7.4,2.6,10.7c1.7,3,4.3,5.4,7.4,7L278.9,263.1z M284.3,236.5L284.3,236.5
		c1.1-1.2,2.7-1.8,4.4-1.8c3.7,0,5.6,2.3,6,6.9h-12.4l0,0C282.4,239.8,283.1,237.9,284.3,236.5L284.3,236.5z M340.8,262.1
		L340.8,262.1c3-2,4.9-5.5,4.8-9.2c0-3.4-1-6-3.1-7.8c-2.1-1.8-5.7-3.2-10.7-4.1l0,0c-2.1-0.3-4.1-0.8-6.1-1.6l0,0
		c-0.9-0.3-1.5-1-1.5-2l0,0c0-0.7,0.4-1.4,1.1-1.7l0,0c0.9-0.4,2-0.6,3.1-0.6l0,0c1.1,0,2.3,0.1,3.4,0.4s2.2,0.8,3.3,1.3
		c1.5,0.8,3.2,1.2,4.9,1.3l0,0c1.1,0,2.2-0.5,2.9-1.5l0,0c0.8-1,1.2-2.4,1.2-3.7l0,0c0.1-1.9-0.8-3.6-2.4-4.6
		c-1.8-1.1-3.9-1.9-5.9-2.4c-2.2-0.6-4.6-0.9-6.9-0.9c-3,0-6,0.5-8.8,1.6l0,0c-2.4,0.9-4.6,2.5-6.2,4.6l0,0
		c-1.5,1.8-2.3,4.2-2.2,6.5l0,0c-0.2,2.9,0.9,5.7,3.1,7.7c2.1,1.8,5.4,3.2,10.1,4.1c2.6,0.5,4.5,0.9,5.6,1.2
		c0.8,0.1,1.5,0.4,2.2,0.9c0.4,0.3,0.6,0.8,0.6,1.3l0,0c0,0.7-0.5,1.4-1.2,1.7l0,0c-1,0.4-2.2,0.6-3.3,0.6l0,0
		c-1.6,0-3.3-0.1-4.9-0.5c-1.3-0.3-2.8-0.7-4.5-1.3c-0.8-0.3-1.6-0.6-2.5-0.9c-0.7-0.2-1.5-0.3-2.2-0.3c-1.1,0-2.2,0.5-2.9,1.4l0,0
		c-0.8,1-1.2,2.2-1.1,3.5l0,0c0,1,0.2,2,0.6,3c0.3,0.8,0.9,1.5,1.7,1.9l0,0c1.9,1.2,4.1,2,6.3,2.5l0,0c2.9,0.5,5.9,0.8,8.9,0.8
		C333.4,265.5,337.6,264.3,340.8,262.1L340.8,262.1z M373.7,259.6L373.7,259.6c0,1.6,0.7,3.1,1.9,4.2l0,0c1.2,1.1,2.9,1.6,4.5,1.6
		c1.8,0.1,3.6-0.5,4.9-1.7l0,0c1.2-1.2,1.8-3,1.7-4.7v-16.4c0-5.8-1.4-10.2-4.3-13c-2.9-2.9-7.3-4.3-13.2-4.3l0,0
		c-2.8,0-5.5,0.3-8.2,0.8l0,0c-2.4,0.4-4.7,1.2-6.9,2.3l0,0c-0.9,0.4-1.7,1.1-2.3,2l0,0c-0.5,0.8-0.7,1.8-0.7,2.8l0,0
		c0,1.3,0.3,2.6,1.2,3.7l0,0c0.7,0.9,1.9,1.4,3.1,1.4l0,0c1,0,2.1-0.2,3.1-0.6l0,0c3-1.2,6.2-2,9.4-2.2l0,0c1.5-0.1,3,0.3,4.2,1.2
		l0,0c0.9,1.1,1.4,2.5,1.2,4v0.9h-2.1l0,0c-4.3-0.1-8.6,0.2-12.7,1.1l0,0c-2.6,0.4-5,1.7-6.9,3.6l0,0c-1.5,1.9-2.3,4.3-2.2,6.6l0,0
		c0,2.3,0.6,4.6,1.8,6.5c1.2,1.9,3,3.5,5.1,4.5c2.2,1.1,4.7,1.6,7.2,1.6l0,0c2.2,0,4.3-0.5,6.2-1.6l0,0c1.7-1,3-2.6,3.7-4.4
		L373.7,259.6z M364.1,255L364.1,255c-0.8-0.8-1.2-1.9-1.1-3l0,0c0-1.4,0.8-2.6,2.1-3l0,0c2.3-0.7,4.7-1,7.1-0.9h1.2v0.9
		c0,1.9-0.6,3.7-1.8,5.2l0,0c-1.2,1.3-2.9,2-4.7,2l0,0C365.9,256.2,364.8,255.7,364.1,255L364.1,255z M406.6,210.8
		c-3-2.2-7-2.2-10,0l0,0c-1.4,1.2-2.1,3-2,4.9v43.3l0,0c-0.1,1.8,0.6,3.6,2,4.8c3,2.1,7,2.1,10,0l0,0c1.4-1.2,2.1-3,2-4.9v-43.3l0,0
		c0.1-1.8-0.6-3.7-2-4.9L406.6,210.8z M424.9,263.1L424.9,263.1c3.5,1.7,7.3,2.5,11.2,2.4l0,0c2.3,0,4.5-0.3,6.7-0.9l0,0
		c2.2-0.5,4.3-1.3,6.3-2.2l0,0c1.9-0.8,3.1-2.7,3.1-4.8l0,0c0-1.3-0.3-2.6-1.1-3.7l0,0c-0.7-0.9-1.8-1.4-2.9-1.4l0,0
		c-0.7,0-1.4,0.1-2.1,0.3c-0.7,0.2-1.5,0.5-2.3,0.8l0,0c-1.2,0.4-2.4,0.9-3.7,1.2l0,0c-1.2,0.3-2.4,0.4-3.6,0.4l0,0
		c-2,0.1-4-0.4-5.6-1.7c-1.4-1.5-2.3-3.4-2.4-5.4h20.8c0.9,0,1.8-0.3,2.4-1l0,0c0.6-0.8,0.9-1.8,0.8-2.8l0,0c0.1-3.5-0.7-7-2.2-10.2
		l0,0c-1.4-2.8-3.6-5.1-6.3-6.7c-2.9-1.6-6.2-2.4-9.5-2.4l0,0c-3.5,0-7,0.8-10,2.6l0,0c-2.9,1.7-5.3,4.2-6.9,7.1l0,0
		c-1.7,3.2-2.5,6.8-2.5,10.4l0,0c-0.1,3.7,0.8,7.4,2.6,10.7c1.7,3,4.3,5.4,7.4,7L424.9,263.1z M430.3,236.5L430.3,236.5
		c1.1-1.2,2.7-1.8,4.4-1.8c3.7,0,5.6,2.3,6,6.9h-12.3l0,0C428.4,239.8,429.1,237.9,430.3,236.5L430.3,236.5z"/>
	<g>
		<path class="st0" d="M55.4,305.2c-4.2,3.6-8.3,6.4-12.1,8.2c-2.6,1.2-7.2,3-10.1,1.3c-4.8-2.8-4.4-14.5-2.7-23.6
			c2.8-14.7,9.9-32.4,20.1-49.8c14-23.9,31.7-43.5,45.3-49.9c2.6-1.2,7.3-3,10.1-1.3c1.1,0.6,2,1.8,2.6,3.3c3.5,0.4,6.9,1.6,10,3.7
			l0,0c1.8,1.3,3.5,2.8,4.9,4.6c1.4-1.8,3.1-3.4,5.1-4.7c1.9-1.2,3.9-2.2,5.9-2.8c-1.9-9.1-6.4-14.1-10.8-16.7
			c-0.7-0.4-1.8-1.1-3.1-1.9c-4.6-2.9-11.5-7.3-15.7-9.4c-7.2-3.6-15.8-3.1-25.6,1.5c-17.6,8.3-38.5,30.6-54.6,58.2
			c-11.2,19.2-19.4,40.4-22.4,58c-3.6,21.2,0.2,35.9,11,42.6c1.9,1.2,4.4,2.8,6.7,4.4c3.3,2.2,5.4,3.6,6.6,4.3
			c5.4,3.1,14.9,5.3,28.8-1.3l0,0c2.8-1.3,5.7-3,8.7-5C62.1,323.4,58.5,313.6,55.4,305.2z"/>
		<g>
			<path class="st1" d="M60.3,318.4c-55.5,20.6-32.7-38.8-32.7-38.8s-0.2,0.6-0.5,1.7c3.6-12.9,9.9-27.7,18.7-42.7
				c15.9-27.1,35.2-47.2,49.6-53c18.7-9.3,26.4,1.5,29.3,14.7c1.1-1.2,2.3-2.2,3.7-3.1c0.2-0.1,0.5-0.3,0.7-0.4
				c-1.1-6.4-3.8-11.4-8.5-14.3c-3.1-1.9-13.3-8.5-18.3-11c-19.3-9.7-51.8,21.3-72.9,57.5c-21.6,37.1-31.8,81.5-13.2,93.1
				c4.3,2.7,11,7.3,13.1,8.5c8.7,4.9,20.4,1.7,32.7-6.7C61.6,321.9,61,320.2,60.3,318.4z"/>
			<path class="st1" d="M118.6,197.2c1.8,1.3,3.5,2.8,4.9,4.6c0-0.1,0.1-0.1,0.2-0.2c-2.2-7.1-6.2-13.2-13.3-15.2
				c2.3,1.9,3.8,5,4.6,8.8C116.1,195.7,117.4,196.4,118.6,197.2L118.6,197.2z"/>
			<path class="st1" d="M60.1,317.7c-0.8-2.2-1.7-4.6-2.5-6.8c-5,4.1-9.8,7-14.1,8.7C47.9,319.9,53.3,319.3,60.1,317.7z"/>
		</g>
	</g>
</g>
</svg>
