<svg id="Layer_1" xmlns="http://www.w3.org/2000/svg" viewBox="0 0 94 107">

  <path fill="#fea540" d="M25.4,107c-6.9,0-13.3-2.6-18-7.2l-.4-.4c-3.6-3.8-5.9-7.8-6.5-15.6C0,78.9,0,71.9,0,56.5v-31.3c-.3-6.6,1.9-12.8,6.3-17.4C11,2.8,17.2,0,24,0s.8,0,1.2,0h19.1c15.8,0,26.9.7,37.6,10.5,7.5,6.8,12,17.2,12.1,28.7,0,11.5-4.3,22.2-12,29.3-9.8,9-21,10.4-31,10.6,0,8.1-1,14.1-7.1,20.4l-.4.4-.4.3c-4.7,4.2-11.3,6.7-17.8,6.7h0Z"/>

  <path fill="#fe9b34" d="M25.4,104.8c-6.3,0-12.2-2.3-16.5-6.6h-.1c0-.1-.2-.4-.2-.4-3.3-3.6-5.3-7.1-5.9-14.3-.4-4.6-.4-11.6-.3-27.1v-31.4c-.3-6,1.7-11.7,5.7-15.9,4.1-4.4,9.7-6.8,16-6.8s.7,0,1.1,0h19.1c15.3,0,26,.7,36.1,9.9,7.1,6.4,11.3,16.3,11.4,27.2,0,10.9-4,21.1-11.3,27.7-9.6,8.8-20.9,10-31.7,10,0,9.4-.6,14.9-6.5,21.1l-.3.3-.3.3c-4.3,3.9-10.3,6.1-16.3,6.1Z"/>

  <path fill="#fe8f2c" d="M25.4,102.7c-5.7,0-11.1-2.1-15-6h-.1c0-.1-.2-.3-.2-.3-3.1-3.3-4.8-6.4-5.4-13-.4-4.5-.3-11.5-.3-26.9v-31.5c-.3-5.4,1.5-10.5,5.1-14.4,3.7-4,8.8-6.1,14.4-6.1s.7,0,1.1,0h19.2c14.8,0,25.1.7,34.7,9.4,6.7,6,10.6,15.3,10.7,25.6,0,10.3-3.8,19.9-10.7,26.1-9.5,8.7-20.9,9.5-31.8,9.5s-.4,0-.6,0c.1,10.6-.2,15.8-5.8,21.7l-.3.3-.3.3c-3.9,3.5-9.3,5.6-14.9,5.6l.2-.2Z"/>

  <path fill="#fff" d="M25.4,100.5c-5.2,0-10-1.9-13.4-5.3h-.1c0-.1-.1-.3-.1-.3-2.8-3-4.3-5.7-4.8-11.7-.4-4.4-.3-11.4-.3-26.8v-31.4c-.3-4.9,1.3-9.4,4.5-12.9,3.3-3.5,7.8-5.4,12.8-5.4s.7,0,1,0h19.3c14.3,0,24.2.6,33.2,8.8,6.2,5.6,9.8,14.3,10,24,0,9.7-3.5,18.7-10,24.5-8.9,8.2-19.9,8.9-30.3,8.9h-2.8v.3c.1,11.6.2,16.5-5.2,22.1l-.2.2-.2.2c-3.5,3.2-8.4,5-13.4,5h0Z"/>

  <path fill="#272f35" d="M71.4,22c-8.5-7.8-18.6-6.3-46.6-6.3-5.5-.4-9.4,3.7-9,9,0,61.2-1,60.2,2.6,64.1,3.7,3.7,10.5,3.5,14.4,0,3.5-3.6,2.6-6.1,2.6-25.2,16.4,0,27.5,1.4,36.1-6.4,9.4-8.7,9.2-26.9,0-35.2ZM35.3,48.9v-18.4c13.3,0,24.7-2.3,24.7,9.2s-10.9,9.2-24.7,9.1Z"/>

</svg>