<svg xmlns="http://www.w3.org/2000/svg" viewBox="0 0 784 211">
  <defs>
    <style>
      .cls-1 {
        fill: #e53a40;
      }

      .cls-3 {
        fill: #256eff;
      }
    </style>
  </defs>
  <path d="M26.8,81.5c8,0,13.4,3.2,18.5,7.7l-8.2,9.3c-2.6-3-6.4-4.7-10.4-4.7-7.5,0-12.4,5.5-12.4,12.4-.2,6.7,5.1,12.3,11.8,12.5,0,0,0,0,0,0h.7c4,.1,7.8-1.6,10.4-4.7l8.2,9.3c-5.2,4.5-10.6,7.7-18.5,7.7C10.6,131,0,119.6,0,106.3s10.6-24.8,26.8-24.8ZM71.9,110.5c0-2.8-.6-6.1-4.2-6.1s-4.2,3.3-4.2,6.1v19.8h-14.2v-49.7h14.1v18c2-3.2,5.2-5.2,10-5.2,11.2,0,12.6,9.8,12.6,15.7v21.1h-14.1v-19.7ZM117.8,125.8c-1.9,3.2-5.6,5.2-10.3,5.2-9.6,0-17-7.9-17-18.8s7.3-18.8,17-18.8,8.4,2,10.3,5.3v-4.5h14.2v36.1h-14.2v-4.5ZM111.4,120.3c4.1,0,6.7-3.5,6.7-8s-2.5-8-6.7-8-6.7,3.5-6.7,8,2.6,8,6.7,8ZM152.8,130.3h-14.1v-49.7h14.1v49.7ZM173.7,130.3h-14.1v-49.7h14.1v49.7ZM178.5,112.4c0-9.9,7.1-19,20.2-19s19.9,6.9,19.9,18.4c0,1.1-.1,2.1-.3,3.2h-26.6c0,2,3.2,5.4,9.3,5.4,3.6,0,7-1.3,9.8-3.5l5.8,7.8c-4.5,4.5-10.8,6.2-16.8,6.2-13.4.1-21.3-8.2-21.3-18.5ZM191.7,108.5h14.1c-.2-3.5-3.6-5.2-7.1-5.2s-6.8,1.7-7,5.2ZM245.9,110.5c0-2.8-.6-6.1-4.3-6.1s-4.2,3.3-4.2,6.1v19.8h-14.1v-36.1h14.1v4.5c2-3.2,5.1-5.2,10-5.2,11.2,0,12.6,9.8,12.6,15.7v21.1h-14.1v-19.8ZM281.3,131c-9.6,0-16.8-8.4-16.8-18.8s7.1-18.8,16.8-18.8,8.4,2,10.3,5.3v-4.5h13.7v31.4c0,15.4-9.3,20.8-21.1,20.8s-13.3-1.5-18-4.7l5.1-9.3c3,1.8,6.9,3.6,11.1,3.6s9.3-2.8,9.3-10.2c-1.8,3.2-5.8,5.2-10.4,5.2ZM285.1,120.5c4.1,0,6.7-3.7,6.7-8.2s-2.5-8.2-6.7-8.2-6.8,3.7-6.8,8.2,2.7,8.2,6.8,8.2ZM310.1,112.4c0-9.9,7.1-19,20.2-19s19.9,6.9,19.9,18.4c0,1.1-.1,2.1-.3,3.2h-26.6c0,2,3.2,5.4,9.3,5.4,3.6,0,7-1.3,9.8-3.5l5.8,7.8c-4.5,4.5-10.9,6.2-16.8,6.2-13.4.1-21.3-8.2-21.3-18.5ZM323.3,108.5h14.1c-.2-3.5-3.6-5.2-7.1-5.2s-6.8,1.7-7,5.2ZM379.9,81.5c8,0,13.4,3.2,18.5,7.7l-8.2,9.3c-2.6-3-6.4-4.7-10.4-4.7-7.5,0-12.4,5.5-12.4,12.4s4.9,12.4,12.4,12.4c4,.1,7.8-1.6,10.4-4.7l8.2,9.3c-5.1,4.5-10.6,7.7-18.5,7.7-16.2,0-26.8-11.4-26.8-24.8s10.6-24.6,26.8-24.6ZM420.3,131c-12.4,0-20.9-8.4-20.9-18.8s8.5-18.8,20.9-18.8,20.9,8.4,20.9,18.8-8.5,18.8-20.9,18.8ZM420.3,120c4.3,0,7.9-3.5,7.9-7.8,0-4.3-3.5-7.9-7.8-7.9-4.3,0-7.9,3.5-7.9,7.8h0c-.2,4.2,2.9,7.7,7,7.9,0,0,0,0,0,0h.1c.2,0,.4,0,.6,0h0ZM453,79.3c5.4,0,7.9,2.8,7.9,6.3s-2.8,6.3-7.9,6.3-7.9-2.8-7.9-6.3,2.6-6.3,7.9-6.3ZM460.1,94.2h-14.1v36.1h14.1v-36.1ZM489.4,110.5c0-2.8-.6-6.1-4.2-6.1s-4.2,3.3-4.2,6.1v19.8h-14.1v-36.1h14.1v4.5c2-3.2,5.1-5.2,10-5.2,11.2,0,12.6,9.8,12.6,15.7v21.1h-14.1v-19.8ZM517.8,117.1c.7,3.4,3,4.4,5.9,4.4s3.4-.6,3.4-1.8-.3-1.2-2.4-1.9l-4.1-1.5c-2-.8-11.3-3.1-11.3-11s6.4-11.9,14.7-11.9,11.5,2.5,14.3,9.2l-10.2,2.9c-.6-1.8-2.3-3-4.2-2.9-1.5,0-2.3.8-2.3,1.7s.8,1.3,2.4,1.8l4,1.7c7.8,2.7,11.3,6.6,11.5,11.5,0,8.1-7.3,11.7-15.7,11.7s-15-3.7-16.2-11.6l10.2-2.3ZM651.2,117.9h21.6v12.4h-36v-48h14.4v35.6ZM675.2,112.4c0-9.9,7.1-19,20.2-19s19.9,6.9,19.9,18.4c0,1.1-.1,2.1-.3,3.2h-26.6c0,2,3.2,5.4,9.3,5.4,3.6,0,7-1.3,9.8-3.5l5.8,7.8c-4.5,4.5-10.8,6.2-16.8,6.2-13.4.1-21.3-8.2-21.3-18.5h0ZM688.4,108.5h14.1c-.2-3.5-3.6-5.2-7.1-5.2s-6.8,1.7-7,5.2ZM727.9,117.1c.7,3.4,3,4.4,5.9,4.4s3.4-.6,3.4-1.8-.3-1.2-2.4-1.9l-4.1-1.5c-2-.8-11.2-3.1-11.2-11s6.4-11.9,14.7-11.9,11.5,2.5,14.3,9.2l-10.2,2.9c-.6-1.8-2.3-3-4.2-2.9-1.5,0-2.3.8-2.3,1.7s.8,1.3,2.4,1.8l4,1.7c7.8,2.7,11.3,6.6,11.5,11.5,0,8.1-7.3,11.7-15.7,11.7s-15-3.7-16.2-11.6l10.1-2.3ZM762.3,117.1c.7,3.4,3,4.4,5.9,4.4s3.4-.6,3.4-1.8-.3-1.2-2.4-1.9l-4.1-1.5c-2-.8-11.3-3.1-11.3-11s6.4-11.9,14.7-11.9,11.5,2.5,14.3,9.2l-10.2,2.9c-.6-1.8-2.3-3-4.2-2.9-1.5,0-2.3.8-2.3,1.7s.8,1.3,2.4,1.8l4,1.7c7.8,2.7,11.3,6.6,11.5,11.5,0,8.1-7.3,11.7-15.7,11.7s-15-3.7-16.2-11.6l10.2-2.3Z"/>
  <path class="cls-3" d="M543.4,130.1v-11.8c0-.2,0-.4.2-.6l53.3-61.5c.2-.2.4-.3.7-.3h13.4c.5,0,.9.4.9.9h0v55.4c0,.5.4.9.9.9h18.1c.5,0,.9.4.9.9h0v16.1c0,.5-.4.9-.9.9h-18.1c-.5,0-.9.4-.9.9h0v23.3c0,.5-.4.9-.9.9h-20c-.5,0-.9-.4-.9-.9h0v-23.3c0-.5-.4-.9-.9-.9h-45c-.5,0-.8-.4-.8-.9h0ZM590.2,112.3v-22.6c0-.5-.4-.9-.8-.9-.3,0-.5.1-.7.3l-19.7,22.6c-.3.3-.3.9,0,1.2.2.2.4.2.6.2h19.7c.4,0,.8-.4.8-.8Z"/>
  <path d="M772.1,77.8h-4.1c-.3,0-.5.2-.5.5s.2.5.5.5h1.6v4.9c0,.3.2.5.5.5s.5-.2.5-.5v-4.9h1.6c.3,0,.5-.2.5-.4,0,0,0,0,0,0h0c-.2-.4-.4-.6-.6-.6ZM779.8,77.8c-.2,0-.4,0-.5.2,0,0,0,0,0,0h0l-2.6,3.5-2.6-3.5c0-.2-.3-.2-.5-.2s-.3.2-.3.4v5.4c0,.3.2.5.5.5s.5-.2.5-.5v-3.9l2.1,2.9c.2.2.6.2.8,0l2.1-2.9v3.9c0,.3.2.5.5.5s.5-.2.5-.5v-5.4c-.2-.2-.3-.4-.5-.4Z"/>
  <g>
    <path class="cls-1" d="M663.3,74.8c.7,1.7,1.4,3.4,1.9,5.1l20.4-20.4c-.8-1.6-1.6-3.1-2.4-4.7l-19.9,19.9Z"/>
    <path class="cls-1" d="M666.6,84.3c.3,1.1.6,2.3.9,3.4l21.2-21.2c-.4-1-.8-2-1.2-3l-20.8,20.8Z"/>
    <path class="cls-1" d="M659.6,67.2c.9,1.5,1.7,3.1,2.4,4.7l19.7-19.7c-.9-1.5-1.8-2.9-2.7-4.4l-19.4,19.4Z"/>
    <path class="cls-1" d="M693.9,83.7c-.2-1.1-.5-2.2-.8-3.3l-3.6,3.6c1.4-.2,2.9-.3,4.4-.3Z"/>
    <path class="cls-1" d="M668.6,93.7c.1,1,.3,1.9.4,2.9,2.5-3.8,5.9-7.1,10.3-9.4l12.3-12.3c-.3-1.1-.7-2.1-1-3.2l-22,22Z"/>
    <path class="cls-1" d="M655.2,60.2c1,1.4,1.9,2.8,2.8,4.3l19.2-19.2c-1-1.4-2-2.7-3-4.1l-19,19Z"/>
    <path class="cls-1" d="M638.5,42.8c1.3,1,2.6,2.1,3.9,3.2l18.9-18.9c-1.2-1.1-2.5-2.2-3.8-3.3l-19,19Z"/>
    <path class="cls-1" d="M646.4,49.7c.6.6,1.2,1.2,1.8,1.8l18.8-18.8c-.6-.6-1.2-1.2-1.8-1.8s-1.2-1.2-1.8-1.7l-18.8,18.9c.6.6,1.2,1.1,1.8,1.7Z"/>
    <path class="cls-1" d="M631.7,38.2c1.4.9,2.9,1.8,4.3,2.8l19-19.1c-1.3-1-2.7-2-4.1-3l-19.2,19.2Z"/>
    <path class="cls-1" d="M650.2,53.8c1.1,1.3,2.2,2.6,3.2,3.9l18.9-19c-1.1-1.3-2.1-2.6-3.3-3.8l-18.9,18.9Z"/>
    <path class="cls-1" d="M518.5,73.2l-14.8,14.8c.7.5,1.3,1.1,2,1.7.7-.6,1.5-1.2,2.3-1.7l7.8-7.8c.8-2.4,1.7-4.7,2.7-7Z"/>
    <path class="cls-1" d="M612.3,2.2l-24.4,24.5c1.4,0,2.8,0,4.3,0l23.6-23.6c-1.2-.3-2.3-.5-3.5-.8Z"/>
    <path class="cls-1" d="M555.1,6.1c-1.5.5-3.1,1.1-4.6,1.7l-57.6,57.7c-.6,1.5-1.2,3-1.8,4.6l64-64Z"/>
    <path class="cls-1" d="M567.1,2.6l-79.5,79.5c-.1.6-.3,1.2-.4,1.8.5,0,1,0,1.5-.1L570.7,1.9c-1.2.2-2.4.5-3.6.8Z"/>
    <path class="cls-1" d="M534.8,161.4c-.6-.6-1.1-1.2-1.7-1.7l-18.8,18.8c.6.6,1.1,1.2,1.7,1.7s1.2,1.2,1.9,1.8l18.8-18.9c-.6-.6-1.3-1.2-1.9-1.8Z"/>
    <path class="cls-1" d="M512.5,34.5c-3.7,4.1-7,8.4-10,12.8l29.9-29.9c-4.4,2.9-8.7,6.2-12.7,9.9l-7.2,7.2Z"/>
    <path class="cls-1" d="M606.2,1.1c-1.2-.2-2.5-.3-3.8-.5l-27.5,27.5c1.7-.3,3.4-.6,5.1-.8l26.2-26.2Z"/>
    <path class="cls-1" d="M565.2,30.8L595.9.1c-1.4,0-2.7-.1-4.1-.1l-33.5,33.5c2.3-1,4.6-1.9,7-2.7Z"/>
    <path class="cls-1" d="M624.4,34.2c1.6.7,3.1,1.6,4.7,2.4l19.4-19.4c-1.4-.9-2.9-1.8-4.4-2.7l-19.7,19.7Z"/>
    <path class="cls-1" d="M583.7.2c-1,0-2,.1-3.1.2l-84.1,84.2c.7.2,1.4.4,2.1.7L583.7.2Z"/>
    <path class="cls-1" d="M624.5,5.6c-1.1-.4-2.1-.7-3.2-1l-22.5,22.5c1.3.1,2.5.3,3.8.5l22-22Z"/>
    <path class="cls-1" d="M593.5,184.4c-1.4,0-2.8,0-4.3,0l-23.6,23.7c1.2.3,2.3.5,3.5.8l24.4-24.5Z"/>
    <path class="cls-1" d="M622,178c-1.5.7-3.1,1.3-4.7,1.9l-31.2,31.2c.9,0,1.8,0,2.7,0l33.1-33.1Z"/>
    <path class="cls-1" d="M606.4,182.9c-1.7.3-3.4.6-5.1.9l-26.2,26.2c1.3.2,2.5.3,3.8.5l27.6-27.6Z"/>
    <path class="cls-1" d="M582.5,184.1c-1.3-.1-2.5-.3-3.8-.5l-22,22c1.1.4,2.1.7,3.2,1l22.5-22.5Z"/>
    <path class="cls-1" d="M565,180.3c-1.7-.6-3.4-1.2-5.1-2l-19.9,19.9c1.5.8,3.1,1.6,4.7,2.4l20.4-20.4Z"/>
    <path class="cls-1" d="M572.8,182.5c-1.1-.3-2.3-.6-3.4-.9l-20.8,20.8c1,.4,2,.8,3,1.2l21.2-21.2Z"/>
    <path class="cls-1" d="M688.2,145.9c.6-1.5,1.2-3.1,1.8-4.6l-63.6,63.6c1.5-.6,3.1-1.1,4.6-1.8l57.2-57.3Z"/>
    <path class="cls-1" d="M665.6,179.8c4.8-4.9,9.1-10.1,12.8-15.6l-29.1,29.1c5.5-3.7,10.7-7.9,15.5-12.7l.8-.8Z"/>
    <path class="cls-1" d="M670.7,140.6h-2.8l-70.3,70.3c1,0,2-.1,3.1-.2l70-70.1Z"/>
    <path class="cls-1" d="M682.1,140.6c-.1,0-.2,0-.2,0h-2.6l-68.6,68.6c1.2-.2,2.4-.5,3.6-.8l67.8-67.9Z"/>
    <path class="cls-1" d="M549.5,173c-1.4-.9-2.9-1.8-4.3-2.8l-19.1,19.1c1.3,1,2.7,2,4.1,3l19.2-19.3Z"/>
    <path class="cls-1" d="M513.6,140.7c-.6,0-1,0-1,0h-6l-11.1,11.1c.8,1.6,1.6,3.1,2.4,4.7l15.7-15.7Z"/>
    <path class="cls-1" d="M502.4,140.6h-7.1l-3.2,3.2c.6,1.7,1.3,3.3,2.1,5l8.1-8.2Z"/>
    <path class="cls-1" d="M607.4,28.4c1.9.4,3.8.9,5.6,1.4l20.7-20.7c-1.6-.7-3.3-1.4-5-2.1l-21.3,21.3Z"/>
    <path class="cls-1" d="M521.6,144c-.5-.9-1-1.9-1.5-2.8-.7,0-1.6-.1-2.5-.2l-18.1,18.1c.9,1.5,1.8,2.9,2.7,4.4l19.4-19.4Z"/>
    <path class="cls-1" d="M542.8,168.4c-1.3-1-2.6-2.1-3.9-3.2l-18.9,18.9c1.2,1.1,2.5,2.2,3.8,3.3l19-19Z"/>
    <path class="cls-1" d="M556.9,177c-1.6-.7-3.1-1.6-4.7-2.4l-19.4,19.4c1.4.9,2.9,1.8,4.4,2.7l19.7-19.7Z"/>
    <path class="cls-1" d="M526,151c-1-1.4-1.9-2.8-2.8-4.3l-19.2,19.2c1,1.4,2,2.7,3,4.1l19-19.1Z"/>
    <path class="cls-1" d="M616.3,30.9c1.7.6,3.4,1.3,5.1,2l19.9-19.9c-1.5-.8-3.1-1.6-4.7-2.4l-20.4,20.4Z"/>
    <path class="cls-1" d="M531,157.4c-1.1-1.3-2.2-2.6-3.2-3.9l-19,19c1.1,1.3,2.1,2.6,3.3,3.8l18.9-18.9Z"/>
  </g>
</svg>