<svg xmlns="http://www.w3.org/2000/svg" version="1.1" viewBox="0 0 272 50">
  <defs>
    <style>
      .cls-1 {
        fill: #108c98;
      }

      .cls-2 {
        fill: #fa8117;
      }
    </style>
  </defs>
  <path class="cls-2" d="M171.1,44.2v-8.8h-11.6v-5.9l9.9-23.4h8.8v23.6h3.7v5.7h-3.7v8.8h-7.1ZM165.4,29.7h5.7v-15.9l-5.7,15.9Z"/>
  <g>
    <path class="cls-1" d="M7.9,44.2V6.1h12.7c3.4,0,5.9.9,7.6,2.8,1.7,1.9,2.5,4.6,2.5,8.2s-.1,2.7-.4,3.8-.6,2.1-1.1,2.9-1.1,1.4-1.7,2-1.4,1-2.3,1.3-1.7.5-2.6.7c-.9.1-1.9.2-3,.2h-3.3v16.2H7.9ZM16.3,22.1h2.7c1.5,0,2.5-.4,3-1.2s.7-2.1.7-3.9,0-1.2-.1-1.7c0-.4-.1-.9-.3-1.4s-.4-.8-.6-1.1c-.3-.3-.6-.5-1.1-.7s-1-.3-1.7-.3h-2.7v10.3h.1Z"/>
    <path class="cls-1" d="M39.1,44.6c-1.9,0-3.5-.7-4.6-2.1-1.1-1.3-1.7-2.9-1.7-4.6s0-1.7.3-2.5.5-1.4.8-2,.8-1.1,1.3-1.7c.6-.5,1.1-1,1.5-1.3.5-.3,1.1-.7,1.8-1.1.8-.4,1.4-.7,1.8-.8.5-.2,1.1-.4,1.9-.7s1.3-.5,1.7-.7v-2.7c0-.8,0-1.4-.3-1.8s-.7-.6-1.3-.6c-1,0-1.6.7-1.7,2.2l-.2,2-7.2-.3v-.9c.2-3,1.2-5.2,2.8-6.6s3.9-2.1,6.9-2.1,4.7.7,6.1,2.2,2.1,3.5,2.1,5.9v12.7c0,1.7.2,4,.5,6.8h-6.6c-.4-2.2-.6-3.5-.6-3.9-.4,1.2-1,2.3-1.9,3.1-1,1.1-2.1,1.5-3.4,1.5ZM41.9,39.4c.4,0,.7,0,1.1-.4s.7-.6,1-.9v-7.4c-1.2.6-2.2,1.5-3,2.6s-1.2,2.2-1.2,3.2.2,1.6.6,2.1c.3.5.8.8,1.5.8Z"/>
    <path class="cls-1" d="M63.5,44.5c-.8,0-1.6,0-2.3-.4-.7-.2-1.3-.5-1.7-.8-.5-.3-.9-.7-1.2-1.2-.4-.5-.6-1-.8-1.5s-.4-1.1-.5-1.8-.2-1.4-.3-2c0-.6,0-1.4,0-2.1v-12.7h-2.6v-5h2.6v-8.3h7.7v8.3h3.9v5h-3.9v14c0,1.4.8,2.2,2.5,2.2h.7c.3,0,.5,0,.6,0,.2,0,.3,0,.5,0h.3v6c-1.6.3-3.2.4-4.5.4-.4,0-.7,0-.9,0Z"/>
    <path class="cls-1" d="M81.2,44.6c-3,0-5.3-.8-6.9-2.4s-2.5-3.9-2.5-6.8v-9.8c0-2.9.8-5.1,2.5-6.7,1.6-1.6,4-2.4,6.9-2.4s5.2.7,6.8,2.1,2.4,3.4,2.4,6.1v2.9h-7.4v-3.1c0-1,0-1.8-.4-2.1-.3-.4-.7-.6-1.3-.6s-1,.2-1.3.7-.4,1.3-.4,2.5v11.3c0,1.2,0,2,.4,2.4s.7.7,1.3.7,1-.2,1.3-.6.4-1.1.4-2v-3.6h7.4v3.3c0,2.7-.8,4.7-2.4,6.2-1.6,1.2-3.8,1.9-6.8,1.9Z"/>
    <path class="cls-1" d="M94.5,44.2V6.1h7.7v13.3c1.9-1.9,4.1-2.9,6.6-2.9s2.8.6,3.7,1.8,1.3,2.7,1.3,4.5v21.3h-7.7v-20.1c0-.7,0-1.2-.3-1.5s-.6-.5-1.2-.5-1.5.3-2.4,1v21.2h-7.7Z"/>
    <path class="cls-1" d="M127.3,44.6c-3,0-5.3-.8-7-2.4-1.6-1.6-2.5-3.9-2.5-6.8v-9.7c0-2.9.8-5.2,2.5-6.8s4-2.4,6.9-2.4,5.3.8,6.8,2.3c1.5,1.6,2.3,3.8,2.3,6.9v5.3h-10.9v4.8c0,1.1,0,1.9.4,2.5s.7.8,1.4.8c1.3,0,1.9-.9,1.9-2.6v-1.8h7.1v1.6c0,2.7-.8,4.8-2.4,6.2-1.5,1.4-3.7,2.1-6.5,2.1h0ZM125.4,27.5h3.7v-2.7c0-1-.2-1.7-.5-2.1s-.8-.6-1.4-.6-1,.2-1.3.7-.4,1.3-.4,2.5v2.2Z"/>
    <path class="cls-1" d="M148.4,44.6c-2.3,0-4.2-.5-5.8-1.6-1.5-1.1-2.8-2.8-3.7-5.2l5.3-2.3c.5,1.3,1.1,2.3,1.8,3,.6.6,1.3,1,2,1h.2c.5,0,.9-.2,1.2-.6.3-.3.5-.8.5-1.3s-.1-.5-.3-.8-.5-.7-1-1.1c-.5-.5-.8-.8-1-1s-.6-.5-1.3-1.1l-2.1-1.8c-3.1-2.6-4.6-5.1-4.6-7.6s.4-2.8,1.2-4,1.8-2.1,3.1-2.7,2.6-.9,4.1-.9c2.2,0,4.1.6,5.6,1.8s2.5,2.9,3.2,5.2l-5,2.3c-.3-1-.8-1.9-1.3-2.7-.6-.8-1.2-1.2-2-1.2h-.1c-.6,0-1,.1-1.3.4s-.5.7-.5,1.1c-.1.7,1,2,3.3,3.9.2.2.3.3.4.4l2,1.8c.8.7,1.4,1.2,1.8,1.6s.9.9,1.4,1.6c.6.7,1,1.4,1.2,2.1.3.7.4,1.5.4,2.3,0,1.5-.4,2.9-1.2,4s-1.9,2-3.2,2.5c-1.3.7-2.7.9-4.3.9h0Z"/>
    <path class="cls-1" d="M185.9,44.2V6.1h8.4v32.4h8.7v5.7h-17.1Z"/>
    <path class="cls-1" d="M215.2,44.6c-3,0-5.3-.8-7-2.4-1.6-1.6-2.5-3.9-2.5-6.8v-9.7c0-2.9.8-5.2,2.5-6.8s4-2.4,6.9-2.4,5.3.8,6.8,2.3c1.5,1.6,2.3,3.8,2.3,6.9v5.3h-10.9v4.8c0,1.1.1,1.9.4,2.5s.7.8,1.4.8c1.3,0,1.9-.9,1.9-2.6v-1.8h7.1v1.6c0,2.7-.8,4.8-2.4,6.2-1.5,1.4-3.7,2.1-6.5,2.1ZM213.3,27.5h3.7v-2.7c0-1-.2-1.7-.5-2.1s-.8-.6-1.4-.6-1,.2-1.3.7-.4,1.3-.4,2.5v2.2h-.1Z"/>
    <path class="cls-1" d="M236.3,44.6c-2.3,0-4.2-.5-5.8-1.6-1.5-1.1-2.8-2.8-3.7-5.2l5.3-2.3c.5,1.3,1.1,2.3,1.8,3,.6.6,1.3,1,2,1h.2c.5,0,.9-.2,1.2-.6s.5-.8.5-1.3-.1-.5-.3-.8-.5-.7-1-1.1c-.5-.5-.8-.8-1-1s-.6-.5-1.3-1.1l-2.1-1.8c-3.1-2.6-4.6-5.1-4.6-7.6s.4-2.8,1.2-4,1.8-2.1,3.1-2.7,2.6-.9,4.1-.9c2.2,0,4.1.6,5.6,1.8s2.5,2.9,3.2,5.2l-5,2.3c-.3-1-.8-1.9-1.3-2.7-.6-.8-1.2-1.2-2-1.2h-.1c-.6,0-1,.1-1.3.4s-.5.7-.5,1.1c-.1.7,1,2,3.3,3.9.2.2.3.3.4.4l2,1.8c.8.7,1.4,1.2,1.8,1.6s.9.9,1.4,1.6,1,1.4,1.2,2.1c.3.7.4,1.5.4,2.3,0,1.5-.4,2.9-1.2,4s-1.9,2-3.2,2.5-2.7.9-4.3.9h0Z"/>
    <path class="cls-1" d="M256.2,44.6c-2.3,0-4.2-.5-5.8-1.6-1.5-1.1-2.8-2.8-3.7-5.2l5.3-2.3c.5,1.3,1.1,2.3,1.8,3,.6.6,1.3,1,2,1h.2c.5,0,.9-.2,1.2-.6s.5-.8.5-1.3-.1-.5-.3-.8-.5-.7-1-1.1c-.5-.5-.8-.8-1-1s-.6-.5-1.3-1.1l-2.1-1.8c-3.1-2.6-4.6-5.1-4.6-7.6s.4-2.8,1.2-4,1.8-2.1,3.1-2.7,2.6-.9,4.1-.9c2.2,0,4.1.6,5.6,1.8s2.5,2.9,3.2,5.2l-5,2.3c-.3-1-.8-1.9-1.3-2.7-.6-.8-1.2-1.2-2-1.2h-.1c-.6,0-1,.1-1.3.4s-.5.7-.5,1.1c-.1.7,1,2,3.3,3.9.2.2.3.3.4.4l2,1.8c.8.7,1.4,1.2,1.8,1.6s.9.9,1.4,1.6,1,1.4,1.2,2.1c.3.7.4,1.5.4,2.3,0,1.5-.4,2.9-1.2,4s-1.9,2-3.2,2.5-2.8.9-4.3.9h0Z"/>
  </g>
  <g>
    <path class="cls-1" d="M257.9,6.1v1.1h-1.9v5.3h-1.4v-5.3h-1.9v-1.1h5.2Z"/>
    <path class="cls-1" d="M259.9,12.5h-1.3v-6.4h2l1.2,5.1,1.2-5.1h1.9v6.4h-1.3v-4.4c0-.1,0-.3,0-.5s0-.4,0-.5l-1.2,5.4h-1.3l-1.2-5.4c0,.1,0,.3,0,.5s0,.4,0,.5v4.4Z"/>
  </g>
</svg>