<svg enable-background="new 0 0 272.6 50.4" viewBox="0 0 272.6 50.4" xmlns="http://www.w3.org/2000/svg"><path d="m171.1 44.2v-8.8h-11.6v-5.9l9.9-23.4h8.8v23.6h3.7v5.7h-3.7v8.8zm-5.7-14.5h5.7v-15.9z" fill="#fa8117"/><g fill="#108c98"><path d="m7.9 44.2v-38.1h12.7c3.4 0 5.9.9 7.6 2.8s2.5 4.6 2.5 8.2c0 1.4-.1 2.7-.4 3.8s-.6 2.1-1.1 2.9-1.1 1.4-1.7 2-1.4 1-2.3 1.3-1.7.5-2.6.7c-.9.1-1.9.2-3 .2h-3.3v16.2zm8.4-22.1h2.7c1.5 0 2.5-.4 3-1.2s.7-2.1.7-3.9c0-.7 0-1.2-.1-1.7 0-.4-.1-.9-.3-1.4s-.4-.8-.6-1.1c-.3-.3-.6-.5-1.1-.7s-1-.3-1.7-.3h-2.7v10.3z"/><path d="m39.1 44.6c-1.9 0-3.5-.7-4.6-2.1-1.1-1.3-1.7-2.9-1.7-4.6 0-.9.1-1.7.3-2.5s.5-1.4.8-2 .8-1.1 1.3-1.7c.6-.5 1.1-1 1.5-1.3.5-.3 1.1-.7 1.8-1.1.8-.4 1.4-.7 1.8-.8.5-.2 1.1-.4 1.9-.7s1.3-.5 1.7-.7v-2.7c0-.8-.1-1.4-.3-1.8s-.7-.6-1.3-.6c-1 0-1.6.7-1.7 2.2l-.2 2-7.2-.3s0-.2 0-.5 0-.4 0-.4c.2-3 1.2-5.2 2.8-6.6s3.9-2.1 6.9-2.1c2.7 0 4.7.7 6.1 2.2s2.1 3.5 2.1 5.9v12.7c0 1.7.2 4 .5 6.8h-6.6c-.4-2.2-.6-3.5-.6-3.9-.4 1.2-1 2.3-1.9 3.1-1 1.1-2.1 1.5-3.4 1.5zm2.8-5.2c.4 0 .7-.1 1.1-.4s.7-.6 1-.9v-7.4c-1.2.6-2.2 1.5-3 2.6s-1.2 2.2-1.2 3.2c0 .9.2 1.6.6 2.1.3.5.8.8 1.5.8z"/><path d="m63.5 44.5c-.8 0-1.6-.1-2.3-.4-.7-.2-1.3-.5-1.7-.8-.5-.3-.9-.7-1.2-1.2-.4-.5-.6-1-.8-1.5s-.4-1.1-.5-1.8-.2-1.4-.3-2c0-.6-.1-1.4-.1-2.1v-12.7h-2.6v-5h2.6v-8.3h7.7v8.3h3.9v5h-3.9v14c0 1.4.8 2.2 2.5 2.2h.7c.3 0 .5 0 .6-.1.2 0 .3 0 .5-.1h.3v6c-1.6.3-3.2.4-4.5.4-.4.1-.7.1-.9.1z"/><path d="m81.2 44.6c-3 0-5.3-.8-6.9-2.4s-2.5-3.9-2.5-6.8v-9.8c0-2.9.8-5.1 2.5-6.7 1.6-1.6 4-2.4 6.9-2.4s5.2.7 6.8 2.1 2.4 3.4 2.4 6.1v2.9h-7.4v-3.1c0-1-.1-1.8-.4-2.1-.3-.4-.7-.6-1.3-.6s-1 .2-1.3.7-.4 1.3-.4 2.5v11.3c0 1.2.1 2 .4 2.4s.7.7 1.3.7 1-.2 1.3-.6.4-1.1.4-2v-3.6h7.4v3.3c0 2.7-.8 4.7-2.4 6.2-1.6 1.2-3.8 1.9-6.8 1.9z"/><path d="m94.5 44.2v-38.1h7.7v13.3c1.9-1.9 4.1-2.9 6.6-2.9 1.6 0 2.8.6 3.7 1.8s1.3 2.7 1.3 4.5v21.3h-7.7v-20.1c0-.7-.1-1.2-.3-1.5s-.6-.5-1.2-.5c-.7 0-1.5.3-2.4 1v21.2z"/><path d="m127.3 44.6c-3 0-5.3-.8-7-2.4-1.6-1.6-2.5-3.9-2.5-6.8v-9.7c0-2.9.8-5.2 2.5-6.8s4-2.4 6.9-2.4c3 0 5.3.8 6.8 2.3 1.5 1.6 2.3 3.8 2.3 6.9v5.3h-10.9v4.8c0 1.1.1 1.9.4 2.5s.7.8 1.4.8c1.3 0 1.9-.9 1.9-2.6v-1.8h7.1v1.6c0 2.7-.8 4.8-2.4 6.2-1.5 1.4-3.7 2.1-6.5 2.1zm-1.9-17.1h3.7v-2.7c0-1-.2-1.7-.5-2.1s-.8-.6-1.4-.6-1 .2-1.3.7-.4 1.3-.4 2.5z"/><path d="m148.4 44.6c-2.3 0-4.2-.5-5.8-1.6-1.5-1.1-2.8-2.8-3.7-5.2l5.3-2.3c.5 1.3 1.1 2.3 1.8 3 .6.6 1.3 1 2 1h.2c.5 0 .9-.2 1.2-.6.3-.3.5-.8.5-1.3 0-.3-.1-.5-.3-.8s-.5-.7-1-1.1c-.5-.5-.8-.8-1-1s-.6-.5-1.3-1.1l-2.1-1.8c-3.1-2.6-4.6-5.1-4.6-7.6 0-1.5.4-2.8 1.2-4s1.8-2.1 3.1-2.7 2.6-.9 4.1-.9c2.2 0 4.1.6 5.6 1.8s2.5 2.9 3.2 5.2l-5 2.3c-.3-1-.8-1.9-1.3-2.7-.6-.8-1.2-1.2-2-1.2h-.1c-.6 0-1 .1-1.3.4s-.5.7-.5 1.1c-.1.7 1 2 3.3 3.9.2.2.3.3.4.4l2 1.8c.8.7 1.4 1.2 1.8 1.6s.9.9 1.4 1.6c.6.7 1 1.4 1.2 2.1.3.7.4 1.5.4 2.3 0 1.5-.4 2.9-1.2 4s-1.9 2-3.2 2.5c-1.3.7-2.7.9-4.3.9z"/><path d="m185.9 44.2v-38.1h8.4v32.4h8.7v5.7z"/><path d="m215.2 44.6c-3 0-5.3-.8-7-2.4-1.6-1.6-2.5-3.9-2.5-6.8v-9.7c0-2.9.8-5.2 2.5-6.8s4-2.4 6.9-2.4c3 0 5.3.8 6.8 2.3 1.5 1.6 2.3 3.8 2.3 6.9v5.3h-10.9v4.8c0 1.1.1 1.9.4 2.5s.7.8 1.4.8c1.3 0 1.9-.9 1.9-2.6v-1.8h7.1v1.6c0 2.7-.8 4.8-2.4 6.2-1.5 1.4-3.7 2.1-6.5 2.1zm-1.9-17.1h3.7v-2.7c0-1-.2-1.7-.5-2.1s-.8-.6-1.4-.6-1 .2-1.3.7-.4 1.3-.4 2.5v2.2z"/><path d="m236.3 44.6c-2.3 0-4.2-.5-5.8-1.6-1.5-1.1-2.8-2.8-3.7-5.2l5.3-2.3c.5 1.3 1.1 2.3 1.8 3 .6.6 1.3 1 2 1h.2c.5 0 .9-.2 1.2-.6s.5-.8.5-1.3c0-.3-.1-.5-.3-.8s-.5-.7-1-1.1c-.5-.5-.8-.8-1-1s-.6-.5-1.3-1.1l-2.1-1.8c-3.1-2.6-4.6-5.1-4.6-7.6 0-1.5.4-2.8 1.2-4s1.8-2.1 3.1-2.7 2.6-.9 4.1-.9c2.2 0 4.1.6 5.6 1.8s2.5 2.9 3.2 5.2l-5 2.3c-.3-1-.8-1.9-1.3-2.7-.6-.8-1.2-1.2-2-1.2h-.1c-.6 0-1 .1-1.3.4s-.5.7-.5 1.1c-.1.7 1 2 3.3 3.9.2.2.3.3.4.4l2 1.8c.8.7 1.4 1.2 1.8 1.6s.9.9 1.4 1.6 1 1.4 1.2 2.1c.3.7.4 1.5.4 2.3 0 1.5-.4 2.9-1.2 4s-1.9 2-3.2 2.5-2.7.9-4.3.9z"/><path d="m256.2 44.6c-2.3 0-4.2-.5-5.8-1.6-1.5-1.1-2.8-2.8-3.7-5.2l5.3-2.3c.5 1.3 1.1 2.3 1.8 3 .6.6 1.3 1 2 1h.2c.5 0 .9-.2 1.2-.6s.5-.8.5-1.3c0-.3-.1-.5-.3-.8s-.5-.7-1-1.1c-.5-.5-.8-.8-1-1s-.6-.5-1.3-1.1l-2.1-1.8c-3.1-2.6-4.6-5.1-4.6-7.6 0-1.5.4-2.8 1.2-4s1.8-2.1 3.1-2.7 2.6-.9 4.1-.9c2.2 0 4.1.6 5.6 1.8s2.5 2.9 3.2 5.2l-5 2.3c-.3-1-.8-1.9-1.3-2.7-.6-.8-1.2-1.2-2-1.2h-.1c-.6 0-1 .1-1.3.4s-.5.7-.5 1.1c-.1.7 1 2 3.3 3.9.2.2.3.3.4.4l2 1.8c.8.7 1.4 1.2 1.8 1.6s.9.9 1.4 1.6 1 1.4 1.2 2.1c.3.7.4 1.5.4 2.3 0 1.5-.4 2.9-1.2 4s-1.9 2-3.2 2.5-2.8.9-4.3.9z"/></g></svg>