<svg class="fill-current" version="1.1" viewBox="0 0 692.7 125.5" xmlns="http://www.w3.org/2000/svg" xmlns:xlink="http://www.w3.org/1999/xlink"><defs><path d="M497.3 90.3c-.2.6-.4 1.3-.5 1.9 -.2-1.1-.2-2.3 0-3.6 .1.6.3 1.1.5 1.7Z" id="a"></path></defs><path d="M132.2 50l-1.6 9.2h-.6v-.1l2.2-12.6c0-.2 0-.3.1-.4 .2 1.1.2 2.4-.1 3.9Z" fill="#BBB"></path><path fill="#DCDCDC" d="M499.7 78.8l-.1.4 -.3.2Z"></path><g fill="#BBB"><use xlink:href="#a"></use><path d="M8 55.5c-.7-.9-1.7-2.4-2.1-4.6 -.6 4.2 1.1 6.8 2.1 8.1 .8.9 2.3 2.3 4.7 3l.6-3.4c-2.8-.6-4.5-2.1-5.3-3.1Z"></path></g><path fill="#DCDCDC" d="M7.9 52c-.5-.6-1.2-1.7-1.7-3 -.1-.4-.3-.8-.3-1.3 -.2 1.2-.1 2.3 0 3.2 .4 2.2 1.4 3.8 2.1 4.6 .8 1 2.5 2.5 5.3 3.2l.6-3.4c-3.2-.5-5.1-2.2-6-3.3Z"></path><path d="M194.1 87.4c-3 0-5.1-1-6.5-2.1 -1.9 1.4-4.2 2.1-6.8 2.1h-4.7c-2.1 0-3.7-.4-5-1.1 -1.5.7-3.3 1.1-5.2 1.1h-4.7c-1.7 0-3.1-.3-4.3-.8 -2.3.9-4.7 1.4-7.3 1.4 -3.8 0-7.3-1-10.2-2.9 -1.9 1.5-4.3 2.3-7 2.3h-22c-3.6 0-5.9-1.5-7.2-2.7 -4.2 2.2-8.9 3.3-13.9 3.3 -5.4 0-10.1-1.4-13.8-3.9 -2 2.1-4.8 3.3-8.1 3.3h-4.7c-3 0-5.1-1-6.5-2.1 -1.9 1.4-4.2 2.1-6.8 2.1h-4.7c-4.4 0-6.9-2.2-8-3.5 -.3-.4-.8-1.1-1.2-1.9 -2 3.4-5.5 5.4-9.8 5.4h-4.7c-3.3 0-6.1-1.2-8-3.5 -.7-.9-1.7-2.4-2.1-4.6 -.6 4.1 1 6.8 2.1 8.1 1.9 2.3 4.7 3.5 8 3.5h4.7c4.3 0 7.8-2 9.8-5.4 .4.8.9 1.5 1.2 1.9 1.1 1.3 3.6 3.5 8 3.5h4.7c2.6 0 4.9-.7 6.8-2.1 1.4 1.1 3.5 2.1 6.5 2.1h4.7c3.3 0 6.1-1.2 8.1-3.3 3.7 2.5 8.4 3.9 13.8 3.9 5 0 9.7-1.1 13.9-3.3 1.3 1.2 3.6 2.7 7.2 2.7h22c2.7 0 5.1-.8 7-2.3 2.9 1.9 6.4 2.9 10.2 2.9 2.6 0 5-.5 7.3-1.4 1.2.5 2.6.8 4.3.8h4.7c1.9 0 3.7-.4 5.2-1.1 1.3.7 2.9 1.1 5 1.1h4.7c2.6 0 4.9-.7 6.8-2.1 1.4 1.1 3.5 2.1 6.5 2.1h5c0-.8 0-1.6.2-2.4 .1-.4.2-.7.3-1.1h-.4Z" fill="#BBB"></path><path fill="#DCDCDC" d="M11.3 77.2c-.1-.5-.3-.9-.4-1.5 -.2 1.3-.2 2.5 0 3.6 0-.1 0-.3.1-.4Z"></path><path d="M21 87.4h4.7c4.3 0 7.8-2 9.8-5.4 .4.8.9 1.5 1.2 1.9 1.1 1.3 3.6 3.5 8 3.5h4.7c2.6 0 4.9-.7 6.8-2.1 1.4 1.1 3.5 2.1 6.5 2.1h4.7c3.3 0 6.1-1.2 8.1-3.3 3.7 2.5 8.4 3.9 13.8 3.9 5 0 9.7-1.1 13.9-3.3 1.3 1.2 3.6 2.7 7.2 2.7h22c2.7 0 5.1-.8 7-2.3 2.9 1.9 6.4 2.9 10.2 2.9 2.6 0 5-.5 7.3-1.4 1.2.5 2.6.8 4.3.8h4.7c1.9 0 3.7-.4 5.2-1.1 1.3.7 2.9 1.1 5 1.1h4.7c2.6 0 4.9-.7 6.8-2.1 1.4 1.1 3.5 2.1 6.5 2.1h5c-.1-1.2 0-2.4.4-3.6h-5.4c-3 0-5.1-1-6.5-2.1 -1.9 1.4-4.2 2.1-6.8 2.1h-4.7c-2.1 0-3.7-.4-5-1.1 -1.5.7-3.3 1.1-5.2 1.1h-4.7c-1.7 0-3.1-.3-4.3-.8 -2.3.9-4.7 1.4-7.3 1.4 -3.8 0-7.3-1-10.2-2.9 -1.9 1.5-4.3 2.3-7 2.3h-22c-3.6 0-5.9-1.5-7.2-2.7 -4.2 2.2-8.9 3.3-13.9 3.3 -5.4 0-10.1-1.4-13.8-3.9 -2 2.1-4.8 3.3-8.1 3.3h-4.7c-3 0-5.1-1-6.5-2.1 -1.9 1.4-4.2 2.1-6.8 2.1h-4.7c-4.4 0-6.9-2.2-8-3.5 -.3-.4-.8-1.1-1.2-1.9 -2 3.4-5.5 5.4-9.8 5.4h-4.7c-3.3 0-6.1-1.2-8-3.5 -.5-.6-1.2-1.7-1.7-3.1l-.3 1.7c0 .1 0 .3-.1.4 .4 2.2 1.4 3.7 2.1 4.6 1.9 2.3 4.7 3.5 8 3.5Z" fill="#DCDCDC"></path><path fill="#BBB" d="M488 87.5h-4.7c-4.2 0-6.6-2-7.8-3.3 -4.2 2.5-9.2 3.9-14.3 3.9 -5.3 0-10.2-1.5-13.9-4.3 -3.4 2.8-7.8 4.3-13 4.3 -5 0-9.1-1.5-12.1-4.2 -.5.3-.9.5-1.4.8 -4 2.1-8.7 3.3-13.4 3.3 -5.3 0-10.1-1.4-13.8-4.1 -2.1 2.2-5 3.5-8.4 3.5h-4.7c-1.5 0-2.9-.3-4.2-.8 -2.3.9-4.7 1.4-7.3 1.4 -5.7 0-10.7-2.2-14.1-6.3 -2.1-2.5-3.5-5.5-4.1-8.9h-2.4l-.9 5.2c-1 5.7-5.4 9.4-11.2 9.4h-4.9c-2.2 0-4-.6-5.3-1.3 -1.6.8-3.4 1.3-5.5 1.3h-4.7c-1.6 0-3-.3-4.2-.8 -2.3.9-4.7 1.4-7.3 1.4 -5.7 0-10.7-2.2-14.1-6.3 -.4-.5-.8-1-1.1-1.5 -1.6 4.4-5.6 7.2-10.6 7.2h-4.7c-2.1 0-3.7-.4-5-1.1 -1.5.7-3.3 1.1-5.2 1.1h-4.7c-1.6 0-3-.3-4.2-.8 -2.3.9-4.7 1.4-7.3 1.4 -5.7 0-10.7-2.2-14.1-6.3 -.4-.6-.8-1.1-1.2-1.7l-8.5 13.6c-2.5 3.9-6.1 6-10.6 6h-4.1c-3.9 0-7.1-1.7-8.8-4.8 -.5-.9-.8-1.8-1-2.7 -.4 2.2 0 4.4 1 6.2 1.7 3.1 4.9 4.8 8.8 4.8h4.1c4.5 0 8.1-2.1 10.6-6l8.5-13.6c.4.6.8 1.1 1.2 1.7 3.4 4.1 8.4 6.3 14.1 6.3 2.6 0 5-.5 7.3-1.4 1.2.5 2.6.8 4.2.8h4.7c1.9 0 3.7-.4 5.2-1.1 1.3.7 2.9 1.1 5 1.1h4.7c5 0 9-2.8 10.6-7.2 .3.5.7 1 1.1 1.5 3.4 4.1 8.4 6.3 14.1 6.3 2.6 0 5-.5 7.3-1.4 1.2.5 2.6.8 4.2.8h4.7c2.1 0 3.9-.5 5.5-1.3 1.3.7 3.1 1.3 5.3 1.3h4.9c5.8 0 10.2-3.7 11.2-9.4l.9-5.2h2.4c.6 3.4 2 6.4 4.1 8.9 3.4 4.1 8.4 6.3 14.1 6.3 2.6 0 5-.5 7.3-1.4 1.3.5 2.7.8 4.2.8h4.7c3.4 0 6.3-1.3 8.4-3.5 3.7 2.7 8.5 4.1 13.8 4.1 4.7 0 9.4-1.2 13.4-3.3 .5-.3.9-.5 1.4-.8 3 2.7 7.1 4.2 12.1 4.2 5.2 0 9.6-1.5 13-4.3 3.7 2.8 8.6 4.3 13.9 4.3 5.1 0 10.1-1.4 14.3-3.9 1.2 1.3 3.6 3.3 7.8 3.3h4.7c3.6 0 6.6-1.4 8.7-3.8 -.1-1.7.3-3.4 1.1-5.1 -2 3.4-5.5 5.4-9.8 5.4Z"></path><path d="M498.8 79.7l-5.6 3.2 .1-.2c-1.6.8-3.3 1.2-5.3 1.2h-4.7c-4.2 0-6.6-2-7.8-3.3 -4.2 2.5-9.2 3.9-14.3 3.9 -5.3 0-10.2-1.5-13.9-4.3 -3.4 2.8-7.8 4.3-13 4.3 -5 0-9.1-1.5-12.1-4.2 -.5.3-.9.5-1.4.8 -4 2.1-8.7 3.3-13.4 3.3 -5.3 0-10.1-1.4-13.8-4.1 -2.1 2.2-5 3.5-8.4 3.5h-4.7c-1.5 0-2.9-.3-4.2-.8 -2.3.9-4.7 1.4-7.3 1.4 -5.7 0-10.7-2.2-14.1-6.3 -2.1-2.5-3.5-5.5-4.1-8.9h-2.4l-.9 5.2c-1 5.7-5.4 9.4-11.2 9.4h-4.9c-2.2 0-4-.6-5.3-1.3 -1.6.8-3.4 1.3-5.5 1.3h-4.7c-1.6 0-3-.3-4.2-.8 -2.3.9-4.7 1.4-7.3 1.4 -5.7 0-10.7-2.2-14.1-6.3 -.4-.5-.8-1-1.1-1.5 -1.6 4.4-5.6 7.2-10.6 7.2h-4.7c-2.1 0-3.7-.4-5-1.1 -1.5.7-3.3 1.1-5.2 1.1h-4.7c-1.6 0-3-.3-4.2-.8 -2.3.9-4.7 1.4-7.3 1.4 -5.7 0-10.7-2.2-14.1-6.3 -.4-.6-.8-1.1-1.2-1.7l-8.5 13.6c-2.5 3.9-6.1 6-10.6 6h-4.1c-3.9 0-7.1-1.7-8.8-4.8 -.5-.8-.8-1.8-1-2.7 -.2.8-.2 1.6-.2 2.4 0 .4.1.8.1 1.2 .2 1 .5 1.9 1 2.7 1.7 3.1 4.9 4.8 8.8 4.8h4.1c4.5 0 8.1-2.1 10.6-6l8.5-13.6c.4.6.8 1.1 1.2 1.7 3.4 4.1 8.4 6.3 14.1 6.3 2.6 0 5-.5 7.3-1.4 1.2.5 2.6.8 4.2.8h4.7c1.9 0 3.7-.4 5.2-1.1 1.3.7 2.9 1.1 5 1.1h4.7c5 0 9-2.8 10.6-7.2 .3.5.7 1 1.1 1.5 3.4 4.1 8.4 6.3 14.1 6.3 2.6 0 5-.5 7.3-1.4 1.2.5 2.6.8 4.2.8h4.7c2.1 0 3.9-.5 5.5-1.3 1.3.7 3.1 1.3 5.3 1.3h4.9c5.8 0 10.2-3.7 11.2-9.4l.9-5.2h2.4c.6 3.4 2 6.4 4.1 8.9 3.4 4.1 8.4 6.3 14.1 6.3 2.6 0 5-.5 7.3-1.4 1.3.5 2.7.8 4.2.8h4.7c3.4 0 6.3-1.3 8.4-3.5 3.7 2.7 8.5 4.1 13.8 4.1 4.7 0 9.4-1.2 13.4-3.3 .5-.3.9-.5 1.4-.8 3 2.7 7.1 4.2 12.1 4.2 5.2 0 9.6-1.5 13-4.3 3.7 2.8 8.6 4.3 13.9 4.3 5.1 0 10.1-1.4 14.3-3.9 1.2 1.3 3.6 3.3 7.8 3.3h4.7c4.3 0 7.8-2 9.8-5.4 .1-.3.3-.6.4-.8 .1-.1.1-.2.2-.3l.9-1.5Z" fill="#DCDCDC"></path><path fill="#BBB" d="M542.8 59.1l-21.5 34.6c-2.5 3.9-6.1 6-10.6 6h-4.1c-3.9 0-7.1-1.7-8.8-4.8 -.5-.9-.8-1.8-1-2.7 -.4 2.2-.1 4.3 1 6.2 1.7 3.1 4.9 4.8 8.8 4.8h4.1c4.5 0 8.1-2.1 10.6-6l21.5-34.6c2-2.7 2.6-5.4 2.1-7.9 -.3 1.4-1 2.9-2.1 4.4Z"></path><g fill="#DCDCDC"><path d="M506.6 99.7h4.1c4.5 0 8.1-2.1 10.6-6l21.5-34.6c1.1-1.5 1.8-3 2.1-4.4 .2-1.1.2-2.2 0-3.3v-.2c-.1.6-.3 1.3-.5 1.9 -.3.8-.6 1.6-1.1 2.4l-22 34.6c-2.5 3.9-6.1 6-10.6 6h-4.1c-3.9 0-7.1-1.7-8.8-4.8 -.2-.3-.3-.7-.5-1 -.2.6-.4 1.3-.5 1.9 .2 1 .5 1.9 1 2.7 1.7 3.1 4.9 4.8 8.8 4.8Z"></path><use xlink:href="#a"></use></g><path fill="#FFF" d="M543.9 45c-1.7-3.1-4.9-4.8-8.8-4.8h-4.7c-3.2 0-6 1.1-8.2 3.2 -1.9-2-4.7-3.2-7.9-3.2h-5.2c-.4 0-.9 0-1.3.1 -1.1-.4-2.3-.7-3.5-.7h-.7c-2 0-4.2.5-6.3 1.4 -1.2-.5-2.6-.8-4.3-.8h-4.3c-3.4 0-6.3 1.3-8.3 3.4 -3.7-2.6-8.4-4-13.6-4 -5.2 0-10.3 1.4-14.7 4.1 -.1-.2-.2-.3-.4-.5 -1-1.2-2.3-2-3.7-2.5 -.3-1.6-1-3.1-2-4.4 -1.7-2-4.3-3.1-7.2-3.1h-4.3c-4.5 0-8.2 2.6-9.8 6.8v.2l-.1.3c-.9.2-1.7.5-2.5.9 -2.8-1.1-5.9-1.6-9.2-1.6 -5.3 0-10.3 1.4-14.5 4 -1.9-2.2-4.7-3.4-7.9-3.4h-4.5c-1.6 0-3 .3-4.3.8 -2.1-.9-4.4-1.4-7-1.4 -1.7 0-3.4.2-5 .6 -.1-2.9-1.4-4.9-2.2-6 -1.1-1.3-3.6-3.5-8-3.5h-21c-1.5 0-3 .3-4.3.7 -.3-.2-.6-.4-1-.6 -1.3-.8-3.1-1.5-5.4-1.5h-4.7c-5.8 0-10.2 3.7-11.2 9.4l-.1.8c-.6-.1-1.2-.1-1.9-.1 -3.3 0-6.5.7-9.4 2.1 -1.6-1.4-3.7-2.1-5.9-2.1h-.7c-2 0-4.2.5-6.3 1.4 -1.2-.5-2.6-.8-4.3-.8h-4.3c-1.9 0-3.7.4-5.2 1.1 -1.3-.7-2.9-1.1-5-1.1h-4.7c-1.6 0-3 .3-4.3.8 -2.1-.9-4.4-1.4-7-1.4 -3.5 0-6.8.8-9.8 2.3 -1.7-1.1-3.7-1.7-6-1.7h-4.7c-3.2 0-6 1.1-8.2 3.2 -1.9-2-4.7-3.2-7.9-3.2h-5.2c-2 0-3.9.5-5.5 1.3 -2-1.1-4.7-1.9-8.2-1.9 -2.6 0-5 .5-7.2 1.4 -1.1-.5-2.5-.8-4.2-.8h-4.7c-1.9 0-3.7.4-5.2 1.1 -1.3-.7-2.9-1.1-5-1.1h-4.7c-1.6 0-3 .3-4.3.8 -2.1-.9-4.4-1.4-7-1.4 -10.9 0-20.4 8.1-23.1 19.5h-1.9l2.2-12.6c0-.2 0-.3.1-.4 .2-1.3.2-2.5 0-3.5 0-.2.1-.5.1-.7 0-.2 0-.5.1-.7v-1 -.5c-.2-2.6-1.4-4.3-2.2-5.3 -1.1-1.3-3.6-3.5-8-3.5h-4.9c-5.8 0-10.2 3.7-11.2 9.4l-.4 2.3c-3.3-1.9-7.3-2.9-11.7-2.9 -5.9 0-11.4 1.7-15.9 5 -1.9-2.2-5.3-4.8-11.2-5v-.8 -.5c-.3-2.5-1.4-4.2-2.1-5.3 -1.1-1.3-3.6-3.5-8-3.5h-4.9c-2.3 0-4.3.6-6 1.6 -.8-.2-1.8-.3-2.9-.3h-25.4c-5.8 0-10.2 3.7-11.2 9.4l-.6 3.3c-.3 1.6-.2 3 0 4.2 .1.3.2.8.3 1.2 .5 1.4 1.2 2.4 1.7 3 .9 1.1 2.8 2.8 6 3.3l-.6 3.4 -.6 3.3 -1.7 9.8c-.3 1.5-.2 2.8-.1 4 .1.5.2 1 .4 1.5 .5 1.4 1.2 2.4 1.7 3.1 1.9 2.3 4.7 3.5 8 3.5h4.7c4.3 0 7.8-2 9.8-5.4 .4.8.9 1.5 1.2 1.9 1.1 1.3 3.6 3.5 8 3.5h4.7c2.6 0 4.9-.7 6.8-2.1 1.4 1.1 3.5 2.1 6.5 2.1h4.7c3.3 0 6.1-1.2 8.1-3.3 3.7 2.5 8.4 3.9 13.8 3.9 5 0 9.7-1.1 13.9-3.3 1.3 1.2 3.6 2.7 7.2 2.7h22c2.7 0 5.1-.8 7-2.3 2.9 1.9 6.4 2.9 10.2 2.9 2.6 0 5-.5 7.3-1.4 1.2.5 2.6.8 4.3.8h4.7c1.9 0 3.7-.4 5.2-1.1 1.3.7 2.9 1.1 5 1.1h4.7c2.6 0 4.9-.7 6.8-2.1 1.4 1.1 3.5 2.1 6.5 2.1h5.4c-.4 1.2-.5 2.4-.4 3.6 0 .4.1.8.1 1.1 .2.9.5 1.8 1 2.7 1.7 3.1 4.9 4.8 8.8 4.8h4.1c4.5 0 8.1-2.1 10.6-6l8.5-13.6c.4.6.8 1.1 1.2 1.7 3.4 4.1 8.4 6.3 14.1 6.3 2.6 0 5-.5 7.3-1.4 1.2.5 2.6.8 4.2.8h4.7c1.9 0 3.7-.4 5.2-1.1 1.3.7 2.9 1.1 5 1.1h4.7c5 0 9-2.8 10.6-7.2 .3.5.7 1 1.1 1.5 3.4 4.1 8.4 6.3 14.1 6.3 2.6 0 5-.5 7.3-1.4 1.2.5 2.6.8 4.2.8h4.7c2.1 0 3.9-.5 5.5-1.3 1.3.7 3.1 1.3 5.3 1.3h4.9c5.8 0 10.2-3.7 11.2-9.4l.9-5.2h2.4c.6 3.4 2 6.4 4.1 8.9 3.4 4.1 8.4 6.3 14.1 6.3 2.6 0 5-.5 7.3-1.4 1.3.5 2.7.8 4.2.8h4.7c3.4 0 6.3-1.3 8.4-3.5 3.7 2.7 8.5 4.1 13.8 4.1 4.7 0 9.4-1.2 13.4-3.3 .5-.3.9-.5 1.4-.8 3 2.7 7.1 4.2 12.1 4.2 5.2 0 9.6-1.5 13-4.3 3.7 2.8 8.6 4.3 13.9 4.3 5.1 0 10.1-1.4 14.3-3.9 1.2 1.3 3.6 3.3 7.8 3.3h4.7c1.9 0 3.7-.4 5.3-1.2l-.1.2 5.6-3.2 .5-.3 -.9 1.5c-.1.1-.1.2-.2.3 -.2.3-.3.5-.4.8 -.8 1.7-1.2 3.4-1.1 5.1 0 .5.1 1 .2 1.4 .1.6.3 1.1.5 1.7 .1.3.3.7.5 1 1.7 3.1 4.9 4.8 8.8 4.8h4.1c4.5 0 8.1-2.1 10.6-6l22-34.6c.5-.8.8-1.5 1.1-2.3 .2-.6.4-1.2.5-1.8 .4-2.3 0-4.5-1.1-6.4Z"></path><path d="M42.8 38.2h-25.3c-2.2 0-3.5 1.2-3.9 3.3l-.5 3.3c-.4 2.2.6 3.3 2.7 3.3h6.9l-4.4 25.1c-.4 2.2.6 3.3 2.7 3.3h4.7c2.2 0 3.5-1.2 3.9-3.3l4.4-25.1h7.1c2.2 0 3.5-1.2 3.9-3.3l.5-3.3c.4-2.2-.6-3.3-2.7-3.3Zm23.1 9c-3.9 0-6.7 1.5-8.7 4.1l1.9-11c.4-2.2-.6-3.3-2.7-3.3h-4.7c-2.2 0-3.5 1.2-3.9 3.3l-5.8 32.9c-.4 2.2.6 3.3 2.7 3.3h4.7c2.2 0 3.5-1.2 3.9-3.3l2.2-12.4c.4-2.3 1.3-4.9 4.2-4.9 2.9 0 2.9 2.7 2.5 4.9l-2.2 12.4c-.4 2.2.6 3.3 2.7 3.3h4.7c2.2 0 3.5-1.2 3.9-3.3l2.4-13.5c.8-4.7 1.1-12.5-7.8-12.5Zm27.8-.1c-10.3 0-17.2 7.2-18.8 15.1 -1.4 8.2 3.6 14.8 14.2 14.8 3.7 0 7.7-.8 11.3-2.9 2-1.2 2.4-3 1.5-4.6l-.7-1.1c-.5-1-1.3-1.4-2.2-1.4 -.7 0-1.4.2-2.2.5 -2.1.9-3.9 1.1-5.2 1.1 -4.8 0-6.9-2.7-6.6-4.3h18c2 0 3.6-.8 3.9-2.6 1.6-9.2-4.2-14.6-13.2-14.6Zm3.6 12h-11.2c.6-2.8 3.6-4.2 6.3-4.1 2.8 0 5.2 1.3 4.9 4.1Zm36.8 7.5h-13.8l4.4-25.1c.4-2.2-.6-3.3-2.7-3.3l-4.8.1c-2.2 0-3.5 1.2-3.9 3.3l-5.6 31.6c-.4 2.2.6 3.3 2.7 3.3h22c2.2 0 3.5-1.2 3.9-3.3l.5-3.3c.4-2.2-.6-3.3-2.7-3.3Zm36.9-18.9h-4.7c-2.2 0-3.5 1.2-3.9 3.3l-.1.3c-1-2.6-3.7-4.2-7.4-4.2 -7.6 0-14.6 6.3-16 14.9 -1.5 8.6 3.2 14.9 10.8 14.9 3.7 0 6.9-1.5 8.9-4.1l-.1.3c-.4 2.2.6 3.3 2.7 3.3h4.7c2.2 0 3.5-1.2 3.9-3.3l3.9-22.1c.4-2.2-.6-3.3-2.7-3.3Zm-10.4 14.3c-.6 3.6-3.1 6.4-6.4 6.4 -3.3 0-4.8-2.8-4.2-6.4 .6-3.6 3.1-6.4 6.4-6.4 3.3 0 4.8 2.8 4.2 6.4Zm36.6-14.9c-3.9 0-6.7 1.6-8.7 4.2v-.3c.4-2.2-.6-3.3-2.7-3.3h-4.7c-2.2 0-3.5 1.2-3.9 3.3l-3.9 22.1c-.4 2.2.6 3.3 2.7 3.3h4.7c2.2 0 3.5-1.2 3.9-3.3l2.2-12.4c.4-2.3 1.3-4.9 4.2-4.9 2.9 0 2.9 2.7 2.5 4.9l-2.2 12.4c-.4 2.2.6 3.3 2.7 3.3h4.7c2.2 0 3.5-1.2 3.9-3.3l2.4-13.5c.8-4.7 1.1-12.5-7.8-12.5Zm39.8.6l-4.7.1c-1.9 0-3.3.8-4.2 2.6l-6.7 12 -2-12c-.3-1.9-1.4-2.7-3.3-2.7h-5.2c-2.5 0-3.9 1.6-3.2 3.8l6.3 22.1 -6.9 11.2c-1.3 2.2-.6 3.8 1.9 3.8h4.1c1.9 0 3.2-.8 4.3-2.5l21.5-34.6c1.3-2.2.6-3.8-1.9-3.8Zm31.9 0h-4.7c-2.2 0-3.5 1.2-3.9 3.3l-.1.3c-1-2.6-3.7-4.2-7.4-4.2 -7.7 0-14.6 6.3-16.1 14.9 -1.5 8.6 3.2 14.9 10.8 14.9 3.7 0 6.9-1.5 8.9-4.1l-.1.3c-.4 2.2.6 3.3 2.7 3.3h4.8c2.2 0 3.5-1.2 3.9-3.3l3.9-22.1c.4-2.2-.6-3.3-2.7-3.3Zm-10.4 14.3c-.6 3.6-3.1 6.4-6.4 6.4 -3.3 0-4.8-2.8-4.2-6.4 .6-3.6 3.1-6.4 6.4-6.4 3.3 0 4.8 2.8 4.2 6.4Zm36-14.9v.1h-.5c-1.5 0-6.4.8-8.4 6.6l.5-2.8c.4-2.2-.6-3.3-2.7-3.3h-4.3c-2.2 0-3.5 1.2-3.9 3.3l-3.9 22.1c-.4 2.2.6 3.3 2.7 3.3h4.6c2.2 0 3.5-1.2 3.9-3.3l1.6-9.2c.5-3 2.2-6.2 6.8-6.2 .4 0 .8 0 1.2.1h.3c1.2 0 2.2-.8 2.5-2.4l1.1-6c.1-1 0-2.3-1.5-2.3Zm33.3-10.1h-4.6c-2.2 0-3.5 1.2-3.9 3.3l-2 11.1c-1-2.6-3.7-4.2-7.4-4.2 -7.7 0-14.6 6.3-16.1 14.9 -1.5 8.6 3.2 14.9 10.8 14.9 3.7 0 6.9-1.5 8.9-4.1l-.1.3c-.4 2.2.6 3.3 2.7 3.3h4.7c2.2 0 3.5-1.2 3.9-3.3l5.8-32.9c.4-2.2-.6-3.3-2.7-3.3Zm-12.3 25c-.6 3.6-3.1 6.4-6.4 6.4 -3.3 0-4.8-2.8-4.2-6.4 .6-3.6 3.1-6.4 6.4-6.4 3.3 0 4.8 2.8 4.2 6.4Zm43.9-23.8v.2h-20.9c-2.2 0-3.5 1.2-3.9 3.3l-5.6 31.6c-.4 2.2.6 3.3 2.7 3.3h4.9c2.2 0 3.5-1.2 3.9-3.3l2-11.4h10.7c2.1 0 3.4-1.2 3.8-3.3l.4-2.2c.4-2.2-.6-3.3-2.7-3.3h-10.7l.9-5h12.8c2.2 0 3.5-1.2 3.9-3.3l.5-3.3c.4-2.2-.6-3.3-2.7-3.3Zm31.3 9.5h-4.7c-2.2 0-3.5 1.2-3.9 3.3l-.1.3c-1-2.6-3.7-4.2-7.4-4.2 -7.6 0-14.5 6.3-16 14.9 -1.5 8.6 3.2 14.9 10.8 14.9 3.7 0 6.9-1.5 8.9-4.1l-.1.3c-.4 2.2.6 3.3 2.7 3.3h4.7c2.2 0 3.5-1.2 3.9-3.3l3.9-22.1c.4-2.2-.6-3.3-2.7-3.3Zm-10.4 14.3c-.6 3.6-3.1 6.4-6.4 6.4 -3.3 0-4.8-2.8-4.2-6.4 .6-3.6 3.1-6.4 6.4-6.4 3.3 0 4.8 2.8 4.2 6.4Zm41.8-12.4c-2.6-1.7-5.9-2.5-9.1-2.5 -9.8 0-18 6.6-19.8 15.2 -1.4 8.3 4.4 14.9 14.2 14.9 3.2 0 6.8-.8 9.9-2.5 2.2-1.1 2.5-3 1.5-4.6l-1-1.7c-.5-.9-1.2-1.3-2.1-1.3 -.6 0-1.4.2-2.3.6 -1.4.5-2.6.7-3.5.7 -3.7 0-5.9-2.6-5.2-6.3 .6-3.7 3.8-6.3 7.5-6.3 .9 0 2 .2 3.3.7 .8.4 1.5.6 2.1.6 .9 0 1.7-.4 2.6-1.3l1.6-1.6c1.7-1.7 1.9-3.5.3-4.6Zm24.7 15.1c-.1-.9-.7-1.2-1.6-1.2h-4c-1.1 0-1.6.6-1.7 1.7 0 .5 0 .6-.1.9 -.2 1.1-.8 2.2-1.9 2.2 -.7 0-1.2-.4-1-1.7l1.9-10.7h5.2c1 0 1.7-.6 1.9-1.6l.9-4.9c.1-1-.4-1.6-1.4-1.6h-5.2l.9-4.9c.2-1.4-.4-2.2-1.8-2.2v-.1h-4.3c-1.3 0-2.3.7-2.8 2l-1.8 5.1h-3.5c-1 0-1.7.6-1.9 1.6l-.9 4.9c-.1 1 .4 1.6 1.4 1.6h2.3l-1.9 10.6c-1.5 8.4 3.9 10.5 9 10.5 4.9 0 11-2 12.4-10 0-.7.1-1.5-.1-2.2Zm20.1-17.6c-9.8 0-17.8 6.6-19.1 14.9 -1.5 8.3 4.1 14.9 13.9 14.9 9.8 0 17.7-6.6 19.2-14.9 1.4-8.3-4.2-14.9-14-14.9Zm3.5 14.9c-.6 3.6-3.7 6.2-7.2 6.2 -3.6 0-5.7-2.6-5.1-6.2 .6-3.6 3.6-6.2 7.2-6.2 3.6 0 5.7 2.5 5.1 6.2Zm33.9-14.9v.1h-.6c-1.5 0-6.4.8-8.4 6.6l.5-2.8c.4-2.2-.6-3.3-2.7-3.3h-4.3c-2.2 0-3.5 1.2-3.9 3.3l-3.9 22.1c-.4 2.2.6 3.3 2.7 3.3h4.7c2.2 0 3.5-1.2 3.9-3.3l1.6-9.2c.5-3 2.2-6.2 6.8-6.2 .4 0 .8 0 1.2.1h.3c1.2 0 2.2-.8 2.5-2.4l1.1-6c.1-1 0-2.3-1.5-2.3Zm30.8.6l-4.6.1c-1.9 0-3.3.8-4.2 2.6l-6.7 12 -2-12c-.3-1.9-1.4-2.7-3.3-2.7h-5.2c-2.5 0-3.9 1.6-3.2 3.8l6.2 22.1 -6.9 11.2c-1.3 2.2-.6 3.8 1.9 3.8h4.1c1.9 0 3.2-.8 4.3-2.5l21.5-34.6c1.3-2.2.6-3.8-1.9-3.8Z" fill="#E90086"></path><path fill="#999" d="M600.3 25.2l-2.9 12.7 -2.1.2 .9-7.6 .1-.8c0-.4-.3-.6-.6-.6h-.2l-9.6.9c-.3 0-.5.2-.5.5l-.1 1.3 -2.3.3c-.1 0-.1 0-.1-.1v-1.8l3.6-3.3Z"></path><path d="M622.8 35.1l-13.9 1.6c2.8-3.4 8.3-10.6 8.6-14.7 .7-8.3-4-14.2-11.2-16.4 3.7-2.7 8-2.9 12.9-2.2l-1.5-.9c2.5 1.2 5.2 3.3 7.3 6.8 3.1 5.3 3.8 11.5-2.2 25.8Z" fill="#136693"></path><path fill="#0083C0" d="M619.2 3.3c-4.9-.7-9.2-.5-12.9 2.2 -.9.7-1.8 1.5-2.6 2.5 -3.8 4.6-4.6 9.4-4.8 11.7l-10.7 1.5c.8-3.9 4.5-18.8 16.3-20.6 6.9-.9 10 .1 13.1 1.8h.1l1.5.9Z"></path><path d="M677.5 68.3c-.7 1.9-9.4 3.8-19.1 5 -.9-.3-1.9-.6-3.1-.8 -6.5-1.4-22.6-3.4-28.4-4.2l2.3-12.5c7.2 1.2 27.9 4.7 34.7 6.6 7.1 2 12.2 3.6 13.5 5.7 .1.1.1.1.1.2Z" fill="#136693"></path><path fill="#0083C0" d="M675.3 79.5c-.2.7-.1 2-4.3 3.6 -3.8 1.5-9.9 3.9-25.1 5.2 -9.6.9-18.4.9-22.6.8l2.6-14.2c5.7.1 17.2.2 26.5-.8 2-.2 4.1-.5 6.2-.8 9.6-1.3 18.4-3.1 19.1-5 0-.1.1-.1.1-.2 .7 1.6-1.6 8.9-2.5 11.4Z"></path><g fill="#FFF"><path d="M557.7 71.9c-.3-1.1-.8-1.6-1.4-1.7 -.6 0-1.2.4-1.6 1.4 -.4.9-.7 2.1-.8 3.6 -.2 1.5-.1 2.7.2 3.9 .2 1 .7 1.6 1.3 1.7 .6.1 1.1-.4 1.6-1.3 .5-1 .8-2.2.9-3.7 .2-1.6.1-2.8-.2-3.9Zm12.4-18.6c-.6-1-1.5-1.5-2.7-1.4 -.9.1-1.8.4-2.6 1.1 -.8.7-1.6 1.6-2.3 2.9 -.7 1.3-1.3 2.8-1.8 4.7 -.5 1.9-.9 4-1.1 6.5 -.2 2.1-.2 4-.1 5.8 .2 1.8.5 3.3.9 4.6 .4 1.3 1 2.4 1.7 3.2 .8.8 1.6 1.3 2.6 1.5 1.2.1 2.1-.1 2.8-.9 .8-.8 1.2-2 1.4-3.6 .1-.9.1-1.6 0-2.3 -.1-.7-.3-1.3-.6-1.9 -.4.3-.7.6-1.1.8 -.4.3-.8.4-1.3.3 -.8-.1-1.5-.8-1.9-2 -.4-1.2-.5-3-.3-5.4 .1-1.2.3-2.2.5-3.1 .2-.9.5-1.6.8-2.2 .3-.6.7-1.1 1.1-1.4 .4-.3.8-.5 1.2-.5 .4 0 .9.1 1.2.4 .4.3.7.6 1 .9 .2-.5.5-1 .7-1.7 .3-.7.4-1.4.5-2.2 .2-1.7 0-3.1-.6-4.1Zm15.5 2.6c-.6-1.5-1.3-2.6-2.2-3.4 -.9-.8-1.9-1.2-3.1-1.1 -1.2 0-2.3.5-3.3 1.3 -1 .9-1.9 2-2.7 3.4 -.8 1.4-1.5 3.1-2 5.1 -.6 1.9-1 4.1-1.2 6.5 -.3 2.4-.3 4.6-.2 6.5 .1 1.9.4 3.6.9 5 .5 1.4 1.1 2.5 1.9 3.4 .8.9 1.7 1.4 2.8 1.6 1.1.1 2.2 0 3.2-.6 1-.6 1.9-1.5 2.8-2.8 .9-1.3 1.7-3 2.3-5.1 .7-2.1 1.2-4.5 1.5-7.3 .3-2.6.4-5 .4-7 -.2-2.2-.5-4-1.1-5.5Zm33.8 1.2c-.2-1.9-.7-3.5-1.4-4.6 -.7-1.1-1.6-1.9-2.6-2.4 -1-.5-2.1-.7-3.2-.6 -1.5.1-2.9.5-4 1.2 -1.1.8-2.1 1.6-3.1 2.7 -.6-1.1-1.4-2-2.4-2.5 -1-.5-2-.8-3-.7 -1.4.1-2.8.5-4.2 1.2 -1.3.8-2.4 1.7-3.3 2.9 -.5.6-.9 1.3-1.3 2.1 -.4.8-.6 1.8-.8 3l-2.5 20.5c-.1 1.1-.2 2-.1 2.7 .1.7.2 1.3.4 1.7 .2.4.5.7.9.9 .4.2.8.3 1.3.4 .5 0 1 .1 1.5 0 .5 0 .9-.1 1.1-.2l3.2-24.5c.2-.2.5-.4.9-.7 .4-.3.8-.4 1.2-.4 .6 0 1.1.3 1.5 1 .4.7.5 1.7.3 3.2l-2.3 17.1c-.1 1.2-.2 2.2-.1 2.9 0 .7.2 1.3.4 1.8 .3.5.6.8 1 1 .5.2.9.3 1.5.4 .6.1 1.1.2 1.7.1 .6 0 1-.1 1.3-.2l3.5-24.6c.1-.2.1-.3.1-.5v-.6c.2-.3.6-.7 1.1-1 .5-.3.9-.5 1.3-.5 .8 0 1.4.4 1.8 1.1 .4.7.4 1.8.2 3.4l-2.7 18.2c-.2 1.3-.3 2.3-.2 3.1 .1.8.2 1.4.5 1.9 .3.5.6.9 1.1 1.1 .5.2 1.1.4 1.7.5 .7.1 1.3.2 2 .1 .7 0 1.2-.1 1.5-.2l3.9-24.9c.4-2.8.5-5.2.3-7.1Z"></path><path d="M630.5 34.2l-7.7.9 -13.9 1.6 -11.5 1.3 -2.1.2 -.1 1.2 -.4 3.7 2.2-.3c.5 0 1 .5 1 1v1.7c0 .6-.4 1-1 1l-14.4.9c-.5 0-1-.5-1-1v-.8c0-.5.5-1 1-1l2.2-.3 .2-5 -27.3 3.1c-1.2 0-1.9.8-2.1 1.9l-7.6 43.3c-.3 1.6.5 2.8 2.1 3.1l68.7 9.7c1.8.2 2.6-1.2 2.9-2.7l1.6-8.6 2.6-14.2 1.2-6.6 2.3-12.5 3.6-19.6c.2-1.6-.7-2.3-2.5-2Zm-72.6 41.6c-.1 1.5-.4 2.7-.9 3.7 -.5.9-1 1.4-1.6 1.3 -.6-.1-1.1-.7-1.3-1.7 -.3-1.2-.4-2.4-.2-3.9 .1-1.5.4-2.7.8-3.6 .4-1 1-1.4 1.6-1.4 .6.1 1.1.6 1.4 1.7 .3 1.1.4 2.3.2 3.9Zm12.8-18.4c-.1.8-.2 1.5-.5 2.2 -.2.7-.5 1.2-.7 1.7 -.3-.3-.6-.6-1-.9 -.3-.3-.8-.4-1.2-.4 -.4 0-.8.2-1.2.5 -.4.3-.8.8-1.1 1.4 -.3.6-.6 1.3-.8 2.2 -.2.9-.4 1.9-.5 3.1 -.2 2.4-.1 4.2.3 5.4 .4 1.2 1.1 1.9 1.9 2 .5.1.9 0 1.3-.3 .4-.2.7-.5 1.1-.8 .3.6.5 1.2.6 1.9 .1.7.1 1.4 0 2.3 -.2 1.6-.6 2.8-1.4 3.6 -.7.8-1.6 1-2.8.9 -1-.2-1.8-.7-2.6-1.5 -.7-.8-1.3-1.9-1.7-3.2 -.4-1.3-.7-2.8-.9-4.6 -.1-1.8-.1-3.7.1-5.8 .2-2.5.6-4.6 1.1-6.5 .5-1.9 1.1-3.4 1.8-4.7 .7-1.3 1.5-2.2 2.3-2.9 .8-.7 1.7-1 2.6-1.1 1.2-.1 2.1.4 2.7 1.4 .6 1 .8 2.4.6 4.1Zm15.6 11c-.3 2.8-.8 5.2-1.5 7.3 -.6 2.1-1.4 3.8-2.3 5.1 -.9 1.3-1.8 2.2-2.8 2.8 -1 .6-2.1.7-3.2.6 -1.1-.2-2-.7-2.8-1.6 -.8-.9-1.4-2-1.9-3.4 -.5-1.4-.8-3.1-.9-5 -.1-1.9-.1-4.1.2-6.5 .2-2.4.6-4.6 1.2-6.5 .5-2 1.2-3.7 2-5.1 .8-1.4 1.7-2.5 2.7-3.4 1-.8 2.1-1.3 3.3-1.3 1.2-.1 2.2.3 3.1 1.1 .9.8 1.6 1.9 2.2 3.4 .6 1.5.9 3.3 1.1 5.5 0 2-.1 4.4-.4 7Zm32.8-4.2l-3.9 24.9c-.3.1-.8.2-1.5.2 -.7.1-1.3 0-2-.1 -.6-.1-1.2-.3-1.7-.5 -.5-.2-.8-.6-1.1-1.1 -.3-.5-.4-1.1-.5-1.9 -.1-.8 0-1.8.2-3.1l2.7-18.2c.2-1.6.2-2.7-.2-3.4 -.4-.7-1-1.1-1.8-1.1 -.4 0-.8.2-1.3.5 -.5.3-.9.7-1.1 1v.6c0 .2 0 .3-.1.5l-3.5 24.6c-.3.1-.7.2-1.3.2 -.6.1-1.1 0-1.7-.1 -.6-.1-1-.2-1.5-.4 -.4-.2-.7-.5-1-1 -.2-.5-.4-1.1-.4-1.8 -.1-.7 0-1.7.1-2.9l2.3-17.1c.2-1.5.1-2.5-.3-3.2 -.4-.7-.9-1-1.5-1 -.4 0-.8.1-1.2.4 -.4.3-.7.5-.9.7l-3.2 24.5c-.2.1-.6.2-1.1.2 -.5.1-1 0-1.5 0 -.5-.1-.9-.2-1.3-.4 -.4-.2-.7-.5-.9-.9 -.2-.4-.3-1-.4-1.7 -.1-.7 0-1.6.1-2.7l2.5-20.5c.2-1.2.4-2.2.8-3 .4-.8.8-1.5 1.3-2.1 .9-1.2 2-2.1 3.3-2.9 1.4-.7 2.8-1.1 4.2-1.2 1-.1 2 .2 3 .7 1 .5 1.8 1.4 2.4 2.5 1-1.1 2-1.9 3.1-2.7 1.1-.7 2.5-1.1 4-1.2 1.1-.1 2.2.1 3.2.6 1 .5 1.9 1.3 2.6 2.4 .7 1.1 1.2 2.7 1.4 4.6 .2 1.9.1 4.3-.3 7.1Z"></path></g><path fill="#B3B3B3" d="M596.2 29.8l-.1.8 -.9 7.6 -.1 1.2 -.4 3.7 -.2 1.8c0 .2-.2.4-.5.5l-8.7.8c-.5-.2-.7-.4-.7-.7l.1-1.2 .2-5 .3-7.4 .1-1.3c0-.3.2-.5.5-.5l9.6-.9h.2c.3 0 .6.2.6.6Zm4.8-10.3l-.7 5.7 -13.9 1.8v-5.4c0 0 0-.1.1-.1l1.8-.3 10.7-1.5 2-.2c-.1-.1 0-.1 0 0Z"></path><g fill="#136693"><path d="M557.9 75.8c-.1 1.5-.4 2.7-.9 3.7 -.5.9-1 1.4-1.6 1.3 -.6-.1-1.1-.7-1.3-1.7 -.3-1.2-.4-2.4-.2-3.9 .1-1.5.4-2.7.8-3.6 .4-1 1-1.4 1.6-1.4 .6.1 1.1.6 1.4 1.7 .3 1.1.4 2.3.2 3.9Z"></path><path d="M570.7 57.4c-.1.8-.2 1.5-.5 2.2 -.2.7-.5 1.2-.7 1.7 -.3-.3-.6-.6-1-.9 -.3-.3-.8-.4-1.2-.4 -.4 0-.8.2-1.2.5 -.4.3-.8.8-1.1 1.4 -.3.6-.6 1.3-.8 2.2 -.2.9-.4 1.9-.5 3.1 -.2 2.4-.1 4.2.3 5.4 .4 1.2 1.1 1.9 1.9 2 .5.1.9 0 1.3-.3 .4-.2.7-.5 1.1-.8 .3.6.5 1.2.6 1.9 .1.7.1 1.4 0 2.3 -.2 1.6-.6 2.8-1.4 3.6 -.7.8-1.6 1-2.8.9 -1-.2-1.8-.7-2.6-1.5 -.7-.8-1.3-1.9-1.7-3.2 -.4-1.3-.7-2.8-.9-4.6 -.1-1.8-.1-3.7.1-5.8 .2-2.5.6-4.6 1.1-6.5 .5-1.9 1.1-3.4 1.8-4.7 .7-1.3 1.5-2.2 2.3-2.9 .8-.7 1.7-1 2.6-1.1 1.2-.1 2.1.4 2.7 1.4 .6 1 .8 2.4.6 4.1Zm14.9-1.5c-.6-1.5-1.3-2.6-2.2-3.4 -.9-.8-1.9-1.2-3.1-1.1 -1.2 0-2.3.5-3.3 1.3 -1 .9-1.9 2-2.7 3.4 -.8 1.4-1.5 3.1-2 5.1 -.6 1.9-1 4.1-1.2 6.5 -.3 2.4-.3 4.6-.2 6.5 .1 1.9.4 3.6.9 5 .5 1.4 1.1 2.5 1.9 3.4 .8.9 1.7 1.4 2.8 1.6 1.1.1 2.2 0 3.2-.6 1-.6 1.9-1.5 2.8-2.8 .9-1.3 1.7-3 2.3-5.1 .7-2.1 1.2-4.5 1.5-7.3 .3-2.6.4-5 .4-7 -.2-2.2-.5-4-1.1-5.5Zm-4.8 12.2c-.2 2.6-.7 4.5-1.3 5.9 -.6 1.4-1.3 2-2.1 1.9 -.8-.1-1.3-.8-1.6-2.2 -.3-1.4-.3-3.4 0-5.9 .3-2.5.7-4.4 1.2-5.7 .6-1.4 1.3-2.1 2.1-2.1 .8 0 1.4.7 1.7 2.1 .3 1.4.3 3.4 0 6Zm38.3-3.9l-3.9 24.9c-.3.1-.8.2-1.5.2 -.7.1-1.3 0-2-.1 -.6-.1-1.2-.3-1.7-.5 -.5-.2-.8-.6-1.1-1.1 -.3-.5-.4-1.1-.5-1.9 -.1-.8 0-1.8.2-3.1l2.7-18.2c.2-1.6.2-2.7-.2-3.4 -.4-.7-1-1.1-1.8-1.1 -.4 0-.8.2-1.3.5 -.5.3-.9.7-1.1 1v.6c0 .2 0 .3-.1.5l-3.5 24.6c-.3.1-.7.2-1.3.2 -.6.1-1.1 0-1.7-.1 -.6-.1-1-.2-1.5-.4 -.4-.2-.7-.5-1-1 -.2-.5-.4-1.1-.4-1.8 -.1-.7 0-1.7.1-2.9l2.3-17.1c.2-1.5.1-2.5-.3-3.2 -.4-.7-.9-1-1.5-1 -.4 0-.8.1-1.2.4 -.4.3-.7.5-.9.7l-3.2 24.5c-.2.1-.6.2-1.1.2 -.5.1-1 0-1.5 0 -.5-.1-.9-.2-1.3-.4 -.4-.2-.7-.5-.9-.9 -.2-.4-.3-1-.4-1.7 -.1-.7 0-1.6.1-2.7l2.5-20.5c.2-1.2.4-2.2.8-3 .4-.8.8-1.5 1.3-2.1 .9-1.2 2-2.1 3.3-2.9 1.4-.7 2.8-1.1 4.2-1.2 1-.1 2 .2 3 .7 1 .5 1.8 1.4 2.4 2.5 1-1.1 2-1.9 3.1-2.7 1.1-.7 2.5-1.1 4-1.2 1.1-.1 2.2.1 3.2.6 1 .5 1.9 1.3 2.6 2.4 .7 1.1 1.2 2.7 1.4 4.6 .2 1.9.1 4.3-.3 7.1Z"></path></g></svg>