<svg xmlns="http://www.w3.org/2000/svg" version="1.1" baseProfile="basic" id="Layer_1" x="0px" y="0px" viewBox="0 0 1000 166">
	<path id="orange" fill="#FF6A00" d="M49.3,144.7c0,0-3.4,2.4-12.5,2.4c-28.7,0-32-23.6-29.7-44.2c4-36.1,55-86.4,95.5-86.4 c19.6,0,24.3,13.2,24.3,13.2s-4.7-6.4-18.9-6.4c-33.4,0-85.7,47.3-89.4,84.7C14.6,149.1,49.3,144.7,49.3,144.7"></path>
	<path id="red" fill="#FF122A" d="M36.2,166c-46.9,0-34.7-47.9-34.7-47.9s0,33.7,31.4,33.7c17.3,0,50.6-12.7,79.6-45.5 c43.2-48.9,32.4-95.5-5.4-95.5c-23.3,0-42.5,13.8-42.5,13.8S85.1,0,123.9,0c46.9,0,53.5,55.7,16.5,106.3 C124.9,127.5,89.5,166,36.2,166"></path>
	<linearGradient id="logo_gradient" gradientUnits="userSpaceOnUse" x1="178.9866" y1="66.6012" x2="999.1069" y2="66.6012">
		<stop offset="0" style="stop-color:#FF6A00"></stop>
		<stop offset="1" style="stop-color:#FF122A"></stop>
	</linearGradient>
	<path id="gradient" fill="url(#logo_gradient)" d="M254.7,32.3l-15,14.5c-3.3-3.6-7.1-5.9-12.9-5.9c-14.1,0-18,23.3-18,34.6 c0,10.5,3.8,15.7,11.4,15.7c5.6,0,10.4-3.2,16-7.3l10,16.1c-7.4,6.7-18.3,12.5-30.4,12.5c-22.6,0-36.1-12.6-36.1-36.2 c0-24.4,12.1-55.6,46.8-55.6C239.1,20.7,248.5,24.8,254.7,32.3z M285.2,109.8l0.1-7.6c-5.3,6.2-12.4,10.3-20.2,10.3 c-13,0-17.1-8.8-15.4-21.4l6.7-47.7h26.9l-5.7,42.1c-0.6,4.3,0.6,5,1.9,5c1.2,0,3.5-2,5.7-6.1l5.8-41h26.9l-9.2,66.4H285.2z M377.9,49.6l-11.4,14.5c-4.1-2.9-10.2-4.6-15-4.6c-3.6,0-4.5,0.7-4.5,2.1c0,1.9,1,2,12.1,5.8c10,3.5,16,9.9,16,20.3 c0,9.9-4.8,24.8-31.9,24.8c-12,0-24.2-4.8-30.5-12.1l13-13.6c4,3.5,9.7,7.1,16.9,7.1c2.7,0,6.1,0.5,6.1-2.6c0-2.1-1.7-2.7-12.3-6.3 c-9.9-3.5-16.1-10.9-16.1-20.3c0-13.8,11.5-23.8,31.1-23.8C360.8,40.8,372.6,44.2,377.9,49.6z M418.3,89.6l6.4,17.5 c-6.2,3.6-15.1,5.5-21.3,5.5c-17.5-0.1-23.7-10.2-21.1-28.9l3.1-21.8h-7.1l2.5-18.5h8.3l4-14l24-2.9l-2.4,16.9h14.5l-5.2,18.5h-11.8 l-3,21.8c-0.9,6.1,0.9,7.4,3.1,7.4C414.2,91.1,416.3,90.7,418.3,89.6z M495.2,69.8c-0.1,20.4-9.8,42.8-39.7,42.8 c-18.6,0-29.9-10.8-29.9-29c0-20.6,9.7-42.8,39.5-42.8C483.9,40.8,495.3,51.9,495.2,69.8z M453,84.8c0,6.1,1.4,8.2,4.8,8.2 c9.2,0,9.8-16.9,9.9-24.4c0.1-6.2-1.4-8.3-5-8.3C453.7,60.2,453,77.1,453,84.8z M596.2,60.6l-6.8,49.2h-26.9l6.4-41.5 c0.7-4.2,0-5.2-1.1-5.2c-1.5,0-4.6,3.7-7.4,12.5l-4.7,34.2h-26.9l6.4-41.5c0.7-4.2,0-5.2-1.1-5.2c-1.6,0-5.1,3.8-7.3,12.9l-5,33.8 h-26.9l9.2-66.4h23.5l0.2,9.2c4.7-7.6,12.8-11.8,19.6-11.8c8.3,0,13.4,3.8,14.9,10.8c5.1-6.6,12.5-10.8,18.8-10.8 C592.3,40.8,597.9,47.8,596.2,60.6z M698.2,32.3l-15,14.5c-3.3-3.6-7.1-5.9-12.9-5.9c-14.1,0-18,23.3-18,34.6 c0,10.5,3.8,15.7,11.4,15.7c5.6,0,10.4-3.2,16-7.3l10,16.1c-7.4,6.7-18.3,12.5-30.4,12.5c-22.6,0-36.1-12.6-36.1-36.2 c0-24.4,12.1-55.6,46.8-55.6C682.6,20.7,692,24.8,698.2,32.3z M718.3,86.2c0.7,5.6,4.5,7.2,9.2,7.2c5.3,0,9.8-2.2,16.1-6.1l9,15.4 c-7.3,5.5-17.2,9.8-28.9,9.8c-22.4,0-32.2-12.1-32.2-29.1c0-18,10.4-42.6,40.9-42.6c18,0,27.8,8.2,27.8,19.5 C760.2,78.6,736.9,84.6,718.3,86.2z M733.4,62c0-3-1.1-4.3-4.5-4.3c-5.3,0-8.2,6.6-9.5,13.8C733.5,70.9,733.4,62.1,733.4,62z M827,60.6l-6.9,49.2h-26.9l6.4-41.5c0.7-4.2,0.1-5.2-0.7-5.2c-1.9,0-5.1,4.1-9.2,13.4l-5,33.3h-26.9l9.2-66.4h23.5l0.4,10.5 c5-7.9,14.4-13.1,21.3-13.1C823,40.8,828.7,47.8,827,60.6z M868.7,89.6l6.4,17.5c-6.2,3.6-15.1,5.5-21.3,5.5 c-17.5-0.1-23.7-10.2-21.1-28.9l3.1-21.8h-7.1l2.5-18.5h8.3l4-14l24-2.9l-2.4,16.9h14.5l-5.2,18.5h-11.8l-3,21.8 c-0.9,6.1,0.9,7.4,3.1,7.4C864.6,91.1,866.8,90.7,868.7,89.6z M902.7,86.2c0.7,5.6,4.5,7.2,9.2,7.2c5.3,0,9.8-2.2,16.1-6.1l9,15.4 c-7.3,5.5-17.2,9.8-28.9,9.8c-22.4,0-32.2-12.1-32.2-29.1c0-18,10.4-42.6,40.9-42.6c18,0,27.8,8.2,27.8,19.5 C944.6,78.6,921.3,84.6,902.7,86.2z M917.8,62c0-3-1.1-4.3-4.5-4.3c-5.3,0-8.2,6.6-9.5,13.8C917.9,70.9,917.8,62.1,917.8,62z M1000,42.4l-7.6,26.5c-2.2-0.6-3.8-1.1-5.8-1.1c-7.8,0-11,7.9-13.8,15.6l-3.7,26.4h-26.9l9.2-66.4H975l0.2,11.4 c4-8.1,11.8-13.6,18.2-13.6C996.3,41.1,997.9,41.5,1000,42.4z"></path>
	<path id="black" fill="#1A1F2A" d="M189.5,128.6c0,4.1-2.6,8.6-9.8,8.6h-2.4l-1,7.4h-5.2l3.1-22.2h7 C186.4,122.5,189.5,124.5,189.5,128.6z M184.2,128.9c0-1.9-1.2-2.7-3.4-2.7h-1.9l-1,7.3h1.9C183.3,133.5,184.2,130.9,184.2,128.9z M203.4,135.3l4.2,9.3h-5.6l-3.4-8.5l-2.1,0l-1.2,8.5h-5.2l3.1-22.2h7.1c5.4,0,8.1,1.8,8.1,5.6C208.4,130.9,207.4,133.6,203.4,135.3 z M199.2,132.5c3.2,0,3.9-2.4,3.9-4.1c0-1.6-1.1-2.3-3.3-2.3h-2l-0.9,6.4H199.2z M229.6,131c0,6-2.7,14.2-11.6,14.2 c-5.4,0-8.5-3.3-8.5-9.1c0-5.9,2.8-14.2,11.6-14.2C226.5,121.9,229.6,125.2,229.6,131z M214.9,136.7c0,3.3,1.3,4.7,3.5,4.7 c4.8,0,5.9-7.1,5.9-11c0-3.2-1.2-4.6-3.5-4.6C215.9,125.8,214.9,132.8,214.9,136.7z M247.3,144.6l0.8-8.7c0.3-3.1,0.7-6.2,1.2-9.4 l-5.5,15.8h-5l-1.4-15.8c-0.2,3.6-0.5,6.4-1.1,9.5l-1.6,8.6h-5.1l4.8-22.2h6.3l1.2,15.4l5.2-15.4h6.7l-1.4,22.2H247.3z M275.9,131 c0,6-2.7,14.2-11.6,14.2c-5.4,0-8.5-3.3-8.5-9.1c0-5.9,2.8-14.2,11.6-14.2C272.8,121.9,275.9,125.2,275.9,131z M261.1,136.7 c0,3.3,1.3,4.7,3.5,4.7c4.8,0,5.9-7.1,5.9-11c0-3.2-1.2-4.6-3.5-4.6C262.2,125.8,261.1,132.8,261.1,136.7z M288.1,126.5l-2.5,18.2 h-5.2l2.6-18.2h-5.7l0.6-4h16.8l-1.1,4H288.1z M293.6,144.6l3.1-22.2h5.2l-3.1,22.2H293.6z M323.3,131c0,6-2.7,14.2-11.6,14.2 c-5.4,0-8.5-3.3-8.5-9.1c0-5.9,2.8-14.2,11.6-14.2C320.2,121.9,323.3,125.2,323.3,131z M308.5,136.7c0,3.3,1.3,4.7,3.5,4.7 c4.8,0,5.9-7.1,5.9-11c0-3.2-1.2-4.6-3.5-4.6C309.6,125.8,308.5,132.8,308.5,136.7z M334.9,144.6l-4.1-17.8c0.1,2.8,0.1,5.6-0.5,10 l-1.1,7.9h-4.6l3.1-22.2h6.5l4.2,17.8c-0.2-3.1-0.2-5.4,0.3-9.1l1.2-8.7h4.6l-3.1,22.2H334.9z M350.2,139.9l-1.8,4.8h-5.4l9.7-22.2 h6.2l3.5,22.2h-5.4l-0.4-4.8H350.2z M355.3,126l-3.7,10.1h4.7L355.3,126z M378.4,140.5l-1.1,4.2h-13.2l3.1-22.2h5.2l-2.5,18H378.4z M406.1,128.6c0,4.1-2.6,8.6-9.8,8.6h-2.4l-1,7.4h-5.2l3.1-22.2h7C403,122.5,406.1,124.5,406.1,128.6z M400.7,128.9 c0-1.9-1.2-2.7-3.4-2.7h-1.9l-1,7.3h1.9C399.8,133.5,400.7,130.9,400.7,128.9z M419.9,135.3l4.2,9.3h-5.6l-3.4-8.5l-2.1,0l-1.2,8.5 h-5.2l3.1-22.2h7.1c5.4,0,8.1,1.8,8.1,5.6C425,130.9,424,133.6,419.9,135.3z M415.7,132.5c3.2,0,3.9-2.4,3.9-4.1 c0-1.6-1.1-2.3-3.3-2.3h-2l-0.9,6.4H415.7z M446.1,131c0,6-2.7,14.2-11.6,14.2c-5.4,0-8.5-3.3-8.5-9.1c0-5.9,2.8-14.2,11.6-14.2 C443.1,121.9,446.1,125.2,446.1,131z M431.4,136.7c0,3.3,1.3,4.7,3.5,4.7c4.8,0,5.9-7.1,5.9-11c0-3.2-1.2-4.6-3.5-4.6 C432.5,125.8,431.4,132.8,431.4,136.7z M466.7,130.9c0,7.2-3.1,13.8-12.6,13.8h-6.6l3.1-22.2h6C461.9,122.5,466.7,124,466.7,130.9z M453.2,140.8h1.7c5.2,0,6.5-5.7,6.5-10c0-3.8-1.9-4.6-4.5-4.6h-1.7L453.2,140.8z M476.3,145.2c-5.7,0-8.1-3.3-7.5-8l2.1-14.8h5.2 l-2,14.7c-0.4,2.8,0.4,4.2,2.7,4.2c2.4,0,3.6-1.4,4-4.3l2-14.6h5.2l-2.1,14.9C485.2,141.8,481.9,145.2,476.3,145.2z M506.9,124.5 l-2.9,2.8c-1.1-1-2.1-1.6-3.6-1.6c-4.7,0-6.1,6.3-6.1,10.2c0,3.6,1.5,5.1,3.9,5.1c1.8,0,3.1-0.9,4.5-1.9l2,3.1 c-1.7,1.5-4.2,2.8-7.2,2.8c-5.3,0-8.6-3.2-8.6-9.2c0-6.1,3-14.1,11.4-14.1C503.3,121.9,505.4,122.8,506.9,124.5z M518.2,126.5 l-2.5,18.2h-5.2l2.6-18.2h-5.7l0.6-4h16.8l-1.1,4H518.2z M540.5,124.8l-2.8,2.8c-1.3-1.3-2.8-1.8-4.5-1.8c-2,0-3.4,0.9-3.4,2.5 c0,1.3,0.9,1.8,3.7,2.9c3.6,1.2,5.7,2.9,5.7,6.3c0,3.4-2.3,7.8-9.5,7.8c-3.8,0-6.4-1.4-8.1-3.2l3-2.9c1.3,1.4,3,2.2,5.1,2.2 c2.4,0,4-1.1,4-2.9c0-1.5-0.9-2.3-3.5-3.2c-4.2-1.3-5.9-3.3-5.9-6.2c0-3.2,2.6-6.9,8.7-6.9C536.4,121.9,538.8,123,540.5,124.8z M562.5,144.6l-0.4-16.9l-5.3,16.9h-6.5l-0.5-22.2h5.1l-0.4,18.2l5.6-18.2h5.4l0.3,18.2l5.1-18.2h5l-6.8,22.2H562.5z M575.2,144.6 l3.1-22.2h5.2l-3.1,22.2H575.2z M596.1,126.5l-2.5,18.2h-5.2l2.6-18.2h-5.7l0.6-4h16.8l-1.1,4H596.1z M608,135.1l-1.3,9.5h-5.2 l3.1-22.2h5.2l-1.2,8.6h6.6l1.2-8.6h5.2l-3.1,22.2h-5.2l1.3-9.5H608z M634.4,139.9l-1.8,4.8h-5.4l9.7-22.2h6.2l3.5,22.2h-5.4 l-0.4-4.8H634.4z M639.6,126l-3.7,10.1h4.7L639.6,126z M663.7,144.6l-1.9-16.3c0.2,2.8,0.4,6-0.2,10.5l-0.8,5.8h-6.3l3.1-22.4h8.9 l2,16.3c-0.3-3.2-0.4-5.9,0.2-10.7l0.8-5.6h6.3l-3.1,22.4H663.7z M696.8,130.8c0,6.1-2.7,14.5-12.3,14.5c-6,0-9-3.6-9-9.3 c0-6.2,2.8-14.4,12.3-14.4C693.7,121.6,696.8,125.1,696.8,130.8z M683,136.8c0,2.4,0.6,3.3,2.2,3.3c3.7,0,4.2-7,4.2-10.1 c0-2.4-0.6-3.3-2.2-3.3C683.5,126.8,683,133.9,683,136.8z M716.8,144.6l0.7-15.5l-3.9,15.5h-9.2l0.4-22.4h7.2l-1.4,17.1l4.3-17.1 h7.6l-1,17.1l3.9-17.1h7l-6,22.4H716.8z M751.7,130.8c0,6.1-2.7,14.5-12.3,14.5c-6,0-9-3.6-9-9.3c0-6.2,2.8-14.4,12.3-14.4 C748.7,121.6,751.7,125.1,751.7,130.8z M737.9,136.8c0,2.4,0.6,3.3,2.2,3.3c3.7,0,4.2-7,4.2-10.1c0-2.4-0.6-3.3-2.2-3.3 C738.4,126.8,737.9,133.9,737.9,136.8z M767.1,135.8l3.9,8.8h-7.9l-2.7-7.6h-0.8l-1.1,7.6h-7.3l3.1-22.4h8.6c5.7,0,8.6,1.8,8.6,5.9 C771.7,131.2,771.1,133.4,767.1,135.8z M761.6,132.1c2.2,0,2.6-2,2.6-3.1c0-1.2-0.8-1.7-2.1-1.7H761l-0.7,4.8H761.6z M786.8,135.8 l3.9,8.8h-7.9l-2.7-7.6h-0.8l-1.1,7.6H771l3.1-22.4h8.6c5.7,0,8.6,1.8,8.6,5.9C791.3,131.2,790.8,133.4,786.8,135.8z M781.3,132.1 c2.2,0,2.6-2,2.6-3.1c0-1.2-0.8-1.7-2.1-1.7h-1.1l-0.7,4.8H781.3z M802.4,144.6h-7.2l1.2-8.1l-5-14.2h7.8l1.6,8.7l4-8.7h7.8 l-8.9,14.2L802.4,144.6z M837.5,124.7l-4,3.7c-1.1-1.1-2.1-1.7-3.7-1.7c-4.8,0-5.7,5.9-5.7,10.2c0,2.6,0.8,3.3,2.3,3.3 c0.8,0,1.3-0.2,2-0.4l0.5-3.6h-1.9l0.1-4.9h9.4l-1.5,11.4c-2.7,1.7-6.2,2.6-8.8,2.6c-6.7,0-9.5-3.2-9.5-9c0-6.9,3.5-14.7,13.3-14.7 C833.4,121.6,836,123,837.5,124.7z M845.6,145.4c-6.4,0-9-3.4-8.3-8.4l2-14.7h7.3l-2,14.5c-0.3,2.3,0,3.3,1.6,3.3s2.3-1.1,2.6-3.3 l2-14.5h7.2l-2,14.7C855.5,141.6,852,145.4,845.6,145.4z M863.1,140.6l-1.2,4h-7.6l9.4-22.4h8.6l3.1,22.4h-7.7l-0.1-4H863.1z M867.1,126.8l-2.6,8.7h2.8L867.1,126.8z M891.1,135.8l3.9,8.8h-7.9l-2.7-7.6h-0.8l-1.1,7.6h-7.3l3.1-22.4h8.6 c5.7,0,8.6,1.8,8.6,5.9C895.6,131.2,895.1,133.4,891.1,135.8z M885.6,132.1c2.2,0,2.6-2,2.6-3.1c0-1.2-0.8-1.7-2.1-1.7H885l-0.7,4.8 H885.6z M901.8,140.6l-1.2,4H893l9.4-22.4h8.6l3.1,22.4h-7.7l-0.1-4H901.8z M905.9,126.8l-2.6,8.7h2.8L905.9,126.8z M923.2,144.6 l-1.9-16.3c0.2,2.8,0.4,6-0.2,10.5l-0.8,5.8H914l3.1-22.4h8.9l2,16.3c-0.3-3.2-0.4-5.9,0.2-10.7l0.8-5.6h6.3l-3.1,22.4H923.2z M948,127.8l-2.4,16.9h-7.3l2.4-16.9h-5.1l0.7-5.5h17.8l-1.5,5.5H948z M961.5,127.4l-0.5,3.5h6.1l-0.6,4.9h-6.1l-0.5,3.8h7.5 l-0.7,5.1h-14.7l3.1-22.4h15l-1.4,5.1H961.5z M977.7,127.4l-0.5,3.5h6.1l-0.6,4.9h-6.1l-0.5,3.8h7.5l-0.7,5.1H968l3.1-22.4h15 l-1.4,5.1H977.7z"></path>
</svg>