<?xml version="1.0" encoding="UTF-8"?>
<svg id="Layer_1" xmlns="http://www.w3.org/2000/svg" version="1.1" viewBox="0 0 3236 570">
  <g>
    <path fill-rule="evenodd" d="M359.89,348.32c-32.89,31.67-32.51,32.06-83.73,42.31-17.68,3.54-35.28,6.8-53.48,3.22-23.68-4.66-45.02-14.19-62.22-31.11-38.81-38.16-77.61-76.36-115.37-115.55-25.9-26.88-29.24-67.39-10.14-101.58,4.69-8.39,10.27-16.63,16.93-23.5,23.09-23.86,46.22-47.75,70.61-70.24,9.93-9.16,22.36-16.8,34.99-21.61,32.68-12.43,64.14-8.8,89.98,16.14,14.79,14.27,29.45,28.67,44.02,43.17,2.63-4.57,5.5-8.98,8.57-13.24-17.88-17.63-35.85-35.16-53.79-52.72C226.58,4.34,201.66-1.59,174.69,1.15c-25.35,2.57-46.7,14.17-64.77,31.5-24.64,23.62-48.96,47.61-72.77,72.08-8.62,8.86-16.15,19.04-22.82,29.48-20.2,31.63-21.47,85.11,11.96,116.16,8.77,8.15,16.43,17.49,24.95,25.93,35.73,35.39,70.61,71.72,107.71,105.63,30.42,27.8,67.32,39.64,108.85,30.9,14.84-3.12,29.33-7.96,44-11.91,10.12-2.73,20.28-5.29,30.08-7.84,9.89,11.23,17.74,22.82,30.79,22.04,41.3,41.12,80.85,80.51,120.52,120.01v11.35q10.75,12.86,21.85,17.44c16.52-15.37,33.21-31.55,49.02-49.14-3.05-10.37-10.93-15.39-17.86-21.69-4.01.26-8.01.53-12.92.86-37.61-37.95-75.28-75.96-112.95-113.99-1.94-1.96-3.75-4.06-5.46-5.92-3.68-15.32-4.04-15.87-21.8-31.63,1.36-6.33,2.38-12.67,4.12-18.8.48-1.67.96-3.35,1.46-5.01-5.77-1.01-11.43-2.33-16.96-3.95-3.98,13.07-11.49,23.74-21.81,33.68"/>
    <path fill-rule="evenodd" d="M804.69,247.74c-38.03,38.29-76.03,76.62-114.5,114.45-20.48,20.15-45.83,31.36-74.39,32.67-14.51.66-29.29-2.36-43.8-4.7-11.34-1.83-22.33-5.67-33.64-7.74-12.85-2.34-23.31-8.11-31.65-18.12-2.94-3.53-6.54-6.51-9.74-9.82-23.67-24.5-23.32-19.59-27.93-39.92-5.9,1.74-11.94,3.14-18.11,4.17,2.27,7.79,4.73,15.69,7.13,23.95-15.85,8.61-21.67,23.33-26.57,39.47,12.68,12.13,25.6,24.5,37.07,35.48,17.35-2.61,29.6-10.05,38.23-23.95,4.2.55,7,.59,9.61,1.32,14.2,4,28.49,7.74,42.5,12.34,53.35,17.55,100.31,6.63,140.18-32.36,41.91-40.97,82.8-82.98,124.35-124.32,26.28-26.15,31.15-57.41,22.84-91.96-5.14-21.39-18.12-38.31-32.95-53.65-22.45-23.22-45.13-46.29-68.77-68.28-11.01-10.24-23.67-19.44-37.03-26.27-34.31-17.55-76.71-12.82-102.2,11.96-18.37,17.87-36.67,35.81-54.87,53.86,2.91,4.03,5.62,8.2,8.14,12.5,13.81-13.34,27.86-26.44,41.28-40.18,27.4-28.05,71.17-32.09,104.74-13.33,7.21,4.03,14.57,8.43,20.39,14.15,26.63,26.16,53.42,52.23,78.8,79.58,16.62,17.92,22.73,38.18,22.88,60.77-.05,22.06-6.16,41.95-22.01,57.9"/>
    <path fill-rule="evenodd" d="M377.58,431.26c-20.14,20.88-40.57,42.07-60.04,62.25h-14.96c-5.78,6.16-11.61,12.38-18.51,19.73,17.66,18.33,33.89,35.62,53.95,52.79,7.62-7.45,14.04-13.73,19.85-19.41-.57-5.13-.96-8.63-1.64-14.72,20.3-19.74,41.36-40.21,62.37-60.65-8.6-12.31-30.92-34.34-41.01-39.99"/>
  </g>
  <g>
    <path fill="#bae021" fill-rule="evenodd" d="M1351.34,427.04c-10.56,0-19.13,8.56-19.13,19.13s8.57,19.13,19.13,19.13,19.13-8.57,19.13-19.13-8.57-19.13-19.13-19.13"/>
    <path fill="#bae021" fill-rule="evenodd" d="M1281.05,430.82c-8.47,0-15.35,6.87-15.35,15.34s6.87,15.34,15.35,15.34,15.35-6.87,15.35-15.34-6.87-15.34-15.35-15.34"/>
    <path fill="#bae021" fill-rule="evenodd" d="M1216.01,433.86c-6.8,0-12.31,5.51-12.31,12.31s5.51,12.31,12.31,12.31,12.31-5.51,12.31-12.31-5.51-12.31-12.31-12.31"/>
    <path fill="#bae021" fill-rule="evenodd" d="M1150.98,433.86c-6.8,0-12.31,5.51-12.31,12.31s5.51,12.31,12.31,12.31,12.31-5.51,12.31-12.31-5.51-12.31-12.31-12.31"/>
    <path fill="#bae021" fill-rule="evenodd" d="M1085.94,433.86c-6.8,0-12.31,5.51-12.31,12.31s5.51,12.31,12.31,12.31,12.31-5.51,12.31-12.31-5.51-12.31-12.31-12.31"/>
    <path fill="#bae021" fill-rule="evenodd" d="M1020.9,436.29c-5.45,0-9.87,4.42-9.87,9.87s4.42,9.87,9.87,9.87,9.87-4.42,9.87-9.87-4.42-9.87-9.87-9.87"/>
    <path fill="#bae021" fill-rule="evenodd" d="M955.87,438.25c-4.38,0-7.92,3.55-7.92,7.92s3.55,7.92,7.92,7.92,7.92-3.55,7.92-7.92-3.55-7.92-7.92-7.92"/>
    <path fill="#bae021" fill-rule="evenodd" d="M1351.34,479.64c-10.56,0-19.13,8.57-19.13,19.13s8.57,19.13,19.13,19.13,19.13-8.57,19.13-19.13-8.57-19.13-19.13-19.13"/>
    <path fill="#bae021" fill-rule="evenodd" d="M1281.05,483.43c-8.47,0-15.35,6.87-15.35,15.34s6.87,15.35,15.35,15.35,15.35-6.87,15.35-15.35-6.87-15.34-15.35-15.34"/>
    <path fill="#bae021" fill-rule="evenodd" d="M1216.01,486.46c-6.8,0-12.31,5.51-12.31,12.31s5.51,12.31,12.31,12.31,12.31-5.51,12.31-12.31-5.51-12.31-12.31-12.31"/>
    <path fill="#bae021" fill-rule="evenodd" d="M1150.98,486.46c-6.8,0-12.31,5.51-12.31,12.31s5.51,12.31,12.31,12.31,12.31-5.51,12.31-12.31-5.51-12.31-12.31-12.31"/>
    <path fill="#bae021" fill-rule="evenodd" d="M1085.94,486.46c-6.8,0-12.31,5.51-12.31,12.31s5.51,12.31,12.31,12.31,12.31-5.51,12.31-12.31-5.51-12.31-12.31-12.31"/>
    <path fill="#bae021" fill-rule="evenodd" d="M1020.9,488.9c-5.45,0-9.87,4.42-9.87,9.87s4.42,9.87,9.87,9.87,9.87-4.42,9.87-9.87-4.42-9.87-9.87-9.87"/>
    <path fill="#bae021" fill-rule="evenodd" d="M955.87,490.85c-4.38,0-7.92,3.55-7.92,7.92s3.55,7.92,7.92,7.92,7.92-3.55,7.92-7.92-3.55-7.92-7.92-7.92"/>
    <path fill="#bae021" fill-rule="evenodd" d="M1351.34,532.25c-10.56,0-19.13,8.57-19.13,19.13s8.57,19.13,19.13,19.13,19.13-8.56,19.13-19.13-8.57-19.13-19.13-19.13"/>
    <path fill="#bae021" fill-rule="evenodd" d="M1281.05,536.03c-8.47,0-15.35,6.87-15.35,15.35s6.87,15.35,15.35,15.35,15.35-6.87,15.35-15.35-6.87-15.35-15.35-15.35"/>
    <path fill="#bae021" fill-rule="evenodd" d="M1216.01,539.06c-6.8,0-12.31,5.51-12.31,12.31s5.51,12.31,12.31,12.31,12.31-5.51,12.31-12.31-5.51-12.31-12.31-12.31"/>
    <path fill="#bae021" fill-rule="evenodd" d="M1150.98,539.06c-6.8,0-12.31,5.51-12.31,12.31s5.51,12.31,12.31,12.31,12.31-5.51,12.31-12.31-5.51-12.31-12.31-12.31"/>
    <path fill="#bae021" fill-rule="evenodd" d="M1085.94,539.06c-6.8,0-12.31,5.51-12.31,12.31s5.51,12.31,12.31,12.31,12.31-5.51,12.31-12.31-5.51-12.31-12.31-12.31"/>
    <path fill="#bae021" fill-rule="evenodd" d="M1020.9,541.5c-5.45,0-9.87,4.42-9.87,9.88s4.42,9.87,9.87,9.87,9.87-4.42,9.87-9.87-4.42-9.88-9.87-9.88"/>
    <path fill="#bae021" fill-rule="evenodd" d="M955.87,543.45c-4.38,0-7.92,3.55-7.92,7.92s3.55,7.92,7.92,7.92,7.92-3.55,7.92-7.92-3.55-7.92-7.92-7.92"/>
  </g>
  <g>
    <path fill="#bae021" fill-rule="evenodd" d="M2827.07,427.04c10.56,0,19.13,8.56,19.13,19.13s-8.57,19.13-19.13,19.13c-10.56,0-19.13-8.57-19.13-19.13s8.57-19.13,19.13-19.13"/>
    <path fill="#bae021" fill-rule="evenodd" d="M2897.37,430.82c8.47,0,15.35,6.87,15.35,15.34s-6.87,15.34-15.35,15.34-15.35-6.87-15.35-15.34,6.87-15.34,15.35-15.34"/>
    <path fill="#bae021" fill-rule="evenodd" d="M2962.4,433.86c6.8,0,12.31,5.51,12.31,12.31s-5.51,12.31-12.31,12.31c-6.8,0-12.31-5.51-12.31-12.31s5.51-12.31,12.31-12.31"/>
    <path fill="#bae021" fill-rule="evenodd" d="M3027.44,433.86c6.8,0,12.31,5.51,12.31,12.31s-5.51,12.31-12.31,12.31-12.31-5.51-12.31-12.31,5.51-12.31,12.31-12.31"/>
    <path fill="#bae021" fill-rule="evenodd" d="M3092.47,433.86c6.8,0,12.31,5.51,12.31,12.31s-5.51,12.31-12.31,12.31-12.31-5.51-12.31-12.31,5.51-12.31,12.31-12.31"/>
    <path fill="#bae021" fill-rule="evenodd" d="M3157.51,436.29c5.45,0,9.87,4.42,9.87,9.87s-4.42,9.87-9.87,9.87c-5.45,0-9.87-4.42-9.87-9.87s4.42-9.87,9.87-9.87"/>
    <path fill="#bae021" fill-rule="evenodd" d="M3222.55,438.25c4.38,0,7.92,3.55,7.92,7.92s-3.55,7.92-7.92,7.92-7.92-3.55-7.92-7.92,3.55-7.92,7.92-7.92"/>
    <path fill="#bae021" fill-rule="evenodd" d="M2827.07,479.64c10.56,0,19.13,8.57,19.13,19.13,0,10.56-8.57,19.13-19.13,19.13-10.56,0-19.13-8.57-19.13-19.13,0-10.56,8.57-19.13,19.13-19.13"/>
    <path fill="#bae021" fill-rule="evenodd" d="M2897.37,483.43c8.47,0,15.35,6.87,15.35,15.34,0,8.47-6.87,15.35-15.35,15.35s-15.35-6.87-15.35-15.35c0-8.47,6.87-15.34,15.35-15.34"/>
    <path fill="#bae021" fill-rule="evenodd" d="M2962.4,486.46c6.8,0,12.31,5.51,12.31,12.31,0,6.8-5.51,12.31-12.31,12.31-6.8,0-12.31-5.51-12.31-12.31,0-6.8,5.51-12.31,12.31-12.31"/>
    <path fill="#bae021" fill-rule="evenodd" d="M3027.44,486.46c6.8,0,12.31,5.51,12.31,12.31,0,6.8-5.51,12.31-12.31,12.31s-12.31-5.51-12.31-12.31c0-6.8,5.51-12.31,12.31-12.31"/>
    <path fill="#bae021" fill-rule="evenodd" d="M3092.47,486.46c6.8,0,12.31,5.51,12.31,12.31,0,6.8-5.51,12.31-12.31,12.31s-12.31-5.51-12.31-12.31c0-6.8,5.51-12.31,12.31-12.31"/>
    <path fill="#bae021" fill-rule="evenodd" d="M3157.51,488.9c5.45,0,9.87,4.42,9.87,9.87s-4.42,9.87-9.87,9.87c-5.45,0-9.87-4.42-9.87-9.87s4.42-9.87,9.87-9.87"/>
    <path fill="#bae021" fill-rule="evenodd" d="M3222.55,490.85c4.38,0,7.92,3.55,7.92,7.92s-3.55,7.92-7.92,7.92-7.92-3.55-7.92-7.92,3.55-7.92,7.92-7.92"/>
    <path fill="#bae021" fill-rule="evenodd" d="M2827.07,532.25c10.56,0,19.13,8.57,19.13,19.13s-8.57,19.13-19.13,19.13c-10.56,0-19.13-8.56-19.13-19.13s8.57-19.13,19.13-19.13"/>
    <path fill="#bae021" fill-rule="evenodd" d="M2897.37,536.03c8.47,0,15.35,6.87,15.35,15.35s-6.87,15.35-15.35,15.35-15.35-6.87-15.35-15.35,6.87-15.35,15.35-15.35"/>
    <path fill="#bae021" fill-rule="evenodd" d="M2962.4,539.06c6.8,0,12.31,5.51,12.31,12.31s-5.51,12.31-12.31,12.31c-6.8,0-12.31-5.51-12.31-12.31s5.51-12.31,12.31-12.31"/>
    <path fill="#bae021" fill-rule="evenodd" d="M3027.44,539.06c6.8,0,12.31,5.51,12.31,12.31s-5.51,12.31-12.31,12.31-12.31-5.51-12.31-12.31,5.51-12.31,12.31-12.31"/>
    <path fill="#bae021" fill-rule="evenodd" d="M3092.47,539.06c6.8,0,12.31,5.51,12.31,12.31s-5.51,12.31-12.31,12.31-12.31-5.51-12.31-12.31,5.51-12.31,12.31-12.31"/>
    <path fill="#bae021" fill-rule="evenodd" d="M3157.51,541.5c5.45,0,9.87,4.42,9.87,9.88,0,5.45-4.42,9.87-9.87,9.87-5.45,0-9.87-4.42-9.87-9.87,0-5.45,4.42-9.88,9.87-9.88"/>
    <path fill="#bae021" fill-rule="evenodd" d="M3222.55,543.45c4.38,0,7.92,3.55,7.92,7.92s-3.55,7.92-7.92,7.92-7.92-3.55-7.92-7.92,3.55-7.92,7.92-7.92"/>
  </g>
  <g>
    <path fill="#bae021" fill-rule="evenodd" d="M425.14,36.98c73.45,0,133,59.55,133,133s-59.54,133-133,133-133-59.54-133-133,59.55-133,133-133h0ZM425.14,134.98c-19.33,0-35,15.67-35,35s15.67,35,35,35,35-15.67,35-35-15.67-35-35-35h0ZM460.14,68.16c0-9.13-15.67-16.54-35-16.54s-35,7.4-35,16.54,15.67,16.54,35,16.54,35-7.4,35-16.54h0ZM531.3,149.11c7.83-4.69,6.13-21.94-3.8-38.52-9.93-16.58-24.33-26.21-32.17-21.52-7.83,4.7-6.13,21.94,3.8,38.52,9.93,16.58,24.34,26.21,32.17,21.52h0ZM496.12,251.39c7.96,4.48,22.1-5.53,31.58-22.37,9.49-16.83,10.73-34.12,2.77-38.6-7.96-4.49-22.1,5.53-31.59,22.37-9.49,16.84-10.73,34.12-2.77,38.6h0ZM390.12,270.96c-.22,9.13,15.26,16.91,34.58,17.38,19.32.47,35.16-6.55,35.38-15.69.22-9.13-15.26-16.91-34.58-17.37-19.32-.47-35.16,6.55-35.38,15.68h0ZM319.69,190.4c-7.95,4.51-6.66,21.79,2.87,38.6,9.53,16.81,23.69,26.8,31.64,22.29,7.95-4.5,6.66-21.78-2.87-38.6-9.53-16.81-23.69-26.79-31.64-22.29h0ZM354.91,88.97c-7.85-4.68-22.23,4.99-32.12,21.6-9.89,16.6-11.55,33.86-3.7,38.53,7.85,4.67,22.23-5,32.12-21.6,9.89-16.6,11.55-33.86,3.7-38.53Z"/>
    <path fill="#6cab00" fill-rule="evenodd" d="M521.45,87.43c19.04,22.19,30.54,51.03,30.54,82.56,0,70.06-56.8,126.86-126.86,126.86s-126.86-56.8-126.86-126.86c0-31.53,11.51-60.36,30.54-82.55-1.05,4.21-1.6,8.55-1.6,12.98,0,1.14.04,2.27.11,3.4-1.59,2.09-3.12,4.35-4.55,6.76-6.8,11.41-9.71,23.12-8.32,30.85-1.07,7.72.4,13.85,4.61,16.36,5.77,3.44,15.07-.88,23.52-10.01,1.31-1.41,2.6-2.94,3.85-4.58,9.47,9.37,21.98,16.99,36.45,22.07-.07.59-.12,1.19-.16,1.79-.07.97-.1,1.94-.1,2.93,0,23.47,19.02,42.5,42.5,42.5s42.49-19.03,42.49-42.5c0-.98-.04-1.96-.1-2.92-.04-.6-.1-1.2-.16-1.79,14.48-5.09,26.98-12.71,36.46-22.08,1.25,1.63,2.54,3.16,3.86,4.58,8.49,9.16,17.84,13.49,23.62,10.03,4.2-2.51,5.66-8.62,4.58-16.31,1.4-7.73-1.54-19.47-8.38-30.89-1.44-2.4-2.97-4.66-4.56-6.75.07-1.14.11-2.28.11-3.44,0-4.43-.55-8.77-1.6-12.99h0ZM496.12,251.39c7.96,4.48,22.1-5.53,31.59-22.37,9.49-16.84,10.73-34.12,2.77-38.6-7.96-4.49-22.1,5.53-31.59,22.37-9.49,16.84-10.73,34.12-2.77,38.6h0ZM390.12,270.96c-.22,9.13,15.26,16.91,34.58,17.38,19.32.47,35.16-6.55,35.38-15.69.22-9.13-15.26-16.91-34.58-17.37-19.32-.47-35.16,6.55-35.38,15.68h0ZM319.69,190.4c-7.95,4.5-6.66,21.78,2.87,38.6,9.53,16.81,23.69,26.8,31.64,22.29,7.95-4.5,6.66-21.78-2.87-38.6-9.53-16.81-23.69-26.79-31.64-22.29Z"/>
  </g>
  <g>
    <path d="M939.87,358.26V27.64h142.49c16.14,0,31.04,3.26,44.7,9.78,13.66,6.52,25.45,15.29,35.39,26.31,9.93,11.02,17.62,23.36,23.05,37.02,5.43,13.66,8.15,27.47,8.15,41.44,0,19.56-4.58,38.03-13.74,55.41-9.16,17.39-21.89,31.59-38.18,42.61-16.3,11.02-35.32,16.53-57.04,16.53h-54.02v101.51h-90.8ZM1030.68,177.58h47.96c3.73,0,7.29-1.08,10.71-3.26,3.41-2.17,6.29-5.89,8.61-11.18,2.33-5.28,3.49-12.26,3.49-20.96,0-9.31-1.32-16.53-3.96-21.65-2.64-5.12-5.9-8.69-9.78-10.71-3.89-2.02-7.68-3.03-11.41-3.03h-45.63v70.78Z"/>
    <path d="M1223.92,92.83V18.33h88.47v74.51h-88.47ZM1223.92,358.26V113.32h88.47v244.94h-88.47Z"/>
    <path d="M1478.17,362.91c-21.73,0-40.91-3.36-57.51-10.08-16.61-6.71-30.66-15.95-42.14-27.71-11.49-11.75-20.18-25.11-26.08-40.07-5.9-14.96-8.85-30.69-8.85-47.18,0-21.98,5.2-42.51,15.6-61.6,10.4-19.08,25.61-34.42,45.63-46.03,20.02-11.6,44.47-17.4,73.34-17.4s54.32,6.21,74.5,18.63c20.18,12.42,35.23,28.41,45.17,47.96l-86.15,26.08c-4.04-5.89-8.93-10.4-14.67-13.5-5.75-3.1-12.19-4.66-19.33-4.66-8.08,0-15.37,2.02-21.89,6.04-6.52,4.02-11.72,9.76-15.6,17.21-3.89,7.45-5.82,16.54-5.82,27.27s1.94,19.46,5.82,27.05c3.88,7.6,9.08,13.42,15.6,17.44,6.52,4.02,13.81,6.03,21.89,6.03,4.96,0,9.47-.7,13.5-2.1,4.03-1.4,7.84-3.49,11.41-6.29,3.56-2.79,6.59-6.05,9.08-9.78l86.15,26.08c-6.52,13.04-15.45,24.53-26.78,34.46-11.34,9.94-24.68,17.77-40.05,23.52-15.37,5.74-32.99,8.61-52.85,8.61Z"/>
    <path d="M1787.36,358.26l-55.41-88.21-17.7,19.3v68.92h-88.47V18.33h88.47v187.85l65.19-89.6h93.13l-84.28,105.68,92.67,136h-93.6Z"/>
    <path d="M1894.92,18.33h88.47v242.61c0,9.01,1.94,15.91,5.82,20.72,3.88,4.82,9.55,7.22,17,7.22,3.73,0,7.76-.62,12.11-1.86,4.34-1.24,8.38-2.95,12.11-5.12l11.18,65.19c-10.56,4.97-22.43,8.85-35.62,11.64-13.2,2.79-25.69,4.19-37.49,4.19-23.6,0-41.76-6.13-54.48-18.39-12.73-12.26-19.09-29.72-19.09-52.39V18.33Z"/>
    <path d="M2182.7,362.91c-21.42,0-40.51-3.29-57.28-9.86-16.76-6.58-30.81-15.52-42.14-26.83-11.34-11.31-19.95-24.3-25.84-38.98-5.9-14.67-8.85-30.11-8.85-46.33,0-23.17,5.12-44.43,15.37-63.79,10.25-19.36,25.3-34.91,45.17-46.65,19.86-11.74,44.39-17.61,73.57-17.61s53.7,5.81,73.57,17.43c19.86,11.62,34.92,26.91,45.17,45.86,10.24,18.96,15.37,39.59,15.37,61.91,0,4.59-.23,9.25-.7,13.99-.47,4.74-1.01,8.94-1.63,12.61h-171.83c.62,8.25,3.03,14.96,7.22,20.12,4.19,5.16,9.47,8.91,15.83,11.27,6.36,2.36,12.96,3.54,19.79,3.54,9.62,0,18.7-2.17,27.24-6.52,8.53-4.34,14.2-10.4,17-18.16l74.97,21.42c-6.52,13.04-15.6,24.53-27.24,34.46-11.64,9.94-25.38,17.77-41.21,23.52-15.83,5.74-33.69,8.61-53.55,8.61ZM2140.79,211.57h81.02c-.93-7.58-3.19-13.99-6.75-19.24-3.57-5.25-8.23-9.33-13.97-12.25-5.75-2.91-12.34-4.37-19.79-4.37s-14.05,1.46-19.79,4.37c-5.75,2.92-10.4,7-13.97,12.25-3.57,5.25-5.82,11.66-6.75,19.24Z"/>
    <path d="M2501.67,362.91c-18.32,0-34.15-3.65-47.5-10.94-13.35-7.29-23.91-17.93-31.66-31.9v38.18h-76.83V18.33h88.47v135.51c7.14-13.34,17.23-23.52,30.27-30.5,13.04-6.98,28.41-10.48,46.1-10.48,14.9,0,28.71,3.14,41.44,9.39,12.73,6.26,23.82,15.04,33.29,26.33,9.47,11.3,16.84,24.66,22.12,40.08,5.27,15.42,7.92,32.13,7.92,50.15s-2.87,34.12-8.62,49.24c-5.75,15.11-13.66,28.32-23.75,39.61-10.09,11.3-22.05,20-35.86,26.11-13.82,6.1-28.95,9.16-45.4,9.16ZM2476.06,288.41c7.14,0,13.66-1.19,19.56-3.57,5.89-2.39,11.02-5.74,15.37-10.06,4.34-4.32,7.68-9.46,10.01-15.42,2.33-5.96,3.49-12.67,3.49-20.13,0-9.53-1.94-18.25-5.82-26.15-3.89-7.9-9.16-14.16-15.83-18.78-6.68-4.62-14.36-6.93-23.05-6.93-6.21,0-12.27,1.49-18.16,4.47-5.9,2.98-11.26,7.08-16.07,12.3-4.82,5.22-8.62,11.25-11.41,18.1v42.03c2.79,3.87,5.82,7.38,9.08,10.51,3.26,3.13,6.59,5.67,10.01,7.6,3.41,1.94,7.06,3.43,10.94,4.47,3.88,1.05,7.84,1.56,11.88,1.56Z"/>
    <path d="M2633.44,285.57c0-16.17,4.5-30.43,13.5-42.79,9-12.35,21.49-22.05,37.49-29.06,15.99-7.01,34.23-10.53,54.71-10.53,9.62,0,18.7.78,27.24,2.33,8.53,1.56,15.91,3.89,22.12,6.99v-7.45c0-11.04-3.34-19.23-10.01-24.58-6.68-5.34-17.46-8.02-32.36-8.02-13.66,0-26.47,2.26-38.42,6.75-11.95,4.5-24.45,11.1-37.49,19.79l-25.61-54.95c16.45-10.55,33.76-18.39,51.92-23.52,18.16-5.12,37.64-7.68,58.44-7.68,38.8,0,68.84,8.56,90.11,25.68,21.26,17.12,31.9,42.5,31.9,76.13v46.36c0,8.18,1.24,13.86,3.73,17.04,2.48,3.19,6.82,5.08,13.04,5.68v74.5c-7.14,1.55-13.9,2.71-20.26,3.49-6.37.77-12.03,1.16-17,1.16-15.83,0-27.87-2.87-36.09-8.61-8.23-5.74-13.58-14.2-16.07-25.38l-1.86-8.85c-10.87,13.97-23.44,24.61-37.72,31.9-14.28,7.29-29.5,10.94-45.63,10.94s-30.73-3.36-43.77-10.07c-13.04-6.71-23.28-15.94-30.73-27.68-7.45-11.74-11.18-24.94-11.18-39.59ZM2776.87,290.78c3.41-2.34,6.21-4.91,8.38-7.71,2.17-2.79,3.26-5.65,3.26-8.59v-17.17c-4.97-1.76-10.64-3.22-17-4.4-6.37-1.17-12.03-1.76-17-1.76-10.56,0-19.49,2.5-26.78,7.49-7.3,4.99-10.94,11.3-10.94,18.93,0,4.11,1.24,7.85,3.73,11.23,2.48,3.38,5.89,6.02,10.24,7.92,4.34,1.91,9.31,2.86,14.9,2.86,5.27,0,10.78-.81,16.53-2.42,5.74-1.62,10.63-3.74,14.67-6.38Z"/>
    <path d="M2924.01,18.33h88.47v242.61c0,9.01,1.94,15.91,5.82,20.72,3.88,4.82,9.55,7.22,17,7.22,3.73,0,7.76-.62,12.11-1.86,4.34-1.24,8.38-2.95,12.11-5.12l11.18,65.19c-10.56,4.97-22.43,8.85-35.62,11.64-13.2,2.79-25.69,4.19-37.49,4.19-23.6,0-41.76-6.13-54.48-18.39-12.73-12.26-19.09-29.72-19.09-52.39V18.33Z"/>
    <path d="M3089.32,18.33h88.47v242.61c0,9.01,1.94,15.91,5.82,20.72,3.88,4.82,9.55,7.22,17,7.22,3.73,0,7.76-.62,12.11-1.86,4.34-1.24,8.38-2.95,12.11-5.12l11.18,65.19c-10.56,4.97-22.43,8.85-35.62,11.64-13.2,2.79-25.69,4.19-37.49,4.19-23.6,0-41.76-6.13-54.48-18.39-12.73-12.26-19.09-29.72-19.09-52.39V18.33Z"/>
  </g>
  <g>
    <path d="M1463.14,568.26v-142h59.6c6.4,0,12.27,1.33,17.6,4,5.33,2.67,10,6.2,14,10.6,4,4.4,7.07,9.37,9.2,14.9,2.13,5.53,3.2,11.1,3.2,16.7,0,7.87-1.77,15.33-5.3,22.4-3.53,7.07-8.5,12.83-14.9,17.3-6.4,4.47-13.93,6.7-22.6,6.7h-38.2v49.4h-22.6ZM1485.74,499.06h36.8c4.13,0,7.8-1.17,11-3.5,3.2-2.33,5.73-5.53,7.6-9.6,1.87-4.07,2.8-8.63,2.8-13.7s-1.07-9.77-3.2-13.7c-2.13-3.93-4.9-7-8.3-9.2-3.4-2.2-7.03-3.3-10.9-3.3h-35.8v53Z"/>
    <path d="M1667.73,568.26v-142h61.8c6.4,0,12.27,1.33,17.6,4,5.33,2.67,9.96,6.2,13.9,10.6,3.93,4.4,7,9.37,9.2,14.9,2.2,5.53,3.3,11.1,3.3,16.7,0,6.4-1.13,12.43-3.4,18.1-2.27,5.67-5.5,10.57-9.7,14.7-4.2,4.13-9.1,7.13-14.7,9l33.4,54h-25.2l-30.8-49.4h-32.8v49.4h-22.6ZM1690.33,499.06h39c4.13,0,7.8-1.23,11-3.7,3.2-2.46,5.73-5.7,7.6-9.7,1.87-4,2.8-8.4,2.8-13.2s-1.1-9.4-3.3-13.4-4.97-7.17-8.3-9.5c-3.33-2.33-7-3.5-11-3.5h-37.8v53Z"/>
    <path d="M1938.33,569.26c-10,0-19.13-2-27.4-6-8.27-4-15.43-9.43-21.5-16.3-6.07-6.87-10.73-14.6-14-23.2-3.27-8.6-4.9-17.43-4.9-26.5s1.73-18.5,5.2-27.1c3.47-8.6,8.3-16.27,14.5-23,6.2-6.73,13.4-12.07,21.6-16,8.2-3.93,17.23-5.9,27.1-5.9s19.5,2.07,27.7,6.2c8.2,4.13,15.3,9.67,21.3,16.6,6,6.93,10.6,14.67,13.8,23.2,3.2,8.53,4.8,17.33,4.8,26.4s-1.67,18.3-5,26.9c-3.33,8.6-8.1,16.27-14.3,23-6.2,6.73-13.4,12.03-21.6,15.9-8.2,3.87-17.3,5.8-27.3,5.8ZM1893.53,497.26c0,6.8,1.03,13.3,3.1,19.5,2.07,6.2,5.07,11.73,9,16.6,3.93,4.87,8.67,8.7,14.2,11.5,5.53,2.8,11.83,4.2,18.9,4.2s13.6-1.47,19.2-4.4c5.6-2.93,10.33-6.9,14.2-11.9,3.87-5,6.8-10.57,8.8-16.7,2-6.13,3-12.4,3-18.8,0-6.8-1.07-13.27-3.2-19.4-2.13-6.13-5.2-11.63-9.2-16.5-4-4.87-8.77-8.7-14.3-11.5-5.53-2.8-11.7-4.2-18.5-4.2-7.33,0-13.77,1.47-19.3,4.4-5.54,2.93-10.23,6.87-14.1,11.8-3.87,4.93-6.8,10.47-8.8,16.6-2,6.13-3,12.4-3,18.8Z"/>
    <path d="M2229.33,568.26v-101.2l-41.8,76.8h-13.2l-41.8-76.8v101.2h-22.6v-142h24l47,86.6,47-86.6h24v142h-22.6Z"/>
    <path d="M2422.73,569.26c-10,0-19.13-2-27.4-6-8.27-4-15.43-9.43-21.5-16.3-6.07-6.87-10.73-14.6-14-23.2-3.27-8.6-4.9-17.43-4.9-26.5s1.73-18.5,5.2-27.1c3.47-8.6,8.3-16.27,14.5-23,6.2-6.73,13.4-12.07,21.6-16,8.2-3.93,17.23-5.9,27.1-5.9s19.5,2.07,27.7,6.2c8.2,4.13,15.3,9.67,21.3,16.6,6,6.93,10.6,14.67,13.8,23.2,3.2,8.53,4.8,17.33,4.8,26.4s-1.67,18.3-5,26.9c-3.33,8.6-8.1,16.27-14.3,23-6.2,6.73-13.4,12.03-21.6,15.9-8.2,3.87-17.3,5.8-27.3,5.8ZM2377.93,497.26c0,6.8,1.03,13.3,3.1,19.5,2.07,6.2,5.07,11.73,9,16.6,3.93,4.87,8.67,8.7,14.2,11.5,5.53,2.8,11.83,4.2,18.9,4.2s13.6-1.47,19.2-4.4c5.6-2.93,10.33-6.9,14.2-11.9,3.87-5,6.8-10.57,8.8-16.7,2-6.13,3-12.4,3-18.8,0-6.8-1.07-13.27-3.2-19.4-2.13-6.13-5.2-11.63-9.2-16.5-4-4.87-8.77-8.7-14.3-11.5-5.53-2.8-11.7-4.2-18.5-4.2-7.33,0-13.77,1.47-19.3,4.4-5.54,2.93-10.23,6.87-14.1,11.8-3.87,4.93-6.8,10.47-8.8,16.6-2,6.13-3,12.4-3,18.8Z"/>
    <path d="M2678.13,459.66c-1.2-1.47-3.1-3.03-5.7-4.7-2.6-1.67-5.6-3.2-9-4.6-3.4-1.4-7.13-2.6-11.2-3.6-4.07-1-8.23-1.5-12.5-1.5-9.33,0-16.27,1.72-20.8,5.17-4.53,3.45-6.8,8.23-6.8,14.33,0,4.51,1.27,8.09,3.8,10.75,2.53,2.66,6.43,4.81,11.7,6.47,5.27,1.66,11.77,3.42,19.5,5.28,9.73,2.26,18.1,4.98,25.1,8.16s12.4,7.36,16.2,12.54c3.8,5.17,5.7,12.07,5.7,20.7,0,7.04-1.37,13.14-4.1,18.31-2.73,5.18-6.5,9.39-11.3,12.64-4.8,3.25-10.33,5.67-16.6,7.27-6.27,1.59-13,2.39-20.2,2.39s-14.1-.77-21.1-2.3-13.67-3.73-20-6.6c-6.33-2.87-12.23-6.37-17.7-10.5l10.4-19.2c1.6,1.73,4.07,3.63,7.4,5.7,3.33,2.07,7.17,4.04,11.5,5.9,4.33,1.87,9.07,3.43,14.2,4.7,5.13,1.27,10.37,1.9,15.7,1.9,8.93,0,15.77-1.55,20.5-4.66,4.73-3.11,7.1-7.63,7.1-13.58,0-4.65-1.57-8.4-4.7-11.25-3.13-2.85-7.6-5.28-13.4-7.27-5.8-1.99-12.77-3.98-20.9-5.98-9.33-2.39-17.13-5.11-23.4-8.17-6.27-3.05-10.93-6.9-14-11.55-3.07-4.65-4.6-10.69-4.6-18.12,0-9.29,2.23-17.16,6.7-23.6,4.47-6.44,10.63-11.28,18.5-14.54,7.87-3.25,16.6-4.88,26.2-4.88,6.4,0,12.5.7,18.3,2.1,5.8,1.4,11.2,3.3,16.2,5.7,5,2.4,9.43,5.13,13.3,8.2l-10,18.4Z"/>
  </g>
</svg>