<?xml version="1.0" encoding="UTF-8"?><svg id="uuid-f9dcd6d9-8c86-40d3-82e6-b6652040b677" xmlns="http://www.w3.org/2000/svg" viewBox="0 0 180 43.15"><defs><style>.uuid-8027d325-01fe-4e54-8333-55155814a107{fill-rule:evenodd;}</style></defs><path class="uuid-8027d325-01fe-4e54-8333-55155814a107" d="m70.56,21.55c1.88-.92,3.36-2.22,4.42-3.9,1.06-1.68,1.59-3.67,1.59-5.96s-.53-4.3-1.59-5.97c-1.06-1.67-2.53-2.97-4.42-3.89-1.88-.92-4.07-1.38-6.55-1.38h-10.63v22.48h10.63c2.48,0,4.67-.46,6.55-1.38Zm-10.82-3.69V5.52h4.01c1.28,0,2.4.24,3.36.72.95.48,1.7,1.18,2.23,2.1.54.92.8,2.03.8,3.34s-.27,2.39-.8,3.32c-.53.93-1.28,1.64-2.23,2.12-.95.48-2.07.72-3.36.72h-4.01Z"/><rect x="79.76" y=".45" width="6.36" height="22.48"/><path class="uuid-8027d325-01fe-4e54-8333-55155814a107" d="m97.03,16.95h3.47l4.08,5.97h6.81l-4.86-7.07c1.36-.65,2.42-1.55,3.18-2.7.81-1.23,1.22-2.69,1.22-4.38s-.41-3.2-1.22-4.45c-.81-1.25-1.96-2.21-3.45-2.87-1.49-.66-3.26-.99-5.32-.99h-10.28v22.48h6.36v-5.97Zm0-11.5h3.53c1.33,0,2.32.29,2.97.87.65.58.98,1.39.98,2.44s-.33,1.83-.98,2.41c-.65.58-1.64.87-2.97.87h-3.53v-6.58Z"/><polygon class="uuid-8027d325-01fe-4e54-8333-55155814a107" points="132.98 17.93 121.22 17.93 121.22 13.99 131.21 13.99 131.21 8.99 121.22 8.99 121.22 5.44 132.56 5.44 132.56 .45 114.85 .45 114.85 22.93 132.98 22.93 132.98 17.93"/><path class="uuid-8027d325-01fe-4e54-8333-55155814a107" d="m139.12,20.1c1.1,1.05,2.41,1.86,3.92,2.42,1.51.57,3.15.85,4.93.85,2.08,0,3.93-.37,5.57-1.11,1.64-.74,3-1.78,4.09-3.13l-4.05-3.66c-.73.86-1.53,1.51-2.39,1.96-.87.45-1.84.67-2.91.67-.92,0-1.77-.15-2.54-.45-.77-.3-1.43-.73-1.97-1.3s-.97-1.25-1.28-2.04c-.31-.79-.47-1.67-.47-2.63s.16-1.84.47-2.63c.31-.79.74-1.47,1.28-2.04.55-.57,1.2-1,1.97-1.3s1.62-.45,2.54-.45c1.07,0,2.04.23,2.91.67.87.45,1.66,1.1,2.39,1.96l4.05-3.66c-1.09-1.37-2.46-2.42-4.09-3.15-1.64-.73-3.49-1.09-5.57-1.09-1.78,0-3.42.28-4.93.85-1.51.57-2.82,1.38-3.92,2.42-1.1,1.05-1.96,2.29-2.59,3.71-.62,1.42-.93,2.99-.93,4.7s.31,3.28.93,4.7c.62,1.42,1.48,2.66,2.59,3.71Z"/><polygon class="uuid-8027d325-01fe-4e54-8333-55155814a107" points="166.51 22.93 172.87 22.93 172.87 5.49 179.74 5.49 179.74 .45 159.6 .45 159.6 5.49 166.51 5.49 166.51 22.93"/><polygon class="uuid-8027d325-01fe-4e54-8333-55155814a107" points="63.8 31.67 53.96 31.67 53.52 33.8 57.14 33.8 55.31 42.96 57.93 42.96 59.76 33.8 63.36 33.8 63.8 31.67"/><path class="uuid-8027d325-01fe-4e54-8333-55155814a107" d="m73.45,32.59c-.77-.61-1.86-.92-3.26-.92h-4.6l-2.26,11.29h2.63l.63-3.16h2.22l1.78,3.16h2.76l-1.97-3.48c.23-.07.45-.15.66-.25.82-.38,1.46-.91,1.9-1.6.45-.69.67-1.51.67-2.46,0-1.11-.38-1.97-1.15-2.58Zm-2.21,4.54c-.48.39-1.15.59-2.02.59h-2.22l.79-3.92h2.06c.67,0,1.18.13,1.56.4.37.26.56.67.56,1.22,0,.75-.24,1.33-.72,1.72Z"/><path class="uuid-8027d325-01fe-4e54-8333-55155814a107" d="m81.37,31.67l-7.29,11.29h2.79l1.48-2.42h5.25l.53,2.42h2.61l-2.77-11.29h-2.6Zm-1.82,6.89l2.65-4.35.95,4.35h-3.61Z"/><path class="uuid-8027d325-01fe-4e54-8333-55155814a107" d="m98.28,32.24c-.83-.38-1.83-.57-2.99-.57h-4.73l-2.26,11.29h5.52c1.04,0,1.99-.16,2.86-.47.86-.31,1.6-.76,2.22-1.33.62-.58,1.1-1.27,1.44-2.07.34-.81.51-1.71.51-2.71s-.22-1.8-.66-2.51c-.44-.7-1.08-1.25-1.91-1.63Zm-.58,6.47c-.34.64-.83,1.16-1.47,1.53-.64.38-1.42.57-2.33.57h-2.55l1.4-7h2.24c.71,0,1.3.11,1.78.33.48.22.84.53,1.07.94.24.4.36.88.36,1.44,0,.82-.17,1.55-.51,2.19Z"/><polygon class="uuid-8027d325-01fe-4e54-8333-55155814a107" points="102.01 42.96 104.64 42.96 106.9 31.67 104.27 31.67 102.01 42.96"/><polygon class="uuid-8027d325-01fe-4e54-8333-55155814a107" points="116.32 38.75 112.11 31.67 109.95 31.67 107.69 42.96 110.27 42.96 111.69 35.89 115.9 42.96 118.04 42.96 120.3 31.67 117.72 31.67 116.32 38.75"/><path class="uuid-8027d325-01fe-4e54-8333-55155814a107" d="m125.28,34.96c.38-.4.83-.71,1.36-.93.53-.22,1.13-.33,1.8-.33s1.19.1,1.67.29c.48.19.91.52,1.28.97l1.87-1.52c-.48-.63-1.12-1.12-1.91-1.46-.79-.34-1.72-.51-2.8-.51s-2.03.17-2.9.52c-.87.34-1.62.82-2.24,1.43-.62.61-1.1,1.33-1.44,2.15-.34.83-.51,1.72-.51,2.68s.23,1.82.68,2.56c.46.74,1.1,1.31,1.93,1.73.83.41,1.82.62,2.96.62.82,0,1.6-.12,2.35-.35.75-.24,1.41-.58,1.98-1.02l.94-4.64h-2.39l-.67,3.38c-.1.05-.21.09-.32.13-.49.18-1.01.28-1.55.28-.71,0-1.31-.12-1.8-.36-.49-.24-.86-.57-1.1-.99-.25-.43-.37-.92-.37-1.49,0-.62.1-1.2.31-1.73.2-.53.49-1,.87-1.4Z"/><path class="uuid-8027d325-01fe-4e54-8333-55155814a107" d="m145.7,31.67h-4.56l-2.26,11.29h2.63l.62-3.11h2.51c1.13,0,2.1-.19,2.93-.56.82-.38,1.45-.92,1.9-1.62.44-.7.66-1.53.66-2.47,0-1.11-.38-1.97-1.15-2.59-.77-.62-1.86-.93-3.27-.93Zm1.06,5.46c-.48.39-1.15.59-2.01.59h-2.2l.79-3.92h2.04c.67,0,1.18.13,1.55.4.37.26.55.67.55,1.22,0,.75-.24,1.33-.72,1.72Z"/><polygon class="uuid-8027d325-01fe-4e54-8333-55155814a107" points="150.91 42.96 153.54 42.96 155.79 31.67 153.17 31.67 150.91 42.96"/><polygon class="uuid-8027d325-01fe-4e54-8333-55155814a107" points="165.21 38.75 161 31.67 158.84 31.67 156.58 42.96 159.17 42.96 160.58 35.89 164.79 42.96 166.94 42.96 169.2 31.67 166.62 31.67 165.21 38.75"/><path class="uuid-8027d325-01fe-4e54-8333-55155814a107" d="m178.03,37.26c-.33-.22-.7-.39-1.1-.53-.4-.14-.79-.26-1.19-.37s-.76-.22-1.1-.33c-.33-.11-.6-.25-.8-.42-.2-.17-.3-.38-.3-.65s.09-.51.28-.72c.19-.21.46-.37.82-.49.36-.12.79-.18,1.3-.18.56,0,1.1.07,1.63.22.53.14,1.01.36,1.43.65l.98-2c-.48-.31-1.06-.55-1.74-.72-.68-.17-1.4-.25-2.16-.25-1.04,0-1.95.16-2.73.47-.77.32-1.37.76-1.8,1.33-.43.57-.64,1.24-.64,2.01,0,.52.1.95.31,1.29.2.34.47.63.8.85.33.22.69.4,1.1.55.4.14.8.27,1.2.38.4.11.76.22,1.09.33.33.11.59.25.8.41.2.16.31.37.31.63,0,.28-.09.52-.28.71-.19.19-.46.34-.81.45-.35.11-.77.16-1.25.16-.44,0-.88-.05-1.32-.14-.44-.09-.86-.22-1.27-.4-.4-.18-.78-.39-1.14-.64l-1.07,2.02c.32.23.72.43,1.19.63.47.19.99.35,1.56.46.58.11,1.17.17,1.78.17,1.05,0,1.97-.16,2.75-.48.78-.32,1.38-.76,1.82-1.34.43-.58.65-1.25.65-2.02,0-.49-.1-.91-.31-1.23s-.47-.6-.81-.81Z"/><rect x="53.01" y="26.57" width="126.73" height="1.73"/><path class="uuid-8027d325-01fe-4e54-8333-55155814a107" d="m36.03,3.37c-2.92-1.97-7.13-2.83-9.36-2.99-.95-.07-17.1-.14-17.78-.14s-.95.34-1.15,1.08c-.2.75-1.9,10.45-2.58,13.57l-.35,1.79c4.22,0,10.13.03,11.15.01,1.16-.02,1.35-.39,1.42-.86.08-.47,1.38-6.97,1.45-7.44s.17-1.31,1.18-.49c1.02.81,15.2,13.03,15.88,13.64.68.61.71,1.29.03,1.76-.79.55-20.21,12.67-21.14,13.24-.86.52-1.13,0-1.09-.47.05-.47.95-5.79,1.01-6.66.04-.62-.02-1.1-.61-1.16-.57-.06-7.51-.12-11.5-.12L0,41.57c-.07,1.49.97,1.43.97,1.43,0,0,23.45-.07,24.34-.07s2.92,0,6.92-1.29c4-1.29,7.73-4.61,9.7-7.06,1.97-2.44,3.87-7.12,4.27-10.65.41-3.53-.27-7.06-1.76-11.06-1.49-4-5.5-7.53-8.41-9.5Z"/></svg>