<?xml version="1.0" encoding="utf-8"?>
<!-- Generator: Adobe Illustrator 25.1.0, SVG Export Plug-In . SVG Version: 6.00 Build 0)  -->
<svg version="1.1" id="Layer_1" xmlns="http://www.w3.org/2000/svg" xmlns:xlink="http://www.w3.org/1999/xlink" x="0px" y="0px"
	 viewBox="0 0 512 512" style="enable-background:new 0 0 512 512;" xml:space="preserve">
<style type="text/css">
	.st0{fill:#E6E6E6;}
	.st1{fill:#FFFFFF;}
	.st2{fill:#FF0000;}
</style>
<g>
	<g>
		<g>
			<path class="st0" d="M122.2,352.5c-5.5,0-10.6-2.1-14.5-6l-77-77c-8-8-8-21,0-29l77-77c3.9-3.9,9-6,14.5-6s10.6,2.1,14.5,6l77,77
				c3.9,3.9,6,9,6,14.5c0,5.5-2.1,10.6-6,14.5l-77,77C132.9,350.3,127.7,352.5,122.2,352.5z"/>
		</g>
		<g>
			<g>
				<path d="M122.2,161.2c4.5,0,8.7,1.8,12,4.9l77,77c3.2,3.2,4.9,7.4,4.9,12c0,4.6-1.8,8.7-4.9,12l-77,77c-3.2,3.2-7.4,4.9-12,4.9
					s-8.7-1.8-12-4.9l-77-77c-3.2-3.2-4.9-7.4-4.9-12c0-4.5,1.8-8.7,4.9-12l77-77C113.5,162.9,117.7,161.2,122.2,161.2 M122.2,153.9
					c-6.5,0-12.5,2.5-17.1,7l-77,77c-9.5,9.5-9.5,24.8,0,34.2l77,77c4.5,4.5,10.6,7,17.1,7c6.5,0,12.5-2.5,17.1-7l77-77
					c9.5-9.5,9.5-24.8,0-34.2l-77-77C134.7,156.4,128.7,153.9,122.2,153.9L122.2,153.9z"/>
			</g>
		</g>
	</g>
	<g>
		<path d="M128,340.1c-0.7,0-1.3-0.4-1.7-1c-0.4-0.9,0-2,0.9-2.4c1-0.5,2-1.1,2.8-1.9l7.3-7.3c0.7-0.7,1.9-0.7,2.6,0
			c0.4,0.4,0.5,0.8,0.5,1.3s-0.2,1-0.5,1.3l-7.3,7.3c-1.1,1.1-2.3,2-3.7,2.6C128.5,340.1,128.3,340.1,128,340.1z M114.7,337.8
			c-0.5,0-1-0.2-1.3-0.5l0,0l-10.2-10.2c-0.4-0.4-0.5-0.8-0.5-1.3s0.2-1,0.5-1.3c0.7-0.7,1.9-0.7,2.6,0l10.2,10.2l0,0
			c0.4,0.4,0.5,0.8,0.5,1.3s-0.2,1-0.5,1.3C115.7,337.7,115.2,337.8,114.7,337.8z M74,297.1c-0.5,0-1-0.2-1.3-0.5l-10.2-10.2
			c-0.4-0.4-0.5-0.8-0.5-1.3s0.2-1,0.5-1.3c0.7-0.7,1.9-0.7,2.6,0L75.3,294c0.4,0.4,0.5,0.8,0.5,1.3s-0.2,1-0.5,1.3
			C75,296.9,74.5,297.1,74,297.1z M53.6,276.8c-0.5,0-1-0.2-1.3-0.5l-10.2-10.2c-0.4-0.4-0.5-0.8-0.5-1.3s0.2-1,0.5-1.3
			c0.7-0.7,1.9-0.7,2.6,0l10.2,10.2c0.4,0.4,0.5,0.8,0.5,1.3s-0.2,1-0.5,1.3C54.6,276.6,54.2,276.8,53.6,276.8z M38,254.1
			c-0.1,0-0.2,0-0.3,0c-0.9-0.1-1.5-0.9-1.5-1.8c0-0.1,0-0.2,0-0.3c0.4-2.8,1.8-5.3,3.7-7.3l5.1-5.1c0.7-0.7,1.9-0.7,2.6,0
			s0.7,1.8,0,2.6l-5.1,5.1c-1.5,1.5-2.4,3.3-2.7,5.3C39.6,253.5,38.9,254.1,38,254.1z M56.5,232.6c-0.5,0-1-0.2-1.3-0.5
			c-0.4-0.4-0.5-0.8-0.5-1.3s0.2-1,0.5-1.3l10.2-10.2c0.7-0.7,1.9-0.7,2.6,0c0.4,0.4,0.5,0.8,0.5,1.3s-0.2,1-0.5,1.3l-10.2,10.2
			C57.5,232.4,57,232.6,56.5,232.6z M76.8,212.2c-0.5,0-1-0.2-1.3-0.5c-0.4-0.3-0.5-0.8-0.5-1.3s0.2-1,0.5-1.3l10.2-10.2
			c0.7-0.7,1.9-0.7,2.6,0c0.4,0.4,0.5,0.8,0.5,1.3s-0.2,1-0.5,1.3l-10.2,10.2C77.8,212.1,77.3,212.2,76.8,212.2z M151.6,194.8
			c-0.5,0-1-0.2-1.3-0.5l-10.2-10.2c-0.4-0.4-0.5-0.8-0.5-1.3s0.2-1,0.5-1.3c0.7-0.7,1.9-0.7,2.6,0l10.2,10.2
			c0.4,0.4,0.5,0.8,0.5,1.3s-0.2,1-0.5,1.3C152.5,194.5,152,194.8,151.6,194.8z M97.2,191.9c-0.5,0-1-0.2-1.3-0.5
			c-0.4-0.4-0.5-0.8-0.5-1.3s0.2-1,0.5-1.3l10.2-10.2c0.7-0.7,1.9-0.7,2.6,0s0.7,1.8,0,2.6l-10.2,10.2
			C98.1,191.8,97.6,191.9,97.2,191.9z M131.2,174.4c-0.5,0-1-0.2-1.3-0.5c-1.8-1.8-4.3-2.9-7-2.9c-1.5,0-2.9,0.3-4.3,1
			c-0.9,0.4-2.1,0-2.4-0.9c-0.1-0.3-0.1-0.5-0.1-0.8c0-0.7,0.4-1.3,1-1.6c1.8-0.9,3.8-1.3,5.8-1.3c3.7,0,7,1.4,9.6,4
			c0.7,0.7,0.7,1.9,0,2.6C132.2,174.2,131.7,174.4,131.2,174.4z"/>
	</g>
	<g>
		<path d="M417.8,337.5c-4.3,0-8.1-0.4-11.3-1c-3.2-0.7-6.1-1.8-8.7-3.3c-2.5,1.2-5.4,2.3-8.6,3.1c-3.3,0.8-6.5,1.2-9.4,1.2
			c-6.1,0-11.5-1.2-16.3-3.7c-1.5-0.7-2.9-1.6-4.1-2.6c-0.4,0.5-0.9,1-1.3,1.4c-2.3,2.1-6.4,4.6-12.6,4.6c-4.9,0-9.3-1.6-12.6-4.6
			c-0.1-0.1-0.1-0.1-0.3-0.2c-0.1,0.1-0.1,0.1-0.3,0.3c-2.3,2.1-6.4,4.6-12.6,4.6c-4.3,0-8.1-1.2-11.1-3.4
			c-4.8,2.4-10.4,3.6-16.6,3.6c-6.5,0-12.2-1.4-17-4.2c-0.5,0.4-1,0.8-1.6,1.2c-3,1.9-6.7,2.9-10.9,2.9c-0.6,0-1.2,0-1.8-0.1
			l-2.3-0.1c-7-0.5-12.8-2.9-17.1-6.7c-0.7,0.9-1.3,1.7-2,2.3c-2.3,2.2-6.3,4.8-12.6,4.8c-2.6,0-5.1-0.5-7.4-1.5
			c-2.7,1.1-5.7,1.7-8.9,1.7c-4.4,0-8.5-1-12.2-2.8c-4-2-7.1-4.8-9.5-8.4c-2.2-3.4-3.4-7.2-3.6-11.3c-3.5,1.2-7.3,1.7-11.6,1.7h-1.3
			v2.3c0,6.6-2.9,10.8-5.3,13.2c-2.3,2.3-6.6,5.1-13.1,5.1s-10.7-2.8-13.1-5.2c-2.3-2.3-5.2-6.5-5.2-13.1v-42.2c0-0.4,0-0.7,0-1
			c-0.5,0.1-1.1,0.1-1.6,0.1c-3.7,0-7.2-1-10.3-2.8c-3.6-2.1-6.2-5.3-7.6-9.2l-16-43c-0.8-2.2-1.2-4.5-1.2-6.7
			c0-5.3,2.2-10,6.2-13.2c3.4-2.7,7.5-4.2,11.9-4.2c3.5,0,6.9,1,9.9,2.8c3.4,2.1,5.9,5.3,7.3,9.2l0.6,1.8l0.7-2
			c1.3-3.6,3.7-6.7,6.8-8.8c3-2.1,6.4-3.1,10-3.1s7.1,1,10.1,3.1c3.2,2.1,5.4,5.2,6.7,9l0.5,1.5l0.6-1.6c1.3-3.8,3.7-6.7,6.9-8.9
			c3-2.1,6.5-3.1,10-3.1c3.6,0,7,1,9.9,2.9c2.9-1.8,6.4-2.8,10.2-2.8c4.8,0,9,1.5,12.2,4.4c3.4,3,5.4,7.2,5.6,11.9
			c0.4,0,0.9,0,1.3,0c9.6,0,15.3,4.2,18.4,7.8c1.8-1.6,3.9-3,6.2-4.2c4.8-2.4,10.3-3.7,16.3-3.7c6.1,0,11.5,1.2,16.3,3.7
			c0.1,0.1,0.2,0.1,0.4,0.2v-2.4c0-5.5,2.1-10.3,6.1-13.5c3.3-2.7,7.5-4.2,12.1-4.2c4.5,0,8.7,1.5,12.1,4.2c3.9,3.2,6.1,8,6.1,13.5
			v2.1c4.5-2.3,9.4-3.5,14.7-3.5c5.6,0,10.6,1.3,15.1,3.9c1.7,1,3.2,2.1,4.7,3.4c2.1-1.9,4.7-3.5,7.6-4.7c4-1.7,8.4-2.5,13.1-2.5
			c3.3,0,6.5,0.4,9.7,1.2c3.2,0.8,6.2,2.1,8.9,3.7c0.2,0.1,0.4,0.2,0.6,0.4c0.4-0.2,0.8-0.5,1.2-0.7l0.3-0.1
			c2.8-1.4,5.9-2.5,9.8-3.3c3.5-0.7,7-1.1,10.5-1.1c5.5,0,10.3,1,14.4,2.9V215c0-5.5,2.1-10.3,6.1-13.5c3.3-2.7,7.5-4.2,12.1-4.2
			c4.5,0,8.7,1.5,12.1,4.2c3.9,3.2,6.1,8,6.1,13.5v2.1c4.5-2.3,9.4-3.5,14.7-3.5c5.6,0,10.6,1.3,15.1,3.9c4.6,2.6,8.1,6.5,10.6,11.2
			c2.3,4.5,3.5,9.6,3.5,15.3c0,2.4-0.4,4.6-1.3,6.6c0.8,2,1.2,4.2,1.2,6.5c0,6.2-3.2,11.5-8.9,14.6l-0.3,0.1
			c-2.5,1.2-5.4,2.3-8.7,3.1c-3.3,0.8-6.5,1.2-9.4,1.2c-6.1,0-11.5-1.2-16.3-3.7c-1.5-0.7-2.9-1.6-4.3-2.6c-0.7,0.8-1.5,1.5-2.1,2.1
			c-3.4,2.7-7.4,4-12,4c-4.1,0-7.8-1.1-10.9-3.2c-2.4,1.7-5.9,3.2-10.8,3.2c-0.3,0-0.6,0-0.9,0c0.7,0.1,1.3,0.3,2,0.4
			c3.2,0.8,6.2,2.1,8.9,3.7c5,2.9,7.8,8.1,7.8,14.1c0,2.8-0.6,5.4-1.8,7.7c1.9,2.9,3.4,6.8,3.4,12.2c0,7.4-3.3,13.9-9.4,18.2
			C432,335.7,425.5,337.5,417.8,337.5z"/>
	</g>
	<g>
		<path class="st1" d="M501.8,248.7c1.4-1.7,2.1-3.8,2.1-6.4c0-4.8-1-9-2.9-12.8c-2-3.8-4.8-6.8-8.5-8.9c-3.6-2.1-7.7-3.1-12.3-3.1
			c-4.7,0-9,1.1-12.8,3.3c-3,1.7-5.4,4-7.4,6.7v-14.2c0-4.8-2.2-7.6-4-9.2c-2.3-1.9-5.2-2.9-8.5-2.9c-3.3,0-6.2,1-8.5,2.9
			c-1.8,1.5-4,4.3-4,9.2V227c-0.8-1.3-1.7-2.5-2.7-3.5c-4-4-9.8-5.9-17.2-5.9c-3.1,0-6.2,0.4-9.3,1c-3.3,0.7-6,1.6-8.4,2.8l-0.1,0.1
			c-1.7,0.9-3,2.1-4,3.4c-0.8-1.2-2-2.3-3.3-3.1c-2.2-1.3-4.7-2.3-7.4-3.1c-2.7-0.7-5.5-1-8.3-1c-4,0-7.7,0.7-11,2.1
			c-3.5,1.5-6.4,3.6-8.4,6.3c-0.4,0.6-0.9,1.2-1.2,1.9c-1.9-3-4.4-5.4-7.5-7.2c-3.6-2.1-7.7-3.1-12.3-3.1c-4.7,0-9,1.1-12.8,3.3
			c-3,1.7-5.4,4-7.4,6.7v-14.2c0-4.8-2.2-7.6-4-9.2c-2.3-1.9-5.2-2.9-8.5-2.9c-3.3,0-6.2,1-8.5,2.9c-1.8,1.5-4,4.3-4,9.2v14.4
			c-2.2-3-5-5.4-8.4-7.2c-4-2.1-8.7-3.1-13.8-3.1c-5.2,0-9.8,1-13.8,3.1c-4.1,2.1-7.3,5.1-9.6,8.9c-0.7-2.2-1.8-4.1-3.1-5.7
			c-2.3-2.9-6.6-6.2-14.4-6.2c-2.4,0-4.7,0.3-6.8,1v-5.6c0-3.4-1.3-6.5-3.8-8.6c-2.3-2-5.2-3-8.7-3s-6.6,1.1-8.9,3.2
			c-0.5,0.4-1,1-1.3,1.5c-0.5-0.7-1-1.2-1.7-1.8c-2.3-2-5.1-3-8.1-3c-2.5,0-4.9,0.7-7,2.1c-2.2,1.5-3.8,3.5-4.7,6.2l-5.9,16.7
			l-5.8-16.6c-1-2.6-2.5-4.8-4.6-6.2s-4.5-2.1-7-2.1s-4.9,0.7-7,2.1c-2.2,1.5-3.8,3.5-4.7,6.1l-6.1,16.6l-5.7-16.4
			c-1-2.7-2.6-4.9-5-6.4c-2.1-1.3-4.5-2-7-2c-3.1,0-6,1-8.4,2.9c-2.7,2.2-4.1,5.3-4.1,8.9c0,1.5,0.3,3.2,0.9,4.8l16,43
			c1,2.6,2.8,4.8,5.2,6.3c2.2,1.3,4.7,2,7.4,2c2.6,0,5.1-0.7,7.3-2c2.4-1.5,4.3-3.6,5.2-6.2l5.4-14.9l5.1,14.7
			c0.3,0.9,0.7,1.8,1.2,2.6h-5.1c-4.5,0-7.3,1.8-8.9,3.4c-1.5,1.5-3.4,4.3-3.4,8.9v42.2c0,4.6,1.9,7.6,3.5,9.2
			c1.6,1.6,4.5,3.6,9.2,3.6s7.6-1.9,9.2-3.5c1.7-1.6,3.7-4.5,3.7-9.2V310h6.8c7.5,0,13.6-2.1,18-6.2c1.2-1.1,2.3-2.3,3.2-3.7
			c0.2,0.3,0.5,0.5,0.7,0.8c-0.5,0.4-1,0.9-1.3,1.3c-2.3,2.7-3.5,6.2-3.5,10.3c0,3.5,1,6.7,2.7,9.5c1.8,2.8,4.3,4.9,7.3,6.5
			c2.9,1.5,6.2,2.2,9.8,2.2c3.4,0,6.5-0.8,9.1-2.3l0,0c2.1,1.5,4.5,2.2,7.3,2.2c4.5,0,7.3-1.8,8.8-3.2c1.6-1.5,3.5-4.3,3.5-8.7
			l0.2-8.6c0,5.9,1.8,10.8,5.3,14.4c3.4,3.4,8.2,5.5,14.4,5.9l2.3,0.1c0.5,0,1,0.1,1.5,0.1c3.2,0,5.8-0.7,7.9-2c1.6-1,2.8-2.3,3.6-4
			c4.6,4,10.7,6.1,18,6.1c6.2,0,11.6-1.4,16.1-4.1c0.4-0.3,0.9-0.6,1.3-1c0.5,0.7,1,1.2,1.5,1.7c2.3,2.1,5.3,3.2,8.9,3.2
			c4.5,0,7.3-1.8,8.9-3.2c1.7-1.5,3.7-4.3,3.7-8.8h0.7c0,4.5,2,7.3,3.7,8.8c2.3,2.1,5.3,3.2,8.9,3.2c4.5,0,7.3-1.8,8.9-3.2
			c1.4-1.2,3-3.4,3.5-6.6c2.1,2.9,4.9,5.2,8.2,6.9c4,2.1,8.7,3.1,13.8,3.1c2.5,0,5.2-0.4,8.1-1.1c2.9-0.7,5.4-1.6,7.5-2.6l0.1-0.1
			c0.9-0.4,1.7-1,2.3-1.6c0.6,0.5,1.2,1,1.9,1.4c2.3,1.5,5,2.5,8,3.2c2.9,0.6,6.2,0.9,10.1,0.9c6.5,0,12-1.5,16.1-4.5
			c4.6-3.3,7.1-8.1,7.1-13.7c0-6.1-2.6-9.8-4.8-11.8c0.3-0.3,0.5-0.6,0.8-0.9c1.5-2,2.3-4.5,2.3-7.1c0-4.1-1.8-7.4-5.1-9.3
			c-2.2-1.3-4.7-2.3-7.4-3.1c-2.7-0.7-5.5-1-8.3-1c-4,0-7.7,0.7-11,2.1c-3.5,1.5-6.4,3.6-8.4,6.3c-0.4,0.6-0.9,1.2-1.2,1.9
			c-1.9-3-4.4-5.4-7.5-7.2c-3.6-2.1-7.7-3.1-12.3-3.1c-4.7,0-9,1.1-12.8,3.3c-3.7,2.1-6.5,5-8.7,8.7c-0.7-2.2-1.8-4.1-3.1-5.7
			c-2.3-2.9-6.6-6.2-14.4-6.2c-2.4,0-4.7,0.3-6.8,1v-5.6c0-2.3-0.6-4.3-1.7-6.1c2,0.4,4,0.6,6.2,0.6c2.5,0,5.2-0.4,8.1-1.1
			c2.9-0.7,5.4-1.6,7.5-2.6l0.1-0.1c0.9-0.4,1.7-1,2.3-1.6c0.6,0.5,1.2,1,1.9,1.4c2.3,1.5,5,2.5,8,3.2c2.9,0.6,6.2,0.9,10.1,0.9
			c6.5,0,12-1.5,16.1-4.5c1.3-1,2.5-2.1,3.4-3.2c1.7,2.3,4,4.2,6.6,5.5c2.9,1.5,6.2,2.2,9.8,2.2c3.4,0,6.5-0.8,9.1-2.3l0,0
			c2.1,1.5,4.5,2.2,7.3,2.2c4.5,0,7.3-1.8,8.8-3.2c0.7-0.6,1.3-1.4,1.9-2.4c0.7,1.2,1.6,2.2,2.5,2.9c2.3,1.9,5.2,2.9,8.5,2.9
			c3.3,0,6.2-1,8.5-2.9c1.6-1.3,3.4-3.5,4-7.3c2.1,3,5,5.4,8.4,7.2c4,2.1,8.7,3.1,13.8,3.1c2.5,0,5.2-0.4,8.1-1.1s5.4-1.6,7.5-2.6
			l0.1-0.1c3.9-2.1,6-5.5,6-9.7C503.8,253,503.2,250.7,501.8,248.7C501.8,248.8,501.8,248.8,501.8,248.7z M272.5,286
			c-1.4-3-4.4-5.5-9.6-5.8c-0.1-3.4-1.3-6.3-3.7-8.4c-1.6-1.5-4.5-3.3-8.9-3.3c-4.5,0-7.3,1.8-8.9,3.3c-2.3,2.2-3.6,5.2-3.7,8.7
			c-3.2,0.6-5.4,2.1-6.7,4.1c-3.9-3.5-9.5-5.4-16.6-5.4c-3.1,0-6.2,0.4-9.3,1c-3.2,0.7-5.9,1.5-8.2,2.7c-0.7-5.4-2.9-10-6.7-13.4
			c-2.9-2.7-6.6-4.5-10.9-5.4c0.7-1,1.3-2.1,1.8-3.2l12.2-33.1v29c0,4.5,2,7.3,3.7,8.8c2.3,2.1,5.3,3.2,8.9,3.2
			c4.5,0,7.3-1.8,8.9-3.2c1.7-1.5,3.7-4.3,3.7-8.8h0.7c0,4.5,2,7.3,3.7,8.8c2.3,2.1,5.3,3.2,8.9,3.2c4.5,0,7.3-1.8,8.9-3.2
			c1.4-1.3,3-3.4,3.5-6.7c2.1,2.9,4.9,5.3,8.3,7c4,2.1,8.7,3.1,13.8,3.1c5.2,0,9.8-1,13.9-3.1c3.4-1.8,6.3-4.3,8.5-7.3
			c0.4,3.8,2.3,6.2,4,7.5c2.3,1.9,5.2,2.9,8.5,2.9c3.3,0,6.2-1,8.5-2.9c1.6-1.3,2.3-1.8,0.2,0.1c-2.5,2.3-3.8,5.2-3.8,8.7v8
			c-1.9-1.1-4-1.9-6.4-2.6c-2.6-0.7-5.4-1-8.1-1c-5.1,0-9.6,1-13.6,3.2C275.8,283.4,274,284.6,272.5,286z"/>
	</g>
	<g>
		<path class="st2" d="M181.9,207.9c1.2-0.8,2.5-1.2,3.9-1.2c1.8,0,3.2,0.6,4.5,1.7c1.3,1.1,1.9,2.6,1.9,4.5c0,0.8-0.2,1.9-0.7,3.2
			L175.7,259c-0.5,1.5-1.5,2.6-2.9,3.4s-2.9,1.2-4.6,1.2s-3.2-0.4-4.5-1.2c-1.4-0.8-2.3-2-2.9-3.4l-10.3-29.3L139.8,259
			c-0.6,1.5-1.5,2.6-2.9,3.4s-2.9,1.2-4.5,1.2c-1.7,0-3.2-0.4-4.5-1.2c-1.4-0.8-2.3-2-2.9-3.4l-15.9-43c-0.4-1-0.6-2.1-0.6-3
			c0-2,0.7-3.5,2.1-4.6s3-1.7,4.8-1.7c1.5,0,2.9,0.4,4,1.2c1.2,0.7,2.1,1.9,2.6,3.4l10.8,31.1l11.4-31.1c0.5-1.5,1.4-2.6,2.6-3.4
			c1.2-0.8,2.5-1.2,3.9-1.2s2.7,0.4,3.9,1.2c1.2,0.8,2,2,2.5,3.4l10.7,31.7l11.3-31.8C179.9,209.8,180.7,208.7,181.9,207.9z"/>
	</g>
	<g>
		<path class="st2" d="M235.3,227.2c2.2,2.8,3.3,7,3.3,12.6v17c0,2-0.7,3.6-1.9,4.8c-1.2,1.2-3,1.8-5.1,1.8s-3.9-0.6-5.1-1.8
			c-1.2-1.2-1.9-2.7-1.9-4.8v-17.4c0-3.8-1.6-5.6-4.9-5.6c-2.1,0-3.7,0.7-5,2c-1.2,1.3-1.8,3.2-1.8,5.4v15.6c0,2-0.7,3.6-1.9,4.8
			c-1.2,1.2-3,1.8-5.1,1.8s-3.9-0.6-5.1-1.8c-1.2-1.2-1.9-2.7-1.9-4.8v-43.7c0-1.8,0.7-3.4,2-4.5c1.3-1.2,3.1-1.8,5.2-1.8
			s3.7,0.6,5,1.7c1.2,1.1,1.9,2.6,1.9,4.4v15.8c1.4-1.8,3.2-3.2,5.3-4.2c2.1-1,4.5-1.4,7.1-1.4C229.7,223.1,233.1,224.5,235.3,227.2
			z"/>
	</g>
	<g>
		<path class="st2" d="M254.8,261c-3.2-1.7-5.7-4-7.5-7c-1.8-3.1-2.6-6.6-2.6-10.7c0-4.1,0.9-7.7,2.6-10.7c1.8-3,4.3-5.4,7.5-7
			s7-2.4,11.3-2.4c4.3,0,8.1,0.8,11.3,2.4c3.2,1.6,5.7,4,7.5,7c1.8,3,2.6,6.6,2.6,10.7c0,4.1-0.9,7.7-2.6,10.7
			c-1.8,3.1-4.3,5.4-7.5,7c-3.2,1.7-7,2.5-11.3,2.5C261.8,263.5,258.1,262.7,254.8,261z M273.5,243.2c0-6.5-2.5-9.8-7.5-9.8
			s-7.5,3.2-7.5,9.8s2.5,9.8,7.5,9.8S273.5,249.8,273.5,243.2z"/>
	</g>
	<g>
		<path class="st2" d="M295.8,261.8c-1.3-1.1-2-2.7-2-4.8v-43.5c0-2.1,0.7-3.8,2-4.9c1.3-1.1,3-1.7,5-1.7s3.7,0.6,5,1.7
			c1.3,1.1,2,2.7,2,4.9V257c0,2.1-0.7,3.7-2,4.8c-1.3,1.1-3,1.6-5,1.6S297.2,262.8,295.8,261.8z"/>
	</g>
	<g>
		<path class="st2" d="M350.5,251.9c0.7,1,1.2,2.2,1.2,3.7c0,2.1-1,3.7-3.1,4.8c-1.8,0.9-3.9,1.6-6.4,2.3c-2.4,0.6-4.7,0.9-6.7,0.9
			c-4.3,0-8.1-0.8-11.3-2.4c-3.2-1.6-5.6-4-7.4-7c-1.8-3.1-2.6-6.6-2.6-10.7c0-3.9,0.8-7.4,2.5-10.5c1.7-3.1,4-5.5,7-7.2
			s6.3-2.6,10-2.6c3.7,0,6.8,0.8,9.5,2.3c2.7,1.6,4.8,3.8,6.4,6.7c1.5,2.9,2.3,6.3,2.3,10.2c0,1.2-0.3,2.1-0.8,2.8
			c-0.6,0.7-1.3,1-2.4,1h-20.8c0.4,2.5,1.2,4.3,2.4,5.4c1.2,1.1,3.2,1.7,5.6,1.7c1.3,0,2.5-0.1,3.6-0.4s2.3-0.7,3.7-1.2
			c0.8-0.3,1.5-0.6,2.3-0.8c0.7-0.2,1.5-0.4,2.1-0.4C348.7,250.4,349.8,250.9,350.5,251.9z M329.7,234.4c-1.1,1.2-1.8,2.9-2,5.1
			h12.4c-0.3-4.6-2.3-7-6-7C332.3,232.6,330.8,233.2,329.7,234.4z"/>
	</g>
	<g>
		<path class="st2" d="M364.6,262.7c-2.4-0.5-4.5-1.4-6.4-2.5c-0.7-0.4-1.3-1-1.8-1.9s-0.7-1.9-0.7-3c0-1.4,0.4-2.6,1.2-3.5
			c0.7-1,1.7-1.4,2.9-1.4c0.8,0,1.5,0.1,2.2,0.3c0.7,0.2,1.5,0.5,2.5,0.9c1.7,0.6,3.2,1,4.5,1.3c1.3,0.3,2.9,0.4,4.9,0.4
			c1.4,0,2.6-0.2,3.4-0.6c0.8-0.4,1.2-1,1.2-1.7c0-0.6-0.2-1-0.6-1.3c-0.4-0.3-1.2-0.6-2.3-0.9c-1.1-0.3-3-0.7-5.6-1.2
			c-4.7-0.9-8.1-2.3-10.1-4c-2.1-1.8-3.2-4.4-3.2-7.7c0-2.4,0.7-4.6,2.3-6.5c1.5-2,3.6-3.4,6.2-4.5c2.6-1.1,5.6-1.7,8.9-1.7
			c2.3,0,4.7,0.3,6.9,0.9c2.2,0.6,4.3,1.4,5.9,2.4c1.6,1,2.4,2.5,2.4,4.5c0,1.5-0.4,2.7-1.2,3.7c-0.8,1-1.8,1.5-2.9,1.5
			c-1.4,0-3-0.4-4.9-1.3c-1.2-0.6-2.3-1-3.4-1.3c-1-0.3-2.1-0.4-3.4-0.4s-2.3,0.2-3.1,0.6c-0.8,0.4-1.1,1-1.1,1.7
			c0,0.8,0.5,1.5,1.5,2c1,0.4,3.1,1,6.1,1.6c5.1,0.9,8.7,2.3,10.8,4c2.1,1.8,3.2,4.4,3.2,7.8c0,3.8-1.6,6.9-4.8,9.2
			c-3.2,2.3-7.5,3.4-12.8,3.4C370,263.5,367,263.2,364.6,262.7z"/>
	</g>
	<g>
		<path class="st2" d="M428.2,227.5c2.9,2.9,4.3,7.2,4.3,13.1V257c0,2-0.6,3.6-1.8,4.7c-1.2,1.1-2.9,1.7-4.9,1.7
			c-1.8,0-3.4-0.5-4.5-1.6c-1.2-1-1.8-2.5-1.9-4.3c-0.7,1.9-2,3.4-3.7,4.4c-1.8,1-3.8,1.6-6.2,1.6c-2.7,0-5.1-0.5-7.3-1.6
			c-2.1-1.1-3.9-2.6-5.1-4.5c-1.2-1.9-1.8-4.1-1.8-6.5c0-2.8,0.7-5,2.2-6.7s3.7-2.9,6.9-3.6c3.2-0.7,7.4-1.1,12.8-1.1h2.1v-1
			c0-1.8-0.4-3.2-1.2-4c-0.8-0.8-2.3-1.2-4.3-1.2c-2.1,0-5.3,0.7-9.5,2.2c-1.2,0.4-2.3,0.7-3.1,0.7c-1.3,0-2.3-0.4-3.2-1.4
			c-0.8-1-1.2-2.2-1.2-3.7c0-1.2,0.2-2.1,0.7-2.9c0.4-0.7,1.2-1.4,2.3-2c1.8-1,4.2-1.7,7-2.3c2.8-0.6,5.5-0.9,8.2-0.9
			C421,223.1,425.4,224.6,428.2,227.5z M417.4,252.1c1.2-1.3,1.8-3.1,1.8-5.1v-1H418c-3.4,0-5.8,0.3-7.2,0.9c-1.4,0.6-2.1,1.6-2.1,3
			c0,1.2,0.4,2.2,1.2,3c0.7,0.8,1.8,1.2,2.9,1.2C414.7,254.1,416.2,253.5,417.4,252.1z"/>
	</g>
	<g>
		<path class="st2" d="M442.4,261.8c-1.3-1.1-2-2.7-2-4.8v-43.5c0-2.1,0.7-3.8,2-4.9c1.3-1.1,3-1.7,5-1.7s3.7,0.6,5,1.7
			c1.3,1.1,2,2.7,2,4.9V257c0,2.1-0.7,3.7-2,4.8c-1.3,1.1-3,1.6-5,1.6C445.5,263.4,443.8,262.8,442.4,261.8z"/>
	</g>
	<g>
		<path class="st2" d="M497.1,251.9c0.7,1,1.2,2.2,1.2,3.7c0,2.1-1,3.7-3.1,4.8c-1.8,0.9-3.9,1.6-6.4,2.3c-2.4,0.6-4.7,0.9-6.7,0.9
			c-4.3,0-8.1-0.8-11.3-2.4c-3.2-1.6-5.6-4-7.4-7c-1.8-3.1-2.6-6.6-2.6-10.7c0-3.9,0.8-7.4,2.5-10.5s4-5.5,7-7.2s6.3-2.6,10-2.6
			c3.6,0,6.8,0.8,9.5,2.3c2.7,1.6,4.8,3.8,6.4,6.7c1.5,2.9,2.3,6.3,2.3,10.2c0,1.2-0.3,2.1-0.8,2.8c-0.6,0.7-1.3,1-2.4,1h-20.8
			c0.4,2.5,1.2,4.3,2.4,5.4c1.2,1.1,3.2,1.7,5.6,1.7c1.3,0,2.5-0.1,3.6-0.4c1.1-0.3,2.3-0.7,3.7-1.2c0.8-0.3,1.5-0.6,2.3-0.8
			c0.7-0.2,1.5-0.4,2.1-0.4C495.4,250.4,496.3,250.9,497.1,251.9z M476.2,234.4c-1.1,1.2-1.8,2.9-2,5.1h12.4c-0.3-4.6-2.3-7-6-7
			C478.8,232.6,477.3,233.2,476.2,234.4z"/>
	</g>
	<g>
		<path class="st2" d="M147.1,323.1c-1.3-1.3-1.9-3-1.9-5.3v-42.2c0-2.1,0.6-3.8,1.8-5c1.2-1.2,2.8-1.8,5-1.8h20.2
			c6.2,0,10.9,1.5,14.4,4.7c3.4,3.2,5.1,7.5,5.1,13.1c0,5.5-1.8,9.9-5.1,13.1c-3.4,3.2-8.2,4.8-14.3,4.8h-12.4v13.4
			c0,2.2-0.7,4-2,5.3c-1.3,1.3-3.1,1.9-5.4,1.9C150.1,325,148.4,324.4,147.1,323.1z M170.1,293.5c2.7,0,4.7-0.6,5.9-1.7
			c1.3-1.1,1.9-2.8,1.9-5.1c0-4.5-2.6-6.9-7.9-6.9h-10.4v13.6L170.1,293.5L170.1,293.5z"/>
	</g>
	<g>
		<path class="st2" d="M227.7,289c2.9,2.9,4.3,7.2,4.3,13.1v16.5c0,2-0.6,3.6-1.8,4.7c-1.2,1.1-2.9,1.7-4.9,1.7
			c-1.8,0-3.4-0.5-4.5-1.6c-1.2-1-1.8-2.5-1.9-4.3c-0.7,1.9-2,3.4-3.7,4.4s-3.8,1.6-6.2,1.6c-2.7,0-5.1-0.5-7.3-1.6
			c-2.2-1.1-3.9-2.6-5.1-4.5c-1.2-1.9-1.8-4.1-1.8-6.5c0-2.8,0.7-5,2.2-6.7c1.5-1.7,3.7-2.9,6.9-3.6c3.2-0.7,7.4-1.1,12.8-1.1h2.1
			v-1c0-1.8-0.4-3.2-1.2-4c-0.8-0.8-2.3-1.2-4.3-1.2c-2.1,0-5.3,0.7-9.5,2.2c-1.2,0.4-2.3,0.7-3.1,0.7c-1.3,0-2.3-0.4-3.2-1.4
			c-0.8-1-1.2-2.2-1.2-3.7c0-1.2,0.2-2.1,0.7-2.9c0.4-0.7,1.2-1.4,2.3-2c1.8-1,4.2-1.7,7-2.3s5.5-0.9,8.2-0.9
			C220.4,284.8,224.8,286.2,227.7,289z M216.8,313.8c1.2-1.3,1.8-3.1,1.8-5.1v-1h-1.2c-3.4,0-5.8,0.3-7.2,0.9
			c-1.4,0.6-2.1,1.6-2.1,3c0,1.2,0.4,2.2,1.2,3c0.7,0.8,1.8,1.2,2.9,1.2C214.1,315.8,215.7,315.1,216.8,313.8z"/>
	</g>
	<g>
		<path class="st2" d="M268.2,319.7c0,1.8-0.7,3.2-2.1,4.1c-1.4,0.9-3.4,1.2-6.1,1.1l-2.2-0.1c-4.8-0.4-8.4-1.8-10.8-4.3
			s-3.7-6-3.7-10.5v-14H241c-4.2,0-6.3-1.8-6.3-5.2s2.1-5.1,6.3-5.1h2.3v-5.1c0-2,0.7-3.6,1.9-4.8c1.2-1.2,3-1.8,5.1-1.8
			s3.9,0.6,5.1,1.8c1.2,1.2,1.9,2.8,1.9,4.8v5.1h4.3c4.2,0,6.3,1.7,6.3,5.1c0,3.4-2.1,5.2-6.3,5.2h-4.3v15.2c0,1,0.3,1.8,0.9,2.5
			c0.6,0.7,1.4,1,2.3,1.1l2.3,0.1C266.4,315.2,268.2,316.8,268.2,319.7z"/>
	</g>
	<g>
		<path class="st2" d="M275.6,319.8c-3.7-3.6-5.5-8.4-5.5-14.6c0-4,0.9-7.6,2.7-10.7c1.8-3.1,4.3-5.5,7.6-7.2
			c3.3-1.7,7-2.5,11.1-2.5c2.2,0,4.4,0.3,6.6,0.9c2.2,0.6,4.2,1.4,5.9,2.4c1.6,1,2.4,2.5,2.4,4.5c0,1.6-0.4,2.9-1.2,4
			c-0.7,1-1.8,1.5-2.9,1.5c-0.8,0-1.5-0.1-2.3-0.4c-0.7-0.2-1.5-0.6-2.4-1.1c-1-0.4-2-0.8-2.7-1.1c-0.7-0.2-1.5-0.4-2.4-0.4
			c-5.2,0-7.8,3.2-7.8,9.5c0,3.2,0.7,5.6,2,7.2c1.3,1.7,3.3,2.5,5.8,2.5c0.9,0,1.7-0.1,2.5-0.4c0.7-0.2,1.6-0.6,2.6-1.1
			c1-0.4,1.9-0.8,2.6-1.1c0.7-0.2,1.4-0.4,2.2-0.4c1.2,0,2.2,0.5,2.9,1.5c0.7,1,1.2,2.3,1.2,4c0,1-0.2,1.9-0.7,2.7
			c-0.4,0.8-1,1.5-1.8,1.8c-3.7,2.2-8.1,3.3-13.3,3.3C284.2,325.2,279.2,323.4,275.6,319.8z"/>
	</g>
	<g>
		<path class="st2" d="M347.9,288.9c2.2,2.8,3.3,7,3.3,12.6v17c0,2-0.7,3.6-1.9,4.8c-1.2,1.2-3,1.8-5.1,1.8s-3.9-0.6-5.1-1.8
			c-1.2-1.2-1.9-2.7-1.9-4.8v-17.3c0-3.8-1.6-5.6-4.9-5.6c-2.1,0-3.7,0.7-5,2c-1.2,1.3-1.8,3.2-1.8,5.4v15.6c0,2-0.7,3.6-1.9,4.8
			c-1.2,1.2-3,1.8-5.1,1.8s-3.9-0.6-5.1-1.8c-1.2-1.2-1.9-2.7-1.9-4.8v-43.8c0-1.8,0.7-3.4,2-4.5c1.3-1.2,3.1-1.8,5.2-1.8
			c2.1,0,3.7,0.6,5,1.7c1.2,1.1,1.9,2.6,1.9,4.4v15.8c1.4-1.8,3.2-3.2,5.3-4.2s4.5-1.4,7.1-1.4C342.3,284.8,345.7,286.2,347.9,288.9
			z"/>
	</g>
	<g>
		<path class="st2" d="M393.5,313.5c0.7,1,1.2,2.2,1.2,3.7c0,2.1-1,3.7-3.1,4.8c-1.8,0.9-3.9,1.6-6.4,2.3c-2.4,0.6-4.7,0.9-6.7,0.9
			c-4.3,0-8.1-0.8-11.3-2.4c-3.2-1.6-5.6-4-7.4-7c-1.8-3.1-2.6-6.6-2.6-10.7c0-3.9,0.8-7.4,2.5-10.5c1.7-3.1,4-5.5,7-7.2
			c3-1.7,6.3-2.6,10-2.6c3.7,0,6.8,0.8,9.5,2.3c2.7,1.6,4.8,3.8,6.4,6.7c1.5,2.9,2.3,6.3,2.3,10.2c0,1.2-0.3,2.1-0.8,2.8
			c-0.6,0.7-1.3,1-2.4,1h-20.8c0.4,2.5,1.2,4.3,2.4,5.4c1.2,1.1,3.2,1.7,5.6,1.7c1.3,0,2.5-0.1,3.7-0.4c1.1-0.3,2.3-0.7,3.7-1.2
			c0.8-0.3,1.5-0.6,2.3-0.8c0.7-0.2,1.5-0.4,2.1-0.4C391.9,312.1,392.8,312.6,393.5,313.5z M372.7,296c-1.1,1.2-1.8,2.9-2,5.1h12.4
			c-0.3-4.6-2.3-7-6-7C375.3,294.3,373.8,294.8,372.7,296z"/>
	</g>
	<g>
		<path class="st2" d="M407.6,324.4c-2.4-0.5-4.5-1.4-6.4-2.5c-0.7-0.4-1.3-1-1.8-1.9c-0.4-0.9-0.7-1.9-0.7-3c0-1.4,0.4-2.6,1.2-3.5
			c0.7-1,1.7-1.4,2.9-1.4c0.8,0,1.5,0.1,2.2,0.3c0.7,0.2,1.5,0.5,2.5,0.9c1.7,0.6,3.2,1,4.5,1.3c1.3,0.3,2.9,0.4,4.9,0.4
			c1.4,0,2.6-0.2,3.4-0.6c0.8-0.4,1.2-1,1.2-1.7c0-0.6-0.2-1-0.6-1.3c-0.4-0.3-1.2-0.6-2.3-0.9c-1.1-0.3-3-0.7-5.6-1.2
			c-4.7-0.9-8.1-2.3-10.1-4c-2.1-1.8-3.2-4.4-3.2-7.7c0-2.4,0.7-4.6,2.3-6.5c1.5-2,3.6-3.4,6.2-4.5s5.6-1.7,8.9-1.7
			c2.3,0,4.7,0.3,6.9,0.9c2.2,0.6,4.3,1.4,5.9,2.4s2.4,2.5,2.4,4.5c0,1.5-0.4,2.7-1.2,3.7c-0.8,1-1.8,1.5-2.9,1.5
			c-1.4,0-3-0.4-4.9-1.3c-1.2-0.6-2.3-1-3.4-1.3c-1-0.3-2.1-0.4-3.4-0.4c-1.3,0-2.3,0.2-3.1,0.6c-0.7,0.4-1.1,1-1.1,1.7
			c0,0.8,0.5,1.5,1.5,2c1,0.4,3.1,1,6.1,1.6c5.1,0.9,8.7,2.3,10.8,4c2.1,1.8,3.2,4.4,3.2,7.8c0,3.8-1.6,6.9-4.8,9.2
			c-3.2,2.3-7.5,3.4-12.8,3.4C413,325.2,410,324.9,407.6,324.4z"/>
	</g>
	<g>
		<path d="M50.8,303.6c-1.2,0-2-0.4-2.6-1c-1.9-2.1,0.2-6.1,3.7-12.7c5.1-9.3,12.7-23.4,8.7-34.8c-3.7-10.5-11.5-18.9-18.3-26.4
			c-7.3-8-13.7-14.9-12.8-22.1c0.6-4.5,4-8.7,10.5-12.7c8.4-5.2,15.3-5.9,20.9-6.5c6.4-0.7,10.3-1,13-7.5c1.8-4.1,1.6-7.9-0.3-10.9
			c-2.3-3.4-6.8-5.4-12.5-5.4c-9.3,0-15.8,7.2-22.1,14.2c-5.9,6.6-11.5,12.8-19.3,13.1c-5.6,0.2-11.6-2.9-18.3-9.3
			c-0.6-0.6-0.6-1.5,0-2.1s1.5-0.6,2.1,0c6.1,5.9,11.4,8.7,16.1,8.5c6.5-0.2,11.7-6,17.2-12.1c6.4-7.1,13.6-15.2,24.3-15.2
			c6.7,0,12.1,2.4,15,6.7c2.5,3.8,2.7,8.7,0.5,13.6c-3.4,8-9,8.6-15.4,9.2c-5.3,0.5-11.8,1.2-19.6,6.1c-5.6,3.5-8.7,7-9.1,10.6
			c-0.8,5.9,5.1,12.2,12,19.7c7,7.6,15.1,16.3,19,27.4c4.4,12.5-3.6,27.3-8.9,37.1c-2,3.6-4.4,8.1-4.2,9.3c0.4,0.1,1.8,0.2,6.7-1.8
			c0.7-0.3,1.6,0.1,1.9,0.8c0.3,0.7-0.1,1.6-0.8,1.9C54.8,302.8,52.5,303.6,50.8,303.6z"/>
	</g>
	<g>
		<path d="M89.2,312.6c2.1,0.4,3-0.7,3.4-1.9L67.3,151.6c-0.5-3.3-3.6-5.5-6.8-5c-3.3,0.5-5.5,3.6-5,6.8c0,0.1,0,0.1,0,0.2
			l30.4,156.6C86.6,311.3,87.6,312.3,89.2,312.6z M69,195.8c-1.1,0.2-2.2-0.6-2.3-1.7l-7-39.5c-0.2-1.1,0.6-2.2,1.7-2.3
			c1.1-0.2,2.2,0.6,2.3,1.7l7,39.4C70.8,194.5,70.1,195.6,69,195.8z"/>
		<path d="M99,365.4c1.2-0.2,2.1-1.4,1.8-2.6l-3.5-22.2l-6.9-6.9l5.9,29.8C96.5,364.9,97.8,365.7,99,365.4z"/>
	</g>
</g>
</svg>
