<?xml version="1.0" encoding="UTF-8"?><svg id="uuid-d494a975-c78f-4eaa-ae5c-9872f6a1e510" xmlns="http://www.w3.org/2000/svg" viewBox="0 0 316.34 263.36"><defs><style>.uuid-3c982099-d249-420d-8ad1-f47d16f5df1d{fill:#007fbf;}.uuid-253e43fc-765c-4d82-9c95-024d1fe9ea48{fill:#fff;}.uuid-f0e52442-3601-445b-a32b-8fc340e6b3e2{fill:#ffc012;}.uuid-a9201ab7-d6d5-4d97-8743-f00b74ad26e1{fill:#e10b7f;}.uuid-8081175a-2b72-4d28-8b0a-647bc730a4a4{fill:#111820;}.uuid-4578b30e-5678-418d-8a01-1cf5f196ad3b{fill:#6cd24a;}</style></defs><g><path class="uuid-4578b30e-5678-418d-8a01-1cf5f196ad3b" d="m309.44,90.58h-26.55c-2.99,0-5.42,2.43-5.42,5.42v26.55c0,2.99,2.43,5.42,5.42,5.42h26.55c2.99,0,5.42-2.43,5.42-5.42v-26.55c0-2.99-2.43-5.42-5.42-5.42"/><path class="uuid-253e43fc-765c-4d82-9c95-024d1fe9ea48" d="m307.62,112.66c-1.1,1.11-2.64,1.79-4.33,1.79h0c-.14,0-.29,0-.43-.01l-.49,3.83h-.01s0,.01,0,.02c0,.57-1.67,3.4-6.64,3.4s-6.64-2.72-6.64-3.4c0,0,0-.02,0-.02h-.02l-2.37-18.61h.01c0-1.55,4.03-2.81,9-2.81s9,1.26,9,2.81h.01l-.34,2.65c1.25.23,2.36.83,3.22,1.69,1.11,1.1,1.79,2.64,1.79,4.33s-.69,3.22-1.79,4.33m-3.48-8.29l-1.02,8.01c.06,0,.11,0,.17,0,1.12,0,2.13-.45,2.87-1.19.73-.74,1.19-1.74,1.19-2.86s-.45-2.13-1.19-2.86c-.55-.54-1.24-.93-2.02-1.1m-.65-4.88c0-1.1-3.48-1.99-7.77-1.99s-7.77.89-7.77,1.99,3.48,1.99,7.77,1.99,7.77-.89,7.77-1.99"/></g><g><path class="uuid-a9201ab7-d6d5-4d97-8743-f00b74ad26e1" d="m191.9,90.58h-26.55c-2.99,0-5.42,2.43-5.42,5.42v26.55c0,2.99,2.43,5.42,5.42,5.42h26.55c2.99,0,5.42-2.43,5.42-5.42v-26.55c0-2.99-2.43-5.42-5.42-5.42"/><path class="uuid-253e43fc-765c-4d82-9c95-024d1fe9ea48" d="m178.03,114.21c-.19.8-1.19,3.08-6.63,3.08-6.26,0-7.52-4.04-7.52-4.04l7.25-2.6.1.08s2.28,1.92,6.8,3.48m-6.59-3.9c.37-1.4,2.65-8.31,11.43-8.61.83.09,1.43.29,1.66.37-4.72,3.36-6.36,10.3-6.63,11.61-4.23-1.51-6.33-3.26-6.37-3.29l-.09-.08Zm21.68,5.46h-.05c-.66.03-1.3.04-1.93.04-5.4,0-9.65-.91-12.81-1.97.23-1.13,1.94-8.73,7.13-11.83l.09-.06c-.21-.05-.43-.1-.65-.13-.36-.07-.72-.1-.72-.1h0c.07-.34.53-.54,1.03-.44.51.1.86.45.8.79,0,0,0,0,0,0,5,1.56,8.35,7.55,7.1,13.68"/></g><g><path class="uuid-3c982099-d249-420d-8ad1-f47d16f5df1d" d="m231.08,90.58h-26.55c-2.99,0-5.42,2.43-5.42,5.42v26.55c0,2.99,2.43,5.42,5.42,5.42h26.55c2.99,0,5.42-2.43,5.42-5.42v-26.55c0-2.99-2.43-5.42-5.42-5.42"/><path class="uuid-253e43fc-765c-4d82-9c95-024d1fe9ea48" d="m214.34,99.46c1.01.53,2.2.81,3.44.81s2.47-.29,3.5-.84c-.65,1.26-1.96,2.13-3.48,2.13s-2.81-.85-3.46-2.1m16.28,3.32l-8.05-4.27-.87-.46-.03.02c-.98.78-2.36,1.27-3.9,1.27s-2.88-.47-3.85-1.24l-.05-.04-.87.46-8.02,4.25,3.21,6.07,2.41-1.28v11.79h14.39v-11.79l2.41,1.28,3.21-6.07Z"/></g><g><path class="uuid-f0e52442-3601-445b-a32b-8fc340e6b3e2" d="m270.26,90.58h-26.55c-2.99,0-5.42,2.43-5.42,5.42v26.55c0,2.99,2.43,5.42,5.42,5.42h26.55c2.99,0,5.42-2.43,5.42-5.42v-26.55c0-2.99-2.43-5.42-5.42-5.42"/><path class="uuid-253e43fc-765c-4d82-9c95-024d1fe9ea48" d="m251.68,104.29c.68-.68,1.37-.37,1.99-.54,1.66-2.85,2.5-6.71,7.15-5.47.12.04.22.08.32.12-.18.21-.58.67-1.12,1.28-2.76.32-3.73,2.36-4.65,4.56-.27.65-.62,1.28-1.06,1.83-.52.67-1.29,1.02-2.13.67-1.02-.44-1.19-1.77-.51-2.44m10.34,4.86c-2.75,2.75-5.66,6.08-7.11,7.52-2.88,2.88-9.69,4.41-9.69,4.41,0,0,1.53-6.81,4.41-9.69,1.44-1.44,4.77-4.35,7.52-7.11,2.75-2.75,4.93-5.34,4.93-5.34,0,0,1.23.66,2.92,2.36,1.69,1.69,2.36,2.92,2.36,2.92,0,0-2.59,2.18-5.34,4.93m6.28-7.72c-.37.37-.58.82-.82,1.07-.4-.53-.97-1.2-1.72-1.96-.81-.81-1.52-1.4-2.07-1.81.25-.24.71-.46,1.09-.83.74-.74,2.14-.56,3.11.41.97.97,1.16,2.36.41,3.11"/></g><g><polygon class="uuid-8081175a-2b72-4d28-8b0a-647bc730a4a4" points="1.48 104.42 1.48 90.3 52.05 90.3 52.05 104.42 34.84 104.42 34.84 156.92 18.69 156.92 18.69 104.42 1.48 104.42"/><path class="uuid-8081175a-2b72-4d28-8b0a-647bc730a4a4" d="m43.6,156.72c3.29,1.16,8.8,1.16,9.28,1.16,4.35,0,6.09-3.48,6.09-7.73v-59.84h16.34v59.84c0,12.38-6.09,22.92-22.43,22.92-1.84,0-6.77-.48-10.73-1.84l1.45-14.5Z"/><polygon class="uuid-8081175a-2b72-4d28-8b0a-647bc730a4a4" points="136.55 90.3 117.12 125.7 98.69 90.3 82.24 90.3 82.24 156.92 97.05 156.92 97.02 118.36 112.2 146.5 115.94 146.5 118.29 146.5 122.04 146.5 138.22 118.36 138.19 156.92 153.01 156.92 153.01 90.3 136.55 90.3"/><path class="uuid-8081175a-2b72-4d28-8b0a-647bc730a4a4" d="m159.93,135.15h8.85c4.84,0,6.93,3.51,6.93,7.05s-2.09,6.99-6.93,6.99h-4.81v7.75h-4.05v-21.78Zm4.05,3.6v6.83h4.62c2.09,0,3.07-1.77,3.07-3.38s-.92-3.45-2.94-3.45h-4.74Z"/><path class="uuid-8081175a-2b72-4d28-8b0a-647bc730a4a4" d="m199.66,156.93h-4.87l-5.12-7.75h-1.68v7.75h-4.05v-21.78h8.73c4.81,0,6.96,3.51,6.96,7.05,0,3.13-1.68,6.2-5.53,6.83l5.56,7.9Zm-11.67-18.18v6.83h4.36c2.12,0,3.07-1.77,3.07-3.38s-.92-3.45-2.94-3.45h-4.49Z"/><path class="uuid-8081175a-2b72-4d28-8b0a-647bc730a4a4" d="m218.19,134.89c6.2,0,11.07,4.99,11.07,11.19s-4.87,11.16-11.07,11.16-11.04-5.03-11.04-11.16,4.84-11.19,11.04-11.19m0,18.37c3.92,0,7.02-3.19,7.02-7.18s-3.1-7.21-7.02-7.21-7.02,3.22-7.02,7.21,3.07,7.18,7.02,7.18"/><path class="uuid-8081175a-2b72-4d28-8b0a-647bc730a4a4" d="m279.9,134.89c6.2,0,11.07,4.99,11.07,11.19s-4.87,11.16-11.07,11.16-11.04-5.03-11.04-11.16,4.84-11.19,11.04-11.19m0,18.37c3.92,0,7.02-3.19,7.02-7.18s-3.1-7.21-7.02-7.21-7.02,3.22-7.02,7.21,3.07,7.18,7.02,7.18"/><path class="uuid-8081175a-2b72-4d28-8b0a-647bc730a4a4" d="m303.43,150.58c.06,1.58,1.42,3.07,3.76,3.07,2.18,0,3.51-1.14,3.6-2.62.1-1.45-.89-2.4-3-2.97l-2.69-.7c-4.74-1.39-5.5-4.14-5.5-6.07,0-3.83,3.32-6.39,7.34-6.39s7.24,2.5,7.24,6.58h-4.05c0-1.71-1.23-2.85-3.26-2.85-1.8,0-3.26,1.01-3.26,2.56,0,.7.25,1.87,2.59,2.5l2.69.79c4.87,1.33,6.13,4.08,5.94,6.64-.19,3.92-3.67,6.16-7.65,6.16-4.65,0-7.81-2.97-7.81-6.7h4.05Z"/><polygon class="uuid-8081175a-2b72-4d28-8b0a-647bc730a4a4" points="260.79 156.98 260.75 135.15 256.56 135.15 249.19 148.97 241.82 135.15 237.63 135.15 237.6 156.98 242.05 156.98 242.05 144.32 247.43 154.51 250.95 154.51 256.34 144.32 256.34 156.98 260.79 156.98"/></g></svg>