<svg id="a8ab2bec-8e33-4042-bf0b-3f9f3b20be49" data-name="Layer 1" xmlns="http://www.w3.org/2000/svg" viewBox="0 0 313.43 82.76"><defs><style>.e74362ec-f809-4520-97b5-5cfe5fbbf06d{fill:#6abf4b;}.bd131ac9-b6e1-487f-a9b1-92a4184607a5{fill:#fff;}.ff2894b9-1d10-4d43-97d7-8ad382a86fd3{fill:#df1683;}.b9315d52-905b-44a8-80ff-a6f50816ce60{fill:#007cba;}.bf3df3fe-b9e9-4dba-a55c-f46e612a57c6{fill:#ffc629;}</style></defs><path class="e74362ec-f809-4520-97b5-5cfe5fbbf06d" d="M308,.28H281.41A5.42,5.42,0,0,0,276,5.7V32.25a5.41,5.41,0,0,0,5.4,5.42H308a5.42,5.42,0,0,0,5.42-5.42h0V5.7A5.42,5.42,0,0,0,308,.28h0"/><path class="bd131ac9-b6e1-487f-a9b1-92a4184607a5" d="M302.92,12l.32-2.6c0-1.56-4-2.82-9-2.82s-9,1.26-9,2.82L287.61,28c0,.68,1.67,3.4,6.64,3.4s6.64-2.84,6.64-3.4l.53-3.84h.43a6.12,6.12,0,0,0,4.33-1.8l0,0A6.11,6.11,0,0,0,302.92,12Zm-8.7-.81c-4.29,0-7.77-.89-7.77-2s3.47-2,7.77-2,7.78.9,7.78,2S298.51,11.19,294.22,11.19Zm7.61,10.88h-.17l1-8,0,0a4.06,4.06,0,0,1-.87,8Z"/><path class="ff2894b9-1d10-4d43-97d7-8ad382a86fd3" d="M190.42.28H163.87a5.42,5.42,0,0,0-5.42,5.42V32.25a5.42,5.42,0,0,0,5.42,5.42h26.55a5.42,5.42,0,0,0,5.42-5.42V5.7A5.42,5.42,0,0,0,190.42.28"/><path class="bd131ac9-b6e1-487f-a9b1-92a4184607a5" d="M176.55,23.91c-.19.8-1.19,3.08-6.64,3.08-6.26,0-7.52-4-7.52-4l7.26-2.6.09.08A22.75,22.75,0,0,0,176.55,24"/><path class="bd131ac9-b6e1-487f-a9b1-92a4184607a5" d="M170,20c.37-1.4,2.65-8.31,11.44-8.61a7.17,7.17,0,0,1,1.65.37c-4.71,3.36-6.36,10.3-6.63,11.61A22.38,22.38,0,0,1,170,20.09Z"/><path class="bd131ac9-b6e1-487f-a9b1-92a4184607a5" d="M191.68,25.46h-1.93a39.8,39.8,0,0,1-12.81-2c.23-1.13,1.94-8.73,7.13-11.82l.09-.06c-.21-.05-.42-.1-.64-.13l-.72-.1h0c.06-.34.53-.53,1-.44s.87.45.8.79h0c5,1.56,8.35,7.55,7.1,13.69"/><path class="b9315d52-905b-44a8-80ff-a6f50816ce60" d="M229.6.28H203.05a5.42,5.42,0,0,0-5.42,5.42V32.25a5.42,5.42,0,0,0,5.42,5.42H229.6a5.41,5.41,0,0,0,5.4-5.42V5.7A5.41,5.41,0,0,0,229.6.28"/><path class="bd131ac9-b6e1-487f-a9b1-92a4184607a5" d="M221,8.21l-.86-.46A6.28,6.28,0,0,1,216.23,9a6.31,6.31,0,0,1-3.86-1.24l-.87.46-8,4.25,3.22,6.07,2.41-1.28V29.07h14.39V17.28l2.41,1.28L229,12.48Zm-2.87,2.64a3.9,3.9,0,0,1-5.23-1.66h0v0l0,0a7.51,7.51,0,0,0,3.42.8,7.46,7.46,0,0,0,3.5-.83A3.84,3.84,0,0,1,218.11,10.85Z"/><path class="bf3df3fe-b9e9-4dba-a55c-f46e612a57c6" d="M268.78.28H242.23a5.42,5.42,0,0,0-5.42,5.42V32.25a5.42,5.42,0,0,0,5.42,5.42h26.55a5.42,5.42,0,0,0,5.42-5.42h0V5.7A5.42,5.42,0,0,0,268.78.28h0"/><path class="bd131ac9-b6e1-487f-a9b1-92a4184607a5" d="M250.2,14c.67-.67,1.37-.37,2-.53,1.66-2.86,2.5-6.71,7.15-5.47l.32.11c-.18.22-.57.68-1.12,1.28-2.76.32-3.73,2.36-4.65,4.56a7.93,7.93,0,0,1-1,1.83,1.74,1.74,0,0,1-2.13.67,1.54,1.54,0,0,1-.85-2,1.57,1.57,0,0,1,.28-.44"/><path class="bd131ac9-b6e1-487f-a9b1-92a4184607a5" d="M260.53,18.87c-2.75,2.75-5.66,6.08-7.1,7.52-2.89,2.88-9.69,4.41-9.69,4.41s1.52-6.8,4.41-9.69c1.44-1.44,4.77-4.35,7.52-7.1s4.93-5.35,4.93-5.35A14.64,14.64,0,0,1,263.52,11a14.34,14.34,0,0,1,2.35,2.92s-2.59,2.18-5.34,4.93"/><path class="bd131ac9-b6e1-487f-a9b1-92a4184607a5" d="M266.81,11.13c-.36.37-.58.82-.81,1.07a20.49,20.49,0,0,0-1.73-2,19.63,19.63,0,0,0-2.07-1.8c.25-.25.72-.46,1.09-.83A2.26,2.26,0,0,1,266.4,8a2.26,2.26,0,0,1,.41,3.11"/><polygon class="bd131ac9-b6e1-487f-a9b1-92a4184607a5" points="0 14.12 0 0 50.57 0 50.57 14.12 33.36 14.12 33.36 66.62 17.21 66.62 17.21 14.12 0 14.12"/><path class="bd131ac9-b6e1-487f-a9b1-92a4184607a5" d="M42.12,66.42c3.29,1.16,8.8,1.16,9.28,1.16,4.35,0,6.09-3.48,6.09-7.73V0H73.83V59.85c0,12.37-6.09,22.91-22.43,22.91a39.14,39.14,0,0,1-10.73-1.84Z"/><polygon class="bd131ac9-b6e1-487f-a9b1-92a4184607a5" points="135.07 0 115.64 35.4 97.21 0 80.75 0 80.75 66.62 95.57 66.62 95.54 28.06 110.72 56.2 114.46 56.2 116.81 56.2 120.56 56.2 136.74 28.06 136.71 66.62 151.53 66.62 151.53 0 135.07 0"/><path class="bd131ac9-b6e1-487f-a9b1-92a4184607a5" d="M158.45,44.85h8.85c4.84,0,6.93,3.51,6.93,7s-2.09,7-6.93,7h-4.8v7.74h-4.05Zm4.05,3.6v6.83h4.61a3.13,3.13,0,0,0,3.08-3.18,1.34,1.34,0,0,0,0-.2c0-1.58-.92-3.45-2.94-3.45Z"/><path class="bd131ac9-b6e1-487f-a9b1-92a4184607a5" d="M198.18,66.63h-4.86l-5.13-7.74h-1.67v7.74h-4.05V44.85h8.73c4.8,0,7,3.51,7,7,0,3.13-1.67,6.2-5.53,6.83ZM186.52,48.45v6.83h4.36A3.12,3.12,0,0,0,194,52.17a2.44,2.44,0,0,0,0-.27c0-1.58-.92-3.45-2.94-3.45Z"/><path class="bd131ac9-b6e1-487f-a9b1-92a4184607a5" d="M216.71,44.59a11.18,11.18,0,1,1-11,11.36v-.16a11.08,11.08,0,0,1,10.94-11.2h.06m0,18.37a7.19,7.19,0,1,0-7-7.38v.21A7,7,0,0,0,216.54,63h.17"/><path class="bd131ac9-b6e1-487f-a9b1-92a4184607a5" d="M278.42,44.59a11.18,11.18,0,1,1-11,11.36v-.16a11.08,11.08,0,0,1,10.94-11.2h.06m0,18.37a7.19,7.19,0,1,0-7-7.38v.21A7.06,7.06,0,0,0,278.37,63h.05"/><path class="bd131ac9-b6e1-487f-a9b1-92a4184607a5" d="M302,60.28c.06,1.58,1.42,3.06,3.76,3.06,2.18,0,3.51-1.13,3.6-2.62s-.88-2.4-3-3l-2.69-.7c-4.74-1.39-5.5-4.14-5.5-6.07,0-3.82,3.32-6.39,7.34-6.39s7.24,2.5,7.24,6.58H308.7c0-1.71-1.23-2.84-3.26-2.84-1.8,0-3.25,1-3.25,2.56,0,.69.25,1.86,2.59,2.49l2.69.8c4.87,1.32,6.13,4.07,5.94,6.64-.19,3.92-3.67,6.16-7.65,6.16-4.65,0-7.81-3-7.81-6.7Z"/><polygon class="bd131ac9-b6e1-487f-a9b1-92a4184607a5" points="259.31 66.68 259.27 44.85 255.08 44.85 247.71 58.67 240.34 44.85 236.15 44.85 236.12 66.68 240.57 66.68 240.57 54.02 245.95 64.21 249.47 64.21 254.85 54.02 254.85 66.68 259.31 66.68"/></svg>