<?xml version="1.0" encoding="UTF-8"?>
<svg id="Layer_1" xmlns="http://www.w3.org/2000/svg" version="1.1" viewBox="0 0 742 128">

  <path fill="#ffffff" d="M206.41,97.74c-.76-1.2-2.07-1.88-3.42-1.88-.46,0-.92.08-1.37.24-1.76.63-3.51,1.3-5.23,1.96-.59-.6-1.36-1-2.22-1.14-2.17-.36-3.96-1.15-5.86-1.98-2.44-1.07-5.2-2.28-8.65-2.36,5.79-4.52,11.25-9.73,14.76-14.76l.34-.48c2.01-2.85,4.75-6.76,3.36-10.78-.54-1.57-1.93-3.65-5.45-4.71-4.83-1.45-11.63-2.38-20.26-2.8C168.31,25.82,139.91,0,105.59,0,68.47,0,38.26,30.2,38.26,67.33c0,3.91.34,7.82,1.02,11.68-3.83,1.16-7.64,2.34-11.4,3.52-2.04.64-3.24,2.77-2.72,4.85.09.38.21.72.34,1.03-8.34,2.29-16.19,5.51-23.46,9.69-1.3.75-2.09,2.16-2.04,3.66.05,1.42,1.1,4.1,4.74,4.1,2.45,0,8.1-1.14,14.68-2.52,1.36-.28,2.9-.61,3.23-.66.26-.04.52-.06.77-.09-.55.59-.92,1.33-1.04,2.16-.21,1.4.17,2.74,1.06,3.76.65.75,1.86,1.66,3.92,1.66.45,0,.85-.04,1.17-.07.09,0,.17-.02.24-.02h.11c1.52,0,2.92-.24,4.04-.44.69-.12,1.4-.24,1.83-.24h0c7.78.17,15.4,2.32,23.47,4.6,8.6,2.43,17.5,4.94,26.82,4.94,0,0,0,0,0,0,8.21.05,13.2-2.17,13.2-2.17,1.49-.31,2.64-1.41,3.06-2.8,15.61,4.22,31.78,7.97,49.21,7.97,5.91,0,11.58-.41,17.34-1.27,14.92-2.21,29.13-8.89,38.01-17.87,1.33-1.35,1.56-3.44.54-5.04Z"/>
  <path fill="#062f4a" d="M29.1,86.39c31.01-9.76,62.51-18.47,95.07-21.66,16.84-1.65,51.81-3.66,67.33,1,5.61,1.68,1.84,6.53-.41,9.77-6.12,8.78-19.13,18.65-28.68,23.41-2.99,1.49-11.73,5.46-14.64,5.71-3.31.28-10.4-1.96-13.93-2.87-24.19-6.23-44.79-14.89-70.53-16.07-11.22-.52-20.95,1.54-31.65,1.61-.88,0-1.93-.38-2.55-.9ZM184.72,70.15c-32.79-3-65.82-1.24-98.23,4.27-7.02,1.19-13.21,2.2-19.89,4.39-1.15.38-3.68,1.23-5.69,2.16,36.33-4.18,73.39-5.05,109.8-.8,5.11-2.58,10.26-5.62,14.02-10.01Z"/>
  <path fill="#0193b9" d="M202.99,99.92c-8.97,9.07-23.09,14.84-35.72,16.71-53.32,7.89-92.43-25.3-145.18-17.98-1.66.23-14.24,2.79-18.03,2.95,24.43-14.01,52.59-15.57,79.97-10.95,32.87,5.54,63.14,23.34,97.44,16.5,7.47-1.49,14.41-4.68,21.51-7.23Z"/>
  <path fill="#062f4a" d="M140.06,60.67c-13.19,1.35-26.38,2.69-39.47,4.86-13.13,2.17-25.95,5.59-39.01,8l4.76-11.81c8.12-1.81,16.51-3.92,24.77-5.01,10.3-1.36,38.35-3.34,46.88,1.65.52.3,2.35,2.04,2.08,2.31Z"/>
  <path fill="#062f4a" d="M135.33,53.23c-19.04-4.28-36.71.85-55.25,3.27-.84.11-5.68,1.18-5.62-.22,9.62-6.42,22.73-10.45,34.24-11.76,9.21-1.05,22.87-1.86,26.64,8.71Z"/>
  <path fill="#0193b9" d="M97.44,112.78s-2.33,2.01-9.82,2.01c-19.37,0-36-11.12-52.77-9.46-1.67.17-8.62,1.16-8.45,0,10.97-3.73,21.14-5,32.48-2.38,6.96,1.61,32.69,9.08,38.56,9.82Z"/>
  <path fill="#0193b9" d="M156.98,103.98c5.74-1.45,12.81-5.85,18.57-7.49,7.55-2.14,10.82,2.58,17.96,3.75-3.17,2.17-13.33,4.43-17.25,5.08s-12.49.97-19.28-1.35Z"/>
  <path fill="#ffd7a8" d="M57.53,73.69c-.02-.57.07-1.14.29-1.68l4.76-11.81c.5-1.24,1.58-2.15,2.88-2.44,1.53-.34,3.07-.69,4.62-1.05.11-.02.22-.05.32-.07-.01-.17-.02-.35,0-.52.05-1.3.72-2.49,1.8-3.21,9.41-6.28,22.88-10.92,36.03-12.41,2.48-.28,5.76-.6,9.12-.6,11.63,0,18.97,4.03,21.8,11.98.3.83.3,1.72.05,2.54.29.14.57.29.83.45.04.02,3.03,1.92,3.88,4.39,5.37-.26,11.32-.45,17.36-.45,2.55,0,4.98.03,7.3.1-4.12-30.96-30.62-54.84-62.71-54.84-34.94,0-63.27,28.33-63.27,63.27,0,3.55.3,7.03.86,10.41,4.64-1.38,9.33-2.74,14.07-4.05Z"/>
  <g opacity="0.85">
    <path fill="#0193b9" d="M561.22,124.14c.63-.21,1.27-.42,1.91-.63-.34.05-.69.06-1.07.02-.45.04-.6.32-.85.62Z"/>
    <path fill="#0193b9" d="M564.92,122.97c.12-.03.23-.07.34-.1.09-.06.18-.12.26-.17l-.61.27Z"/>
    <path fill="#0193b9" d="M568.18,121.67c-.61.14-1.16.35-1.69.58.51-.09,1.07-.26,1.69-.58Z"/>
    <path fill="#0193b9" d="M565.44,122.3c.25.07.4.18.09.39,0,0,0,0-.01,0,.32-.15.64-.29.97-.44-.38.06-.73.07-1.05.05Z"/>
    <path fill="#0193b9" d="M565.44,122.3c-.24-.07-.6-.09-.73-.13.22.06.47.11.73.13Z"/>
    <path fill="#0193b9" d="M565.22,118.81c.31-.21.53.73,1.13.31,1.49-.76,2.7-1.6,4.18-2.07.61-.42,1.99.26,2.59-.16,1.49-.76,5.15-3.28,2.79-2.47-3.54,1.28-5.79,2.27-8.94,3.46-1.24.61-2.45,1.21-3.67,1.81-1.22.6-2.42,1.28-3.68,1.91-.72.31-1.44.48-2.15.67.95-.18,1.93-.37,3-.61.72-.12,1.39-.61,2.13-1.2.75-.57,1.59-1.21,2.63-1.66Z"/>
    <path fill="#0193b9" d="M547.03,128.6c.29-.22.88-.66.88-.66,1.72.12,3.17-.69,4.63-1.49-.28-.07-.56-.14-.85-.2-.87.37-.88.66-.02.57-2,.1-3.74.62-5.46,1.34.2.2.28.49.82.44Z"/>
    <path fill="#0193b9" d="M545.22,128.6c.33-.15.67-.3,1-.44-.02-.02-.04-.04-.07-.06-.33.17-.66.33-.98.5h.05Z"/>
    <path fill="#0193b9" d="M575.01,118.57c2.22-.73,4.38-1.42,6.51-2.07,2.15-.58,4.25-1.14,6.33-1.69.27-.27.43-.54.89-.56.37.07.72.08,1.06.05.61-.16,1.22-.31,1.82-.47.2-.08.41-.17.62-.25,0,0,.01,0,.02,0,.31-.2.17-.32-.08-.39-.26-.03-.51-.09-.73-.15.14.04.48.08.73.15.32.04.66.04,1.05-.01.53-.21,1.1-.41,1.71-.53-.63.3-1.2.46-1.71.53-.34.14-.66.28-.98.42-.09.06-.18.11-.27.17,1.39-.35,2.77-.69,4.16-1.04.31-.11.6-.22.84-.32.96-.4,1.92-.82,2.65-.53.25-.05.5-.11.75-.16l-.17-.05c.12,0,.22,0,.3.02,1.05-.22,2.11-.45,3.17-.68.63-.35,1.28-.74,1.94-1.05,0,0,.55.19.82.29.23-.3.59-.56,1.05-.76-.64-.13-1.23-.31-1.76-.38-.83-.29-1.33,1.33-2.39.67,1.06.66,1.57-.95,2.39-.67.53.07,1.12.24,1.76.38.95-.42,2.28-.58,3.42-.39-1.18.72-2.36.61-3.42.39-.46.2-.82.46-1.05.76-.27-.09-.82-.29-.82-.29-.67.31-1.31.71-1.94,1.05,2.07-.44,4.16-.89,6.3-1.34,13.74-2.89,26.39-5.64,40.74-8.02,7.81-1.1,15.32-2.11,22.74-2.65,14.75-1.21,27.98-4.26,43.06-3.34,5.76.29,16.27-1.09,21.72-1.49,7.18-1.98,3.25-5.89,2.87-6.11-4.77-3.26-8.25-1.09-17.74-2.36,6.44.61-4.47,2.63-10.7.89-9.09-2.79-21.12,1.72-31.89,2.32-2.7.13-5.5.79-8.69,1.21-4.17.34-8.25.84-12.27,1.55-4.02.7-8.01,1.44-12,2.31-3.98.91-7.99,1.82-12.07,2.75-1.02.22-2.05.45-3.08.68-1.03.24-2.06.49-3.1.73-2.08.48-4.19.96-6.34,1.41-4.54,1.03-8.33,2.79-11.99,4.26-2.73.86-5.81,1.16-8.06,1.73-1.77.45-3.4.96-4.93,1.49-1.52.57-2.95,1.18-4.35,1.79,1.6-.54,2.97-1.05,4.39-1.56,1.43-.47,2.91-.95,4.71-1.48,2.41-.67-1.38,1.62-2.91,2.29-.63.38-1.99-.38-2.61.04-1.48.42-2.73,1.23-4.25,1.94-.62.4-.8-.55-1.12-.35-2.11.83-3.44,2.49-4.9,2.63-1.09.16-2.08.29-3.05.41-.6.12-1.19.24-1.8.45-.36.18-.74.38-1.11.57.4.19.62.5.82.82-.59.11-1.45.14-2.03.28.58-.14,1.44-.17,2.03-.28-.21-.32-.42-.63-.82-.82-2.67,1.41-5.77,2.95-8.67,4.3l.07.07c1.74-.66,3.49-1.12,5.49-1.15-.85.05-.84-.24.05-.58.28.08.56.16.83.24-1.5.76-2.98,1.52-4.68,1.33,0,0-.61.42-.91.63-.54.03-.61-.26-.79-.47-.34.13-.68.27-1.02.4.88.22,3.38.07,3.38.07Z"/>
    <path fill="#0193b9" d="M593.26,113.19c-.23.1-.53.2-.84.32,1.16-.29,2.33-.57,3.49-.86-.74-.28-1.69.13-2.66.54Z"/>
  </g>
  <g>
    <path fill="#062f4a" d="M240.79,92.5l-12.61-38.51h-.4v38.51h-11.41V24.22h11.31l11.81,35.83h.6V24.22h11.31v68.28h-10.62Z"/>
    <path fill="#062f4a" d="M284.75,72.35h-10.72v20.15h-11.91v-38.21c0-9.06.3-15.56.89-19.5.6-3.94,2.08-6.81,4.47-8.63,2.38-1.82,6.35-2.73,11.91-2.73s9.53.91,11.91,2.73c2.38,1.82,3.87,4.7,4.47,8.63.6,3.94.89,10.44.89,19.5v38.21h-11.91v-20.15ZM284.45,39.06c-.2-1.95-.65-3.24-1.34-3.87-.7-.63-1.94-.94-3.72-.94s-3.03.31-3.72.94c-.69.63-1.14,1.92-1.34,3.87-.2,1.95-.3,5.48-.3,10.57v11.91h10.72v-11.91c0-5.09-.1-8.62-.3-10.57Z"/>
    <path fill="#062f4a" d="M341.52,24.22v38.21c0,9.07-.3,15.57-.89,19.5-.6,3.94-2.08,6.82-4.47,8.63-2.38,1.82-6.35,2.73-11.91,2.73s-9.53-.91-11.91-2.73c-2.38-1.82-3.87-4.7-4.47-8.63-.59-3.94-.89-10.44-.89-19.5V24.22h11.91v42.88c0,5.1.1,8.62.3,10.57.2,1.95.65,3.24,1.34,3.87.7.63,1.94.94,3.72.94s3.03-.31,3.72-.94c.69-.63,1.14-1.9,1.34-3.82.2-1.92.3-5.46.3-10.62V24.22h11.91Z"/>
    <path fill="#062f4a" d="M359.29,92.5v-57.27h-10.62v-11.02h33.25v11.02h-10.62v57.27h-12.01Z"/>
    <path fill="#062f4a" d="M389.66,92.5V24.22h11.91v68.28h-11.91Z"/>
    <path fill="#062f4a" d="M434.27,92.85c-1.75.3-3.39.45-4.91.45-5.23,0-9.07-1.01-11.51-3.03-2.45-2.02-4.07-5.39-4.86-10.12-.79-4.73-1.19-11.99-1.19-21.79s.41-16.89,1.24-21.69c.83-4.8,2.46-8.2,4.91-10.22,2.45-2.02,6.25-3.03,11.41-3.03,1.79,0,3.52.13,5.21.4,1.69.27,2.96.63,3.82,1.09v10.02c-2.58-.46-4.86-.69-6.85-.69-2.58,0-4.38.48-5.41,1.44-1.03.96-1.69,3-1.99,6.1-.3,3.11-.45,8.63-.45,16.57s.15,13.47.45,16.58c.3,3.11.96,5.15,1.99,6.1,1.03.96,2.83,1.44,5.41,1.44s4.86-.23,7.05-.7v9.93c-1.13.46-2.57.84-4.32,1.14Z"/>
    <path fill="#062f4a" d="M469.75,72.35h-10.72v20.15h-11.91v-38.21c0-9.06.3-15.56.89-19.5.6-3.94,2.08-6.81,4.47-8.63,2.38-1.82,6.35-2.73,11.91-2.73s9.53.91,11.91,2.73c2.38,1.82,3.87,4.7,4.47,8.63.6,3.94.89,10.44.89,19.5v38.21h-11.91v-20.15ZM469.46,39.06c-.2-1.95-.65-3.24-1.34-3.87-.7-.63-1.94-.94-3.72-.94s-3.03.31-3.72.94c-.69.63-1.14,1.92-1.34,3.87-.2,1.95-.3,5.48-.3,10.57v11.91h10.72v-11.91c0-5.09-.1-8.62-.3-10.57Z"/>
    <path fill="#062f4a" d="M492.38,92.5V24.22h12.01v57.27h13.7v11.02h-25.71Z"/>
  </g>
  <g>
    <path fill="#0193b9" d="M538.22,107.54c-.5-.24-1.09-.47-1.59-.62-.5-.15-.84-.22-1.09-.66-.5-.88-.59-1.24-.17-2.27.59-1.68,1.17-4.27,1.68-5.94.92-2.97,1.59-5.47,2.43-8.34.42-1.45.84-2.9,1.26-4.35.17-.65.34-1.29.5-1.94.17-.65.42-1.39.59-1.94.25-.56.33-.93.5-1.39.08-.19.08-.28,0-.45-.08-.54,0-1.09.17-1.64.42-1.75.59-3.03,1.09-4.78.17-.73.42-1.38.67-2.12.25-.83.42-1.65.59-2.48.25-.83.25-1.83.5-2.65.5-1.66.92-3.31,1.42-4.96.08-.19.08-.37.08-.64.25-1.19.5-2.38.84-3.66,0-.09,0-.18.08-.28.08-1.27.42-2.55.67-3.83.08-.73.33-1.37.42-2.01.08-.64.17-1.27.42-1.83,0-.06,0-.12,0-.18.08-.82.34-1.73.5-2.55.17-.82.17-1.45.25-2.27,0-.27,0-.45.08-.82.08-.27.5-.47.75-.31,1.26.84,2.93,1.56,4.02,2.57.34.25.59.5.84.67.34.16.5.51.75.67.17.26.17.44.17.71-.08.81-.17,1.44-.42,2.18-.17.55-.25,1-.33,1.55-.17,1.27-.59,2.55-.84,3.83-.33,1.19-.67,2.38-.92,3.66-.25,1.19-.42,2.55-.67,3.82-.08.63-.33,1.37-.5,1.92-.08.46-.17.91-.25,1.37-.17.73-.25,1.37-.5,2.11-.08.28-.08.55-.08.91-.17,1-.5,1.93-.92,2.95-.25.56-.25,1.01-.08,1.63,0,.18,0,.36-.08.55-.25.74-.25,1.55-.5,2.29-.17.73-.34,1.47-.42,2.2,0,.09,0,.18.08.17.78-.15,1.56-.3,2.35-.46.5-.13,1.01-.35,1.42-.57.84-.34,1.68-.77,2.43-1.02.75-.34,1.34-.57,2.01-.9.25-.11.34-.21.59-.23.22-.11.45-.22.67-.33.42-.4,1.09-.55,1.51-.86,1.42-1.03,2.85-2.07,4.27-3.11,1.09-.91,2.35-1.4,3.35-2.4.17-.11.34-.21.5-.41,1-.82,1.34-.95,2.18-2.01.84-1.07,1.93-2.34,2.85-3.41.42-.49.84-1.07,1.34-1.56.42-.49.84-1.15,1.17-1.63.25-.47.67-.96.92-1.34.84-1.15,2.09-3.67,2.6-4.78.75-1.75,1.09-2.06,1.59-3.78.25-.99.5-2.95.34-4.51,0-1.05-.25-1.99-.59-2.92-.08-.34-.34-.67-.67-.89-1.43-1.25-2.93-1.8-4.69-2.69-.25-.15-.59-.3-.92-.44-1.01-.26-1.93-.62-2.85-.71-.42-.05-.84-.1-1.26-.15-.39-.05-.78-.11-1.17-.17-.34.03-.75-.02-1.17-.08-.34-.06-.84-.11-1.17-.08-.34-.06-.67-.04-1.01.08-.95.07-1.9.15-2.85.21-.34.11-.67.14-1.01.25-3.1.67-6.12.85-9.13,1.64-1.51.44-3.02.87-4.52,1.3-.25.01-.42.11-.67.21-1.34.6-2.68,1.28-3.94,1.87-.42.2-.84.21-1.26.49-2.35,1.25-4.52,2.67-6.7,4.25-.92.65-1.84,1.31-2.85,1.87-.17.18-.42.37-.67.55-.25.19-.34.37-.42.64-.17.55-.42,1.01-.75,1.47-.92,1.38-1.68,2.67-2.18,4.32-.34.92-.42,1.93-.42,3.03,0,1.1.25,2.38.5,3.39.08.37.25.73.42,1,.08.27.25.46.5.45.67.17,1.17.16,1.84.24.59.08,1.17.34,1.68.87.59.81,1.42,1.51,2.01,2.31.59.71.59,1.53.67,2.44,0,.18-.17.28-.33.29-.92-.06-1.76-.3-2.51-.83-1.09-.7-2.09-1.5-3.02-2.4-.42-.27-.75-.63-1.09-.99-1.51-1.35-2.85-2.82-3.85-4.66-1.09-1.84-1.84-3.78-2.18-6-.34-2.4.34-4.42,1-6.71.03-.03.06-.06.08-.09.33-.46.67-.91.92-1.37.25-.55.5-1,.84-1.55.5-.82,1.26-1.46,2.09-2,.17-.18.42-.27.5-.46.39-.43.78-.85,1.17-1.28.42-.46.75-.64,1.34-.73.25,0,.42-.09.67-.27.25-.18.75-.55,1.09-.73.08-.09.25-.18.25-.27.34-.64.84-1.01,1.34-1.38.75-.37,1.51-.83,2.26-1.2,1.09-.65,2.26-1.12,3.43-1.78,1.43-.39,2.76-1.06,4.27-1.55,1.42-.49,3.02-.91,4.61-1.33.59-.11,1.26-.32,1.93-.44,1.59-.43,2.1-.36,3.6-.79,1.09-.05,2.26-.03,3.35-.18.59-.03,1.09-.15,1.59-.18.89-.05,1.79-.11,2.68-.17,2.26-.06,4.36.15,6.53.33.09,0,.17-.01.25.07.59.31,1.34.34,1.93.64.92.37,2.35.69,3.18,1.23,1.76,1.08,3.18,1.65,4.61,3.18.59.73,1.67,1.68,2.09,2.51.67,1.42,1.42,2.74,1.93,4.26.59,1.51,1.59,2.97,2.01,4.58.42,1.79.67,4.2.34,6.51-.08,1.06-.67,2.71-1.09,3.72-.17.37-.34.74-.42,1.1-.59,1.3-1.26,2.61-2.01,3.85-.42.67-.76,1.15-1.09,1.8-.25.38-.5.68-.84.98-.17.2-.25.21-.33.48-.08.27-.34.66-.5.85-.5.41-.92,1-1.17,1.47-.34.48-.5.77-.92,1.08-.08.01-.17.11-.25.21-.59.95-1.17,1.11-1.93,1.83-.17.11-.33.31-.42.4-.92,1-1.59,1.61-2.51,2.51q0,.09-.08.1c-.42.41-.92.55-1.26,1.04-.42.49-.84.9-1.26,1.21-1.17.94-2.68,1.64-3.77,2.57-.08,0-.08.1-.17.11-.33.13-.75.17-1.09.48-.42.22-.67.61-1.09.83-1.93,1.19-3.94,2.12-5.95,2.95-1.17.3-2.26.67-3.43.96-.67.15-1.34.3-2.01.45-.25.02-.5-.14-.75-.29-.7-.57-1.4-1.14-2.09-1.72-.25-.16-.5-.05-.5.31-.5,2.21-1.09,4.51-1.76,6.82-.08.37-.25.56-.59.86-.25.2-.5.31-.75.6-.25.38-.25.92,0,1.27,0,.63,0,.9-.08,1.64-.25,1.29-.59,2.31-1.01,3.7-.67,2.41-.84,4.33-1.67,6.75-.25.93-.5,2.31-.84,3.15-.17.19-.33.21-.5.22-1.01-.28-2.68-.33-3.6-.81Z"/>
    <path fill="#0193b9" d="M582.21,98.09c-.42-.11-.84-.22-1.09-.35-.75-.41-1.34-1.11-1.17-2.1.14-.87.28-1.74.42-2.61.25-1.62.59-4.57,1.17-6.14.08-1.5.59-2.98.92-4.43.61-2.25,1.23-4.5,1.84-6.74.34-1.27.67-2.63,1.26-3.94.08-.33.17-.66.25-1,.25-1.08.5-2.17.84-3.26.17-.72.5-1.38.75-2.11.25-.38.5-.85.5-1.29-.08-.95.25-1.87.67-2.79.25-.47.34-1,.5-1.46.08-.8.42-1.54.67-2.35.75-2.71,1.26-5.3,1.76-7.97.08-.36.17-.72.42-1.01.25-.29.42-.4.75-.36.34.22.75.25,1.01.56.33.3.67.52,1.09.64.42.2.84.32,1.09.72.42.46.59.44,1,.82.25.31.42.55.42,1.07,0,.26-.34,2.3-.08,2.69.59-.69,1.84-2.76,2.26-3.51.42-.58.84-.98,1.34-1.48.33-.56.84-.89,1-1.52,1.34-1.57,2.68-3.04,4.52-3.81,1.09-.41,2.09-.29,3.1-.26.17-.02.34.12.5.27.61.4,1.23.79,1.84,1.19.34.21.67.41,1.01.71.17.06.34.21.33.38.08.5.75.32.92.8.08.24.17.49.25.73-1.09.16-2.09.14-2.85.59-.92.48-1.67,1.19-2.43,2.07-.5.59-1.17,1.2-1.84,1.81-.58.6-1,1.44-1.42,2.01-.5.67-.84,1.33-1.34,2-.34.39-.67.87-1.26,1.05-.42.06-.42.15-.42.66.08.42-.17.71-.34,1-.33.57-.84.99-1,1.44-.28.42-.56.83-.84,1.25-.59.95-1.09,1.98-1.76,2.94-.92,1.61-1.59,3.18-2.51,4.7-.75,1.59-1.26,3.22-2.18,4.58-.25.3-.34.57-.42.93-.17.81-.25,1.69-.84,2.56-.25.99-.75,1.94-1.01,3.02-.17.63-.42,1.2-.67,1.76-.25.39-.42.94-.59,1.4-.75,2.64-1.42,6.5-2.26,8.99-.42,1.38-.75,2.91-1.01,4.26-.59,2.1-.75,1.61-2.18,1.41-1-.1-1.93-.39-2.93-.49Z"/>
    <path fill="#0193b9" d="M633.9,60.82c-.08.1-.17.28-.17.45.08.99-.25,1.88-.67,2.96-.25.54-.34,1.15-.33,1.73,0,.59-.08,1.27-.34,1.9-.42,1.41-.75,3.07-1.17,4.57-.08.27-.08.6-.25.88-.5,1.1-.84,2.33-1.17,3.49-.25.89-.5,1.69-1,2.45,0,.08-.08.18-.08.27-.5,1.77-1.59,3.41-2.18,5.12-.25.55-.59,1.12-.92,1.69-.59.79-1,1.62-1.59,2.41-1.34,1.78-3.02,3.2-4.94,4.25-.25.05-.5.18-.75.23-.59.2-1.17.4-1.84.52-.67.13-1.17.14-1.76.17-.25.05-.5.01-.75-.03-2.09-.37-4.27-1.07-6.28-1.82-1.01-.42-1.76-1.14-2.35-2.06-1.26-1.58-1.84-3.54-1.51-5.84.17-1.92.25-3.83.75-5.8.25-.64.33-1.43.5-2.06.59-1.99,1.17-4.06,2.01-6,.42-1.1.67-2.25,1.26-3.38.33-1.85,1.17-3.53,1.84-5.26,1.09-2.65,2.18-5.13,3.6-7.65.92-1.5,1.67-3.07,3.1-4.39.33-.39.59-1.02.92-1.5.84-1.32,1.76-2.47,3.1-3.26.17-.11.25-.21.34-.3,1.26-.95,2.51-1.14,3.52-.36.92.71,1.76,1.42,2.51,2.23.75.56,1.34,1.31,1.93,1.89.84.63,1.34,1.55,1.34,2.73v1.43c-.08.69-.08,1.36-.34,2.15-.17.53-.33.98-.92,1.33-.08.01-.17.19-.08.35.17.56.34,1.12.92,1.36.34.11.67.39.92.69.89.61,1.79,1.21,2.68,1.82.17.14.25.38.17.64ZM627.28,57.89c-.08-.04-.17-.09-.25-.13-.92-.61-1.84-1.3-2.68-1.93-.34-.2-.59-.5-.75-.81-.25-.55-.34-1.05,0-1.77.25-.29.5-.67.42-1.08-.08.1-.25.12-.33.22-1.34,1.48-2.26,3.32-3.6,4.72,0,.08-.08.1-.08.18-.17.7-.75,1.31-1.09,2.04-.17.45-.33,1.07-.75,1.4-.5.42-.17.96-.5,1.44-.42.58-.59,1.2-.84,1.84-.42.92-.75,1.91-1.26,2.93-.42.92-1.09,1.8-1.09,2.91,0,.26-.17.54-.34.82-.33.91-.67,1.82-1,2.73.08.58-.25,1.15-.42,1.69-.17.63-.17,1.22-.59,1.81-.08.1-.08.27-.17.37-.17.97-.42,1.95-.67,2.94-.42,1.61-.75,3.12-.75,4.83-.08.96,0,1.97-.08,2.92-.17.54-.17.88,0,1.28.08,1.18.5,1.02,1.34.69.75-.22,1.59-.55,2.26-1.1,1.17-.9,2.26-1.87,3.18-3.06.84-1.09,1.59-2.33,2.35-3.66.75-1.32,1.51-2.56,1.93-4.08.5-1.45,1.09-2.82,1.51-4.16.92-2.62,2.01-5.34,2.51-8.04,0-.17.08-.27.17-.45.61-2.35,1.23-4.7,1.84-7.05.08-.18,0-.34-.25-.46ZM624.09,52.07c.08-.01.08-.1.08-.1-.03.03-.06.07-.08.1Z"/>
    <path fill="#0193b9" d="M673.94,82.95c-.25-.04-.59.1-.92.16-.84-.02-1.76.14-2.68.06-1.51-.14-2.68-.74-3.27-2.1-.25-.52-.59-2.33-.59-2.98-.08-2.26-.5-2.84-.5-5.11,0-.24.08-.42.08-.58.25-.53.33-3.3.33-3.79,0-1.3.42-4.05.75-5.32.17-.68-.08-1.29.25-1.82.17-1.65.84-3.29,1.34-4.83,0-.24.5-1.45.42-1.36-.34-.27-1.09.89-1.17.99-.67,1.32-1.26,2.71-2.09,3.98-.34.54-.42,1.28-.75,1.99-.17.43-.34.95-.59,1.39-.67.84-1.26,2.65-1.68,3.53-.42.8-.42,1.7-.84,2.59-1.17,3.38-1.67,4.2-2.43,5.89-.17.27-.5.66-.75,1.77-.17.27-.34.63-.5.99-.08.18-.33.39-.33.63-.17.68-.67,1.27-.84,1.95-.17.44-.59.84-1,1.17-.42.32-.84.48-1.34.49-1.09-.05-1.59-.03-2.68,0-.58.03-1.17-.03-1.67-.1-.67-.04-.59-.55-1.01-.97-.17-.13-.25-.37-.25-.61,0-1.16,0-2.31.17-3.41.25-2.36.84-6.42,1.34-8.73.34-1.87,1.09-6.28,1.84-8.22.25-.86,1.34-4.58,1.17-4.88-.67.27-1.84,1.86-2.18,2.49-.25.45-.5.91-.75,1.36-.17.52-1.34,3.6-1.84,3.94-.25.13-.25.29-.17.44.17.3.17.63,0,.99-.25.62-.75,1.29-1.09,1.92,0,.08-.08.18-.08.26-.33,1.46-1.51,4.48-1.93,5.88-.17.36,0,.66-.17.94-.17.53-.59,1.02-.67,1.53-.17.44-.25.96-.42,1.48-.39,1.48-.78,2.96-1.17,4.45-.08.1-.08.26-.25.38-.17.69-.59,3.1-.84,3.98v.25c-.08.35-.34.65-.67.71-.42.08-.92.18-1.42.19-1.09.04-2.26.02-3.43.08-.5.01-.92-.24-1.42-.39-.42-.25-.59-.64-.59-1.14.08-1.1.17-2.21.67-3.39.08-.27.17-.53.17-.87.08-.94.5-1.93.42-2.92-.08-.15,0-.33.08-.52.42-1.41,1-4.53,1.17-5.97.08-1.18.17-2.28.42-3.49.25-.88.25-1.71.42-2.58,0-.42,0-.83.17-1.2.08-.18.17-.36.08-.6,0-1.08.25-2.21.42-3.32.08-1.01.09-2.01.42-2.99.08-.18.08-.35.08-.51,0-.83.08-1.76.25-2.71.08-.6,0-1.25.25-1.87.08-.18.08-.43.08-.6,0-1.25.17-2.44.5-3.74v-.25c-.08-1.82.17-3.6-.17-5.3-.09-.49.17-.86.42-1.23.08-.1.25-.2.42-.23.25-.04.59-.09.84.04.92.28,1.84.39,2.85.49.59.08,1.26.23,1.84.39.25.13.42.27.5.59.08.48.25.87.25,1.37,0,1.65.08,3.21,0,4.88,0,.83-.17,1.68-.33,2.53,0,.17-.17.36-.25.45-.42.31-.5.66-.17,1.1.17.22.17.47,0,.74-.17.28-.08.59,0,.83,0,.08.08.23.08.23.08-.01.25-.04.25-.12.17-.11.17-.28.25-.37.67-1.43,1.34-2.78,2.18-4.06.33-.55.59-1.08,1-1.56.25-.29.42-.72.59-1.08,1.93-3.01,2.76-4.29,3.77-5.34.42-.39.84-.78,1.26-1.17.5-.48,1.01-.56,1.51-.46,1.17.32,1.59.67,2.76.99.59.16,1.26.39,1.93.62.34.11.67.23.67.72,0,.33.25.45.42.59.08.15.17.22.08.39,0,.24-.08.5-.08.66,0,1.14-.25,2.23-1.17,4.9-.17.51,0,1.06-.34,1.52-.34.46-.34,1.03-.42,1.53-.17.52-.25,1.02-.42,1.53,0,.16-.08.34-.17.43-.59,1.56-.92,3.25-1.42,4.8,0,.08,0,.16.08.31.59-.99,1.25-1.92,1.59-2.95.08-.18.08-.34.25-.53,1.09-1.72,1.76-3.62,3.02-5.19.42-.55.67-1.16,1-1.69,2.35-3.92,3.69-5.89,5.11-7.86.92-1.26,1.93-2.28,3.02-3.31.25-.28.59-.48.84-.67.59-.4,1.09-.46,1.68-.37,1.34.4,2.18.77,3.52,1.09.67.16,1.26.41,1.93.65.25.05.5.1.75.31.84.54,1.26,1.61,0,2.88-.25.19-.42.37-.34.6.25,1.41-1.67,4.46-2.35,5.75-.42.78-.75,1.55-.92,2.45-.25.92-.75,2.51-1.26,3.39-.25.44-.33.93-.5,1.44-.17.64-.33,1.28-.5,1.92-.34,1.09-.59,2.18-.92,3.19-.17.75-.25,1.57-.67,2.28-.08.09-.08.34-.08.5.08,1.03-.25,2.05-.42,3.13-.17.67-.33,3.52-.25,4.23.08,1.28-.17,3.09.25,4.23-.08.26,0,.4.08.63.08.07.17.13.25.04.42-.55.84-1.1,1.17-1.64,1.34-1.99,2.1-3.87,3.35-5.83.5-.72.92-1.5,1.26-2.19.73-1.52,1.45-3.04,2.18-4.56.25-.59.5-1.27,1-1.82,0,0,.08-.17.08-.25-.25-.36.25-.91.42-1.26.5-.95.42-1.17,1.42-.83.17-.02.34-.04.5.01.59.16,1.01.26,1.67.26.42.02.84.21,1.17.32.34.11.59.24.92.2.33-.04.75.3.84.53.08.31.25.29.25.6.08.31-.08.8-.25,1.14-.5,1.02-1.01,2.12-1.42,3.29-.25.59-.67,1.2-1,1.81-.5.94-1.01,1.89-1.68,2.78-.67.97-.76,1.94-1.42,2.92-.08.25-.25.44-.42.62-.5.55-.92,1.18-1.17,1.85-.34.69-.42,1.26-.92,1.82-.42.63-.5,1.2-1.09,1.69-.67,1.23-1.76,2.28-2.43,3.44-.5.8-1.17,1.32-1.93,1.77-.25.2-.5.33-.84.38-.67.03-1.42.32-2.09.12Z"/>
    <path fill="#0193b9" d="M713.23,49.9c-.08.08-.17.25-.17.4.08.92-.25,1.73-.67,2.69-.25.49-.33,1.04-.34,1.58,0,.54-.08,1.17-.33,1.74-.42,1.28-.75,2.79-1.17,4.15-.08.24-.08.55-.25.8-.5.98-.84,2.11-1.17,3.15-.25.8-.5,1.53-1,2.21,0,.08-.08.17-.08.24-.5,1.61-1.59,3.06-2.18,4.61-.25.5-.59,1.01-.92,1.52-.59.69-1,1.45-1.59,2.15-1.34,1.57-3.02,2.81-4.94,3.7-.25.03-.5.15-.75.18-.59.16-1.17.32-1.84.41-.67.09-1.17.09-1.76.09-.25.04-.5,0-.75-.05-2.09-.41-4.27-1.12-6.28-1.85-1.01-.4-1.76-1.09-2.35-1.95-1.26-1.48-1.84-3.31-1.51-5.44.17-1.78.25-3.55.75-5.38.25-.6.33-1.33.5-1.91.59-1.84,1.17-3.75,2.01-5.54.42-1.01.67-2.08,1.26-3.11.34-1.71,1.17-3.25,1.84-4.84,1.09-2.43,2.18-4.7,3.6-6.99.92-1.37,1.68-2.79,3.1-3.96.33-.35.59-.93.92-1.35.84-1.18,1.76-2.22,3.1-2.88.17-.09.25-.18.34-.26,1.26-.82,2.51-.92,3.52-.14.92.71,1.76,1.42,2.51,2.22.75.57,1.34,1.3,1.93,1.88.84.64,1.34,1.53,1.34,2.62,0,.44,0,.88,0,1.32-.08.63-.08,1.25-.34,1.97-.17.48-.34.88-.92,1.17-.08,0-.17.17-.08.32.17.53.34,1.06.92,1.33.33.13.67.41.92.7.89.63,1.79,1.26,2.68,1.88.17.14.25.37.17.61ZM706.62,46.71c-.08-.04-.17-.09-.25-.13-.92-.62-1.84-1.32-2.68-1.95-.34-.2-.59-.49-.75-.79-.25-.53-.34-.99,0-1.65.25-.26.5-.59.42-.98-.08.09-.25.1-.34.19-1.34,1.3-2.26,2.96-3.6,4.19,0,.08-.08.09-.08.17-.17.65-.75,1.18-1.09,1.84-.17.41-.34.98-.75,1.26-.5.37-.17.89-.5,1.32-.42.52-.59,1.09-.84,1.67-.42.84-.75,1.74-1.26,2.67-.42.84-1.09,1.63-1.09,2.66,0,.24-.17.5-.34.75-.34.83-.67,1.67-1.01,2.5.08.54-.25,1.06-.42,1.56-.17.58-.17,1.13-.59,1.66-.08.09-.08.25-.17.34-.17.89-.42,1.8-.67,2.71-.42,1.48-.75,2.88-.75,4.47-.08.89,0,1.83-.08,2.71-.17.5-.17.82,0,1.19.08,1.1.5.96,1.34.68.75-.19,1.59-.46,2.26-.95,1.17-.8,2.26-1.66,3.18-2.72.84-.98,1.59-2.1,2.35-3.29.75-1.2,1.51-2.31,1.93-3.69.5-1.32,1.09-2.56,1.51-3.78.92-2.38,2.01-4.84,2.51-7.31,0-.16.09-.24.17-.41.61-2.15,1.23-4.29,1.84-6.43.08-.16,0-.31-.25-.45ZM703.43,41.13c.08,0,.08-.09.08-.09-.03.03-.06.06-.08.09Z"/>
    <path fill="#0193b9" d="M720.77,75.71c-1.68-.39-3.27-.94-4.86-1.41-1.93-.59-3.18-1.7-4.19-3.23-.84-1.31-1.26-2.67-1.34-4.14-.08-1.39.08-2.73.42-4.17.11-.24.22-.49.33-.73.17-.87.59-1.69,1.09-2.43.73-1.07,1.45-2.15,2.18-3.21.25-.41.67-.67,1.01-1.01.47-.48.95-.95,1.42-1.42,1.34-.72,1.01-.85,2.26-1.63.17-.09.42-.11.59-.04.17.07.34.13.42.2,1.03.7,2.07,1.41,3.1,2.12.42.28.5.81,1.01.94.59.2.84.57,1.17.85.08.07.17.22.25.37-.59.34-2.68,2.38-3.43,3.05-.5.42-.92.83-1.26,1.16-.5.5-1,1.07-1.26,1.71-.28.64-.56,1.28-.84,1.92-1.01,1.86-1.26,3.74-1.01,5.64.08.38-.08.63,0,.93.25.98.33.97,1.26.89,2.01-.02,3.94-.41,5.78-1.15,2.01-.91,3.77-2.09,5.03-3.84.75-.96,1.26-1.97,1.42-3.2.08-.16.08-.39.08-.54.17-.47.42-.93.33-1.39,0-1.22.08-2.44-.17-3.65-.42-2.34-1.59-4.36-3.43-5.96-1.84-1.68-3.94-3.18-6.03-4.68-.64-.55-1.28-1.11-1.93-1.66-1.42-1.3-2.09-3.04-2.09-4.97,0-1.16.5-2.11,1.17-3.15.31-.4.61-.8.92-1.2.59-1.03,1.42-1.84,2.35-2.65.33-.32.84-.65,1.26-.82.42-.17.67-.41,1-.5,1.01-.72,2.1-1.22,3.18-1.55.84-.17,1.67-.27,2.6-.36,1.42-.02,2.93.11,4.27.48.75.15,1.26.37,1.84.83,1.67,1.59,3.35,3.11,4.94,4.93.33.3.33.45-.08.83-.67.75-1,1.5-1.34,2.33-1.17,1.96-1.26,3.93-.84,5.9.17.91.67,1.51,1.09,2.18.08.15.08.23-.08.3-.03,0-.06,0-.08,0-1.59-.52-3.1-1.18-4.44-1.91-.42-.22-.75-.44-1.09-.81-.84-1.27-1.59-2.47-2.01-3.91-.25-.76-.42-1.59-.25-2.43.08-.81.17-1.63.25-2.44-2.09.72-3.85,1.84-5.19,3.26-1.17,1.04-1.76,2.36-2.51,3.55-.34.93-.75,1.42-.59,2.33.08.3.17.61.42.82,1.59,1,3.1,1.93,4.52,3.09.87.75,1.73,1.51,2.6,2.27,1.06,1.08,2.12,2.16,3.18,3.24,1,1.03,1.84,2.15,2.35,3.58.75,2.1,1.26,4.96.92,7.32,0,.38-.17.76-.25,1.14,0,.38-.08.76-.17,1.14,0,.23-.08.38-.17.54-.08.31-.25.46-.42.77-.08,1.06-.92,1.7-1.76,2.42-.08.16-.34.32-.42.47-1.59,1.36-3.44,2.23-5.53,2.67-1.26.31-2.43.47-3.69.64-1.84.21-3.69-.1-5.28-.65Z"/>
  </g>
</svg>