<?xml version="1.0" encoding="UTF-8"?>
<svg xmlns="http://www.w3.org/2000/svg" viewBox="0 0 1602 333">
  <path fill="#ffffff" d="M584,40.5h-18.2l-25.6,63.8h18.2l7.2-18h37l-18.4,45.8h-73.4l-11-18,32.8-82.6,25.3-18h73.4l-18.4,45.8h-37l8.1-18.8Z"/>
  <path fill="#ffffff" d="M607.5,114l32.8-82.6,25.3-18h55.2l11,18-32.7,82.6-25.4,18h-55.2l-11-18ZM647.9,104.3h18.2l25.6-63.8h-18.2l-25.6,63.8Z"/>
  <path fill="#ffffff" d="M780.4,40.5l-36.1,91.6h-37l47.2-118.7h129.3l11,18-40,100.6h-37l36.1-91.6h-18.2l-36.1,91.6h-37l36.1-91.6h-18.3v.1Z"/>
  <path fill="#ffffff" d="M943.9,40.5l-36.8,91.6h-37l47.2-118.7h129.3l11,18-40,100.6h-37l36.1-91.6h-18.2l-36.1,91.6h-37l36.1-91.6h-17.6v.1Z"/>
  <path fill="#ffffff" d="M1080.1,13.4h92.2l-47.2,118.7h-36.3l18.4-45.8h-18.2l-18.4,45.8h-37.7l47.2-118.7ZM1106.7,40.5l-7.2,18h18.2l7.2-18h-18.2Z"/>
  <path fill="#ffffff" d="M1261.7,13.4l11,18-40,100.6h-37l36.1-91.6h-18.2l-36.1,91.6h-37l47.2-118.7h74v.1Z"/>
  <path fill="#ffffff" d="M1248.1,132.1l47.2-118.7h74.1l11,18-32.9,82.6-25.3,18h-74.1v.1ZM1296.3,104.3h18.2l25.6-63.8h-18.2l-25.6,63.8Z"/>
  <path fill="#ffffff" d="M1403.9,104.3h55.2l-11.2,27.8h-92.2l47.2-118.7h92.2l-11.2,27.8h-55.2l-7.2,18h55.2l-11.2,27.8h-55.2l-6.4,17.3Z"/>
  <path fill="#ffffff" d="M1536.9,86.3h-18.2l-18.4,45.8h-37l47.2-118.7h92.2l-18.4,45.8-19.2,13.9,8.7,13.9-18.4,45.8h-37l18.5-46.5ZM1536.4,40.5l-7.2,18h18.2l7.2-18h-18.2Z"/>
  <path fill="#ffffff" d="M492.9,268.8l-25.7,64.5h-51.7l66.7-167.2h130l-41,102.7h-78.3ZM518.5,204.2l-10.2,25.7h25.9l10.2-25.7h-25.9Z"/>
  <path fill="#ffffff" d="M636.6,166.1h130l-66.7,167.2h-51.7l25.7-64.5h-25.9l-25.7,64.5h-51.7l66-167.2ZM673.6,204.2l-10.2,25.7h25.9l10.3-25.7h-26Z"/>
  <path fill="#ffffff" d="M861.6,204.2l-51.3,129.1h-51.7l51.3-129.1h-39.1l15.4-38.9h130l-15.4,38.9h-39.2Z"/>
  <path fill="#ffffff" d="M998.5,204.2h-25.9l-35.9,90.2h25.9l10.3-25.7h51.7l-25.7,64.5h-103.4l-15.6-25.7,46.2-115.9,36.1-25.7h103.4l-25.7,64.5h-51.7l10.3-26.2Z"/>
  <path fill="#ffffff" d="M1107,268.8l-25.7,64.5h-51.7l66.7-167.2h51.7l-25.7,64.5h25.9l25.7-64.5h51.7l-66.7,167.2h-51.7l25.7-64.5h-25.9Z"/>
  <path fill="#ffffff" d="M1256.8,294.4h77.6l-15.4,38.9h-130l66.7-167.2h130l-15.4,38.9h-77.6l-10.3,25.7h77.6l-15.4,38.9h-77.6l-10.2,24.8Z"/>
  <path fill="#ffffff" d="M1478.6,204.2h-25.9l-10.2,25.7h77.6l-30.7,77-36.1,25.7h-103.4l20.5-51.4h51.7l-5.2,13.2h25.9l10.3-25.7h-77.6l30.7-77,36.1-25.7h103.4l-20.5,51.4h-51.7l5.1-13.2Z"/>
  <g opacity="0.5">
    <polygon fill="#ffffff" points="233.8 105.8 0 12.8 23.6 64.3 235.1 155 440.4 74.4 467.7 12.8 233.8 105.8"/>
    <polygon fill="#ffffff" points="35.7 90.7 61.5 147.2 236.3 236.7 404.8 155 431.6 94.4 235.7 186.8 35.7 90.7"/>
    <polygon fill="#ffffff" points="76 178.7 102.3 236.1 235.1 320.9 367.3 239.8 394.3 178.7 234.5 271.6 76 178.7"/>
  </g>
  <polygon fill="#ffffff" points="398.1 118.6 272.5 118.6 233.7 0 195 118.6 69.6 118.6 170.7 192.4 131.9 311.7 233.7 238 335 311.9 296.2 192.4 398.1 118.6"/>
  <polygon fill="#282762" points="191.8 185.5 124.8 136.6 208 136.6 233.7 57.9 259.5 136.6 342.5 136.6 275 185.5 300.7 264.6 233.8 215.7 166.1 264.7 191.8 185.5"/>
</svg>