<svg viewBox="0 0 512 512" xmlns="http://www.w3.org/2000/svg"><path fill="#fe7224" d="m284.01 410.88-10.14-70.23-92.57 13.36-6.8-47.08 52.05-198.14 70.23-10.14 27.19 188.33 29.53-4.26 6.57 45.49-29.53 4.26 10.14 70.23-56.66 8.18zm-62.19-109.15 45.49-6.57-18.32-126.89-27.17 133.45z" class="fill-current text-accent"/><path fill="#257c79" d="m52.71 418.85-36.94-255.86 85.29-12.31c22.83-3.3 40.49.32 53.75 11.44 13.26 11.11 21.25 28.47 24.74 52.64 1.36 9.4 1.95 18.23 1 25.91s-1.99 14.68-4.58 20.54c-2.58 5.86-6.03 10.47-9.48 15.08s-8.43 8.07-14.19 10.96c-5.75 2.89-10.93 5.01-16.78 7.22-5.95 1.54-12.57 3.18-19.95 4.25l-22.16 3.2 15.7 108.79-56.41 8.14zm34.98-156.56 18.13-2.62c10.07-1.45 16.4-5.11 18.98-10.97s2.67-14.78.92-26.87c-.68-4.7-1.16-8.06-2.32-11.32-.39-2.69-1.54-5.95-3.37-9.11s-3.46-4.98-5.1-6.81c-2.31-1.72-4.51-2.78-8.07-3.63s-7.01-1.05-11.71-.37l-18.13 2.62 9.98 69.17.67-.1z"/><g fill="#fe7224" class="fill-current text-accent"><path d="m53.73 146.39c10.54-19.43 23.81-37.2 39.64-53.03 21.13-21.13 45.73-37.72 73.12-49.3 28.34-11.99 58.46-18.06 89.52-18.06s61.18 6.08 89.52 18.06c27.39 11.58 51.99 28.17 73.12 49.3s37.72 45.73 49.3 73.12c11.99 28.34 18.06 58.46 18.06 89.52 0 17.32-1.89 34.34-5.64 50.93l18.65-2.69 3.2 22.15c6.38-22.36 9.8-45.97 9.8-70.38-.02-141.39-114.64-256.01-256.02-256.01-103.93 0-193.39 61.93-233.5 150.9l31.22-4.51z"/><path d="m8.58 190.11c-5.59 21.03-8.58 43.11-8.58 65.89 0 48.76 13.64 94.34 37.3 133.13z"/><path d="m454.69 371.94c-9.91 16.97-21.97 32.61-36.06 46.69-21.13 21.13-45.73 37.72-73.12 49.3-28.34 11.99-58.46 18.06-89.52 18.06s-61.18-6.08-89.52-18.06c-25.29-10.7-48.2-25.68-68.21-44.55l-31.89 4.6c46.83 51.6 114.44 84.01 189.62 84.01 101.48 0 189.17-59.05 230.58-144.66l-31.89 4.6z"/></g><path fill="#257c79" d="m380.37 371.55-36.93-255.86 56.41-8.14 31.41 217.58 58.43-8.43 5.52 38.28z"/></svg>
