<svg viewBox="0 0 388.99 74.75" xmlns="http://www.w3.org/2000/svg"><path fill="#fe7224" d="m240.8 0c-20.64 0-37.37 16.73-37.37 37.37s16.73 37.37 37.37 37.37 37.37-16.73 37.37-37.37-16.73-37.37-37.37-37.37zm2.89 69.61c-.95.08-1.91.14-2.89.14-17.85 0-32.37-14.52-32.37-32.37 0-8.65 3.37-16.78 9.48-22.89s13.91-9.33 22.36-9.47l-22.99 40.18v10.33h26.41v14.09zm0-24.06h-15.07l15.07-27.83zm12.43 20.34v-10.36h6.48v-9.98h-6.48v-36.69c10.15 5.47 17.06 16.2 17.06 28.51s-6.91 23.04-17.06 28.51z" class="fill-current text-accent"/><path fill="#257c79" d="m388.45 50.86c-.27-.93-.93-1.86-1.6-2.79-.66-.93-1.33-1.6-1.86-2.13s-1.33-1.2-2.39-2.13l-2.66-2.39c-.13-.13-.27-.27-.53-.53-3.06-2.53-4.52-4.25-4.39-5.19 0-.53.27-1.06.66-1.46s.93-.53 1.73-.53h.13c1.06 0 1.86.53 2.66 1.6.66 1.06 1.33 2.26 1.73 3.59l6.65-3.06c-.93-3.06-2.26-5.32-4.25-6.91-1.99-1.6-4.52-2.39-7.45-2.39-1.99 0-3.72.4-5.45 1.2s-3.06 1.99-4.12 3.59-1.6 3.32-1.6 5.32c0 3.32 1.99 6.65 6.12 10.1l2.79 2.39c.93.8 1.46 1.2 1.73 1.46l1.33 1.33c.66.53 1.06 1.06 1.33 1.46s.4.66.4 1.06c0 .66-.27 1.2-.66 1.73s-.93.8-1.6.8h-.27c-.93 0-1.86-.53-2.66-1.33-.93-.93-1.73-2.26-2.39-3.99l-7.05 3.06c1.2 3.19 2.92 5.45 4.92 6.91 2.13 1.46 4.65 2.13 7.71 2.13 1.99 0 3.99-.53 5.72-1.2 1.73-.66 3.19-1.86 4.25-3.32s1.6-3.32 1.6-5.32c0-1.06-.13-2.13-.53-3.06zm-308.41 4.25c-.13.13-.4.13-.8.13h-.93c-2.26 0-3.32-1.06-3.32-2.92v-18.61h5.19v-6.65h-5.19v-11.03h-10.24v11.03h-3.46v6.65h3.46v16.88c0 .93.13 1.99.13 2.79.13.8.27 1.73.4 2.66s.4 1.73.66 2.39c.27.66.53 1.33 1.06 1.99.4.66.93 1.2 1.6 1.6.53.4 1.33.8 2.26 1.06.93.4 1.99.53 3.06.53.27 0 .66 0 1.2-.13 1.73 0 3.86-.13 5.98-.53v-7.98h-.4c-.27.13-.4.13-.66.13zm-63.16-42.54h-16.88v50.65h11.17v-21.54h4.39c1.46 0 2.79-.13 3.99-.27 1.2-.27 2.26-.53 3.46-.93s2.26-.93 3.06-1.73 1.6-1.6 2.26-2.66 1.06-2.39 1.46-3.86c.4-1.46.53-3.19.53-5.05 0-4.79-1.06-8.38-3.32-10.9-2.26-2.53-5.58-3.72-10.1-3.72zm1.87 19.67c-.66 1.06-1.99 1.6-3.99 1.6h-3.72v-13.69h3.59c.93 0 1.6.13 2.26.4s1.06.53 1.46.93c.27.4.53.8.8 1.46s.4 1.33.4 1.86c.13.66.13 1.33.13 2.26 0 2.39-.27 4.12-.93 5.19zm38.68 4.66c0-3.19-.93-5.85-2.79-7.84s-4.52-2.92-8.11-2.92c-3.99 0-7.05.93-9.17 2.79-2.13 1.86-3.46 4.79-3.72 8.77v1.2l9.57.4.27-2.66c.13-1.99.93-2.92 2.26-2.92.8 0 1.46.27 1.73.8s.4 1.33.4 2.39v3.59c-.53.27-1.2.53-2.26.93s-1.86.66-2.53.93c-.53.13-1.33.53-2.39 1.06-.93.53-1.73 1.06-2.39 1.46-.53.4-1.2 1.06-1.99 1.73-.66.8-1.33 1.46-1.73 2.26s-.8 1.6-1.06 2.66c-.27 1.06-.4 2.13-.4 3.32 0 2.26.8 4.39 2.26 6.12 1.46 1.86 3.59 2.79 6.12 2.79 1.73 0 3.19-.53 4.52-1.99 1.2-1.06 1.99-2.53 2.53-4.12 0 .53.27 2.26.8 5.19h8.77c-.4-3.72-.66-6.78-.66-9.04v-16.88zm-9.43 18.21c-.4.4-.8.8-1.33 1.2s-.93.53-1.46.53c-.93 0-1.6-.4-1.99-1.06-.53-.66-.8-1.6-.8-2.79 0-1.33.53-2.79 1.6-4.25s2.39-2.66 3.99-3.46v9.84zm274.78-28.72c-3.86 0-6.91 1.06-9.17 3.19s-3.32 5.19-3.32 9.04v12.9c0 3.86 1.2 6.91 3.32 9.04 2.26 2.13 5.32 3.19 9.31 3.19 3.72 0 6.65-.93 8.64-2.79 2.13-1.86 3.19-4.65 3.19-8.24v-2.13h-9.44v2.39c0 2.26-.8 3.46-2.53 3.46-.93 0-1.46-.27-1.86-1.06-.4-.8-.53-1.86-.53-3.32v-6.38h14.49v-7.05c0-4.12-1.06-7.05-3.06-9.17-1.99-1.99-5.05-3.06-9.04-3.06zm2.52 14.63h-4.79v-2.92c0-1.6.13-2.66.53-3.32s.93-.93 1.73-.93 1.46.27 1.86.8.66 1.46.66 2.79v3.59zm-218.81-11.84c-2.13-1.86-5.19-2.79-9.04-2.79s-7.05 1.06-9.17 3.19c-2.26 2.13-3.32 5.05-3.32 8.91v13.03c0 3.86 1.2 6.91 3.32 9.04s5.19 3.19 9.17 3.19c3.99 0 6.91-.93 9.04-2.53 2.13-1.99 3.19-4.65 3.19-8.24v-4.39h-9.84v4.79c0 1.2-.13 2.13-.53 2.66s-.93.8-1.73.8-1.33-.4-1.73-.93-.53-1.6-.53-3.19v-15.02c0-1.6.13-2.66.53-3.32s.93-.93 1.73-.93 1.33.27 1.73.8c.4.4.53 1.46.53 2.79v4.12h9.84v-3.86c0-3.59-1.06-6.25-3.19-8.11zm188.63-16.61h-11.17v50.65h22.73v-7.58h-11.57v-43.07zm-136.51 13.82c-3.86 0-6.91 1.06-9.17 3.19s-3.32 5.19-3.32 9.04v12.9c0 3.86 1.2 6.91 3.32 9.04 2.26 2.13 5.32 3.19 9.31 3.19 3.72 0 6.65-.93 8.64-2.79 2.13-1.86 3.19-4.65 3.19-8.24v-2.13h-9.44v2.39c0 2.26-.8 3.46-2.53 3.46-.93 0-1.46-.27-1.86-1.06s-.53-1.86-.53-3.32v-6.38h14.49v-7.05c0-4.12-1.06-7.05-3.06-9.17-1.99-1.99-5.05-3.06-9.04-3.06zm2.53 14.63h-4.92l.13-2.92c0-1.6.13-2.66.53-3.32s.93-.93 1.73-.93 1.46.27 1.86.8.66 1.46.66 2.79v3.59zm35.09 7.04c-.66-.93-1.33-1.6-1.86-2.13s-1.33-1.2-2.39-2.13l-2.66-2.39c-.13-.13-.27-.27-.53-.53-3.06-2.53-4.52-4.25-4.39-5.19 0-.53.27-1.06.66-1.46s.93-.53 1.73-.53h.13c1.06 0 1.86.53 2.66 1.6.66 1.06 1.33 2.26 1.73 3.59l6.65-3.06c-.93-3.06-2.26-5.32-4.25-6.91s-4.52-2.39-7.45-2.39c-1.99 0-3.72.4-5.45 1.2s-3.06 1.99-4.12 3.59-1.6 3.32-1.6 5.32c0 3.32 1.99 6.65 6.12 10.1l2.79 2.39c.93.8 1.46 1.2 1.73 1.46l1.33 1.33c.66.53 1.06 1.06 1.33 1.46s.4.66.4 1.06c0 .66-.27 1.33-.66 1.73-.4.53-.93.8-1.6.8h-.27c-.93 0-1.86-.53-2.66-1.33-.93-.93-1.73-2.26-2.39-3.99l-7.05 3.06c1.2 3.19 2.92 5.45 4.92 6.91 2.13 1.46 4.65 2.13 7.71 2.13 2.13 0 3.99-.27 5.72-1.2 1.73-.66 3.19-1.86 4.25-3.32s1.6-3.32 1.6-5.32c0-1.06-.13-2.13-.53-3.06-.27-.93-.8-1.86-1.6-2.79zm-62.08-21.67c-3.32 0-6.25 1.33-8.77 3.86v-17.68h-10.24v50.65h10.24v-28.19c1.2-.93 2.26-1.33 3.19-1.33.8 0 1.33.27 1.6.66s.4 1.06.4 1.99v26.72h10.24v-28.32c0-2.39-.53-4.39-1.73-5.98s-2.79-2.39-4.92-2.39zm226.25 21.67c-.66-.93-1.33-1.6-1.86-2.13s-1.33-1.2-2.39-2.13l-2.66-2.39c-.13-.13-.27-.27-.53-.53-3.06-2.53-4.52-4.25-4.39-5.19 0-.53.27-1.06.66-1.46s.93-.53 1.73-.53h.13c1.06 0 1.86.53 2.66 1.6.66 1.06 1.33 2.26 1.73 3.59l6.65-3.06c-.93-3.06-2.26-5.32-4.25-6.91s-4.52-2.39-7.45-2.39c-1.99 0-3.72.4-5.45 1.2s-3.06 1.99-4.12 3.59-1.6 3.32-1.6 5.32c0 3.32 1.99 6.65 6.12 10.1l2.79 2.39c.93.8 1.46 1.2 1.73 1.46l1.33 1.33c.66.53 1.06 1.06 1.33 1.46s.4.66.4 1.06c0 .66-.27 1.2-.66 1.73-.4.53-.93.8-1.6.8h-.27c-.93 0-1.86-.53-2.66-1.33-.93-.93-1.73-2.26-2.39-3.99l-7.05 3.06c1.2 3.19 2.92 5.45 4.92 6.91 2.13 1.46 4.65 2.13 7.71 2.13 2.13 0 3.99-.53 5.72-1.2 1.73-.66 3.19-1.86 4.25-3.32s1.6-3.32 1.6-5.32c0-1.06-.13-2.13-.53-3.06-.27-.93-.93-1.86-1.6-2.79z"/></svg>
