<svg xmlns="http://www.w3.org/2000/svg" viewBox="0 0 18 36">

  <path fill="currentColor" d="M0,23.4v.45c.13.06,8.73,4.36,9,4.5,1.01-.51,5.01-2.5,9-4.5v-.45c-4,2-8,4-9,4.5-.38-.19-8.3-4.15-9-4.5ZM0,24.3v.45c1.99,1,7.01,3.51,9,4.5.35-.18,4.68-2.34,9-4.5v-.45c-4.13,2.06-8.27,4.14-9,4.5-.28-.14-8.51-4.26-9-4.5ZM0,26.1v.45c.51.25,8.49,4.25,9,4.5,4.42-2.21,5.74-2.87,9-4.5v-.45c-3.77,1.89-7.58,3.79-9,4.5-.48-.24-8.5-4.25-9-4.5ZM5.4,0L0,2.7v.45L6.3,0h-.9ZM3.6,0L0,1.8v.45L4.5,0h-.9ZM1.8,0L0,.9v.45L2.7,0h-.9ZM0,0v.45l.9-.45h-.9ZM7.2,0L0,3.6v.45L8.1,0h-.9ZM0,27v.45c7.47,3.73,8.97,4.48,17.1,8.55h.9c-.15-.08-.3-.15-.45-.23l.45-.23v-.45l-.9.45c-.15-.08-.3-.15-.45-.22l1.35-.68v-.45l-1.8.9c-.15-.07-.3-.15-.45-.23l2.25-1.12v-.45l-2.7,1.35c-.15-.07-.3-.15-.45-.23l3.15-1.57v-.45l-3.6,1.8c-.15-.07-.3-.15-.45-.23l4.05-2.02v-.45l-4.5,2.25c-.15-.07-.3-.15-.45-.23.98-.49,3.89-1.95,4.95-2.48v-.45c-1.2.6-4.27,2.14-5.4,2.7-.16-.08-.31-.15-.45-.22.23-.12,5.56-2.78,5.85-2.93v-.45c-.22.11-6,3-6.3,3.15-.14-.07-.29-.14-.45-.23.31-.15,6.43-3.21,6.75-3.38v-.45c-.83.42-6.42,3.21-7.2,3.6l-.45-.23c.83-.42,6.84-3.42,7.65-3.82v-.45c-.29.14-7.82,3.91-8.1,4.05-.15-.08-.3-.15-.45-.23.84-.42,7.61-3.81,8.55-4.27v-.45c-.2.1-7.99,3.99-9,4.5-6.71-3.36-4.31-2.16-9-4.5ZM0,29.25c5.07,2.53,9.03,4.52,13.5,6.75h.9c-4.87-2.43-12.78-6.39-14.4-7.2v.45ZM0,31.05c.15.08.3.15.45.23l-.45.23v.45l.9-.45c.15.08.3.15.45.23l-1.35.67v.45l1.8-.9c.15.08.3.15.45.22l-2.25,1.12v.45l2.7-1.35.45.23-3.15,1.58v.45l3.6-1.8c.15.07.3.15.45.23l-4.05,2.02v.45l4.5-2.25.45.23c-.98.49-3.89,1.95-4.95,2.48h.9c1.28-.64,3.53-1.76,4.5-2.25l.45.23c-.43.22-2.48,1.24-4.05,2.02h.9c1.65-.82,3.47-1.73,3.6-1.8l.45.22c-.21.11-1.65.83-3.15,1.58h.9c1.39-.7,2.59-1.3,2.7-1.35.15.07.3.15.45.23-.11.05-1.06.53-2.25,1.12h.9c1.03-.51,1.77-.89,1.8-.9.15.07.3.15.45.23-.14.07-.65.32-1.35.67h.9c.5-.25.83-.41.9-.45.07.04.4.2.9.45h.9c-4.69-2.34-9.97-4.99-10.8-5.4v.45ZM0,25.2v.45c.95.48,7.96,3.98,9,4.5,1.02-.51,5.01-2.5,9-4.5v-.45c-4.31,2.16-8.63,4.31-9,4.5-.31-.16-8.41-4.21-9-4.5ZM0,30.15c.44.22,6.68,3.34,11.7,5.85h.9C7.34,33.37.12,29.76,0,29.7v.45ZM0,28.35c.63.31,10.41,5.21,15.3,7.65h.9c-4.56-2.28-13.05-6.52-16.2-8.1v.45ZM11.7,0l6.3,3.15v-.45L12.6,0h-.9ZM9.9,0l8.1,4.05v-.45L10.8,0h-.9ZM0,4.5v.45c1.9.95,7.11,3.55,9,4.5.36-.18,4.68-2.34,9-4.5v-.45L9,0,0,4.5ZM9,9c-.08-.04-.24-.12-.45-.23l.45-.22.45.22c-.21.11-.38.19-.45.23ZM9.9,8.55l-.9-.45-.9.45c-.14-.07-.29-.15-.45-.23l1.35-.68,1.35.68c-.15.07-.3.15-.45.23ZM10.8,8.1l-1.8-.9-1.8.9c-.15-.07-.3-.15-.45-.23l2.25-1.12,2.25,1.12c-.07.03-.24.12-.45.23ZM11.7,7.65l-2.7-1.35-2.7,1.35c-.15-.08-.3-.15-.45-.22l3.15-1.57,3.15,1.57-.45.22ZM12.6,7.2l-3.6-1.8-3.6,1.8-.45-.22,4.05-2.03,4.05,2.03c-.15.07-.3.15-.45.22ZM13.5,6.75l-4.5-2.25-4.5,2.25c-.2-.1-.36-.18-.45-.23.98-.49,3.89-1.95,4.95-2.47.92.46,3.71,1.85,4.95,2.47-.16.08-.31.15-.45.23ZM14.4,6.3c-.23-.11-5.18-2.59-5.4-2.7-.22.11-5.17,2.59-5.4,2.7-.16-.08-.3-.15-.45-.23.3-.15,5.56-2.78,5.85-2.93.29.15,5.55,2.78,5.85,2.93-.17.09-.32.16-.45.23ZM15.3,5.85c-.22-.11-5.83-2.92-6.3-3.15-.1.05-5.48,2.74-6.3,3.15-.17-.08-.32-.16-.45-.23.27-.14,6.47-3.23,6.75-3.38.28.14,6.48,3.24,6.75,3.38-.16.08-.31.15-.45.23ZM16.2,5.4c-.09-.05-7.11-3.55-7.2-3.6-.09.05-7.11,3.55-7.2,3.6-.16-.08-.31-.15-.45-.22.37-.18,7.36-3.68,7.65-3.82.29.14,7.28,3.64,7.65,3.82-.15.08-.3.15-.45.22ZM17.1,4.95c-.35-.18-7.77-3.88-8.1-4.05-.33.17-7.75,3.87-8.1,4.05-.13-.07-.28-.14-.45-.22.18-.09,8.03-4.01,8.55-4.28.48.24,8.31,4.15,8.55,4.28-.15.08-.3.15-.45.22ZM0,6.3v.45c1.99,1,7.01,3.51,9,4.5.35-.18,4.68-2.34,9-4.5v-.45c-4.13,2.06-8.27,4.14-9,4.5-.28-.14-8.51-4.26-9-4.5ZM0,22.5v.45c1.9.95,7.11,3.55,9,4.5.36-.18,4.68-2.34,9-4.5v-.45l-9-4.5L0,22.5ZM9,27c-.08-.04-.24-.12-.45-.23l.45-.23.45.23c-.21.11-.38.19-.45.23ZM9.9,26.55l-.9-.45-.9.45c-.14-.07-.29-.15-.45-.22l1.35-.68,1.35.68c-.15.07-.3.15-.45.22ZM10.8,26.1l-1.8-.9-1.8.9c-.15-.07-.3-.15-.45-.23l2.25-1.12,2.25,1.12c-.07.03-.24.12-.45.23ZM11.7,25.65l-2.7-1.35-2.7,1.35c-.15-.08-.3-.15-.45-.23l3.15-1.57,3.15,1.57-.45.23ZM12.6,25.2l-3.6-1.8-3.6,1.8c-.16-.08-.31-.15-.45-.23l4.05-2.02,4.05,2.02c-.15.07-.3.15-.45.23ZM13.5,24.75l-4.5-2.25-4.5,2.25c-.2-.1-.36-.18-.45-.23.98-.49,3.89-1.95,4.95-2.48.92.46,3.71,1.85,4.95,2.48-.16.08-.31.15-.45.23ZM14.4,24.3c-.23-.11-5.18-2.59-5.4-2.7-.22.11-5.17,2.59-5.4,2.7-.16-.08-.3-.15-.45-.22.3-.15,5.56-2.78,5.85-2.93.29.15,5.55,2.78,5.85,2.93-.17.09-.32.16-.45.22ZM15.3,23.85c-.22-.11-5.83-2.92-6.3-3.15-.1.05-5.48,2.74-6.3,3.15-.17-.08-.32-.16-.45-.23.27-.14,6.47-3.23,6.75-3.38.28.14,6.48,3.24,6.75,3.38-.16.08-.31.15-.45.23ZM16.2,23.4c-.09-.05-7.11-3.55-7.2-3.6-.09.05-7.11,3.55-7.2,3.6-.16-.08-.31-.15-.45-.23.37-.18,7.36-3.68,7.65-3.82.29.14,7.28,3.64,7.65,3.82-.15.08-.3.15-.45.23ZM17.1,22.95c-.35-.18-7.77-3.88-8.1-4.05-.33.17-7.75,3.87-8.1,4.05-.13-.07-.28-.14-.45-.23.18-.09,8.03-4.01,8.55-4.28.48.24,8.31,4.15,8.55,4.28-.15.08-.3.15-.45.23ZM13.5,0l4.5,2.25v-.45l-3.6-1.8h-.9ZM17.1,0l.9.45v-.45h-.9ZM15.3,0l2.7,1.35v-.45l-1.8-.9h-.9ZM0,5.4v.45c.13.06,8.73,4.36,9,4.5,1.01-.51,5.01-2.5,9-4.5v-.45c-4,2-8,4-9,4.5-.38-.19-8.3-4.15-9-4.5ZM0,10.8v.45c5.07,2.53,9.03,4.52,13.5,6.75l4.5,2.25v-.45l-3.6-1.8C9.53,15.57,1.62,11.61,0,10.8ZM0,11.7v.45c.44.22,6.68,3.34,11.7,5.85l6.3,3.15v-.45l-5.4-2.7C7.34,15.37.12,11.76,0,11.7ZM0,7.2v.45c.95.48,7.96,3.98,9,4.5,1.02-.51,5.01-2.5,9-4.5v-.45c-4.31,2.16-8.63,4.31-9,4.5-.31-.16-8.41-4.21-9-4.5ZM0,12.6v.45c.15.08.3.15.45.22l-.45.23v.45l.9-.45c.15.08.3.15.45.23l-1.35.67v.45l1.8-.9c.15.08.3.15.45.23l-2.25,1.12v.45l2.7-1.35.45.23-3.15,1.57v.45l3.6-1.8c.15.07.3.15.45.22l-4.05,2.03v.45l4.5-2.25.45.22c-.98.49-3.89,1.95-4.95,2.48v.45l.9-.45c1.28-.64,3.53-1.76,4.5-2.25l.45.23c-.43.22-2.48,1.24-4.05,2.02l-1.8.9v.45l2.7-1.35c1.65-.82,3.47-1.73,3.6-1.8l.45.23c-.21.1-1.65.83-3.15,1.57l-3.6,1.8v.45l4.5-2.25c1.39-.7,2.59-1.3,2.7-1.35.15.07.3.15.45.23-.11.05-1.06.53-2.25,1.12l-5.4,2.7v.45l6.3-3.15c1.03-.51,1.77-.89,1.8-.9.15.07.3.15.45.22-.14.07-.65.32-1.35.68l-7.2,3.6v.45l8.1-4.05c.5-.25.83-.41.9-.45.07.04.4.2.9.45l8.1,4.05v-.45l-7.2-3.6C6.11,15.66.82,13.01,0,12.6ZM0,8.1v.45c.51.25,8.49,4.25,9,4.5,4.42-2.21,5.74-2.87,9-4.5v-.45c-3.77,1.89-7.58,3.79-9,4.5-.48-.24-8.5-4.25-9-4.5ZM0,9v.45l17.1,8.55.9.45v-.45c-.15-.08-.3-.15-.45-.23l.45-.22v-.45l-.9.45c-.15-.08-.3-.15-.45-.23l1.35-.68v-.45l-1.8.9c-.15-.07-.3-.15-.45-.23l2.25-1.12v-.45l-2.7,1.35c-.15-.07-.3-.15-.45-.22l3.15-1.57v-.45l-3.6,1.8c-.15-.07-.3-.15-.45-.22l4.05-2.03v-.45l-4.5,2.25c-.15-.07-.3-.15-.45-.23.98-.49,3.89-1.95,4.95-2.47v-.45l-5.4,2.7c-.16-.08-.31-.15-.45-.23.23-.12,5.56-2.78,5.85-2.93v-.45l-6.3,3.15c-.14-.07-.29-.14-.45-.23.31-.15,6.43-3.21,6.75-3.38v-.45c-.83.42-6.42,3.21-7.2,3.6l-.45-.22c.83-.42,6.84-3.42,7.65-3.82v-.45c-.29.14-7.82,3.91-8.1,4.05-.15-.08-.3-.15-.45-.22.84-.42,7.61-3.81,8.55-4.28v-.45c-.2.1-7.99,3.99-9,4.5-6.71-3.36-4.31-2.16-9-4.5ZM0,9.9v.45c.63.31,10.41,5.21,15.3,7.65l2.7,1.35v-.45l-1.8-.9C11.64,15.72,3.15,11.48,0,9.9Z"/></svg>