<svg class="h-16" xmlns="http://www.w3.org/2000/svg" xmlns:xlink="http://www.w3.org/1999/xlink" viewBox="0 0 160.14 38.01">
    <clipPath id="a" transform="translate(-2.41 -2.3)">
        <circle cx="97.19" cy="17.9" r="15.1" transform="matrix(.90785067 -.41929364 .41929364 .90785067 1.45 42.41)"></circle>
    </clipPath>
    <g transform="translate(-2.41 -2.3)">
        <path d="m79.9 20.86a1.28 1.28 0 0 0 .83-.57 1.24 1.24 0 0 0 .11-1.09 5.6 5.6 0 0 0 -1.15-2 4.41 4.41 0 0 0 -1.84-1.17 9.61 9.61 0 0 0 -2.85-.3 8.81 8.81 0 0 0 -3 .42 4.5 4.5 0 0 0 -2 1.48 3.72 3.72 0 0 0 -.51.94 4.15 4.15 0 0 0 -.83-1.49 4.2 4.2 0 0 0 -3.27-1.35 5 5 0 0 0 -2.47.58 1.25 1.25 0 0 0 -.92-.31h-3.37a1.25 1.25 0 0 0 -1.26 1.26v1.66a5.72 5.72 0 0 0 -.66-1 6.42 6.42 0 0 0 -5.21-2.17 6.48 6.48 0 0 0 -4.8 1.84 5.34 5.34 0 0 0 -.39.44v-.8a1.26 1.26 0 0 0 -1.26-1.23h-.72v-2.5a1.25 1.25 0 0 0 -1.26-1.25h-1.07a1.22 1.22 0 0 0 -.87.35l-3.69 3.56a1.26 1.26 0 0 0 -.61-.16h-.71v-2.5a1.26 1.26 0 0 0 -1.22-1.3h-1a1.26 1.26 0 0 0 -.88.35l-3.81 3.68a1.24 1.24 0 0 0 -.81-.23h-3.59a1.26 1.26 0 0 0 -1.26 1.26v4.74a2.58 2.58 0 0 1 -.14 1.09l1 .78-1-.66a1.75 1.75 0 0 1 -.06-.53v-5.47a1.25 1.25 0 0 0 -1.24-1.21h-3.61a1.25 1.25 0 0 0 -1.16.79 4.48 4.48 0 0 0 -1.34-3.26 5.19 5.19 0 0 0 -3.75-1.33h-7.5a1.25 1.25 0 0 0 -1.26 1.25v13.63a1.26 1.26 0 0 0 1.26 1.26h6.89a15.26 15.26 0 0 0 2-.2 5.19 5.19 0 0 0 2-.62 4.87 4.87 0 0 0 1.72-1.8c.06-.11.11-.23.16-.34a4.29 4.29 0 0 0 .93 1.83 4.17 4.17 0 0 0 3.26 1.35 5.06 5.06 0 0 0 2.43-.56 1.24 1.24 0 0 0 .88.36h3.38a1.27 1.27 0 0 0 1.26-1.26v-5.91a1.13 1.13 0 0 0 .32 0h.07v2.21a7.54 7.54 0 0 0 .4 2.87 3.35 3.35 0 0 0 1.47 1.73 5.17 5.17 0 0 0 2.6.53 12.17 12.17 0 0 0 2.77-.34 1.26 1.26 0 0 0 1-1.35l-.29-2.58a1.27 1.27 0 0 0 -.57-.93 1.25 1.25 0 0 0 -1.08-.14l-.18.06v-2h.71a1.21 1.21 0 0 0 .65-.19 1.15 1.15 0 0 0 .64.19h.06v2.21a7.75 7.75 0 0 0 .4 2.87 3.37 3.37 0 0 0 1.47 1.67 5.17 5.17 0 0 0 2.6.53 12 12 0 0 0 2.76-.34 1.25 1.25 0 0 0 1-1.35v-.49a6.85 6.85 0 0 0 .54.65 6.56 6.56 0 0 0 4.47 1.52 6.56 6.56 0 0 0 4.86-1.83 6.47 6.47 0 0 0 1-1.35v1.7a1.26 1.26 0 0 0 1.26 1.26h3.58a1.26 1.26 0 0 0 1.26-1.26v-4.7a2.48 2.48 0 0 1 .16-1.12 2.17 2.17 0 0 1 0 .43v5.43a1.27 1.27 0 0 0 1.26 1.26h3.6a1.26 1.26 0 0 0 1.26-1.26v-.41a4.86 4.86 0 0 0 .92.89 7.6 7.6 0 0 0 4.38 1 8.15 8.15 0 0 0 3.46-.56 4.58 4.58 0 0 0 2.1-1.78 4.47 4.47 0 0 0 .67-2.31 4 4 0 0 0 -.67-2.24 3.84 3.84 0 0 0 -.67-.81z" fill="#808080"></path>
        <path d="m161.88 21.86a3.84 3.84 0 0 0 -.67-.78 1.27 1.27 0 0 0 .83-.56 1.29 1.29 0 0 0 .11-1.1 5.6 5.6 0 0 0 -1.15-2 4.39 4.39 0 0 0 -1.84-1.16 9.24 9.24 0 0 0 -2.88-.34 8.54 8.54 0 0 0 -3 .43 4.48 4.48 0 0 0 -2 1.47 4 4 0 0 0 -.46.83 5.4 5.4 0 0 0 -.83-1.23 4.49 4.49 0 0 0 -1.85-1.16 9.17 9.17 0 0 0 -2.87-.34 8.56 8.56 0 0 0 -3 .43 4.45 4.45 0 0 0 -2 1.47 4 4 0 0 0 -.57 1.06 5.45 5.45 0 0 0 -2.15-2.16 7.69 7.69 0 0 0 -3.78-.8 6.43 6.43 0 0 0 -4.77 1.84 6.35 6.35 0 0 0 -1.76 4.63v.3h-4.86v-9a1.26 1.26 0 0 0 -1.26-1.26h-4a1.25 1.25 0 0 0 -1.26 1.26v13.61a1.25 1.25 0 0 0 1.26 1.26h10.22a1.26 1.26 0 0 0 1.26-1.26v-.69a5.37 5.37 0 0 0 1.75 1.48 7.53 7.53 0 0 0 3.51.69 7.92 7.92 0 0 0 3.9-.8 5.87 5.87 0 0 0 1.87-1.73 4.63 4.63 0 0 0 1.37 1.53 7.6 7.6 0 0 0 4.38 1 8.1 8.1 0 0 0 3.38-.59 4.59 4.59 0 0 0 2-1.69 4.37 4.37 0 0 0 1.24 1.28 7.6 7.6 0 0 0 4.38 1 8.18 8.18 0 0 0 3.39-.59 4.51 4.51 0 0 0 2.09-1.78 4.36 4.36 0 0 0 .68-2.31 4.06 4.06 0 0 0 -.66-2.24z" fill="#808080"></path>
        <path d="m155.55 26.6a7.15 7.15 0 0 1 -4.09-.91 4.14 4.14 0 0 1 -1.51-2 4 4 0 0 1 -.37.78 4 4 0 0 1 -1.87 1.58 7.66 7.66 0 0 1 -3.18.55 7.13 7.13 0 0 1 -4.09-.91 4.13 4.13 0 0 1 -1.57-2.17 6 6 0 0 1 -2.2 2.34 7.51 7.51 0 0 1 -3.65.74 7 7 0 0 1 -3.27-.64 5.13 5.13 0 0 1 -2.07-2 6.52 6.52 0 0 1 -.43-.93v2.63a.76.76 0 0 1 -.75.76h-10.22a.75.75 0 0 1 -.75-.76v-13.66a.75.75 0 0 1 .75-.75h4a.76.76 0 0 1 .72.75v9.52h5.48a.77.77 0 0 1 .44.14 7.34 7.34 0 0 1 -.06-.95 5.83 5.83 0 0 1 1.62-4.27 5.92 5.92 0 0 1 4.41-1.66 7.19 7.19 0 0 1 3.54.74 5 5 0 0 1 2.08 2.18 7.93 7.93 0 0 1 .69 3.5v.43a.75.75 0 0 1 -.68.74.8.8 0 0 1 .27.18.6.6 0 0 1 .06-.11.76.76 0 0 1 .53-.3l2-.21h-.12a3.55 3.55 0 0 1 -1.56-1.25 3.61 3.61 0 0 1 .06-4.16 3.92 3.92 0 0 1 1.81-1.3 8 8 0 0 1 2.79-.4 8.79 8.79 0 0 1 2.71.31 4 4 0 0 1 1.64 1 5.16 5.16 0 0 1 1 1.79.77.77 0 0 1 -.06.66.77.77 0 0 1 -.56.35l-1.36.14h.1a3.74 3.74 0 0 1 1.66 1.36 3.44 3.44 0 0 1 .58 1.75.77.77 0 0 1 .26-.07l2-.21h-.13a3.47 3.47 0 0 1 -1.55-1.25 3.36 3.36 0 0 1 -.64-2 3.42 3.42 0 0 1 .69-2.13 4 4 0 0 1 1.82-1.3 8 8 0 0 1 2.79-.4 8.88 8.88 0 0 1 2.71.31 4.06 4.06 0 0 1 1.63 1 5.17 5.17 0 0 1 1.05 1.79.77.77 0 0 1 -.07.66.76.76 0 0 1 -.56.35l-1.35.14h.09a3.63 3.63 0 0 1 1.66 1.36 3.5 3.5 0 0 1 .59 2 3.87 3.87 0 0 1 -.6 2 4 4 0 0 1 -1.87 1.58 7.66 7.66 0 0 1 -3.04.59zm-.69-4.08a1 1 0 0 0 .26.36 1.12 1.12 0 0 0 .62.15 1 1 0 0 0 .64-.16 6.87 6.87 0 0 0 -1.3-.31zm-11 0a.88.88 0 0 0 .26.36 1.36 1.36 0 0 0 1.26 0 6.87 6.87 0 0 0 -1.3-.31zm-11.61-.14.09.13a1 1 0 0 0 .78.37 1.23 1.23 0 0 0 .63-.18 1.62 1.62 0 0 0 .32-.32zm1.67-3.31a1.08 1.08 0 0 0 -.18-.31 1 1 0 0 0 -1.41.16 1.46 1.46 0 0 0 -.09.15zm10.19-.78.7.12a1 1 0 0 0 -.54-.13zm11 0 .7.12a1 1 0 0 0 -.54-.13zm-80.87 8.09a7.12 7.12 0 0 1 -4.08-.91 4.24 4.24 0 0 1 -1.7-2.65.72.72 0 0 1 .13-.6.79.79 0 0 1 .53-.31l2-.2-.12-.05a3.53 3.53 0 0 1 -2.19-3.27 3.42 3.42 0 0 1 .69-2.13 3.9 3.9 0 0 1 1.85-1.26 8.25 8.25 0 0 1 2.78-.39 8.91 8.91 0 0 1 2.72.31 3.93 3.93 0 0 1 1.63 1 5.08 5.08 0 0 1 1 1.79.77.77 0 0 1 -.07.66.74.74 0 0 1 -.56.34l-1.35.14.09.05a3.63 3.63 0 0 1 1.66 1.36 3.5 3.5 0 0 1 .59 2 3.89 3.89 0 0 1 -.6 2.05 4 4 0 0 1 -1.87 1.58 7.66 7.66 0 0 1 -3.13.49zm-.69-4.08a.9.9 0 0 0 .26.36 1.11 1.11 0 0 0 .62.14 1.06 1.06 0 0 0 .64-.15 5.94 5.94 0 0 0 -1.3-.31zm.25-4.24c.15 0 .38.08.7.13a1 1 0 0 0 -.54-.13zm-23.13 8.32a6.09 6.09 0 0 1 -4.14-1.38 5.68 5.68 0 0 1 -2-4.48 6.65 6.65 0 0 1 .21-1.7.77.77 0 0 1 -.56.25h-1.18v2.73.39a3 3 0 0 0 .84-.19.67.67 0 0 1 .24 0 .75.75 0 0 1 .74.67l.27 2.61a.75.75 0 0 1 -.58.81 11.63 11.63 0 0 1 -2.65.33 4.91 4.91 0 0 1 -2.35-.46 3 3 0 0 1 -1.26-1.47 7.43 7.43 0 0 1 -.36-2.68v-2.76h-.57a.74.74 0 0 1 -.64-.36.74.74 0 0 1 -.65.36h-1.22v2.75a3 3 0 0 0 0 .39 3 3 0 0 0 .83-.19.67.67 0 0 1 .24 0 .73.73 0 0 1 .41.12.74.74 0 0 1 .34.55l.26 2.61a.75.75 0 0 1 -.57.81 11.72 11.72 0 0 1 -2.66.33 4.86 4.86 0 0 1 -2.34-.46 2.9 2.9 0 0 1 -1.26-1.47 7.22 7.22 0 0 1 -.36-2.68v-2.76h-.58a.75.75 0 0 1 -.75-.75v-2.77a.78.78 0 0 1 .23-.54l3.89-3.75a.72.72 0 0 1 .51-.24h1a.75.75 0 0 1 .75.75v3h1.25a.75.75 0 0 1 .65.37.61.61 0 0 1 .15-.12l3.88-3.75a.73.73 0 0 1 .52-.25h1a.75.75 0 0 1 .75.75v3h1.22a.76.76 0 0 1 .75.75v2.68a5.59 5.59 0 0 1 1.26-2 6 6 0 0 1 4.44-1.69 5.94 5.94 0 0 1 4.82 2 5.87 5.87 0 0 1 1.33 3.89 5.86 5.86 0 0 1 -1.64 4.26 6.07 6.07 0 0 1 -4.46 1.74zm0-7.72a.85.85 0 0 0 -.67.34 2.48 2.48 0 0 0 -.34 1.47 2.5 2.5 0 0 0 .34 1.53.86.86 0 0 0 1.38 0 2.5 2.5 0 0 0 .33-1.53 2.37 2.37 0 0 0 -.34-1.47.77.77 0 0 0 -.65-.34zm-29.84 7.72a3.67 3.67 0 0 1 -2.83-1.19 4.89 4.89 0 0 1 -1-3.37v-6.29a.76.76 0 0 1 .75-.75h3.61a.76.76 0 0 1 .75.75v5.47c0 .63.12.81.15.84s.1.12.34.12a.54.54 0 0 0 .46-.23 2.46 2.46 0 0 0 .25-1.41v-4.79a.76.76 0 0 1 .75-.75h3.59a.76.76 0 0 1 .75.75v9.87a.75.75 0 0 1 -.75.75h-3.44a.73.73 0 0 1 -.72-.55 5.08 5.08 0 0 1 -.43.27 4.71 4.71 0 0 1 -2.23.51zm43.25-.23a.75.75 0 0 1 -.75-.75v-5.4c0-.63-.13-.81-.15-.83s-.1-.12-.34-.12a.56.56 0 0 0 -.47.23 2.52 2.52 0 0 0 -.24 1.41v4.71a.75.75 0 0 1 -.75.75h-3.59a.75.75 0 0 1 -.79-.75v-9.87a.76.76 0 0 1 .75-.75h3.34a.76.76 0 0 1 .73.57 2.47 2.47 0 0 1 .42-.27 4.48 4.48 0 0 1 2.23-.52 3.73 3.73 0 0 1 2.89 1.18 4.91 4.91 0 0 1 1 3.39v6.27a.75.75 0 0 1 -.75.75zm-60.17 0a.74.74 0 0 1 -.75-.75v-13.62a.74.74 0 0 1 .75-.78h7.47a4.67 4.67 0 0 1 3.39 1.19 3.94 3.94 0 0 1 1.23 2.98 3.88 3.88 0 0 1 -.89 2.55 3 3 0 0 1 -.3.32 3.58 3.58 0 0 1 1 .87 4.28 4.28 0 0 1 .81 2.62 4.62 4.62 0 0 1 -.62 2.26 4.31 4.31 0 0 1 -1.55 1.62 4.67 4.67 0 0 1 -1.8.55 17 17 0 0 1 -1.89.19zm6.09-4.43c.69 0 .9-.14.95-.18a.61.61 0 0 0 .18-.49.45.45 0 0 0 -.17-.4s-.24-.19-1-.19h-1.27v1.26zm-.3-5.35c.63 0 .79-.14.79-.14s.13-.11.13-.43a.45.45 0 0 0 -.13-.38s-.15-.13-.76-.13h-1v1.08z" fill="#ce0e2d"></path>
        <path d="m42.24 11.78v3.75h2v2.77h-2v3.5a1.89 1.89 0 0 0 .11.83.65.65 0 0 0 .65.37 3.83 3.83 0 0 0 1.11-.24l.26 2.61a11.36 11.36 0 0 1 -2.48.31 4 4 0 0 1 -2-.37 2.12 2.12 0 0 1 -.93-1.1 6.56 6.56 0 0 1 -.31-2.39v-3.52h-1.33v-2.77l3.88-3.75h1m-8.18 0v3.75h2v2.77h-2v3.5a1.85 1.85 0 0 0 .12.83.64.64 0 0 0 .61.32 3.7 3.7 0 0 0 1.11-.24l.27 2.61a11.44 11.44 0 0 1 -2.49.31 4 4 0 0 1 -2-.37 2.09 2.09 0 0 1 -.94-1.1 6.83 6.83 0 0 1 -.3-2.39v-3.47h-1.26v-2.77l3.86-3.75h1m-22.68 0a3.94 3.94 0 0 1 2.87 1 3.27 3.27 0 0 1 1 2.42 3.11 3.11 0 0 1 -.72 2.07 3 3 0 0 1 -1.39.91 3.58 3.58 0 0 1 2 1.22 3.43 3.43 0 0 1 .66 2.16 3.88 3.88 0 0 1 -.47 1.9 3.51 3.51 0 0 1 -1.28 1.34 4 4 0 0 1 -1.51.45 17.27 17.27 0 0 1 -1.79.18h-6.78v-13.65h7.47m-3.44 5.34h1.73a1.9 1.9 0 0 0 1.3-.34 1.27 1.27 0 0 0 .37-1 1.22 1.22 0 0 0 -.37-.93 1.9 1.9 0 0 0 -1.27-.33h-1.76v2.58m0 5.35h2a2.12 2.12 0 0 0 1.45-.38 1.32 1.32 0 0 0 .43-1 1.24 1.24 0 0 0 -.42-1 2.28 2.28 0 0 0 -1.4-.36h-2v2.76m112.27-10.47v10.27h6.23v3.35h-10.22v-13.62h4m-46.15 3.31a8.39 8.39 0 0 1 2.48.27 3.22 3.22 0 0 1 1.33.84 4.28 4.28 0 0 1 .88 1.58l-3.4.35a1.25 1.25 0 0 0 -.44-.7 1.78 1.78 0 0 0 -1-.29 1.42 1.42 0 0 0 -.89.22.72.72 0 0 0 -.27.56.57.57 0 0 0 .35.54 5.1 5.1 0 0 0 1.53.34 10.12 10.12 0 0 1 2.66.59 3 3 0 0 1 1.34 1.09 2.76 2.76 0 0 1 .46 1.55 3.13 3.13 0 0 1 -.49 1.66 3.33 3.33 0 0 1 -1.54 1.29 7 7 0 0 1 -2.87.48 6.44 6.44 0 0 1 -3.65-.78 3.46 3.46 0 0 1 -1.4-2.19l3.56-.35a1.84 1.84 0 0 0 .62 1 2.1 2.1 0 0 0 2.18 0 .74.74 0 0 0 .3-.6.69.69 0 0 0 -.4-.64 8 8 0 0 0 -1.54-.39 15.26 15.26 0 0 1 -2.6-.63 2.83 2.83 0 0 1 -1.22-1 2.6 2.6 0 0 1 -.5-1.59 2.68 2.68 0 0 1 .54-1.68 3.13 3.13 0 0 1 1.48-1.05 7.51 7.51 0 0 1 2.52-.35m-9.62 0a3 3 0 0 1 2.33.93 4.24 4.24 0 0 1 .85 2.89v6.15h-3.63v-5.4a2.09 2.09 0 0 0 -.32-1.31 1.14 1.14 0 0 0 -.92-.39 1.29 1.29 0 0 0 -1.06.52 3.18 3.18 0 0 0 -.4 1.87v4.71h-3.59v-9.87h3.34v1.61a4.92 4.92 0 0 1 1.52-1.41 3.82 3.82 0 0 1 1.86-.42m-13.85 0a5.21 5.21 0 0 1 4.25 1.69 5.14 5.14 0 0 1 1.15 3.41 5.07 5.07 0 0 1 -1.43 3.73 5.29 5.29 0 0 1 -4 1.46 5.41 5.41 0 0 1 -3.63-1.18 5 5 0 0 1 -1.71-3.92 5.11 5.11 0 0 1 1.45-3.73 5.24 5.24 0 0 1 3.9-1.46m0 7.76a1.56 1.56 0 0 0 1.36-.62 3.23 3.23 0 0 0 .5-2 3 3 0 0 0 -.5-1.91 1.54 1.54 0 0 0 -1.25-.63 1.57 1.57 0 0 0 -1.29.64 3.06 3.06 0 0 0 -.51 1.94 3.07 3.07 0 0 0 .51 2 1.55 1.55 0 0 0 1.27.63m104.75-7.54a8.39 8.39 0 0 1 2.48.27 3.22 3.22 0 0 1 1.33.84 4.47 4.47 0 0 1 .88 1.53l-3.4.35a1.22 1.22 0 0 0 -.44-.69 1.71 1.71 0 0 0 -1-.3 1.42 1.42 0 0 0 -.89.23.69.69 0 0 0 -.27.55.59.59 0 0 0 .35.55 5.56 5.56 0 0 0 1.53.33 9.67 9.67 0 0 1 2.66.6 3 3 0 0 1 1.29 1.03 2.76 2.76 0 0 1 .46 1.55 3.11 3.11 0 0 1 -.49 1.66 3.38 3.38 0 0 1 -1.54 1.29 7 7 0 0 1 -2.87.48 6.54 6.54 0 0 1 -3.65-.77 3.51 3.51 0 0 1 -1.4-2.2l3.56-.35a1.87 1.87 0 0 0 .62 1 1.78 1.78 0 0 0 1.06.29 1.67 1.67 0 0 0 1.11-.33.72.72 0 0 0 .31-.6.68.68 0 0 0 -.4-.63 6.66 6.66 0 0 0 -1.54-.39 15 15 0 0 1 -2.6-.64 2.69 2.69 0 0 1 -1.22-1 2.6 2.6 0 0 1 -.5-1.59 2.68 2.68 0 0 1 .54-1.68 3.13 3.13 0 0 1 1.48-1 7.47 7.47 0 0 1 2.52-.35m-11 0a8.27 8.27 0 0 1 2.47.27 3.1 3.1 0 0 1 1.33.84 4.48 4.48 0 0 1 .89 1.53l-3.4.35a1.28 1.28 0 0 0 -.44-.69 1.71 1.71 0 0 0 -1-.3 1.42 1.42 0 0 0 -.89.23.7.7 0 0 0 -.28.55.6.6 0 0 0 .36.55 5.56 5.56 0 0 0 1.53.33 9.67 9.67 0 0 1 2.66.6 2.88 2.88 0 0 1 1.32 1 2.77 2.77 0 0 1 .47 1.55 3.2 3.2 0 0 1 -.49 1.66 3.38 3.38 0 0 1 -1.54 1.29 7.08 7.08 0 0 1 -2.87.48 6.54 6.54 0 0 1 -3.65-.77 3.47 3.47 0 0 1 -1.4-2.2l3.56-.35a1.87 1.87 0 0 0 .62 1 1.74 1.74 0 0 0 1.05.29 1.7 1.7 0 0 0 1.12-.33.72.72 0 0 0 .31-.6.68.68 0 0 0 -.4-.63 6.65 6.65 0 0 0 -1.55-.39 14.84 14.84 0 0 1 -2.59-.64 2.72 2.72 0 0 1 -1.23-1 2.88 2.88 0 0 1 0-3.27 3.18 3.18 0 0 1 1.48-1 7.54 7.54 0 0 1 2.53-.35m-11.51 0a6.74 6.74 0 0 1 3.18.64 4.3 4.3 0 0 1 1.77 1.75 7.19 7.19 0 0 1 .61 3.17v.43h-7.19a2.56 2.56 0 0 0 .46 1.36 1.69 1.69 0 0 0 1.36.64 2 2 0 0 0 1-.28 2.33 2.33 0 0 0 .63-.63l3.53.35a5.22 5.22 0 0 1 -1.95 2.13 6.82 6.82 0 0 1 -3.29.65 6.44 6.44 0 0 1 -2.93-.56 4.29 4.29 0 0 1 -1.76-1.75 5.5 5.5 0 0 1 -.7-2.83 5.17 5.17 0 0 1 1.37-3.68 5.21 5.21 0 0 1 3.88-1.43m-1.63 4.29h3.54a2.61 2.61 0 0 0 -.56-1.57 1.57 1.57 0 0 0 -1.2-.48 1.58 1.58 0 0 0 -1.36.72 2.67 2.67 0 0 0 -.42 1.33m-103.69-4.33v9.87h-3.35v-1.6a5 5 0 0 1 -1.51 1.41 3.83 3.83 0 0 1 -1.87.42 3 3 0 0 1 -2.33-.94 4.19 4.19 0 0 1 -.84-2.87v-6.29h3.61v5.47a2.13 2.13 0 0 0 .32 1.32 1.14 1.14 0 0 0 .92.39 1.26 1.26 0 0 0 1-.52 3.09 3.09 0 0 0 .49-1.91v-4.75h3.59m14.68-5.25h-1a1.49 1.49 0 0 0 -1 .42l-3.67 3.44a1.56 1.56 0 0 0 -.6-.14h-.47v-2.22a1.5 1.5 0 0 0 -1.5-1.5h-1.03a1.52 1.52 0 0 0 -1 .42l-3.66 3.54a1.49 1.49 0 0 0 -.76-.21h-3.58a1.51 1.51 0 0 0 -1.35.85 1.51 1.51 0 0 0 -1.38-.88h-3.61a1.5 1.5 0 0 0 -1 .36 4.77 4.77 0 0 0 -1.39-2.71 5.42 5.42 0 0 0 -3.92-1.4h-7.44a1.5 1.5 0 0 0 -1.5 1.5v13.65a1.5 1.5 0 0 0 1.5 1.5h6.89a15 15 0 0 0 2-.2 5.36 5.36 0 0 0 2.1-.65 5 5 0 0 0 1.69-1.7 4.34 4.34 0 0 0 .81 1.35 4.49 4.49 0 0 0 3.44 1.43 5.34 5.34 0 0 0 2.46-.54 1.5 1.5 0 0 0 .92.31h3.35a1.5 1.5 0 0 0 1.5-1.5v-2a5.43 5.43 0 0 0 .32 1.32 3.66 3.66 0 0 0 1.61 1.85 5.47 5.47 0 0 0 2.71.56 12.56 12.56 0 0 0 2.82-.35 1.5 1.5 0 0 0 1.16-1.61v-.27a3.61 3.61 0 0 0 1.51 1.67 5.54 5.54 0 0 0 2.72.56 12.56 12.56 0 0 0 2.82-.35 1.49 1.49 0 0 0 1.16-1.41l.2.18a6.81 6.81 0 0 0 4.63 1.58 6.73 6.73 0 0 0 5-1.91 6.34 6.34 0 0 0 .59-.69v.87a1.5 1.5 0 0 0 1.5 1.5h3.59a1.51 1.51 0 0 0 1.35-.85 1.51 1.51 0 0 0 1.35.85h3.61a1.5 1.5 0 0 0 1.48-1.28 4.06 4.06 0 0 0 .55.46 7.83 7.83 0 0 0 4.52 1.05 8.3 8.3 0 0 0 3.49-.62 4.75 4.75 0 0 0 2.2-1.87 4.68 4.68 0 0 0 .71-2.44 4.23 4.23 0 0 0 -.71-2.37 3.8 3.8 0 0 0 -.42-.55 1.37 1.37 0 0 0 .58-.54 1.46 1.46 0 0 0 .14-1.3 5.82 5.82 0 0 0 -1.26-2.05 4.68 4.68 0 0 0 -1.94-1.23 9.45 9.45 0 0 0 -3-.35 8.73 8.73 0 0 0 -3 .44 4.71 4.71 0 0 0 -2.16 1.55 4.53 4.53 0 0 0 -.3.46 4.19 4.19 0 0 0 -.67-1 4.47 4.47 0 0 0 -3.45-1.43 5.37 5.37 0 0 0 -2.46.54 1.47 1.47 0 0 0 -.92-.32h-3.31a1.5 1.5 0 0 0 -1.5 1.5v.83a3.25 3.25 0 0 0 -.23-.29 6.66 6.66 0 0 0 -5.4-2.26 6.72 6.72 0 0 0 -4.95 1.89v-.17a1.5 1.5 0 0 0 -1.5-1.5h-.47v-2.27a1.5 1.5 0 0 0 -1.5-1.5zm-26.37 7.65a4.78 4.78 0 0 0 .26-.42v.68zm34.75 3.64-.06-.07s-.18-.23-.18-1 .16-1 .18-1 .07-.08.12-.08a.36.36 0 0 1 .07.07 1.89 1.89 0 0 1 .17 1 2 2 0 0 1 -.17 1.06.31.31 0 0 1 -.06.06h-.08zm-15.09-1.77h.44a1.58 1.58 0 0 0 .65-.14 1.43 1.43 0 0 0 .46.13v2.07a1.41 1.41 0 0 0 -.43-.41 1.45 1.45 0 0 0 -.81-.24 1.32 1.32 0 0 0 -.34 0v-1.41zm8.18 0h.1v.7a6 6 0 0 0 0 .73h-.11v-1.43zm76.53-9.3h-4a1.5 1.5 0 0 0 -1.5 1.5v13.62a1.5 1.5 0 0 0 1.5 1.5h10.23a1.5 1.5 0 0 0 1.5-1.5 5.64 5.64 0 0 0 1.4 1.05 7.87 7.87 0 0 0 3.62.72 8.15 8.15 0 0 0 4-.84 5.89 5.89 0 0 0 1.74-1.55 4.9 4.9 0 0 0 1.24 1.3 7.81 7.81 0 0 0 4.52 1.05 8.47 8.47 0 0 0 3.49-.61 5 5 0 0 0 1.99-1.49 4.9 4.9 0 0 0 1 1.05 7.81 7.81 0 0 0 4.52 1.05 8.47 8.47 0 0 0 3.49-.61 4.83 4.83 0 0 0 2.2-1.88 4.63 4.63 0 0 0 .71-2.44 4.28 4.28 0 0 0 -.71-2.37 3.71 3.71 0 0 0 -.42-.54 1.58 1.58 0 0 0 .58-.54 1.48 1.48 0 0 0 .14-1.31 5.82 5.82 0 0 0 -1.2-2.05 4.74 4.74 0 0 0 -1.94-1.23 9.76 9.76 0 0 0 -3-.35 9 9 0 0 0 -3 .44 4.78 4.78 0 0 0 -2.13 1.53c-.1.14-.2.29-.29.44a5.07 5.07 0 0 0 -.63-.85 4.71 4.71 0 0 0 -1.95-1.23 9.69 9.69 0 0 0 -3-.35 9 9 0 0 0 -3 .44 4.75 4.75 0 0 0 -2.15 1.55 3.88 3.88 0 0 0 -.41.67 5.67 5.67 0 0 0 -2-1.83 7.92 7.92 0 0 0 -3.9-.83 6.37 6.37 0 0 0 -6.78 6.68v.06h-4.36v-8.75a1.5 1.5 0 0 0 -1.5-1.5z" fill="#fff"></path>
        <path d="m103 5.29a15.12 15.12 0 0 0 -17.3 6.25 15.08 15.08 0 0 0 -.9 1.63l-.09.19c-.1.22-.19.44-.28.66l-.09.22c-.11.29-.22.57-.31.87a15.09 15.09 0 0 0 -.7 5.23 13.27 13.27 0 0 0 .19 1.78 15.15 15.15 0 0 0 1.48 4.51c0 .09.1.18.15.27a14.7 14.7 0 0 0 1.15 1.79 14.9 14.9 0 0 0 1 1.23c.24.26.49.51.75.76a15.66 15.66 0 0 0 1.72 1.4 14.84 14.84 0 0 0 2.65 1.47 13.37 13.37 0 0 0 1.42.53l.16.05c.43.13.86.24 1.29.34s.59.11.89.15.89.12 1.34.15h.79.74a16 16 0 0 0 2.19-.25c.48-.1 1-.21 1.41-.35s.93-.29 1.38-.47a16 16 0 0 0 1.95-1c.21-.12.42-.24.62-.38.4-.26.8-.54 1.18-.84l.56-.47a13.26 13.26 0 0 0 1.54-1.55 15.58 15.58 0 0 0 1.32-1.79c.26-.43.51-.86.73-1.32a7.27 7.27 0 0 0 .32-.69 14 14 0 0 0 .55-1.45c.09-.29.17-.59.25-.88 0-.08 0-.16 0-.24.06-.23.11-.47.15-.7 0-.07 0-.13 0-.2a16.77 16.77 0 0 0 .2-1.86 15.12 15.12 0 0 0 -10.4-15.04z" fill="#231f20" opacity=".38"></path>
        <path d="m112.27 18.59a15.09 15.09 0 0 0 -27.78-8.83c-.12.18-.23.38-.34.58s-.1.15-.14.23a12.29 12.29 0 0 0 -.57 1.15c0 .11-.1.22-.14.33-.18.42-.34.84-.48 1.28a15.06 15.06 0 0 0 1.11 11.77c.18.34.37.68.58 1a15.36 15.36 0 0 0 1.58 2c.07.08.14.17.22.25a15.18 15.18 0 0 0 2.23 1.91 15.12 15.12 0 0 0 2.62 1.45 14.69 14.69 0 0 0 1.41.53c.48.15 1 .28 1.45.38a15.59 15.59 0 0 0 3 .33 14.43 14.43 0 0 0 2.94-.27l.33-.08a15 15 0 0 0 3.5-1.22 12.68 12.68 0 0 0 1.53-.85 14.8 14.8 0 0 0 2.68-2.05 15.13 15.13 0 0 0 3.63-6 12.8 12.8 0 0 0 .34-1.32 3.59 3.59 0 0 0 .08-.35c.08-.42.15-.84.2-1.26 0-.09 0-.19 0-.28s0-.45 0-.67z" fill="#fff" stroke="#fff"></path>
    </g>
    <circle cx="97.19" cy="17.9" fill="#002f87" r="15.1" transform="matrix(.90785067 -.41929364 .41929364 .90785067 -.96 40.11)"></circle>
    <path d="m84.47 9.76a15.11 15.11 0 1 0 27.81 8.84z" fill="#fff" transform="translate(-2.41 -2.3)"></path>
    <g clip-path="url(#a)" fill="#ce0e2d">
        <path d="m79.28 9.12h2.97v22.19h-2.97z" transform="matrix(.95297934 .30303527 -.30303527 .95297934 7.52 -25.82)"></path>
        <path d="m84.98 10.94h2.97v22.19h-2.97z" transform="matrix(.95297934 .30303527 -.30303527 .95297934 8.33 -27.46)"></path>
        <path d="m90.68 12.75h2.97v22.19h-2.97z" transform="matrix(.95297934 .30303527 -.30303527 .95297934 9.15 -29.11)"></path>
        <path d="m96.38 14.56h2.97v22.19h-2.97z" transform="matrix(.95297934 .30303527 -.30303527 .95297934 9.97 -30.75)"></path>
        <path d="m102.08 16.37h2.97v22.19h-2.97z" transform="matrix(.95297934 .30303527 -.30303527 .95297934 10.79 -32.39)"></path>
        <path d="m107.78 18.19h2.97v22.19h-2.97z" transform="matrix(.95297934 .30303527 -.30303527 .95297934 11.6 -34.03)"></path>
    </g>
    <path d="m90 7.32-.92-1.32 1.61.41 1-1.39v1.72l1.54.59-1.54.58v1.71l-1-1.32-1.56.49z" fill="#fff" transform="translate(-2.41 -2.3)"></path>
    <path d="m106.63 12.61-.93-1.36 1.61.4 1-1.38v1.72l1.54.58-1.54.59v1.7l-1-1.31-1.56.49z" fill="#fff" transform="translate(-2.41 -2.3)"></path>
    <path d="m95.34 5.7-.71-1 1.21.3.78-1.05v1.3l1.16.44-1.16.44v1.29l-.79-1-1.17.37z" fill="#fff" transform="translate(-2.41 -2.3)"></path>
    <path d="m103.65 8.34-.71-1 1.22.3.77-1v1.3l1.16.44-1.09.38v1.28l-.78-1-1.22.38z" fill="#fff" transform="translate(-2.41 -2.3)"></path>
    <path d="m100.22 5.39-.49-.72.85.21.55-.73v.91l.81.31-.81.31v.9l-.55-.7-.82.26z" fill="#fff" transform="translate(-2.41 -2.3)"></path>
    <path d="m102.47 9.93-1.34-3.17-3.89-.93-10.35 8.73-.86 2.71 1.17 2.72 2.92.7-.83 2.62 1.17 2.73 8.16 1.95.71-2.27-1.05-2.5.17-.54 2.54.61.76-2.41-1.63-3.48z" fill="#231f20" opacity=".52"></path>
    <path d="m100.35 8.63-1.17-3.17-3.38-.93-9.02 8.73-.75 2.7 1.02 2.73 2.54.7-.72 2.62 1.02 2.73 7.11 1.95.62-2.27-.92-2.5.15-.54 2.21.61.66-2.41-1.42-3.48z" fill="#ce0e2d" stroke="#fff" stroke-linecap="round" stroke-linejoin="round" stroke-width="2"></path>
    <path d="m99.06 21.99.66-2.41-1.42-3.48 2.05-7.47-1.17-3.17-3.38-.93-9.02 8.73-.75 2.7 1.02 2.73 2.54.7-.72 2.62 1.02 2.73 7.11 1.95.62-2.27-.92-2.5.15-.54z" fill="#fff"></path>
    <path d="m102.76 10.93-2.05 7.47 1.42 3.48-.66 2.4-2.21-.6-.15.54.92 2.49-.63 2.29-7.1-2-1-2.72.7-2.6-2.54-.68-1-2.73.75-2.71 9-8.72 3.38.93zm-13.76 6.97 5.75 1.58-.29 1.05c-.35 1.25-.77 2-1.45 1.94l-.75-.06-.38 1.59 6.12 1.63.43-1.55-.76-.35c-.63-.32-.62-1.16-.28-2.41l.29-1.05 2.21.6.55-2-2.2-.6 2.76-10.15-2.65-.73-8.75 8.48zm11.39-9.44-2.09 7.76a.82.82 0 0 0 -1-.26 5.06 5.06 0 0 0 .43 1.55 15.34 15.34 0 0 0 -2.06 4.2 14.76 14.76 0 0 0 .4-4.66 4.26 4.26 0 0 0 1.13-1.11.76.76 0 0 0 -.92-.26l1.13-4.14c.11-.41.05-.68-.15-.74s-.48.13-.81.45l-3.61 3.49a.94.94 0 0 0 -1-.29l6.75-6.45zm-8.63 8 5.19-5-1.65 6zm5.56-.54a3.41 3.41 0 0 1 1.32-1.68 9.2 9.2 0 0 1 .15-3.89 9 9 0 0 1 -1.79 3.45 3.34 3.34 0 0 1 .25 2.11z" fill="#ce0e2d" transform="translate(-2.41 -2.3)"></path>
</svg>