<svg id="a1e9de44-c3cc-4c50-98f9-3c81053f29e8" data-name="Layer 1" xmlns="http://www.w3.org/2000/svg" viewBox="0 0 456.02 150"><defs><style>.b3d177ef-2d3f-427a-8bd2-f799ccac37bf{fill:#2ecc71;}.b2238daa-1872-467d-83a6-1b0470a86737{fill:#fff;}.a0b674b1-6e3d-4ee7-9e93-d033cc3f2df6{fill:#bdbec7;}.b66a0936-4b60-48ad-b983-adabb58707c3{fill:#3498db;}.bcf5f108-bb9b-4c4b-a322-0744ae7d8ebc{fill:#2a2d44;}.f8cac925-36ea-4ab2-856a-2af7a7f4377a{fill:#d1d2d8;}.a1d21b54-8a4c-4b83-b668-70c9b85ba11b{fill:#f8333c;}</style></defs><path class="b3d177ef-2d3f-427a-8bd2-f799ccac37bf" d="M196,90.4h23.2v6.5h-7.8v20.7h-7.5V96.9H196Zm65.8,0,9.5,27.3h-7.6l-1.7-5.3h-7.3l-1.6,5.3H237l-4.8-8.4h-2.8v8.4h-7.5V90.4h12.5a9.09,9.09,0,0,1,3.7.8,10.59,10.59,0,0,1,2.9,2.2,11.73,11.73,0,0,1,1.9,3,8.29,8.29,0,0,1,.7,3.4,9.2,9.2,0,0,1-1,4.4,9.57,9.57,0,0,1-2.9,3.4l5.7,10,9.5-27.2ZM236,99.8a3.07,3.07,0,0,0-.7-2.2,1.89,1.89,0,0,0-1.4-.7h-4.5v5.8h4.7a1.7,1.7,0,0,0,1.3-.8A2.93,2.93,0,0,0,236,99.8Zm24.8,7.5-2.4-8.5-2.5,8.5Zm36-8.6a15.53,15.53,0,0,1,.9,5.3,14,14,0,0,1-1,5.6,12.81,12.81,0,0,1-2.8,4.3,13.89,13.89,0,0,1-4.3,2.8,14.33,14.33,0,0,1-5.6,1H273.5V90.4H284a16,16,0,0,1,6,1.1,12.08,12.08,0,0,1,4.3,2.9A10.85,10.85,0,0,1,296.8,98.7Zm-6.7,5.3a9.25,9.25,0,0,0-.4-2.9,6.6,6.6,0,0,0-1.2-2.2,5.22,5.22,0,0,0-1.9-1.4A7.08,7.08,0,0,0,284,97h-3v14.2h3a7.08,7.08,0,0,0,2.6-.5,5.75,5.75,0,0,0,1.9-1.5,7.14,7.14,0,0,0,1.2-2.3A9.25,9.25,0,0,0,290.1,104ZM301,117.7h7.5V90.4H301Zm29-13.5L319,90.4h-5.8v27.3h7.5V104.3l10.8,13.4h6V90.4H330Zm25.6,4.3h4.7a7.74,7.74,0,0,1-5.8,2.7,7.51,7.51,0,0,1-2.6-.5,4.81,4.81,0,0,1-2-1.5,6.11,6.11,0,0,1-1.3-2.2,8.66,8.66,0,0,1,0-5.8,6.54,6.54,0,0,1,1.3-2.3,7,7,0,0,1,1.9-1.5,5.1,5.1,0,0,1,2.5-.5,6.11,6.11,0,0,1,3.4,1,6,6,0,0,1,2.4,2.6l5.6-4.3a11,11,0,0,0-1.9-2.5,12.42,12.42,0,0,0-2.6-1.9,16.59,16.59,0,0,0-3.1-1.2,13.42,13.42,0,0,0-3.5-.4,14.21,14.21,0,0,0-5.5,1.1,13.49,13.49,0,0,0-4.4,2.9,14.46,14.46,0,0,0-3,4.3,13.71,13.71,0,0,0-1.1,5.4,16.43,16.43,0,0,0,1.1,6,13.49,13.49,0,0,0,2.9,4.4,11.66,11.66,0,0,0,4.2,2.7,14.4,14.4,0,0,0,5.1.9,9.8,9.8,0,0,0,6.7-2.5v2.3h6.2V103.2H355.6v5.3Zm35.2-12.1a8.29,8.29,0,0,1,.7,3.4,8.42,8.42,0,0,1-.7,3.5,9.1,9.1,0,0,1-4.6,5.1,8.74,8.74,0,0,1-3.7.8H378v8.4h-7.5V90.4h11.8a9.09,9.09,0,0,1,3.7.8,10.59,10.59,0,0,1,2.9,2.2A10.23,10.23,0,0,1,390.8,96.4Zm-6.9,3.4a2.88,2.88,0,0,0-.7-2.3,2.16,2.16,0,0,0-1.4-.6H378v5.8h4a1.76,1.76,0,0,0,1.3-.6A3.34,3.34,0,0,0,383.9,99.8Zm10.6,17.9H402V90.4h-7.5Zm28.9-13.5L412.5,90.3h-5.8v27.3h7.5V104.2L425,117.6h6V90.4h-7.5v13.8Zm32,1.9a5.55,5.55,0,0,0-1.7-2.3,9.53,9.53,0,0,0-2.6-1.6,22,22,0,0,0-3.4-1.3c-.8-.3-1.5-.5-2.1-.7a13.78,13.78,0,0,1-1.6-.6,4.37,4.37,0,0,1-1-.6,1.22,1.22,0,0,1-.3-.9,1,1,0,0,1,.6-1,3.51,3.51,0,0,1,1.6-.3,7.27,7.27,0,0,1,2.5.4c.9.3,1.6.6,2.3.9l2.4,1.2,3.2-6.2c-.6-.3-1.3-.6-2.1-1s-1.6-.7-2.5-1a26.81,26.81,0,0,0-2.7-.7,13.58,13.58,0,0,0-2.9-.3,12.72,12.72,0,0,0-3.9.6,10.86,10.86,0,0,0-3.2,1.7,8,8,0,0,0-2.2,2.9,8.68,8.68,0,0,0-.8,4,7.66,7.66,0,0,0,.4,2.7,7.19,7.19,0,0,0,1.2,2.1,9.61,9.61,0,0,0,2.2,1.6,18.08,18.08,0,0,0,3.1,1.3c.8.3,1.6.5,2.3.7s1.4.4,1.9.6a3.16,3.16,0,0,1,1.3.7,1.39,1.39,0,0,1,.5,1c0,.4-.2.6-.5.9a3.42,3.42,0,0,1-1.7.3,11.85,11.85,0,0,1-3.2-.5c-1-.3-2-.7-2.8-1a15.09,15.09,0,0,1-2.8-1.5l-3.2,6.6a16.94,16.94,0,0,0,2.7,1.3c1,.4,2,.7,3,1s2.1.5,3.1.7a16.15,16.15,0,0,0,3.1.2,15,15,0,0,0,3.7-.4,11,11,0,0,0,3.3-1.4,7.81,7.81,0,0,0,2.4-2.7,8.57,8.57,0,0,0,.9-4.1A6.38,6.38,0,0,0,455.4,106.1Z" transform="translate(0.02)"/><path d="M235.7,39.9a23,23,0,0,0-8.2-5.6,29,29,0,0,0-11.4-2.1H196V84.4h20.1a28.47,28.47,0,0,0,10.8-1.9,23.16,23.16,0,0,0,8.3-5.3,22.76,22.76,0,0,0,5.3-8.2,31.26,31.26,0,0,0,.2-20.9A23.83,23.83,0,0,0,235.7,39.9ZM227,63.7a11.83,11.83,0,0,1-2.3,4.3,10.62,10.62,0,0,1-3.7,2.9,11.46,11.46,0,0,1-5,1h-5.7V44.8H216a11,11,0,0,1,4.9,1,10.38,10.38,0,0,1,3.7,2.8,11.83,11.83,0,0,1,2.3,4.3,19.22,19.22,0,0,1,.8,5.5A13.12,13.12,0,0,1,227,63.7Zm21.6-31.4h14.3V84.5H248.6V32.3Zm62.8,26.6a18.67,18.67,0,0,0,2-8.5,17.24,17.24,0,0,0-1.3-6.6,20.22,20.22,0,0,0-3.6-5.8,17.23,17.23,0,0,0-5.5-4.1,15.42,15.42,0,0,0-7.1-1.6h-24V84.5h14.3v-16h5.4l9.2,16H317L306,65.3A17.63,17.63,0,0,0,311.4,58.9Zm-13.7-4.4a3.25,3.25,0,0,1-2.5,1.5h-9V44.8h8.7a3.6,3.6,0,0,1,2.6,1.4,5.88,5.88,0,0,1,1.3,4.2A5.88,5.88,0,0,1,297.7,54.5ZM335.8,72h22.9V84.5H321.5V32.3H358V44.8H335.8v7.3h19V63.7h-19Zm62.8-6.2,11.7,7a14.85,14.85,0,0,1-3.6,5.1,22.86,22.86,0,0,1-5.4,3.8,33.48,33.48,0,0,1-6.5,2.4,32.31,32.31,0,0,1-6.8.8,24.58,24.58,0,0,1-10.6-2.3,26.67,26.67,0,0,1-8.3-6.1,27.72,27.72,0,0,1-5.4-8.7,25.84,25.84,0,0,1-.1-19.2,25,25,0,0,1,5.3-8.3,29,29,0,0,1,8.4-6A26.68,26.68,0,0,1,388.5,32a26.17,26.17,0,0,1,13.1,3.1,20.11,20.11,0,0,1,8.3,8.3L399,51.2a10.06,10.06,0,0,0-1.9-3.2,10.52,10.52,0,0,0-2.7-2,11.76,11.76,0,0,0-3-1,16.9,16.9,0,0,0-3-.3,10.92,10.92,0,0,0-5.3,1.2,11.44,11.44,0,0,0-3.7,3.2,11.94,11.94,0,0,0-2.1,4.4,16.59,16.59,0,0,0-.7,4.9,17.68,17.68,0,0,0,.8,5.2,11.79,11.79,0,0,0,2.4,4.4,10.15,10.15,0,0,0,3.8,3,10.49,10.49,0,0,0,5,1.1,15.26,15.26,0,0,0,3-.3,12.13,12.13,0,0,0,3-1.1,10,10,0,0,0,2.6-2A15.77,15.77,0,0,0,398.6,65.8ZM456,32.3V44.8H441V84.5H426.7V44.8H411.6V32.3Z" transform="translate(0.02)"/><path class="b3d177ef-2d3f-427a-8bd2-f799ccac37bf" d="M175.7,136.8c2,.8,4.8-1.4,7.5-5.8,2.8-4.6,2.9-6.9,2.6-7.9a2.7,2.7,0,0,0-1.1-1.5h0a2.7,2.7,0,0,0-3.2,0l-.7.6-.9-.4c-7.7-3.3-34-19.7-45.2-26.7l-1.6-1c-3.8-2.3-10.4-7.1-21-14.8a12.13,12.13,0,0,0-1.4-1l-2.4-1.8,2.8-1.4c.8-.4,1.7-.9,2.5-1.3,5.4-2.8,9.4-5,11.8-6.4,8.9-5.3,46.9-28.5,59.1-36.2,2.6-1.6,1.1-7.1-1.6-11.4s-7-8.1-9.6-6.5c-11.9,7.4-49.5,31.2-58.6,37.1-3.6,2.4-11.9,8.5-20.2,14.6l-.9.7-.9-.7c-8.1-6-16.5-12.2-20-14.5-9-5.9-46.6-29.7-58.6-37.1-2.6-1.6-6.9,2.1-9.6,6.5S.3,29.7,2.9,31.3C15.2,39,53.2,62.2,62.1,67.5c2.4,1.4,6.4,3.6,11.8,6.4.8.4,1.7.9,2.6,1.3l2.7,1.4-2.4,1.7c-.5.3-.9.7-1.4,1-10.6,7.8-17.2,12.5-21,14.8l-1.6,1c-11.2,7-37.5,23.4-45.2,26.7l-.9.4-.7-.5a2.35,2.35,0,0,0-1.6-.5,3.69,3.69,0,0,0-1.7.5,2.4,2.4,0,0,0-1.1,1.5c-.2,1-.2,3.4,2.6,7.9s5.5,6.6,7.5,5.8a3.11,3.11,0,0,0,1.7-3.1l-.2-.9.7-.6c6.3-5.3,31.9-21.3,42.8-28.1l.4-.3C65,99,79.6,91.3,92.9,84.5l.7-.4.7.4c13.3,6.8,27.9,14.4,35.8,19.4l.4.3c10.9,6.8,36.5,22.7,42.8,28.1l.7.6-.2.9A3.51,3.51,0,0,0,175.7,136.8Z" transform="translate(0.02)"/><path class="b2238daa-1872-467d-83a6-1b0470a86737" d="M40.2,103l2,6.8L9.8,129.7l-2.3-3.5L6,121.7Zm107.1,0-2,6.8,32.4,19.9,2.3-3.5,1.6-4.5Z" transform="translate(0.02)"/><path class="a0b674b1-6e3d-4ee7-9e93-d033cc3f2df6" d="M42.2,109.8l.9,3.1L13.3,132.8l-2.8-2.3Zm103.1,0-.9,3.1,29.8,19.9,2.8-2.3Z" transform="translate(0.02)"/><path class="b66a0936-4b60-48ad-b983-adabb58707c3" d="M6.3,30.8,60.8,62.7,59.5,65,5.5,31.9Zm174.9,0L126.7,62.7,128,65l54-33.1Z" transform="translate(0.02)"/><path class="bcf5f108-bb9b-4c4b-a322-0744ae7d8ebc" d="M185.6,120.3a4.35,4.35,0,0,0-5.1.1c-8-3.4-36.8-21.5-46.6-27.6-4.3-2.7-12.1-8.3-20.9-14.7a19.23,19.23,0,0,1-1.7-1.3l3-1.5c5.2-2.7,9.4-5,11.9-6.4,9.2-5.4,47.1-28.7,59.2-36.2,7.1-4.4-5.7-25.1-12.8-20.6-12,7.5-49.7,31.3-58.6,37.1-3.5,2.3-11.3,8-20.2,14.6-9-6.6-16.7-12.4-20.2-14.6-9-5.9-46.6-29.7-58.7-37.1C7.8,7.6-5,28.2,2.1,32.7c12,7.5,50,30.7,59.2,36.2,2.5,1.5,6.7,3.7,11.9,6.4l3,1.5a10.92,10.92,0,0,0-1.7,1.3c-8.8,6.4-16.6,12.1-20.9,14.7C43.8,98.9,14.9,117,7,120.4a4.33,4.33,0,0,0-5.1-.1C-1,122.1-.6,126.2,3,131.9c7.3,11.7,12.8,5.2,12.1,1.5,6.3-5.3,32.7-21.7,43-28.2,7.8-4.8,22-12.3,35.7-19.3,13.7,7,27.9,14.5,35.7,19.3,10.4,6.5,36.7,22.9,43,28.2-.8,3.7,4.8,10.2,12.1-1.5C188.1,126.2,188.5,122.1,185.6,120.3Zm-9.2.7a36.93,36.93,0,0,0,4.3,2,20.65,20.65,0,0,1-1.5,3.4,11.87,11.87,0,0,1-1.6,2.3l-3-1.8ZM128,65l-1.2-2.3,54.5-31.9.8,1.1ZM59.5,65,5.5,31.9l.8-1.1L60.8,62.7Zm16.2,8.9c-6-3.1-10.8-5.7-13.2-7.1l1-2.5L8.2,27.8a31.65,31.65,0,0,0,4-10.6C11.6,20.4,6.6,28.4,3,30.4-.4,26.7,9.5,11.6,13.6,14.2c7.2,4.5,24.1,15.1,38.2,24.1L23.8,22c26.9,18.1,43,26.1,56.4,36.3,3.5,2.7,6.9,5.2,10,7.7.1.1.2.1.2.2s-.3.2-.4.3c-3.8,2.9-7.8,5.8-11.7,8.7C77.4,74.8,76.6,74.3,75.7,73.9ZM11.1,121l1.7,5.9-3,1.8a18.82,18.82,0,0,1-1.6-2.3A20.65,20.65,0,0,1,6.7,123C8,122.5,9.4,121.8,11.1,121Zm.5,14.9c-3.2,2-11.7-11.6-8.5-13.6A1.93,1.93,0,0,1,6,123a24.64,24.64,0,0,0,1.4,3.8,29.1,29.1,0,0,0,1.7,3c.7.9,1.4,1.8,2.2,2.7a12,12,0,0,0,1.2,1.1A1.69,1.69,0,0,1,11.6,135.9Zm1.5-4c-.2-.2-.4-.3-.6-.5s-.7-.6-1-.9l2-1.3.6,1.9A8.74,8.74,0,0,0,13.1,131.9Zm1.6-6.1L13,120c1.2-.6,2.5-1.3,3.8-2.1l1.6,5.6Zm1.2,3.9-.5-1.7,3.7-2.4.4,1.6A37.39,37.39,0,0,0,15.9,129.7Zm2.9-12.9c1.2-.7,2.5-1.4,3.8-2.2l1.6,5.5-3.8,2.3Zm2.6,9-.4-1.5,3.7-2.4.4,1.5C23.8,124.2,22.5,125,21.4,125.8Zm3-12.3c1.2-.7,2.5-1.5,3.8-2.2l1.6,5.4L26,119Zm2.5,8.6-.4-1.5,3.7-2.4.4,1.5C29.4,120.5,28.1,121.3,26.9,122.1Zm3.2-11.9c1.2-.8,2.5-1.5,3.8-2.3l1.6,5.5-3.8,2.3Zm2.4,8.3L32,117l3.7-2.4.4,1.5C35,116.9,33.7,117.7,32.5,118.5Zm3.2-11.7c1.3-.8,2.5-1.5,3.7-2.3L41,110l-3.8,2.3Zm2.4,8.1-.5-1.6,3.7-2.4.5,1.6C40.6,113.3,39.3,114.1,38.1,114.9ZM91.8,84.2c-13.5,6.9-27,14-32.8,17.6l-15.4,9.6-.5-1.7L60.5,98.3,42.8,108.9l-1.6-5.6c10.3-6.4,19.5-12.4,23.1-15-12.1,9.2-2.6,4.9,15-8.5.8-.6,1.5-1.2,2.3-1.8,3.9-3,7.9-6.1,12.1-9.4,1.1-.9,2.3-1.8,3.5-2.7,3.2-2.5,6.5-5,10-7.7,13.4-10.2,29.5-18.3,56.4-36.3L135.5,38.1c14.1-9,31-19.6,38.2-24.1,4.1-2.6,14,12.6,10.6,16.2-3.6-1.9-8.6-9.9-9.2-13.1a32.5,32.5,0,0,0,4,10.6L124,64.3l1,2.5c-2.4,1.4-7.2,4-13.2,7.1-1.5.8-3,1.6-4.6,2.4-3.9,2-8.1,4.1-12.3,6.3C93.8,83.1,92.8,83.7,91.8,84.2Zm52.5,25.5-.5,1.7-15.4-9.6c-5.7-3.5-18.8-10.4-32-17.2.5-.3,1.1-.5,1.6-.8l9.1-4.7c.3.3.7.5,1,.8,17.6,13.4,27.1,17.6,15,8.5,3.6,2.6,12.9,8.6,23.1,15l-1.6,5.6L126.9,98.4Zm5.1,5.2c-1.2-.8-2.5-1.6-3.7-2.4l.5-1.6,3.7,2.4Zm-2.9-4.9,1.6-5.5c1.2.8,2.5,1.5,3.7,2.3l-1.6,5.5Zm8.5,8.5c-1.2-.8-2.5-1.6-3.7-2.4l.4-1.5,3.7,2.4Zm-2.9-5.1,1.6-5.5c1.3.8,2.5,1.5,3.8,2.3l-1.6,5.4Zm8.5,8.7c-1.2-.8-2.4-1.6-3.7-2.4l.4-1.5,3.7,2.4Zm-2.9-5.3,1.6-5.4c1.3.8,2.5,1.5,3.8,2.2l-1.6,5.5Zm8.4,9c-1.2-.8-2.4-1.6-3.7-2.5l.4-1.5,3.7,2.4Zm-2.7-5.7,1.6-5.5c1.3.8,2.6,1.5,3.8,2.2l-1.6,5.6Zm8.2,9.6c-1.1-.8-2.3-1.7-3.7-2.6l.4-1.6,3.7,2.4Zm-2.6-6.2,1.6-5.6c1.3.8,2.6,1.4,3.8,2.1l-1.7,5.8Zm4.4,7.6.6-1.9,2,1.3a9,9,0,0,1-1,.9c-.2.2-.4.3-.6.5A8.74,8.74,0,0,0,173.4,131.1Zm2.5,4.8a1.71,1.71,0,0,1-.9-2.3c.4-.4.8-.7,1.2-1.1a14.42,14.42,0,0,0,2.2-2.7,12.83,12.83,0,0,0,1.7-3,24.64,24.64,0,0,0,1.4-3.8,1.93,1.93,0,0,1,2.9-.7C187.5,124.4,179.1,137.9,175.9,135.9Z" transform="translate(0.02)"/><path class="a0b674b1-6e3d-4ee7-9e93-d033cc3f2df6" d="M159.6,106.1V89.4a5.58,5.58,0,0,1-.8.5L94.5,125.3a1.88,1.88,0,0,1-.8.2,2.35,2.35,0,0,1-.8-.2L28.8,89.9c-.3-.2-.5-.3-.8-.5v16.7c0,3,.7,4.7,2.3,5.6l63.5,35,63.5-35C158.9,110.8,159.6,109.1,159.6,106.1Z" transform="translate(0.02)"/><path class="f8cac925-36ea-4ab2-856a-2af7a7f4377a" d="M42.6,40.4,28.2,87.7a4.39,4.39,0,0,0,2.1,5.1l63.5,35,63.5-35a4.44,4.44,0,0,0,2.1-5.1L145,40.4c0-.2-.1-.3-.1-.5H42.7C42.7,40.1,42.6,40.2,42.6,40.4Z" transform="translate(0.02)"/><path class="bcf5f108-bb9b-4c4b-a322-0744ae7d8ebc" d="M162.7,88.9a7.61,7.61,0,0,0-.3-2.1L148,39.5a1.46,1.46,0,0,0-1.9-1A1.5,1.5,0,0,0,145,40a.9.9,0,0,0,.1.5l14.4,47.3a4.39,4.39,0,0,1-2.1,5.1l-63.5,35-63.5-35a4.44,4.44,0,0,1-2.1-5.1L42.7,40.5c0-.2.1-.3.1-.5a1.5,1.5,0,0,0-1.1-1.5,1.46,1.46,0,0,0-1.9,1L25.2,86.8a7.61,7.61,0,0,0-.3,2.1v17.2c0,2.7.4,6.4,3.9,8.3l64.3,35.4a1.88,1.88,0,0,0,.8.2,2.35,2.35,0,0,0,.8-.2L159,114.4c3.5-1.9,3.9-5.7,3.9-8.3V89C162.7,89,162.7,88.9,162.7,88.9ZM93.8,146.7l-63.5-35c-1.6-.9-2.3-2.6-2.3-5.6v-11a2.18,2.18,0,0,0,.8.5L93.1,131a1.88,1.88,0,0,0,.8.2,2.35,2.35,0,0,0,.8-.2L159,95.6a3.51,3.51,0,0,0,.8-.5v11c0,3-.7,4.7-2.3,5.6Z" transform="translate(0.02)"/><path class="b2238daa-1872-467d-83a6-1b0470a86737" d="M136.6,19.9A58.14,58.14,0,0,0,93.8,1.5a60.07,60.07,0,1,0,42.8,18.4Z" transform="translate(0.02)"/><path class="a1d21b54-8a4c-4b83-b668-70c9b85ba11b" d="M151,64.8a28.17,28.17,0,0,0-3.1.7c.9,1.1,1.8,2.3,2.7,3.4-.2,1.3-.4,2.5-.6,3.7a2.1,2.1,0,0,1-1.4-.7c-1.5-1.8-3-3.6-4.6-5.3-1.8.5-3.6,1.1-5.4,1.7,1.3,1.4,2.6,2.7,3.9,4.1a1.63,1.63,0,0,1-.1,2.4,2,2,0,0,1-2.6-.2c-1.6-1.7-3.3-3.3-5-4.9-1.8.7-3.5,1.4-5.2,2.1,1.4,1.2,2.8,2.5,4.2,3.8a1.57,1.57,0,0,1,.1,2.4,2,2,0,0,1-2.6,0c-1.7-1.5-3.5-3.1-5.4-4.5-1.7.8-3.4,1.6-5,2.5,1.5,1.1,3,2.3,4.5,3.4a1.59,1.59,0,0,1,.3,2.4,2,2,0,0,1-2.6.2c-1.9-1.4-3.8-2.7-5.7-4.1-1.6.9-3.2,1.9-4.8,2.9l4.8,3a1.68,1.68,0,0,1,.5,2.4,1.85,1.85,0,0,1-2.5.4l-6-3.6c-1.5,1.1-3.1,2.2-4.5,3.3,1.7.9,3.4,1.7,5,2.6a1.55,1.55,0,0,1,.7,2.3,1.85,1.85,0,0,1-2.5.6c-2.1-1.1-4.2-2.1-6.3-3.1-1.4,1.2-2.9,2.4-4.3,3.7,1.8.7,3.5,1.5,5.2,2.2a1.55,1.55,0,0,1,.8,2.3,1.85,1.85,0,0,1-2.4.8c-2.2-.9-4.3-1.8-6.5-2.6-1.4,1.3-2.7,2.6-4,4l5.4,1.8a1.59,1.59,0,0,1,1,2.2,1.89,1.89,0,0,1-2.4,1c-2.2-.7-4.5-1.4-6.7-2-1.2,1.4-2.5,2.9-3.6,4.3,1.9.4,3.7.8,5.5,1.3a1.57,1.57,0,0,1,1.2,2.1,1.92,1.92,0,0,1-2.3,1.2c-2.3-.5-4.6-1-6.9-1.4-1.1,1.5-2.2,3.1-3.3,4.7,1.9.2,3.8.5,5.6.8a1.63,1.63,0,0,1,1.4,2,3,3,0,0,1-.4.8A55.25,55.25,0,0,1,75,115.4c.7-1.1,1.4-2.2,2.1-3.2q-1.8-3.15-3.3-6.3a2.21,2.21,0,0,1,.8-2.8,1.55,1.55,0,0,1,2.4.6c.8,1.7,1.6,3.5,2.5,5.2,1.2-1.6,2.3-3.1,3.5-4.6-1-2.2-1.9-4.3-2.8-6.6a2.25,2.25,0,0,1,1-2.7,1.55,1.55,0,0,1,2.3.8c.7,1.8,1.4,3.6,2.1,5.3,1.3-1.4,2.6-2.9,3.9-4.3-.8-2.2-1.6-4.5-2.3-6.8a2.13,2.13,0,0,1,1.2-2.6,1.49,1.49,0,0,1,2.2,1c.5,1.8,1.1,3.7,1.7,5.5L96.5,90c-.6-2.3-1.2-4.6-1.7-6.9a2.23,2.23,0,0,1,1.4-2.5,1.55,1.55,0,0,1,2.2,1.2c.4,1.9.8,3.8,1.2,5.6l4.5-3.6c-.4-2.3-.8-4.7-1.1-7a2.19,2.19,0,0,1,1.6-2.4,1.45,1.45,0,0,1,2,1.3c.2,1.9.5,3.8.8,5.7,1.6-1.1,3.2-2.2,4.8-3.2-.2-2.4-.4-4.7-.6-7.1a2.16,2.16,0,0,1,1.8-2.2,1.47,1.47,0,0,1,1.9,1.5c.1,1.9.1,3.8.3,5.7,1.6-1,3.3-1.9,5-2.8V66.2a2.16,2.16,0,0,1,2-2.1,1.49,1.49,0,0,1,1.8,1.7c-.1,1.9-.2,3.8-.2,5.7,1.7-.8,3.5-1.6,5.3-2.4.1-2.4.4-4.7.6-7.1a2.17,2.17,0,0,1,2.2-1.9,1.56,1.56,0,0,1,1.7,1.8c-.3,1.9-.5,3.8-.7,5.7,1.8-.7,3.6-1.3,5.5-1.9.3-2.3.8-4.7,1.2-7a2.16,2.16,0,0,1,2.3-1.7c1.1.1,1.8.8,1.5,1.9-.4,1.9-.8,3.8-1.2,5.6l5.6-1.5c.5-2.3,1.2-4.6,1.8-6.9a1.83,1.83,0,0,1,.7-1,60.47,60.47,0,0,1,.4,6.1A22.24,22.24,0,0,1,151,64.8ZM74.3,53.4a2.08,2.08,0,0,0,1.8-2.2c-.1-2.4-.3-4.8-.5-7.1,1.6-1,3.2-2.1,4.8-3.2.3,1.9.5,3.8.7,5.7a1.51,1.51,0,0,0,2.1,1.3,2.19,2.19,0,0,0,1.6-2.4c-.3-2.4-.7-4.7-1.1-7,1.5-1.2,3-2.3,4.5-3.6.4,1.9.8,3.7,1.2,5.6a1.6,1.6,0,0,0,2.2,1.2A2.13,2.13,0,0,0,93,39.2c-.5-2.3-1.1-4.6-1.7-6.9l4.2-3.9c.6,1.8,1.1,3.7,1.7,5.5a1.51,1.51,0,0,0,2.2,1,2.23,2.23,0,0,0,1.2-2.6c-.7-2.3-1.4-4.5-2.2-6.8,1.3-1.4,2.6-2.8,3.9-4.3l2.1,5.4a1.55,1.55,0,0,0,2.3.8,2.25,2.25,0,0,0,1-2.7c-.9-2.2-1.8-4.4-2.8-6.6,1.2-1.5,2.4-3,3.5-4.6.9,1.7,1.7,3.4,2.5,5.2a1.55,1.55,0,0,0,2.4.6,2.21,2.21,0,0,0,.8-2.8l-3.3-6.3c.7-1.1,1.4-2.1,2.1-3.2a59.62,59.62,0,0,0-10.1-2.5,2,2,0,0,0-.4.8,1.63,1.63,0,0,0,1.4,2l5.6.9c-1,1.6-2.2,3.1-3.3,4.6-2.3-.4-4.6-.9-6.9-1.4a1.92,1.92,0,0,0-2.3,1.2,1.63,1.63,0,0,0,1.2,2.1c1.8.5,3.7.9,5.5,1.3-1.2,1.5-2.4,2.9-3.6,4.3-2.3-.6-4.5-1.3-6.7-2a1.93,1.93,0,0,0-2.4,1,1.59,1.59,0,0,0,1,2.2l5.4,1.8c-1.3,1.4-2.6,2.7-4,4-2.2-.8-4.4-1.7-6.5-2.6a1.85,1.85,0,0,0-2.4.8,1.74,1.74,0,0,0,.8,2.3c1.7.8,3.5,1.5,5.2,2.2-1.4,1.3-2.8,2.5-4.3,3.7-2.1-1-4.2-2-6.3-3.1a1.85,1.85,0,0,0-2.5.6,1.55,1.55,0,0,0,.7,2.3c1.7.9,3.3,1.8,5,2.6l-4.5,3.3q-3.15-1.8-6-3.6a1.88,1.88,0,0,0-2.6.4,1.62,1.62,0,0,0,.5,2.4c1.6,1,3.2,2.1,4.8,3-1.6,1-3.2,2-4.8,2.9-1.9-1.3-3.9-2.7-5.7-4.1a1.87,1.87,0,0,0-2.6.2,1.59,1.59,0,0,0,.3,2.4c1.5,1.2,3,2.3,4.5,3.4-1.7.9-3.3,1.7-5,2.5l-5.4-4.5a1.87,1.87,0,0,0-2.6,0,1.56,1.56,0,0,0,.1,2.4c1.4,1.3,2.8,2.5,4.2,3.8-1.7.7-3.5,1.4-5.2,2.1-1.7-1.6-3.4-3.3-5-4.9a1.88,1.88,0,0,0-2.6-.2,1.56,1.56,0,0,0-.1,2.4c1.3,1.4,2.6,2.8,3.9,4.1-1.8.6-3.6,1.2-5.4,1.7-1.6-1.8-3.1-3.5-4.6-5.3a1.75,1.75,0,0,0-1.4-.7,23.76,23.76,0,0,0-.6,3.7c.9,1.1,1.8,2.3,2.8,3.4-1.1.3-2.1.5-3.2.7-.1,1.2-.1,2.5-.1,3.7a60.78,60.78,0,0,0,.3,6.1,3.92,3.92,0,0,0,.8-1q1.05-3.45,1.8-6.9A51.18,51.18,0,0,0,45.2,58,50.54,50.54,0,0,1,44,63.6a1.47,1.47,0,0,0,1.5,1.9,2.19,2.19,0,0,0,2.3-1.7c.5-2.3.9-4.7,1.2-7,1.8-.6,3.7-1.2,5.4-1.9-.2,1.9-.4,3.8-.7,5.7-.2,1.1.6,1.8,1.7,1.8a2.17,2.17,0,0,0,2.2-1.9c.3-2.4.5-4.7.6-7.1,1.8-.7,3.5-1.5,5.3-2.4,0,1.9-.1,3.8-.2,5.7a1.52,1.52,0,0,0,1.8,1.7,2.16,2.16,0,0,0,2-2.1c.1-2.4.1-4.8,0-7.1,1.7-.9,3.4-1.8,5-2.8l.3,5.7C72.4,53,73.2,53.6,74.3,53.4Z" transform="translate(0.02)"/><path class="bcf5f108-bb9b-4c4b-a322-0744ae7d8ebc" d="M137.7,18.8A60,60,0,0,0,93.8,0,61.05,61.05,0,1,0,155,61,62.78,62.78,0,0,0,137.7,18.8Zm13,47.6h.2v.3C150.8,66.6,150.8,66.5,150.7,66.4Zm-5.9-9.9a3.34,3.34,0,0,0-2.5-1.2,3.72,3.72,0,0,0-3.9,3c-.4,2-.8,4.1-1.1,6.2a19.45,19.45,0,0,0-2.2.8c.1-1.1.3-2.2.4-3.1a3.34,3.34,0,0,0-.7-2.6,2.88,2.88,0,0,0-2.5-1,3.77,3.77,0,0,0-3.7,3.3c-.3,2.2-.5,4.3-.6,6.2l-2.1.9c0-1,.1-2.1.1-3.2a3.11,3.11,0,0,0-.9-2.5,3.4,3.4,0,0,0-2.6-.8,3.85,3.85,0,0,0-3.4,3.6c-.1,2.1-.1,4.2-.1,6.2-.7.4-1.4.7-2,1.1-.1-1.1-.1-2.1-.1-3.2a3,3,0,0,0-1.1-2.4,3.17,3.17,0,0,0-2.7-.6,3.87,3.87,0,0,0-3.1,3.9c.1,2.2.3,4.3.5,6.2a21.41,21.41,0,0,0-1.9,1.3c-.1-1-.3-2.1-.4-3.2a3.06,3.06,0,0,0-4-2.7,3.72,3.72,0,0,0-2.7,4.1c.3,2.2.6,4.2,1,6.2-.6.5-1.2.9-1.8,1.4-.2-1-.4-2-.6-3.1a3.09,3.09,0,0,0-4.2-2.4,3.7,3.7,0,0,0-2.4,4.3c.4,2,.9,4,1.5,6.1-.6.5-1.1,1-1.7,1.6-.3-1-.6-2-.9-3.1a3.12,3.12,0,0,0-1.7-2,2.88,2.88,0,0,0-2.7.1,3.69,3.69,0,0,0-2,4.5c.6,2,1.3,3.9,2,5.9-.5.5-1,1.1-1.6,1.7-.4-.9-.7-1.9-1.1-3a3.09,3.09,0,0,0-1.8-1.9,3.24,3.24,0,0,0-2.7.3A3.86,3.86,0,0,0,79.1,98c.7,1.9,1.5,3.8,2.4,5.8-.5.6-1,1.2-1.5,1.9-.5-1-.9-1.9-1.4-2.9a2.84,2.84,0,0,0-2-1.7,3.27,3.27,0,0,0-2.7.5,3.91,3.91,0,0,0-1.3,4.8c1,2,1.9,3.8,2.9,5.5-.6.9-1.2,1.9-1.8,2.7A57.53,57.53,0,0,1,37,68.8a3.49,3.49,0,0,0,2-2.3c.6-2,1.1-4,1.6-6l2.3-.6c-.2,1-.4,2-.7,3.1a3.27,3.27,0,0,0,.5,2.6,3.34,3.34,0,0,0,2.5,1.2,3.72,3.72,0,0,0,3.9-3c.4-2,.8-4.1,1.1-6.2a19.45,19.45,0,0,0,2.2-.8c-.1,1-.3,2.1-.4,3.2a3.34,3.34,0,0,0,.7,2.6,2.88,2.88,0,0,0,2.5,1,3.77,3.77,0,0,0,3.7-3.3c.2-2.1.4-4.2.6-6.2l2.1-.9c0,1-.1,2.1-.1,3.2a3.11,3.11,0,0,0,.9,2.5,3.4,3.4,0,0,0,2.6.8,3.85,3.85,0,0,0,3.4-3.6c.1-2.1.1-4.2.1-6.2.7-.4,1.4-.7,2.1-1.1.1,1.1.1,2.1.1,3.2a3,3,0,0,0,3.7,3,3.78,3.78,0,0,0,3.1-3.9c-.1-2.1-.3-4.2-.5-6.2a12.74,12.74,0,0,0,1.9-1.3c.1,1,.3,2.1.4,3.2a3.17,3.17,0,0,0,1.3,2.3,3.57,3.57,0,0,0,2.7.4A3.72,3.72,0,0,0,86,45.4c-.3-1.9-.6-3.9-1-6.2.6-.5,1.2-.9,1.8-1.4.2,1,.4,2.1.6,3.1a3.09,3.09,0,0,0,4.2,2.4A3.75,3.75,0,0,0,94,39c-.4-2-.9-4.1-1.5-6.1.6-.5,1.1-1,1.7-1.6.3,1.1.6,2.1.9,3.1a3.12,3.12,0,0,0,1.7,2,2.88,2.88,0,0,0,2.7-.1,3.69,3.69,0,0,0,2-4.5c-.6-1.9-1.2-3.8-2-5.9.5-.5,1-1.1,1.6-1.7.4,1,.8,2,1.1,3a3,3,0,0,0,1.9,1.9,3.24,3.24,0,0,0,2.7-.3,3.75,3.75,0,0,0,1.7-4.6c-.7-1.8-1.5-3.7-2.4-5.8.5-.6,1-1.2,1.5-1.9.5,1,1,2,1.4,2.9a3.24,3.24,0,0,0,2,1.8,3.27,3.27,0,0,0,2.7-.5,3.91,3.91,0,0,0,1.3-4.8c-1-2-1.9-3.8-2.9-5.5q.75-1.2,1.8-2.7a57.67,57.67,0,0,1,20.8,13.9,58.66,58.66,0,0,1,15.6,31.9,3.78,3.78,0,0,0-2,2.3c-.7,2.3-1.2,4.2-1.6,6l-2.3.6c.2-1,.4-2.1.7-3.1A2.7,2.7,0,0,0,144.8,56.5ZM101.1,7.3a3.68,3.68,0,0,0,2.2,1.4c1.1.2,2.1.4,3.2.5-.4.6-.8,1.1-1.2,1.7L99.4,9.7a3.44,3.44,0,0,0-4.1,2.2,3.1,3.1,0,0,0,.2,2.5A3.44,3.44,0,0,0,97.6,16c1,.3,2.1.5,3.1.8a20,20,0,0,1-1.4,1.6c-1.9-.5-3.9-1.1-5.7-1.7a3.41,3.41,0,0,0-4.3,1.9,3.58,3.58,0,0,0,0,2.5,3.58,3.58,0,0,0,2,1.8c1,.4,2,.7,3,1l-1.5,1.5c-1.9-.7-3.8-1.5-5.6-2.2a3.38,3.38,0,0,0-4.4,1.5,3.13,3.13,0,0,0-.2,2.5,3.34,3.34,0,0,0,1.8,1.9c1,.4,2,.9,3,1.3-.5.5-1.1.9-1.6,1.4-1.7-.8-3.4-1.7-5.3-2.6A3.33,3.33,0,0,0,76,30.3a3.15,3.15,0,0,0-.4,2.5,3.36,3.36,0,0,0,1.6,2.1c.9.5,1.9,1,2.8,1.5-.5.4-1.1.8-1.7,1.2-1.8-1-3.5-2-5.1-3.1a3.42,3.42,0,0,0-4.6.8,3,3,0,0,0-.6,2.4,3.09,3.09,0,0,0,1.5,2.2c.9.6,1.8,1.2,2.7,1.7-.6.4-1.2.7-1.8,1.1-1.7-1.2-3.3-2.3-4.9-3.5a3.32,3.32,0,0,0-4.7.3,3.07,3.07,0,0,0-.8,2.4,3.21,3.21,0,0,0,1.3,2.3c.8.7,1.7,1.3,2.6,2-.6.3-1.3.6-1.9.9q-2.25-1.8-4.5-3.9a3.52,3.52,0,0,0-4.7,0,2.9,2.9,0,0,0-1,2.3,3.36,3.36,0,0,0,1.1,2.4c.8.8,1.6,1.5,2.4,2.2-.6.3-1.3.5-2,.8Q51.2,49,49.1,46.7a3.54,3.54,0,0,0-4.7-.4,3.25,3.25,0,0,0-1.2,2.2,3,3,0,0,0,.9,2.5c.7.8,1.4,1.5,2.2,2.4-.7.2-1.4.4-2,.6-1.3-1.4-2.6-2.9-3.9-4.6a3.6,3.6,0,0,0-2.3-1.3A57.25,57.25,0,0,1,93.8,3.7a55.29,55.29,0,0,1,7.1.4,1.42,1.42,0,0,0-.2.6A3.26,3.26,0,0,0,101.1,7.3ZM37,55.7h-.2v-.3C36.8,55.5,36.9,55.6,37,55.7ZM36.5,61c0-1.2,0-2.5.1-3.7,1.1-.2,2.1-.4,3.2-.7L37,53.2c.2-1.2.4-2.5.6-3.7a2.1,2.1,0,0,1,1.4.7c1.5,1.8,3,3.6,4.6,5.3,1.8-.5,3.6-1.1,5.4-1.7-1.3-1.4-2.6-2.7-3.9-4.1a1.63,1.63,0,0,1,.1-2.4,2,2,0,0,1,2.6.2c1.6,1.7,3.3,3.3,5,4.9,1.8-.7,3.5-1.4,5.2-2.1-1.4-1.2-2.9-2.5-4.2-3.8a1.57,1.57,0,0,1-.1-2.4,2,2,0,0,1,2.6,0q2.55,2.25,5.4,4.5c1.7-.8,3.4-1.6,5-2.5-1.5-1.1-3-2.3-4.5-3.4a1.59,1.59,0,0,1-.3-2.4,2,2,0,0,1,2.6-.2c1.9,1.4,3.8,2.8,5.7,4.1,1.6-.9,3.2-1.9,4.8-2.9l-4.8-3a1.68,1.68,0,0,1-.5-2.4,2,2,0,0,1,2.6-.4l6,3.6c1.5-1.1,3.1-2.2,4.5-3.3-1.7-.9-3.4-1.7-5-2.6a1.55,1.55,0,0,1-.7-2.3,1.85,1.85,0,0,1,2.5-.6c2.1,1.1,4.2,2.1,6.3,3.1,1.5-1.2,2.9-2.4,4.3-3.7-1.8-.7-3.5-1.5-5.2-2.2a1.55,1.55,0,0,1-.8-2.3,1.85,1.85,0,0,1,2.4-.8c2.1.9,4.3,1.8,6.5,2.6,1.3-1.3,2.7-2.6,4-4l-5.4-1.8a1.59,1.59,0,0,1-1-2.2,1.89,1.89,0,0,1,2.4-1c2.2.7,4.5,1.4,6.7,2,1.2-1.4,2.4-2.9,3.6-4.3-1.9-.4-3.7-.8-5.5-1.3a1.57,1.57,0,0,1-1.2-2.1A1.92,1.92,0,0,1,99,11.1c2.3.5,4.6,1,6.9,1.4,1.1-1.5,2.2-3.1,3.3-4.6-1.9-.3-3.8-.5-5.6-.9a1.63,1.63,0,0,1-1.4-2,3,3,0,0,1,.4-.8,57.35,57.35,0,0,1,10.1,2.5c-.7,1.1-1.4,2.2-2.1,3.2q1.8,3.15,3.3,6.3a2.21,2.21,0,0,1-.8,2.8,1.55,1.55,0,0,1-2.4-.6c-.8-1.7-1.7-3.5-2.5-5.2-1.1,1.6-2.3,3.1-3.5,4.6,1,2.2,1.9,4.3,2.8,6.6a2.25,2.25,0,0,1-1,2.7,1.55,1.55,0,0,1-2.3-.8l-2.1-5.4c-1.3,1.5-2.6,2.9-3.9,4.3.8,2.2,1.6,4.5,2.2,6.8a2.13,2.13,0,0,1-1.2,2.6,1.44,1.44,0,0,1-2.2-1c-.5-1.8-1.1-3.7-1.7-5.5-1.4,1.3-2.8,2.7-4.2,3.9.6,2.3,1.2,4.6,1.7,6.9a2.23,2.23,0,0,1-1.4,2.5,1.55,1.55,0,0,1-2.2-1.2c-.4-1.9-.8-3.8-1.2-5.6l-4.5,3.6c.4,2.3.8,4.7,1.1,7A2.19,2.19,0,0,1,83,47.6a1.56,1.56,0,0,1-2.1-1.3c-.2-1.9-.4-3.8-.7-5.7A24.84,24.84,0,0,1,75.6,44c.2,2.3.4,4.7.5,7.1a2.16,2.16,0,0,1-1.8,2.2,1.5,1.5,0,0,1-1.9-1.5l-.3-5.7c-1.7,1-3.3,1.9-5,2.8V56a2.16,2.16,0,0,1-2,2.1,1.49,1.49,0,0,1-1.8-1.7c.1-1.9.2-3.8.2-5.7-1.7.8-3.5,1.6-5.3,2.4-.2,2.4-.4,4.7-.6,7.1a2.17,2.17,0,0,1-2.2,1.9,1.56,1.56,0,0,1-1.7-1.8c.3-1.9.5-3.8.7-5.7-1.8.7-3.6,1.3-5.4,1.9-.3,2.3-.8,4.7-1.2,7a2.16,2.16,0,0,1-2.3,1.7c-1.1-.1-1.8-.8-1.5-1.9.4-1.9.8-3.8,1.2-5.6l-5.6,1.5-1.8,6.9a1.59,1.59,0,0,1-.8,1A30.77,30.77,0,0,1,36.5,61Zm50.1,53.8a3.28,3.28,0,0,0-2.2-1.4c-1.1-.2-2.1-.3-3.2-.5.4-.6.8-1.2,1.2-1.7,1.9.4,3.9.8,5.9,1.2a3.44,3.44,0,0,0,4.1-2.2,3.16,3.16,0,0,0-2.3-4.1c-1-.3-2-.5-3.1-.8a20,20,0,0,1,1.4-1.6c1.9.5,3.8,1.1,5.7,1.7a3.37,3.37,0,0,0,4.3-1.9,2.75,2.75,0,0,0,0-2.5,3.51,3.51,0,0,0-1.9-1.7,28.11,28.11,0,0,0-3.1-1l1.5-1.5c2,.7,3.8,1.5,5.6,2.2a3.38,3.38,0,0,0,4.4-1.5,3.13,3.13,0,0,0,.2-2.5,3.34,3.34,0,0,0-1.8-1.9l-2.9-1.3c.5-.5,1.1-.9,1.6-1.4,1.8.8,3.5,1.7,5.3,2.6a3.48,3.48,0,0,0,4.6-1.1,3.15,3.15,0,0,0-1.2-4.5c-.9-.5-1.9-1-2.8-1.5.5-.4,1.1-.8,1.7-1.2,1.7,1,3.4,2,5.1,3.1a3.41,3.41,0,0,0,4.6-.7,3.48,3.48,0,0,0,.6-2.4,3.09,3.09,0,0,0-1.5-2.2c-.9-.6-1.8-1.2-2.7-1.7.6-.4,1.2-.7,1.8-1.1,1.7,1.2,3.3,2.3,4.9,3.5a3.52,3.52,0,0,0,4.7-.4,3.07,3.07,0,0,0,.8-2.4,3.21,3.21,0,0,0-1.3-2.3c-.9-.7-1.7-1.4-2.6-2,.6-.3,1.3-.6,1.9-.9,1.5,1.2,3,2.5,4.6,3.9a3.52,3.52,0,0,0,4.7,0,3.26,3.26,0,0,0,1-2.3,3.36,3.36,0,0,0-1.1-2.4c-.7-.7-1.5-1.4-2.4-2.2.7-.3,1.3-.5,2-.8q2.25,2.1,4.2,4.2a3.54,3.54,0,0,0,4.7.4,3.48,3.48,0,0,0,1.2-2.2,3.13,3.13,0,0,0-.9-2.5c-.8-.9-1.5-1.6-2.2-2.3l2.1-.6c1.3,1.4,2.6,3,3.9,4.6a3.6,3.6,0,0,0,2.3,1.3,57.37,57.37,0,0,1-55.8,44.2c-2.4,0-4.8-.2-7.1-.4a1.42,1.42,0,0,0,.2-.6A7.14,7.14,0,0,0,86.6,114.8ZM150,72.6a2.1,2.1,0,0,1-1.4-.7c-1.5-1.8-3-3.6-4.6-5.3-1.8.5-3.6,1.1-5.4,1.7,1.3,1.4,2.6,2.7,3.9,4.1a1.63,1.63,0,0,1-.1,2.4,2,2,0,0,1-2.6-.2c-1.6-1.7-3.3-3.3-5-4.9-1.8.7-3.5,1.4-5.2,2.1,1.4,1.2,2.8,2.5,4.2,3.8a1.57,1.57,0,0,1,.1,2.4,2,2,0,0,1-2.6,0c-1.7-1.5-3.5-3.1-5.4-4.5-1.7.8-3.4,1.6-5,2.5,1.5,1.1,3,2.3,4.5,3.4a1.59,1.59,0,0,1,.3,2.4,2,2,0,0,1-2.6.2c-1.9-1.4-3.8-2.7-5.7-4.1-1.6.9-3.2,1.9-4.8,2.9l4.8,3a1.68,1.68,0,0,1,.5,2.4,1.85,1.85,0,0,1-2.5.4l-6-3.6c-1.5,1.1-3.1,2.2-4.5,3.3,1.7.9,3.4,1.7,5,2.6a1.55,1.55,0,0,1,.7,2.3,1.85,1.85,0,0,1-2.5.6c-2.1-1.1-4.2-2.1-6.3-3.1-1.4,1.2-2.9,2.4-4.3,3.7,1.8.7,3.5,1.5,5.2,2.2a1.55,1.55,0,0,1,.8,2.3,1.85,1.85,0,0,1-2.4.8c-2.2-.9-4.3-1.8-6.5-2.6-1.4,1.3-2.7,2.6-4,4l5.4,1.8a1.59,1.59,0,0,1,1,2.2,1.89,1.89,0,0,1-2.4,1c-2.2-.7-4.5-1.4-6.7-2-1.2,1.4-2.5,2.9-3.6,4.3,1.9.4,3.7.8,5.5,1.3a1.57,1.57,0,0,1,1.2,2.1,1.92,1.92,0,0,1-2.3,1.2c-2.3-.5-4.6-1-6.9-1.4-1.1,1.5-2.2,3.1-3.3,4.7,1.9.2,3.8.5,5.6.8a1.63,1.63,0,0,1,1.4,2,3,3,0,0,1-.4.8A55.25,55.25,0,0,1,75,115.4c.7-1.1,1.4-2.2,2.1-3.2q-1.8-3.15-3.3-6.3a2.21,2.21,0,0,1,.8-2.8,1.55,1.55,0,0,1,2.4.6c.8,1.7,1.6,3.5,2.5,5.2,1.2-1.6,2.3-3.1,3.5-4.6-1-2.2-1.9-4.3-2.8-6.6a2.25,2.25,0,0,1,1-2.7,1.55,1.55,0,0,1,2.3.8c.7,1.8,1.4,3.6,2.1,5.3,1.3-1.4,2.6-2.9,3.9-4.3-.8-2.2-1.6-4.5-2.3-6.8a2.13,2.13,0,0,1,1.2-2.6,1.49,1.49,0,0,1,2.2,1c.5,1.8,1.1,3.7,1.7,5.5L96.5,90c-.6-2.3-1.2-4.6-1.7-6.9a2.23,2.23,0,0,1,1.4-2.5,1.55,1.55,0,0,1,2.2,1.2c.4,1.9.8,3.8,1.2,5.6l4.5-3.6c-.4-2.3-.8-4.7-1.1-7a2.19,2.19,0,0,1,1.6-2.4,1.45,1.45,0,0,1,2,1.3c.2,1.9.5,3.8.8,5.7,1.6-1.1,3.2-2.2,4.8-3.2-.2-2.4-.4-4.7-.6-7.1a2.16,2.16,0,0,1,1.8-2.2,1.47,1.47,0,0,1,1.9,1.5c.1,1.9.1,3.8.3,5.7,1.6-1,3.3-1.9,5-2.8V66.2a2.16,2.16,0,0,1,2-2.1,1.49,1.49,0,0,1,1.8,1.7c-.1,1.9-.2,3.8-.2,5.7,1.7-.8,3.5-1.6,5.3-2.4.1-2.4.4-4.7.6-7.1a2.17,2.17,0,0,1,2.2-1.9,1.56,1.56,0,0,1,1.7,1.8c-.3,1.9-.5,3.8-.7,5.7,1.8-.7,3.6-1.3,5.5-1.9.3-2.3.8-4.7,1.2-7a2.16,2.16,0,0,1,2.3-1.7c1.1.1,1.8.8,1.5,1.9-.4,1.9-.8,3.8-1.2,5.6l5.6-1.5c.5-2.3,1.2-4.6,1.8-6.9a1.83,1.83,0,0,1,.7-1,60.47,60.47,0,0,1,.4,6.1c0,1.3,0,2.5-.1,3.7a28.17,28.17,0,0,0-3.1.7c.9,1.1,1.8,2.3,2.7,3.4C150.5,70.1,150.2,71.3,150,72.6Z" transform="translate(0.02)"/></svg>