<svg class="fill-current" viewBox="0 0 696 136">
<path id="ball-indigo-200" fill="#cac6cd" d="M141.6,110.42a10.69,10.69,0,0,0-6.9-2.44,12.5,12.5,0,0,0-1.82.14c-1.73-1.25-3.77-3-6.42-5.3a61.36,61.36,0,0,0,2.44-55.06c7.86-5.83,10.42-7.75,11.12-8.32,7-5.83,7.35-14.73.78-22.67-3.82-4.63-8.17-7-12.93-7h-.11a14.62,14.62,0,0,0-9.37,3.53c-.69.57-3.16,2.82-10.24,9.33a61.33,61.33,0,0,0-70.78,0c-7.08-6.51-9.55-8.76-10.24-9.34a14.66,14.66,0,0,0-9.36-3.52h-.06c-4.81,0-9.17,2.4-13,7-6.57,7.94-6.26,16.84.78,22.67.7.57,3.26,2.49,11.12,8.32a61.36,61.36,0,0,0,2.44,55.06c-2.66,2.31-4.7,4.06-6.42,5.3a12.5,12.5,0,0,0-1.82-.14,10.69,10.69,0,0,0-6.9,2.44,11.44,11.44,0,0,0-3.69,11,18.21,18.21,0,0,0,3.94,8.22,18.28,18.28,0,0,0,7.33,5.42A12.9,12.9,0,0,0,16,136h.07a10.7,10.7,0,0,0,6.94-2.44,10.86,10.86,0,0,0,3.9-8.14c1.55-1.46,3.68-3.14,6.45-5.33a61.35,61.35,0,0,0,78.72,0c2.77,2.19,4.9,3.87,6.46,5.33a10.86,10.86,0,0,0,3.9,8.14,10.63,10.63,0,0,0,6.9,2.44h.06a12.94,12.94,0,0,0,4.58-.89,18.95,18.95,0,0,0,11.27-13.64A11.44,11.44,0,0,0,141.6,110.42Z"></path>
<path id="text-indigo-200" fill="#cac6cd" d="M691,57.74a15.24,15.24,0,0,0-9.78-3.51,14.55,14.55,0,0,0-7.83,2.26,14.73,14.73,0,0,0-4.67,4.69,13.81,13.81,0,0,0-12.14-7,16.07,16.07,0,0,0-7.33,1.76,13.69,13.69,0,0,0-6.62-1.63l-1,0h-.18l-.79.06A22.09,22.09,0,0,0,633,56.34a14.75,14.75,0,0,0-7.73-2,16.36,16.36,0,0,0-10,3.35,14.62,14.62,0,0,0-2.18,2,27.19,27.19,0,0,0-4-2.42,32.5,32.5,0,0,0-14.45-3.12,31.46,31.46,0,0,0-14.67,3.36c-.41.21-.82.44-1.22.67a13.4,13.4,0,0,0-4.6-2.44,13.67,13.67,0,0,0-3.79-7.46,14.83,14.83,0,0,0-10.86-4.2,16.18,16.18,0,0,0-10.62,3.71A14.59,14.59,0,0,0,544,55.89a15.48,15.48,0,0,0-2.24.93A30,30,0,0,0,536.06,55a39.46,39.46,0,0,0-8.47-.87,33.33,33.33,0,0,0-15.15,3.34,26.76,26.76,0,0,0-5.22,3.43c-.33-.34-.67-.66-1-1-4.38-3.86-10.5-5.82-18.2-5.82a45,45,0,0,0-6.8.5c0-.51.07-1,.07-1.58,0-6.87-4.56-13.8-14.76-13.8H441.6a15.38,15.38,0,0,0-10.66,3.93,15.67,15.67,0,0,0-4.88,10.28v.16l-.18,2.27a23.19,23.19,0,0,0-9.23-1.76,25.59,25.59,0,0,0-9.89,1.91,15.33,15.33,0,0,0-7.35-1.76H399a15.88,15.88,0,0,0,.24-2.78,14.53,14.53,0,0,0-5.07-11.26,17.7,17.7,0,0,0-22,0,15.07,15.07,0,0,0-2.08,2.23,30.08,30.08,0,0,0-14.4-3.27H337.69A15.35,15.35,0,0,0,327,43.21a15.58,15.58,0,0,0-4.88,10.28v.16l-.07.89a17.45,17.45,0,0,0-2.89-.23,16.58,16.58,0,0,0-7.93,1.93,23.73,23.73,0,0,0-10-2.08,25.61,25.61,0,0,0-13.9,3.91,27,27,0,0,0-3.14,2.34c-2.63-2.87-7.45-6.25-15.61-6.25a25.59,25.59,0,0,0-9.89,1.91,15.33,15.33,0,0,0-7.35-1.76c-.37,0-.74,0-1.1,0a16.23,16.23,0,0,0,.24-2.81,14.53,14.53,0,0,0-5.07-11.26,17.7,17.7,0,0,0-22,0h0a16.3,16.3,0,0,0-6.87-1.42,15.93,15.93,0,0,0-10.42,3.66,14.21,14.21,0,0,0-5.13,10.2l-.12,1.54a26.13,26.13,0,0,0-2.83-.15,24.73,24.73,0,0,0-17.58,6.92c-.39-.4-.77-.77-1.15-1.1-4.38-3.86-10.5-5.82-18.19-5.82a38.44,38.44,0,0,0-14.85,2.71,13.35,13.35,0,0,0-8.09-2.58l-1,0h-.18l-.79.06-.8.07c0-.42,0-.86,0-1.32,0-6.9-4.57-13.87-14.76-13.87H86.12c-4.4,0-8,1.15-10.76,3.41C73.13,44.54,70.47,48,70.47,54c0,6.87,4.56,13.8,14.76,13.8h1l-2,25.33A14.61,14.61,0,0,0,88,104.84a14.94,14.94,0,0,0,11.17,4.51,16.41,16.41,0,0,0,9.45-2.82,15.78,15.78,0,0,0,9.36,2.9A16.27,16.27,0,0,0,128.23,106a14.57,14.57,0,0,0,5.48-10.68l0-.58a18.09,18.09,0,0,0,2.57,5.69,20,20,0,0,0,8.06,6.9,23.61,23.61,0,0,0,10.27,2.27A20.71,20.71,0,0,0,163,107.9a15,15,0,0,0,6.76,1.53,15.46,15.46,0,0,0,10.51-3.83c.31-.28.63-.59.95-.94a24.94,24.94,0,0,0,24.35,3,15.62,15.62,0,0,0,7.33,1.72,16,16,0,0,0,8.91-2.56,15.87,15.87,0,0,0,8.86,2.56,16.52,16.52,0,0,0,8.85-2.48,15.65,15.65,0,0,0,8.84,2.48A15.81,15.81,0,0,0,259,105.62a17.74,17.74,0,0,0,1.55-1.58,15.8,15.8,0,0,0,1.11,1.23,15.08,15.08,0,0,0,10.86,4.16,18.46,18.46,0,0,0,2.76-.2,13.68,13.68,0,0,0,7.31,10l.21.11.21.1a35.66,35.66,0,0,0,8.25,2.64,46.08,46.08,0,0,0,8.81.87c9.06,0,16.42-2.22,21.87-6.59a25,25,0,0,0,6.47-7.79,16.57,16.57,0,0,0,5.55.91,16,16,0,0,0,11.09-4.14,16.21,16.21,0,0,0,5-10.62v-.14l.34-4.42h3.8a36,36,0,0,0,10.63-1.47l-.43,5.24v.06a13.81,13.81,0,0,0,4.63,11.83,15.65,15.65,0,0,0,10.33,3.66,16.45,16.45,0,0,0,8.47-2.25A17,17,0,0,0,407,105.62a17.74,17.74,0,0,0,1.55-1.58,15.8,15.8,0,0,0,1.11,1.23,15.08,15.08,0,0,0,10.86,4.16,16.32,16.32,0,0,0,8.8-2.41,15.33,15.33,0,0,0,8.54,2.41,15.74,15.74,0,0,0,11-4.24,16.34,16.34,0,0,0,5-10.5v-.14l.55-6.81h5.69c-.07.74-.1,1.5-.1,2.27a18.37,18.37,0,0,0,3.15,10.4,20,20,0,0,0,8.07,6.9,23.58,23.58,0,0,0,10.27,2.27,20.63,20.63,0,0,0,8.33-1.68,15.1,15.1,0,0,0,6.77,1.53,15,15,0,0,0,11.78-5.12,27.4,27.4,0,0,0,3.77,2.21,32.59,32.59,0,0,0,14.32,3.06,34.39,34.39,0,0,0,7.87-.94,29.12,29.12,0,0,0,7-2.55l.12-.07.11-.07a13.81,13.81,0,0,0,4.4-4,19.79,19.79,0,0,0,1.79,1.91c4.08,3.78,9.62,5.71,16.47,5.71,5.13,0,8.84-.82,11.67-2.57a12.65,12.65,0,0,0,2.07-1.59c.62.37,1.26.71,1.92,1a32.4,32.4,0,0,0,14.44,3.12A31.4,31.4,0,0,0,609,106.22c.74-.39,1.46-.81,2.15-1.25.27.28.56.54.85.8a15.63,15.63,0,0,0,10.33,3.66A16.27,16.27,0,0,0,632.57,106a14.59,14.59,0,0,0,5.48-10.68l1-12.13,1.85-.21a26.53,26.53,0,0,0,3.73-.64l5.43,15.18-2.18,4.35a15.49,15.49,0,0,0-1.66,7,13.8,13.8,0,0,0,4.31,10.09,14,14,0,0,0,9.78,3.93,14.39,14.39,0,0,0,7.71-2.24,15.92,15.92,0,0,0,5.48-6.06l0,0,0,0,20.8-39.59,0-.08,0-.07A14.44,14.44,0,0,0,696,68.25,13.42,13.42,0,0,0,691,57.74Z"></path>
<path id="ball-indigo-100" fill="#e4e2e6" d="M141.6,105.55a10.68,10.68,0,0,0-6.9-2.43,11.24,11.24,0,0,0-1.82.14c-1.73-1.26-3.77-3-6.42-5.31a61.36,61.36,0,0,0,2.44-55.06c7.86-5.83,10.42-7.75,11.12-8.32,7-5.83,7.35-14.72.78-22.67-3.82-4.63-8.17-7-12.93-7h-.11a14.62,14.62,0,0,0-9.37,3.53c-.69.57-3.16,2.82-10.24,9.33a61.33,61.33,0,0,0-70.78,0C30.29,11.22,27.82,9,27.13,8.4a14.62,14.62,0,0,0-9.36-3.53h-.06c-4.81,0-9.17,2.4-13,7-6.57,8-6.26,16.84.78,22.67.7.57,3.26,2.49,11.12,8.32A61.36,61.36,0,0,0,19.06,98c-2.66,2.31-4.7,4.06-6.42,5.31a11.24,11.24,0,0,0-1.82-.14,10.68,10.68,0,0,0-6.9,2.43,11.44,11.44,0,0,0-3.69,11,18.21,18.21,0,0,0,3.94,8.22,18.19,18.19,0,0,0,7.33,5.42,12.9,12.9,0,0,0,4.54.89h.07a10.7,10.7,0,0,0,6.94-2.44,10.86,10.86,0,0,0,3.9-8.14c1.55-1.46,3.68-3.14,6.45-5.33a61.35,61.35,0,0,0,78.72,0c2.77,2.19,4.9,3.87,6.46,5.33a10.9,10.9,0,0,0,3.9,8.15,10.68,10.68,0,0,0,6.9,2.43h.06a12.94,12.94,0,0,0,4.58-.89,18.95,18.95,0,0,0,11.27-13.64A11.44,11.44,0,0,0,141.6,105.55Z"></path>
<path id="text-indigo-100" fill="#e4e2e6" d="M691,52.87a15.29,15.29,0,0,0-9.78-3.51,14.72,14.72,0,0,0-12.5,7,13.79,13.79,0,0,0-12.14-7,16.07,16.07,0,0,0-7.33,1.76,13.69,13.69,0,0,0-6.62-1.63c-.33,0-.66,0-1,0h-.18l-.79.06A22.09,22.09,0,0,0,633,51.47a14.84,14.84,0,0,0-7.73-2,16.36,16.36,0,0,0-10,3.35,14.62,14.62,0,0,0-2.18,2,27.19,27.19,0,0,0-4-2.42,32.5,32.5,0,0,0-14.45-3.12,31.46,31.46,0,0,0-14.67,3.36c-.41.21-.82.44-1.22.67a13.4,13.4,0,0,0-4.6-2.44,13.61,13.61,0,0,0-3.79-7.45,14.83,14.83,0,0,0-10.86-4.2,16.17,16.17,0,0,0-10.62,3.7A14.62,14.62,0,0,0,544,51a14.4,14.4,0,0,0-2.24.92,30,30,0,0,0-5.67-1.79,39.46,39.46,0,0,0-8.47-.87,33.33,33.33,0,0,0-15.15,3.34,27.22,27.22,0,0,0-5.22,3.43c-.33-.34-.67-.66-1-1-4.38-3.86-10.5-5.82-18.2-5.82a45,45,0,0,0-6.8.5c0-.51.07-1,.07-1.58,0-6.86-4.56-13.79-14.76-13.79H441.6a15.33,15.33,0,0,0-10.66,3.93,15.64,15.64,0,0,0-4.88,10.27v.16l-.18,2.27a23.19,23.19,0,0,0-9.23-1.76,25.59,25.59,0,0,0-9.89,1.91,15.33,15.33,0,0,0-7.35-1.76H399a15.88,15.88,0,0,0,.24-2.78,14.53,14.53,0,0,0-5.07-11.26,17.7,17.7,0,0,0-22,.05,15.07,15.07,0,0,0-2.08,2.23,30.07,30.07,0,0,0-14.4-3.26H337.69A15.31,15.31,0,0,0,327,38.35a15.55,15.55,0,0,0-4.88,10.27v.16l-.07.89a17.45,17.45,0,0,0-2.89-.23,16.58,16.58,0,0,0-7.93,1.93,23.73,23.73,0,0,0-10-2.08,25.61,25.61,0,0,0-13.9,3.91,27,27,0,0,0-3.14,2.34c-2.63-2.87-7.45-6.25-15.61-6.25a25.59,25.59,0,0,0-9.89,1.91,15.33,15.33,0,0,0-7.35-1.76c-.37,0-.74,0-1.1,0a16.23,16.23,0,0,0,.24-2.81,14.53,14.53,0,0,0-5.07-11.26,17.7,17.7,0,0,0-22,.05h0a16.46,16.46,0,0,0-6.87-1.41,15.92,15.92,0,0,0-10.42,3.65,14.22,14.22,0,0,0-5.13,10.2l-.12,1.54a26.13,26.13,0,0,0-2.83-.15,25,25,0,0,0-13.94,4,25.6,25.6,0,0,0-3.64,2.9c-.39-.4-.77-.77-1.15-1.1-4.38-3.86-10.5-5.82-18.19-5.82A38.44,38.44,0,0,0,146.33,52a13.35,13.35,0,0,0-8.09-2.58c-.33,0-.67,0-1,0h-.18l-.79.06-.8.07c0-.42,0-.86,0-1.31,0-6.91-4.57-13.87-14.76-13.87H86.12c-4.4,0-8,1.14-10.76,3.41-2.23,1.84-4.89,5.3-4.89,11.34C70.47,56,75,63,85.23,63h1l-2,25.33A14.65,14.65,0,0,0,88,100a15,15,0,0,0,11.17,4.5,16.41,16.41,0,0,0,9.45-2.82,15.78,15.78,0,0,0,9.36,2.9,16.21,16.21,0,0,0,10.21-3.45,14.57,14.57,0,0,0,5.48-10.68l0-.58a18.09,18.09,0,0,0,2.57,5.69,20,20,0,0,0,8.06,6.9,23.61,23.61,0,0,0,10.27,2.27A20.54,20.54,0,0,0,163,103a15,15,0,0,0,6.76,1.53,15.46,15.46,0,0,0,10.51-3.83c.31-.28.63-.59.95-.93a25.91,25.91,0,0,0,2.27,1.55,25.21,25.21,0,0,0,22.08,1.5,15.63,15.63,0,0,0,7.33,1.71,16,16,0,0,0,8.91-2.55,15.94,15.94,0,0,0,8.86,2.55,16.44,16.44,0,0,0,8.85-2.48A16.91,16.91,0,0,0,259,100.75a16.49,16.49,0,0,0,1.55-1.58,14.17,14.17,0,0,0,1.11,1.23,15.08,15.08,0,0,0,10.86,4.16,18.46,18.46,0,0,0,2.76-.2,13.72,13.72,0,0,0,7.31,10l.21.11.21.09a35.66,35.66,0,0,0,8.25,2.64,46.08,46.08,0,0,0,8.81.87c9.06,0,16.42-2.22,21.87-6.59a25,25,0,0,0,6.47-7.79,16.32,16.32,0,0,0,5.55.91,16,16,0,0,0,11.09-4.14,16.21,16.21,0,0,0,5-10.62v-.14l.34-4.42h3.8a36,36,0,0,0,10.63-1.47L364.47,89v.06a13.81,13.81,0,0,0,4.63,11.83,15.65,15.65,0,0,0,10.33,3.66,16.45,16.45,0,0,0,8.47-2.25A17,17,0,0,0,407,100.75a16.49,16.49,0,0,0,1.55-1.58,14.17,14.17,0,0,0,1.11,1.23,15.08,15.08,0,0,0,10.86,4.16,16.23,16.23,0,0,0,8.8-2.41,15.33,15.33,0,0,0,8.54,2.41,15.74,15.74,0,0,0,11-4.24,16.34,16.34,0,0,0,5-10.5v-.14l.55-6.8h5.69c-.07.73-.1,1.49-.1,2.26a18.35,18.35,0,0,0,3.15,10.4,20,20,0,0,0,8.07,6.9,23.58,23.58,0,0,0,10.27,2.27,20.46,20.46,0,0,0,8.33-1.68,15.1,15.1,0,0,0,6.77,1.53,15.43,15.43,0,0,0,10.51-3.83,14.18,14.18,0,0,0,1.27-1.29,27.4,27.4,0,0,0,3.77,2.21,32.59,32.59,0,0,0,14.32,3.06,34.39,34.39,0,0,0,7.87-.94,28.71,28.71,0,0,0,7-2.55l.12-.07.11-.07a13.81,13.81,0,0,0,4.4-4A19.79,19.79,0,0,0,547.79,99c4.08,3.79,9.62,5.71,16.47,5.71,5.13,0,8.84-.82,11.67-2.57a12.65,12.65,0,0,0,2.07-1.59c.62.37,1.26.71,1.92,1a32.4,32.4,0,0,0,14.44,3.12A31.4,31.4,0,0,0,609,101.35c.74-.39,1.46-.8,2.15-1.25.27.28.56.54.85.8a15.63,15.63,0,0,0,10.33,3.66,16.21,16.21,0,0,0,10.21-3.45,14.57,14.57,0,0,0,5.48-10.68l1-12.13,1.85-.21a25.16,25.16,0,0,0,3.73-.64l5.43,15.18L647.87,97a15.5,15.5,0,0,0-1.66,7A13.8,13.8,0,0,0,650.52,114,14,14,0,0,0,660.3,118a14.39,14.39,0,0,0,7.71-2.24,15.85,15.85,0,0,0,5.48-6.06l0,0,0,0L694.33,70l0-.07,0-.08A14.41,14.41,0,0,0,696,63.38,13.42,13.42,0,0,0,691,52.87Z"></path>
<path id="ball-white" fill="#ffffff" d="M141.6,100.68a10.68,10.68,0,0,0-6.9-2.43,11.24,11.24,0,0,0-1.82.14c-1.73-1.25-3.77-3-6.42-5.31A61.36,61.36,0,0,0,128.9,38c7.86-5.83,10.42-7.75,11.12-8.32,7-5.83,7.35-14.72.78-22.67-3.82-4.62-8.17-7-12.93-7h-.11a14.62,14.62,0,0,0-9.37,3.53c-.69.57-3.16,2.82-10.24,9.33a61.33,61.33,0,0,0-70.78,0C30.29,6.35,27.82,4.1,27.13,3.53A14.62,14.62,0,0,0,17.77,0h-.06c-4.81,0-9.17,2.41-13,7-6.57,8-6.26,16.84.78,22.67.7.57,3.26,2.49,11.12,8.32a61.36,61.36,0,0,0,2.44,55.06c-2.66,2.31-4.7,4.06-6.42,5.31a11.24,11.24,0,0,0-1.82-.14,10.68,10.68,0,0,0-6.9,2.43,11.44,11.44,0,0,0-3.69,11A18.21,18.21,0,0,0,4.17,120a18.19,18.19,0,0,0,7.33,5.42,12.9,12.9,0,0,0,4.54.89h.07a10.7,10.7,0,0,0,6.94-2.44,10.86,10.86,0,0,0,3.9-8.14c1.55-1.46,3.68-3.14,6.45-5.33a61.35,61.35,0,0,0,78.72,0c2.77,2.19,4.9,3.87,6.46,5.33a10.88,10.88,0,0,0,3.9,8.15,10.68,10.68,0,0,0,6.9,2.43h.06a12.94,12.94,0,0,0,4.58-.89,18.95,18.95,0,0,0,11.27-13.64A11.44,11.44,0,0,0,141.6,100.68Z"></path>
<g id="bats">
<path id="white" fill="#ffffff" d="M136.78,106.52c-1.11-.92-2.79-.93-4.61,0a7.46,7.46,0,0,1-2.74-1.25,95.28,95.28,0,0,1-8.27-6.7c-1.71-1.49-3.65-3.17-5.91-5.06-7.4-6.22-20-17.49-33.55-29.77,13.7-10.26,27.42-20.43,37.47-27.88,9.19-6.82,15.27-11.32,16-12,2.15-1.77,5-5.7-.23-12-2.33-2.83-4.74-4.27-7.15-4.29a7.06,7.06,0,0,0-4.6,1.8c-.76.62-6.35,5.77-14.82,13.55-9.5,8.73-22.58,20.76-35.63,32.64C59.71,43.68,46.63,31.65,37.13,22.92,28.66,15.14,23.07,10,22.31,9.37a7.06,7.06,0,0,0-4.6-1.8c-2.41,0-4.82,1.46-7.15,4.29-5.21,6.3-2.38,10.23-.23,12,.75.63,6.83,5.13,16,12,10,7.45,23.77,17.62,37.47,27.88C50.27,76,37.67,87.24,30.27,93.46,28,95.35,26.07,97,24.36,98.52a95.28,95.28,0,0,1-8.27,6.7,7.46,7.46,0,0,1-2.74,1.25c-1.82-.88-3.5-.87-4.61,0a3.93,3.93,0,0,0-1.06,3.89A10.47,10.47,0,0,0,10,115.12a10.5,10.5,0,0,0,4.19,3.18,5.3,5.3,0,0,0,1.91.39,3.18,3.18,0,0,0,2.11-.7c1.11-.92,1.44-2.56.92-4.51A7.3,7.3,0,0,1,20.88,111a93.18,93.18,0,0,1,8.17-6.88c1.77-1.4,3.78-3,6.05-4.83C43,92.92,57.33,82,72.76,70.38,88.19,82,102.56,92.92,110.42,99.31c2.27,1.85,4.28,3.43,6,4.83a93.18,93.18,0,0,1,8.17,6.88,7.3,7.3,0,0,1,1.74,2.46c-.52,2-.19,3.59.92,4.51a3.18,3.18,0,0,0,2.11.7,5.3,5.3,0,0,0,1.91-.39,11.48,11.48,0,0,0,6.52-7.89A3.93,3.93,0,0,0,136.78,106.52Z"></path>
<path id="blue" fill="#016bc1" d="M138.5,104.43a5.88,5.88,0,0,0-3.8-1.31,8.06,8.06,0,0,0-2.67.48,6.61,6.61,0,0,1-1.09-.63,89.48,89.48,0,0,1-8-6.48c-1.73-1.5-3.68-3.19-6-5.1-6.11-5.14-16.55-14.38-31-27.5,12.88-9.63,25.5-19,34.84-25.91,10.35-7.67,15.36-11.39,16.14-12,4.91-4.06,5-10,.13-15.82-2.87-3.46-6-5.23-9.22-5.26h-.07a9.7,9.7,0,0,0-6.27,2.41c-.78.65-5.36,4.85-14.8,13.54l-.15.13c-9.06,8.33-21.35,19.62-33.78,31C60.33,40.57,48,29.27,39,21l-.14-.13C29.39,12.13,24.81,7.93,24,7.28a9.7,9.7,0,0,0-6.26-2.41h-.06c-3.27,0-6.37,1.8-9.24,5.26C3.65,16,3.69,21.89,8.6,26c.78.64,5.79,4.36,16.14,12,9.34,6.93,22,16.29,34.84,25.91-14.5,13.12-24.94,22.36-31,27.5-2.28,1.91-4.23,3.6-5.94,5.08a89.37,89.37,0,0,1-8,6.5,6.61,6.61,0,0,1-1.09.63,8,8,0,0,0-2.67-.48A5.88,5.88,0,0,0,7,104.43a6.6,6.6,0,0,0-2,6.45,14.05,14.05,0,0,0,8.21,9.94,8.08,8.08,0,0,0,2.85.57h.06a5.84,5.84,0,0,0,3.8-1.32,6.46,6.46,0,0,0,2-6.2,8.27,8.27,0,0,1,.82-1,94.76,94.76,0,0,1,7.9-6.65c1.79-1.4,3.79-3,6.11-4.87,6.6-5.36,18.69-14.66,36-27.64C90,86.74,102.11,96,108.71,101.4c2.32,1.89,4.41,3.54,6.09,4.86a94,94,0,0,1,7.92,6.66,8.27,8.27,0,0,1,.82,1,6.45,6.45,0,0,0,2,6.2,5.84,5.84,0,0,0,3.8,1.32h.06a8.08,8.08,0,0,0,2.85-.57,14.05,14.05,0,0,0,8.21-9.94A6.6,6.6,0,0,0,138.5,104.43Zm-43.61-27a9.11,9.11,0,0,1-1.13,2.13L78.48,67l2.68-2C85.92,69.34,90.56,73.53,94.89,77.4ZM109.3,23.92l9.23-8.48.82-.58a18.88,18.88,0,0,1,2-1.19,9,9,0,0,1,1.07-.45c.34-.12.77-.18.8,0a1.34,1.34,0,0,1-.13.95,6,6,0,0,1-.54,1,18,18,0,0,1-1.4,1.85c-1,1.19-2.11,2.32-3.22,3.42-2.22,2.22-4.54,4.33-6.91,6.4s-4.75,4.12-7.23,6c-1.23,1-2.49,1.9-3.79,2.78-.65.43-1.31.86-2,1.23-.34.19-.68.37-1,.53a1.84,1.84,0,0,1-1,.25c-.13,0-.09-.25,0-.43a2.84,2.84,0,0,1,.25-.53,4.27,4.27,0,0,1,.3-.44l-.33.42a4.26,4.26,0,0,0-.32.5,1,1,0,0,0-.11.3.33.33,0,0,0,.12.35,1.6,1.6,0,0,0,1.26-.08,8.44,8.44,0,0,0,1.11-.48c.71-.36,1.39-.76,2.07-1.18,1.35-.83,2.65-1.72,3.94-2.64,2.55-1.87,5-3.87,7.39-5.94s4.66-4.26,6.87-6.53c1.08-1.15,2.15-2.33,3.13-3.57a18.27,18.27,0,0,0,1.38-2,5.86,5.86,0,0,0,.55-1.09,1.7,1.7,0,0,0,.07-1.34.55.55,0,0,0-.13-.17.53.53,0,0,0-.2-.13.87.87,0,0,0-.38,0,2.9,2.9,0,0,0-.63.17,7.73,7.73,0,0,0-1.06.58c-.67.43-1.29.92-1.92,1.39l-.76.57c3.1-2.83,5.1-4.66,5.5-5,3.11-2.57,6.47-1.78,9.85,2.31A11.75,11.75,0,0,1,136.37,17a1.67,1.67,0,0,1-.28,1.56c-.72.6-2.85-.56-5.23-3.22.2,1.58-.36,3.57-2.31,5.78-1.79,1.95-3.43,2.1-3.23,1.35q.51-.65,1-1.32a19.18,19.18,0,0,0,2.2-3.9,7,7,0,0,0,.46-4.38,6.93,6.93,0,0,1-.82,4.23,20.19,20.19,0,0,1-2.37,3.65,57.59,57.59,0,0,1-6.07,6.33c-4.33,3.94-9,7.57-13.54,11.32l-27,22-1-.94c8.25-6.76,16.5-13.51,24.67-20.37L110,33q3.53-3.09,7-6.24a62.49,62.49,0,0,0,6.68-6.64,18.68,18.68,0,0,0,2.57-4,8.63,8.63,0,0,0,.74-2.27,3.57,3.57,0,0,0-.24-2.33,3.71,3.71,0,0,1-.06,2.26,10,10,0,0,1-.91,2.1,22.94,22.94,0,0,1-2.73,3.7A68.19,68.19,0,0,1,116.3,26c-2.35,2-4.72,4.07-7.1,6.09l-7.13,6.08c-8.19,6.89-16.49,13.67-24.79,20.46l-3-2.69C87.16,44.27,100,32.5,109.3,23.92ZM75.63,60l-2.47,2-.4.33-.4-.33-2.47-2,2.87-2.62ZM39.35,38.44c-4.55-3.75-9.21-7.38-13.54-11.32a57.59,57.59,0,0,1-6.07-6.33,20.19,20.19,0,0,1-2.37-3.65,6.93,6.93,0,0,1-.82-4.23A7.11,7.11,0,0,0,17,17.29a19.18,19.18,0,0,0,2.2,3.9q.48.68,1,1.32c.2.75-1.44.6-3.23-1.35C15,19,14.47,17,14.66,15.38,12.28,18,10.15,19.2,9.43,18.6A1.67,1.67,0,0,1,9.15,17a11.75,11.75,0,0,1,2.45-4.32c3.38-4.09,6.74-4.88,9.85-2.31.4.33,2.4,2.16,5.5,5l-.76-.57c-.63-.47-1.25-1-1.92-1.39a7.73,7.73,0,0,0-1.06-.58,2.9,2.9,0,0,0-.63-.17.87.87,0,0,0-.38,0,.53.53,0,0,0-.2.13.55.55,0,0,0-.13.17,1.7,1.7,0,0,0,.07,1.34,5.86,5.86,0,0,0,.55,1.09,18.27,18.27,0,0,0,1.38,2c1,1.24,2.05,2.42,3.13,3.57,2.21,2.27,4.52,4.42,6.87,6.53s4.84,4.07,7.39,5.94c1.29.92,2.59,1.81,3.94,2.64.68.42,1.36.82,2.08,1.18a7.78,7.78,0,0,0,1.1.48,1.6,1.6,0,0,0,1.26.08.33.33,0,0,0,.12-.35,1,1,0,0,0-.11-.3,4.26,4.26,0,0,0-.32-.5L49,36.28a4.27,4.27,0,0,1,.3.44,2.84,2.84,0,0,1,.25.53c.06.18.1.39,0,.43a1.85,1.85,0,0,1-1-.25c-.35-.16-.69-.34-1-.53-.68-.37-1.34-.8-2-1.23-1.3-.88-2.56-1.82-3.79-2.78-2.48-1.92-4.9-3.93-7.23-6s-4.69-4.18-6.91-6.4c-1.11-1.1-2.21-2.23-3.22-3.42a18,18,0,0,1-1.4-1.85,6,6,0,0,1-.54-1,1.34,1.34,0,0,1-.13-.95c0-.2.46-.14.81,0a9.61,9.61,0,0,1,1.06.45,18.88,18.88,0,0,1,2,1.19l.82.58,9.23,8.48C45.56,32.5,58.36,44.27,71.2,56l-3,2.69c-8.3-6.79-16.6-13.57-24.79-20.46l-7.13-6.08c-2.38-2-4.75-4-7.1-6.09a68.19,68.19,0,0,1-6.71-6.44,22.94,22.94,0,0,1-2.73-3.7,10,10,0,0,1-.91-2.1,3.71,3.71,0,0,1-.06-2.26,3.57,3.57,0,0,0-.24,2.33,8.63,8.63,0,0,0,.74,2.27,18.68,18.68,0,0,0,2.57,4,63.43,63.43,0,0,0,6.68,6.64q3.48,3.15,7,6.24l7.14,6.07c8.17,6.86,16.42,13.61,24.67,20.37l-1,.94ZM64.36,65,67,67,51.76,79.53a9.11,9.11,0,0,1-1.13-2.13C55,73.53,59.6,69.34,64.36,65ZM12.72,114.24a1.27,1.27,0,0,1-1.51.2c-.05-.06-.11-.11-.16-.18a9.17,9.17,0,0,1-2-4.09,2.68,2.68,0,0,1,.59-2.61,2.26,2.26,0,0,1,1.88-.31c-.7,1.28-.12,3.45,1.5,5.42l.13.14A1.45,1.45,0,0,1,12.72,114.24Zm3.15-1.93a1.34,1.34,0,0,1-1.49-.1l-.36-.4c-1.25-1.53-1.7-3.15-1.4-3.86a8.59,8.59,0,0,0,2.05-.46,3.15,3.15,0,0,0,.09,1.19,6.65,6.65,0,0,0,1.08,2.2C16.18,111.36,16.24,112.05,15.87,112.31Zm2.26-2.76c-.32.3-.58.56-.82.81L17,110a7.84,7.84,0,0,1-1.16-1.67,3,3,0,0,1-.31-1.19,14.39,14.39,0,0,0,1.33-.79l.84-.58a2,2,0,0,0,0,.54,4.84,4.84,0,0,0,.76,1.92A1,1,0,0,1,18.13,109.55Zm3.16-2.74L20,107.89c-.12-.18-.25-.34-.38-.5a5.09,5.09,0,0,1-.86-1.33,1.81,1.81,0,0,1-.1-1c.62-.47,1.26-1,1.94-1.54a1.24,1.24,0,0,0,0,.27,4.11,4.11,0,0,0,.77,1.87A.94.94,0,0,1,21.29,106.81Zm2.9-2.4-1.17,1c-.17-.23-.34-.43-.51-.62a4,4,0,0,1-.85-1.23,2,2,0,0,1-.13-.81c.66-.55,1.36-1.15,2.1-1.79a1.88,1.88,0,0,0,0,.34,3.93,3.93,0,0,0,.76,1.88A1,1,0,0,1,24.19,104.41Zm3.06-2.49c-.42.33-.82.66-1.21,1a6.76,6.76,0,0,0-.51-.62,3.87,3.87,0,0,1-.83-1.23,2.1,2.1,0,0,1-.13-.93l.67-.58,1.16-1a2.32,2.32,0,0,0,.05.38,4.74,4.74,0,0,0,.83,1.85,1.88,1.88,0,0,1,.16.23A.63.63,0,0,1,27.25,101.92Zm2.91-2.36-1.23,1a6.11,6.11,0,0,0-.53-.66,4.87,4.87,0,0,1-.92-1.27,2,2,0,0,1-.2-.85l2-1.7c0,.08,0,.17,0,.25a5.86,5.86,0,0,0,.83,1.9l.19.32A.84.84,0,0,1,30.16,99.56Zm2.92-2.35-1.22,1c-.19-.28-.4-.53-.59-.77a7.44,7.44,0,0,1-1-1.4,1.73,1.73,0,0,1-.16-.69l1-.84,1.09-.92c0,.13,0,.25,0,.37a5.66,5.66,0,0,0,.8,1.93c0,.1.11.18.16.27A.74.74,0,0,1,33.08,97.21ZM36,94.88l-1.18,1c-.19-.27-.38-.53-.57-.76a6.6,6.6,0,0,1-.93-1.41,2.16,2.16,0,0,1-.17-.86l2-1.71a1.42,1.42,0,0,0,0,.36,5.94,5.94,0,0,0,.8,2l.21.33A.88.88,0,0,1,36,94.88Zm2.91-2.32-1.14.9a9.15,9.15,0,0,0-.6-.82,6.86,6.86,0,0,1-.95-1.48,2.23,2.23,0,0,1-.19-.83l2-1.77a2.84,2.84,0,0,0,.05.42,5.69,5.69,0,0,0,.82,2l.26.43A.86.86,0,0,1,38.89,92.56Zm3-2.42-1.21,1c-.21-.32-.43-.61-.65-.89a7,7,0,0,1-1-1.49,2.56,2.56,0,0,1-.17-.94l2-1.75a2.42,2.42,0,0,0,0,.47,6,6,0,0,0,.86,2.08l.29.49A.83.83,0,0,1,41.92,90.14Zm3-2.35-1.21.95a10,10,0,0,0-.68-.95,6.81,6.81,0,0,1-1-1.57,2.54,2.54,0,0,1-.19-1l2-1.75a2.92,2.92,0,0,0,0,.51,5.24,5.24,0,0,0,1,2.18,4.81,4.81,0,0,1,.34.49A.81.81,0,0,1,44.88,87.79Zm2.87-2.28-1,.78-.09.07a8.61,8.61,0,0,0-.8-1,5.09,5.09,0,0,1-1-1.58,2.68,2.68,0,0,1-.15-1.05l2-1.78a2.56,2.56,0,0,0,.07.62,6.4,6.4,0,0,0,.94,2.2c.12.18.23.37.34.55A.88.88,0,0,1,47.75,85.51Zm3.9-3.1L49.6,84A12.25,12.25,0,0,0,48.82,83a6.8,6.8,0,0,1-1.07-1.68,2.36,2.36,0,0,1-.18-1.14l2.13-1.89A10.7,10.7,0,0,0,51.35,81l.37.42A.61.61,0,0,1,51.65,82.41Zm17-13.47L53.19,81.19a10,10,0,0,1-.77-.82Q60.21,74.07,68,67.74l1.11.84ZM68,61.73l1-.94,2.6,2.13.22.19L70.77,64Zm4.77,3.87-1.07-.87,1.07-.88,1.08.88Zm.92-2.49.22-.19,2.6-2.13,1,.94L74.75,64ZM92.33,81.19,76.87,68.94l-.45-.36,1.11-.84Q85.3,74.09,93.1,80.37A10,10,0,0,1,92.33,81.19ZM95.92,84l-2-1.63a.61.61,0,0,1-.07-1l.37-.42a11,11,0,0,0,1.66-2.72L98,80.13a2.36,2.36,0,0,1-.18,1.14A6.8,6.8,0,0,1,96.7,83,12.25,12.25,0,0,0,95.92,84Zm2.93,2.32-.09-.07-1-.78a.88.88,0,0,1-.28-1.21c.11-.18.22-.37.34-.55a6.4,6.4,0,0,0,.94-2.2,2.56,2.56,0,0,0,.07-.62l2,1.78a2.68,2.68,0,0,1-.15,1.05,5.09,5.09,0,0,1-1,1.58A8.61,8.61,0,0,0,98.85,86.36Zm3,2.38-1.2-.95a.8.8,0,0,1-.25-1.11,4.81,4.81,0,0,1,.34-.49,5.24,5.24,0,0,0,1-2.18,4.4,4.4,0,0,0,0-.51l2,1.75a2.54,2.54,0,0,1-.19,1,6.81,6.81,0,0,1-1,1.57C102.31,88.08,102.06,88.4,101.85,88.74Zm3,2.36-1.21-1a.83.83,0,0,1-.21-1.07l.29-.49a6,6,0,0,0,.86-2.08,2.42,2.42,0,0,0,0-.47l2,1.75a2.56,2.56,0,0,1-.17.94,7,7,0,0,1-1,1.49C105.24,90.49,105,90.78,104.81,91.1Zm3.56,1.54a9.15,9.15,0,0,0-.6.82l-1.14-.9a.86.86,0,0,1-.28-1.13l.26-.43a5.69,5.69,0,0,0,.82-2,2.84,2.84,0,0,0,0-.42l2,1.77a2.23,2.23,0,0,1-.19.83A6.86,6.86,0,0,1,108.37,92.64Zm2.36,3.19-1.19-1a.88.88,0,0,1-.21-1.11l.21-.33a5.94,5.94,0,0,0,.8-2,1.42,1.42,0,0,0,0-.36l2,1.71a2.16,2.16,0,0,1-.17.86,6.6,6.6,0,0,1-.93,1.41A9.35,9.35,0,0,0,110.73,95.83Zm3.52,1.59c-.19.24-.4.49-.59.77l-1.22-1a.74.74,0,0,1-.15-1.07c0-.09.11-.17.16-.27a5.66,5.66,0,0,0,.8-1.93,2.21,2.21,0,0,0,0-.37l1.09.92,1,.84a1.73,1.73,0,0,1-.16.69A7.44,7.44,0,0,1,114.25,97.42Zm2.34,3.13-1.23-1a.84.84,0,0,1-.17-1l.19-.32a5.86,5.86,0,0,0,.83-1.9c0-.08,0-.17,0-.25l2,1.7a2,2,0,0,1-.2.85,4.87,4.87,0,0,1-.92,1.27A6.11,6.11,0,0,0,116.59,100.55Zm4.23.5a3.87,3.87,0,0,1-.83,1.23,6.76,6.76,0,0,0-.51.62c-.39-.32-.79-.65-1.21-1a.63.63,0,0,1-.19-.92,1.88,1.88,0,0,1,.16-.23,4.74,4.74,0,0,0,.83-1.85,2.32,2.32,0,0,0,.05-.38l1.16,1,.67.58A2.1,2.1,0,0,1,120.82,101.05Zm2.19,3.71c-.17.19-.34.39-.51.62l-1.17-1a1,1,0,0,1-.22-1.26,3.93,3.93,0,0,0,.76-1.88,1.88,1.88,0,0,0,0-.34c.74.64,1.44,1.24,2.1,1.79a2,2,0,0,1-.13.81A4,4,0,0,1,123,104.76Zm3.74,1.3a5.09,5.09,0,0,1-.86,1.33c-.13.16-.26.32-.38.5l-1.28-1.08a.94.94,0,0,1-.12-1.18,4.11,4.11,0,0,0,.77-1.87,1.24,1.24,0,0,0,0-.27c.68.55,1.32,1.07,1.94,1.54A1.81,1.81,0,0,1,126.75,106.06Zm1.79,3.93-.33.37c-.24-.25-.5-.51-.82-.81a1,1,0,0,1-.32-1.33,4.84,4.84,0,0,0,.76-1.92,2,2,0,0,0,0-.54l.84.58a14.39,14.39,0,0,0,1.33.79,3,3,0,0,1-.31,1.19A7.84,7.84,0,0,1,128.54,110Zm3,1.82-.36.4a1.34,1.34,0,0,1-1.49.1c-.37-.26-.31-1,0-1.43a6.65,6.65,0,0,0,1.08-2.2,3.15,3.15,0,0,0,.09-1.19,8.59,8.59,0,0,0,2.05.46C133.2,108.66,132.75,110.28,131.5,111.81Zm5-1.64a9.17,9.17,0,0,1-2,4.09c-.05.07-.11.12-.16.18a1.27,1.27,0,0,1-1.51-.2,1.45,1.45,0,0,1-.39-1.43l.13-.14c1.62-2,2.2-4.14,1.5-5.42a2.25,2.25,0,0,1,1.88.31A2.68,2.68,0,0,1,136.51,110.17Z"></path>
</g>
<g id="ball">
<circle id="white-2" data-name="white" fill="#ffffff" cx="72.76" cy="63.13" r="52.61" transform="translate(-16.84 98.51) rotate(-62.5)"></circle>
<path id="blue-2" data-name="blue" fill="#016bc1" d="M72.76,6.49A56.64,56.64,0,1,0,129.4,63.13,56.71,56.71,0,0,0,72.76,6.49Zm0,106.78A50.14,50.14,0,1,1,122.9,63.13,50.14,50.14,0,0,1,72.76,113.27Z"></path>
<path id="laces" fill="#E80087" d="M72.05,81.8a.45.45,0,0,1,0,.28L70.4,88.35a.5.5,0,0,1-.44.36l-2.53.19h0a.46.46,0,0,1-.36-.17.48.48,0,0,1-.12-.41s.32-1.61.68-3.19c.3-1.3.63-2.61.75-3-.17-.42-.68-1.65-1.21-2.86-.65-1.48-1.36-3-1.37-3a.48.48,0,0,1,0-.45.51.51,0,0,1,.38-.25l1.5-.13.36,0,.7-.06.47,0h0a.47.47,0,0,1,.45.29s.66,1.57,1.25,3.1S72,81.78,72.05,81.8ZM46.31,88.2,41.2,84.66a.47.47,0,0,0-.59,0l-2.28,1.93a.49.49,0,0,0-.17.41.52.52,0,0,0,.23.38l5,3.07,2.17,5.41a.51.51,0,0,0,.32.29l.14,0a.42.42,0,0,0,.28-.1L48,94.84a.47.47,0,0,0,.18-.53L46.5,88.46A.51.51,0,0,0,46.31,88.2Zm39.76-4.93s-.17-1.63-.4-3.25-.5-3.26-.51-3.27a.48.48,0,0,0-.39-.4l-1.51-.26-1.5-.23h-.07a.5.5,0,0,0-.35.14.47.47,0,0,0-.13.42l1,6.17-2.82,5.72a.49.49,0,0,0,0,.44.52.52,0,0,0,.35.26l2.65.46h.08a.51.51,0,0,0,.44-.26s.72-1.44,1.5-2.84S86,83.59,86,83.57A.51.51,0,0,0,86.07,83.27Zm-8.95-7.92-.51,0-.5,0-.54,0-1.51,0h0a.48.48,0,0,0-.39.19.46.46,0,0,0-.08.44L75.47,82l-2.21,6a.46.46,0,0,0,0,.44.45.45,0,0,0,.38.21l2.58.1h0a.48.48,0,0,0,.45-.31s.56-1.53,1.16-3,1.26-3,1.27-3a.59.59,0,0,0,0-.32l-1.67-6.4A.49.49,0,0,0,77.12,75.35Zm-22.76,2.9a.47.47,0,0,0-.39-.2.51.51,0,0,0-.17,0l-2.91,1a.48.48,0,0,0-.22.76l3.94,4.89.14,6.17a.5.5,0,0,0,.2.39.52.52,0,0,0,.29.09l.14,0,2.29-.72a.51.51,0,0,0,.35-.45l.2-6.38a.53.53,0,0,0-.09-.3Zm9.11,1.1c-.76-1.45-1.59-2.89-1.6-2.91a.49.49,0,0,0-.42-.24H61.4a4.41,4.41,0,0,0-.53.1l-1,.21-1.49.32a.52.52,0,0,0-.34.29.45.45,0,0,0,0,.45S59,79,59.77,80.34c.68,1.12,1.32,2.27,1.54,2.66-.07.45-.24,1.78-.38,3.09-.17,1.59-.29,3.19-.29,3.21a.5.5,0,0,0,.16.4.49.49,0,0,0,.32.12h.1l1.2-.23.25,0,.57-.11a2,2,0,0,1,.32,0,.5.5,0,0,0,.45-.43s.2-1.59.44-3.16.55-3.18.55-3.2a.45.45,0,0,0,0-.3S64.24,80.79,63.47,79.35ZM51.78,85.6,47.33,81a.48.48,0,0,0-.58-.09L44,82.47a.51.51,0,0,0-.25.38.53.53,0,0,0,.17.42l4.6,4c.14.85.74,4.49.85,5l.22.94h0a.56.56,0,0,0,.13.24.49.49,0,0,0,.34.14.48.48,0,0,0,.24-.06l.08-.06c.21-.12,1.14-.55,2-.93a.48.48,0,0,0,.28-.5l-.68-6.22A.46.46,0,0,0,51.78,85.6Zm60.85,8a.49.49,0,0,0-.37-.31h-.08a.51.51,0,0,0-.37.16L108,97.81l-5.31,1a.49.49,0,0,0-.35.29.5.5,0,0,0,0,.46l1,1.59a.48.48,0,0,0,.41.22h1.88a.53.53,0,0,0,.32-.12,51.05,51.05,0,0,0,6.63-7,.49.49,0,0,0,.07-.47Zm-10-66.19,5.31,1,3.83,4.36a.48.48,0,0,0,.37.17h.08a.5.5,0,0,0,.37-.3l.09-.23a.49.49,0,0,0-.07-.47A51,51,0,0,0,106,25a.47.47,0,0,0-.32-.12h-1.88a.49.49,0,0,0-.41.21l-1,1.6a.48.48,0,0,0,0,.45A.49.49,0,0,0,102.67,27.41ZM98.46,87.69l.83-6.29a.48.48,0,0,0-.27-.5L96.4,79.65a.41.41,0,0,0-.21-.05.53.53,0,0,0-.24.06.47.47,0,0,0-.24.38l-.63,6.12L91,90.76a.49.49,0,0,0-.12.43.52.52,0,0,0,.29.34l2.16.92a.63.63,0,0,0,.19,0,.47.47,0,0,0,.34-.13L98.32,88A.47.47,0,0,0,98.46,87.69ZM35.07,30.57h0l3.06-.21a.5.5,0,0,0,.32-.15l3.88-4a.47.47,0,0,0,.09-.55l-.61-1.31a.5.5,0,0,0-.45-.27.47.47,0,0,0-.17,0,15.2,15.2,0,0,0-1.59.76l-.09.06a51.21,51.21,0,0,0-4.84,4.82.51.51,0,0,0-.07.54A.49.49,0,0,0,35.07,30.57Zm72.47,65.69,3.25-5.1a.48.48,0,0,0,0-.57l-2-2.41a.48.48,0,0,0-.37-.17h-.05a.48.48,0,0,0-.38.25l-2.73,5.11-5.29,2.34a.48.48,0,0,0-.28.35.49.49,0,0,0,.12.43L101.21,98a.51.51,0,0,0,.36.15.34.34,0,0,0,.14,0l5.56-1.69A.45.45,0,0,0,107.54,96.26Zm-3.92-4.84,1.91-5.91a.47.47,0,0,0-.17-.54L103,83.24a.48.48,0,0,0-.28-.1.41.41,0,0,0-.16,0,.47.47,0,0,0-.31.33l-1.67,5.77L95.9,93a.49.49,0,0,0-.18.41.48.48,0,0,0,.22.39L97.82,95a.52.52,0,0,0,.52,0l5.08-3.28A.52.52,0,0,0,103.62,91.42Zm-11-6.33-.09-6.45a.5.5,0,0,0-.34-.46l-2.9-.92-.15,0a.45.45,0,0,0-.29.1.46.46,0,0,0-.19.4L88.9,84l-3.46,5.26a.44.44,0,0,0,0,.43.46.46,0,0,0,.32.3l2.47.71.13,0a.5.5,0,0,0,.39-.2l3.81-5.14A.47.47,0,0,0,92.61,85.09ZM64,37.32a.5.5,0,0,0-.45-.43,2,2,0,0,1-.31,0l-.13,0-.7-.14-1.2-.23h-.1a.5.5,0,0,0-.32.13.48.48,0,0,0-.16.39s.12,1.62.29,3.22c.14,1.3.31,2.63.38,3.08-.22.39-.86,1.54-1.53,2.66-.82,1.38-1.71,2.75-1.72,2.77a.45.45,0,0,0,0,.45.47.47,0,0,0,.34.29l1.49.32.89.19.14,0a4.22,4.22,0,0,0,.52.09h.05a.5.5,0,0,0,.42-.25s.84-1.46,1.6-2.9S65,44,65,44a.47.47,0,0,0,0-.31s-.3-1.62-.55-3.19S64,37.34,64,37.32ZM50.58,46.83a.53.53,0,0,0,.31.33l2.91,1,.17,0a.47.47,0,0,0,.39-.2l3.77-5.29a.53.53,0,0,0,.09-.3L58,36.05a.49.49,0,0,0-.35-.45l-2.29-.72a.32.32,0,0,0-.14,0A.52.52,0,0,0,55,35a.48.48,0,0,0-.2.38l-.14,6.17-3.94,4.89A.5.5,0,0,0,50.58,46.83Zm-6.87-3.41a.51.51,0,0,0,.25.37l2.79,1.52a.48.48,0,0,0,.58-.09l4.45-4.55a.51.51,0,0,0,.13-.29l.68-6.22a.48.48,0,0,0-.28-.5c-.83-.38-1.77-.81-2-.93l-.08,0a.5.5,0,0,0-.24-.06.45.45,0,0,0-.34.14.5.5,0,0,0-.13.25h0l-.21.92c-.12.52-.72,4.16-.86,5L43.88,43A.51.51,0,0,0,43.71,43.42ZM70,37.55l-2.53-.19h0a.48.48,0,0,0-.36.16.49.49,0,0,0-.12.42s.32,1.61.68,3.19c.3,1.29.63,2.6.75,3-.17.41-.68,1.64-1.21,2.85-.65,1.48-1.36,3-1.37,3a.48.48,0,0,0,0,.45.51.51,0,0,0,.38.25l1.5.14,1,.09.49,0h0a.48.48,0,0,0,.45-.3s.66-1.56,1.25-3.09,1.13-3.09,1.14-3.1a.48.48,0,0,0,0-.29L70.4,37.91A.52.52,0,0,0,70,37.55ZM38.48,96.05a.5.5,0,0,0-.32-.15l-3.06-.2h0a.48.48,0,0,0-.37.8,50.15,50.15,0,0,0,4.85,4.82.16.16,0,0,0,.08.06,15.2,15.2,0,0,0,1.59.76.35.35,0,0,0,.17,0,.51.51,0,0,0,.45-.28l.61-1.31a.47.47,0,0,0-.09-.55ZM77.91,40.84c-.61-1.49-1.16-3-1.17-3a.48.48,0,0,0-.45-.32h0l-2.58.1a.45.45,0,0,0-.38.21.46.46,0,0,0,0,.44l2.21,6-1.89,6.13a.46.46,0,0,0,.08.44.49.49,0,0,0,.39.2h0L75.57,51l.65,0h.39a4.86,4.86,0,0,0,.51,0,.49.49,0,0,0,.41-.36l1.67-6.39a.58.58,0,0,0,0-.32S78.5,42.32,77.91,40.84Zm-39.52-2a.48.48,0,0,0-.06.78l2.28,1.94a.51.51,0,0,0,.31.11.47.47,0,0,0,.28-.09l5.11-3.53a.58.58,0,0,0,.19-.27L48.19,32a.48.48,0,0,0-.18-.53l-1.73-1.26a.48.48,0,0,0-.28-.1l-.14,0a.51.51,0,0,0-.32.29l-2.17,5.41ZM100.59,37l1.67,5.78a.47.47,0,0,0,.31.32.41.41,0,0,0,.16,0A.42.42,0,0,0,103,43l2.35-1.72a.48.48,0,0,0,.17-.54l-1.91-5.92a.55.55,0,0,0-.2-.25l-5.08-3.28a.42.42,0,0,0-.26-.08.48.48,0,0,0-.26.07l-1.88,1.19a.45.45,0,0,0-.22.38.49.49,0,0,0,.18.41ZM82.2,43.67l-1,6.17a.46.46,0,0,0,.13.42.47.47,0,0,0,.35.15h.07l1.5-.22,1.51-.27a.47.47,0,0,0,.39-.39s.29-1.67.51-3.28.4-3.23.4-3.25a.52.52,0,0,0-.06-.3s-.85-1.41-1.61-2.8-1.5-2.82-1.5-2.83a.5.5,0,0,0-.44-.27h-.08l-2.65.46a.48.48,0,0,0-.35.69ZM95.08,40.1l.63,6.13a.47.47,0,0,0,.24.37.53.53,0,0,0,.24.06.52.52,0,0,0,.21,0L99,45.36a.48.48,0,0,0,.27-.5l-.83-6.29a.42.42,0,0,0-.14-.28l-4.47-4.37a.48.48,0,0,0-.34-.14.43.43,0,0,0-.19,0l-2.16.91a.52.52,0,0,0-.29.34.49.49,0,0,0,.12.43ZM88.9,42.25l-.25,6.27a.49.49,0,0,0,.48.5.39.39,0,0,0,.15,0l2.9-.92a.5.5,0,0,0,.34-.46l.09-6.45a.45.45,0,0,0-.1-.29L88.7,35.73a.49.49,0,0,0-.39-.19.27.27,0,0,0-.13,0l-2.47.7a.49.49,0,0,0-.27.74ZM41.71,92.07a.51.51,0,0,0-.26-.22l-5.7-2.08a.45.45,0,0,0-.16,0,.49.49,0,0,0-.41.22L33.72,92.2a.5.5,0,0,0,0,.43.46.46,0,0,0,.29.3l5.21,1.84,3.49,4.35a.49.49,0,0,0,.38.18h0a.47.47,0,0,0,.38-.19l1.12-1.41a.5.5,0,0,0,.05-.55ZM99.92,30.56l5.29,2.34,2.73,5.1a.48.48,0,0,0,.38.25h.05a.49.49,0,0,0,.37-.18l2-2.41a.48.48,0,0,0,0-.57L107.54,30a.51.51,0,0,0-.27-.21l-5.56-1.69-.14,0a.51.51,0,0,0-.36.15l-1.45,1.54a.48.48,0,0,0-.12.43A.52.52,0,0,0,99.92,30.56ZM35.18,36.3a.48.48,0,0,0,.41.23.45.45,0,0,0,.16,0l5.7-2.09a.49.49,0,0,0,.26-.21l2.88-5.09a.49.49,0,0,0-.05-.54l-1.12-1.42A.47.47,0,0,0,43,27h0a.47.47,0,0,0-.38.19l-3.49,4.34L34,33.33a.45.45,0,0,0-.29.31.48.48,0,0,0,0,.42Z"></path>
</g>
<path id="white-3" data-name="white" fill="#ffffff" d="M691,48a15.28,15.28,0,0,0-9.78-3.5,14.68,14.68,0,0,0-12.5,7,13.79,13.79,0,0,0-12.14-7,16.07,16.07,0,0,0-7.33,1.76,13.69,13.69,0,0,0-6.62-1.62l-1,0h-.18l-.79.07A22.3,22.3,0,0,0,633,46.6a14.84,14.84,0,0,0-7.73-2,16.36,16.36,0,0,0-10,3.35,14.62,14.62,0,0,0-2.18,2,28.08,28.08,0,0,0-4-2.42,32.5,32.5,0,0,0-14.45-3.12,31.46,31.46,0,0,0-14.67,3.36c-.41.22-.82.44-1.22.68A13.42,13.42,0,0,0,574.1,46a13.61,13.61,0,0,0-3.79-7.45,14.83,14.83,0,0,0-10.86-4.2,16.17,16.17,0,0,0-10.62,3.7,14.62,14.62,0,0,0-4.86,8.1,14.4,14.4,0,0,0-2.24.92,31.5,31.5,0,0,0-5.67-1.79,39.46,39.46,0,0,0-8.47-.87,33.47,33.47,0,0,0-15.15,3.34,27.22,27.22,0,0,0-5.22,3.43c-.33-.34-.67-.66-1-.95-4.38-3.86-10.5-5.82-18.2-5.82a45,45,0,0,0-6.8.5c0-.5.07-1,.07-1.58,0-6.86-4.56-13.79-14.76-13.79H441.6a15.33,15.33,0,0,0-10.66,3.93,15.64,15.64,0,0,0-4.88,10.27v.17l-.18,2.26a23.19,23.19,0,0,0-9.23-1.76,25.59,25.59,0,0,0-9.89,1.91,15.33,15.33,0,0,0-7.35-1.76H399a15.88,15.88,0,0,0,.24-2.78,14.53,14.53,0,0,0-5.07-11.26,17.74,17.74,0,0,0-22,0,14.66,14.66,0,0,0-2.08,2.24,30,30,0,0,0-14.4-3.27H337.69A15.31,15.31,0,0,0,327,33.48a15.55,15.55,0,0,0-4.88,10.27v.17l-.07.88a17.45,17.45,0,0,0-2.89-.23,16.58,16.58,0,0,0-7.93,1.93,23.73,23.73,0,0,0-10-2.08,25.61,25.61,0,0,0-13.9,3.91,27,27,0,0,0-3.14,2.34c-2.63-2.87-7.45-6.25-15.61-6.25a25.59,25.59,0,0,0-9.89,1.91,15.33,15.33,0,0,0-7.35-1.76c-.37,0-.74,0-1.1,0a16.23,16.23,0,0,0,.24-2.81,14.53,14.53,0,0,0-5.07-11.26,17.74,17.74,0,0,0-22,0h0a16.46,16.46,0,0,0-6.87-1.41,15.92,15.92,0,0,0-10.42,3.65A14.22,14.22,0,0,0,201.05,43l-.12,1.54a26.13,26.13,0,0,0-2.83-.15,25,25,0,0,0-13.94,4,25.6,25.6,0,0,0-3.64,2.9c-.39-.4-.77-.77-1.15-1.1-4.38-3.86-10.5-5.82-18.19-5.82a38.44,38.44,0,0,0-14.85,2.71,13.35,13.35,0,0,0-8.09-2.57l-1,0h-.18l-.79.07c-.27,0-.53,0-.8.06,0-.42,0-.86,0-1.31,0-6.91-4.57-13.87-14.76-13.87H86.12c-4.4,0-8,1.14-10.76,3.41-2.23,1.84-4.89,5.3-4.89,11.35,0,6.86,4.56,13.79,14.76,13.79h1l-2,25.33A14.65,14.65,0,0,0,88,95.11a15,15,0,0,0,11.17,4.51,16.34,16.34,0,0,0,9.45-2.83,15.78,15.78,0,0,0,9.36,2.9,16.21,16.21,0,0,0,10.21-3.45,14.57,14.57,0,0,0,5.48-10.68l0-.58a18.09,18.09,0,0,0,2.57,5.69,20,20,0,0,0,8.06,6.9,23.61,23.61,0,0,0,10.27,2.27A20.71,20.71,0,0,0,163,98.17a15.15,15.15,0,0,0,6.76,1.52,15.41,15.41,0,0,0,10.51-3.83c.31-.28.63-.59.95-.93a23.88,23.88,0,0,0,2.27,1.55A25.21,25.21,0,0,0,205.57,98a15.63,15.63,0,0,0,7.33,1.71,16,16,0,0,0,8.91-2.55,15.94,15.94,0,0,0,8.86,2.55,16.44,16.44,0,0,0,8.85-2.48A16.91,16.91,0,0,0,259,95.88a15.41,15.41,0,0,0,1.55-1.58,12.84,12.84,0,0,0,1.11,1.23,15,15,0,0,0,10.86,4.16,18.46,18.46,0,0,0,2.76-.2,13.72,13.72,0,0,0,7.31,10l.21.11.21.1a35.66,35.66,0,0,0,8.25,2.63,45.29,45.29,0,0,0,8.81.87c9.06,0,16.42-2.22,21.87-6.59a25.08,25.08,0,0,0,6.47-7.78,16.58,16.58,0,0,0,5.55.9,16,16,0,0,0,11.09-4.14,16.21,16.21,0,0,0,5-10.62v-.14l.34-4.41h3.8A36,36,0,0,0,364.9,78.9l-.43,5.25v0A13.81,13.81,0,0,0,369.09,96a15.65,15.65,0,0,0,10.33,3.66,16.45,16.45,0,0,0,8.47-2.25A17,17,0,0,0,407,95.88a15.41,15.41,0,0,0,1.55-1.58,12.84,12.84,0,0,0,1.11,1.23,15,15,0,0,0,10.86,4.16,16.23,16.23,0,0,0,8.8-2.41,15.33,15.33,0,0,0,8.54,2.41,15.74,15.74,0,0,0,11-4.24,16.34,16.34,0,0,0,5-10.5v-.14l.55-6.8h5.69c-.07.73-.1,1.49-.1,2.26a18.32,18.32,0,0,0,3.15,10.4,20,20,0,0,0,8.07,6.9,23.58,23.58,0,0,0,10.27,2.27,20.62,20.62,0,0,0,8.33-1.67,15.22,15.22,0,0,0,6.77,1.52,15.43,15.43,0,0,0,10.51-3.83,14.18,14.18,0,0,0,1.27-1.29,26.43,26.43,0,0,0,3.77,2.21,32.59,32.59,0,0,0,14.32,3.06,34.39,34.39,0,0,0,7.87-.94,28.71,28.71,0,0,0,7-2.55l.12-.07.11-.06a14,14,0,0,0,4.4-4,18.68,18.68,0,0,0,1.79,1.91c4.08,3.79,9.62,5.71,16.47,5.71,5.13,0,8.84-.82,11.67-2.57A12.65,12.65,0,0,0,578,95.68c.62.37,1.26.72,1.92,1a32.4,32.4,0,0,0,14.44,3.12A31.4,31.4,0,0,0,609,96.48c.74-.39,1.46-.8,2.15-1.25.27.28.56.54.85.8a15.63,15.63,0,0,0,10.33,3.66,16.21,16.21,0,0,0,10.21-3.45,14.57,14.57,0,0,0,5.48-10.68l1-12.13,1.85-.21a25.16,25.16,0,0,0,3.73-.64l5.43,15.18-2.18,4.35a15.5,15.5,0,0,0-1.66,7,13.8,13.8,0,0,0,4.31,10.08,14,14,0,0,0,9.78,3.93,14.39,14.39,0,0,0,7.71-2.24,15.85,15.85,0,0,0,5.48-6.06l0,0,0,0,20.8-39.6,0-.07,0-.08A14.41,14.41,0,0,0,696,58.51,13.42,13.42,0,0,0,691,48Z"></path>
<path fill="#E8008B" d="M119.86,49.34H109.43l-2.82,34.78A7,7,0,0,1,104.39,89a7.29,7.29,0,0,1-5.18,1.85A6.38,6.38,0,0,1,94.37,89a5.86,5.86,0,0,1-1.45-4.85l2.82-34.85H85.23q-6,0-6-5c0-2.13.57-3.65,1.71-4.59a8,8,0,0,1,5.18-1.41h34.63q6,0,6,5.11,0,3.18-1.66,4.55T119.86,49.34Zm21.65,5.18a4.7,4.7,0,0,0-3.73-1.19l-.89.08A14,14,0,0,0,131.37,55a15.85,15.85,0,0,0-4.92,3.88,5.18,5.18,0,0,0-1.44-4.1,5.68,5.68,0,0,0-4.11-1.45,7.53,7.53,0,0,0-4.7,1.56,6.1,6.1,0,0,0-2.33,4.44L111.8,84.86a5.06,5.06,0,0,0,1.59,4.51A6.85,6.85,0,0,0,118,90.93a7.43,7.43,0,0,0,4.77-1.56A6,6,0,0,0,125,84.86l1-12.66q.38-3.77,1.92-5.36t5.7-2.11l2-.22c2.47-.25,4.19-.82,5.18-1.7a6.43,6.43,0,0,0,1.78-4.3A4.58,4.58,0,0,0,141.51,54.52Zm32.06,2.29q4.11,3.63,4.11,11c0,1,0,1.85-.08,2.45l-1.18,14.65a6.4,6.4,0,0,1-2,4.48,6.72,6.72,0,0,1-4.66,1.59,5.85,5.85,0,0,1-4-1.37,5.05,5.05,0,0,1-1.7-3.59,9.19,9.19,0,0,1-3.77,3.77,11.57,11.57,0,0,1-5.63,1.33,14.68,14.68,0,0,1-6.47-1.4,11.25,11.25,0,0,1-4.59-3.89,9.67,9.67,0,0,1-1.67-5.51A10.37,10.37,0,0,1,144,73.5a12.15,12.15,0,0,1,6.58-3.74,48.92,48.92,0,0,1,12-1.18h2.67l.07-.52q.3-5.25-5.85-5.25a26.64,26.64,0,0,0-8.29,1.92,6.42,6.42,0,0,1-2.51.52,4,4,0,0,1-3-1.26,4.16,4.16,0,0,1-1.18-3,5.06,5.06,0,0,1,.78-2.63,6.17,6.17,0,0,1,2.4-2.18,27.68,27.68,0,0,1,13.55-3Q169.46,53.19,173.57,56.81ZM164.8,74.65h-2q-4.44,0-6.32.92a3.29,3.29,0,0,0-1.89,3.22,3.24,3.24,0,0,0,1.07,2.52,4.13,4.13,0,0,0,2.85,1,5.57,5.57,0,0,0,4.26-1.89,7.94,7.94,0,0,0,2-4.92Zm56.58-35A5.34,5.34,0,0,1,223,43.94l-3.19,40.92a6.35,6.35,0,0,1-2.07,4.4,6.92,6.92,0,0,1-4.81,1.67,6.26,6.26,0,0,1-4.14-1.3,5.18,5.18,0,0,1-1.85-3.44,11.59,11.59,0,0,1-4.55,3.63,15,15,0,0,1-6.26,1.25A15.47,15.47,0,0,1,188,89a14.36,14.36,0,0,1-5.48-6,20.7,20.7,0,0,1-2-9.32A24.31,24.31,0,0,1,182.78,63,17.28,17.28,0,0,1,189,55.78a16.3,16.3,0,0,1,9.14-2.59q6.74,0,10.58,4.66l1.11-14.21a5.58,5.58,0,0,1,2-4.11,7.16,7.16,0,0,1,4.77-1.59A6.64,6.64,0,0,1,221.38,39.61ZM207.87,71.76q0-4.37-1.78-6.62a6.08,6.08,0,0,0-5.1-2.26,6.4,6.4,0,0,0-5.4,2.66,11.65,11.65,0,0,0-2,7.18,9.78,9.78,0,0,0,1.85,6.4,6.38,6.38,0,0,0,5.25,2.26A6.17,6.17,0,0,0,206,78.72,11.65,11.65,0,0,0,207.87,71.76Zm25.76-18.43a7.57,7.57,0,0,0-4.81,1.56,6.24,6.24,0,0,0-2.29,4.59l-2.08,25.38A5.11,5.11,0,0,0,226,89.37a6.85,6.85,0,0,0,4.63,1.56,7.41,7.41,0,0,0,4.77-1.56,6,6,0,0,0,2.19-4.51l2.07-25.38a5.09,5.09,0,0,0-1.48-4.59A6.72,6.72,0,0,0,233.63,53.33Zm6.14-16.13a9,9,0,0,0-10.54,0,5.77,5.77,0,0,0-2,4.59,5.85,5.85,0,0,0,2,4.62,8.91,8.91,0,0,0,10.58,0,5.85,5.85,0,0,0,2-4.62A5.74,5.74,0,0,0,239.77,37.2Zm28.86,16A16.83,16.83,0,0,0,262,54.48,13.45,13.45,0,0,0,257,58a4.73,4.73,0,0,0-1.62-3.41,6,6,0,0,0-4-1.26,7.59,7.59,0,0,0-5,1.67,5.83,5.83,0,0,0-2.15,4.33l-2.07,25.53a5.55,5.55,0,0,0,1.48,4.44,6.43,6.43,0,0,0,4.74,1.63,7.14,7.14,0,0,0,4.88-1.63,6.35,6.35,0,0,0,2.07-4.44l1.26-14.65a8.6,8.6,0,0,1,1.81-5.07,5.54,5.54,0,0,1,4.48-1.89,4.4,4.4,0,0,1,3.81,1.67,7,7,0,0,1,1,4.77l-1.26,15.17a5,5,0,0,0,1.41,4.4,6.47,6.47,0,0,0,4.73,1.67,7.17,7.17,0,0,0,4.89-1.63,6.58,6.58,0,0,0,2.14-4.44l1.26-15.62c.05-.59.08-1.43.08-2.51q0-6.66-3.11-10.1T268.63,53.19ZM323.74,55a5.42,5.42,0,0,1,1.37,4.4L323,86q-.75,9-6.55,13.69T300.1,104.4a36.48,36.48,0,0,1-7.11-.71,26.68,26.68,0,0,1-6.21-2,4.88,4.88,0,0,1-2.89-4.51,5.2,5.2,0,0,1,1.33-3.52,4.18,4.18,0,0,1,3.26-1.51,4.94,4.94,0,0,1,1.7.36q6.66,2.24,10.36,2.23,4.44,0,6.77-1.89c1.56-1.26,2.43-3.22,2.63-5.88l.15-1.86q-3.7,4.3-10.88,4.3a15.78,15.78,0,0,1-8.14-2.08,14.12,14.12,0,0,1-5.51-5.84,18.82,18.82,0,0,1-2-8.81,22.07,22.07,0,0,1,2.22-9.95,17.07,17.07,0,0,1,6.25-7,16.87,16.87,0,0,1,9.21-2.55,13.3,13.3,0,0,1,11,5,6.22,6.22,0,0,1,2.4-3.55,7.35,7.35,0,0,1,4.48-1.34A6,6,0,0,1,323.74,55ZM311.27,71q0-4.08-1.85-6.07a6.91,6.91,0,0,0-5.33-2,6.67,6.67,0,0,0-5.47,2.44,10.37,10.37,0,0,0-2,6.74,7.71,7.71,0,0,0,1.92,5.55,7,7,0,0,0,5.26,2,6.81,6.81,0,0,0,5.44-2.36A9.36,9.36,0,0,0,311.27,71Zm62.24-17q0,8.51-5,13.09t-14.28,4.59H342.35l-1,12.51a7.44,7.44,0,0,1-2.26,5A7.26,7.26,0,0,1,334,90.93a6.27,6.27,0,0,1-4.81-1.82,6,6,0,0,1-1.41-4.92l3.11-39.59A7,7,0,0,1,333,39.94a6.74,6.74,0,0,1,4.74-1.63h18.06q8.36,0,13.06,4.18T373.51,53.93Zm-12.66.74a5.69,5.69,0,0,0-1.74-4.59q-1.74-1.48-5.29-1.48H344.2l-1,12.8h9.77Q360.85,61.4,360.85,54.67ZM388.52,37.2a9,9,0,0,0-10.54,0,5.77,5.77,0,0,0-2,4.59,5.85,5.85,0,0,0,2,4.62,8.91,8.91,0,0,0,10.58,0,5.85,5.85,0,0,0,2-4.62A5.74,5.74,0,0,0,388.52,37.2Zm-6.14,16.13a7.57,7.57,0,0,0-4.81,1.56,6.24,6.24,0,0,0-2.29,4.59L373.2,84.86a5.08,5.08,0,0,0,1.59,4.51,6.85,6.85,0,0,0,4.63,1.56,7.41,7.41,0,0,0,4.77-1.56,6,6,0,0,0,2.19-4.51l2.07-25.38A5.09,5.09,0,0,0,387,54.89,6.72,6.72,0,0,0,382.38,53.33Zm34.26-.14A16.83,16.83,0,0,0,410,54.48,13.45,13.45,0,0,0,405,58a4.73,4.73,0,0,0-1.62-3.41,6,6,0,0,0-4-1.26,7.59,7.59,0,0,0-5,1.67,5.83,5.83,0,0,0-2.15,4.33l-2.07,25.53a5.55,5.55,0,0,0,1.48,4.44,6.43,6.43,0,0,0,4.74,1.63,7.14,7.14,0,0,0,4.88-1.63,6.35,6.35,0,0,0,2.07-4.44l1.26-14.65a8.6,8.6,0,0,1,1.81-5.07,5.54,5.54,0,0,1,4.48-1.89,4.4,4.4,0,0,1,3.81,1.67,7,7,0,0,1,1,4.77l-1.26,15.17a5,5,0,0,0,1.41,4.4,6.47,6.47,0,0,0,4.73,1.67,7.17,7.17,0,0,0,4.89-1.63,6.58,6.58,0,0,0,2.14-4.44l1.26-15.62c0-.59.08-1.43.08-2.51q0-6.66-3.11-10.1T416.64,53.19Zm46.86,5.4H447.15l.74-9.62h17.76a8.36,8.36,0,0,0,5.21-1.33,5.19,5.19,0,0,0,1.67-4.3q0-5-6-5H441.6a6.71,6.71,0,0,0-4.74,1.63,7,7,0,0,0-2.07,4.66l-3.11,39.59a5.94,5.94,0,0,0,1.44,4.89,6.25,6.25,0,0,0,4.78,1.85,7,7,0,0,0,5-1.85,7.56,7.56,0,0,0,2.26-5l1.18-14.88h16.13q3.63,0,5.26-1.33c1.08-.89,1.63-2.37,1.63-4.44Q469.35,58.6,463.5,58.59Zm36.92-1.78q4.11,3.63,4.11,11c0,1,0,1.85-.08,2.45l-1.18,14.65a6.44,6.44,0,0,1-2,4.48,6.72,6.72,0,0,1-4.66,1.59,5.85,5.85,0,0,1-4-1.37,5.05,5.05,0,0,1-1.7-3.59,9.25,9.25,0,0,1-3.77,3.77,11.57,11.57,0,0,1-5.63,1.33,14.65,14.65,0,0,1-6.47-1.4,11.25,11.25,0,0,1-4.59-3.89,9.67,9.67,0,0,1-1.67-5.51,10.37,10.37,0,0,1,2.08-6.77,12.15,12.15,0,0,1,6.58-3.74,48.92,48.92,0,0,1,12-1.18h2.66l.08-.52c.19-3.5-1.75-5.25-5.85-5.25A26.64,26.64,0,0,0,478,64.73a6.45,6.45,0,0,1-2.51.52,4,4,0,0,1-3-1.26,4.16,4.16,0,0,1-1.18-3,5.06,5.06,0,0,1,.78-2.63,6.1,6.1,0,0,1,2.4-2.18,27.66,27.66,0,0,1,13.54-3Q496.32,53.19,500.42,56.81Zm-8.77,17.84h-2a15.69,15.69,0,0,0-6.33.92,3.3,3.3,0,0,0-1.88,3.22,3.2,3.2,0,0,0,1.07,2.52,4.13,4.13,0,0,0,2.85,1,5.53,5.53,0,0,0,4.25-1.89,7.89,7.89,0,0,0,2-4.92Zm47.63-19a20.06,20.06,0,0,0-5.1-1.78,31,31,0,0,0-6.59-.66,24.66,24.66,0,0,0-11.21,2.4,16.87,16.87,0,0,0-7.32,7,21.41,21.41,0,0,0-2.56,10.69A17.7,17.7,0,0,0,509,82.68a16.26,16.26,0,0,0,7,6.21,23.84,23.84,0,0,0,10.51,2.18,25.13,25.13,0,0,0,5.85-.7,20.32,20.32,0,0,0,4.88-1.74,5.15,5.15,0,0,0,2.11-2.25,6.8,6.8,0,0,0,.7-3,4.8,4.8,0,0,0-.92-3,3,3,0,0,0-2.55-1.22,5.2,5.2,0,0,0-2.3.59,21.2,21.2,0,0,1-3.4,1.08,16.86,16.86,0,0,1-3.48.33A6.83,6.83,0,0,1,522,79a8.8,8.8,0,0,1-1.93-6q0-4.72,2.19-7.28a7.65,7.65,0,0,1,6.18-2.56,17.71,17.71,0,0,1,7.1,1.63,4.53,4.53,0,0,0,2.07.52,3.48,3.48,0,0,0,2.93-1.59A6.13,6.13,0,0,0,541.65,60a5.61,5.61,0,0,0-.59-2.51A4.24,4.24,0,0,0,539.28,55.63Zm31.2,25.75a15.5,15.5,0,0,0-1.63.15l-1.48.07c-2.72,0-4.07-1.55-4.07-4.66a7.44,7.44,0,0,1,.07-1.18l1-12h4a7.4,7.4,0,0,0,4.77-1.26,4.82,4.82,0,0,0,1.52-3.92,4.07,4.07,0,0,0-1.44-3.33,6.2,6.2,0,0,0-4-1.19h-4l.37-4.88a5.35,5.35,0,0,0-1.41-4.44,6.28,6.28,0,0,0-4.66-1.63,7.39,7.39,0,0,0-5,1.63,6.25,6.25,0,0,0-2.14,4.51L552,54.07h-2.15c-4.29,0-6.44,1.71-6.44,5.11a4.08,4.08,0,0,0,1.48,3.4A6.49,6.49,0,0,0,549,63.77h2.14l-1,11.91c-.05.5-.07,1.24-.07,2.22q0,6.43,3.62,9.81t10.51,3.36c3.35,0,5.71-.41,7.07-1.25s2-2.32,2-4.44a4.78,4.78,0,0,0-.81-2.89A2.48,2.48,0,0,0,570.48,81.38ZM612.13,61.7a18.12,18.12,0,0,1,2.44,9.47,21.45,21.45,0,0,1-2.52,10.69A16.86,16.86,0,0,1,605,88.71a22.66,22.66,0,0,1-10.62,2.36,23.72,23.72,0,0,1-10.58-2.21,16.18,16.18,0,0,1-6.95-6.33A18.25,18.25,0,0,1,574.38,73,21.28,21.28,0,0,1,576.9,62.4,16.86,16.86,0,0,1,584,55.55a22.78,22.78,0,0,1,10.62-2.36,23.72,23.72,0,0,1,10.58,2.22A16.24,16.24,0,0,1,612.13,61.7Zm-10.59,9.17q0-4.07-1.66-6a6.27,6.27,0,0,0-5.07-2,6.07,6.07,0,0,0-5.66,2.92,14.37,14.37,0,0,0-1.74,7.44q0,4.14,1.66,6.14a6.23,6.23,0,0,0,5.07,2,6.06,6.06,0,0,0,5.66-3A14.72,14.72,0,0,0,601.54,70.87Zm40.58-17.54-.89.08A13.9,13.9,0,0,0,635.72,55a15.73,15.73,0,0,0-4.92,3.88,5.22,5.22,0,0,0-1.45-4.1,5.67,5.67,0,0,0-4.1-1.45,7.49,7.49,0,0,0-4.7,1.56,6.07,6.07,0,0,0-2.34,4.44l-2.07,25.53a5.11,5.11,0,0,0,1.59,4.51,6.85,6.85,0,0,0,4.63,1.56,7.43,7.43,0,0,0,4.77-1.56,6,6,0,0,0,2.19-4.51l1-12.66q.38-3.77,1.93-5.36T638,64.73l2-.22c2.47-.25,4.19-.82,5.18-1.7a6.43,6.43,0,0,0,1.78-4.3,4.61,4.61,0,0,0-1.07-4A4.72,4.72,0,0,0,642.12,53.33Zm43.27,1.45a6.49,6.49,0,0,0-4.22-1.52,5.91,5.91,0,0,0-3.18.92A6.47,6.47,0,0,0,675.62,57L667.26,74.5l-5.7-17.61a5.56,5.56,0,0,0-2-2.78,5.17,5.17,0,0,0-3-.92A7.54,7.54,0,0,0,651.64,55a5.37,5.37,0,0,0-2.22,4.25,3.78,3.78,0,0,0,.3,1.56l9.84,27.53L655.71,96a6.78,6.78,0,0,0-.74,3,4.94,4.94,0,0,0,1.59,3.73,5.26,5.26,0,0,0,3.74,1.52,5.5,5.5,0,0,0,3-.89,7.38,7.38,0,0,0,2.45-2.81L686.57,61a5.73,5.73,0,0,0,.67-2.52A4.65,4.65,0,0,0,685.39,54.78Z"></path>
</svg>