<svg xmlns="http://www.w3.org/2000/svg" enable-background="new 0 0 512 118" viewBox="0 0 512 118">
    <path d="m54.1 104.3c-24.9 0-45.3-20.3-45.3-45.3s20.3-45.3 45.3-45.3 45.3 20.3 45.3 45.3-20.3 45.3-45.3 45.3zm0-83.5c-21.1 0-38.2 17.1-38.2 38.2s17.1 38.2 38.2 38.2 38.2-17.1 38.2-38.2-17.1-38.2-38.2-38.2z" fill="#cb292d"></path>
    <path d="m42.8 31.2h-5.4v43.7h-7.2v-43.7h-5.5v-6h18.1z" fill="#fff"></path>
    <path d="m57.1 56.2v-11.2c0-.8 0-1.5-.1-2s-.2-.9-.4-1.2-.5-.5-.9-.6-.9-.2-1.5-.2c-.7 0-1.2.1-1.6.2s-.7.3-.9.6-.4.7-.4 1.2c-.1.5-.1 1.2-.1 2v30c0 .9 0 1.6.1 2.1s.2.9.4 1.2.5.5.9.6.9.2 1.6.2c.6 0 1.1-.1 1.5-.2s.7-.3.9-.6.4-.7.4-1.2c.1-.5.1-1.2.1-2.1v-11.5h7v11.5c0 2.3-.1 4.2-.4 5.6s-.8 2.4-1.5 3.1c-.8.7-1.8 1.2-3.1 1.4s-3 .3-5 .3c-2.1 0-3.9-.1-5.2-.3s-2.4-.7-3.1-1.4c-.8-.7-1.3-1.8-1.5-3.2-.3-1.4-.4-3.2-.4-5.5v-30c0-2.3.1-4.1.4-5.5s.8-2.4 1.6-3.2c.8-.7 1.8-1.2 3.2-1.4 1.3-.2 3-.3 5.1-.3 2 0 3.7.1 5 .3s2.3.7 3.1 1.4 1.3 1.8 1.5 3.1c.3 1.4.4 3.2.4 5.5v11.3z" fill="#fff"></path>
    <path d="m69.1 96.8v-49.6h14.5v6h-7.2v7.4h7v6h-7v30.4h-7.3z" fill="#fff"></path>
    <path d="m129.4 37.2h-5.8v31c0 1.7.3 2.9.8 3.5s1.7.9 3.3.9h1.6v7.2h-2.1c-2.3 0-4.2-.2-5.7-.6s-2.8-1-3.7-1.9-1.6-1.9-2-3.3c-.4-1.3-.6-2.9-.6-4.7v-32.1h-3.1v-6.9h3.1v-15h8.4v15h5.8z" fill="#fff"></path>
    <path d="m143.2 79.8h-8.4v-65.2h8.4v18.9c.7-1.3 1.6-2.2 2.7-2.7 1.2-.5 2.8-.8 4.9-.8 3.1 0 5.3.7 6.5 2.2s1.8 4.1 1.8 7.9v39.8h-8.4v-39c0-1.3-.2-2.1-.7-2.6s-1.3-.7-2.6-.7c-1.4 0-2.3.2-2.9.7s-1 1.1-1.3 1.9z" fill="#fff"></path>
    <path d="m173 58v11.6c0 1.6.2 2.6.6 3.1s1.4.7 2.9.7 2.4-.2 2.9-.7c.4-.5.7-1.5.7-3.1v-6.6h7.6v7.2c0 2.3-.2 4.2-.5 5.6s-.9 2.5-1.7 3.2-2 1.2-3.4 1.4c-1.5.2-3.3.3-5.7.3s-4.4-.1-5.9-.3-2.7-.7-3.6-1.4-1.4-1.8-1.7-3.2-.5-3.2-.5-5.5v-30.3c0-2.3.2-4.2.5-5.5.3-1.4.9-2.4 1.7-3.2.9-.7 2-1.2 3.6-1.4 1.5-.2 3.5-.3 5.9-.3 2.3 0 4.2.1 5.7.3s2.6.7 3.4 1.4 1.4 1.8 1.7 3.2.5 3.3.5 5.6v18h-14.7zm0-6.7h7.1v-10.6c0-1.6-.2-2.6-.7-3.1-.4-.4-1.4-.7-2.9-.7s-2.5.2-2.9.7c-.4.4-.6 1.5-.6 3.1z" fill="#fff"></path>
    <path d="m208.8 48.7v-7.8c0-1.4-.2-2.4-.7-2.8-.4-.4-1.4-.7-2.8-.7-1.6 0-2.6.2-3 .7-.4.4-.6 1.4-.6 2.8v28.4c0 1.4.2 2.4.7 2.8.4.5 1.4.7 2.8.7 1.5 0 2.5-.2 3-.7.4-.5.7-1.4.7-2.8v-12.8h7.7v13.6c0 2.3-.2 4.2-.5 5.6s-.9 2.5-1.8 3.2-2 1.2-3.4 1.4-3.2.3-5.4.3c-2.5 0-4.5-.1-6-.4-1.5-.2-2.7-.7-3.6-1.5-.9-.7-1.5-1.8-1.8-3.2s-.5-3.2-.5-5.4v-30.1c0-2.3.2-4.1.5-5.4.3-1.4.9-2.4 1.7-3.2.8-.7 2-1.2 3.5-1.5 1.5-.2 3.4-.4 5.7-.4 2.5 0 4.5.1 6 .4 1.5.2 2.7.8 3.5 1.5.8.8 1.4 1.8 1.7 3.2s.4 3.2.4 5.4v8.7z" fill="#cb292d"></path>
    <path d="m245.8 70.2c0 2.3-.2 4.2-.5 5.5-.3 1.4-.9 2.4-1.8 3.2-.9.7-2.1 1.2-3.6 1.4s-3.5.3-5.9.3-4.4-.1-5.9-.3-2.8-.7-3.6-1.4c-.9-.7-1.5-1.8-1.8-3.2s-.5-3.2-.5-5.5v-30.2c0-2.3.2-4.2.5-5.5.3-1.4.9-2.4 1.8-3.2.9-.7 2.1-1.2 3.6-1.4s3.5-.3 5.9-.3 4.4.1 5.9.3 2.7.7 3.6 1.4 1.4 1.8 1.8 3.2c.3 1.4.5 3.2.5 5.5zm-8.2-29.3c0-1.4-.2-2.4-.7-2.8-.4-.4-1.4-.7-2.8-.7-1.6 0-2.6.2-3.1.7-.5.4-.7 1.4-.7 2.8v28.4c0 1.4.2 2.4.7 2.8.4.5 1.4.7 3 .7s2.6-.2 3-.7.6-1.4.6-2.8z" fill="#cb292d"></path>
    <path d="m260.9 23.2h-8.3v-8.6h8.3zm0 56.6h-8.3v-49.4h8.3z" fill="#cb292d"></path>
    <path d="m276.6 79.8h-8.4v-49.4h7.8v3.3c.7-1.3 1.6-2.2 2.8-2.8s3-.9 5.3-.9c1.6 0 2.9.2 4 .5s1.9.9 2.6 1.7 1.1 1.8 1.4 3.1.4 2.9.4 4.7v39.8h-8.4v-38.9c0-1.3-.2-2.1-.7-2.6s-1.3-.7-2.6-.7c-1.4 0-2.3.2-2.9.7s-1 1.1-1.3 1.9z" fill="#cb292d"></path>
    <g fill="#fff">
        <path d="m314.6 37.2h-6.3v42.6h-8.4v-42.6h-3.1v-6.9h3.1v-5.3c0-3.6.9-6.3 2.7-8s4.9-2.5 9.2-2.5h2.6v6.3h-2.1c-2.8 0-4.1 1.5-4.1 4.6v4.9h6.3v6.9z"></path>
        <path d="m329.4 80.6c-2.3 0-4.2-.1-5.7-.3s-2.6-.6-3.4-1.3-1.4-1.6-1.7-2.9-.5-3-.5-5.1v-12c0-3 .6-5.1 1.7-6.5s3.1-2.1 5.8-2.1h1.6c1.9 0 3.2.1 4 .2s1.3.3 1.7.5v-10.1c0-1.8-.2-2.9-.7-3.5-.4-.5-1.4-.8-2.8-.8-1.6 0-2.6.3-3 .9s-.6 1.7-.6 3.4v4.9h-7.7v-5.9c0-2.3.2-4.2.5-5.6s.9-2.5 1.7-3.2 2-1.2 3.4-1.4 3.3-.3 5.6-.3c2.4 0 4.4.1 5.9.3s2.7.7 3.6 1.4 1.4 1.8 1.8 3.2c.3 1.4.5 3.2.5 5.5v39.8c-1 .3-2.5.5-4.6.6-2 .3-4.4.3-7.1.3zm.5-6.9c1.6 0 2.6-.1 3.1-.2v-16.1c-.4-.2-.9-.4-1.4-.4-.6-.1-1.1-.1-1.7-.1-.9 0-1.7.1-2.2.2s-.9.3-1.2.7c-.3.3-.4.8-.5 1.4s-.1 1.3-.1 2.2v7.6c0 1 0 1.9.1 2.5s.2 1.1.5 1.4.7.6 1.2.7c.6 0 1.3.1 2.2.1z"></path>
        <path d="m362.6 48.7v-7.8c0-1.4-.2-2.4-.7-2.8-.4-.4-1.4-.7-2.8-.7-1.6 0-2.6.2-3 .7-.4.4-.6 1.4-.6 2.8v28.4c0 1.4.2 2.4.7 2.8.4.5 1.4.7 2.8.7 1.5 0 2.5-.2 3-.7.4-.5.7-1.4.7-2.8v-12.8h7.7v13.6c0 2.3-.2 4.2-.5 5.6s-.9 2.5-1.8 3.2-2 1.2-3.4 1.4-3.2.3-5.4.3c-2.5 0-4.5-.1-6-.4-1.5-.2-2.7-.7-3.6-1.5-.9-.7-1.5-1.8-1.8-3.2s-.5-3.2-.5-5.4v-30.1c0-2.3.2-4.1.5-5.4.3-1.4.9-2.4 1.7-3.2.8-.7 2-1.2 3.5-1.5 1.5-.2 3.4-.4 5.7-.4 2.5 0 4.5.1 6 .4 1.5.2 2.7.8 3.5 1.5.8.8 1.4 1.8 1.7 3.2s.4 3.2.4 5.4v8.7z"></path>
        <path d="m391 37.2h-5.8v31c0 1.7.3 2.9.8 3.5s1.7.9 3.3.9h1.6v7.2h-2.1c-2.3 0-4.2-.2-5.7-.6s-2.8-1-3.7-1.9-1.6-1.9-2-3.3c-.4-1.3-.6-2.9-.6-4.7v-32.1h-3.1v-6.9h3.1v-15h8.4v15h5.8z"></path>
        <path d="m419.4 70.2c0 2.3-.2 4.2-.5 5.5-.3 1.4-.9 2.4-1.8 3.2-.9.7-2.1 1.2-3.6 1.4s-3.5.3-5.9.3-4.4-.1-5.9-.3-2.8-.7-3.6-1.4c-.9-.7-1.5-1.8-1.8-3.2s-.5-3.2-.5-5.5v-30.2c0-2.3.2-4.2.5-5.5.3-1.4.9-2.4 1.8-3.2.9-.7 2.1-1.2 3.6-1.4s3.5-.3 5.9-.3 4.4.1 5.9.3 2.7.7 3.6 1.4 1.4 1.8 1.8 3.2c.3 1.4.5 3.2.5 5.5zm-8.2-29.3c0-1.4-.2-2.4-.7-2.8-.4-.4-1.4-.7-2.8-.7-1.6 0-2.6.2-3.1.7-.5.4-.7 1.4-.7 2.8v28.4c0 1.4.2 2.4.7 2.8.4.5 1.4.7 3 .7s2.6-.2 3-.7.6-1.4.6-2.8z"></path>
        <path d="m434.4 79.8h-8.4v-49.4h7.8v3.3c.6-1.1 1.5-2 2.8-2.7 1.2-.7 3-1 5.2-1 1.4 0 2.5.2 3.5.5s1.7.9 2.3 1.7 1 1.8 1.2 3.1.4 2.9.4 4.8v12.3h-7.6v-11.4c0-1.2-.2-2.1-.6-2.6s-1.2-.8-2.5-.8c-1.2 0-2.1.2-2.7.7-.6.4-1.1 1.1-1.4 2.1z"></path>
        <path d="m469.4 30.4h8.4v50.3c0 4-.9 7-2.6 8.9-1.8 1.9-4.7 2.9-8.9 2.9h-11.1v-7.1h9c1.9 0 3.2-.3 3.9-.9s1.1-1.9 1.1-3.8v-6.4c-.8 1.3-1.7 2.1-2.9 2.6s-2.7.7-4.7.7c-1.5 0-2.8-.2-3.9-.5-1-.3-1.9-.9-2.5-1.7s-1.1-1.8-1.4-3.1-.4-2.9-.4-4.8v-37.1h8.4v35.6c0 1.6.3 2.7.8 3.3s1.5.9 2.7.9c1.1 0 1.9-.2 2.5-.6.5-.4 1-1 1.5-2v-37.2z"></path>
        <path d="m124.4 102.7c-.7.3-2.2.7-4 .7-5 0-8-3.1-8-7.9 0-5.1 3.6-8.3 8.3-8.3 1.9 0 3.2.4 3.8.7l-.6 2.3c-.7-.3-1.8-.6-3.1-.6-3.2 0-5.5 2-5.5 5.8 0 3.4 2 5.6 5.5 5.6 1.2 0 2.4-.2 3.1-.6z"></path>
        <path d="m129.7 87.5v9.1c0 3.1 1.3 4.5 3.2 4.5 2.1 0 3.3-1.4 3.3-4.5v-9.1h2.9v8.9c0 4.8-2.5 7-6.2 7-3.6 0-6-2-6-6.9v-9z"></path>
        <path d="m142.2 100c.9.5 2.3 1 3.8 1 1.8 0 2.9-.9 2.9-2.1s-.8-1.9-2.8-2.6c-2.6-.9-4.2-2.3-4.2-4.5 0-2.6 2.1-4.5 5.5-4.5 1.7 0 2.9.4 3.8.8l-.7 2.3c-.6-.3-1.6-.7-3.1-.7-1.8 0-2.6 1-2.6 1.9 0 1.2.9 1.8 3 2.6 2.7 1 4 2.4 4 4.6 0 2.5-1.9 4.7-5.9 4.7-1.6 0-3.4-.5-4.2-1z"></path>
        <path d="m157.3 89.9h-4.5v-2.4h11.8v2.4h-4.5v13.2h-2.9v-13.2z"></path>
        <path d="m179.7 95.2c0 5.2-3.2 8.2-7.5 8.2-4.4 0-7.2-3.4-7.2-8 0-4.8 3-8.2 7.4-8.2 4.7.1 7.3 3.5 7.3 8zm-11.6.2c0 3.2 1.6 5.7 4.3 5.7 2.8 0 4.3-2.6 4.3-5.8 0-2.9-1.5-5.7-4.3-5.7-2.8-.1-4.3 2.6-4.3 5.8z"></path>
        <path d="m195.4 96.8c-.1-2-.2-4.5-.2-6.6h-.1c-.5 1.9-1.2 4-1.9 6l-2.2 6.8h-2.2l-2.1-6.7c-.6-2-1.2-4.1-1.6-6.1-.1 2-.2 4.5-.3 6.7l-.3 6.3h-2.7l1-15.6h3.8l2 6.3c.6 1.8 1 3.7 1.4 5.4h.1c.4-1.7 1-3.6 1.6-5.5l2.2-6.3h3.7l.9 15.6h-2.8z"></path>
        <path d="m219.4 96.8c-.1-2-.2-4.5-.2-6.6h-.1c-.5 1.9-1.2 4-1.9 6l-2.2 6.8h-2.2l-2.1-6.7c-.6-2-1.2-4.1-1.6-6.1-.1 2-.2 4.5-.3 6.7l-.3 6.3h-2.7l1-15.6h3.8l2 6.3c.6 1.8 1 3.7 1.4 5.4h.1c.4-1.7 1-3.6 1.6-5.5l2.2-6.3h3.7l.9 15.6h-2.8z"></path>
        <path d="m228.4 98.7-1.3 4.4h-2.9l5-15.6h3.6l5.1 15.6h-3.1l-1.4-4.4zm4.4-2.1-1.2-3.9c-.3-1-.6-2-.8-2.9-.2.9-.5 2-.7 2.9l-1.2 3.9z"></path>
        <path d="m240 87.7c1.3-.2 2.9-.3 4.5-.3 2.9 0 4.9.6 6.4 1.8s2.4 3.1 2.4 5.8c0 2.8-1 4.9-2.4 6.2-1.6 1.4-4 2.1-7.1 2.1-1.7 0-2.9-.1-3.9-.2v-15.4zm2.8 13.3c.4.1 1 .1 1.6.1 3.7 0 5.9-2 5.9-6 0-3.5-2-5.4-5.5-5.4-.9 0-1.6.1-1.9.2v11.1z"></path>
        <path d="m264.6 96.2h-5.9v4.6h6.6v2.3h-9.4v-15.6h9.1v2.3h-6.2v4h5.9v2.4z"></path>
        <path d="m283.8 102.7c-.7.3-2.2.7-4 .7-5 0-8-3.1-8-7.9 0-5.1 3.6-8.3 8.3-8.3 1.9 0 3.2.4 3.8.7l-.6 2.3c-.7-.3-1.8-.6-3.1-.6-3.2 0-5.5 2-5.5 5.8 0 3.4 2 5.6 5.5 5.6 1.2 0 2.4-.2 3.1-.6z"></path>
        <path d="m299.5 95.2c0 5.2-3.2 8.2-7.5 8.2-4.4 0-7.2-3.4-7.2-8 0-4.8 3-8.2 7.4-8.2 4.6.1 7.3 3.5 7.3 8zm-11.7.2c0 3.2 1.6 5.7 4.3 5.7 2.8 0 4.3-2.6 4.3-5.8 0-2.9-1.5-5.7-4.3-5.7-2.8-.1-4.3 2.6-4.3 5.8z"></path>
        <path d="m304.8 87.5v15.6h-2.9v-15.6z"></path>
        <path d="m308.1 103.1v-15.6h3.2l4 6.7c1 1.7 1.9 3.5 2.7 5.2-.2-2.1-.3-4.1-.3-6.5v-5.5h2.6v15.6h-2.9l-4.1-6.9c-1-1.7-2-3.6-2.8-5.4h-.1c.1 2 .1 4.1.1 6.7v5.6h-2.4z"></path>
        <path d="m323.7 100c.9.5 2.3 1 3.8 1 1.8 0 2.9-.9 2.9-2.1s-.8-1.9-2.8-2.6c-2.6-.9-4.2-2.3-4.2-4.5 0-2.6 2.1-4.5 5.5-4.5 1.7 0 2.9.4 3.8.8l-.7 2.3c-.6-.3-1.6-.7-3.1-.7-1.8 0-2.6 1-2.6 1.9 0 1.2.9 1.8 3 2.6 2.7 1 4 2.4 4 4.6 0 2.5-1.9 4.7-5.9 4.7-1.6 0-3.4-.5-4.2-1z"></path>
        <path d="m343.7 98.7-1.3 4.4h-2.9l5-15.6h3.6l5.1 15.6h-3.1l-1.4-4.4zm4.5-2.1-1.2-3.9c-.3-1-.6-2-.8-2.9-.2.9-.5 2-.7 2.9l-1.2 3.9z"></path>
        <path d="m355.3 103.1v-15.6h3.2l4 6.7c1 1.7 1.9 3.5 2.7 5.2-.2-2.1-.3-4.1-.3-6.5v-5.5h2.6v15.6h-2.9l-4.1-6.9c-1-1.7-2-3.6-2.8-5.4h-.1c.1 2 .1 4.1.1 6.7v5.6h-2.4z"></path>
        <path d="m371 87.7c1.3-.2 2.9-.3 4.5-.3 2.9 0 4.9.6 6.4 1.8s2.4 3.1 2.4 5.8c0 2.8-1 4.9-2.4 6.2-1.6 1.4-4 2.1-7.1 2.1-1.7 0-2.9-.1-3.8-.2zm2.9 13.3c.4.1 1 .1 1.6.1 3.7 0 5.9-2 5.9-6 0-3.5-2-5.4-5.5-5.4-.9 0-1.6.1-1.9.2v11.1z"></path>
        <path d="m404.9 96.8c-.1-2-.2-4.5-.2-6.6h-.1c-.5 1.9-1.2 4-1.9 6l-2.3 6.8h-2.2l-2.1-6.7c-.6-2-1.2-4.1-1.6-6.1-.1 2-.2 4.5-.3 6.7l-.3 6.3h-2.7l1-15.6h3.8l2 6.3c.6 1.8 1 3.7 1.4 5.4h.1c.4-1.7 1-3.6 1.6-5.5l2.2-6.3h3.7l.9 15.6h-2.8z"></path>
        <path d="m424.7 95.2c0 5.2-3.2 8.2-7.5 8.2-4.4 0-7.2-3.4-7.2-8 0-4.8 3-8.2 7.4-8.2 4.6.1 7.3 3.5 7.3 8zm-11.6.2c0 3.2 1.6 5.7 4.3 5.7 2.8 0 4.3-2.6 4.3-5.8 0-2.9-1.5-5.7-4.3-5.7-2.8-.1-4.3 2.6-4.3 5.8z"></path>
        <path d="m427.2 87.7c1.1-.2 2.7-.3 4.3-.3 2.2 0 3.8.4 4.8 1.3.9.7 1.3 1.8 1.3 3.1 0 2-1.4 3.4-2.8 3.9v.1c1.1.4 1.8 1.5 2.2 3 .5 1.9.9 3.8 1.2 4.4h-2.9c-.2-.5-.6-1.7-1-3.7s-1.2-2.7-2.8-2.7h-1.5v6.4h-2.8zm2.8 6.9h1.7c1.9 0 3.1-1 3.1-2.6 0-1.7-1.2-2.5-3.1-2.5-.9 0-1.5.1-1.8.1v5z"></path>
        <path d="m449.1 96.2h-5.9v4.6h6.6v2.3h-9.4v-15.6h9.1v2.3h-6.2v4h5.9v2.4z"></path>
        <path d="m491.5 31h-2v16.1h-2.7v-16.1h-2v-2.2h6.7z"></path>
        <path d="m503.2 28.8v18.3h-2.2v-12.9h-.1l-1.7 12.9h-2.4l-1.7-13h-.1v13h-2.2v-18.3h3.7l1.4 12.3h.1l1.4-12.3z"></path>
    </g>
</svg>