<svg class="fill-current h-16 mx-auto" xmlns="http://www.w3.org/2000/svg" xmlns:xlink="http://www.w3.org/1999/xlink" enable-background="new 0 0 900 140" viewBox="0 0 900 140">
<clipPath id="a">
<path d="m724.4 115.9c.7 2 .7 1.8-2.3 2.4.9 2.7 1.4 4.1 2.3 6.8.4 1.1-.7 1.1-1.9 1.4-.6.1-1-.1-1.2-.7-.9-2.7-1.4-4.1-2.3-6.8-1.8.4-2.8.8-3.1-.3-.3-1-.7-1.7.3-2 2.8-.6 4.2-.9 7.1-1.5.5-.2.9.1 1.1.7zm3.9 8.3c-1.2-3.6-1.8-5.3-3-8.9-.2-.6 0-1 .6-1.1 2.6-.6 2.1-.9 3.5 3.4.2-.8.8-1.4 1.8-1.6 2.5-.6 3.5 1.5 3.9 2.7 1.7 5 2 4.4-.7 5.1-.6.1-1-.1-1.2-.7-.5-1.3-.7-2-1.1-3.4-.2-.6-.6-1.3-1.4-1.1s-.7.9-.5 1.5c.5 1.3.7 2 1.1 3.4.2.6 0 1-.6 1.1-1.1.2-2 .7-2.4-.4zm8.1-5.1c-1.8-5.3 7-7.7 8.8-2.3.2.5-.1.8-.7.9-2 .5-3 .7-5 1.2.3.8 2.3 1.2 3.7 0 .7-.6 1.1-.2 1.7.2 2.6 1.9-6.5 5.8-8.5 0zm5.8-2.3c-.6-1.5-3.5-.8-3.1.8 1.2-.3 1.8-.5 3.1-.8zm6.8 2.6c-2.3-3.1-3.4-4.7-5.7-7.9-.4-.6-.2-1 .4-1.2 1.4-.4 2.1-.7 2.7.1 1.1 1.6 1.6 2.4 2.7 4.1-.1-5.5-.5-5.1 1.3-5.6.5-.1.9 0 1.3.5 1 1.5 1.6 2.2 2.6 3.7-.1-1.9-.2-2.8-.3-4.7-.1-1 .8-1 2.1-1.4.6-.2 1.1.1 1.1.8 0 3.7.1 5.6.1 9.3 0 .5-.2.9-.8 1-2 .5-1.4.8-4.9-4.2.2 5.8.6 5.3-1.5 5.9-.4.2-.8 0-1.1-.4zm15.8-9.6c.2.5 0 .8-.4.8-1.3.2-1.7 1-1.4 2.2.3 1 .5 1.5.8 2.5.2.6 0 1-.6 1.1-1.2.3-2.1.8-2.5-.3-.8-2.4-1.2-3.6-2-6-.2-.6 0-1 .6-1.1 1.2-.3 2-.7 2.4.3.8 2.2-.7-.9 1.6-1.6.9-.2.8.1 1.5 2.1zm-.6-4.2c-.3-.8.1-1.5 1.3-1.8s1.9.1 2.2.9c.5 1.8-2.9 2.8-3.5.9zm3.1 8.7c-.8-2.4-1.2-3.6-2-6-.2-.6 0-1 .6-1.1 1.2-.3 2.1-.8 2.5.3.8 2.4 1.2 3.6 2 6 .2.6 0 1-.6 1.1-1.2.3-2.1.8-2.5-.3zm4.1-1.8c-.4-.5-.3-1 .3-1.3.2-.1.3-.2.6-.3.9-.5 1 .6 2.3.2.4-.1.7-.3.6-.6-.2-.7-4.1.4-4.9-2-.9-2.7 3.2-4.6 5.3-3.2.6.4.5 1-.1 1.3-.2.1-.3.2-.5.3-.8.5-1-.2-1.8 0-.3.1-.4.3-.4.5.2.6 4.1-.3 5 2.1.6 1.7-.8 3-2.6 3.5-1.6.6-2.9.4-3.8-.5zm7.8-3.7c-.4-1.2-.6-1.7-1-2.9-1.2.4-1 .5-1.7-1.4-.2-.6.4-.6 1.3-.9-.2-1.5-.4-2 .3-2.2 2-.6 1.7-.7 2.4 1.4 2.1-.7 1.8-.9 2.5 1.2.2.6-.3.6-1.7 1 1 3 1 3.4 1.5 3.3.4-.1.3-.6.1-1-.3-.6.2-.6 1.3-.9.5-.2.8.3.9.7.8 2.1-.6 3.2-2 3.6-1.3.5-3.1.4-3.9-1.9zm10.4-1.3c.2.6.1 1-.6 1.2-1.2.4-2.1.9-2.5-.2-1.2-3.6-1.8-5.3-3-8.9-.2-.6 0-1 .6-1.2 2.5-.8 2.1-1 3.5 3.2.2-.8.8-1.5 1.8-1.8 4.9-1.6 7.6 6.5 2.7 8.1-.9.4-1.9.2-2.5-.4zm1.8-3.8c-.8-2.3-3.7-1.4-2.9.9s3.7 1.4 2.9-.9zm3.8-1.2c-1.4-4.2 2.9-6.6 4.9-4.9-.2-.6-.1-1.1.6-1.3 1.2-.4 2.1-.9 2.5.2.8 2.4 1.2 3.6 2 6 .2.6 0 1-.6 1.2-1.3.4-2.1 1-2.5-.2-.6 2.5-5.5 3.2-6.9-1zm5.9-2c-.8-2.3-3.6-1.3-2.9 1 .8 2.3 3.7 1.3 2.9-1zm5.4 1.5c-.8-2.4-1.2-3.6-2-6-.2-.6 0-1 .6-1.2 1.2-.4 2.1-1 2.4.1.2.4-.2-1.1 1.8-1.8 2.4-.8 3.4 1.2 3.8 2.4 1.7 5 2 4.4-.6 5.3-.6.2-1 0-1.2-.6-1.2-3.5-1.3-4.8-2.5-4.4s-.5 1.6.7 5c.2.6 0 1-.6 1.2-1.1.6-2 1.1-2.4 0zm7.9-6.1c-1.4-4.2 2.9-6.7 4.8-5-.4-1.2-.6-1.8-1-3-.2-.6 0-1 .6-1.2 1.1-.4 2.1-1 2.4.1 1.2 3.6 1.8 5.3 3 8.9.2.6 0 1-.6 1.2-1.1.4-2.1 1-2.4-.1-.1-.4.2 1.1-1.8 1.9-2.1.7-4.3-.4-5-2.8zm5.8-2.1c-.8-2.3-3.6-1.3-2.8 1s3.6 1.3 2.8-1zm10.1-10.1c.7 2.1.8 1.7-3.7 3.4.2.5.3.8.5 1.3 1.1-.4 1.7-.7 2.9-1.1.6-.2 1 0 1.2.5.6 1.8.5 1.5-3.2 2.9 1.5 4.4 1.7 3.8-.9 4.8-.6.2-1 0-1.2-.6-1.2-3.4-1.7-5.1-2.9-8.6-.2-.6 0-1 .6-1.2 2.2-.8 3.4-1.3 5.6-2.1.5-.1.9.1 1.1.7zm2.3 5.4c-1.4-4.2 2.8-6.8 4.8-5.2-.2-.6-.1-1.1.5-1.3 1.1-.5 2-1.1 2.4 0 .8 2.4 1.2 3.6 2 6 .2.6 0 1-.6 1.2-1.2.5-2 1.1-2.4-.1-.5 2.7-5.3 3.6-6.7-.6zm5.8-2.3c-.8-2.3-3.6-1.2-2.8 1.1s3.6 1.2 2.8-1.1zm4-1.6c-1.2-3.5 2.5-6.8 5.8-6.2 1 .2.6 1.1.3 1.8-.3 1-1.1.5-2.1.9-2.3.9-1.1 4.3 1.1 3.4 1-.4 1.3-1.4 2.1-.9.2.1.3.2.5.3.5.3.6.8.2 1.3-2 2.7-6.8 3-7.9-.6zm9.5-2.5c-.4-1.2-.6-1.7-1-2.9-1.2.5-1 .6-1.6-1.3-.2-.6.4-.7 1.2-1-.2-1.4-.5-2 .2-2.3 1.9-.8 1.6-1 2.3 1.2 2.1-.9 1.7-1.1 2.4 1 .2.6-.2.6-1.6 1.2 1 3 1 3.4 1.5 3.2.4-.2.3-.7.1-1-.3-.6.2-.6 1.3-1.1.5-.2.7.2.9.7.8 2.1-.6 3.4-1.9 3.9-1.3.6-3.1.6-3.8-1.6zm5.6-3.8c-1.8-5.4 6.9-9.2 8.7-3.8s-6.9 9.2-8.7 3.8zm6-2.6c-.8-2.2-4-.8-3.2 1.4.7 2.2 3.9.8 3.2-1.4zm7.9-7.5c.5 1.4 1 2.3.2 2.6-1.3.4-1.6 1.3-1.2 2.5.3 1 .5 1.5.8 2.5.2.6 0 1-.6 1.3-1.1.5-2 1.1-2.4.1-.8-2.4-1.2-3.6-2-6-.2-.6 0-1 .6-1.3 1.1-.5 1.9-1.1 2.3 0 .8 2.2-.7-.9 1.5-1.9.3-.3.6-.4.8.2zm5.1 8.7c.1-1.4.2-2.2.3-3.6-1.9-1.9-2.8-2.8-4.7-4.7-.5-.5-.3-1 .3-1.3.5-.2.8-.4 1.3-.6s.9-.2 1.2.3c.9 1.1 1.3 1.7 2.1 2.8.1-5.2-.3-4.4 2.1-5.6.6-.3 1 0 1 .7-.3 4.5-.5 6.8-.8 11.2-.1 1-.7 1.1-1.8 1.6-.6.2-1-.1-1-.8z"></path>
</clipPath>
<ellipse cx="792.6" cy="78" fill="#014f8e" rx="91.9" ry="7.6" transform="matrix(.9485 -.3168 .3168 .9485 16.1106 255.0994)"></ellipse>
<path d="m789.9 69.9c-50.3 16.8-89.6 34.5-87.9 39.5 0 0 6.3 19 8 24s43.8-4.5 94-21.3c50.3-16.8 89.6-34.5 87.9-39.5l-8-24c-1.7-5-43.7 4.5-94 21.3zm5.1 15.4c-48.1 16.1-88.2 25.9-89.6 21.8s36.6-20.3 84.7-36.4 88.2-25.9 89.6-21.8c1.4 4-36.5 20.3-84.7 36.4z" fill="#0b83e3"></path>
<g fill="#bbb">
<path d="m792.2 105.6c-7.4 0-11.2-6.5-7.1-13.3l8.6-13.8-5.2-18.3c-2.8 2.4-6.1 2-5.6 2-2.6 0-5.6-1.1-6.4 4.2l-2.3 13.1c-1 5.5-5 8.9-10.6 8.9h-6.6c-5 0-8.1-2.9-8.9-6.6-12.4 9.9-32.4 10.4-41.8-1.4-4 5.7-10.5 8.9-18.8 8.9-9.1 0-14.5-3.9-16.8-9-.9 2-2.6 3.7-4.8 4.9-11.2 6.1-27.7 5.8-36.5-4.1-1.4 4.6-5.2 7.3-10.2 7.3-6.7 0-9.5.4-12.4-1.7-13.1 7.1-31.2-.3-31.3-19-.7 0 0 0-11.7 0l-2.1 11.8c-1 5.5-5 8.9-10.6 8.9h-6.9c-4.3 0-7.2-2.1-8.4-5.1-1.8 3.2-5.1 5.1-9.2 5.1-6.7 0-9.5.4-12.4-1.7-8.5 4.6-20.3 3.2-26.8-5-1.6 4.2-5.2 6.8-10 6.8h-6.6c-4.9 0-8-2.8-8.8-6.3-1.6 4-5.2 6.3-9.8 6.3-6.5 0-9.6.5-12.6-1.9-3.3 2.3-6.4 1.9-13 1.9-2.7 0-4.6-.8-5.8-1.7-9.6 5.2-23.6 2.8-29.1-8.8-9.1 12-23.6 13.8-31.6 8.8-3.3 2.2-6.2 1.8-12.8 1.8-3.3 0-6.2-1.2-7.8-3.9-8.7 7-26.2 6.9-31.5-3.8-4.4 5.4-11.9 8.6-21 8.6-8.3 0-13.3-2.5-16.3-5.5-1.9 3-5.1 4.7-9 4.7h-6.6c-6.2 0-10-4.5-8.9-10.7l2.7-15.5c-2.9.1-5.8-1.1-6.7 4.2l-2.3 13.1c-1 5.5-5 8.9-10.6 8.9h-6.6c-6.2 0-10-4.5-8.9-10.7l1.4-8.2-6 12.2c-2.3 4.4-6 6.8-10.6 6.8h-4.3c-5.3 0-9-3.2-9.6-8.5l-.6-4.5-2.9 6.2c-2.1 4.4-5.8 6.8-10.6 6.8h-4.3c-5.2 0-8.9-3.2-9.7-8.3l-1.8-12.8c-1.2 1.7-3.1 3-5.7 3.6 2.7 4.9 1.1 10.4-4 13.4-11.8 6.8-30.1 7.2-39.4-3.6-1.4 4.7-5.2 7.5-10.3 7.5h-6.6c-4.9 0-8-2.7-8.8-6.3-1.6 4-5.2 6.3-9.8 6.3h-6.6c-6.2 0-10-4.4-8.9-10.7l5.2-29.3c-1 .1-1.1.1-7.1.1l-5.5 31.1c-1 5.5-5 8.9-10.6 8.9h-6.6c-6.2 0-10-4.4-8.9-10.7l5.1-29.2h-3.5c-6.1 0-10-4.4-8.9-10.7l.8-4.5c1-5.6 5.1-9 10.6-9h35.5c2.2 0 3.8.5 5 1.2 3.6-3.6 7.7-3 14.2-3 6.1 0 10 4.4 8.9 10.7l-.7 4.1c1.6-.4 3.3-.6 5.1-.6 8.4 0 13.6 4.1 15.7 10.1 12.3-13.5 33.7-12.5 42.7-2.9l-1.2-8.6c-.9-6.1 3.2-11.2 9.9-11.2h7.1c5.4 0 9.2 3.4 9.7 8.7l.4 4.3 2.2-4.4c2-4.3 5.8-6.8 10.5-6.8h3.4c5.3 0 9 3.2 9.6 8.5l-.3 2.3 2.7-5.9c2-4.4 5.8-7 10.6-7h7.1c6.5 0 11.2 5.4 7.2 13.4 4.6 0 7.9-.4 10.8 1.9 4-2.5 8.7-3.1 11.5-2.5-1.6-7.4 4-15.9 15.1-15.9 14.5 0 16.1 14.2 8.4 20.8.2.3.4.7.5 1.1 8.6-7.6 22.8-7.8 30-2.6 1.4-1.7 3.6-2.7 6.1-2.7h1.2l1.3-3.7c1.5-3.9 4.8-6.2 8.8-6.2 5.9 0 9.4-.6 12.1 2.6 1.8 2.2 2 4.6 1.5 7.3h1.1c2.2 0 4.2.9 5.5 2.4.3.3 0 1.5 1.7-8.6 1-5.5 5-8.9 10.6-8.9h6.6c6.2 0 10 4.4 8.9 10.7l-.7 4.2c9.4-2.3 19.6 1.4 24.1 10.7 9-11.9 23.6-13.7 31.6-8.7 3.3-2.2 6.2-1.8 12.8-1.8 2.8 0 4.7.9 6 1.9 1.7-1.2 3.9-1.9 6.3-1.9 6.1 0 9.4-.5 12.4 1.7 8.3-4.6 21.7-3.6 25.7 7.1 7.9-9.1 19.6-11.4 27.4-8.5l1.2-6.6c1-5.5 5-8.9 10.6-8.9h6.6c4.7 0 7.7 2.5 8.7 5.9 1.9-2.6 4.9-4.2 8.6-4.2h29.6c6.2 0 10 4.4 8.9 10.7-.8 4.9-.8 4.6-.8 5 6.7-3.6 15.8-4.6 22.2-.6 3.3-2.2 6.2-1.8 12.8-1.8 5 0 8.2 2.9 8.9 6.7 10.7-8.5 25.5-9.5 35.3-4.4 2.3-2.3 4.7-2.3 6.9-2.3l1.3-3.7c1.5-3.9 4.8-6.2 8.8-6.2 5.9 0 9.4-.6 12.1 2.6 1.8 2.2 2 4.6 1.5 7.3h1.1c2.2 0 4.2.9 5.5 2.4 2.3 2.7 1.6 5.6 1.2 8 12.6-14.3 35.1-14.5 45.1-3.2 1.5-4.5 5.2-7.2 10.1-7.2 6 0 9-.4 12 1.9 4.1-2.6 11-4.1 14.6-1.1 2.5-1 4.2-.8 11.6-.8 5.4 0 9 3.1 9.8 8.2l.3 2 2.1-3.8c2.2-4.2 5.9-6.4 10.5-6.4h6.7c7.4 0 11.2 6.5 7.1 13.3l-30.4 48.9c-2.5 3.9-6 5.9-10.4 5.9h-5.8zm-131.2-40.9c3.1 0 5.7 1.5 7.4 4.2l.9 1.4c.2-1.5.2-1.5 2-11.5-.4-.2-.8-.3-1.1-.6-3.3 3-7.3 3.8-11.9 1.5-3.8-1.6-7.3.7-7.8 3.9-.3 1.9.2 2.8 2.2 2.8 2.9.2 4.6-1.7 8.3-1.7zm-55.1-5.5c-3.5 0-4.6 6.6-3.7 7.5 0 0 .2.1.5.1 3.5 0 4.8-6.5 3.7-7.5 0-.1-.2-.1-.5-.1zm-92.7 0c-3.5 0-4.6 6.6-3.7 7.5 0 0 .2.1.5.1 3.5 0 4.8-6.5 3.7-7.5 0-.1-.2-.1-.5-.1zm-93.5 0c-3.5 0-4.7 6.6-3.7 7.5 0 0 .2.1.5.1 3.5 0 4.8-6.5 3.7-7.5 0-.1-.2-.1-.5-.1zm-49.1 0c-3.5 0-4.6 6.6-3.7 7.5 0 0 .2.1.5.1 3.5 0 4.8-6.5 3.7-7.5 0-.1-.1-.1-.5-.1zm361.4.2c-4.6 0-5.9 5.3-4.8 6.5 1 1.2 6 .7 6.9-3.9.3-1.9-.4-2.6-2.1-2.6zm-390.8.6.3-2c-2.4 1.6-4.5 1.4-7.5 1.4l-.1.4c5.8 0 6.1-.1 7.3.2zm361.3-.2c.4-1.5.5-.4-2.3-.4h-2.9l-.1.4zm-396-1.8c.5.5 1 .9 1.5 1.4l.1-.6c-1.2-.4-1.5-.8-1.6-.8z"></path>
<path d="m268.1 26.1c6 0 8.3 3.1 7.6 7.1s-4.4 7.1-10.1 7.1-8.3-3.1-7.6-7.1 4.1-7.1 10.1-7.1m268.2 1.5c3 0 4.3 1.6 3.8 4.6l-8.1 46.4c-.5 3-2.5 4.6-5.5 4.6h-6.6c-3 0-4.4-1.5-3.7-5-8.8 11.2-31.7 6.5-27.8-15.2 3.9-22.1 28.7-26.2 33.1-15.1l2.8-15.6c.5-3 2.5-4.6 5.5-4.6h6.5m-26.3 44.2c10 0 13.1-18 3.2-18-10 .1-13.1 18-3.2 18m-146.5-44.3c3 0 4.3 1.6 3.8 4.6l-2.8 15.6c8.7-11.3 31.7-6.5 27.9 15.1-3.9 21.9-28.7 26.3-33.2 15.2l-.1.4c-.5 3-2.5 4.6-5.5 4.6h-6.6c-3 0-4.3-1.6-3.8-4.6l8.1-46.4c.5-3 2.5-4.6 5.5-4.6h6.7m4 44.4c10 0 13.1-18 3.2-18-10 .1-13.2 18-3.2 18m-288-44.3c3 0 4.3 1.6 3.8 4.6l-2.7 15.5c2.8-3.6 6.8-5.8 12.2-5.8 12.5 0 12.1 11 11 17.6l-3.4 19.1c-.5 3-2.5 4.6-5.5 4.6h-6.6c-3 0-4.3-1.6-3.8-4.6l3.2-17.6c.5-3.2.5-6.8-3.5-6.8-4.1 0-5.4 3.7-5.9 6.8l-3.1 17.5c-.5 3-2.5 4.6-5.5 4.6h-6.6c-3 0-4.3-1.6-3.8-4.6l8.1-46.4c.5-3 2.5-4.6 5.5-4.6h6.6m503.8 1.9c3 0 4.3 1.6 3.8 4.6l-.8 4.6c-.5 3-2.5 4.6-5.5 4.6h-18.1l-1.2 7h15.1c3 0 4.3 1.6 3.8 4.6l-.5 3.1c-.5 3-2.4 4.6-5.4 4.6h-15.1l-2.8 16.1c-.5 3-2.5 4.6-5.5 4.6h-6.9c-3 0-4.3-1.6-3.8-4.6l7.8-44.6c.5-3 2.5-4.6 5.5-4.6zm-360 0c3.3 0 4.4 2.1 2.8 5.2l-22.1 44.7c-2.3 4.5-5.4 3.8-10.2 3.8-2.7 0-4.2-1.2-4.5-3.8l-2.8-22.4-10.6 22.4c-2.1 4.5-5.3 3.8-10.1 3.8-2.7 0-4.2-1.3-4.5-3.8l-6.2-44.7c-.5-3.2 1.4-5.2 4.7-5.2h7.1c2.7 0 4.2 1.3 4.5 3.9l2.2 22.8 10.2-21.1c2-4.3 5-3.8 9.2-3.8 2.7 0 4.2 1.2 4.5 3.8l2.6 21.1 10.3-22.8c1.2-2.6 3.2-3.9 5.8-3.9zm-163 0c3 0 4.3 1.6 3.8 4.6l-.8 4.6c-.5 3-2.5 4.6-5.5 4.6h-10l-6.2 35.4c-.5 3-2.5 4.6-5.5 4.6h-6.6c-3 0-4.3-1.6-3.8-4.6l6.3-35.4h-9.7c-3 0-4.3-1.6-3.8-4.6l.8-4.6c.5-3 2.5-4.6 5.5-4.6zm633.3 3.4c2 0 2.8 1.1 2.5 3.1l-1.2 6.8h7.3c1.5 0 2.2.8 1.9 2.3l-1.2 6.8c-.2 1.5-1.2 2.3-2.7 2.3h-7.3l-2.7 15.1c-.3 1.8.4 2.5 1.5 2.5 1.6 0 2.5-1.6 2.7-3.1.3-1.3-.1-3.7 2.5-3.7h5.7c1.2 0 2.2.5 2.3 1.7 1 4.4-2.2 17.3-17.4 17.3-7.2 0-14.8-3-12.8-14.8l2.7-15h-3.2c-1.5 0-2.2-.8-1.9-2.3l1.2-6.8c.2-1.5 1.2-2.3 2.7-2.3h4.9l2.5-7.1c.7-1.8 2.1-2.8 3.9-2.8zm-363.2 0c2 0 2.8 1.1 2.5 3.1l-1.2 6.8h7.3c1.5 0 2.2.8 1.9 2.3l-1.2 6.8c-.2 1.5-1.2 2.3-2.7 2.3h-7.3l-2.7 15.2c-.3 1.8.4 2.5 1.5 2.5 1.6 0 2.5-1.6 2.7-3.1.3-1.3 0-3.7 2.5-3.7h5.7c1.2 0 2.2.5 2.3 1.7 1 4.4-2.2 17.3-17.4 17.3-7.2 0-14.8-3-12.8-14.8l2.7-15h-3.2c-1.5 0-2.2-.8-1.9-2.3l1.2-6.8c.2-1.5 1.2-2.3 2.7-2.3h4.9l2.5-7.1c.7-1.8 2.1-2.8 3.9-2.8h6.1m455.5 9c2.2 0 2.3 1.8 2.1 3.2l-1.5 8.5c-.4 2.4-1.9 3.5-3.9 3.4-5.9-.7-10.2 2.2-11.2 8.6l-2.3 13c-.5 3-2.5 4.6-5.5 4.6h-6.6c-3 0-4.3-1.6-3.8-4.6l5.5-31.2c.5-3 2.5-4.6 5.5-4.6h6c3 0 4.3 1.6 3.8 4.6l-.7 3.9c1.8-5.7 6.2-9.4 12.6-9.4m-51.7 0c13.8 0 21.7 9.4 19.7 21.1-2.1 11.6-13.3 21-27.2 21-13.8 0-21.7-9.4-19.6-21.1 2-11.6 13.3-21 27.1-21m-5.2 29.8c11.6 0 14.6-17.5 3.1-17.5-11.7 0-14.7 17.5-3.1 17.5m-72.1-29.8c4.5 0 9.2 1.1 12.8 3.5 2.2 1.6 1.9 4.1-.5 6.5s-3.7 4.1-5.9 4.1c-2.3 0-3.6-1.8-7.5-1.8-12 0-15 17.7-3.2 17.7 3.8 0 6-1.9 8.3-1.9 2.4 0 3.1 2 4.5 4.2 1.5 2.3.9 4.9-2.1 6.5-4.4 2.4-9.5 3.5-13.9 3.5-13.8 0-22.1-9.4-20-21.1 2.1-11.8 13.7-21.2 27.5-21.2m-53.2 0c5.2 0 9 2.2 10.5 5.9.5-3.2 2.2-5.1 5.5-5.1h6.6c3 0 4.3 1.6 3.8 4.6l-5.5 31.2c-.5 3-2.5 4.6-5.5 4.6h-6.6c-3 0-4.4-1.5-3.7-5-8.8 11.2-31.7 6.5-27.8-15.2 2.2-12.2 12-21 22.7-21m-1 30c10 0 13.2-18 3.2-18-10 .1-13.1 18-3.2 18m-127.6-30c12.5 0 12.1 11 11 17.6l-3.4 19.1c-.5 3-2.5 4.6-5.5 4.6h-6.6c-3 0-4.3-1.6-3.8-4.6l3.1-17.5c.5-3.2.5-6.8-3.5-6.8-4.1 0-5.4 3.7-5.9 6.8l-3.1 17.5c-.5 3-2.5 4.6-5.5 4.6h-6.6c-3 0-4.3-1.6-3.8-4.6l5.5-31.2c.5-3 2.5-4.6 5.5-4.6h6.6c3 0 4.3 1.6 3.8 4.6v.4c2.8-3.7 6.7-5.9 12.2-5.9m-57.6 0c5.2 0 9 2.2 10.5 5.9.5-3.2 2.2-5.1 5.5-5.1h6.6c3 0 4.3 1.6 3.8 4.6l-5.5 31.2c-.5 3-2.5 4.6-5.5 4.6h-6.6c-3 0-4.4-1.5-3.7-5-8.8 11.2-31.7 6.5-27.8-15.2 2.2-12.2 11.9-21 22.7-21m-1 30c10 0 13.1-18 3.2-18-10 .1-13.1 18-3.2 18m-122.1-30c5.5 0 9.8 1.6 12.4 5.7 1.6 2.7-.2 5.2-3.5 6.1-3.1.8-3.7 1-4.6 1-3.1 0-2.8-2.5-6.2-2.5-1.7 0-2.7.9-2.8 1.9-.2 1 .6 1.5 2.3 2.1l4 1.8c8.2 3.1 11.4 7.4 10.5 12.9-1.5 9.1-10.5 13.1-19.9 13.1-8.1 0-13.5-2.7-15.2-8.5-.8-2.8 1.2-4.9 4.2-5.6 5.6-1.2 5.4-1.5 8.4 1.9 1.1 1.1 2.6 1.5 4.5 1.5 2.3 0 3.8-.7 4.1-2 .3-1.4-.8-1.6-6.6-3.8-2.1-.8-12-3.5-10.5-12.3 1.5-8.1 9.6-13.3 18.9-13.3m-43.2 0c2.2 0 2.3 1.8 2.1 3.2l-1.5 8.5c-.4 2.4-1.9 3.5-3.9 3.4-5.9-.7-10.2 2.2-11.2 8.6l-2.3 13c-.5 3-2.5 4.6-5.5 4.6h-6.6c-3 0-4.3-1.6-3.8-4.6l5.5-31.2c.5-3 2.5-4.6 5.5-4.6h6c3 0 4.3 1.6 3.8 4.6l-.7 3.9c1.8-5.7 6.2-9.4 12.6-9.4m-118.9 0c12.8 0 20.9 7.7 18.7 20.6-.5 2.5-2.6 3.6-5.5 3.6h-25.4c-.4 2.2 2.5 6.1 9.4 6.1 5.5 0 7.8-2.4 10.4-2.4 2.2 0 2.8 1.5 4.1 3.6 1.3 2.3.8 4.8-2.1 6.5-5.1 2.9-10.8 4.1-16 4.1-32.1 0-23.3-42.1 6.4-42.1m-10.8 16.9h15.8c.9-7.9-14-7.7-15.8 0m710.3-16.1c3.5 0 4.5 2.2 2.6 5.4l-30.4 48.8c-2.6 4.2-5.3 3.5-11.8 3.5-3.5 0-4.5-2.2-2.6-5.4l9.8-15.8-8.8-31.1c-.9-3.2.9-5.4 4.5-5.4h7.3c2.7 0 4.2 1.2 4.6 3.8l2.8 16.9 9.5-17c1.3-2.5 3.3-3.7 5.9-3.7zm-563.4 0c3 0 4.3 1.6 3.8 4.6l-5.5 31.2c-.5 3-2.5 4.6-5.5 4.6h-6.6c-3 0-4.3-1.6-3.8-4.6l5.5-31.2c.5-3 2.5-4.6 5.5-4.6zm-.3-27c-10.3 0-18.8 6.2-20.4 15.9-2.1.3-4.2.9-6.3 1.8-1.2-.5-2.6-.9-4.1-1 .2-7.2-5.3-13.5-13.9-13.5h-7.1c-5.1 0-9.6 2.1-12.7 5.8-4.6-4.4-9.7-4-13.9-4s-7.9 1.4-10.8 3.8c-2.6-3.5-6.9-5.6-12-5.6h-7.1c-9 0-15.1 6.6-15.2 14.6-10.1-3.7-24.2-2.8-34.8 5.1-4-4.8-9.8-7-16-7.2.2-8.1-5.6-14.3-14.3-14.3-6.4 0-10.6-.5-15.1 2.3-2.7-.7-1.4-.5-39.6-.5-8.1 0-14.3 5.2-15.7 13.2 0 .1.1-.4-.8 4.7-1.5 8.6 3.6 15.4 11.3 16.6l-4.1 23.3c-1.7 9.4 4.6 16.9 14 16.9h6.6c6.1 0 11.2-3 13.9-7.9 2.1 4.7 6.8 7.9 13.1 7.9 6.7 0 11.3.6 16.1-2.9 1.9 1.5 4.9 2.9 9.2 2.9 7.1 0 12.9.7 18.1-4.7 14.5 9.9 38.4 5.1 45.6-4.2 2.3 5.5 7.3 8.9 13.8 8.9 5.5 0 11.2.5 16.4-5.1 4.8 5.7 11.1 5.1 15.8 5.1 4.9 0 9.3-1.9 12.4-5.5 2.4 3.2 6.4 5.5 11.6 5.5h6.6c5.7 0 10.4-2.6 13.3-6.9 2.3 4.1 6.8 6.9 12.5 6.9 6.7 0 11.3.6 16.1-2.9 9.1 5.4 25.8 5.4 36.2-2.2 7.9 7.5 22.3 7.6 31.5 2.7 4.5 3.1 8.8 2.5 15.1 2.5 2.2 0 4.3-.4 6.2-1.1 8.7 3.8 21.2 2.3 31-6.3 7.7 8.5 20 10.1 29.6 6.3 1.6.7 3.6 1.1 6 1.1 6.2 0 9.2.3 12.9-1.2 3.5 1.5 6.3 1.2 12.7 1.2 3.7 0 6.9-1.1 9.5-2.9 1.9 1.5 4.9 2.9 9.2 2.9 6.8 0 12.3.7 17.4-4 7.6 5.5 17.8 6.1 25.8 2.9 3.5 1.4 6.2 1.1 12.6 1.1 3.4 0 6.5-.9 9-2.6 4.4 3.1 8.4 2.6 15.6 2.6 8.1 0 14.3-5.2 15.7-13.2l1.3-7.5h2.6c3.1 17.7 20.8 25.7 35.9 19.6 1.6.7 3.6 1.1 6 1.1 7 0 12.9.7 18-4.6 10.8 7.3 26.3 6.9 37.7.7.7-.4 1.4-.8 2.1-1.3 8.5 7.9 26 8.2 36.1-.6 10.9 8.7 27.7 8.3 39.9 1.4 4.8 5 10.3 4.3 17.2 4.3 8.1 0 14.3-5.2 15.7-13.2 3-17.2 2.1-12.1 2.3-13.1 1.1.1 2.3.1 3.5-.1l3 10.4c-9.9 15.9-6.8 10.9-7.4 11.9-6.3 10.3.1 21.2 11.5 21.2h5.8c6.3 0 11.4-2.9 14.8-8.4 38.3-61.6 29-46.5 30.4-48.9 6.3-10.3-.2-21.2-11.5-21.2-7.2 0-12.8-.7-18.3 4.5-2.7-2.9-6.6-4.5-11.1-4.5-7.3 0-8.5-.1-10.8.4-4.5-2.1-10.8-1.3-15.4.8-3.4-1.4-5.9-1.1-12-1.1-4.5 0-8.5 1.6-11.3 4.5-11.5-7.8-28.3-6.7-40.2 1-1.4-2.2-3.6-3.9-6.2-4.8-.9-6-5.9-10.6-12.9-10.6h-6c-6 0-11.5 3.4-13.9 10.1-1.3.2-2.6.7-3.7 1.3-9.7-3.7-22.2-3.2-32.9 2.9-4.8-5.1-10.4-4.4-17.3-4.4-2.2 0-4.3.4-6.1 1.1-5-2.2-10.8-2.4-16-1.3-.3-7.5-6-13.2-14.3-13.2h-29.6c-2.8 0-5.3.6-7.5 1.7-4.7-4.2-9.7-3.5-16.4-3.5-8.1 0-14.3 5.2-15.7 13.2l-.2 1.2c-7.4-.7-15.4 1.4-22.1 6.6-6.6-7.4-18.4-8.2-26.7-4.8-1.6-.6-3.5-1.1-5.9-1.1-6.2 0-9.2-.3-12.9 1.2-3.5-1.5-6.3-1.2-12.7-1.2-2.2 0-4.3.4-6.1 1.1-8.5-3.7-21.2-2.4-31 6.3-4.7-5.1-11.2-8-18.6-8.2.2-8-5.5-14.3-14.3-14.3h-6.6c-7.4 0-13.3 4.4-15.3 11.3-2.2-3.7-6.2-6.1-11.2-6.1h-6c-6 0-11.5 3.4-13.9 10.1-1.4.3-2.7.7-3.9 1.4-6.1-2.9-14-3.1-20.3-1.5.3-8.8-6.3-16.6-18.1-16.6z"></path>
<path d="m792.2 100.4c-7.4 0-11.2-6.5-7.1-13.3l8.6-13.8-5.2-18.3c-2.8 2.4-6.1 2-5.6 2-2.6 0-5.6-1.1-6.4 4.2l-2.3 13.1c-1 5.5-5 8.9-10.6 8.9h-6.6c-5 0-8.1-2.9-8.9-6.6-12.4 9.9-32.4 10.4-41.8-1.4-4 5.7-10.5 8.9-18.8 8.9-9.1 0-14.5-3.9-16.8-9-.9 2-2.6 3.7-4.8 4.9-11.2 6.1-27.7 5.8-36.5-4.1-1.4 4.6-5.2 7.3-10.2 7.3-6.7 0-9.5.4-12.4-1.7-13.1 7.1-31.2-.3-31.3-19-.7 0 0 0-11.7 0l-2.1 11.8c-1 5.5-5 8.9-10.6 8.9h-6.9c-4.3 0-7.2-2.1-8.4-5.1-1.8 3.2-5.1 5.1-9.2 5.1-6.7 0-9.5.4-12.4-1.7-8.5 4.6-20.3 3.2-26.8-5-1.6 4.2-5.2 6.8-10 6.8h-6.6c-4.9 0-8-2.8-8.8-6.3-1.6 4-5.2 6.3-9.8 6.3-6.5 0-9.6.5-12.6-1.9-3.3 2.3-6.4 1.9-13 1.9-2.7 0-4.6-.8-5.8-1.7-9.6 5.2-23.6 2.8-29.1-8.8-9.1 12-23.6 13.8-31.6 8.8-3.3 2.2-6.2 1.8-12.8 1.8-3.3 0-6.2-1.2-7.8-3.9-8.7 7-26.2 6.9-31.5-3.8-4.4 5.4-11.9 8.6-21 8.6-8.3 0-13.3-2.5-16.3-5.5-1.9 3-5.1 4.7-9 4.7h-6.6c-6.2 0-10-4.5-8.9-10.7l2.7-15.5c-2.9.1-5.8-1.1-6.7 4.2l-2.3 13.1c-1 5.5-5 8.9-10.6 8.9h-6.6c-6.2 0-10-4.5-8.9-10.7l1.4-8.2-6 12.2c-2.3 4.4-6 6.8-10.6 6.8h-4.3c-5.3 0-9-3.2-9.6-8.5l-.6-4.5-2.9 6.2c-2.1 4.4-5.8 6.8-10.6 6.8h-4.3c-5.2 0-8.9-3.2-9.7-8.3l-1.8-12.8c-1.2 1.7-3.1 3-5.7 3.6 2.7 4.9 1.1 10.4-4 13.4-11.8 6.8-30.1 7.2-39.4-3.6-1.4 4.7-5.2 7.5-10.3 7.5h-6.6c-4.9 0-8-2.7-8.8-6.3-1.6 4-5.2 6.3-9.8 6.3h-6.6c-6.2 0-10-4.4-8.9-10.7l5.2-29.3c-1 .1-1.1.1-7.1.1l-5.5 31.1c-1 5.5-5 8.9-10.6 8.9h-6.6c-6.2 0-10-4.4-8.9-10.7l5.1-29.2h-3.5c-6.1 0-10-4.4-8.9-10.7l.8-4.5c1-5.6 5.1-9 10.6-9h35.5c2.2 0 3.8.5 5 1.2 3.6-3.6 7.7-3 14.2-3 6.1 0 10 4.4 8.9 10.7l-1.2 3.7c1.6-.4 3.3-.6 5.1-.6 8.4 0 13.6 4.1 15.7 10.1 12.3-13.5 33.7-12.5 42.7-2.9l-1.2-8.6c-.9-6.1 3.2-11.2 9.9-11.2h7.1c5.4 0 9.2 3.4 9.7 8.7l.4 4.3 2.2-4.4c2-4.3 5.8-6.8 10.5-6.8h3.4c5.3 0 9 3.2 9.6 8.5l.3 2.7 2.7-5.9c2-4.4 5.8-7 10.6-7h7.1c6.5 0 11.2 5.4 7.2 13.4 4.6 0 7.9-.4 10.8 1.9 4-2.5 8.7-3.1 11.5-2.5-1.6-7.4 4-15.9 15.1-15.9 14.5 0 16.1 14.2 8.4 20.8.2.3.4.7.5 1.1 8.6-7.6 22.8-7.8 30-2.6 1.4-1.7 3.6-2.7 6.1-2.7h1.2l1.3-3.7c1.5-3.9 4.8-6.2 8.8-6.2 5.9 0 9.4-.6 12.1 2.6 1.8 2.2 2 4.6 1.5 7.3h1.1c2.2 0 4.2.9 5.5 2.4.3.3 0 1.5 1.7-8.6 1-5.5 5-8.9 10.6-8.9h6.6c6.2 0 10 4.4 8.9 10.7l-.7 4.2c9.4-2.3 19.6 1.4 24.1 10.7 9-11.9 23.6-13.7 31.6-8.7 3.3-2.2 6.2-1.8 12.8-1.8 2.8 0 4.7.9 6 1.9 1.7-1.2 3.9-1.9 6.3-1.9 6.1 0 9.4-.5 12.4 1.7 8.3-4.6 21.7-3.6 25.7 7.1 7.9-9.1 19.6-11.4 27.4-8.5l1.2-6.6c1-5.5 5-8.9 10.6-8.9h6.6c4.7 0 7.7 2.5 8.7 5.9 1.9-2.6 4.9-4.2 8.6-4.2h29.6c6.2 0 10 4.4 8.9 10.7-.8 4.9-.8 4.6-.8 5 6.7-3.6 15.8-4.6 22.2-.6 3.3-2.2 6.2-1.8 12.8-1.8 5 0 8.2 2.9 8.9 6.7 10.7-8.5 25.5-9.5 35.3-4.4 2.3-2.3 4.7-2.3 6.9-2.3l1.3-3.7c1.5-3.9 4.8-6.2 8.8-6.2 5.9 0 9.4-.6 12.1 2.6 1.8 2.2 2 4.6 1.5 7.3h1.1c2.2 0 4.2.9 5.5 2.4 2.3 2.7 1.6 5.6 1.2 8 12.6-14.3 35.1-14.5 45.1-3.2 1.5-4.5 5.2-7.2 10.1-7.2 6 0 9-.4 12 1.9 4.1-2.6 11-4.1 14.6-1.1 2.5-1 4.2-.8 11.6-.8 5.4 0 9 3.1 9.8 8.2l.3 2 2.1-3.8c2.2-4.2 5.9-6.4 10.5-6.4h6.7c7.4 0 11.2 6.5 7.1 13.3l-30.4 48.9c-2.5 3.9-6 5.9-10.4 5.9h-5.9zm-131.2-40.9c3.1 0 5.7 1.5 7.4 4.2l.9 1.4c.2-1.5.2-1.5 2-11.5-.4-.2-.8-.3-1.1-.6-3.3 3-7.3 3.8-11.9 1.5-3.8-1.6-7.3.7-7.8 3.9-.3 1.9.2 2.8 2.2 2.8 2.9.2 4.6-1.7 8.3-1.7zm-55.1-5.5c-3.5 0-4.6 6.6-3.7 7.5 0 0 .2.1.5.1 3.5 0 4.8-6.5 3.7-7.5 0-.1-.2-.1-.5-.1zm-92.7 0c-3.5 0-4.6 6.6-3.7 7.5 0 0 .2.1.5.1 3.5 0 4.8-6.5 3.7-7.5 0-.1-.2-.1-.5-.1zm-93.5 0c-3.5 0-4.7 6.6-3.7 7.5 0 0 .2.1.5.1 3.5 0 4.8-6.5 3.7-7.5 0-.1-.2-.1-.5-.1zm-49.1 0c-3.5 0-4.6 6.6-3.7 7.5 0 0 .2.1.5.1 3.5 0 4.8-6.5 3.7-7.5 0-.1-.1-.1-.5-.1zm361.4.2c-4.6 0-5.9 5.3-4.8 6.5 1 1.2 6 .7 6.9-3.9.3-2-.4-2.6-2.1-2.6zm-390.8.6.3-2c-2.4 1.6-4.5 1.4-7.5 1.4l-.1.4c5.8 0 6.1-.1 7.3.2zm361.3-.2c.4-1.5.5-.4-2.3-.4h-2.9l-.1.4zm-396-1.8c.5.5 1 .9 1.5 1.4l.1-.6c-1.2-.4-1.5-.8-1.6-.8z"></path>
<path d="m268.1 20.9c6 0 8.3 3.1 7.6 7.1s-4.4 7.1-10.1 7.1-8.3-3.1-7.6-7.1 4.1-7.1 10.1-7.1m268.2 1.5c3 0 4.3 1.6 3.8 4.6l-8.1 46.4c-.5 3-2.5 4.6-5.5 4.6h-6.6c-3 0-4.4-1.5-3.7-5-8.8 11.2-31.7 6.5-27.8-15.2 3.9-22.1 28.7-26.2 33.1-15.1l2.8-15.6c.5-3 2.5-4.6 5.5-4.6h6.5m-26.3 44.2c10 0 13.1-18 3.2-18-10 0-13.1 18-3.2 18m-146.5-44.3c3 0 4.3 1.6 3.8 4.6l-2.8 15.6c8.7-11.3 31.7-6.5 27.9 15.1-3.9 21.9-28.8 26.3-33.2 15.3l-.1.4c-.5 3-2.5 4.6-5.5 4.6h-6.6c-3 0-4.3-1.6-3.8-4.6l8.1-46.4c.5-3 2.5-4.6 5.5-4.6zm4 44.3c10 0 13.1-18 3.2-18-10 0-13.2 18-3.2 18m-288-44.3c3 0 4.3 1.6 3.8 4.6l-2.7 15.5c2.8-3.6 6.8-5.8 12.2-5.8 12.5 0 12.1 11 11 17.6l-3.4 19.1c-.5 3-2.5 4.6-5.5 4.6h-6.6c-3 0-4.3-1.6-3.8-4.6l3.1-17.5c.5-3.2.5-6.8-3.5-6.8-4.1 0-5.4 3.7-5.9 6.8l-3.1 17.5c-.5 3-2.5 4.6-5.5 4.6h-6.6c-3 0-4.3-1.6-3.8-4.6l8.3-46.4c.5-3 2.5-4.6 5.5-4.6zm503.8 1.7c3 0 4.3 1.6 3.8 4.6l-.8 4.6c-.5 3-2.5 4.6-5.5 4.6h-18.1l-1.2 7h15.1c3 0 4.3 1.6 3.8 4.6l-.5 3.1c-.5 3-2.4 4.6-5.4 4.6h-15.1l-2.8 16.1c-.5 3-2.5 4.6-5.5 4.6h-6.9c-3 0-4.3-1.6-3.8-4.6l7.8-44.6c.5-3 2.5-4.6 5.5-4.6zm-360 0c3.3 0 4.4 2.1 2.8 5.2l-22.1 44.7c-2.3 4.5-5.4 3.8-10.2 3.8-2.7 0-4.2-1.2-4.5-3.8l-2.8-22.4-10.6 22.4c-2.1 4.5-5.3 3.8-10.1 3.8-2.7 0-4.2-1.3-4.5-3.8l-6.2-44.7c-.5-3.2 1.4-5.2 4.7-5.2h7.1c2.7 0 4.2 1.3 4.5 3.9l2.2 22.8 10.3-21.1c2-4.3 5-3.8 9.2-3.8 2.7 0 4.2 1.2 4.5 3.8l2.6 21.1 10.3-22.8c1.2-2.6 3.2-3.9 5.8-3.9zm-163 0c3 0 4.3 1.6 3.8 4.6l-.8 4.6c-.5 3-2.5 4.6-5.5 4.6h-10l-6.2 35.4c-.5 3-2.5 4.6-5.5 4.6h-6.6c-3 0-4.3-1.6-3.8-4.6l6.3-35.3h-9.7c-3 0-4.3-1.6-3.8-4.6l.8-4.6c.5-3 2.5-4.6 5.5-4.6h35.5m633.3 3.4c2 0 2.8 1.1 2.5 3.1l-1.2 6.8h7.3c1.5 0 2.2.8 1.9 2.3l-1.2 6.8c-.2 1.5-1.2 2.3-2.7 2.3h-7.3l-2.7 15.1c-.3 1.8.4 2.5 1.5 2.5 1.6 0 2.5-1.6 2.7-3.1.3-1.3-.1-3.7 2.5-3.7h5.7c1.2 0 2.2.5 2.3 1.7 1 4.4-2.2 17.3-17.4 17.3-7.2 0-14.8-3-12.8-14.8l2.7-15h-3.2c-1.5 0-2.2-.8-1.9-2.3l1.2-6.8c.2-1.5 1.2-2.3 2.7-2.3h4.9l2.5-7.1c.7-1.8 2.1-2.8 3.9-2.8zm-363.2 0c2 0 2.8 1.1 2.5 3.1l-1.2 6.8h7.3c1.5 0 2.2.8 1.9 2.3l-1.2 6.8c-.2 1.5-1.2 2.3-2.7 2.3h-7.3l-2.7 15.2c-.3 1.8.4 2.5 1.5 2.5 1.6 0 2.5-1.6 2.7-3.1.3-1.3 0-3.7 2.5-3.7h5.7c1.2 0 2.2.5 2.3 1.7 1 4.4-2.2 17.3-17.4 17.3-7.2 0-14.8-3-12.8-14.8l2.7-15h-3.2c-1.5 0-2.2-.8-1.9-2.3l1.2-6.8c.2-1.5 1.2-2.3 2.7-2.3h4.9l2.5-7.1c.7-1.8 2.1-2.8 3.9-2.8h6.1m455.5 9c2.2 0 2.3 1.8 2.1 3.2l-1.5 8.5c-.4 2.4-1.9 3.5-3.9 3.4-5.9-.7-10.2 2.2-11.2 8.6l-2.3 13c-.5 3-2.5 4.6-5.5 4.6h-6.6c-3 0-4.3-1.6-3.8-4.6l5.5-31.2c.5-3 2.5-4.6 5.5-4.6h6c3 0 4.3 1.6 3.8 4.6l-.7 3.9c1.8-5.7 6.2-9.4 12.6-9.4m-51.7 0c13.8 0 21.7 9.4 19.7 21.1-2.1 11.7-13.3 21.1-27.1 21.1s-21.7-9.4-19.6-21.1c1.9-11.8 13.2-21.1 27-21.1m-5.2 29.8c11.6 0 14.6-17.5 3.1-17.5-11.7 0-14.7 17.5-3.1 17.5m-72.1-29.8c4.5 0 9.2 1.1 12.8 3.5 2.2 1.6 1.9 4.1-.5 6.5s-3.7 4.1-5.9 4.1c-2.3 0-3.6-1.8-7.5-1.8-12 0-15 17.7-3.2 17.7 3.8 0 6-1.9 8.3-1.9 2.4 0 3.1 2 4.5 4.2 1.5 2.3.9 4.9-2.1 6.5-4.4 2.4-9.5 3.5-13.9 3.5-13.8 0-22.1-9.4-20-21.1 2.1-11.9 13.7-21.2 27.5-21.2m-53.2 0c5.2 0 9 2.2 10.5 5.9.5-3.2 2.2-5.1 5.5-5.1h6.6c3 0 4.3 1.6 3.8 4.6l-5.5 31.2c-.5 3-2.5 4.6-5.5 4.6h-6.6c-3 0-4.4-1.5-3.7-5-8.8 11.2-31.7 6.5-27.8-15.2 2.2-12.2 12-21 22.7-21m-1 30c10 0 13.2-18 3.2-18s-13.1 18-3.2 18m-127.6-30c12.5 0 12.1 11 11 17.6l-3.4 19.1c-.5 3-2.5 4.6-5.5 4.6h-6.6c-3 0-4.3-1.6-3.8-4.6l3.1-17.5c.5-3.2.5-6.8-3.5-6.8-4.1 0-5.4 3.7-5.9 6.8l-3.1 17.5c-.5 3-2.5 4.6-5.5 4.6h-6.6c-3 0-4.3-1.6-3.8-4.6l5.5-31.2c.5-3 2.5-4.6 5.5-4.6h6.6c3 0 4.3 1.6 3.8 4.6v.4c2.8-3.7 6.7-5.9 12.2-5.9m-57.6 0c5.2 0 9 2.2 10.5 5.9.5-3.2 2.2-5.1 5.5-5.1h6.6c3 0 4.3 1.6 3.8 4.6l-5.5 31.2c-.5 3-2.5 4.6-5.5 4.6h-6.6c-3 0-4.4-1.5-3.7-5-8.8 11.2-31.7 6.5-27.8-15.2 2.2-12.2 11.9-21 22.7-21m-1 30c10 0 13.1-18 3.2-18-10 0-13.1 18-3.2 18m-122.1-30c5.5 0 9.8 1.6 12.4 5.7 1.6 2.7-.2 5.2-3.5 6.1-3.1.8-3.7 1-4.6 1-3.1 0-2.8-2.5-6.2-2.5-1.7 0-2.7.9-2.8 1.9-.2 1 .6 1.5 2.3 2.1l4.2 1.8c8.2 3.1 11.4 7.4 10.5 12.9-1.5 9.1-10.5 13.1-19.9 13.1-8.1 0-13.5-2.7-15.2-8.5-.8-2.8 1.2-4.9 4.2-5.6 5.6-1.2 5.4-1.5 8.4 1.9 1.1 1.1 2.6 1.5 4.5 1.5 2.3 0 3.8-.7 4.1-2 .3-1.4-.8-1.6-6.6-3.8-2.1-.8-12-3.5-10.5-12.3 1.3-8.1 9.4-13.3 18.7-13.3m-43.2 0c2.2 0 2.3 1.8 2.1 3.2l-1.5 8.5c-.4 2.4-1.9 3.5-3.9 3.4-5.9-.7-10.2 2.2-11.2 8.6l-2.3 13c-.5 3-2.5 4.6-5.5 4.6h-6.6c-3 0-4.3-1.6-3.8-4.6l5.5-31.2c.5-3 2.5-4.6 5.5-4.6h6c3 0 4.3 1.6 3.8 4.6l-.7 3.9c1.8-5.7 6.2-9.4 12.6-9.4m-118.9 0c12.8 0 20.9 7.7 18.7 20.6-.5 2.5-2.6 3.6-5.5 3.6h-25.4c-.4 2.2 2.5 6.1 9.4 6.1 5.5 0 7.8-2.4 10.4-2.4 2.2 0 2.8 1.5 4.1 3.6 1.3 2.3.8 4.8-2.1 6.5-5.1 2.9-10.8 4.1-16 4.1-32.1 0-23.3-42.1 6.4-42.1m-10.8 16.9h15.8c.9-7.9-14-7.7-15.8 0m710.3-16.1c3.5 0 4.5 2.2 2.6 5.4l-30.4 48.8c-2.6 4.2-5.3 3.5-11.8 3.5-3.5 0-4.5-2.2-2.6-5.4l9.8-15.8-8.8-31.1c-.9-3.2.9-5.4 4.5-5.4h7.3c2.7 0 4.2 1.2 4.6 3.8l2.8 16.9 9.5-17c1.3-2.5 3.3-3.7 5.9-3.7zm-563.4 0c3 0 4.3 1.6 3.8 4.6l-5.5 31.2c-.5 3-2.5 4.6-5.5 4.6h-6.6c-3 0-4.3-1.6-3.8-4.6l5.5-31.2c.5-3 2.5-4.6 5.5-4.6zm-.3-27c-10.3 0-18.8 6.2-20.4 15.9-2.1.3-4.2.9-6.3 1.8-1.2-.5-2.6-.9-4.1-1 .2-7.2-5.3-13.5-13.9-13.5h-7.1c-5.1 0-9.6 2.1-12.7 5.8-4.6-4.4-9.7-4-13.9-4s-7.9 1.4-10.8 3.8c-2.6-3.5-6.9-5.6-12-5.6h-7.1c-9 0-15.1 6.6-15.2 14.6-10.1-3.7-24.2-2.8-34.8 5.1-4-4.8-9.8-7-16-7.2.2-8.1-5.6-14.3-14.3-14.3-6.4 0-10.6-.5-15.1 2.3-2.7-.7-1.4-.5-39.6-.5-8.1 0-14.3 5.2-15.7 13.2 0 .1.1-.4-.8 4.7-1.5 8.6 3.5 15.4 11.3 16.6l-4.1 23.3c-1.7 9.4 4.6 16.9 14 16.9h6.6c6.1 0 11.2-3 13.9-7.9 2.1 4.7 6.8 7.9 13.1 7.9 6.7 0 11.3.6 16.1-2.9 1.9 1.5 4.9 2.9 9.2 2.9 7.1 0 12.9.7 18.1-4.7 14.5 9.9 38.4 5.1 45.6-4.2 2.3 5.5 7.3 8.9 13.8 8.9 5.5 0 11.2.5 16.4-5.1 4.8 5.7 11.1 5.1 15.8 5.1 4.9 0 9.3-1.9 12.4-5.5 2.4 3.2 6.4 5.5 11.6 5.5h6.6c5.7 0 10.4-2.6 13.3-6.9 2.3 4.1 6.8 6.9 12.5 6.9 6.7 0 11.3.6 16.1-2.9 9.1 5.4 25.8 5.4 36.2-2.2 7.9 7.5 22.3 7.6 31.5 2.7 4.5 3.1 8.8 2.5 15.1 2.5 2.2 0 4.3-.4 6.2-1.1 8.7 3.8 21.2 2.3 31-6.3 7.7 8.5 20 10.1 29.6 6.3 1.6.7 3.6 1.1 6 1.1 6.2 0 9.2.3 12.9-1.2 3.5 1.5 6.3 1.2 12.7 1.2 3.7 0 6.9-1.1 9.5-2.9 1.9 1.5 4.9 2.9 9.2 2.9 6.8 0 12.3.7 17.4-4 7.6 5.5 17.8 6.1 25.8 2.9 3.5 1.4 6.2 1.1 12.6 1.1 3.4 0 6.5-.9 9-2.6 4.4 3.1 8.4 2.6 15.6 2.6 8.1 0 14.3-5.2 15.7-13.2l1.3-7.5h2.6c3.1 17.7 20.8 25.7 35.9 19.6 1.6.7 3.6 1.1 6 1.1 7 0 12.9.7 18-4.6 10.8 7.3 26.3 6.9 37.7.7.7-.4 1.4-.8 2.1-1.3 8.5 7.9 26 8.2 36.1-.6 10.9 8.7 27.7 8.3 39.9 1.4 4.8 5 10.3 4.3 17.2 4.3 8.1 0 14.3-5.2 15.7-13.2 3-17.2 2.1-12.1 2.3-13.1 1.1.1 2.3.1 3.5-.1l3 10.4c-9.9 15.9-6.8 10.9-7.4 11.9-6.3 10.3.1 21.2 11.5 21.2h5.8c6.3 0 11.4-2.9 14.8-8.4 38.3-61.6 29-46.5 30.4-48.9 6.3-10.3-.2-21.2-11.5-21.2-7.2 0-12.8-.7-18.3 4.5-2.7-2.9-6.6-4.5-11.1-4.5-7.3 0-8.5-.1-10.8.4-4.5-2.1-10.8-1.3-15.4.8-3.4-1.4-5.9-1.1-12-1.1-4.5 0-8.5 1.6-11.3 4.5-11.5-7.8-28.3-6.7-40.2 1-1.4-2.2-3.6-3.9-6.2-4.8-.9-6-5.9-10.6-12.9-10.6h-6c-6 0-11.5 3.4-13.9 10.1-1.3.2-2.6.7-3.7 1.3-9.7-3.7-22.2-3.2-32.9 2.9-4.8-5.1-10.4-4.4-17.3-4.4-2.2 0-4.3.4-6.1 1.1-5-2.2-10.8-2.4-16-1.3-.3-7.5-6-13.2-14.3-13.2h-29.6c-2.8 0-5.3.6-7.5 1.7-4.7-4.2-9.7-3.5-16.4-3.5-8.1 0-14.3 5.2-15.7 13.2l-.2 1.2c-7.4-.7-15.4 1.4-22.1 6.6-6.6-7.4-18.4-8.2-26.7-4.8-1.6-.6-3.5-1.1-5.9-1.1-6.2 0-9.2-.3-12.9 1.2-3.5-1.5-6.3-1.2-12.7-1.2-2.2 0-4.3.4-6.1 1.1-8.5-3.7-21.2-2.4-31 6.3-4.7-5.1-11.2-8-18.6-8.2.2-8-5.5-14.3-14.3-14.3h-6.6c-7.4 0-13.3 4.4-15.3 11.3-2.2-3.7-6.2-6.1-11.2-6.1h-6c-6 0-11.5 3.4-13.9 10.1-1.4.3-2.7.7-3.9 1.4-6.1-2.9-14-3.1-20.3-1.5.3-8.8-6.3-16.6-18.1-16.6z"></path>
</g>
<path d="m792.2 100.4c-7.4 0-11.2-6.5-7.1-13.3l8.6-13.8-5.2-18.3c-2.8 2.4-6.1 2-5.6 2-2.6 0-5.6-1.1-6.4 4.2l-2.3 13.1c-1 5.5-5 8.9-10.6 8.9h-6.6c-5 0-8.1-2.9-8.9-6.6-12.4 9.9-32.4 10.4-41.8-1.4-4 5.7-10.5 8.9-18.8 8.9-9.1 0-14.5-3.9-16.8-9-.9 2-2.6 3.7-4.8 4.9-11.2 6.1-27.7 5.8-36.5-4.1-1.4 4.6-5.2 7.3-10.2 7.3-6.7 0-9.5.4-12.4-1.7-13.1 7.1-31.2-.3-31.3-19-.7 0 0 0-11.7 0l-2.1 11.8c-1 5.5-5 8.9-10.6 8.9h-6.9c-4.3 0-7.2-2.1-8.4-5.1-1.8 3.2-5.1 5.1-9.2 5.1-6.7 0-9.5.4-12.4-1.7-8.5 4.6-20.3 3.2-26.8-5-1.6 4.2-5.2 6.8-10 6.8h-6.6c-4.9 0-8-2.8-8.8-6.3-1.6 4-5.2 6.3-9.8 6.3-6.5 0-9.6.5-12.6-1.9-3.3 2.3-6.4 1.9-13 1.9-2.7 0-4.6-.8-5.8-1.7-9.6 5.2-23.6 2.8-29.1-8.8-9.1 12-23.6 13.8-31.6 8.8-3.3 2.2-6.2 1.8-12.8 1.8-3.3 0-6.2-1.2-7.8-3.9-8.7 7-26.2 6.9-31.5-3.8-4.4 5.4-11.9 8.6-21 8.6-8.3 0-13.3-2.5-16.3-5.5-1.9 3-5.1 4.7-9 4.7h-6.6c-6.2 0-10-4.5-8.9-10.7l2.7-15.5c-2.9.1-5.8-1.1-6.7 4.2l-2.3 13.1c-1 5.5-5 8.9-10.6 8.9h-6.6c-6.2 0-10-4.5-8.9-10.7l1.4-8.2-6 12.2c-2.3 4.4-6 6.8-10.6 6.8h-4.3c-5.3 0-9-3.2-9.6-8.5l-.6-4.5-2.9 6.2c-2.1 4.4-5.8 6.8-10.6 6.8h-4.3c-5.2 0-8.9-3.2-9.7-8.3l-1.8-12.8c-1.2 1.7-3.1 3-5.7 3.6 2.7 4.9 1.1 10.4-4 13.4-11.8 6.8-30.1 7.2-39.4-3.6-1.4 4.7-5.2 7.5-10.3 7.5h-6.6c-4.9 0-8-2.7-8.8-6.3-1.6 4-5.2 6.3-9.8 6.3h-6.6c-6.2 0-10-4.4-8.9-10.7l5.2-29.3c-1 .1-1.1.1-7.1.1l-5.5 31.1c-1 5.5-5 8.9-10.6 8.9h-6.6c-6.2 0-10-4.4-8.9-10.7l5.1-29.2h-3.5c-6.1 0-10-4.4-8.9-10.7l.8-4.5c1-5.6 5.1-9 10.6-9h35.5c2.2 0 3.8.5 5 1.2 3.6-3.6 7.7-3 14.2-3 6.1 0 10 4.4 8.9 10.7l-1.2 3.7c1.6-.4 3.3-.6 5.1-.6 8.4 0 13.6 4.1 15.7 10.1 12.3-13.5 33.7-12.5 42.7-2.9l-1.2-8.6c-.9-6.1 3.2-11.2 9.9-11.2h7.1c5.4 0 9.2 3.4 9.7 8.7l.4 4.3 2.2-4.4c2-4.3 5.8-6.8 10.5-6.8h3.4c5.3 0 9 3.2 9.6 8.5l.3 2.7 2.7-5.9c2-4.4 5.8-7 10.6-7h7.1c6.5 0 11.2 5.4 7.2 13.4 4.6 0 7.9-.4 10.8 1.9 4-2.5 8.7-3.1 11.5-2.5-1.6-7.4 4-15.9 15.1-15.9 14.5 0 16.1 14.2 8.4 20.8.2.3.4.7.5 1.1 8.6-7.6 22.8-7.8 30-2.6 1.4-1.7 3.6-2.7 6.1-2.7h1.2l1.3-3.7c1.5-3.9 4.8-6.2 8.8-6.2 5.9 0 9.4-.6 12.1 2.6 1.8 2.2 2 4.6 1.5 7.3h1.1c2.2 0 4.2.9 5.5 2.4.3.3 0 1.5 1.7-8.6 1-5.5 5-8.9 10.6-8.9h6.6c6.2 0 10 4.4 8.9 10.7l-.7 4.2c9.4-2.3 19.6 1.4 24.1 10.7 9-11.9 23.6-13.7 31.6-8.7 3.3-2.2 6.2-1.8 12.8-1.8 2.8 0 4.7.9 6 1.9 1.7-1.2 3.9-1.9 6.3-1.9 6.1 0 9.4-.5 12.4 1.7 8.3-4.6 21.7-3.6 25.7 7.1 7.9-9.1 19.6-11.4 27.4-8.5l1.2-6.6c1-5.5 5-8.9 10.6-8.9h6.6c4.7 0 7.7 2.5 8.7 5.9 1.9-2.6 4.9-4.2 8.6-4.2h29.6c6.2 0 10 4.4 8.9 10.7-.8 4.9-.8 4.6-.8 5 6.7-3.6 15.8-4.6 22.2-.6 3.3-2.2 6.2-1.8 12.8-1.8 5 0 8.2 2.9 8.9 6.7 10.7-8.5 25.5-9.5 35.3-4.4 2.3-2.3 4.7-2.3 6.9-2.3l1.3-3.7c1.5-3.9 4.8-6.2 8.8-6.2 5.9 0 9.4-.6 12.1 2.6 1.8 2.2 2 4.6 1.5 7.3h1.1c2.2 0 4.2.9 5.5 2.4 2.3 2.7 1.6 5.6 1.2 8 12.6-14.3 35.1-14.5 45.1-3.2 1.5-4.5 5.2-7.2 10.1-7.2 6 0 9-.4 12 1.9 4.1-2.6 11-4.1 14.6-1.1 2.5-1 4.2-.8 11.6-.8 5.4 0 9 3.1 9.8 8.2l.3 2 2.1-3.8c2.2-4.2 5.9-6.4 10.5-6.4h6.7c7.4 0 11.2 6.5 7.1 13.3l-30.4 48.9c-2.5 3.9-6 5.9-10.4 5.9h-5.9zm-131.2-40.9c3.1 0 5.7 1.5 7.4 4.2l.9 1.4c.2-1.5.2-1.5 2-11.5-.4-.2-.8-.3-1.1-.6-3.3 3-7.3 3.8-11.9 1.5-3.8-1.6-7.3.7-7.8 3.9-.3 1.9.2 2.8 2.2 2.8 2.9.2 4.6-1.7 8.3-1.7zm-55.1-5.5c-3.5 0-4.6 6.6-3.7 7.5 0 0 .2.1.5.1 3.5 0 4.8-6.5 3.7-7.5 0-.1-.2-.1-.5-.1zm-92.7 0c-3.5 0-4.6 6.6-3.7 7.5 0 0 .2.1.5.1 3.5 0 4.8-6.5 3.7-7.5 0-.1-.2-.1-.5-.1zm-93.5 0c-3.5 0-4.7 6.6-3.7 7.5 0 0 .2.1.5.1 3.5 0 4.8-6.5 3.7-7.5 0-.1-.2-.1-.5-.1zm-49.1 0c-3.5 0-4.6 6.6-3.7 7.5 0 0 .2.1.5.1 3.5 0 4.8-6.5 3.7-7.5 0-.1-.1-.1-.5-.1zm361.4.2c-4.6 0-5.9 5.3-4.8 6.5 1 1.2 6 .7 6.9-3.9.3-2-.4-2.6-2.1-2.6zm-390.8.6.3-2c-2.4 1.6-4.5 1.4-7.5 1.4l-.1.4c5.8 0 6.1-.1 7.3.2zm361.3-.2c.4-1.5.5-.4-2.3-.4h-2.9l-.1.4zm-396-1.8c.5.5 1 .9 1.5 1.4l.1-.6c-1.2-.4-1.5-.8-1.6-.8z" fill="#ddd"></path>
<path d="m268.1 20.9c6 0 8.3 3.1 7.6 7.1s-4.4 7.1-10.1 7.1-8.3-3.1-7.6-7.1 4.1-7.1 10.1-7.1m268.2 1.5c3 0 4.3 1.6 3.8 4.6l-8.1 46.4c-.5 3-2.5 4.6-5.5 4.6h-6.6c-3 0-4.4-1.5-3.7-5-8.8 11.2-31.7 6.5-27.8-15.2 3.9-22.1 28.7-26.2 33.1-15.1l2.8-15.6c.5-3 2.5-4.6 5.5-4.6h6.5m-26.3 44.2c10 0 13.1-18 3.2-18-10 0-13.1 18-3.2 18m-146.5-44.3c3 0 4.3 1.6 3.8 4.6l-2.8 15.6c8.7-11.3 31.7-6.5 27.9 15.1-3.9 21.9-28.8 26.3-33.2 15.3l-.1.4c-.5 3-2.5 4.6-5.5 4.6h-6.6c-3 0-4.3-1.6-3.8-4.6l8.1-46.4c.5-3 2.5-4.6 5.5-4.6zm4 44.3c10 0 13.1-18 3.2-18-10 0-13.2 18-3.2 18m-288-44.3c3 0 4.3 1.6 3.8 4.6l-2.7 15.5c2.8-3.6 6.8-5.8 12.2-5.8 12.5 0 12.1 11 11 17.6l-3.4 19.1c-.5 3-2.5 4.6-5.5 4.6h-6.6c-3 0-4.3-1.6-3.8-4.6l3.1-17.5c.5-3.2.5-6.8-3.5-6.8-4.1 0-5.4 3.7-5.9 6.8l-3.1 17.5c-.5 3-2.5 4.6-5.5 4.6h-6.6c-3 0-4.3-1.6-3.8-4.6l8.3-46.4c.5-3 2.5-4.6 5.5-4.6zm503.8 1.7c3 0 4.3 1.6 3.8 4.6l-.8 4.6c-.5 3-2.5 4.6-5.5 4.6h-18.1l-1.2 7h15.1c3 0 4.3 1.6 3.8 4.6l-.5 3.1c-.5 3-2.4 4.6-5.4 4.6h-15.1l-2.8 16.1c-.5 3-2.5 4.6-5.5 4.6h-6.9c-3 0-4.3-1.6-3.8-4.6l7.8-44.6c.5-3 2.5-4.6 5.5-4.6zm-360 0c3.3 0 4.4 2.1 2.8 5.2l-22.1 44.7c-2.3 4.5-5.4 3.8-10.2 3.8-2.7 0-4.2-1.2-4.5-3.8l-2.8-22.4-10.6 22.4c-2.1 4.5-5.3 3.8-10.1 3.8-2.7 0-4.2-1.3-4.5-3.8l-6.2-44.7c-.5-3.2 1.4-5.2 4.7-5.2h7.1c2.7 0 4.2 1.3 4.5 3.9l2.2 22.8 10.3-21.1c2-4.3 5-3.8 9.2-3.8 2.7 0 4.2 1.2 4.5 3.8l2.6 21.1 10.3-22.8c1.2-2.6 3.2-3.9 5.8-3.9zm-163 0c3 0 4.3 1.6 3.8 4.6l-.8 4.6c-.5 3-2.5 4.6-5.5 4.6h-10l-6.2 35.4c-.5 3-2.5 4.6-5.5 4.6h-6.6c-3 0-4.3-1.6-3.8-4.6l6.3-35.3h-9.7c-3 0-4.3-1.6-3.8-4.6l.8-4.6c.5-3 2.5-4.6 5.5-4.6h35.5m633.3 3.4c2 0 2.8 1.1 2.5 3.1l-1.2 6.8h7.3c1.5 0 2.2.8 1.9 2.3l-1.2 6.8c-.2 1.5-1.2 2.3-2.7 2.3h-7.3l-2.7 15.1c-.3 1.8.4 2.5 1.5 2.5 1.6 0 2.5-1.6 2.7-3.1.3-1.3-.1-3.7 2.5-3.7h5.7c1.2 0 2.2.5 2.3 1.7 1 4.4-2.2 17.3-17.4 17.3-7.2 0-14.8-3-12.8-14.8l2.7-15h-3.2c-1.5 0-2.2-.8-1.9-2.3l1.2-6.8c.2-1.5 1.2-2.3 2.7-2.3h4.9l2.5-7.1c.7-1.8 2.1-2.8 3.9-2.8zm-363.2 0c2 0 2.8 1.1 2.5 3.1l-1.2 6.8h7.3c1.5 0 2.2.8 1.9 2.3l-1.2 6.8c-.2 1.5-1.2 2.3-2.7 2.3h-7.3l-2.7 15.2c-.3 1.8.4 2.5 1.5 2.5 1.6 0 2.5-1.6 2.7-3.1.3-1.3 0-3.7 2.5-3.7h5.7c1.2 0 2.2.5 2.3 1.7 1 4.4-2.2 17.3-17.4 17.3-7.2 0-14.8-3-12.8-14.8l2.7-15h-3.2c-1.5 0-2.2-.8-1.9-2.3l1.2-6.8c.2-1.5 1.2-2.3 2.7-2.3h4.9l2.5-7.1c.7-1.8 2.1-2.8 3.9-2.8h6.1m455.5 9c2.2 0 2.3 1.8 2.1 3.2l-1.5 8.5c-.4 2.4-1.9 3.5-3.9 3.4-5.9-.7-10.2 2.2-11.2 8.6l-2.3 13c-.5 3-2.5 4.6-5.5 4.6h-6.6c-3 0-4.3-1.6-3.8-4.6l5.5-31.2c.5-3 2.5-4.6 5.5-4.6h6c3 0 4.3 1.6 3.8 4.6l-.7 3.9c1.8-5.7 6.2-9.4 12.6-9.4m-51.7 0c13.8 0 21.7 9.4 19.7 21.1-2.1 11.7-13.3 21.1-27.1 21.1s-21.7-9.4-19.6-21.1c1.9-11.8 13.2-21.1 27-21.1m-5.2 29.8c11.6 0 14.6-17.5 3.1-17.5-11.7 0-14.7 17.5-3.1 17.5m-72.1-29.8c4.5 0 9.2 1.1 12.8 3.5 2.2 1.6 1.9 4.1-.5 6.5s-3.7 4.1-5.9 4.1c-2.3 0-3.6-1.8-7.5-1.8-12 0-15 17.7-3.2 17.7 3.8 0 6-1.9 8.3-1.9 2.4 0 3.1 2 4.5 4.2 1.5 2.3.9 4.9-2.1 6.5-4.4 2.4-9.5 3.5-13.9 3.5-13.8 0-22.1-9.4-20-21.1 2.1-11.9 13.7-21.2 27.5-21.2m-53.2 0c5.2 0 9 2.2 10.5 5.9.5-3.2 2.2-5.1 5.5-5.1h6.6c3 0 4.3 1.6 3.8 4.6l-5.5 31.2c-.5 3-2.5 4.6-5.5 4.6h-6.6c-3 0-4.4-1.5-3.7-5-8.8 11.2-31.7 6.5-27.8-15.2 2.2-12.2 12-21 22.7-21m-1 30c10 0 13.2-18 3.2-18s-13.1 18-3.2 18m-127.6-30c12.5 0 12.1 11 11 17.6l-3.4 19.1c-.5 3-2.5 4.6-5.5 4.6h-6.6c-3 0-4.3-1.6-3.8-4.6l3.1-17.5c.5-3.2.5-6.8-3.5-6.8-4.1 0-5.4 3.7-5.9 6.8l-3.1 17.5c-.5 3-2.5 4.6-5.5 4.6h-6.6c-3 0-4.3-1.6-3.8-4.6l5.5-31.2c.5-3 2.5-4.6 5.5-4.6h6.6c3 0 4.3 1.6 3.8 4.6v.4c2.8-3.7 6.7-5.9 12.2-5.9m-57.6 0c5.2 0 9 2.2 10.5 5.9.5-3.2 2.2-5.1 5.5-5.1h6.6c3 0 4.3 1.6 3.8 4.6l-5.5 31.2c-.5 3-2.5 4.6-5.5 4.6h-6.6c-3 0-4.4-1.5-3.7-5-8.8 11.2-31.7 6.5-27.8-15.2 2.2-12.2 11.9-21 22.7-21m-1 30c10 0 13.1-18 3.2-18-10 0-13.1 18-3.2 18m-122.1-30c5.5 0 9.8 1.6 12.4 5.7 1.6 2.7-.2 5.2-3.5 6.1-3.1.8-3.7 1-4.6 1-3.1 0-2.8-2.5-6.2-2.5-1.7 0-2.7.9-2.8 1.9-.2 1 .6 1.5 2.3 2.1l4.2 1.8c8.2 3.1 11.4 7.4 10.5 12.9-1.5 9.1-10.5 13.1-19.9 13.1-8.1 0-13.5-2.7-15.2-8.5-.8-2.8 1.2-4.9 4.2-5.6 5.6-1.2 5.4-1.5 8.4 1.9 1.1 1.1 2.6 1.5 4.5 1.5 2.3 0 3.8-.7 4.1-2 .3-1.4-.8-1.6-6.6-3.8-2.1-.8-12-3.5-10.5-12.3 1.3-8.1 9.4-13.3 18.7-13.3m-43.2 0c2.2 0 2.3 1.8 2.1 3.2l-1.5 8.5c-.4 2.4-1.9 3.5-3.9 3.4-5.9-.7-10.2 2.2-11.2 8.6l-2.3 13c-.5 3-2.5 4.6-5.5 4.6h-6.6c-3 0-4.3-1.6-3.8-4.6l5.5-31.2c.5-3 2.5-4.6 5.5-4.6h6c3 0 4.3 1.6 3.8 4.6l-.7 3.9c1.8-5.7 6.2-9.4 12.6-9.4m-118.9 0c12.8 0 20.9 7.7 18.7 20.6-.5 2.5-2.6 3.6-5.5 3.6h-25.4c-.4 2.2 2.5 6.1 9.4 6.1 5.5 0 7.8-2.4 10.4-2.4 2.2 0 2.8 1.5 4.1 3.6 1.3 2.3.8 4.8-2.1 6.5-5.1 2.9-10.8 4.1-16 4.1-32.1 0-23.3-42.1 6.4-42.1m-10.8 16.9h15.8c.9-7.9-14-7.7-15.8 0m710.3-16.1c3.5 0 4.5 2.2 2.6 5.4l-30.4 48.8c-2.6 4.2-5.3 3.5-11.8 3.5-3.5 0-4.5-2.2-2.6-5.4l9.8-15.8-8.8-31.1c-.9-3.2.9-5.4 4.5-5.4h7.3c2.7 0 4.2 1.2 4.6 3.8l2.8 16.9 9.5-17c1.3-2.5 3.3-3.7 5.9-3.7zm-563.4 0c3 0 4.3 1.6 3.8 4.6l-5.5 31.2c-.5 3-2.5 4.6-5.5 4.6h-6.6c-3 0-4.3-1.6-3.8-4.6l5.5-31.2c.5-3 2.5-4.6 5.5-4.6zm-.3-27c-10.3 0-18.8 6.2-20.4 15.9-2.1.3-4.2.9-6.3 1.8-1.2-.5-2.6-.9-4.1-1 .2-7.2-5.3-13.5-13.9-13.5h-7.1c-5.1 0-9.6 2.1-12.7 5.8-4.6-4.4-9.7-4-13.9-4s-7.9 1.4-10.8 3.8c-2.6-3.5-6.9-5.6-12-5.6h-7.1c-9 0-15.1 6.6-15.2 14.6-10.1-3.7-24.2-2.8-34.8 5.1-4-4.8-9.8-7-16-7.2.2-8.1-5.6-14.3-14.3-14.3-6.4 0-10.6-.5-15.1 2.3-2.7-.7-1.4-.5-39.6-.5-8.1 0-14.3 5.2-15.7 13.2 0 .1.1-.4-.8 4.7-1.5 8.6 3.5 15.4 11.3 16.6l-4.1 23.3c-1.7 9.4 4.6 16.9 14 16.9h6.6c6.1 0 11.2-3 13.9-7.9 2.1 4.7 6.8 7.9 13.1 7.9 6.7 0 11.3.6 16.1-2.9 1.9 1.5 4.9 2.9 9.2 2.9 7.1 0 12.9.7 18.1-4.7 14.5 9.9 38.4 5.1 45.6-4.2 2.3 5.5 7.3 8.9 13.8 8.9 5.5 0 11.2.5 16.4-5.1 4.8 5.7 11.1 5.1 15.8 5.1 4.9 0 9.3-1.9 12.4-5.5 2.4 3.2 6.4 5.5 11.6 5.5h6.6c5.7 0 10.4-2.6 13.3-6.9 2.3 4.1 6.8 6.9 12.5 6.9 6.7 0 11.3.6 16.1-2.9 9.1 5.4 25.8 5.4 36.2-2.2 7.9 7.5 22.3 7.6 31.5 2.7 4.5 3.1 8.8 2.5 15.1 2.5 2.2 0 4.3-.4 6.2-1.1 8.7 3.8 21.2 2.3 31-6.3 7.7 8.5 20 10.1 29.6 6.3 1.6.7 3.6 1.1 6 1.1 6.2 0 9.2.3 12.9-1.2 3.5 1.5 6.3 1.2 12.7 1.2 3.7 0 6.9-1.1 9.5-2.9 1.9 1.5 4.9 2.9 9.2 2.9 6.8 0 12.3.7 17.4-4 7.6 5.5 17.8 6.1 25.8 2.9 3.5 1.4 6.2 1.1 12.6 1.1 3.4 0 6.5-.9 9-2.6 4.4 3.1 8.4 2.6 15.6 2.6 8.1 0 14.3-5.2 15.7-13.2l1.3-7.5h2.6c3.1 17.7 20.8 25.7 35.9 19.6 1.6.7 3.6 1.1 6 1.1 7 0 12.9.7 18-4.6 10.8 7.3 26.3 6.9 37.7.7.7-.4 1.4-.8 2.1-1.3 8.5 7.9 26 8.2 36.1-.6 10.9 8.7 27.7 8.3 39.9 1.4 4.8 5 10.3 4.3 17.2 4.3 8.1 0 14.3-5.2 15.7-13.2 3-17.2 2.1-12.1 2.3-13.1 1.1.1 2.3.1 3.5-.1l3 10.4c-9.9 15.9-6.8 10.9-7.4 11.9-6.3 10.3.1 21.2 11.5 21.2h5.8c6.3 0 11.4-2.9 14.8-8.4 38.3-61.6 29-46.5 30.4-48.9 6.3-10.3-.2-21.2-11.5-21.2-7.2 0-12.8-.7-18.3 4.5-2.7-2.9-6.6-4.5-11.1-4.5-7.3 0-8.5-.1-10.8.4-4.5-2.1-10.8-1.3-15.4.8-3.4-1.4-5.9-1.1-12-1.1-4.5 0-8.5 1.6-11.3 4.5-11.5-7.8-28.3-6.7-40.2 1-1.4-2.2-3.6-3.9-6.2-4.8-.9-6-5.9-10.6-12.9-10.6h-6c-6 0-11.5 3.4-13.9 10.1-1.3.2-2.6.7-3.7 1.3-9.7-3.7-22.2-3.2-32.9 2.9-4.8-5.1-10.4-4.4-17.3-4.4-2.2 0-4.3.4-6.1 1.1-5-2.2-10.8-2.4-16-1.3-.3-7.5-6-13.2-14.3-13.2h-29.6c-2.8 0-5.3.6-7.5 1.7-4.7-4.2-9.7-3.5-16.4-3.5-8.1 0-14.3 5.2-15.7 13.2l-.2 1.2c-7.4-.7-15.4 1.4-22.1 6.6-6.6-7.4-18.4-8.2-26.7-4.8-1.6-.6-3.5-1.1-5.9-1.1-6.2 0-9.2-.3-12.9 1.2-3.5-1.5-6.3-1.2-12.7-1.2-2.2 0-4.3.4-6.1 1.1-8.5-3.7-21.2-2.4-31 6.3-4.7-5.1-11.2-8-18.6-8.2.2-8-5.5-14.3-14.3-14.3h-6.6c-7.4 0-13.3 4.4-15.3 11.3-2.2-3.7-6.2-6.1-11.2-6.1h-6c-6 0-11.5 3.4-13.9 10.1-1.4.3-2.7.7-3.9 1.4-6.1-2.9-14-3.1-20.3-1.5.3-8.8-6.3-16.6-18.1-16.6z" fill="#ddd"></path>
<path d="m792.2 95.2c-7.4 0-11.2-6.5-7.1-13.3l8.6-13.8-5.2-18.3c-2.8 2.4-6.1 2-5.6 2-2.6 0-5.6-1.1-6.4 4.2l-2.3 13c-1 5.5-5 8.9-10.6 8.9h-6.6c-5 0-8.1-2.9-8.9-6.6-12.4 9.9-32.4 10.4-41.8-1.4-4 5.7-10.5 8.9-18.8 8.9-9.1 0-14.5-3.9-16.8-9-.9 2-2.6 3.7-4.8 4.9-11.2 6.1-27.7 5.8-36.5-4.1-1.4 4.6-5.2 7.3-10.2 7.3-6.7 0-9.5.4-12.4-1.7-13.1 7.1-31.2-.3-31.3-19-.7 0 0 0-11.7 0l-2.2 11.8c-1 5.5-5 8.9-10.6 8.9h-6.9c-4.3 0-7.2-2.1-8.4-5.1-1.8 3.2-5.1 5.1-9.2 5.1-6.7 0-9.5.4-12.4-1.7-8.5 4.6-20.3 3.2-26.8-5-1.6 4.2-5.2 6.8-10 6.8h-6.6c-4.9 0-8-2.8-8.8-6.3-1.6 4-5.2 6.3-9.8 6.3-6.5 0-9.6.5-12.6-1.9-3.3 2.3-6.4 1.9-13 1.9-2.7 0-4.6-.8-5.8-1.7-9.6 5.2-23.6 2.8-29.1-8.8-9.1 12-23.6 13.8-31.6 8.8-3.3 2.2-6.2 1.8-12.8 1.8-3.3 0-6.2-1.2-7.8-3.9-8.7 7-26.2 6.9-31.5-3.8-4.4 5.4-11.9 8.6-21 8.6-8.3 0-13.3-2.5-16.3-5.5-1.9 3-5.1 4.7-9 4.7h-6.6c-6.2 0-10-4.5-8.9-10.7l2.7-15.5c-2.9.1-5.8-1.1-6.7 4.2l-2.6 12.8c-1 5.5-5 8.9-10.6 8.9h-6.6c-6.2 0-10-4.5-8.9-10.7l1.4-8.2-6 12.2c-2.3 4.4-6 6.8-10.6 6.8h-4.3c-5.3 0-9-3.2-9.6-8.5l-.6-4.5-2.9 6.2c-2.1 4.4-5.8 6.8-10.6 6.8h-4.3c-5.2 0-8.9-3.2-9.7-8.3l-1.8-12.8c-1.2 1.7-3.1 3-5.7 3.6 2.7 4.9 1.1 10.4-4 13.4-11.8 6.8-30.1 7.2-39.4-3.6-1.4 4.7-5.2 7.5-10.3 7.5h-6.6c-4.9 0-8-2.7-8.8-6.3-1.6 4-5.2 6.3-9.8 6.3h-6.6c-6.2 0-10-4.4-8.9-10.7l5.2-29.3c-1 .1-1.1.1-7.1.1l-5.7 31.1c-1 5.5-5 8.9-10.6 8.9h-6.6c-6.2 0-10-4.4-8.9-10.7l5.2-29.2h-3.5c-6.1 0-10-4.4-8.9-10.7l.8-4.5c1-5.6 5.1-9 10.6-9h35.5c2.2 0 3.8.5 5 1.2 3.6-3.6 7.7-3 14.2-3 6.1 0 10 4.4 8.9 10.7l-.7 4.1c1.6-.4 3.3-.6 5.1-.6 8.4 0 13.6 4.1 15.7 10.1 12.3-13.5 33.7-12.5 42.7-2.9l-1.2-8.6c-.9-6.1 3.2-11.2 9.9-11.2h7.1c5.4 0 9.2 3.4 9.7 8.7l.4 4.3 2.2-4.4c2-4.3 5.8-6.8 10.5-6.8h3.4c5.3 0 9 3.2 9.6 8.5l.3 2.7 2.7-5.9c2-4.4 5.8-7 10.6-7h7.1c6.5 0 11.2 5.4 7.2 13.4 4.6 0 7.9-.4 10.8 1.9 4-2.5 8.7-3.1 11.5-2.5-1.6-7.4 4-15.9 15.1-15.9 14.5 0 16.1 14.2 8.4 20.8.2.3.4.7.5 1.1 8.6-7.6 22.8-7.8 30-2.6 1.4-1.7 3.6-2.7 6.1-2.7h1.2l1.3-3.7c1.5-3.9 4.8-6.2 8.8-6.2 5.9 0 9.4-.6 12.1 2.6 1.8 2.2 2 4.6 1.5 7.3h1.1c2.2 0 4.2.9 5.5 2.4.3.3 0 1.5 1.7-8.6 1-5.5 5-8.9 10.6-8.9h6.6c6.2 0 10 4.4 8.9 10.7l-.7 4.2c9.4-2.3 19.6 1.4 24.1 10.7 9-11.9 23.6-13.7 31.6-8.7 3.3-2.2 6.2-1.8 12.8-1.8 2.8 0 4.7.9 6 1.9 1.7-1.2 3.9-1.9 6.3-1.9 6.1 0 9.4-.5 12.4 1.7 8.3-4.6 21.7-3.6 25.7 7.1 7.9-9.1 19.6-11.4 27.4-8.5l1.2-6.6c1-5.5 5-8.9 10.6-8.9h6.6c4.7 0 7.7 2.5 8.7 5.9 1.9-2.6 4.9-4.2 8.6-4.2h29.6c6.2 0 10 4.4 8.9 10.7-.8 4.9-.8 4.6-.8 5 6.7-3.6 15.8-4.6 22.2-.6 3.3-2.2 6.2-1.8 12.8-1.8 5 0 8.2 2.9 8.9 6.7 10.7-8.5 25.5-9.5 35.3-4.4 2.3-2.3 4.7-2.3 6.9-2.3l1.3-3.7c1.5-3.9 4.8-6.2 8.8-6.2 5.9 0 9.4-.6 12.1 2.6 1.8 2.2 2 4.6 1.5 7.3h1.1c2.2 0 4.2.9 5.5 2.4 2.3 2.7 1.6 5.6 1.2 8 12.4-14.2 35-14.4 45-3.2 1.5-4.5 5.2-7.2 10.1-7.2 6 0 9-.4 12 1.9 4.1-2.6 11-4.1 14.6-1.1 2.5-1 4.2-.8 11.6-.8 5.4 0 9 3.1 9.8 8.2l.3 2 2.1-3.8c2.2-4.2 5.9-6.4 10.5-6.4h6.7c7.4 0 11.2 6.5 7.1 13.3l-30.4 48.9c-2.5 3.9-6 5.9-10.4 5.9h-5.8zm-131.2-40.9c3.1 0 5.7 1.5 7.4 4.2l.9 1.4c.2-1.5.2-1.5 2-11.5-.4-.2-.8-.3-1.1-.6-3.3 3-7.3 3.8-11.9 1.5-3.8-1.6-7.3.7-7.8 3.9-.3 1.9.2 2.8 2.2 2.8 2.9.1 4.6-1.7 8.3-1.7zm-55.1-5.6c-3.5 0-4.6 6.6-3.7 7.5 0 0 .2.1.5.1 3.5 0 4.8-6.5 3.7-7.5 0 0-.2-.1-.5-.1zm-92.7 0c-3.5 0-4.6 6.6-3.7 7.5 0 0 .2.1.5.1 3.5 0 4.8-6.5 3.7-7.5 0 0-.2-.1-.5-.1zm-93.5 0c-3.5 0-4.7 6.6-3.7 7.5 0 0 .2.1.5.1 3.5 0 4.8-6.5 3.7-7.5 0 0-.2-.1-.5-.1zm-49.1 0c-3.5 0-4.6 6.6-3.7 7.5 0 0 .2.1.5.1 3.5 0 4.8-6.5 3.7-7.5 0 0-.1-.1-.5-.1zm361.4.3c-4.6 0-5.9 5.3-4.8 6.5 1 1.2 6 .7 6.9-3.9.3-2-.4-2.6-2.1-2.6zm-390.8.6.3-2c-2.4 1.6-4.5 1.4-7.5 1.4l-.1.4c5.8 0 6.1-.1 7.3.2zm361.3-.2c.4-1.5.5-.4-2.3-.4h-2.9l-.1.4zm-396-1.8c.5.5 1 .9 1.5 1.4l.1-.6c-1.2-.5-1.5-.9-1.6-.8z" fill="#e90086"></path>
<path d="m268.1 15.7c6 0 8.3 3.1 7.6 7.1s-4.4 7.1-10.1 7.1-8.3-3.1-7.6-7.1 4.1-7.1 10.1-7.1m268.2 1.5c3 0 4.3 1.6 3.8 4.6l-8.1 46.4c-.5 3-2.5 4.6-5.5 4.6h-6.6c-3 0-4.4-1.5-3.7-5-8.8 11.2-31.7 6.5-27.8-15.2 3.9-22.1 28.7-26.2 33.1-15.1l2.8-15.6c.5-3 2.5-4.6 5.5-4.6h6.5m-26.3 44.2c10 0 13.1-18 3.2-18-10 0-13.1 18-3.2 18m-146.5-44.3c3 0 4.3 1.6 3.8 4.6l-2.8 15.6c8.7-11.3 31.7-6.5 27.9 15.1-3.9 21.9-28.7 26.3-33.2 15.2l-.1.4c-.5 3-2.5 4.6-5.5 4.6h-6.6c-3 0-4.3-1.6-3.8-4.6l8.1-46.4c.5-3 2.5-4.6 5.5-4.6h6.7m4 44.4c10 0 13.1-18 3.2-18-10 0-13.2 18-3.2 18m-288-44.3c3 0 4.3 1.6 3.8 4.6l-2.7 15.5c2.8-3.6 6.8-5.8 12.2-5.8 12.5 0 12.1 11 11 17.6l-3.4 19.1c-.5 3-2.5 4.6-5.5 4.6h-6.6c-3 0-4.3-1.6-3.8-4.6l3.1-17.5c.5-3.2.5-6.8-3.5-6.8-4.1 0-5.4 3.7-5.9 6.8l-3.1 17.5c-.5 3-2.5 4.6-5.5 4.6h-6.6c-3 0-4.3-1.6-3.8-4.6l8.1-46.4c.5-3 2.5-4.6 5.5-4.6zm503.8 1.7c3 0 4.3 1.6 3.8 4.6l-.8 4.6c-.5 3-2.5 4.6-5.5 4.6h-18.1l-1.2 7h15.1c3 0 4.3 1.6 3.8 4.6l-.5 3.1c-.5 3-2.4 4.6-5.4 4.6h-15.1l-2.8 16.1c-.5 3-2.5 4.6-5.5 4.6h-6.9c-3 0-4.3-1.6-3.8-4.6l7.8-44.6c.5-3 2.5-4.6 5.5-4.6zm-360 0c3.3 0 4.4 2.1 2.8 5.2l-22.1 44.7c-2.3 4.5-5.4 3.8-10.2 3.8-2.7 0-4.2-1.2-4.5-3.8l-2.8-22.4-10.6 22.4c-2.1 4.5-5.3 3.8-10.1 3.8-2.7 0-4.2-1.3-4.5-3.8l-6.2-44.7c-.5-3.2 1.4-5.2 4.7-5.2h7.1c2.7 0 4.2 1.3 4.5 3.9l2.2 22.8 10.3-21.1c2-4.3 5-3.8 9.2-3.8 2.7 0 4.2 1.2 4.5 3.8l2.6 21.1 10.3-22.8c1.2-2.6 3.2-3.9 5.8-3.9zm-163 0c3 0 4.3 1.6 3.8 4.6l-.8 4.6c-.5 3-2.5 4.6-5.5 4.6h-10l-6.2 35.4c-.5 3-2.5 4.6-5.5 4.6h-6.6c-3 0-4.3-1.6-3.8-4.6l6.3-35.3h-9.7c-3 0-4.3-1.6-3.8-4.6l.8-4.6c.5-3 2.5-4.6 5.5-4.6h35.5m633.3 3.4c2 0 2.8 1.1 2.5 3.1l-1.2 6.8h7.3c1.5 0 2.2.8 1.9 2.3l-1.2 6.8c-.2 1.5-1.2 2.3-2.7 2.3h-7.3l-2.7 15.1c-.3 1.8.4 2.5 1.5 2.5 1.6 0 2.5-1.6 2.7-3.1.3-1.3-.1-3.7 2.5-3.7h5.7c1.2 0 2.2.5 2.3 1.7 1 4.4-2.2 17.3-17.4 17.3-7.2 0-14.8-3-12.8-14.8l2.7-15h-3.2c-1.5 0-2.2-.8-1.9-2.3l1.2-6.8c.2-1.5 1.2-2.3 2.7-2.3h4.9l2.5-7.1c.7-1.8 2.1-2.8 3.9-2.8zm-363.2 0c2 0 2.8 1.1 2.5 3.1l-1.2 6.8h7.3c1.5 0 2.2.8 1.9 2.3l-1.2 6.8c-.2 1.5-1.2 2.3-2.7 2.3h-7.3l-2.7 15.2c-.3 1.8.4 2.5 1.5 2.5 1.6 0 2.5-1.6 2.7-3.1.3-1.3 0-3.7 2.5-3.7h5.7c1.2 0 2.2.5 2.3 1.7 1 4.4-2.2 17.3-17.4 17.3-7.2 0-14.8-3-12.8-14.8l2.7-15h-3.2c-1.5 0-2.2-.8-1.9-2.3l1.2-6.8c.2-1.5 1.2-2.3 2.7-2.3h4.9l2.5-7.1c.7-1.8 2.1-2.8 3.9-2.8h6.1m455.5 9c2.2 0 2.3 1.8 2.1 3.2l-1.5 8.5c-.4 2.4-1.9 3.5-3.9 3.4-5.9-.7-10.2 2.2-11.2 8.6l-2.3 13c-.5 3-2.5 4.6-5.5 4.6h-6.6c-3 0-4.3-1.6-3.8-4.6l5.5-31.2c.5-3 2.5-4.6 5.5-4.6h6c3 0 4.3 1.6 3.8 4.6l-.7 3.9c1.8-5.8 6.2-9.4 12.6-9.4m-51.7 0c13.8 0 21.7 9.4 19.7 21.1-2.1 11.7-13.3 21.1-27.1 21.1s-21.7-9.4-19.6-21.1c1.9-11.8 13.2-21.1 27-21.1m-5.2 29.8c11.6 0 14.6-17.5 3.1-17.5-11.7 0-14.7 17.5-3.1 17.5m-72.1-29.8c4.5 0 9.2 1.1 12.8 3.5 2.2 1.6 1.9 4.1-.5 6.5s-3.7 4.1-5.9 4.1c-2.3 0-3.6-1.8-7.5-1.8-12 0-15 17.7-3.2 17.7 3.8 0 6-1.9 8.3-1.9 2.4 0 3.1 2 4.5 4.2 1.5 2.3.9 4.9-2.1 6.5-4.4 2.4-9.5 3.5-13.9 3.5-13.8 0-22.1-9.4-20-21.1 2.1-11.9 13.7-21.2 27.5-21.2m-53.2 0c5.2 0 9 2.2 10.5 5.9.5-3.2 2.2-5.1 5.5-5.1h6.6c3 0 4.3 1.6 3.8 4.6l-5.5 31.2c-.5 3-2.5 4.6-5.5 4.6h-6.6c-3 0-4.4-1.5-3.7-5-8.8 11.2-31.7 6.5-27.8-15.2 2.2-12.2 12-21 22.7-21m-1 30c10 0 13.2-18 3.2-18s-13.1 18-3.2 18m-127.6-30c12.5 0 12.1 11 11 17.6l-3.4 19.1c-.5 3-2.5 4.6-5.5 4.6h-6.6c-3 0-4.3-1.6-3.8-4.6l3.1-17.5c.5-3.2.5-6.8-3.5-6.8-4.1 0-5.4 3.7-5.9 6.8l-3.1 17.5c-.5 3-2.5 4.6-5.5 4.6h-6.6c-3 0-4.3-1.6-3.8-4.6l5.5-31.2c.5-3 2.5-4.6 5.5-4.6h6.6c3 0 4.3 1.6 3.8 4.6v.4c2.8-3.7 6.7-5.9 12.2-5.9m-57.6 0c5.2 0 9 2.2 10.5 5.9.5-3.2 2.2-5.1 5.5-5.1h6.6c3 0 4.3 1.6 3.8 4.6l-5.5 31.2c-.5 3-2.5 4.6-5.5 4.6h-6.6c-3 0-4.4-1.5-3.7-5-8.8 11.2-31.7 6.5-27.8-15.2 2.2-12.2 11.9-21 22.7-21m-1 30c10 0 13.1-18 3.2-18-10 0-13.1 18-3.2 18m-122.1-30c5.5 0 9.8 1.6 12.4 5.7 1.6 2.7-.2 5.2-3.5 6.1-3.1.8-3.7 1-4.6 1-3.1 0-2.8-2.5-6.2-2.5-1.7 0-2.7.9-2.8 1.9-.2 1 .6 1.5 2.3 2.1l4.2 1.8c8.2 3.1 11.4 7.4 10.5 12.9-1.5 9.1-10.5 13.1-19.9 13.1-8.1 0-13.5-2.7-15.2-8.5-.8-2.8 1.2-4.9 4.2-5.6 5.6-1.2 5.4-1.5 8.4 1.9 1.1 1.1 2.6 1.5 4.5 1.5 2.3 0 3.8-.7 4.1-2 .3-1.4-.8-1.6-6.6-3.8-2.1-.8-12-3.5-10.5-12.3 1.3-8.1 9.4-13.3 18.7-13.3m-43.2 0c2.2 0 2.3 1.8 2.1 3.2l-1.5 8.5c-.4 2.4-1.9 3.5-3.9 3.4-5.9-.7-10.2 2.2-11.2 8.6l-2.3 13c-.5 3-2.5 4.6-5.5 4.6h-6.6c-3 0-4.3-1.6-3.8-4.6l5.5-31.2c.5-3 2.5-4.6 5.5-4.6h6c3 0 4.3 1.6 3.8 4.6l-.7 3.9c1.8-5.8 6.2-9.4 12.6-9.4m-118.9 0c12.8 0 20.9 7.7 18.7 20.6-.5 2.5-2.6 3.6-5.5 3.6h-25.4c-.4 2.2 2.5 6.1 9.4 6.1 5.5 0 7.8-2.4 10.4-2.4 2.2 0 2.8 1.5 4.1 3.6 1.3 2.3.8 4.8-2.1 6.5-5.1 2.9-10.8 4.1-16 4.1-32.1 0-23.3-42.1 6.4-42.1m-10.8 16.9h15.8c.9-7.9-14-7.7-15.8 0m710.3-16.1c3.5 0 4.5 2.2 2.6 5.4l-30.4 48.8c-2.6 4.2-5.3 3.5-11.8 3.5-3.5 0-4.5-2.2-2.6-5.4l9.8-15.8-8.8-31.1c-.9-3.2.9-5.4 4.5-5.4h7.3c2.7 0 4.2 1.2 4.6 3.8l2.8 16.9 9.5-17c1.3-2.5 3.3-3.7 5.9-3.7zm-563.4 0c3 0 4.3 1.6 3.8 4.6l-5.5 31.2c-.5 3-2.5 4.6-5.5 4.6h-6.6c-3 0-4.3-1.6-3.8-4.6l5.5-31.2c.5-3 2.5-4.6 5.5-4.6zm-.3-27c-10.3 0-18.8 6.2-20.4 15.9-2.1.3-4.2.9-6.3 1.8-1.2-.5-2.6-.9-4.1-1 .2-7.2-5.3-13.5-13.9-13.5h-7.1c-5.1 0-9.6 2.1-12.7 5.8-4.6-4.4-9.7-4-13.9-4s-7.9 1.4-10.8 3.8c-2.6-3.5-6.9-5.6-12-5.6h-7.1c-9 0-15.1 6.6-15.2 14.6-10.1-3.7-24.2-2.8-34.8 5.1-4-4.8-9.8-7-16-7.2.3-8-5.6-14.3-14.3-14.3-6.4 0-10.5-.5-15.1 2.3-2.7-.7-1.4-.5-39.6-.5-8.1 0-14.3 5.2-15.7 13.2 0 .1.1-.4-.8 4.7-1.5 8.5 3.5 15.3 11.3 16.6l-4.1 23.3c-1.7 9.4 4.6 16.9 14 16.9h6.6c6.1 0 11.2-3 13.9-7.9 2.1 4.7 6.8 7.9 13.1 7.9 6.7 0 11.3.6 16.1-2.9 1.9 1.5 4.9 2.9 9.2 2.9 7.1 0 12.9.7 18.1-4.7 14.5 9.9 38.4 5.1 45.6-4.2 2.3 5.5 7.3 8.9 13.8 8.9 5.5 0 11.2.5 16.4-5.1 4.8 5.7 11.1 5.1 15.8 5.1 4.9 0 9.3-1.9 12.4-5.5 2.4 3.2 6.4 5.5 11.6 5.5h6.6c5.7 0 10.4-2.6 13.3-6.9 2.3 4.1 6.8 6.9 12.5 6.9 6.7 0 11.3.6 16.1-2.9 9.1 5.4 25.8 5.4 36.2-2.2 7.9 7.5 22.3 7.6 31.5 2.7 4.5 3.1 8.8 2.5 15.1 2.5 2.2 0 4.3-.4 6.2-1.1 8.7 3.8 21.2 2.3 31-6.3 7.7 8.5 20 10.1 29.6 6.3 1.6.7 3.6 1.1 6 1.1 6.2 0 9.2.3 12.9-1.2 3.5 1.5 6.3 1.2 12.7 1.2 3.7 0 6.9-1.1 9.5-2.9 1.9 1.5 4.9 2.9 9.2 2.9 6.8 0 12.3.7 17.4-4 7.6 5.5 17.8 6.1 25.8 2.9 3.5 1.4 6.2 1.1 12.6 1.1 3.4 0 6.5-.9 9-2.6 4.4 3.1 8.4 2.6 15.6 2.6 8.1 0 14.3-5.2 15.7-13.2l1.3-7.5h2.6c3.1 17.7 20.8 25.7 35.9 19.6 1.6.7 3.6 1.1 6 1.1 7 0 12.9.7 18-4.6 10.8 7.3 26.3 6.9 37.7.7.7-.4 1.4-.8 2.1-1.3 8.5 7.9 26 8.2 36.1-.6 10.9 8.7 27.7 8.3 39.9 1.4 4.8 5 10.3 4.3 17.2 4.3 8.1 0 14.3-5.2 15.7-13.2 3-17.2 2.1-12.1 2.3-13.1 1.1.1 2.3.1 3.5-.1l3 10.4c-9.9 15.9-6.8 10.9-7.4 11.9-6.3 10.3.1 21.2 11.5 21.2h5.8c6.3 0 11.4-2.9 14.8-8.4 38.3-61.6 29-46.5 30.4-48.9 6.3-10.3-.2-21.2-11.5-21.2-7.2 0-12.8-.7-18.3 4.5-2.7-2.9-6.6-4.5-11.1-4.5-7.3 0-8.5-.1-10.8.4-4.5-2.1-10.8-1.3-15.4.8-3.4-1.4-5.9-1.1-12-1.1-4.5 0-8.5 1.6-11.3 4.5-11.5-7.8-28.3-6.7-40.2 1-1.4-2.2-3.6-3.9-6.2-4.8-.9-6-5.9-10.6-12.9-10.6h-6c-6 0-11.5 3.4-13.9 10.1-1.3.2-2.6.7-3.7 1.3-9.7-3.7-22.2-3.2-32.9 2.9-4.8-5.1-10.4-4.4-17.3-4.4-2.2 0-4.3.4-6.1 1.1-5-2.2-10.8-2.4-16-1.3-.3-7.5-6-13.2-14.3-13.2h-29.6c-2.8 0-5.3.6-7.5 1.7-4.7-4.2-9.7-3.5-16.4-3.5-8.1 0-14.3 5.2-15.7 13.2l-.2 1.2c-7.4-.7-15.4 1.4-22.1 6.6-6.6-7.4-18.4-8.2-26.7-4.8-1.6-.6-3.5-1.1-5.9-1.1-6.2 0-9.2-.3-12.9 1.2-3.5-1.5-6.3-1.2-12.7-1.2-2.2 0-4.3.4-6.1 1.1-8.5-3.7-21.2-2.4-31 6.3-4.7-5.1-11.2-8-18.6-8.2.2-8-5.5-14.3-14.3-14.3h-6.6c-7.4 0-13.3 4.4-15.3 11.3-2.2-3.7-6.2-6.1-11.2-6.1h-6c-6 0-11.5 3.4-13.9 10.1-1.4.3-2.7.7-3.9 1.4-6.1-2.9-14-3.1-20.3-1.5.3-8.8-6.3-16.6-18.1-16.6z" fill="#fff"></path>
<path d="m28.3 108.3c-4-1.9-9-.1-10.7 5.1-1.5 4.7-.4 11 4.2 13.2 2.3 1.1 5.7 1 7.8-.9l1.7 1.5 2-2.4-1.5-1.4c2.5-5.1 1.6-12.7-3.5-15.1zm.9 11.1c-.1.6-.2 1.2-.3 1.7l-1.9-2-2 2.4 1.8 1.9c-1.4 1.1-3.9.8-5.1-1.2-1.5-2.4-1.5-7.1 0-9.4 1.5-2.5 5-2.5 6.5 0 1.2 1.7 1.4 4.6 1 6.6zm13.3-6h3.2v13.6h-3.1v-.8c-.6.5-1.6 1.1-2.3 1.1-6.6 0-5.3-6.8-5.3-13.8h3.2c0 7.3-.2 8.9.5 10.1.6 1.1 2.1 1.1 2.8.6.3-.2.6-.5.9-.8v-10zm14.2 5.2c0-5.6-3.8-6.6-8.7-4.3l.2 2.7c.6-.4 1.2-.6 1.7-.8.9-.3 2.5-.5 3.1.3.3.4.4.9.4 1.7-4.1.2-7.5 2.7-6.2 6.6 1.3 3.5 5.4 2.5 6.6.8.2.5.6.9 1 1.1.9.5 1.4.4 2.9.4l.2-2.8c-1.4.1-1.2.4-1.2-5.7zm-3.2 5.1c-.5.6-1.3 1-1.6 1-1 0-1.5-.4-1.5-1.6 0-1.4 1.8-2.3 3-2.4v3zm10.4.7-.2 2.8c-1.1 0-1.8.1-2.5-.3-.8-.4-1.2-1-1.5-1.9s-.2 0-.2-18.4h3.2c-.1 18.7-.5 17.8 1.2 17.8zm1.6-11h3.2v13.6h-3.2zm0-5.4h3.2v3.4h-3.2zm12.1 16.4-.3 2.8c-2 0-2.8.1-3.6-.3s-1.3-1.1-1.6-2-.2-.7-.2-8.8h-1.5l.3-2.8h1.2v-3l3.3-.4v3.3h2.4v2.8h-2.4c0 7.4-.1 7.6.2 8 .3.5 1 .4 2.2.4zm9.5-11h3.6l-7.4 20.1h-3.1l2.5-7.5-4.9-12.7h3.6l2.7 8.7zm13.4 1.4c-.6 2.8-.3 7.2 2.2 8.7 1.8 1.1 4.4.2 6.2-.6l.4 3.3c-1.1.6-2.8 1.1-4.7 1.1-10.7 0-10.7-19.7 0-19.7 1.6 0 3.3.4 4.7 1.1l-.4 3.3c-4.1-1.9-7.4-1.7-8.4 2.8zm17.9-1.4h3.2v13.6h-3.1v-.8c-.6.5-1.6 1.1-2.3 1.1-6.5 0-5.3-6.7-5.3-13.8h3.2c0 7.3-.2 8.9.5 10.1.6 1.1 2.1 1.1 2.8.6.3-.2.6-.5.9-.8v-10zm13.4 8.1c.3.9.3 2.1.1 3.1-.6 3.3-6.4 3.1-8.5 1.7l.2-2.9c1.2.9 4 2 4.9.9.2-.3.2-.6.2-1 0-2.7-5.3-1.1-5.3-5.7 0-2.5 1.4-4.3 4.3-4.3 1 0 3.2.4 3.9 1l-.2 2.9c-1-1.1-3.2-1.9-4.6-1.1-.7.4-.7 1.5-.4 2 1.1 1.2 4.3.5 5.4 3.4zm8.4 2.9-.3 2.8c-2 0-2.8.1-3.6-.3s-1.3-1.1-1.6-2-.2-.7-.2-8.8h-1.5l.3-2.8h1.2v-3l3.3-.4v3.3h2.4v2.8h-2.4c0 7.4-.1 7.6.2 8 .3.5 1.1.4 2.2.4zm11.6-9.1c-2.3-2.8-6.6-2.8-8.9 0-2.1 2.6-2.1 7.2 0 9.9 2.2 2.8 6.6 2.8 8.9 0 2.1-2.7 2.1-7.4 0-9.9zm-2.4 8c-.9 1.6-3 1.6-4 0s-1-4.6 0-6.2 3.1-1.6 4 0 .9 4.6 0 6.2zm23.2-6.3c.4 1.5.3 1.8.3 9.9h-3.2v-7.3c0-1.8-.1-3.7-2-3.7-1.5 0-2 1.1-2 2.6v8.4h-3.2c0-7.2.4-10.2-1.2-10.8-.5-.2-1.5-.3-2 .1-.3.2-.5.5-.8.8v9.9h-3.2v-13.6h2.7l.1 1.1c1-1.7 4.8-2 6.2.8.7-2.2 7-3.9 8.3 1.8zm19.6 6.8c-.7 4.7-9.5 4-11.6 2.2l.4-3.9c.9 1.3 3.4 2 5 2 2.1 0 2.7-.8 2.7-2.1 0-2-1.5-2.6-3.2-3.4-2.8-1.3-4.6-2.1-4.6-5.4 0-3.4 2-5.6 5.9-5.6 1.5 0 4.2.5 5.2 1.5l-.3 3.6c-.8-.6-1.6-1-2.4-1.3-1.6-.6-3.8-.7-4.8.6-.4.5-.4 1.4-.1 2 1.6 2.6 9.1 1.1 7.8 9.8zm1.8-10.4h3.2v13.6h-3.2zm0-5.4h3.2v3.4h-3.2zm10.1 16.4-.2 2.8c-1.1 0-1.8.1-2.5-.3-.8-.4-1.2-1-1.5-1.9s-.2.2-.2-18.4h3.2c0 18.7-.4 17.8 1.2 17.8zm1.7-11h3.2v13.6h-3.2zm0-5.4h3.2v3.4h-3.2zm11 16.4c.9 0 1.8-.2 3-1.1l.2 2.9c-1.2.8-2.1 1-3.5 1-7.6 0-7.6-14 0-14 1.9 0 2.6.4 3.5 1l-.2 2.9c-6.6-5-7.1 7.3-3 7.3zm14.7-9.1c-2.3-2.8-6.6-2.8-8.9 0-2.1 2.6-2.1 7.2 0 9.9 2.2 2.8 6.6 2.8 8.9 0 2.1-2.7 2.1-7.4 0-9.9zm-2.4 8c-.9 1.6-3 1.6-4 0s-1-4.6 0-6.2 3.1-1.6 4 0 .9 4.6 0 6.2zm16-6.3c.3 1.5.3 1.9.3 9.9h-3.2v-7.3c0-1.8-.3-3.7-2-3.7-.8 0-1.3.4-1.8 1.2v9.8h-3.2v-13.6h3.2c0 1.4-.2.6.8.1s2.6-.3 3.6.2c1.3.7 2 1.9 2.3 3.4zm3.6-1.7c-1.9 2.6-2 7.3.1 9.8 2.1 2.6 6.2 2.6 8.7 1.1v-2.8c-1.1.7-3.4 1.4-4.7.9s-2-1.9-2.2-3.3h7.2c1.6-7.3-5.8-10.2-9.1-5.7zm1.9 3.3c.5-3.4 4.1-3.8 4.1 0zm32.3-10.6h3.4l-4.8 19h-2.7l-3.6-12.7-3.4 12.7h-3l-4.6-19h3.4l3.1 13.5 3.5-13.5h2.1l3.6 13.1zm9.8 5.2h1l-.6 3.2c-1.5 0-1.9 0-2.4.4-.3.3-.6.6-.7 1v9.2h-3.2v-13.6h3.1v1.4c.4-.8 1.5-1.6 2.8-1.6zm2.1.2h3.2v13.6h-3.2zm0-5.4h3.2v3.4h-3.2zm13.5 13.5c.3.9.3 2.1.1 3.1-.2 1.1-1 1.8-2 2.3-1.7.7-5 .4-6.5-.6l.2-2.9c1.2.9 4 2 4.9.9.2-.3.2-.6.2-1 0-2.7-5.3-1.1-5.3-5.7 0-2.5 1.4-4.3 4.3-4.3 1 0 3.2.4 3.9 1l-.1 2.7c-1-1.1-3.2-1.9-4.6-1.1-.7.4-.7 1.5-.4 2 1.1 1.4 4.3.7 5.3 3.6zm8.5 2.9-.3 2.8c-2 0-2.8.1-3.6-.3s-1.3-1.1-1.6-2-.2-.7-.2-8.8h-1.5l.3-2.8h1.2v-3l3.3-.4v3.3h2.4v2.8h-2.4c0 7.4-.1 7.6.2 8 .3.5 1.1.4 2.2.4zm7.5-11.2c-1.1 0-1.5.2-2.4.9v-7.5h-3.2v20.3h3c0-1.3-.2-.6 1 0 .7.4 2.7.4 4.2-.3 5.1-2.5 4.6-13.4-2.6-13.4zm1.9 10.1c-.8 1.4-2.6 1.4-3.3.9s-1-1.4-1.1-2.2c-.2-1.6-.3-4.7 1.1-5.7.8-.5 2.5-.5 3.3.9 1 1.5 1 4.5 0 6.1zm14.5-4.7c0-5.6-3.8-6.6-8.7-4.3l.2 2.7c.6-.4 1.2-.6 1.7-.8.9-.3 2.5-.5 3.1.3.3.4.4.9.4 1.7-4.1.2-7.5 2.7-6.2 6.6 1.3 3.5 5.4 2.5 6.6.8.2.5.6.9 1 1.1.9.5 1.4.4 2.9.4l.2-2.8c-1.4.1-1.2.4-1.2-5.7zm-3.2 5.1c-.5.6-1.3 1-1.6 1-1 0-1.5-.4-1.5-1.6 0-1.4 1.8-2.3 3-2.4v3zm16-6.7c.3 1.5.3 1.9.3 9.9h-3.2v-7.3c0-1.8-.3-3.7-2-3.7-.8 0-1.3.4-1.8 1.2v9.8h-3.2v-13.6h3.2c0 1.4-.2.6.8.1s2.6-.3 3.6.2c1 .6 1.9 1.6 2.3 3.4zm10.4-2.9c-.8-.7-1.4-.9-2.4-.9-6.4 0-7.2 8.5-4.5 12 1.7 2.2 4.8 2.4 6 1.8s1-1.4 1 0h3.1v-20.3h-3.3v7.4zm.1 6.1c0 2.1-.2 4.3-2.3 4.3s-2.8-2.2-2.8-4.3.7-4.3 2.8-4.3 2.3 2.2 2.3 4.3zm13.5 1.3c.3.9.3 2.1.1 3.1-.6 3.3-6.4 3.1-8.5 1.7l.2-2.9c1.2.9 4 2 4.9.9.2-.3.2-.6.2-1 0-2.7-5.3-1.1-5.3-5.7 0-2.5 1.4-4.3 4.3-4.3 1 0 3.2.4 3.9 1l-.2 2.9c-1-1.1-3.2-1.9-4.6-1.1-.7.4-.7 1.5-.4 2 1.1 1.2 4.4.5 5.4 3.4zm16.2-2.9c0-5.6-3.8-6.7-8.7-4.3l.2 2.7c.6-.4 1.2-.6 1.7-.8.9-.3 2.5-.5 3.1.3.3.4.4.9.4 1.7-4.1.2-7.6 2.7-6.2 6.6 1.3 3.5 5.4 2.5 6.6.8.2.5.6.9 1 1.1.9.5 1.4.4 2.9.4l.2-2.8c-1.5.1-1.2.4-1.2-5.7zm-3.3 5.1c-.5.6-1.3 1-1.6 1-1 0-1.5-.4-1.5-1.6 0-1.4 1.8-2.3 3-2.4v3zm16.1-6.7c.3 1.5.3 1.9.3 9.9h-3.2v-7.3c0-1.8-.3-3.7-2-3.7-.8 0-1.3.4-1.8 1.2v9.8h-3.2v-13.6h3.2c0 1.4-.2.6.8.1s2.6-.3 3.6.2c1.2.7 1.9 1.9 2.3 3.4zm10.3-2.9c-.8-.7-1.4-.9-2.4-.9-6.4 0-7.2 8.5-4.5 12 1.7 2.2 4.8 2.4 6 1.8s1-1.4 1 0h3.1v-20.3h-3.3v7.4zm.1 6.1c0 2.1-.2 4.3-2.3 4.3s-2.8-2.2-2.8-4.3.7-4.3 2.8-4.3 2.3 2.2 2.3 4.3zm17.2 4.2-.3 2.8c-2 0-2.8.1-3.6-.3s-1.3-1.1-1.6-2-.2-.7-.2-8.8h-1.4l.3-2.8h1.2v-3l3.3-.4v3.3h2.4v2.8h-2.4c0 7.4-.1 7.6.2 8 .3.5 1 .4 2.1.4zm11.9-7.4c.3 1.5.3 1.9.3 9.9h-3.2v-7.3c0-2.5-.7-3.7-2.1-3.7-.8 0-1.4.5-1.8 1.2v9.8h-3.2v-20.3h3.2v7.5c.5-.4 1.4-.9 2-.9 2.6 0 4.3 1.4 4.8 3.8zm3.6-1.7c-1.9 2.6-2 7.2.1 9.8 2.2 2.6 6.3 2.5 8.7 1.1v-2.8c-1.1.7-3.4 1.4-4.7.9s-2-1.9-2.2-3.3h7.2c1.6-7.3-5.8-10.2-9.1-5.7zm1.9 3.3c.5-3.5 4.1-3.8 4.1 0zm15-10.6h3.3v19h-3.3zm16 9c.3 1.5.3 1.9.3 9.9h-3.2v-7.3c0-1.8-.3-3.7-2-3.7-.8 0-1.3.4-1.8 1.2v9.8h-3.2v-13.6h3.2c0 1.4-.2.6.8.1s2.6-.3 3.6.2c1.3.7 2 1.9 2.3 3.4zm10.4-2.9c-.8-.7-1.4-.9-2.4-.9-1.9 0-3.4.8-4.5 2.1-2.6 3.3-2.2 12 4.5 12 2.7 0 2.5-2 2.5-.3h3.1v-20.3h-3.3v7.4zm.1 6.1c0 2.1-.2 4.3-2.3 4.3s-2.8-2.2-2.8-4.3.7-4.3 2.8-4.3 2.3 2.2 2.3 4.3zm13.1-6.8h3.2v13.6h-3.1v-.8c-.6.5-1.6 1.1-2.3 1.1-6.6 0-5.3-6.8-5.3-13.8h3.2c0 7.3-.2 8.9.5 10.1.6 1.1 2.1 1.1 2.8.6.3-.2.6-.5.9-.8v-10zm13.3 8.1c.3.9.3 2.1.1 3.1-.2 1.1-1 1.8-2 2.3-1.7.7-5 .4-6.5-.6l.2-2.9c1.2.9 4 2 4.9.9.2-.3.2-.6.2-1 0-2.7-5.3-1.1-5.3-5.7 0-2.5 1.4-4.3 4.3-4.3 1 0 3.2.4 3.9 1l-.2 2.7c-1-1.1-3.2-1.9-4.6-1.1-.7.4-.7 1.5-.4 2 1.2 1.4 4.4.7 5.4 3.6zm8.5 2.9-.3 2.8c-2 0-2.8.1-3.6-.3s-1.3-1.1-1.6-2-.2-.7-.2-8.8h-1.5l.3-2.8h1.2v-3l3.3-.4v3.3h2.4v2.8h-2.4c0 7.4-.1 7.6.2 8 .3.5 1.1.4 2.2.4zm17.5-11h3.6l-7.4 20.1h-3.1l2.5-7.5-4.6-12-.4 2.3c-1.5 0-1.9 0-2.4.4-.3.3-.6.6-.7 1v9.2h-3.2v-13.6h3.1v1.4c.2-.4.6-.8 1-1.1.9-.6 1.7-.5 2.8-.5v.2h3.3l2.7 8.7zm4.6-6.8h3.1v3.5l-2.5 3-.7-.4.8-2.3-.8-.3v-3.5zm12.7 14.9c.3.9.3 2.1.1 3.1-.6 3.3-6.4 3.1-8.5 1.7l.2-2.9c1.2.9 4 2 4.9.9.2-.3.2-.6.2-1 0-2.7-5.3-1.1-5.3-5.7 0-2.5 1.4-4.3 4.3-4.3 1 0 3.2.4 3.9 1l-.2 2.9c-1-1.1-3.2-1.9-4.6-1.1-.7.4-.7 1.5-.4 2 1.1 1.2 4.3.5 5.4 3.4zm16.9-4.7c1.9-2.2 1.9-6.5-.4-8-1.8-1.1-4.4-.9-9.3-.9v19c6.1 0 7.2.1 8.7-.3 1.4-.4 2.6-1.2 3.3-2.6s.8-4.1-.2-5.6c-.6-.6-1.3-1.2-2.1-1.6zm-6.4-5.9c3.2 0 3.7-.1 4.2.5.6.6.9 3.6-.7 4.1-.4.1-.2.1-3.5.1zm5.1 12.5c-.9.8-1.8.6-5.1.6v-5.7c2.9 0 4.1-.2 5 .6 1.2 1 1 3.7.1 4.5zm7.4-8.1c-1.9 2.6-2 7.3.1 9.8 2.1 2.6 6.2 2.6 8.7 1.1v-2.8c-1.1.7-3.4 1.4-4.7.9s-2-1.9-2.2-3.3h7.2c1.7-7.3-5.7-10.2-9.1-5.7zm2 3.3c.5-3.4 4.1-3.8 4.1 0zm17.2 2.9c.3.9.3 2.1.1 3.1-.2 1.1-1 1.8-2 2.3-1.7.7-5 .4-6.5-.6l.2-2.9c1.2.9 4 2 4.9.9.2-.3.2-.6.2-1 0-2.7-5.3-1.1-5.3-5.7 0-2.5 1.4-4.3 4.3-4.3 1 0 3.2.4 3.9 1l-.2 2.9c-1-1.1-3.2-1.9-4.6-1.1-.7.4-.7 1.5-.4 2 1.2 1.2 4.4.5 5.4 3.4zm8.5 2.9-.3 2.8c-2 0-2.8.1-3.6-.3s-1.3-1.1-1.6-2-.2-.7-.2-8.8h-1.5l.3-2.8h1.2v-3l3.3-.4v3.3h2.4v2.8h-2.4c0 7.4-.1 7.6.2 8 .3.5 1.1.4 2.2.4zm18.5-.6c-.7 4.7-9.5 4-11.6 2.2l.4-3.9c.9 1.3 3.4 2 5 2 2.1 0 2.7-.8 2.7-2.1 0-2-1.5-2.6-3.2-3.4-2.8-1.3-4.6-2.1-4.6-5.4 0-3.4 2-5.6 5.9-5.6 1.5 0 4.2.5 5.2 1.5l-.3 3.6c-.8-.6-1.6-1-2.4-1.3-1.6-.6-3.8-.7-4.8.6-.4.5-.4 1.4-.1 2 1.6 2.6 9.1 1.1 7.8 9.8zm2.8-8.5c-1.9 2.6-2 7.3.1 9.8 2.1 2.6 6.2 2.6 8.7 1.1v-2.8c-1.1.7-3.4 1.4-4.7.9s-2-1.9-2.2-3.3h7.2c1.7-7.3-5.7-10.2-9.1-5.7zm2 3.3c.5-3.4 4.1-3.8 4.1 0zm24.6-5.2h3l-4.5 13.6h-2.5l-4.5-13.3-.5 2.7c-1.3 0-2.6-.2-3.1 1.4v9.2h-3.2v-13.6h3.1v1.4c.2-.5.8-1.2 1.8-1.5.6-.2 1-.1 2-.1v.2h2.9l2.7 9.4zm4.3-5.4h3.2v3.4h-3.2zm0 5.4h3.2v13.6h-3.2zm11 11c.9 0 1.8-.2 3-1.1l.2 2.9c-1.2.8-2.1 1-3.5 1-7.6 0-7.6-14 0-14 1.9 0 2.6.4 3.5 1l-.2 2.9c-6.6-5-7.1 7.3-3 7.3zm7.4-10.7c-3 1.7-3.8 6-2.8 9.1 1.4 4.4 6.3 5.5 9.9 3.3v-2.8c-1.1.7-2.8 1.1-3.7 1.1-1.5 0-2.9-1.1-3.2-3.6h7.2c1.4-5.9-3.6-9.1-7.4-7.1zm.2 4.9c.5-3.5 4.1-3.8 4.1 0z" fill="#fff"></path>
<path d="m840.4 68.9c-30.2 11.9-72.2 25.7-103 33.6l17.5 24.4c25.6-6.8 55.6-16.6 80.4-25.9z" fill="#0b83e3"></path>
<path d="m780.9 50.2 3.3 21.5-12.9 1.6z" fill="#fff"></path>
<path d="m724.4 115.9c.7 2 .7 1.8-2.3 2.4.9 2.7 1.4 4.1 2.3 6.8.4 1.1-.7 1.1-1.9 1.4-.6.1-1-.1-1.2-.7-.9-2.7-1.4-4.1-2.3-6.8-1.8.4-2.8.8-3.1-.3-.3-1-.7-1.7.3-2 2.8-.6 4.2-.9 7.1-1.5.5-.2.9.1 1.1.7zm3.9 8.3c-1.2-3.6-1.8-5.3-3-8.9-.2-.6 0-1 .6-1.1 2.6-.6 2.1-.9 3.5 3.4.2-.8.8-1.4 1.8-1.6 2.5-.6 3.5 1.5 3.9 2.7 1.7 5 2 4.4-.7 5.1-.6.1-1-.1-1.2-.7-.5-1.3-.7-2-1.1-3.4-.2-.6-.6-1.3-1.4-1.1s-.7.9-.5 1.5c.5 1.3.7 2 1.1 3.4.2.6 0 1-.6 1.1-1.1.2-2 .7-2.4-.4zm8.1-5.1c-1.8-5.3 7-7.7 8.8-2.3.2.5-.1.8-.7.9-2 .5-3 .7-5 1.2.3.8 2.3 1.2 3.7 0 .7-.6 1.1-.2 1.7.2 2.6 1.9-6.5 5.8-8.5 0zm5.8-2.3c-.6-1.5-3.5-.8-3.1.8 1.2-.3 1.8-.5 3.1-.8zm6.8 2.6c-2.3-3.1-3.4-4.7-5.7-7.9-.4-.6-.2-1 .4-1.2 1.4-.4 2.1-.7 2.7.1 1.1 1.6 1.6 2.4 2.7 4.1-.1-5.5-.5-5.1 1.3-5.6.5-.1.9 0 1.3.5 1 1.5 1.6 2.2 2.6 3.7-.1-1.9-.2-2.8-.3-4.7-.1-1 .8-1 2.1-1.4.6-.2 1.1.1 1.1.8 0 3.7.1 5.6.1 9.3 0 .5-.2.9-.8 1-2 .5-1.4.8-4.9-4.2.2 5.8.6 5.3-1.5 5.9-.4.2-.8 0-1.1-.4zm15.8-9.6c.2.5 0 .8-.4.8-1.3.2-1.7 1-1.4 2.2.3 1 .5 1.5.8 2.5.2.6 0 1-.6 1.1-1.2.3-2.1.8-2.5-.3-.8-2.4-1.2-3.6-2-6-.2-.6 0-1 .6-1.1 1.2-.3 2-.7 2.4.3.8 2.2-.7-.9 1.6-1.6.9-.2.8.1 1.5 2.1zm-.6-4.2c-.3-.8.1-1.5 1.3-1.8s1.9.1 2.2.9c.5 1.8-2.9 2.8-3.5.9zm3.1 8.7c-.8-2.4-1.2-3.6-2-6-.2-.6 0-1 .6-1.1 1.2-.3 2.1-.8 2.5.3.8 2.4 1.2 3.6 2 6 .2.6 0 1-.6 1.1-1.2.3-2.1.8-2.5-.3zm4.1-1.8c-.4-.5-.3-1 .3-1.3.2-.1.3-.2.6-.3.9-.5 1 .6 2.3.2.4-.1.7-.3.6-.6-.2-.7-4.1.4-4.9-2-.9-2.7 3.2-4.6 5.3-3.2.6.4.5 1-.1 1.3-.2.1-.3.2-.5.3-.8.5-1-.2-1.8 0-.3.1-.4.3-.4.5.2.6 4.1-.3 5 2.1.6 1.7-.8 3-2.6 3.5-1.6.6-2.9.4-3.8-.5zm7.8-3.7c-.4-1.2-.6-1.7-1-2.9-1.2.4-1 .5-1.7-1.4-.2-.6.4-.6 1.3-.9-.2-1.5-.4-2 .3-2.2 2-.6 1.7-.7 2.4 1.4 2.1-.7 1.8-.9 2.5 1.2.2.6-.3.6-1.7 1 1 3 1 3.4 1.5 3.3.4-.1.3-.6.1-1-.3-.6.2-.6 1.3-.9.5-.2.8.3.9.7.8 2.1-.6 3.2-2 3.6-1.3.5-3.1.4-3.9-1.9zm10.4-1.3c.2.6.1 1-.6 1.2-1.2.4-2.1.9-2.5-.2-1.2-3.6-1.8-5.3-3-8.9-.2-.6 0-1 .6-1.2 2.5-.8 2.1-1 3.5 3.2.2-.8.8-1.5 1.8-1.8 4.9-1.6 7.6 6.5 2.7 8.1-.9.4-1.9.2-2.5-.4zm1.8-3.8c-.8-2.3-3.7-1.4-2.9.9s3.7 1.4 2.9-.9zm3.8-1.2c-1.4-4.2 2.9-6.6 4.9-4.9-.2-.6-.1-1.1.6-1.3 1.2-.4 2.1-.9 2.5.2.8 2.4 1.2 3.6 2 6 .2.6 0 1-.6 1.2-1.3.4-2.1 1-2.5-.2-.6 2.5-5.5 3.2-6.9-1zm5.9-2c-.8-2.3-3.6-1.3-2.9 1 .8 2.3 3.7 1.3 2.9-1zm5.4 1.5c-.8-2.4-1.2-3.6-2-6-.2-.6 0-1 .6-1.2 1.2-.4 2.1-1 2.4.1.2.4-.2-1.1 1.8-1.8 2.4-.8 3.4 1.2 3.8 2.4 1.7 5 2 4.4-.6 5.3-.6.2-1 0-1.2-.6-1.2-3.5-1.3-4.8-2.5-4.4s-.5 1.6.7 5c.2.6 0 1-.6 1.2-1.1.6-2 1.1-2.4 0zm7.9-6.1c-1.4-4.2 2.9-6.7 4.8-5-.4-1.2-.6-1.8-1-3-.2-.6 0-1 .6-1.2 1.1-.4 2.1-1 2.4.1 1.2 3.6 1.8 5.3 3 8.9.2.6 0 1-.6 1.2-1.1.4-2.1 1-2.4-.1-.1-.4.2 1.1-1.8 1.9-2.1.7-4.3-.4-5-2.8zm5.8-2.1c-.8-2.3-3.6-1.3-2.8 1s3.6 1.3 2.8-1zm10.1-10.1c.7 2.1.8 1.7-3.7 3.4.2.5.3.8.5 1.3 1.1-.4 1.7-.7 2.9-1.1.6-.2 1 0 1.2.5.6 1.8.5 1.5-3.2 2.9 1.5 4.4 1.7 3.8-.9 4.8-.6.2-1 0-1.2-.6-1.2-3.4-1.7-5.1-2.9-8.6-.2-.6 0-1 .6-1.2 2.2-.8 3.4-1.3 5.6-2.1.5-.1.9.1 1.1.7zm2.3 5.4c-1.4-4.2 2.8-6.8 4.8-5.2-.2-.6-.1-1.1.5-1.3 1.1-.5 2-1.1 2.4 0 .8 2.4 1.2 3.6 2 6 .2.6 0 1-.6 1.2-1.2.5-2 1.1-2.4-.1-.5 2.7-5.3 3.6-6.7-.6zm5.8-2.3c-.8-2.3-3.6-1.2-2.8 1.1s3.6 1.2 2.8-1.1zm4-1.6c-1.2-3.5 2.5-6.8 5.8-6.2 1 .2.6 1.1.3 1.8-.3 1-1.1.5-2.1.9-2.3.9-1.1 4.3 1.1 3.4 1-.4 1.3-1.4 2.1-.9.2.1.3.2.5.3.5.3.6.8.2 1.3-2 2.7-6.8 3-7.9-.6zm9.5-2.5c-.4-1.2-.6-1.7-1-2.9-1.2.5-1 .6-1.6-1.3-.2-.6.4-.7 1.2-1-.2-1.4-.5-2 .2-2.3 1.9-.8 1.6-1 2.3 1.2 2.1-.9 1.7-1.1 2.4 1 .2.6-.2.6-1.6 1.2 1 3 1 3.4 1.5 3.2.4-.2.3-.7.1-1-.3-.6.2-.6 1.3-1.1.5-.2.7.2.9.7.8 2.1-.6 3.4-1.9 3.9-1.3.6-3.1.6-3.8-1.6zm5.6-3.8c-1.8-5.4 6.9-9.2 8.7-3.8s-6.9 9.2-8.7 3.8zm6-2.6c-.8-2.2-4-.8-3.2 1.4.7 2.2 3.9.8 3.2-1.4zm7.9-7.5c.5 1.4 1 2.3.2 2.6-1.3.4-1.6 1.3-1.2 2.5.3 1 .5 1.5.8 2.5.2.6 0 1-.6 1.3-1.1.5-2 1.1-2.4.1-.8-2.4-1.2-3.6-2-6-.2-.6 0-1 .6-1.3 1.1-.5 1.9-1.1 2.3 0 .8 2.2-.7-.9 1.5-1.9.3-.3.6-.4.8.2zm5.1 8.7c.1-1.4.2-2.2.3-3.6-1.9-1.9-2.8-2.8-4.7-4.7-.5-.5-.3-1 .3-1.3.5-.2.8-.4 1.3-.6s.9-.2 1.2.3c.9 1.1 1.3 1.7 2.1 2.8.1-5.2-.3-4.4 2.1-5.6.6-.3 1 0 1 .7-.3 4.5-.5 6.8-.8 11.2-.1 1-.7 1.1-1.8 1.6-.6.2-1-.1-1-.8z" fill="#92deff"></path>
<path clip-path="url(#a)" d="m724.2 115.4c.7 2 .7 1.8-2.3 2.4.9 2.7 1.4 4.1 2.3 6.8.4 1.1-.7 1.1-1.9 1.4-.6.1-1-.1-1.2-.7-.9-2.7-1.4-4.1-2.3-6.8-1.8.4-2.8.8-3.1-.3-.3-1-.7-1.7.3-2 2.8-.6 4.2-.9 7.1-1.5.4-.1.9.1 1.1.7zm3.9 8.3c-1.2-3.6-1.8-5.3-3-8.9-.2-.6 0-1 .6-1.1 2.6-.6 2.1-.9 3.5 3.4.2-.8.8-1.4 1.8-1.6 2.5-.6 3.5 1.5 3.9 2.7 1.7 5 2 4.4-.7 5.1-.6.1-1-.1-1.2-.7-.5-1.3-.7-2-1.1-3.4-.2-.6-.6-1.3-1.4-1.1s-.7.9-.5 1.5c.5 1.3.7 2 1.1 3.4.2.6 0 1-.6 1.1-1.1.3-2 .7-2.4-.4zm8.1-5c-1.8-5.3 7-7.7 8.8-2.3.2.5-.1.8-.7.9-2 .5-3 .7-5 1.2.3.8 2.3 1.2 3.7 0 .7-.6 1.1-.2 1.7.2 2.6 1.8-6.5 5.8-8.5 0zm5.8-2.3c-.6-1.5-3.5-.8-3.1.8 1.2-.4 1.8-.5 3.1-.8zm6.7 2.5c-2.3-3.1-3.4-4.7-5.7-7.9-.4-.6-.2-1 .4-1.2 1.4-.4 2.1-.7 2.7.1 1.1 1.6 1.6 2.4 2.7 4.1-.1-5.5-.5-5.1 1.3-5.6.5-.1.9 0 1.3.5 1 1.5 1.6 2.2 2.6 3.7-.1-1.9-.2-2.8-.3-4.7-.1-1 .8-1 2.1-1.4.6-.2 1.1.1 1.1.8 0 3.7.1 5.6.1 9.3 0 .5-.2.9-.8 1-2 .5-1.4.8-4.9-4.2.2 5.8.6 5.3-1.5 5.9-.3.2-.7.1-1.1-.4zm15.9-9.6c.2.5 0 .8-.4.8-1.3.2-1.7 1-1.4 2.2.3 1 .5 1.5.8 2.5.2.6 0 1-.6 1.1-1.2.3-2.1.8-2.5-.3-.8-2.4-1.2-3.6-2-6-.2-.6 0-1 .6-1.1 1.2-.3 2-.7 2.4.3.8 2.2-.7-.9 1.6-1.6.9-.2.8.1 1.5 2.1zm-.6-4.1c-.3-.8.1-1.5 1.3-1.8s1.9.1 2.2.9c.5 1.7-2.9 2.7-3.5.9zm3.1 8.6c-.8-2.4-1.2-3.6-2-6-.2-.6 0-1 .6-1.1 1.2-.3 2.1-.8 2.5.3.8 2.4 1.2 3.6 2 6 .2.6 0 1-.6 1.1-1.2.3-2.2.8-2.5-.3zm4.1-1.8c-.4-.5-.3-1 .3-1.3.2-.1.3-.2.6-.3.9-.5 1 .6 2.3.2.4-.1.7-.3.6-.6-.2-.7-4.1.4-4.9-2-.9-2.7 3.2-4.6 5.3-3.2.6.4.5 1-.1 1.3-.2.1-.3.2-.5.3-.8.5-1-.2-1.8 0-.3.1-.4.3-.4.5.2.6 4.1-.3 5 2.1.6 1.7-.8 3-2.6 3.5-1.6.7-2.9.5-3.8-.5zm7.8-3.6c-.4-1.2-.6-1.7-1-2.9-1.2.4-1 .5-1.7-1.4-.2-.6.4-.6 1.3-.9-.2-1.5-.4-2 .3-2.2 2-.6 1.7-.7 2.4 1.4 2.1-.7 1.8-.9 2.5 1.2.2.6-.3.6-1.7 1 1 3 1 3.4 1.5 3.3.4-.1.3-.6.1-1-.3-.6.2-.6 1.3-.9.5-.2.8.3.9.7.8 2.1-.6 3.2-2 3.6-1.3.4-3.1.3-3.9-1.9zm10.3-1.3c.2.6.1 1-.6 1.2-1.2.4-2.1.9-2.5-.2-1.2-3.6-1.8-5.3-3-8.9-.2-.6 0-1 .6-1.2 2.5-.8 2.1-1 3.5 3.2.2-.8.8-1.5 1.8-1.8 4.9-1.6 7.6 6.5 2.7 8.1-.9.3-1.8.1-2.5-.4zm1.9-3.8c-.8-2.3-3.7-1.4-2.9.9s3.7 1.4 2.9-.9zm3.7-1.3c-1.4-4.2 2.9-6.6 4.9-4.9-.2-.6-.1-1.1.6-1.3 1.2-.4 2.1-.9 2.5.2.8 2.4 1.2 3.6 2 6 .2.6 0 1-.6 1.2-1.3.4-2.1 1-2.5-.2-.6 2.6-5.5 3.2-6.9-1zm6-1.9c-.8-2.3-3.6-1.3-2.9 1 .8 2.2 3.6 1.3 2.9-1zm5.4 1.5c-.8-2.4-1.2-3.6-2-6-.2-.6 0-1 .6-1.2 1.2-.4 2.1-1 2.4.1.2.4-.2-1.1 1.8-1.8 2.4-.8 3.4 1.2 3.8 2.4 1.7 5 2 4.4-.6 5.3-.6.2-1 0-1.2-.6-1.2-3.5-1.3-4.8-2.5-4.4s-.5 1.6.7 5c.2.6 0 1-.6 1.2-1.1.5-2 1.1-2.4 0zm7.8-6.1c-1.4-4.2 2.9-6.7 4.8-5-.4-1.2-.6-1.8-1-3-.2-.6 0-1 .6-1.2 1.1-.4 2.1-1 2.4.1 1.2 3.6 1.8 5.3 3 8.9.2.6 0 1-.6 1.2-1.1.4-2.1 1-2.4-.1-.1-.4.2 1.1-1.8 1.9-2 .6-4.2-.5-5-2.8zm5.9-2.2c-.8-2.3-3.6-1.3-2.8 1 .7 2.4 3.6 1.3 2.8-1zm10.1-10c.7 2.1.8 1.7-3.7 3.4.2.5.3.8.5 1.3 1.1-.4 1.7-.7 2.9-1.1.6-.2 1 0 1.2.5.6 1.8.5 1.5-3.2 2.9 1.5 4.4 1.7 3.8-.9 4.8-.6.2-1 0-1.2-.6-1.2-3.4-1.7-5.1-2.9-8.6-.2-.6 0-1 .6-1.2 2.2-.8 3.4-1.3 5.6-2.1.5-.1.9.1 1.1.7zm2.3 5.3c-1.4-4.2 2.8-6.8 4.8-5.2-.2-.6-.1-1.1.5-1.3 1.1-.5 2-1.1 2.4 0 .8 2.4 1.2 3.6 2 6 .2.6 0 1-.6 1.2-1.2.5-2 1.1-2.4-.1-.5 2.8-5.3 3.6-6.7-.6zm5.8-2.2c-.8-2.3-3.6-1.2-2.8 1.1s3.6 1.2 2.8-1.1zm3.9-1.6c-1.2-3.5 2.5-6.8 5.8-6.2 1 .2.6 1.1.3 1.8-.3 1-1.1.5-2.1.9-2.3.9-1.1 4.3 1.1 3.4 1-.4 1.3-1.4 2.1-.9.2.1.3.2.5.3.5.3.6.8.2 1.3-1.9 2.7-6.7 2.9-7.9-.6zm9.6-2.6c-.4-1.2-.6-1.7-1-2.9-1.2.5-1 .6-1.6-1.3-.2-.6.4-.7 1.2-1-.2-1.4-.5-2 .2-2.3 1.9-.8 1.6-1 2.3 1.2 2.1-.9 1.7-1.1 2.4 1 .2.6-.2.6-1.6 1.2 1 3 1 3.4 1.5 3.2.4-.2.3-.7.1-1-.3-.6.2-.6 1.3-1.1.5-.2.7.2.9.7.8 2.1-.6 3.4-1.9 3.9-1.4.6-3.1.7-3.8-1.6zm5.6-3.8c-1.8-5.4 6.9-9.2 8.7-3.8s-6.9 9.2-8.7 3.8zm6-2.6c-.8-2.2-4-.8-3.2 1.4.7 2.3 3.9.9 3.2-1.4zm7.9-7.5c.5 1.4 1 2.3.2 2.6-1.3.4-1.6 1.3-1.2 2.5.3 1 .5 1.5.8 2.5.2.6 0 1-.6 1.3-1.1.5-2 1.1-2.4.1-.8-2.4-1.2-3.6-2-6-.2-.6 0-1 .6-1.3 1.1-.5 1.9-1.1 2.3 0 .8 2.2-.7-.9 1.5-1.9.3-.3.6-.4.8.2zm5.1 8.7c.1-1.4.2-2.2.3-3.6-1.9-1.9-2.8-2.8-4.7-4.7-.5-.5-.3-1 .3-1.3.5-.2.8-.4 1.3-.6s.9-.2 1.2.3c.9 1.1 1.3 1.7 2.1 2.8.1-5.2-.3-4.4 2.1-5.6.6-.3 1 0 1 .7-.3 4.5-.5 6.8-.8 11.2-.1 1-.7 1.1-1.8 1.6-.6.2-1-.1-1-.8z" fill="#fff" opacity=".78"></path>
<path d="m879.7 64.5c.4 0 .6.3.6.8-.3 4.5-.5 6.8-.8 11.2-.1 1-.7 1.1-1.8 1.6-.2.1-.3.1-.4.1-.4 0-.6-.3-.6-.8.1-1.4.2-2.2.3-3.6-1.9-1.9-2.8-2.8-4.7-4.7-.5-.5-.3-1 .3-1.3.5-.2.8-.4 1.3-.6.2-.1.4-.1.5-.1.3 0 .5.1.7.4.9 1.1 1.3 1.7 2.1 2.8.1-5.2-.3-4.4 2.1-5.6.1-.2.2-.2.4-.2m-8.7 3.8c.2 0 .3.1.4.4.5 1.4 1 2.3.2 2.6-1.3.4-1.6 1.3-1.2 2.5.3 1 .5 1.5.8 2.5.2.6 0 1-.6 1.3-.7.3-1.3.7-1.7.7-.3 0-.5-.2-.7-.6-.8-2.4-1.2-3.6-2-6-.2-.6 0-1 .6-1.3s1.2-.6 1.6-.6c.3 0 .5.2.7.6.2.6.2.8.2.8s-.4-1.9 1.3-2.7c.1-.1.2-.2.4-.2m-8.4 4.2c1.5 0 2.9.8 3.6 2.6 1.2 3.6-2.2 6.4-5.1 6.4-1.5 0-3-.8-3.6-2.6-1.2-3.6 2.2-6.4 5.1-6.4m-.9 6.3c1.1 0 2.3-1.1 1.8-2.6-.3-.8-.8-1.1-1.5-1.1-1.1 0-2.3 1.1-1.8 2.5.3.9.9 1.2 1.5 1.2m-9.5-4.2c.4 0 .5.5.9 1.7.9-.4 1.3-.6 1.6-.6.4 0 .4.4.8 1.6.2.6-.2.6-1.6 1.2.9 2.6 1 3.3 1.3 3.3h.2c.4-.2.3-.7.1-1-.3-.6.2-.6 1.3-1.1.1 0 .2-.1.2-.1.3 0 .5.3.7.7.8 2.1-.6 3.4-1.9 3.9-.5.2-1 .3-1.5.3-.9 0-1.8-.5-2.3-2-.4-1.2-.6-1.7-1-2.9-.4.2-.7.3-.8.3-.3 0-.4-.4-.8-1.6-.2-.6.4-.7 1.2-1-.2-1.4-.5-2 .2-2.3.7-.1 1.1-.4 1.4-.4m-4.7 4.3c.2 0 .5 0 .7.1 1 .2.6 1.1.3 1.8-.3 1-1.1.5-2.1.9-2 .8-1.3 3.6.4 3.6.2 0 .5 0 .7-.2.8-.3 1.1-1 1.7-1 .1 0 .3 0 .4.1.2.1.3.2.5.3.5.3.6.8.2 1.3-1.1 1.4-2.7 2.1-4.3 2.1s-3.2-.8-3.8-2.6c-.9-3.3 2.1-6.4 5.3-6.4m-7.9 3.1c.3 0 .6.2.7.6.8 2.4 1.2 3.6 2 6 .2.6 0 1-.6 1.2-.7.3-1.3.6-1.7.6-.3 0-.6-.2-.8-.7-.3 1.3-1.6 2.2-3.1 2.2-1.4 0-2.9-.8-3.6-2.9-1.1-3.3 1.3-5.7 3.3-5.7.5 0 1 .2 1.4.5-.2-.6-.1-1.1.5-1.3.9-.2 1.5-.5 1.9-.5m-2.5 7.2c.9 0 1.8-1 1.3-2.4-.3-.9-.9-1.3-1.5-1.3-.9 0-1.8 1-1.3 2.4.3.9.9 1.3 1.5 1.3m-7.6-6.1c.3 0 .6.2.7.6.7 2.1.8 1.7-3.7 3.4.2.5.3.8.5 1.3 1.1-.4 1.7-.7 2.9-1.1.2-.1.3-.1.4-.1.3 0 .6.2.7.6.6 1.8.5 1.5-3.2 2.9 1.5 4.4 1.7 3.8-.9 4.8-.2.1-.3.1-.4.1-.4 0-.6-.2-.8-.6-1.2-3.4-1.7-5.1-2.9-8.6-.2-.6 0-1 .6-1.2 2.2-.8 3.4-1.3 5.6-2.1zm-9 3c.3 0 .6.2.7.6 1.2 3.6 1.8 5.3 3 8.9.2.6 0 1-.6 1.2-.7.2-1.2.5-1.7.5-.3 0-.6-.2-.7-.6 0-.1 0-.1 0-.1-.1 0 0 1.3-1.8 1.9-.4.2-.8.2-1.3.2-1.6 0-3.1-1.1-3.7-3-1.1-3.3 1.3-5.6 3.3-5.6.6 0 1.1.2 1.5.5-.4-1.2-.6-1.8-1-3-.2-.6 0-1 .6-1.2.6 0 1.2-.3 1.7-.3m-1.6 10c.9 0 1.8-.9 1.3-2.3-.3-.9-.9-1.3-1.5-1.3-.9 0-1.8.9-1.3 2.3.3.9.9 1.3 1.5 1.3m-8.5-3.1c1.6 0 2.4 1.6 2.7 2.6 1.7 5 2 4.4-.6 5.3-.1.1-.3.1-.4.1-.4 0-.6-.2-.8-.7-1-3.1-1.3-4.4-2.1-4.4-.1 0-.2 0-.4.1-1.2.4-.5 1.6.7 5 .2.6 0 1-.6 1.2-.7.2-1.2.5-1.7.5-.3 0-.6-.2-.8-.6-.8-2.4-1.2-3.6-2-6-.2-.6 0-1 .6-1.2.7-.2 1.2-.5 1.7-.5.3 0 .6.2.8.6v.1c.1 0 0-1.3 1.8-1.9.4-.2.8-.2 1.1-.2m-8.1 2.9c.3 0 .6.2.8.6.8 2.4 1.2 3.6 2 6 .2.6 0 1-.6 1.2-.7.2-1.2.5-1.7.5-.4 0-.6-.2-.8-.7-.3 1.3-1.6 2-3 2-1.5 0-3.1-.9-3.9-3-1.1-3.2 1.3-5.4 3.3-5.4.6 0 1.1.2 1.6.6-.2-.6-.1-1.1.6-1.3.7-.3 1.2-.5 1.7-.5m-2.5 6.9c.9 0 1.8-.9 1.3-2.3-.3-.9-1-1.3-1.6-1.3-.9 0-1.8.9-1.3 2.3.3.9 1 1.3 1.6 1.3m-14-4.8c.7 0 .8.8 1.8 3.7.2-.8.8-1.5 1.8-1.8.4-.1.8-.2 1.2-.2 4.1 0 5.9 6.9 1.5 8.3-.3.1-.7.2-1 .2-.6 0-1.2-.2-1.6-.6.2.6.1 1-.6 1.2-.6.2-1.2.5-1.7.5-.4 0-.6-.2-.8-.7-1.2-3.6-1.8-5.3-3-8.9-.2-.6 0-1 .6-1.2 1-.2 1.5-.5 1.8-.5m4.3 8c.9 0 1.8-.9 1.3-2.3-.3-.9-1-1.3-1.6-1.3-.9 0-1.8.9-1.3 2.3.3.9 1 1.3 1.6 1.3m-10.5-4.9c.5 0 .5.4.9 1.8.9-.3 1.3-.5 1.6-.5.4 0 .4.4.9 1.6.2.6-.3.6-1.7 1 .9 2.6 1 3.3 1.4 3.3h.1c.4-.1.3-.6.1-1-.3-.6.2-.6 1.3-.9h.2c.4 0 .6.4.7.8.8 2.1-.6 3.2-2 3.6-.4.1-.8.2-1.2.2-1.1 0-2.1-.5-2.7-2.1-.4-1.2-.6-1.7-1-2.9-.4.1-.7.2-.8.2-.3 0-.4-.4-.8-1.7-.2-.6.4-.6 1.3-.9-.2-1.5-.4-2 .3-2.2s1.1-.3 1.4-.3m-13.4 2.6c.7 0 1.2.4 1.4 1 .4 1.1-.8 2-1.9 2-.7 0-1.3-.3-1.5-1-.3-.8.1-1.5 1.3-1.8.2-.2.5-.2.7-.2m7.5 1.2c.6 0 1.3.2 1.8.5.6.4.5 1-.1 1.3-.2.1-.3.2-.5.3s-.4.2-.6.2c-.3 0-.6-.2-.9-.2-.1 0-.2 0-.3 0-.3.1-.4.3-.4.5.2.6 4.1-.3 5 2.1.6 1.7-.8 3-2.6 3.5-.6.2-1.1.2-1.6.2-.9 0-1.7-.3-2.3-.9-.4-.5-.3-1 .3-1.3.2-.1.3-.2.6-.3.2-.1.3-.1.4-.1.4 0 .7.4 1.3.4.2 0 .3 0 .5-.1.4-.1.7-.3.6-.6-.2-.7-4.1.4-4.9-2-.5-1.9 1.7-3.5 3.7-3.5m-6.2 1.9c.4 0 .7.2.8.7.8 2.4 1.2 3.6 2 6 .2.6 0 1-.6 1.1-.6.2-1.2.4-1.6.4s-.7-.2-.8-.7c-.8-2.4-1.2-3.6-2-6-.2-.6 0-1 .6-1.1.6-.2 1.2-.4 1.6-.4m-11 .2c.5 0 .7.3.7.9 0 3.7.1 5.6.1 9.3 0 .5-.2.9-.8 1-.6.2-.9.3-1.2.3-.8 0-1.1-.9-3.6-4.5.2 5.8.6 5.3-1.5 5.9-.1 0-.2 0-.3 0-.4 0-.7-.2-.9-.5-2.3-3.1-3.4-4.7-5.7-7.9-.4-.6-.2-1 .4-1.2.8-.2 1.3-.4 1.8-.4.4 0 .6.1.9.5 1.1 1.6 1.6 2.4 2.7 4.1-.1-5.5-.5-5.1 1.3-5.6h.4c.4 0 .7.2.9.5 1 1.5 1.6 2.2 2.6 3.7-.1-1.9-.2-2.8-.3-4.7-.1-1 .8-1 2.1-1.4zm7.2.6c.5 0 .5.5 1.1 2.1.2.5 0 .8-.4.8-1.3.2-1.7 1-1.4 2.2.3 1 .5 1.5.8 2.5.2.6 0 1-.6 1.1-.6.2-1.2.4-1.6.4s-.7-.2-.9-.7c-.8-2.4-1.2-3.6-2-6-.2-.6 0-1 .6-1.1.6-.2 1.1-.4 1.5-.4s.7.2.8.7c.2.6.2.8.2.8s-.4-1.9 1.4-2.4c.3.1.4 0 .5 0m-22.8 6.2c1.8 0 3.6.9 4.4 3.1.2.5-.1.8-.7.9-2 .5-3 .7-5 1.2.2.5.8.8 1.6.8.7 0 1.5-.2 2.1-.8.3-.2.5-.3.7-.3.3 0 .6.2 1 .5 1.5 1.1-1.2 3-4.1 3-1.8 0-3.7-.8-4.5-3.1-1.1-3.2 1.7-5.3 4.5-5.3m-1.8 3.8c1.2-.3 1.9-.5 3.1-.8-.2-.6-.8-.8-1.4-.8-1 0-2 .6-1.7 1.6m-11.5-3.7c.8 0 .9.8 1.9 3.7.2-.8.8-1.4 1.8-1.6.3-.1.6-.1.8-.1 1.9 0 2.7 1.7 3.1 2.8 1.7 5 2 4.4-.7 5.1-.1 0-.2 0-.3 0-.4 0-.7-.2-.9-.7-.5-1.3-.7-2-1.1-3.4-.2-.5-.5-1.1-1.1-1.1-.1 0-.2 0-.3 0-.8.2-.7.9-.5 1.5.5 1.3.7 2 1.1 3.4.2.6 0 1-.6 1.1s-1.2.3-1.6.3-.7-.2-.9-.7c-1.2-3.6-1.8-5.3-3-8.9-.2-.6 0-1 .6-1.1.8-.2 1.3-.3 1.7-.3m-4.1 1.2c.4 0 .7.2.9.7.7 2 .7 1.8-2.3 2.4.9 2.7 1.4 4.1 2.3 6.8.4 1.1-.7 1.1-1.9 1.4-.1 0-.2 0-.3 0-.4 0-.8-.2-.9-.7-.9-2.7-1.4-4.1-2.3-6.8-1 .2-1.7.4-2.2.4s-.8-.2-.9-.7c-.3-1-.7-1.7.3-2 2.8-.6 4.2-.9 7.1-1.5 0 .1.1 0 .2 0m156.2-50.9c-.2 0-.4 0-.6.1s-.4.2-.6.3c-1.6.7-1.6.9-1.6 3.5v1.3l-.2-.2-1.5-2c-.2-.3-.6-.5-.9-.5-.2 0-.4 0-.6.2l-1.3.6c-.4.2-.7.5-.7.8-.1.3.1.6.3.9l4.6 4.7-.3 3.5c0 .4.1.7.2.9s.3.2.6.2c.2 0 .4 0 .5-.1.2-.1.3-.1.4-.2.9-.4 1.5-.7 1.5-1.6.3-4.5.5-6.7.8-11.2 0-.4-.1-.7-.2-.9 0-.2-.2-.3-.4-.3zm-8.7 3.9c-.2 0-.4.1-.5.2-.9.4-1.2 1.1-1.4 1.7-.2-.3-.4-.4-.7-.4-.4 0-.8.2-1.3.4-.1.1-.3.1-.4.2-.7.3-.9.9-.7 1.6l2 6c.2.5.5.8.9.8s.8-.2 1.3-.5c.1-.1.3-.1.5-.2.7-.3.9-.9.7-1.6l-.7-2.2-.1-.3c-.4-1.1 0-1.8 1.1-2.2.3-.1.4-.2.5-.4.2-.4 0-1-.3-1.8-.1-.2-.2-.4-.2-.7-.2-.4-.4-.6-.7-.6zm-8.4 4.1c-1.8 0-3.6 1-4.7 2.5-.9 1.3-1.1 2.8-.6 4.3.6 1.8 2 2.8 3.8 2.8s3.6-1 4.7-2.5c.9-1.3 1.2-2.8.6-4.3-.6-1.8-1.9-2.8-3.8-2.8zm-.9 6.4c-.3 0-.9-.1-1.2-1-.2-.5-.1-1.1.2-1.5s.8-.7 1.3-.7c.3 0 .9.1 1.2 1 .2.5.1 1.1-.2 1.5s-.8.7-1.3.7zm-9.5-4.2c-.3 0-.6.1-1 .3-.1.1-.3.1-.5.2-.8.3-.7.9-.5 1.9 0 .1 0 .3.1.5-.1 0-.1.1-.2.1-.6.2-1.2.5-1 1.2l.2.5c.3.9.4 1.3.9 1.3.2 0 .4-.1.7-.2l.9 2.6c.6 1.8 1.7 2.1 2.6 2.1.5 0 1-.1 1.6-.4 1.5-.6 2.8-2.1 2-4.2-.1-.4-.4-.9-.9-.9-.1 0-.2 0-.3.1-.2.1-.4.2-.5.2-.5.2-.8.3-.9.6-.1.2 0 .4.1.6s.2.4.1.6c0 .1 0 .1-.1.1s-.1 0-.1 0c-.1-.1-.3-.7-.6-1.6-.1-.4-.3-.8-.4-1.3.1-.1.3-.1.4-.2.9-.4 1.4-.6 1.2-1.3-.1-.2-.2-.5-.2-.6-.2-.7-.4-1.1-.8-1.1-.2 0-.5.1-1 .3-.1.1-.3.1-.4.2 0-.1-.1-.2-.1-.3-.7-.9-.8-1.3-1.3-1.3zm-4.7 4.3c-1.8 0-3.6 1-4.7 2.5-.9 1.3-1.2 2.8-.7 4.2.6 1.8 2.1 2.8 4 2.8 1.7 0 3.4-.8 4.5-2.2.3-.4.3-.7.3-.9-.1-.3-.3-.6-.6-.8l-.4-.2-.1-.1c-.2-.1-.4-.2-.6-.2-.4 0-.7.2-1 .5-.2.2-.5.4-.8.5-.2.1-.4.1-.7.1-.8 0-1.2-.6-1.3-1.2s.1-1.5 1-1.9c.3-.1.6-.1.9-.2.5 0 1 0 1.3-.9v-.1c.2-.5.4-1.1.1-1.5-.1-.2-.4-.4-.7-.4 0 0-.3 0-.5 0zm-7.9 3.1c-.4 0-.8.2-1.3.4-.2.1-.3.1-.5.2-.5.2-.8.6-.8 1-.3-.2-.7-.2-1.1-.2-1.1 0-2.3.7-3.1 1.7-.9 1.2-1.1 2.7-.5 4.3.6 1.9 2.1 3.1 3.9 3.1 1.4 0 2.7-.8 3.2-1.9.2.2.4.3.7.3.4 0 .8-.2 1.3-.4.2-.1.3-.1.5-.2.7-.3 1-.8.7-1.5l-.6-1.8-1.4-4.2c-.2-.6-.5-.8-1-.8zm-2.5 7.1c-.6 0-1-.4-1.2-1.1-.2-.6-.2-1.1.1-1.5.2-.3.6-.5 1-.5.6 0 1 .4 1.2 1.1.2.6.2 1.1-.1 1.6-.3.3-.7.4-1 .4zm-7.6-6.1c-.2 0-.3 0-.5.1-2.2.9-3.4 1.3-5.6 2.1-.7.3-1 .8-.7 1.5l2.7 8 .2.6c.2.5.5.8 1 .8.2 0 .3 0 .5-.1s.4-.2.6-.2c1.8-.7 1.8-.9.9-3.5-.1-.4-.3-.8-.4-1.2.4-.2.8-.3 1.1-.4 2.4-.9 2.6-1 2-2.7-.2-.7-.7-.8-1-.8-.2 0-.3 0-.5.1-1.1.4-1.6.6-2.6 1l-.2-.7-.1-.2c.5-.2 1-.4 1.4-.5 2.7-1 2.9-1.1 2.3-2.8l-.1-.3c-.2-.7-.7-.8-1-.8zm-9 3.1c-.4 0-.8.2-1.3.4-.2.1-.3.1-.5.2-.7.3-1 .8-.7 1.5l.1.2.7 2.2c-.3-.1-.7-.2-1.1-.2-1.1 0-2.3.6-3.1 1.7-.8 1.2-1 2.7-.5 4.2.6 1.9 2.2 3.1 4 3.1.5 0 .9-.1 1.4-.2.9-.3 1.5-.8 1.8-1.5.2.2.4.3.7.3.4 0 .8-.2 1.3-.4.2-.1.3-.1.5-.2.7-.3 1-.8.7-1.5l-3-8.9c-.2-.6-.6-.9-1-.9zm-1.6 10c-.6 0-1.1-.4-1.3-1.1-.2-.6-.2-1.1.1-1.5.2-.3.6-.5.9-.5.6 0 1.1.4 1.3 1.1.2.6.2 1.1-.1 1.5-.2.3-.5.5-.9.5zm-8.5-3.2c-.4 0-.8.1-1.2.2-.9.3-1.4.8-1.7 1.5-.2-.2-.4-.3-.7-.3-.4 0-.8.2-1.3.3-.2.1-.3.1-.5.2-.7.2-1 .8-.7 1.5l1.2 3.6.8 2.4c.2.5.5.8 1 .8.4 0 .8-.2 1.3-.3.2-.1.3-.1.5-.2.7-.2 1-.8.7-1.5-.2-.6-.4-1.1-.6-1.6-.5-1.4-.8-2.4-.6-2.8 0-.1.1-.2.4-.3.1 0 .2-.1.3-.1.5 0 .8.9 1.4 2.7.1.5.3 1 .5 1.5s.5.8 1 .8c.2 0 .3 0 .5-.1s.4-.1.6-.2c.8-.3 1.2-.4 1.4-.8.2-.5 0-1.2-.6-2.8-.2-.5-.4-1.1-.6-1.8-.9-2.2-2.2-2.7-3.1-2.7zm-8.1 2.9c-.4 0-.8.2-1.3.3-.2.1-.3.1-.5.2-.4.1-.8.4-.8 1-.4-.2-.8-.3-1.2-.3-1.2 0-2.3.6-3.1 1.7s-1 2.6-.5 4.1c.8 2.4 2.6 3.2 4.1 3.2 1.4 0 2.6-.7 3-1.7.2.2.4.4.8.4s.8-.2 1.2-.3c.2-.1.3-.1.5-.2.7-.2 1-.8.7-1.5l-.2-.5-1.9-5.5c0-.6-.3-.9-.8-.9zm-2.5 7c-.6 0-1.1-.4-1.3-1.2-.2-.6-.1-1.1.1-1.5.2-.3.6-.5.9-.5.6 0 1.1.4 1.3 1.2.2.6.1 1.1-.1 1.5-.2.3-.6.5-.9.5zm-14-4.8c-.3 0-.7.1-1.2.3-.2.1-.3.1-.5.2-.4.1-.6.3-.7.6s-.1.6 0 .9l3 8.9c.2.5.5.8 1 .8.4 0 .8-.1 1.3-.3.2-.1.3-.1.5-.2.4-.1.6-.3.7-.6.1-.1.1-.3.1-.4.4.2.8.3 1.3.3.4 0 .7-.1 1.1-.2 2-.6 3-2.5 2.7-4.6s-1.9-4.1-4.2-4.1c-.4 0-.9.1-1.3.2-.8.3-1.4.7-1.8 1.3-.1-.3-.2-.5-.2-.7-.8-1.8-1-2.4-1.8-2.4zm4.3 7.9c-.6 0-1.1-.4-1.4-1.2-.2-.6-.1-1.1.1-1.4s.6-.5.9-.5c.6 0 1.1.4 1.4 1.2.2.6.1 1.1-.1 1.5-.2.2-.5.4-.9.4zm-10.5-4.9c-.2 0-.5.1-1 .2-.1 0-.3.1-.5.2-.8.2-.7.8-.5 1.8 0 .1 0 .3.1.4-.1 0-.1 0-.2.1-.5.1-.8.2-1 .5-.1.2-.1.3 0 .6l.2.5c.3.9.4 1.3.9 1.3.2 0 .4-.1.6-.1l.1.2.8 2.5c.6 1.9 1.9 2.3 2.9 2.3.4 0 .9-.1 1.3-.2.6-.2 1.6-.6 2.1-1.6.3-.7.3-1.4 0-2.3-.1-.2-.4-.9-1-.9-.1 0-.2 0-.3 0-.2.1-.4.1-.5.2-.5.1-.8.2-1 .5-.1.2 0 .4 0 .6.1.2.2.4.1.5 0 0 0 .1-.1.1h-.1c-.1-.1-.3-.7-.6-1.7-.1-.3-.2-.7-.4-1.2.1 0 .3-.1.4-.1.7-.2 1.1-.3 1.3-.6.1-.1.1-.3 0-.5s-.1-.4-.2-.6c-.3-.8-.4-1.2-.9-1.2-.2 0-.5.1-.9.2-.2.1-.3.1-.5.2 0-.1-.1-.2-.1-.3-.3-1.1-.5-1.6-1-1.6zm-13.4 2.6c-.3 0-.5 0-.8.1-.7.2-1.1.5-1.4 1-.2.4-.2.8-.1 1.2.2.7.9 1.1 1.8 1.1h.4c-.1 0-.2.1-.3.1-.4.1-.6.3-.7.5-.1.3-.1.6 0 .9l2 6c.2.6.6.8 1.1.8.4 0 .8-.1 1.2-.3.2 0 .3-.1.5-.1.4-.1.6-.3.7-.5.1-.3.1-.6 0-.9l-2-5.8-.1-.2c-.2-.6-.5-.8-1.1-.8-.2 0-.4 0-.7.1.3-.2.6-.4.8-.7.3-.4.4-.9.2-1.4-.1-.6-.7-1.1-1.5-1.1zm7.5 1.2c-1.3 0-2.7.7-3.4 1.6-.5.7-.6 1.5-.4 2.4.6 1.7 2.5 1.8 3.8 1.8.4 0 1 0 1.1.1 0 .1-.2.2-.4.3-.2 0-.3.1-.5.1-.3 0-.5-.1-.7-.2s-.4-.2-.6-.2-.4.1-.6.2l-.6.3c-.4.2-.6.5-.6.8 0 .2 0 .5.3.8.6.7 1.4 1 2.4 1 .5 0 1-.1 1.6-.3 1.3-.4 2.2-1 2.6-1.9.3-.6.3-1.3.1-2-.6-1.7-2.6-1.8-3.9-1.9-.4 0-1-.1-1.1-.2 0-.1.1-.1.2-.1h.2c.1 0 .3 0 .4.1.1 0 .3.1.5.1s.5-.1.7-.2l.5-.3c.4-.2.6-.5.6-.9 0-.3-.2-.6-.5-.8-.3-.4-.9-.6-1.7-.6zm-17.2 2.2c-.1 0-.3 0-.4.1-.2.1-.4.1-.6.1-1 .2-1.8.4-1.7 1.5l.2 3.8-2.1-3c-.3-.4-.7-.6-1.1-.6-.1 0-.3 0-.4.1l-.3.1c-1.4.4-1.4.5-1.3 3.4v1.5l-2.2-3.3c-.3-.4-.6-.6-1.1-.6-.4 0-.7.1-1.2.2-.2 0-.4.1-.6.2-.5.1-.7.4-.8.6s-.1.5.2 1l5.7 7.9c.3.4.7.6 1.1.6.1 0 .3 0 .4-.1.1 0 .3-.1.4-.1 1.5-.4 1.5-.5 1.4-3.5 0-.5 0-1-.1-1.6.4.6.7 1 1 1.4 1.3 1.9 1.7 2.4 2.4 2.4.3 0 .5-.1.9-.2.1 0 .2-.1.4-.1.6-.2 1-.6 1-1.3l-.1-9.3c-.1-.8-.5-1.2-1.1-1.2zm7.2.6c-.1 0-.3 0-.4.1-.8.2-1.3.8-1.5 1.4-.2-.3-.5-.5-.9-.5-.3 0-.7.1-1.2.2-.1 0-.3.1-.4.1-.4.1-.6.3-.7.5-.1.3-.1.6 0 .9l2 6c.2.6.5.8 1.1.8.4 0 .8-.1 1.2-.3.2 0 .3-.1.5-.1.4-.1.6-.3.7-.5.1-.3.1-.6 0-.9l-.1-.4-.7-2.1c-.2-.5-.2-.9 0-1.2s.6-.5 1.2-.6c.3 0 .5-.2.6-.4.1-.1.2-.4 0-.8-.1-.3-.2-.6-.3-.8-.4-1-.5-1.4-1.1-1.4zm-22.8 6.1c-1.7 0-3.3.8-4.2 2-.5.7-1 2-.5 3.7.9 2.8 3.3 3.2 4.7 3.2 2.1 0 4.4-1 4.7-2.2.2-.5 0-.9-.5-1.3l-.1-.1c-.3-.2-.6-.5-1-.5-.3 0-.6.1-.9.4-.7.6-1.5.7-1.9.7-.5 0-1-.1-1.2-.4 1.8-.4 2.8-.7 4.7-1.1.4-.1.7-.3.8-.5.1-.1.1-.4 0-.7-.7-2-2.4-3.2-4.6-3.2zm-1.6 3.8c0-.2.1-.3.2-.4.3-.3.8-.6 1.4-.6.2 0 .7 0 1 .4-1.1.2-1.7.3-2.6.6zm-11.7-3.7c-.3 0-.7.1-1.2.2-.2 0-.4.1-.6.1-.4.1-.6.3-.8.5-.1.2-.2.6 0 .9l3 8.9c.2.6.6.9 1.2.9.3 0 .7-.1 1.2-.2.2 0 .3-.1.5-.1.4-.1.6-.3.8-.5.1-.3.2-.6 0-.9l-.1-.2-1.1-3.2c-.2-.5-.2-.8-.1-1 .1-.1.2-.2.4-.2h.2c.2 0 .6.1.9 1l.6 1.8.5 1.5c.2.6.6.9 1.1.9h.4c.2 0 .4-.1.6-.1.8-.2 1.3-.3 1.5-.7.3-.5 0-1.1-.6-2.8-.2-.5-.4-1.1-.6-1.8-.8-2.5-2.3-3-3.3-3-.3 0-.6 0-.9.1-.8.2-1.4.6-1.8 1.2-.1-.3-.2-.5-.2-.8-.6-1.9-.8-2.5-1.6-2.5zm-4.1 1.3c-.1 0-.2 0-.4 0-2.8.6-4.2.9-7 1.5-.4.1-.6.2-.8.5-.2.4 0 .9.2 1.5l.1.3c.2.6.6.9 1.2.9.4 0 .9-.1 1.5-.3.2 0 .4-.1.6-.1l2.2 6.6c.2.6.6.9 1.2.9h.3c.2 0 .3-.1.5-.1.7-.1 1.3-.2 1.6-.7.1-.2.2-.5 0-.9l-2.2-6.5c.2 0 .4-.1.5-.1 1.2-.3 1.8-.4 2-.8s.1-.8-.2-1.7v-.1c-.4-.6-.8-.9-1.3-.9z" fill="#1fa5ff"></path>
</svg>