<svg id="b80f2d5c-efca-4841-abec-316549e51cd0" data-name="Layer 1" xmlns="http://www.w3.org/2000/svg" viewBox="0 0 423.71 141.84"><defs><style>.a9f08613-e259-41cf-ba1a-0a8d1fc5593a{fill:#fff;}.a2465a71-3406-44be-98aa-ff3b8d005d5b{fill:#ff2546;}</style></defs><path id="b44f2d66-7404-4bba-89db-971193567702" data-name="Layer 1" d="M421,104.89a20.09,20.09,0,0,0,1.16-6.78,18.33,18.33,0,0,0-9.07-16.21,34.5,34.5,0,0,0-9.1-3.76,39.47,39.47,0,0,0-9.8-1.24,36.77,36.77,0,0,0-8.43,1,19.2,19.2,0,0,0-5-9.49,18.58,18.58,0,0,0,2.76-9.81,20.2,20.2,0,0,0-.84-5.88,18.91,18.91,0,0,0,1-6.15,33.9,33.9,0,0,0-3.62-15.72A28.56,28.56,0,0,0,368.89,19a30.83,30.83,0,0,0-15.7-4,33.26,33.26,0,0,0-9.86,1.46,18.9,18.9,0,0,0-6.62-11.59,21.64,21.64,0,0,0-26.95,0,18.86,18.86,0,0,0-6.56,11.26A38.55,38.55,0,0,0,293.57,15a50.54,50.54,0,0,0-10.33,1.08,39.06,39.06,0,0,0-9.42,3.13,35.24,35.24,0,0,0-7.67-3,39,39,0,0,0-9.8-1.23,34.42,34.42,0,0,0-13.48,2.6,29.56,29.56,0,0,0-5.41,3c-.75-.54-1.54-1.05-2.34-1.52a30.9,30.9,0,0,0-15.71-4,33.2,33.2,0,0,0-9.85,1.46,18.9,18.9,0,0,0-6.62-11.59,21.66,21.66,0,0,0-26.95,0,18.94,18.94,0,0,0-6.67,11.84A38.41,38.41,0,0,0,157.71,15a36.36,36.36,0,0,0-16.64,3.75,32.24,32.24,0,0,0-3.57,2.12A24.72,24.72,0,0,0,122.58,15a18.82,18.82,0,0,0-6-9.92,20.54,20.54,0,0,0-13.75-5,21.74,21.74,0,0,0-9.26,2A20.42,20.42,0,0,0,73.16,3.43a19.63,19.63,0,0,0-4.62,4.29,19.64,19.64,0,0,0-4.47-4.21,20.37,20.37,0,0,0-22.74-.08,19.8,19.8,0,0,0-4.71,4.42,19.71,19.71,0,0,0-5.24-4.73A21.08,21.08,0,0,0,20.34,0,20.76,20.76,0,0,0,7.09,4.68,19,19,0,0,0,0,19.76a22.33,22.33,0,0,0,1.29,7.37c0,.06,9.59,25.82,13.22,35.62a20.78,20.78,0,0,0-7.43,3.86A19,19,0,0,0,0,81.69a22.33,22.33,0,0,0,1.29,7.37L15.9,128.4a19.72,19.72,0,0,0,8.57,10.35,22.23,22.23,0,0,0,22.61,0,20.1,20.1,0,0,0,5.05-4.23,19.83,19.83,0,0,0,5,4.23,22.43,22.43,0,0,0,22.62.06,20,20,0,0,0,3.86-2.93A16.71,16.71,0,0,0,85,137.06a21.78,21.78,0,0,0,26.68,0,18.85,18.85,0,0,0,1.74-1.6,20.11,20.11,0,0,0,1.74,1.59,21.06,21.06,0,0,0,13.35,4.57,21.46,21.46,0,0,0,10.73-2.8,32.71,32.71,0,0,0,5.95,1.9,52.48,52.48,0,0,0,11.11,1c7.86,0,14.55-1.94,19.87-5.77l.36-.27a29.62,29.62,0,0,0,16,5.64l2.18.16c.65,0,1.28.06,1.88.06a23.82,23.82,0,0,0,8.24-1.39,21.33,21.33,0,0,0,7.86,1.43,21.87,21.87,0,0,0,7.8-1.4,28.68,28.68,0,0,0,9.4,1.54,28.21,28.21,0,0,0,15.79-4.64c.24-.15.47-.33.7-.5a26.1,26.1,0,0,0,3.61,2.19,28.48,28.48,0,0,0,12.88,3,25.87,25.87,0,0,0,8.14-1.26,21.77,21.77,0,0,0,16.66-1.2,21.29,21.29,0,0,0,9.9,2.32,20.87,20.87,0,0,0,11.78-3.41,21.94,21.94,0,0,0,24.41-.62,28.25,28.25,0,0,0,15,4.17,28.89,28.89,0,0,0,9.4-1.53,21.76,21.76,0,0,0,7.74,1.39,21,21,0,0,0,10.71-2.8,34,34,0,0,0,6,1.9,52.48,52.48,0,0,0,11.11,1c7.87,0,14.55-1.94,19.88-5.77a23.77,23.77,0,0,0,10.18-19.75A24.47,24.47,0,0,0,421,104.89ZM167.92,78.52l.27-.07-.06.13Z" transform="translate(0 0)"/><path id="bf807e09-a9fd-4938-b58f-4652c57960ce" data-name="Layer 2" class="a9f08613-e259-41cf-ba1a-0a8d1fc5593a" d="M413,105.35a12.42,12.42,0,0,0,2.23-7.25,11.5,11.5,0,0,0-5.66-10.19,27.26,27.26,0,0,0-7.26-3,32.18,32.18,0,0,0-8-1A27.6,27.6,0,0,0,383.46,86a23,23,0,0,0-4.26,2.35V81.83A12.37,12.37,0,0,0,375,72.44a13.35,13.35,0,0,0-5.69-2.93l.63-.29.18-.1a11.75,11.75,0,0,0,6.49-10.55,12.63,12.63,0,0,0-1.45-6.06,11.2,11.2,0,0,0,1.6-6A27,27,0,0,0,373.91,34a21.73,21.73,0,0,0-8.52-9A24.12,24.12,0,0,0,353.18,22a25,25,0,0,0-12.67,3.27A23.4,23.4,0,0,0,336.64,28V20.12a12.23,12.23,0,0,0-4.38-9.87,14.67,14.67,0,0,0-18.05,0,12.23,12.23,0,0,0-4.38,9.87v7.1C305.9,23.75,300.46,22,293.57,22a44.48,44.48,0,0,0-8.91.93,32.09,32.09,0,0,0-8.12,2.72l-.16.09a14.73,14.73,0,0,0-2.64,1.85A11.93,11.93,0,0,0,271.66,26a27.26,27.26,0,0,0-7.26-3,31.72,31.72,0,0,0-8-1A27.77,27.77,0,0,0,245.58,24,20.77,20.77,0,0,0,237.44,30a21.39,21.39,0,0,0-5.82-4.89A24.12,24.12,0,0,0,219.41,22a25.1,25.1,0,0,0-12.67,3.27A23,23,0,0,0,202.87,28V20.12a12.21,12.21,0,0,0-4.39-9.87,14.65,14.65,0,0,0-18,0,12.27,12.27,0,0,0-4.39,9.87v8.13A23.9,23.9,0,0,0,171.18,25a31.81,31.81,0,0,0-26.94,0,23.35,23.35,0,0,0-7.48,6,18.47,18.47,0,0,0-1.66-2.54c-2.34-2.92-6.79-6.4-14.69-6.4a24.79,24.79,0,0,0-4.3.36V19.69a12.16,12.16,0,0,0-4.12-9.3,13.58,13.58,0,0,0-9.14-3.25,13.77,13.77,0,0,0-9.36,3.35l-.31-.3a13.26,13.26,0,0,0-18.7,1.35A13.11,13.11,0,0,0,72,15.83l-3.54,10L65.11,16a13.18,13.18,0,0,0-24.92-.2l-3.68,10-3.44-9.88a12.79,12.79,0,0,0-5.36-6.81,14.12,14.12,0,0,0-16.21,1A12.18,12.18,0,0,0,7,19.76a15.26,15.26,0,0,0,.9,5L22.45,64a12.86,12.86,0,0,0,5.6,6.8,15.26,15.26,0,0,0,15.45,0,13.3,13.3,0,0,0,5.6-6.58l3.13-8.53L55.14,64a12.87,12.87,0,0,0,5.6,6.79,14.93,14.93,0,0,0,7.76,2.1,15.18,15.18,0,0,0,7.75-2.07,12.79,12.79,0,0,0,5.66-6.75l7.39-20V59.79a12.41,12.41,0,0,0,4,9.48,14.64,14.64,0,0,0,18.82,0,12.3,12.3,0,0,0,2.37-3,11.79,11.79,0,0,0,2.36,3,11.55,11.55,0,0,0,1.51,1.18,12.52,12.52,0,0,0-3.93,9.37,14,14,0,0,0,.65,4.2h0c-.39,0-.8,0-1.21,0l-.9.07a17.54,17.54,0,0,0-7.25,2,13.46,13.46,0,0,0-7.5-2.11c-.35,0-.7,0-1,0a12.8,12.8,0,0,0,.26-2.54,12.18,12.18,0,0,0-4.21-9.42A13.24,13.24,0,0,0,72,77.77l-3.54,10L65.11,77.9a13.18,13.18,0,0,0-24.92-.21l-3.68,10-3.44-9.88A12.78,12.78,0,0,0,27.72,71,14.11,14.11,0,0,0,11.5,72,12.18,12.18,0,0,0,7,81.69a15.26,15.26,0,0,0,.9,5l14.55,39.2a12.9,12.9,0,0,0,5.6,6.8,15.26,15.26,0,0,0,15.45,0,13.28,13.28,0,0,0,5.6-6.59l3.13-8.53,2.91,8.32a12.86,12.86,0,0,0,5.6,6.8,15,15,0,0,0,7.76,2.1,15.18,15.18,0,0,0,7.75-2.07A12.79,12.79,0,0,0,81.91,126l3-8.1v3.8a12.14,12.14,0,0,0,4.45,9.88,14.81,14.81,0,0,0,17.92,0,12.13,12.13,0,0,0,4.45-9.89V109.41a1.77,1.77,0,0,1,0-.24l.46-.08,2.11-.21c.27,0,.51-.06.77-.1v12.94a12.09,12.09,0,0,0,4.45,9.88,14.79,14.79,0,0,0,17.91,0,12.56,12.56,0,0,0,1.08-1l.31.19a25.32,25.32,0,0,0,7.83,3.07,45.7,45.7,0,0,0,9.62.88c6.37,0,11.68-1.5,15.79-4.45a18.1,18.1,0,0,0,4.49-4.58,17.83,17.83,0,0,0,2.11,2.64c3.45,3.52,8.26,5.54,14.33,6l2.1.15c.51,0,1,.05,1.46.05a15.29,15.29,0,0,0,8.24-2.12l.11-.08a13.64,13.64,0,0,0,7.75,2.24,14.19,14.19,0,0,0,7.58-2.07l.08.05a21.68,21.68,0,0,0,26.17-5.49,18.53,18.53,0,0,0,6.6,5.44,21.65,21.65,0,0,0,9.75,2.21,18.12,18.12,0,0,0,8.25-1.86,13.52,13.52,0,0,0,6.73,1.72,13.09,13.09,0,0,0,9.33-3.49c.15-.14.3-.31.45-.47.18.19.36.37.53.53a14.66,14.66,0,0,0,18.82,0,11.89,11.89,0,0,0,2.36-3,12.31,12.31,0,0,0,2.36,3,14.66,14.66,0,0,0,18.83,0,12.31,12.31,0,0,0,2.45-3.15,21.57,21.57,0,0,0,3.84,3.23,22.15,22.15,0,0,0,21.49,1.33l.08-.05a14,14,0,0,0,7.51,2.07,13.46,13.46,0,0,0,9.33-3.42c.21-.19.42-.4.63-.62l.38.23a25.42,25.42,0,0,0,7.83,3.07,45.7,45.7,0,0,0,9.62.88c6.37,0,11.68-1.5,15.79-4.45a16.74,16.74,0,0,0,7.27-14.07,16.2,16.2,0,0,0-3.74-10.9ZM196.19,77.62a14.5,14.5,0,0,0-18.93,0,12.3,12.3,0,0,0-3.85,7.8,11.78,11.78,0,0,0-3.13,1.47,28.69,28.69,0,0,0-5.38-2,32.18,32.18,0,0,0-8.05-1A27.64,27.64,0,0,0,146.07,86a21.82,21.82,0,0,0-6.16,3.86,10.41,10.41,0,0,0-.79-1.09,13.19,13.19,0,0,0-.93-18.65l-.06-.06a14,14,0,0,0-1.89-1.33,11.87,11.87,0,0,0,2.15-3.1,24,24,0,0,0,5.87,4.21,31.36,31.36,0,0,0,27,0,23.77,23.77,0,0,0,6-4.37,11.46,11.46,0,0,0,3.3,4.25,14.81,14.81,0,0,0,17.92,0,11.62,11.62,0,0,0,3.24-4.12,23.5,23.5,0,0,0,5.94,4.29l.21.09a13.15,13.15,0,0,0-4.31,2.55,12.26,12.26,0,0,0-4.12,9.34v.7a12.22,12.22,0,0,0-3.19-4.91Zm156.19,4V84.2a22.41,22.41,0,0,0-3.66-.3,22,22,0,0,0-11.88,3.31,21.18,21.18,0,0,0-5.61,5.11,17,17,0,0,0-1.43-2.07c-2.37-2.89-6.87-6.34-14.84-6.34a21.72,21.72,0,0,0-9.63,2.15l-.22.11a13.4,13.4,0,0,0-7.51-2.12,13.73,13.73,0,0,0-9.36,3.42,12.33,12.33,0,0,0-2.57,3.22c-.24-.27-.46-.55-.72-.81-4-4-9.71-6-17.08-6a43.07,43.07,0,0,0-8.91.94,31.42,31.42,0,0,0-8.12,2.71l-.16.09a12.6,12.6,0,0,0-4.23,3.65,21.14,21.14,0,0,0-4.72-4.08,21.85,21.85,0,0,0-11.88-3.31,21.31,21.31,0,0,0-3.65.29V81.62a12.14,12.14,0,0,0-3.64-8.83,37.25,37.25,0,0,0,13.59-3.57l.19-.1a11.67,11.67,0,0,0,1.18-.73,8.24,8.24,0,0,0,.8.5A25.17,25.17,0,0,0,246.15,72a45,45,0,0,0,9.62.88c6.37,0,11.68-1.5,15.79-4.45a19.16,19.16,0,0,0,2-1.62,19,19,0,0,0,5.26,3.86,21.52,21.52,0,0,0,9.75,2.21A18,18,0,0,0,296.78,71a13.54,13.54,0,0,0,6.73,1.72,13.09,13.09,0,0,0,9.33-3.49c.14-.13.29-.29.43-.44a10.81,10.81,0,0,0,1,.9,14.78,14.78,0,0,0,17.91,0,11.76,11.76,0,0,0,3.25-4.12,23.45,23.45,0,0,0,5.93,4.29,29.37,29.37,0,0,0,13.47,3c.37,0,.75,0,1.13,0a12.05,12.05,0,0,0-3.59,8.82Z" transform="translate(0 0)"/><path class="a2465a71-3406-44be-98aa-ff3b8d005d5b" d="M84.49,75.93A6.32,6.32,0,0,0,80.92,77a6,6,0,0,0-2.34,3.1l-10.29,29L58.5,80.18a6,6,0,0,0-5.84-4.25A6.27,6.27,0,0,0,49.1,77a6,6,0,0,0-2.34,3.1L36.32,108.47,26.46,80.11A5.78,5.78,0,0,0,24,77a6.9,6.9,0,0,0-3.7-1,6.79,6.79,0,0,0-4.43,1.55A5.11,5.11,0,0,0,14,81.69a8.3,8.3,0,0,0,.5,2.74l14.55,39.16a5.86,5.86,0,0,0,2.59,3.14,8.06,8.06,0,0,0,4.18,1.11,7.89,7.89,0,0,0,4.1-1.11,6.16,6.16,0,0,0,2.66-3.14l9.8-26.71,9.36,26.71a5.86,5.86,0,0,0,2.59,3.14,8,8,0,0,0,4.17,1.11,8.22,8.22,0,0,0,4.22-1.11,5.83,5.83,0,0,0,2.62-3.14L89.82,84.43a9.51,9.51,0,0,0,.57-2.88,5.15,5.15,0,0,0-1.76-4.11A6.17,6.17,0,0,0,84.49,75.93Zm29.88,15.12-1,.07A10.88,10.88,0,0,0,107.85,93a9.64,9.64,0,0,0-3.78,4.9V96.52a5.09,5.09,0,0,0-1.62-4,6.17,6.17,0,0,0-4.28-1.44,6.73,6.73,0,0,0-4.43,1.51,5.23,5.23,0,0,0-1.84,4.25v24.91a5.36,5.36,0,0,0,1.84,4.43,7.81,7.81,0,0,0,9.14,0,5.36,5.36,0,0,0,1.84-4.43V109.41a7.54,7.54,0,0,1,1.55-5c1-1.22,2.75-2,5.15-2.26l2.16-.22c2.3-.24,3.9-.79,4.78-1.66a5.66,5.66,0,0,0,1.34-4.17,5.12,5.12,0,0,0-1.44-3.93,4.83,4.83,0,0,0-3.89-1.11Zm19.22-15.7a8.8,8.8,0,0,0-10.26,0,5.64,5.64,0,0,0-1.91,4.47,5.71,5.71,0,0,0,1.91,4.5,8.7,8.7,0,0,0,10.3,0,5.78,5.78,0,0,0,1.91-4.5A5.58,5.58,0,0,0,133.59,75.35Zm-.54,17.18a7.81,7.81,0,0,0-9.14,0A5.33,5.33,0,0,0,122.07,97v24.77a5.35,5.35,0,0,0,1.84,4.43,7.81,7.81,0,0,0,9.14,0,5.35,5.35,0,0,0,1.84-4.43V97A5.33,5.33,0,0,0,133.05,92.53Zm36.4,16.55q-2.88-2.47-9.87-3.7a29.15,29.15,0,0,1-5.58-1.44,2,2,0,0,1-1.4-1.8,1.68,1.68,0,0,1,1-1.55,6,6,0,0,1,2.81-.54,11.06,11.06,0,0,1,3.13.39,26.51,26.51,0,0,1,3.06,1.19,10.71,10.71,0,0,0,4.46,1.23,3.26,3.26,0,0,0,2.66-1.37,5.3,5.3,0,0,0,1.08-3.38,4.46,4.46,0,0,0-2.23-4.18,19.81,19.81,0,0,0-5.43-2.23,25.31,25.31,0,0,0-6.3-.8,20.64,20.64,0,0,0-8.07,1.52,13.59,13.59,0,0,0-5.65,4.17,9.59,9.59,0,0,0-2,6,8.83,8.83,0,0,0,2.84,7q2.85,2.47,9.26,3.71c2.39.48,4.1.85,5.11,1.11a6.11,6.11,0,0,1,2.05.83,1.5,1.5,0,0,1,.54,1.22,1.68,1.68,0,0,1-1.12,1.55,7,7,0,0,1-3.06.54,19.46,19.46,0,0,1-4.5-.43c-1.17-.29-2.53-.7-4.07-1.22a16.57,16.57,0,0,0-2.3-.83,7.66,7.66,0,0,0-2-.25,3.24,3.24,0,0,0-2.62,1.26,4.88,4.88,0,0,0-1.05,3.2,6.49,6.49,0,0,0,.58,2.74,3.44,3.44,0,0,0,1.58,1.72,17.92,17.92,0,0,0,5.83,2.31,39.7,39.7,0,0,0,8.14.72q7.35,0,11.7-3.13a9.85,9.85,0,0,0,4.36-8.39q0-4.68-2.88-7.17Zm28.72,9.4-2.08-.14a3,3,0,0,1-2.13-1,3.41,3.41,0,0,1-.83-2.3V101.2h4q5.76,0,5.76-4.75t-5.76-4.68h-4V87.09a5.71,5.71,0,0,0-1.72-4.36,7.57,7.57,0,0,0-9.36,0,5.68,5.68,0,0,0-1.73,4.36v4.68h-2.09q-5.76,0-5.76,4.68t5.76,4.75h2.09V114q0,6.12,3.35,9.54t9.82,3.92l2,.14a9.38,9.38,0,0,0,5.55-1A4.11,4.11,0,0,0,203,122.8q0-4-4.83-4.32ZM238,93.14a14.9,14.9,0,0,0-8.14-2.24,14.22,14.22,0,0,0-6.22,1.37,11,11,0,0,0-4.43,3.67V81.62a5.1,5.1,0,0,0-1.73-4,6.67,6.67,0,0,0-4.54-1.51,6.86,6.86,0,0,0-4.75,1.62,5.36,5.36,0,0,0-1.8,4.14v39.89a5.67,5.67,0,0,0,1.69,4.28,6.32,6.32,0,0,0,4.58,1.62,6.66,6.66,0,0,0,4.42-1.4,5.34,5.34,0,0,0,1.91-3.85,10.41,10.41,0,0,0,4.43,4,15.17,15.17,0,0,0,14.54-.9,15.46,15.46,0,0,0,5.55-6.59,22.87,22.87,0,0,0,2-9.72,22.09,22.09,0,0,0-2-9.61A14.93,14.93,0,0,0,238,93.14Zm-7,22.71a6.78,6.78,0,0,1-9.58.68,6.55,6.55,0,0,1-.65-.64c-1.2-1.54-1.8-3.74-1.8-6.62s.6-5,1.8-6.52a6.24,6.24,0,0,1,5.19-2.27,6.1,6.1,0,0,1,5.07,2.23,10.22,10.22,0,0,1,1.77,6.41q0,4.39-1.8,6.73ZM267.87,90.9a36.93,36.93,0,0,0-7.49.8,25.27,25.27,0,0,0-6.33,2.08,5.6,5.6,0,0,0-2.09,1.8,4.75,4.75,0,0,0-.65,2.6,5.09,5.09,0,0,0,1.08,3.38,3.56,3.56,0,0,0,2.88,1.3,9,9,0,0,0,2.81-.58,28.26,28.26,0,0,1,8.64-2,5.49,5.49,0,0,1,3.89,1.11,4.92,4.92,0,0,1,1.15,3.64v.86h-1.95a53.7,53.7,0,0,0-11.66,1,11.6,11.6,0,0,0-6.3,3.28,8.88,8.88,0,0,0-2,6.08,10.77,10.77,0,0,0,1.69,5.94,11.44,11.44,0,0,0,4.65,4.1,14.6,14.6,0,0,0,6.62,1.48,10.73,10.73,0,0,0,5.69-1.44,8,8,0,0,0,3.38-4,5.41,5.41,0,0,0,1.77,3.89,6,6,0,0,0,4.14,1.44,6.29,6.29,0,0,0,4.5-1.55,5.66,5.66,0,0,0,1.62-4.29V106.74q0-8-3.93-11.91T267.87,90.9Zm3.89,21.75a6.78,6.78,0,0,1-1.66,4.71,5.43,5.43,0,0,1-4.25,1.84,3.57,3.57,0,0,1-2.7-1.08,3.79,3.79,0,0,1-1-2.74,2.86,2.86,0,0,1,1.94-2.77,18.45,18.45,0,0,1,6.56-.83h1.15ZM315,90.9a14.88,14.88,0,0,0-6.56,1.44,12.4,12.4,0,0,0-4.82,4.18,5.14,5.14,0,0,0-1.62-4,6.14,6.14,0,0,0-4.35-1.51,6.67,6.67,0,0,0-4.68,1.62,5.28,5.28,0,0,0-1.8,4.14v24.91a5.54,5.54,0,0,0,1.72,4.32,7.71,7.71,0,0,0,9.36,0,5.58,5.58,0,0,0,1.73-4.32V107.47a7,7,0,0,1,1.69-4.94,5.89,5.89,0,0,1,4.57-1.83,3.94,3.94,0,0,1,3.35,1.44,7.53,7.53,0,0,1,1.12,4.6v15A5.58,5.58,0,0,0,316.4,126a7.71,7.71,0,0,0,9.36,0,5.54,5.54,0,0,0,1.72-4.32V106.17q0-7.71-3.09-11.48T315,90.9Zm55.4-13.21a6.88,6.88,0,0,0-4.72-1.62,6.62,6.62,0,0,0-4.57,1.51,5.19,5.19,0,0,0-1.69,4V95.94A11,11,0,0,0,355,92.27a14.22,14.22,0,0,0-6.22-1.37,15.12,15.12,0,0,0-8.18,2.24A14.82,14.82,0,0,0,335,99.51a22,22,0,0,0-2,9.61,22.46,22.46,0,0,0,2,9.72,15.8,15.8,0,0,0,5.58,6.59,15.19,15.19,0,0,0,14.55.9,10.41,10.41,0,0,0,4.43-4,5.37,5.37,0,0,0,1.9,3.85,7.49,7.49,0,0,0,9-.18,5.58,5.58,0,0,0,1.73-4.32V81.83a5.31,5.31,0,0,0-1.84-4.14Zm-12.56,38.2a6.2,6.2,0,0,1-5.19,2.3,6,6,0,0,1-5.07-2.37,10.72,10.72,0,0,1-1.84-6.7,10,10,0,0,1,1.8-6.41,7,7,0,0,1,9.91-.35l.39.39q1.8,2.27,1.8,6.52C359.6,112.15,359,114.35,357.8,115.89Zm49-6.81q-2.88-2.47-9.87-3.7a28.86,28.86,0,0,1-5.57-1.44,2,2,0,0,1-1.41-1.8,1.7,1.7,0,0,1,1-1.55,6,6,0,0,1,2.81-.54,11.06,11.06,0,0,1,3.13.39,25.17,25.17,0,0,1,3.06,1.19,10.71,10.71,0,0,0,4.46,1.23,3.29,3.29,0,0,0,2.67-1.37,5.3,5.3,0,0,0,1.08-3.38A4.47,4.47,0,0,0,406,93.93a19.81,19.81,0,0,0-5.43-2.23,25.31,25.31,0,0,0-6.3-.8,20.59,20.59,0,0,0-8.06,1.52,13.62,13.62,0,0,0-5.66,4.17,9.59,9.59,0,0,0-2.05,6,8.83,8.83,0,0,0,2.84,7q2.85,2.47,9.26,3.71,3.6.72,5.11,1.11a6.11,6.11,0,0,1,2.05.83,1.45,1.45,0,0,1,.54,1.22,1.67,1.67,0,0,1-1.11,1.55,7,7,0,0,1-3.06.54,19.35,19.35,0,0,1-4.5-.43c-1.18-.29-2.54-.7-4.07-1.22a17.18,17.18,0,0,0-2.31-.83,7.59,7.59,0,0,0-2-.25,3.25,3.25,0,0,0-2.63,1.26,4.81,4.81,0,0,0-1,3.2,6.33,6.33,0,0,0,.57,2.74,3.42,3.42,0,0,0,1.59,1.72,17.74,17.74,0,0,0,5.83,2.31,39.6,39.6,0,0,0,8.13.72q7.35,0,11.7-3.13a9.82,9.82,0,0,0,4.36-8.39q0-4.68-2.88-7.17ZM84.49,14a6.32,6.32,0,0,0-3.57,1.08,6,6,0,0,0-2.34,3.1l-10.29,29L58.5,18.25A6,6,0,0,0,52.66,14a6.27,6.27,0,0,0-3.56,1.08,6,6,0,0,0-2.34,3.1L36.32,46.54,26.46,18.18A5.78,5.78,0,0,0,24,15a6.9,6.9,0,0,0-3.7-1,6.79,6.79,0,0,0-4.43,1.55A5.11,5.11,0,0,0,14,19.76a8.3,8.3,0,0,0,.5,2.74L29.05,61.66a5.82,5.82,0,0,0,2.59,3.14,8.06,8.06,0,0,0,4.18,1.11,7.89,7.89,0,0,0,4.1-1.11,6.16,6.16,0,0,0,2.66-3.14L52.38,35l9.36,26.71a5.82,5.82,0,0,0,2.59,3.14,8,8,0,0,0,4.17,1.11,8.22,8.22,0,0,0,4.22-1.11,5.8,5.8,0,0,0,2.62-3.14L89.82,22.5a9.51,9.51,0,0,0,.57-2.88,5.15,5.15,0,0,0-1.76-4.11A6.22,6.22,0,0,0,84.49,14Zm37.08,50.11a7.71,7.71,0,0,0,9.36,0,5.52,5.52,0,0,0,1.72-4.32V44.24q0-7.71-3-11.48T120.41,29a15.57,15.57,0,0,0-6.48,1.29,12.41,12.41,0,0,0-4.82,3.82V19.69a5.07,5.07,0,0,0-1.73-4,6.67,6.67,0,0,0-4.53-1.52,6.88,6.88,0,0,0-4.76,1.62,5.37,5.37,0,0,0-1.8,4.14V59.79A5.57,5.57,0,0,0,98,64.11a7.71,7.71,0,0,0,9.36,0,5.57,5.57,0,0,0,1.73-4.32V45.54a7,7,0,0,1,1.69-4.94,6,6,0,0,1,4.57-1.83q4.47,0,4.47,5.18V59.79a5.57,5.57,0,0,0,1.73,4.32Zm25.88-.54a24.39,24.39,0,0,0,20.56,0,16.36,16.36,0,0,0,6.8-6.44,19.24,19.24,0,0,0,2.41-9.79,19,19,0,0,0-2.41-9.76,16.14,16.14,0,0,0-6.8-6.37,24.85,24.85,0,0,0-20.6,0,16.14,16.14,0,0,0-6.8,6.37,19,19,0,0,0-2.41,9.76,19.24,19.24,0,0,0,2.41,9.79A16.34,16.34,0,0,0,147.45,63.57Zm10.26-25.16q6.84,0,6.84,8.93t-6.84,8.92q-6.84,0-6.84-8.93T157.71,38.41Zm27.18,25.81a7.81,7.81,0,0,0,9.14,0,5.33,5.33,0,0,0,1.84-4.43V20.12A5.42,5.42,0,0,0,194,15.66a7.65,7.65,0,0,0-9.14,0,5.48,5.48,0,0,0-1.84,4.46V59.79A5.33,5.33,0,0,0,184.89,64.22Zm25.88-.61a22.52,22.52,0,0,0,10.3,2.23,25.67,25.67,0,0,0,6.16-.83A28.28,28.28,0,0,0,233,63a4.76,4.76,0,0,0,2.81-4.39,5.24,5.24,0,0,0-1-3.38,3.33,3.33,0,0,0-2.7-1.3,6.48,6.48,0,0,0-1.91.32c-.7.22-1.41.47-2.13.76a32.57,32.57,0,0,1-3.38,1.11,12.77,12.77,0,0,1-3.31.4A7.56,7.56,0,0,1,216.25,55,7.85,7.85,0,0,1,214,50h19a2.74,2.74,0,0,0,2.2-.9,3.9,3.9,0,0,0,.75-2.56,19.89,19.89,0,0,0-2.05-9.28,14.69,14.69,0,0,0-5.8-6.12A17,17,0,0,0,219.41,29a18,18,0,0,0-9.18,2.34,16.22,16.22,0,0,0-6.33,6.55,19.69,19.69,0,0,0-2.27,9.54A19.56,19.56,0,0,0,204,57.2a15.92,15.92,0,0,0,6.77,6.41Zm5-24.37a5.24,5.24,0,0,1,4-1.62c3.36,0,5.19,2.11,5.47,6.33h-11.3A7.73,7.73,0,0,1,215.74,39.24Zm51.73,23.47a9.82,9.82,0,0,0,4.36-8.39q0-4.68-2.88-7.16t-9.87-3.71A28.43,28.43,0,0,1,253.5,42a2,2,0,0,1-1.4-1.8,1.68,1.68,0,0,1,1-1.55,6,6,0,0,1,2.81-.54,11.07,11.07,0,0,1,3.13.4,24.15,24.15,0,0,1,3.06,1.18,10.71,10.71,0,0,0,4.46,1.23,3.29,3.29,0,0,0,2.67-1.37,5.28,5.28,0,0,0,1.08-3.38A4.47,4.47,0,0,0,268.08,32a20.12,20.12,0,0,0-5.43-2.23,24.84,24.84,0,0,0-6.3-.79,20.4,20.4,0,0,0-8.06,1.51,13.62,13.62,0,0,0-5.66,4.17,9.61,9.61,0,0,0-2,6,8.82,8.82,0,0,0,2.84,7q2.85,2.49,9.26,3.71,3.6.72,5.11,1.11a6.11,6.11,0,0,1,2,.83,1.48,1.48,0,0,1,.54,1.23,1.69,1.69,0,0,1-1.11,1.54,7,7,0,0,1-3.06.54,18.83,18.83,0,0,1-4.5-.43c-1.18-.29-2.54-.69-4.07-1.22a18.68,18.68,0,0,0-2.31-.83,7.59,7.59,0,0,0-2-.25,3.25,3.25,0,0,0-2.63,1.26,4.88,4.88,0,0,0-1.05,3.2,6.45,6.45,0,0,0,.58,2.74,3.48,3.48,0,0,0,1.59,1.73,17.94,17.94,0,0,0,5.83,2.3,38.91,38.91,0,0,0,8.13.72q7.35,0,11.7-3.13Zm30.13-2.34a5.41,5.41,0,0,0,1.77,3.89,6,6,0,0,0,4.14,1.44,6.29,6.29,0,0,0,4.5-1.55,5.66,5.66,0,0,0,1.62-4.29v-15q0-8-3.93-11.91T293.57,29a36.37,36.37,0,0,0-7.49.79,24.89,24.89,0,0,0-6.33,2.09,5.5,5.5,0,0,0-2.09,1.8,4.7,4.7,0,0,0-.65,2.59,5.15,5.15,0,0,0,1.08,3.38,3.56,3.56,0,0,0,2.88,1.3,8.75,8.75,0,0,0,2.81-.58,28.56,28.56,0,0,1,8.64-2,5.49,5.49,0,0,1,3.89,1.11,4.92,4.92,0,0,1,1.15,3.64V44h-1.94a53.73,53.73,0,0,0-11.67,1,11.6,11.6,0,0,0-6.3,3.28,8.93,8.93,0,0,0-2,6.08,10.77,10.77,0,0,0,1.69,5.94,11.44,11.44,0,0,0,4.65,4.1,14.6,14.6,0,0,0,6.62,1.48,10.73,10.73,0,0,0,5.69-1.44A7.91,7.91,0,0,0,297.6,60.37Zm-8.74-4.18a3.75,3.75,0,0,1-1.05-2.73,2.84,2.84,0,0,1,1.95-2.77,17.93,17.93,0,0,1,6.55-.83h1.15v.86a6.76,6.76,0,0,1-1.66,4.72,5.44,5.44,0,0,1-4.24,1.83A3.54,3.54,0,0,1,288.86,56.19Zm38.95-40.53a7.67,7.67,0,0,0-9.15,0,5.44,5.44,0,0,0-1.83,4.46V59.79a5.33,5.33,0,0,0,1.83,4.43,7.82,7.82,0,0,0,9.15,0,5.33,5.33,0,0,0,1.83-4.43V20.12A5.44,5.44,0,0,0,327.81,15.66Zm16.74,48a22.45,22.45,0,0,0,10.29,2.23A25.6,25.6,0,0,0,361,65,28.28,28.28,0,0,0,366.79,63a4.76,4.76,0,0,0,2.81-4.39,5.19,5.19,0,0,0-1-3.38,3.32,3.32,0,0,0-2.7-1.3,6.54,6.54,0,0,0-1.91.32c-.7.22-1.4.47-2.12.76a33.56,33.56,0,0,1-3.39,1.11,12.71,12.71,0,0,1-3.31.4A7.56,7.56,0,0,1,350,55a7.89,7.89,0,0,1-2.23-5h19a2.72,2.72,0,0,0,2.2-.9,3.86,3.86,0,0,0,.76-2.56,19.9,19.9,0,0,0-2.06-9.28,14.66,14.66,0,0,0-5.79-6.12A17,17,0,0,0,353.19,29,18,18,0,0,0,344,31.32a16.25,16.25,0,0,0-6.34,6.55,19.91,19.91,0,0,0-2.27,9.54,19.47,19.47,0,0,0,2.38,9.79,15.81,15.81,0,0,0,6.77,6.41Zm5-24.37a5.25,5.25,0,0,1,4-1.62q5,0,5.47,6.33H347.71a7.79,7.79,0,0,1,1.8-4.71Z" transform="translate(0 0)"/></svg>