<svg id="f2a11653-9a0a-42eb-a547-69ceef16cee7" data-name="Layer 1" xmlns="http://www.w3.org/2000/svg" viewBox="0 0 920 180.04"><defs><style>.a99964b6-3d16-446b-8dca-a93dc6859e06{fill:#d3d4d6;}.b6188414-99f8-434f-ab6c-339c90e89219{fill:#083d77;}.ac07facf-fc83-42ba-ac8b-3d8cf4a3e5de{fill:#052547;}.b2732457-b3e7-43b3-8f02-d87df8e79f20{fill:#aaacaf;}.ba06ed65-38eb-4ac5-adaf-568f5418fed3{fill:#818589;}</style></defs><path id="b8b6e091-c2f6-4264-8675-4b2d351b8dbd" data-name="tagline" d="M226.8,115.7h4.1v29.9h-4.1V132.8H209.7v12.8h-4.1V115.7h4.1V129h17.1Zm12.7,29.9h4.1V115.7h-4.1Zm19.9-25a12,12,0,0,1,5.9-1.5,13.59,13.59,0,0,1,4.8.9,12.46,12.46,0,0,1,4.1,2.6l2.3-3a16.34,16.34,0,0,0-5.1-3,18.26,18.26,0,0,0-6.1-1.1,16.65,16.65,0,0,0-8,2,15.06,15.06,0,0,0-5.7,5.5,15.17,15.17,0,0,0,0,15.4,16.1,16.1,0,0,0,5.7,5.6,15.23,15.23,0,0,0,7.9,2,19.09,19.09,0,0,0,11.3-4V131h-3.6v8.9a14.88,14.88,0,0,1-3.6,1.7,13.06,13.06,0,0,1-3.8.6,11.14,11.14,0,0,1-5.9-1.6,11.54,11.54,0,0,1-4.3-4.2,11.31,11.31,0,0,1,0-11.6A9.77,9.77,0,0,1,259.4,120.6Zm45.9,8.4H288.2V115.7h-4.1v29.9h4.1V132.8h17.1v12.8h4.1V115.7h-4.1ZM358,145.6l1.7,2.9a13.6,13.6,0,0,1-3.8,2.4,10.13,10.13,0,0,1-4.1.9,9.46,9.46,0,0,1-5.1-1.5,15.07,15.07,0,0,1-4.3-4.4h-.3a16.26,16.26,0,0,1-7.9-2,15.32,15.32,0,0,1-5.7-5.6,14.6,14.6,0,0,1-2.1-7.7,14.86,14.86,0,0,1,2.1-7.7,15.83,15.83,0,0,1,5.7-5.5,16.6,16.6,0,0,1,15.8,0,15.06,15.06,0,0,1,5.7,5.5,14.6,14.6,0,0,1,2.1,7.7,15,15,0,0,1-1.4,6.4,16.49,16.49,0,0,1-3.9,5.1,17.06,17.06,0,0,1-5.8,3.1c1.9,2,3.7,3,5.6,3C354,148.3,355.9,147.4,358,145.6Zm-9.9-5a11.29,11.29,0,0,0,4.2-4.2,11.76,11.76,0,0,0,1.6-5.8,10.8,10.8,0,0,0-1.6-5.8,11.29,11.29,0,0,0-4.2-4.2,11.77,11.77,0,0,0-11.5,0,10.61,10.61,0,0,0-4.2,4.2,11.31,11.31,0,0,0,0,11.6,12.06,12.06,0,0,0,4.2,4.2,11.76,11.76,0,0,0,5.8,1.6A12.86,12.86,0,0,0,348.1,140.6Zm36.7-7.2a9,9,0,0,1-2.3,6.5,8.07,8.07,0,0,1-6.2,2.3,8.54,8.54,0,0,1-6.3-2.3,9,9,0,0,1-2.3-6.5V115.7h-4.1v17.7c0,3.9,1.1,7,3.4,9.2s5.3,3.3,9.3,3.3,7-1.1,9.2-3.3a12.54,12.54,0,0,0,3.4-9.2V115.7h-4.1Zm24.6-17.7,13.2,29.9h-4.4l-3.2-7.3H399.2l-3.1,7.3h-4.3l13.3-29.9Zm4,18.9-6.3-14.5-6.2,14.5Zm17.7-18.9H427v29.9h17.2v-3.7H431.1Zm18.2,29.9h4.1V115.7h-4.1Zm8.8-26.2h9.6v26.1h4.1V119.4h9.6v-3.8H458v3.8Zm37.3,11.5-9.2-15.2H482l11.4,19.8v10.1h4.1V135.4l11.2-19.6h-4.2Zm17.8,10.3a1.86,1.86,0,0,0-1.6.7,2.41,2.41,0,0,0-.7,1.7,2.66,2.66,0,0,0,.3,1.2,1.76,1.76,0,0,0,.9.8l-1.7,4.8h2.2l2.3-4.9a10.37,10.37,0,0,0,.4-1,3.55,3.55,0,0,0,.2-1,2.06,2.06,0,0,0-.7-1.7A2.11,2.11,0,0,0,513.2,141.2Zm23.9-25.5H533v29.9h17.2v-3.7H537.1V115.7Zm44.9,7.2a15.17,15.17,0,0,1,0,15.4,16.1,16.1,0,0,1-5.7,5.6,15.23,15.23,0,0,1-7.9,2,16.26,16.26,0,0,1-7.9-2,15.32,15.32,0,0,1-5.7-5.6,14.6,14.6,0,0,1-2.1-7.7,14.86,14.86,0,0,1,2.1-7.7,15.83,15.83,0,0,1,5.7-5.5,16.6,16.6,0,0,1,15.8,0A15.83,15.83,0,0,1,582,122.9Zm-2.1,7.7a10.8,10.8,0,0,0-1.6-5.8,11.29,11.29,0,0,0-4.2-4.2,10.6,10.6,0,0,0-5.7-1.5,11.66,11.66,0,0,0-5.8,1.5,10.61,10.61,0,0,0-4.2,4.2,11.31,11.31,0,0,0,0,11.6,12.06,12.06,0,0,0,4.2,4.2,11.76,11.76,0,0,0,5.8,1.6,10.23,10.23,0,0,0,5.7-1.6,11.29,11.29,0,0,0,4.2-4.2A10.8,10.8,0,0,0,579.9,130.6Zm37.8,10.6-7.9-25.5h-4.1l-7.9,25.5-7.9-25.5h-4.4l10.1,29.9h4.2l7.9-24.7,7.7,24.7h4.3l10.1-29.9h-4.3Zm45.4-.1a12.27,12.27,0,0,1-4.6,1,11.66,11.66,0,0,1-5.8-1.5,10.61,10.61,0,0,1-4.2-4.2,12,12,0,0,1,0-11.6,11.29,11.29,0,0,1,4.2-4.2,11.66,11.66,0,0,1,5.8-1.5,11.36,11.36,0,0,1,4.7,1,12.56,12.56,0,0,1,4,2.8l2.4-2.9a15,15,0,0,0-5.1-3.3,15.67,15.67,0,0,0-6-1.2,16.26,16.26,0,0,0-7.9,2,15.06,15.06,0,0,0-5.7,5.5,14.6,14.6,0,0,0-2.1,7.7,15.5,15.5,0,0,0,2,7.7,14.79,14.79,0,0,0,5.6,5.5,15.12,15.12,0,0,0,7.8,2,14.89,14.89,0,0,0,6.1-1.3,16.86,16.86,0,0,0,5.3-3.5l-2.5-2.7A15.64,15.64,0,0,1,663.1,141.1Zm38.2-18.2a15.17,15.17,0,0,1,0,15.4,16.1,16.1,0,0,1-5.7,5.6,15.23,15.23,0,0,1-7.9,2,16.26,16.26,0,0,1-7.9-2,15.32,15.32,0,0,1-5.7-5.6,14.6,14.6,0,0,1-2.1-7.7,14.86,14.86,0,0,1,2.1-7.7,15.83,15.83,0,0,1,5.7-5.5,16.6,16.6,0,0,1,15.8,0A15.83,15.83,0,0,1,701.3,122.9Zm-2.1,7.7a10.8,10.8,0,0,0-1.6-5.8,11.29,11.29,0,0,0-4.2-4.2,11.77,11.77,0,0,0-11.5,0,10.61,10.61,0,0,0-4.2,4.2,11.31,11.31,0,0,0,0,11.6,12.06,12.06,0,0,0,4.2,4.2,11.76,11.76,0,0,0,5.8,1.6,10.23,10.23,0,0,0,5.7-1.6,11.29,11.29,0,0,0,4.2-4.2A10.8,10.8,0,0,0,699.2,130.6Zm25.3-.3a37.34,37.34,0,0,0-4.9-1.8c-1.6-.5-2.9-1-3.8-1.3a6.34,6.34,0,0,1-2.3-1.6,3.74,3.74,0,0,1-.9-2.6,3.11,3.11,0,0,1,1.6-2.8,7.26,7.26,0,0,1,4.2-1,12.61,12.61,0,0,1,4.1.7,15.22,15.22,0,0,1,4.3,2l1.7-3.7a16.17,16.17,0,0,0-4.6-2.1,18.9,18.9,0,0,0-5.3-.8,13.19,13.19,0,0,0-5.5,1,8.88,8.88,0,0,0-3.7,2.8,7.76,7.76,0,0,0,0,8.6,8.7,8.7,0,0,0,3.2,2.5,37.34,37.34,0,0,0,4.9,1.8c1.6.5,2.9.9,3.9,1.3a6.74,6.74,0,0,1,2.4,1.6,3.92,3.92,0,0,1,.9,2.6,3.85,3.85,0,0,1-1.7,3.2,8.18,8.18,0,0,1-4.7,1.2,14.29,14.29,0,0,1-5.2-1.1,15.52,15.52,0,0,1-4.8-3.2l-1.8,3.5a16.55,16.55,0,0,0,5.4,3.4,15.93,15.93,0,0,0,6.4,1.3,14.17,14.17,0,0,0,5.7-1,8.54,8.54,0,0,0,3.9-3,7.75,7.75,0,0,0,1.4-4.5,7.27,7.27,0,0,0-1.3-4.5A13.33,13.33,0,0,0,724.5,130.3Zm7.2-10.9h9.6v26.1h4.1V119.4H755v-3.8H731.6v3.8Zm56.9,21.7a12.27,12.27,0,0,1-4.6,1,11.66,11.66,0,0,1-5.8-1.5,10.61,10.61,0,0,1-4.2-4.2,12,12,0,0,1,0-11.6,11.29,11.29,0,0,1,4.2-4.2,11.66,11.66,0,0,1,5.8-1.5,11.36,11.36,0,0,1,4.7,1,13.77,13.77,0,0,1,4,2.8l2.4-2.9a15,15,0,0,0-5.1-3.3,15.67,15.67,0,0,0-6-1.2,16.26,16.26,0,0,0-7.9,2,15.06,15.06,0,0,0-5.7,5.5,14.6,14.6,0,0,0-2.1,7.7,15.5,15.5,0,0,0,2,7.7,14.79,14.79,0,0,0,5.6,5.5,15.12,15.12,0,0,0,7.8,2,14.89,14.89,0,0,0,6.1-1.3,16.86,16.86,0,0,0,5.3-3.5l-2.5-2.7A15.64,15.64,0,0,1,788.6,141.1Zm38.2-18.2a15.17,15.17,0,0,1,0,15.4,16.1,16.1,0,0,1-5.7,5.6,15.23,15.23,0,0,1-7.9,2,16.26,16.26,0,0,1-7.9-2,15.32,15.32,0,0,1-5.7-5.6,14.6,14.6,0,0,1-2.1-7.7,14.86,14.86,0,0,1,2.1-7.7,15.83,15.83,0,0,1,5.7-5.5,16.6,16.6,0,0,1,15.8,0A15.83,15.83,0,0,1,826.8,122.9Zm-2.1,7.7a10.8,10.8,0,0,0-1.6-5.8,11.29,11.29,0,0,0-4.2-4.2,11.77,11.77,0,0,0-11.5,0,10.61,10.61,0,0,0-4.2,4.2,11.31,11.31,0,0,0,0,11.6,12.06,12.06,0,0,0,4.2,4.2,11.76,11.76,0,0,0,5.8,1.6,10.23,10.23,0,0,0,5.7-1.6,11.29,11.29,0,0,0,4.2-4.2A10.8,10.8,0,0,0,824.7,130.6Zm10.1,15h4.1V115.7h-4.1Zm33.9-6.7-17.1-23.2h-4.1v29.9h4.1V122.5l17.1,23.1h4.1V115.7h-4.1Zm31.1-6a7.78,7.78,0,0,0-3.2-2.5,37.34,37.34,0,0,0-4.9-1.8c-1.6-.5-2.9-1-3.8-1.3a6.34,6.34,0,0,1-2.3-1.6,3.74,3.74,0,0,1-.9-2.6,3.11,3.11,0,0,1,1.6-2.8,7.26,7.26,0,0,1,4.2-1,12.61,12.61,0,0,1,4.1.7,15.22,15.22,0,0,1,4.3,2l1.7-3.7a16.17,16.17,0,0,0-4.6-2.1,18.9,18.9,0,0,0-5.3-.8,13.19,13.19,0,0,0-5.5,1,8.88,8.88,0,0,0-3.7,2.8,7.76,7.76,0,0,0,0,8.6,8.7,8.7,0,0,0,3.2,2.5,37.34,37.34,0,0,0,4.9,1.8c1.6.5,2.9.9,3.9,1.3a6.74,6.74,0,0,1,2.4,1.6,3.92,3.92,0,0,1,.9,2.6,3.85,3.85,0,0,1-1.7,3.2,8.18,8.18,0,0,1-4.7,1.2,14.29,14.29,0,0,1-5.2-1.1,15.52,15.52,0,0,1-4.8-3.2l-1.8,3.5a16.55,16.55,0,0,0,5.4,3.4,15.93,15.93,0,0,0,6.4,1.3,14.17,14.17,0,0,0,5.7-1,8.54,8.54,0,0,0,3.9-3,7.75,7.75,0,0,0,1.4-4.5A10.34,10.34,0,0,0,899.8,132.9Z" transform="translate(0 0.02)"/><path id="eb7b4ea3-e0d2-45eb-ac6f-b8da2e3c23ea" data-name="wordmark" d="M384.9,53.1a28.42,28.42,0,0,0-12.8-2.6A33.22,33.22,0,0,0,357,53.8,24.65,24.65,0,0,0,346.8,63a26.3,26.3,0,0,0-3.6,13.8,21.94,21.94,0,0,0,2.9,11.4,20.15,20.15,0,0,0,8.3,7.5,28.41,28.41,0,0,0,12.8,2.7,32.5,32.5,0,0,0,15-3.3,24.55,24.55,0,0,0,10.1-9.3A26.3,26.3,0,0,0,395.9,72,21.94,21.94,0,0,0,393,60.6,17.94,17.94,0,0,0,384.9,53.1ZM374.5,80.8a7,7,0,0,1-5.7,2.9,5.41,5.41,0,0,1-4.5-2.1,9,9,0,0,1-1.6-5.7,11.63,11.63,0,0,1,2.2-7.4,7,7,0,0,1,5.7-2.9,5.41,5.41,0,0,1,4.5,2.1,9,9,0,0,1,1.6,5.7A11.44,11.44,0,0,1,374.5,80.8Zm55.2-46.3L417.1,97.7H398l12.6-63.2ZM717,74.8,727.1,87a42.79,42.79,0,0,1-12.9,8.8,34.91,34.91,0,0,1-14.3,3.3A29.16,29.16,0,0,1,685,95.4a25.81,25.81,0,0,1-10.1-10.1,29.53,29.53,0,0,1-3.6-14.6,33,33,0,0,1,17.6-29.5,36.63,36.63,0,0,1,18-4.4,32.21,32.21,0,0,1,13.4,3,30.11,30.11,0,0,1,10.7,8L718.1,61.3a18.91,18.91,0,0,0-5.7-5.9,12.63,12.63,0,0,0-6.9-2.3,13,13,0,0,0-7,2,13.92,13.92,0,0,0-5,5.7,17.8,17.8,0,0,0-1.9,8,13.49,13.49,0,0,0,3.1,9.2,9.87,9.87,0,0,0,7.9,3.6,16.47,16.47,0,0,0,7.2-1.9A24.23,24.23,0,0,0,717,74.8ZM912.3,76a10,10,0,0,1,2.2,6.7,13.72,13.72,0,0,1-2.5,8.2,17.1,17.1,0,0,1-7,5.6,26.06,26.06,0,0,1-10.4,2,40.07,40.07,0,0,1-13.8-2.4,37.59,37.59,0,0,1-11.7-6.7l7.7-10.9a42.64,42.64,0,0,0,8.6,5.3,20.15,20.15,0,0,0,7.7,1.9c2.1,0,3.1-.6,3.1-1.9,0-.5-.4-.9-1.1-1.3s-2.1-.9-4-1.7c-2.9-1.1-5.4-2.1-7.4-3.1a16.76,16.76,0,0,1-5.3-4.3,10.36,10.36,0,0,1-2.3-6.8,14,14,0,0,1,2.5-8.3,17,17,0,0,1,6.9-5.7,24,24,0,0,1,10.3-2,36.48,36.48,0,0,1,12.4,2.2A43.07,43.07,0,0,1,920,59l-8.2,10.7a56.63,56.63,0,0,0-8.5-4.7,17.81,17.81,0,0,0-6.6-1.7,4.23,4.23,0,0,0-2,.5,1.6,1.6,0,0,0-.8,1.4,1.84,1.84,0,0,0,1.3,1.6c.9.5,2.4,1.1,4.5,2A78,78,0,0,1,907,72,14.06,14.06,0,0,1,912.3,76ZM798,45.4a7.93,7.93,0,0,1-2.2-5.7,10.9,10.9,0,0,1,1.6-5.9,10.62,10.62,0,0,1,4.3-4.1,12.14,12.14,0,0,1,6-1.5,7.61,7.61,0,0,1,5.8,2.2,8.1,8.1,0,0,1,2.2,5.7,10.9,10.9,0,0,1-1.6,5.9,11.28,11.28,0,0,1-4.3,4.1,12.14,12.14,0,0,1-6,1.5A8,8,0,0,1,798,45.4ZM337.8,57.9a15.92,15.92,0,0,1,1.9,7.9,23.68,23.68,0,0,1-.4,4.3l-5.5,27.7H314.6L319.5,73c.1-.8.2-1.4.2-1.8a5,5,0,0,0-1.1-3.4,4.22,4.22,0,0,0-3.2-1.2,7.17,7.17,0,0,0-5.1,2.4,10.72,10.72,0,0,0-3,6.1l-4.5,22.7H283.6l12.5-63.2h19.2L310.9,57a17.77,17.77,0,0,1,13.7-6.5,15.71,15.71,0,0,1,7.9,2A13.14,13.14,0,0,1,337.8,57.9ZM290.6,38,261.2,97.7H240.9l-2.3-35.6L224.1,97.7H203.8L194.3,38h21.1L218,77.1l15.3-39,19.2-.1,2.6,39.1L270.5,38Zm481,15.1a28.42,28.42,0,0,0-12.8-2.6,33.22,33.22,0,0,0-15.1,3.3A24.65,24.65,0,0,0,733.5,63a26.3,26.3,0,0,0-3.6,13.8,21.94,21.94,0,0,0,2.9,11.4,20.15,20.15,0,0,0,8.3,7.5,28.41,28.41,0,0,0,12.8,2.7,32.5,32.5,0,0,0,15-3.3A24.55,24.55,0,0,0,779,85.8,26.3,26.3,0,0,0,782.6,72a21.94,21.94,0,0,0-2.9-11.4A18.46,18.46,0,0,0,771.6,53.1ZM761.1,80.8a7,7,0,0,1-5.7,2.9,5.41,5.41,0,0,1-4.5-2.1,9,9,0,0,1-1.6-5.7,11.63,11.63,0,0,1,2.2-7.4,7,7,0,0,1,5.7-2.9,5.41,5.41,0,0,1,4.5,2.1,9,9,0,0,1,1.6,5.7A10.9,10.9,0,0,1,761.1,80.8Zm32.4-29.7h19.2l-9.3,46.6H784.2ZM655.8,53.2A28.41,28.41,0,0,0,643,50.5a26.67,26.67,0,0,0-13.6,3.4,24.79,24.79,0,0,0-9.4,9.6,28.78,28.78,0,0,0-3.4,13.8,19.13,19.13,0,0,0,12,18.4,32.83,32.83,0,0,0,13.5,2.6A28.21,28.21,0,0,0,662,90.6l-9.9-9.7a15.24,15.24,0,0,1-9.4,3.5c-4.3,0-6.7-1.9-7.3-5.6h30.8a31.26,31.26,0,0,0,.8-6.6,22.09,22.09,0,0,0-2.9-11.3A17.79,17.79,0,0,0,655.8,53.2Zm-7.2,16.7H636.9a12.38,12.38,0,0,1,3.3-4.6,6,6,0,0,1,4.2-1.7,4.16,4.16,0,0,1,3.3,1.3,4.22,4.22,0,0,1,1.3,3.2A5.35,5.35,0,0,1,648.6,69.9ZM618.3,34.5,605.7,97.7H586.5l12.6-63.2ZM521.2,76a10,10,0,0,1,2.2,6.7,13.72,13.72,0,0,1-2.5,8.2,17.1,17.1,0,0,1-7,5.6,26.06,26.06,0,0,1-10.4,2,40.07,40.07,0,0,1-13.8-2.4A37.59,37.59,0,0,1,478,89.4l7.7-10.9a42.64,42.64,0,0,0,8.6,5.3,20.15,20.15,0,0,0,7.7,1.9c2.1,0,3.1-.6,3.1-1.9,0-.5-.4-.9-1.1-1.3s-2.1-.9-4-1.7c-2.9-1.1-5.4-2.1-7.4-3.1a16.76,16.76,0,0,1-5.3-4.3,10.36,10.36,0,0,1-2.3-6.8,14,14,0,0,1,2.5-8.3,17,17,0,0,1,6.9-5.7,24,24,0,0,1,10.3-2,36.48,36.48,0,0,1,12.4,2.2A43.07,43.07,0,0,1,528.9,59l-8.2,10.7a56.63,56.63,0,0,0-8.5-4.7,17.81,17.81,0,0,0-6.6-1.7,4.23,4.23,0,0,0-2,.5,1.6,1.6,0,0,0-.8,1.4,1.84,1.84,0,0,0,1.3,1.6c.9.5,2.4,1.1,4.5,2a78,78,0,0,1,7.3,3.2A14.88,14.88,0,0,1,521.2,76Zm44.4-18.7a13.66,13.66,0,0,0-5.3-5.1,16,16,0,0,0-7.8-1.7,20.82,20.82,0,0,0-12.1,3.7,25.64,25.64,0,0,0-8.7,10,31,31,0,0,0-3.2,14,23.79,23.79,0,0,0,2.2,10.5,17.23,17.23,0,0,0,6.1,7.2,16,16,0,0,0,8.9,2.6c4.7,0,8.9-1.8,12.8-5.3l-.9,4.6h19.2l9.3-46.6H566.9ZM561,78.6a10.5,10.5,0,0,1-3.1,4,7,7,0,0,1-4.3,1.5,5,5,0,0,1-4.2-1.9,8.17,8.17,0,0,1-1.5-5.3,12.11,12.11,0,0,1,2.4-7.6,7.29,7.29,0,0,1,5.9-3.2,5.15,5.15,0,0,1,4.3,1.9,7.71,7.71,0,0,1,1.6,5.2A14.08,14.08,0,0,1,561,78.6Zm-82.4-6.5a22.09,22.09,0,0,0-2.9-11.3,20,20,0,0,0-8.4-7.6,28.41,28.41,0,0,0-12.8-2.7,26.67,26.67,0,0,0-13.6,3.4,24.79,24.79,0,0,0-9.4,9.6,28.78,28.78,0,0,0-3.4,13.8,19.13,19.13,0,0,0,12,18.4,32.83,32.83,0,0,0,13.5,2.6,28.21,28.21,0,0,0,19.9-7.7l-9.9-9.7a15.24,15.24,0,0,1-9.4,3.5c-4.3,0-6.7-1.9-7.3-5.6h30.8A27.52,27.52,0,0,0,478.6,72.1ZM460,69.9H448.3a12.38,12.38,0,0,1,3.3-4.6,6,6,0,0,1,4.2-1.7,4.16,4.16,0,0,1,3.3,1.3,4.22,4.22,0,0,1,1.3,3.2A3.65,3.65,0,0,1,460,69.9Zm407.1-12a15.92,15.92,0,0,1,1.9,7.9,23.68,23.68,0,0,1-.4,4.3L863,97.7H843.8l4.9-24.8c.1-.8.2-1.4.2-1.8a5,5,0,0,0-1.1-3.4,4.22,4.22,0,0,0-3.2-1.2,7.17,7.17,0,0,0-5.1,2.4,10.72,10.72,0,0,0-3,6.1L832,97.7H812.8L822,51.1h19.2l-1.1,5.8a17.77,17.77,0,0,1,13.7-6.5,15.71,15.71,0,0,1,7.9,2A13.62,13.62,0,0,1,867.1,57.9Z" transform="translate(0 0.02)"/><g id="e772e798-05eb-4b8b-b71b-fa13058f07a8" data-name="coin"><circle id="b529ac9c-72f1-4ba2-9db9-22c8be2f9bc0" data-name="bg" class="a99964b6-3d16-446b-8dca-a93dc6859e06" cx="90" cy="90.02" r="88.7"/><circle id="f636d60e-58ed-4b9f-b2cd-4e654da2d6b5" data-name="bg" class="b6188414-99f8-434f-ab6c-339c90e89219" cx="90" cy="90.02" r="81.9"/><circle id="fda3c142-972f-44c2-a05c-dedfa9fba5b9" data-name="bg" class="ac07facf-fc83-42ba-ac8b-3d8cf4a3e5de" cx="90" cy="90.02" r="64.8"/><path id="b293b207-3324-4ce4-9a34-7a6afae78efe" data-name="center" class="b2732457-b3e7-43b3-8f02-d87df8e79f20" d="M90,157a67,67,0,1,1,67-67A67.07,67.07,0,0,1,90,157ZM90,28a62,62,0,1,0,62,62A62.05,62.05,0,0,0,90,28Z" transform="translate(0 0.02)"/><g id="b724387a-d2b2-496c-874f-a2781af5ea96" data-name="plane"><path id="a121fb34-854b-469d-9a02-0eb7a9789b94" data-name="body" class="b2732457-b3e7-43b3-8f02-d87df8e79f20" d="M120,119.3l-8.7-23.7,1.2-2.2a80,80,0,0,0-1.1-8.6l-4.2-.5a14.61,14.61,0,0,1-.3-7.2,49.6,49.6,0,0,1,2-6.2c1.2-3.5,2.4-6.9,3.6-10.4,0-.1.5-1.4.5-1.4s5.6-18.1,3.2-19.6-14.2,14-14.2,14-1.2,1.6-1.3,1.7l-3,4.2c-1.2,1.7-2.4,3.4-3.7,5.1a29.9,29.9,0,0,1-4.2,5.2,17.56,17.56,0,0,1-5.1,3L82,69.5c-3.1,1.5-7.5,3.8-7.6,4l-1.2,2.2L48.8,82.2a3.53,3.53,0,0,0-2.6,2.9L44.6,95.5l4.8,1.3a41.48,41.48,0,0,1,17.9,10.1l2.9,2.7-3.8,2.1L48,115.2a2.65,2.65,0,0,0-2.2,2.3l-.5,3.1a2.76,2.76,0,0,0,2,3.1l13.5,3.9,2.4-5.1,3.5,1.8-.3,3.6,6.1,3.2,2.8-2.3,3.5,1.8L76,135.5l10.9,8.7a2.63,2.63,0,0,0,3.6-.2l2.5-2a2.77,2.77,0,0,0,.6-3.1l-7.8-17.2-.5-4.3,3.9.8a43.43,43.43,0,0,1,18.6,8.9l3.9,3.2,7.6-7.2A3.75,3.75,0,0,0,120,119.3Z" transform="translate(0 0.02)"/><path id="b93fb293-4bd4-4137-88f5-639504133df4" data-name="shadows" class="ba06ed65-38eb-4ac5-adaf-568f5418fed3" d="M84.8,72.7,71.2,108.2,82,69.5l2.8,3.2Zm22.4,11.6h0L86,115.8l24.7-30.3.6-.7Zm-11-6.2a5.56,5.56,0,0,0,2.1.6,3.55,3.55,0,0,0,2-.8,19,19,0,0,0,3.3-4.7c.9-1.6,1.8-3.3,2.6-4.9h0a17,17,0,0,0,1.9-6.9s.1-2.5-1.5-3.4-3.6.7-3.6.7a16.61,16.61,0,0,0-4.6,5.6c-.9,1.7-1.7,3.3-2.5,5a17.6,17.6,0,0,0-2,5.4,2.81,2.81,0,0,0,.6,2.3A9.91,9.91,0,0,0,96.2,78.1ZM85.6,101.7a3.46,3.46,0,0,0-1-1.1l-.6-.1h.3c-.1,0-.1-.1-.3-.1h-.5a1.27,1.27,0,0,0-.6.1h-.3c-.1,0-.2.1-.3.1a4.05,4.05,0,0,0-.9.5,5.83,5.83,0,0,0-1.5,1.1,29.49,29.49,0,0,0-2.5,2.5,51.19,51.19,0,0,0-4,5.5c-1.2,1.9-2.3,3.9-3.4,5.9s-2,4-2.8,6.1c1.9-3.5,3.9-7,6.1-10.3a57.87,57.87,0,0,1,4.3-5.8,22,22,0,0,1,2.6-2.7,7,7,0,0,1,2.9-1.9,1.27,1.27,0,0,1,.6-.1H84a.35.35,0,0,1,.2.1c.9.5.9,2,.9,2.9a15.87,15.87,0,0,1-.6,3.8,61.82,61.82,0,0,1-2.3,7.3A120.64,120.64,0,0,1,77,127.1a58.85,58.85,0,0,0,3.5-6,60.48,60.48,0,0,0,2.9-6.3,51.08,51.08,0,0,0,2.2-6.6,19.31,19.31,0,0,0,.6-3.6,13.28,13.28,0,0,0,0-2C85.9,102.5,85.8,102.1,85.6,101.7Zm-2.2-1.4Z" transform="translate(0 0.02)"/></g><path id="f502f29a-1187-464a-bf3c-96b289d0e54c" data-name="stars" class="b2732457-b3e7-43b3-8f02-d87df8e79f20" d="M92.2,163l2.2,2.2-3.1.5-1.4,2.8-1.4-2.8-3.1-.5,2.2-2.2-.5-3.1,2.8,1.5,2.8-1.5ZM90,11.5l-1.4,2.8-3.1.5L87.7,17l-.5,3L90,18.5,92.8,20l-.6-3,2.2-2.2-3.1-.5Zm38.5,140.6-1.1-2.9-1.7,2.7-3.1.1,2,2.4-.9,3,2.9-1.2,2.6,1.7-.2-3.1,2.5-1.9ZM56.3,22.6l-2.9,1.2L50.8,22l.2,3.1L48.5,27l3,.8,1.1,2.9L54.3,28l3.1-.1-2-2.4ZM157.4,123.7l-3,.9-2.4-2-.1,3.1-2.7,1.7,2.9,1.1.8,3,1.9-2.5,3.1.2-1.7-2.6ZM27.1,48.5l-2,2.5L22,50.8l1.7,2.6-1.2,2.9,3-.9,2.4,2,.1-3.1,2.7-1.7-2.9-1.1ZM165.7,88.6l-.5-3.1L163,87.7l-3.1-.5,1.5,2.8-1.5,2.8,3.1-.5,2.2,2.2.5-3.1,2.8-1.4ZM17,87.8l-2.2-2.2-.5,3.1L11.5,90l2.8,1.4.5,3.1L17,92.3l3.1.5L18.6,90l1.5-2.8ZM152.9,48.5l-.8,3-2.9,1.1,2.7,1.7.1,3.1,2.4-2,3,.9-1.2-2.9,1.7-2.6-3.1.2ZM28,122.6l-2.4,2-3-.9,1.2,2.9-1.7,2.6,3.1-.2,1.9,2.5.8-3,2.9-1.1-2.7-1.7ZM129.2,22l-2.6,1.7-2.9-1.2.9,3-2,2.4,3.1.1,1.7,2.7,1.1-2.9,3-.8L129,25.1ZM54.3,151.8l-1.7-2.7L51.5,152l-3,.8,2.5,1.9-.2,3.1,2.6-1.7,2.9,1.2-.9-3,2-2.4Z" transform="translate(0 0.02)"/><path id="f95813a8-a402-486e-95c5-6e8ffdcdad6d" data-name="rope" class="b2732457-b3e7-43b3-8f02-d87df8e79f20" d="M178.2,94.4c-2.7-3.2-7.6-4.4-7.7-9.3a6.21,6.21,0,0,1,1.7-4.3c2.7,2.9,7.8,4.3,7.8,9.2A6.34,6.34,0,0,1,178.2,94.4Zm.3,9.3a6.19,6.19,0,0,0,.8-2.4c.4-2.6-.9-4.3-2.3-5.8s-3.4-2.6-4.8-4a6.07,6.07,0,0,0-1.9,4,6,6,0,0,0,.6,3,9.58,9.58,0,0,0,1.7,2.4c.7.7,1.5,1.4,2.3,2.2a15.91,15.91,0,0,1,2,2.4A9.34,9.34,0,0,0,178.5,103.7Zm-1.3,8.7c1.2-5.1-3.6-7.4-5.8-10.6a6.06,6.06,0,0,0-2.4,3.7c-.5,2.3.4,4,1.7,5.6s2.8,3.2,3.7,5.1A6,6,0,0,0,177.2,112.4Zm-3.5,10.8a6.43,6.43,0,0,0-.8-6.2c-1.1-1.8-2.7-3.4-3.6-5.1a5.65,5.65,0,0,0-2.8,3.4,6.92,6.92,0,0,0,.9,5.8c1,1.8,2.4,3.5,3,5.5A6.12,6.12,0,0,0,173.7,123.2Zm-4.8,10.2c2.4-4.6-1.6-8.1-3-11.7a5.53,5.53,0,0,0-3.2,3c-2,4.1,1.7,7.6,2.5,11.7A6.2,6.2,0,0,0,168.9,133.4Zm-6.1,9.6a7.1,7.1,0,0,0,1.2-3.1,6.75,6.75,0,0,0-.5-3.1c-.6-2-1.7-3.9-2.2-5.8a6,6,0,0,0-3.6,2.6c-2.5,3.8.8,7.8,1,11.9A6.06,6.06,0,0,0,162.8,143Zm-7.2,8.7c1.8-1.9,1.8-4,1.5-6s-1.3-4.1-1.5-6.1a5.86,5.86,0,0,0-3.9,2.1c-1.5,1.7-1.5,3.7-1.3,5.7a32.91,32.91,0,0,1,.8,6.2A5.71,5.71,0,0,0,155.6,151.7Zm-8.2,7.8a6.48,6.48,0,0,0,2.2-5.8c-.1-2.1-.7-4.2-.7-6.2a6.08,6.08,0,0,0-4.1,1.6,6.4,6.4,0,0,0-1.9,5.5c0,2,.4,4.2,0,6.3A6.3,6.3,0,0,0,147.4,159.5Zm-9.2,6.6a6.3,6.3,0,0,0,2.9-5.5c.2-2.1-.2-4.3.1-6.2a5.75,5.75,0,0,0-4.3,1.1,6.63,6.63,0,0,0-2.6,5.2,30.92,30.92,0,0,1-.8,6.2A5.44,5.44,0,0,0,138.2,166.1Zm-9.9,5.5c4.7-2.3,3.4-7.5,4.4-11.2a6.24,6.24,0,0,0-4.4.5c-4,2.1-3.1,7.2-4.8,10.9A5.79,5.79,0,0,0,128.3,171.6Zm-10.5,4.2a7.14,7.14,0,0,0,2.8-1.8,7.76,7.76,0,0,0,1.4-2.7c.7-2,.9-4.2,1.6-6a5.22,5.22,0,0,0-2.1-.4,6.56,6.56,0,0,0-2.3.4c-4.3,1.6-3.9,6.7-6.2,10.2A7.06,7.06,0,0,0,117.8,175.8Zm-10.9,2.8c2.5-.5,3.8-2.1,4.8-4s1.4-4.1,2.4-5.8a6,6,0,0,0-4.4-.6c-2.2.5-3.4,2.1-4.4,3.9s-1.7,4-3,5.5A5.81,5.81,0,0,0,106.9,178.6ZM95.6,180a6.43,6.43,0,0,0,3.2-1.1,9.3,9.3,0,0,0,2.1-2.3c1.1-1.8,1.9-3.8,3.1-5.4a6.21,6.21,0,0,0-4.3-1.1c-4.5.5-5.5,5.5-8.5,8.4A6.18,6.18,0,0,0,95.6,180Zm-11.2,0a6.29,6.29,0,0,0,5.6-2.7c1.3-1.6,2.4-3.6,3.7-5a5.9,5.9,0,0,0-4.1-1.7c-4.6-.1-6.1,4.8-9.5,7.2A5.67,5.67,0,0,0,84.4,180Zm-11.3-1.4a5.86,5.86,0,0,0,3.3-.3,9,9,0,0,0,2.6-1.7c1.5-1.4,2.8-3.2,4.3-4.5a5.79,5.79,0,0,0-1.7-1.4,4.81,4.81,0,0,0-2.2-.8c-4.5-.6-6.7,4-10.3,6A5.84,5.84,0,0,0,73.1,178.6Zm-10.9-2.8a6.53,6.53,0,0,0,6.1-1.2c1.7-1.3,3.2-2.9,4.8-3.9a5.46,5.46,0,0,0-3.6-2.6c-2.2-.6-4,.2-5.7,1.3s-3.4,2.6-5.3,3.3A6.79,6.79,0,0,0,62.2,175.8Zm-10.5-4.2a6.46,6.46,0,0,0,6.2-.4c1.8-1,3.5-2.4,5.3-3.3a5.9,5.9,0,0,0-3.2-3c-4.2-1.7-7.5,2.2-11.5,3.2A5.73,5.73,0,0,0,51.7,171.6Zm-11.8-7.2a5.52,5.52,0,0,0,1.9,1.8c4.4,2.8,8.1-1.1,11.8-2.2a5.82,5.82,0,0,0-2.8-3.4,4.62,4.62,0,0,0-2.9-.7,7.53,7.53,0,0,0-2.9.6c-2,.7-3.9,1.7-6,1.9A11.33,11.33,0,0,0,39.9,164.4Zm-7.3-4.9c4.1,3.3,8.2,0,12-.8a5.94,5.94,0,0,0-2.3-3.8c-3.6-2.7-7.8.3-11.9.3A6.67,6.67,0,0,0,32.6,159.5Zm-8.2-7.8a6.51,6.51,0,0,0,5.9,1.9c2.1-.2,4.2-1,6.1-1.1a5.9,5.9,0,0,0-1.8-4,6.49,6.49,0,0,0-5.6-1.6,32.83,32.83,0,0,1-6.2.4A5.65,5.65,0,0,0,24.4,151.7ZM17.2,143a6.39,6.39,0,0,0,5.6,2.6c2.1,0,4.3-.5,6.2-.3a5.57,5.57,0,0,0-1.3-4.2c-1.4-1.8-3.3-2.2-5.4-2.3s-4.3.1-6.2-.4A5.8,5.8,0,0,0,17.2,143Zm-6.1-9.6a6.76,6.76,0,0,0,5.3,3.3c2.1.3,4.2.1,6.2.5a6.09,6.09,0,0,0-.8-4.3,6.59,6.59,0,0,0-5.1-2.9c-2-.4-4.2-.4-6.1-1.2A5.84,5.84,0,0,0,11.1,133.4ZM6.3,123.2c2,4.8,7.2,3.9,10.9,5.1a6.71,6.71,0,0,0-.2-4.4,5.09,5.09,0,0,0-2-2.3,8.25,8.25,0,0,0-2.7-1.2c-1-.3-2-.5-3.1-.8a14.46,14.46,0,0,1-2.9-1.1A6.32,6.32,0,0,0,6.3,123.2ZM2.8,112.4c1.4,5,6.7,4.8,10.2,6.5a5.55,5.55,0,0,0,.3-4.4c-1.3-4.4-6.4-4.4-9.8-6.8A6.12,6.12,0,0,0,2.8,112.4ZM.7,101.3a6.37,6.37,0,0,0,3.7,5c1.8,1,4,1.7,5.6,2.7a6.26,6.26,0,0,0,.9-4.3c-.4-2.3-1.8-3.5-3.6-4.6A32,32,0,0,1,2,96.7,6.31,6.31,0,0,0,.7,101.3ZM0,90c.1,5.2,5.3,6.3,8.3,8.8a6.11,6.11,0,0,0,1.4-4.2c-.1-2.3-1.4-3.7-3-5s-3.5-2.4-4.8-4A6,6,0,0,0,0,90ZM1.5,76.3a6.19,6.19,0,0,0-.8,2.4C.3,81.3,1.6,83,3,84.5s3.4,2.6,4.8,4a6.07,6.07,0,0,0,1.9-4,6,6,0,0,0-.6-3,9.58,9.58,0,0,0-1.7-2.4c-.7-.7-1.5-1.4-2.3-2.2a15.91,15.91,0,0,1-2-2.4A9.34,9.34,0,0,0,1.5,76.3Zm1.3-8.7c-1.2,5,3.6,7.4,5.8,10.6A6.06,6.06,0,0,0,11,74.5c.5-2.3-.4-4-1.7-5.6s-2.8-3.2-3.7-5.1A6,6,0,0,0,2.8,67.6ZM6.3,56.8A6.43,6.43,0,0,0,7.1,63c1.1,1.8,2.7,3.4,3.6,5.1a5.65,5.65,0,0,0,2.8-3.4,6.92,6.92,0,0,0-.9-5.8c-1-1.8-2.4-3.5-3-5.5A6.12,6.12,0,0,0,6.3,56.8Zm4.8-10.2c-2.4,4.6,1.6,8.1,3,11.7a5.53,5.53,0,0,0,3.2-3c2-4.1-1.7-7.6-2.5-11.7A6.2,6.2,0,0,0,11.1,46.6ZM17.2,37A7.1,7.1,0,0,0,16,40.1a6.75,6.75,0,0,0,.5,3.1c.6,2,1.7,3.9,2.2,5.8a6,6,0,0,0,3.6-2.6c2.5-3.8-.8-7.8-1-11.9A6.06,6.06,0,0,0,17.2,37Zm7.2-8.7c-1.8,1.9-1.8,4-1.5,6s1.3,4.1,1.5,6.1a5.86,5.86,0,0,0,3.9-2.1c1.5-1.7,1.5-3.7,1.3-5.7a32.91,32.91,0,0,1-.8-6.2A5.71,5.71,0,0,0,24.4,28.3Zm8.2-7.8a6.48,6.48,0,0,0-2.2,5.8c.1,2.1.7,4.2.7,6.2a6.08,6.08,0,0,0,4.1-1.6,6.4,6.4,0,0,0,1.9-5.5c0-2-.4-4.2,0-6.3A6.3,6.3,0,0,0,32.6,20.5Zm9.2-6.6a6.3,6.3,0,0,0-2.9,5.5c-.2,2.1.2,4.3-.1,6.2a5.75,5.75,0,0,0,4.3-1.1,6.63,6.63,0,0,0,2.6-5.2,30.92,30.92,0,0,1,.8-6.2A5.44,5.44,0,0,0,41.8,13.9Zm9.9-5.5c-4.7,2.3-3.4,7.5-4.4,11.2a6.24,6.24,0,0,0,4.4-.5c4-2.1,3.1-7.2,4.8-10.9A5.79,5.79,0,0,0,51.7,8.4ZM62.2,4.2A7.14,7.14,0,0,0,59.4,6,7.76,7.76,0,0,0,58,8.7c-.7,2-.9,4.2-1.6,6a5.22,5.22,0,0,0,2.1.4,6.56,6.56,0,0,0,2.3-.4C65.1,13.1,64.7,8,67,4.5A7.06,7.06,0,0,0,62.2,4.2ZM73.1,1.4c-2.5.5-3.8,2.1-4.8,4C67.5,7.3,67,9.5,66,11.2a6,6,0,0,0,4.4.6c2.2-.5,3.4-2.1,4.4-3.9s1.7-4,3-5.5A6.16,6.16,0,0,0,73.1,1.4ZM84.4,0a6.43,6.43,0,0,0-3.2,1.1,9.3,9.3,0,0,0-2.1,2.3C78,5.2,77.2,7.2,76,8.8a6.21,6.21,0,0,0,4.3,1.1c4.5-.5,5.5-5.5,8.5-8.4A6.18,6.18,0,0,0,84.4,0ZM95.6,0A6.29,6.29,0,0,0,90,2.7c-1.3,1.6-2.4,3.6-3.7,5a5.9,5.9,0,0,0,4.1,1.7c4.6.1,6.1-4.8,9.5-7.2A5.67,5.67,0,0,0,95.6,0Zm11.3,1.4a5.86,5.86,0,0,0-3.3.3A9,9,0,0,0,101,3.4c-1.5,1.4-2.8,3.2-4.3,4.5a5.79,5.79,0,0,0,1.7,1.4,4.81,4.81,0,0,0,2.2.8c4.5.6,6.7-4,10.3-6A5.84,5.84,0,0,0,106.9,1.4Zm10.9,2.8a6.53,6.53,0,0,0-6.1,1.2c-1.7,1.3-3.2,2.9-4.8,3.9a5.46,5.46,0,0,0,3.6,2.6c2.2.6,4-.2,5.7-1.3s3.4-2.6,5.3-3.3A6.79,6.79,0,0,0,117.8,4.2Zm10.5,4.2a6.46,6.46,0,0,0-6.2.4c-1.8,1-3.5,2.4-5.3,3.3a5.9,5.9,0,0,0,3.2,3c4.2,1.7,7.5-2.2,11.5-3.2A5.73,5.73,0,0,0,128.3,8.4Zm11.8,7.2a5.52,5.52,0,0,0-1.9-1.8c-4.4-2.8-8.1,1.1-11.8,2.2a5.82,5.82,0,0,0,2.8,3.4,4.62,4.62,0,0,0,2.9.7,7.53,7.53,0,0,0,2.9-.6c2-.7,3.9-1.7,6-1.9A11.33,11.33,0,0,0,140.1,15.6Zm7.3,4.9c-4.1-3.3-8.2,0-12,.8a5.94,5.94,0,0,0,2.3,3.8c3.6,2.7,7.8-.3,11.9-.3A6.67,6.67,0,0,0,147.4,20.5Zm8.2,7.8a6.51,6.51,0,0,0-5.9-1.9c-2.1.2-4.2,1-6.1,1.1a5.9,5.9,0,0,0,1.8,4,6.49,6.49,0,0,0,5.6,1.6,32.83,32.83,0,0,1,6.2-.4A5.65,5.65,0,0,0,155.6,28.3Zm7.2,8.7a6.39,6.39,0,0,0-5.6-2.6c-2.1,0-4.3.5-6.2.3a5.57,5.57,0,0,0,1.3,4.2c1.4,1.8,3.3,2.2,5.4,2.3s4.3-.1,6.2.4A5.8,5.8,0,0,0,162.8,37Zm6.1,9.6a6.76,6.76,0,0,0-5.3-3.3c-2.1-.3-4.2-.1-6.2-.5a6.09,6.09,0,0,0,.8,4.3,6.59,6.59,0,0,0,5.1,2.9c2,.4,4.2.4,6.1,1.2A5.84,5.84,0,0,0,168.9,46.6Zm4.8,10.2c-2-4.8-7.2-3.9-10.9-5.1a6.71,6.71,0,0,0,.2,4.4,5.09,5.09,0,0,0,2,2.3,8.25,8.25,0,0,0,2.7,1.2c1,.3,2,.5,3.1.8a14.46,14.46,0,0,1,2.9,1.1A6.32,6.32,0,0,0,173.7,56.8Zm3.5,10.8c-1.4-5-6.7-4.8-10.2-6.5a5.55,5.55,0,0,0-.3,4.4c1.3,4.4,6.4,4.4,9.8,6.8A6.12,6.12,0,0,0,177.2,67.6Zm2.1,11.1a6.37,6.37,0,0,0-3.7-5c-1.8-1-4-1.7-5.6-2.7a6.26,6.26,0,0,0-.9,4.3c.4,2.3,1.8,3.5,3.6,4.6a32,32,0,0,1,5.3,3.4A6.31,6.31,0,0,0,179.3,78.7Z" transform="translate(0 0.02)"/></g></svg>