<?xml version="1.0" encoding="utf-8"?>
<!-- Generator: Adobe Illustrator 25.1.0, SVG Export Plug-In . SVG Version: 6.00 Build 0)  -->
<svg version="1.1" id="Layer_1" xmlns="http://www.w3.org/2000/svg" xmlns:xlink="http://www.w3.org/1999/xlink" x="0px" y="0px"
	 viewBox="0 0 512 512" style="enable-background:new 0 0 512 512;" xml:space="preserve">
<style type="text/css">
	.st0{fill:#FFFFFF;}
	.st1{fill:#FF0000;}
	.st2{fill:#005D8D;}
</style>
<g>
	<path d="M160.1,203c-1-1-2.5-1.7-4-1.7c-0.5,0-1,0-1.6,0c-7.7,0-25.4,1.5-57.7,11.5l-6.5,2c-0.1-0.8-0.1-1.6-0.3-2.4
		c-0.4-2-1.5-3.7-2.9-5c-0.3-0.3-0.8-0.6-1.2-0.9c-0.5-0.7-1-1.3-1.6-1.9c-2-1.8-5-2.6-10.5-2.6c-0.6,0-1.1,0-1.7,0H72l-5.2,0.3
		h-0.1l-4,0.4h-0.1c-16.6,1.6-47.5,8.4-56.5,10.5l0,0c-3,0.7-5.1,3.3-5.1,6.4v78.9l0,0c0,1.3,0.4,2.6,1.3,3.7l0,0
		c1.3,1.4,2.6,2.7,4,3.9l0,0c1,0.8,2.3,1.2,3.6,1.2c0.4,0,0.9-0.1,1.3-0.1c8.9-2,39.1-8.8,55.1-10.3h0.1h0.1
		c0.9-0.1,2.3-0.2,3.2-0.3l7.9-0.3c0.7,0,1.3,0.1,1.7,0.1c0,0.8,0.1,1.7,0.1,3.2c0,0.4,0,1.1-0.1,2.3l0,0c-0.1,1.6,0.4,3.1,1.5,4.3
		c0.4,0.4,2.4,2.4,2.8,2.8l0,0c1.1,1.1,2.6,1.8,4.2,1.8c0.6,0,1.2-0.1,1.7-0.3l8.4-2.6l0.7-0.2l2.4-0.8c33-10.3,50.3-11.4,56.2-11.4
		c0.5,0,1,0,1.4,0h0.2l0,0c3.3,0,5.9-2.6,5.9-5.9v-79.2l0,0c0-1.4-0.4-2.7-1.3-3.8C163,205.7,160.7,203.5,160.1,203L160.1,203z"/>
	<path class="st0" d="M156,205.5c-5.3-0.2-22.7,0.4-57.9,11.3l-10,3.1c-1.7,0.5-3.1,1-4.4,1.3c0-1.3,0-2.6-0.1-3.7
		c-0.1-3.8-0.2-6.3-0.4-6.9l0,0c-0.2-1.1-0.8-2.2-1.7-2.9c-1.3-1.2-4.5-1.5-9.2-1.4l-5.2,0.3l-4,0.4c-16.6,1.5-48.2,8.6-56,10.3l0,0
		c-1,0.2-1.8,1.2-1.8,2.3v78.9l0,0c0,1,0.8,1.8,1.8,1.8c0.1,0,0.3,0,0.4-0.1c8.5-2,39.3-8.9,55.6-10.4c0.9-0.1,2.5-0.3,3.5-0.3
		l8.2-0.3c3.3,0.1,5.8,0.5,6.8,1.4c0.8,0.8,1.5,1.8,1.7,2.9c0.3,2,0.3,3.9,0.3,5.9c0,0.8,0,1.8-0.1,2.7l0,0
		c-0.1,0.8,0.6,1.6,1.5,1.7c0.2,0,0.3,0,0.6-0.1l8.4-2.6l3.2-1c36-11.3,53.7-11.8,59-11.6l0,0c1,0,1.7-0.7,1.7-1.7v-0.1v-79.3l0,0
		C157.9,206.3,157.1,205.5,156,205.5L156,205.5z"/>
	<path class="st1" d="M97,227.6c44.3-13.8,60.8-11.5,60.8-11.5v-8.6l0,0c0-1-0.8-1.9-1.9-1.9c-5.3-0.2-22.7,0.4-57.9,11.3L88,220
		c-1.7,0.5-3.1,1-4.4,1.3c0-1.3,0-2.6-0.1-3.7c-0.1-3.8-0.2-6.3-0.4-6.9l0,0c-0.2-1.1-0.8-2.2-1.7-2.9c-1.3-1.2-4.5-1.5-9.2-1.4
		l-5.2,0.3l-4,0.3c-0.2,3.2-0.4,7-0.6,10.5c1.4-0.1,2.8-0.3,4.1-0.4l8.2-0.3c3.3,0.1,5.8,0.5,6.8,1.5c0.8,0.8,1.5,1.8,1.7,2.9
		c0.3,2,0.3,3.9,0.3,5.9c0.1,1.7-0.2,4.7-0.3,4.9c0-0.2-0.1-0.3-0.1-0.6c-0.2-1.1-0.8-2.2-1.7-2.9c-1.3-1.2-4.5-1.5-9.2-1.4
		l-5.2,0.3l-4.2,0.3c-0.2,3.2-0.4,7-0.6,10.5c1.4-0.1,2.8-0.3,4.1-0.4l8.2-0.3c3.3,0.1,5.8,0.5,6.8,1.5c0.8,0.8,1.4,1.8,1.7,2.9l0,0
		c0.3,2,0.3,3.9,0.3,5.9c0.1,1.7-0.2,4.7-0.3,4.9c0-0.2-0.1-0.3-0.1-0.6l0,0c-0.2-1.1-0.8-2.2-1.7-2.9c-1.3-1.2-4.5-1.5-9.2-1.4
		l-5.2,0.3l-4.2,0.3c-0.2,3.2-0.4,7-0.6,10.5c1.4-0.1,2.8-0.3,4.1-0.4l8.2-0.3c3.3,0.1,5.8,0.5,6.8,1.4c0.8,0.8,1.5,1.8,1.7,2.9
		c0.3,2,0.4,3.9,0.3,5.9c0.1,1.7-0.2,4.7-0.3,4.9l0,0c0-0.2-0.1-0.3-0.1-0.6l0,0c-0.2-1.1-0.8-2.2-1.7-2.9c-1.3-1.2-4.5-1.5-9.2-1.4
		l-5.2,0.3L63,269c-19,1.8-57.8,10.9-57.8,10.9v10.5c0,0,38.1-8.9,57.2-10.9c1.4-0.1,2.8-0.3,4.1-0.4l8.2-0.3
		c3.3,0.1,5.8,0.5,6.8,1.5c0.8,0.8,1.5,1.8,1.7,2.9c0.3,2,0.3,3.9,0.3,5.8l0,0c0,1.7-0.1,3.3-0.3,4.9l10.6-3.3l3.2-1
		c44.3-13.8,60.8-11.5,60.8-11.5v-10.5c0,0-16.3-2.3-59.8,11.2l-10,3.1c-1.7,0.5-3.1,1-4.4,1.3c0-1.3,0-2.6-0.1-3.7
		c-0.1-3.1-0.1-5.3-0.3-6.3l10.6-3.3l3.2-1c44.3-13.8,60.8-11.5,60.8-11.5v-10.5c0,0-16.3-2.3-59.8,11.2l-10,3.1
		c-1.7,0.5-3.1,1-4.4,1.3c0-1.3,0-2.6-0.1-3.7c-0.1-3.1-0.1-5.3-0.3-6.3l10.6-3.3l3.2-1c44.3-13.8,60.8-11.5,60.8-11.5v-10.5
		c0,0-16.3-2.3-59.8,11.2l-10,3.1c-1.7,0.5-3.1,1-4.4,1.3c0-1.3,0-2.6-0.1-3.7c-0.1-3.1-0.1-5.3-0.3-6.3l10.6-3.3L97,227.6z"/>
	<path class="st2" d="M7,217.4L7,217.4c-1,0.3-1.8,1.2-1.8,2.3v50c0,0,38.8-9.1,57.8-10.9V207C46.4,208.6,14.9,215.6,7,217.4
		L7,217.4z M19.6,261.1l-3.3-2.4l-3.1,2.8l1.3-3.9l-3.6-2l4.1,0.1l0.8-4l1.2,3.9l4.1-0.5l-3.3,2.4L19.6,261.1z M17.9,242.2l1.7,3.8
		l-3.3-2.5l-3.1,2.8l1.3-3.9l-3.5-2l4.1,0.1l0.8-4l1.2,3.9l4.1-0.5L17.9,242.2z M17.9,227l1.7,3.8l-3.3-2.5l-3.1,2.8l1.3-3.9l-3.6-2
		l4.1,0.1l0.8-4l1.2,3.9l4.1-0.5L17.9,227z M37.5,257.3l-3.3-2.4l-3.1,2.8l1.3-3.9l-3.6-2l4.1,0.1l0.8-4l1.2,3.9l4.1-0.4l-3.3,2.4
		L37.5,257.3z M35.8,238.3l1.7,3.8l-3.3-2.4l-3.1,2.8l1.3-3.9l-3.6-2l4.1,0.1l0.8-4l1.2,3.9l4.1-0.5L35.8,238.3z M35.8,223.1
		l1.7,3.8l-3.3-2.5l-3.1,2.8l1.3-3.9l-3.6-2l4.1,0.1l0.8-4l1.2,3.9l4.1-0.5L35.8,223.1z M55.4,253.5l-3.3-2.4l-3,2.8l1.4-3.9l-3.6-2
		l4.1,0.1l0.8-4L53,248l4-0.5l-3.3,2.4L55.4,253.5z M53.8,234.5l1.7,3.8l-3.3-2.4l-3,2.8l1.4-3.9l-3.6-2l4.1,0.1l0.8-4l1.2,3.9
		l4-0.5L53.8,234.5z M53.8,219.3l1.7,3.8l-3.3-2.4l-3,2.8l1.4-3.9l-3.6-2l4.1,0.1l0.8-4l1.2,3.9l4-0.5L53.8,219.3z"/>
	<path d="M507.4,259.9l2.5-6.3l0,0c1-2.6,0.4-5.6-1.6-7.5c-2.7-2.7-6.1-6.1-6.6-6.4l0,0c-2.5-1.6-5.3-2.9-8.2-3.7l0,0
		c-2.9-0.8-5.9-1.3-8.9-1.3l0,0c-3.5-0.1-6.9,0.6-10.2,1.8l0,0c-2,0.8-3.8,1.9-5.5,3.2c-0.6-0.6-1.1-1.1-1.5-1.3
		c-3.1-2.4-7-3.7-11.7-3.7l0,0c-2.6,0-5.2,0.4-7.6,1.4l0,0c-0.9-0.4-1.9-0.6-2.9-0.6h-2v-3.8l0,0c0-2-0.8-3.9-2.3-5.2l-0.8-0.8
		c-3.4-3.5-4.7-4.7-4.9-4.9l0,0c-1.3-1-2.8-1.6-4.5-1.6h-12.3c-2.9,0-5.4,1.7-6.5,4.3l0,0c-3.6-1.5-7.4-2.2-11.2-2.2h-22.6l0,0
		c-3.8,0-7,3.1-7,7v9.3c-3.6-2-7.5-3.1-11.6-2.9c-2.1,0-4.3,0.3-6.3,0.8V234c0-1.9-0.8-3.6-2-4.9c-0.9-0.9-5.4-5.4-5.8-5.8
		c-1.3-1.2-3-1.9-4.7-1.9h-11.8l0,0c-3.8,0-7,3.1-7,7v8.4l0,0c-3.6-1.5-7.3-2.2-11.2-2.1l0,0c-3.3,0-6.6,0.5-9.7,1.4l0,0
		c-2.4,0.6-4.6,1.5-6.8,2.5c-4.7-2.6-9.9-3.9-15.2-3.9c-3.5-0.1-6.9,0.6-10.1,1.8l0,0c-2.5,1-4.9,2.4-6.8,4.4
		c-4-4.1-9.3-6.2-15.8-6.2l0,0c-2.4,0-4.7,0.3-7,1V234l0,0c0-1.8-0.7-3.5-1.9-4.7c-0.4-0.5-5.4-5.4-5.9-5.9c-1.3-1.3-3-1.9-4.8-1.9
		h-11.8l0,0c-3.8,0-7,3.1-7,7v9.6c-0.3-0.1-0.6-0.3-0.9-0.5l0,0c-8-3.8-17.2-3.8-25.2,0l0,0c-1.7,0.9-3.4,2-4.9,3.3
		c-1-1-2.2-2.2-2.8-2.6c-2.6-2-5.8-3.1-9.1-3.4V234l0,0c0-1.7-0.6-3.3-1.7-4.6c-0.4-0.5-5.6-5.8-6.4-6.3l0,0c-1.3-1-2.8-1.5-4.4-1.5
		h-23.4c-3,0-5.6,1.9-6.6,4.7l-1.6,4.8c-0.3-0.7-0.8-1.4-1.3-2l-5.6-5.6l0,0c-1.3-1.3-3.1-2-4.9-2h-8.4c-3-0.1-5.6,1.8-6.7,4.6
		l-1.7,4.8c-0.4-0.8-1-1.5-1.7-2.2l-2.8-2.8c-2-2-2.6-2.6-2.6-2.6c-1.3-1.3-3-1.9-4.7-1.9H68.4l0,0c-3.8,0-7,3.1-7,7
		c0,0.8,0.1,1.6,0.4,2.4l16.6,46.6c0.3,0.8,0.7,1.5,1.2,2.1c0.6,0.6,5.9,6,6.5,6.5l0,0c1.3,1,2.9,1.6,4.5,1.6h9.8l0,0
		c2.9,0,5.6-1.9,6.6-4.6l1.6-4.5c0.1,0.3,0.3,0.6,0.6,0.8c0.6,0.8,6.1,6.2,6.7,6.8l0,0c1.3,1,2.8,1.5,4.3,1.5h9.7l0,0
		c2.9,0,5.6-1.9,6.6-4.6l0.7-2c2,2.1,4.9,4.9,5.2,5l0,0c1.3,1,2.8,1.5,4.4,1.5h11.8l0,0c1.8,0,3.6-0.8,4.9-2
		c0.2,0.2,0.4,0.3,0.6,0.5l0,0c1.3,1,2.8,1.5,4.4,1.5h11.8l0,0c2.4,0,4.6-1.3,5.9-3.3c0.6,0.3,1.1,0.7,1.7,1l0,0
		c8,3.8,17.3,3.8,25.2,0c0.6-0.3,1.1-0.6,1.7-0.9c0.7,0.7,1.5,1.4,1.5,1.4l0,0c1.3,1.2,3,1.9,4.7,1.9h11.8l0,0
		c2.6,0,4.9-1.4,6.1-3.7l0,0c0.8,0.6,1.6,1,2.4,1.5l0,0c4,2,8.4,2.9,12.8,2.8l0,0c3,0,6-0.4,8.9-1.3l0,0c1.7-0.6,3.5-1.3,5.2-2.1
		l0,0c1.9,0.9,3.9,1.7,6,2.2c3.4,0.8,6.8,1.3,10.4,1.2c6,0,10.9-1.4,14.7-4.1l0.3-0.3l0,0c1,0.9,2.2,1.7,3.5,2.2l0,0
		c2.9,1.4,6,2.1,9.2,2.1l0,0c2,0,4-0.3,5.9-1c0.8,0.3,1.6,0.4,2.4,0.4h11l0,0c1-0.2,2.1-0.2,3.1,0h11.8l0,0c2.4,0,4.7-1.3,6-3.3
		c0.6,0.4,1.3,0.8,2,1.1l0,0c4,2,8.4,2.9,12.8,2.8l0,0c3,0,5.9-0.5,8.8-1.3l0,0c1-0.3,2-0.7,3-1.1c0.1,0.1,0.2,0.2,0.3,0.3
		c1.3,1,2.9,1.6,4.5,1.6h12.2l0,0c3.8,0,7-3.1,7-7v-10.2h3.4l0,0c1.8,0,3.6-0.1,5.4-0.5v4.7l0,0c0,1.6,0.6,3.1,1.5,4.4
		c0.6,0.7,5.9,6,6.6,6.6l0,0c1.3,1,2.9,1.6,4.5,1.6h11.8c0.6,0,1.1-0.1,1.7-0.2l0,0c0.6,0.1,1.1,0.2,1.7,0.2h11.8l0,0
		c1.8,0,3.6-0.8,4.9-2l0.3,0.3l0,0c1.3,1.1,2.9,1.7,4.5,1.7H473l0,0c1.5,0,3-0.5,4.2-1.4c0.8,0.3,1.6,0.5,2.4,0.7l0,0
		c3.4,0.8,6.9,1.3,10.4,1.2c6,0,10.9-1.4,14.7-4.1l0,0c4.3-3,6.8-8,6.8-13.2c0-4.3-1.3-7.9-3.8-10.7L507.4,259.9z"/>
	<path class="st0" d="M500.4,258.8c-0.3-0.3-0.8-0.7-1.2-1c-0.1-0.1-0.3-0.3-0.4-0.5l0,0c0.3-0.3,0.6-0.6,0.7-1l3.1-7.7l0,0
		c0.4-1,0.1-2.2-0.6-3.1l0,0c-0.8-0.8-1.6-1.7-2.5-2.4l0,0c-2.2-1.4-4.5-2.5-7-3.2l0,0c-2.5-0.8-5.2-1.1-7.7-1.1l0,0
		c-2.9-0.1-5.9,0.5-8.6,1.5l0,0c-2.5,0.9-4.7,2.5-6.4,4.6c-0.2,0.3-0.4,0.6-0.6,0.9c-0.1-0.1-0.2-0.3-0.3-0.4
		c-0.6-0.7-3.2-3.3-3.8-3.8c-2.3-1.9-5.4-2.8-9.1-2.8l0,0c-2.5,0-5,0.6-7.2,1.6c-0.3,0.1-0.6,0.3-0.8,0.5c-0.5-0.8-1.4-1.3-2.4-1.3
		h-9.8l0,0c0.1-0.2,0.1-0.5,0.1-0.8v-10.7l0,0c0-0.8-0.3-1.5-1-2.1c-0.3-0.3-1.7-1.8-2.2-2.2l0,0c-0.5-0.4-1.1-0.6-1.7-0.6h-12.3
		l0,0c-1.5,0-2.8,1.3-2.8,2.8v5c-0.3-0.3-0.6-0.7-1-1c-3.4-3.1-8.1-4.7-13.9-4.7h-22.5l0,0c-1.5,0-2.8,1.3-2.8,2.8v18.6
		c-0.1-0.2-0.3-0.4-0.6-0.6c-0.5-0.6-2-1.9-2.1-2.1c-3.3-3.6-7.7-5.4-13.2-5.4l0,0c-3.4-0.1-6.8,0.8-9.8,2.5l0,0
		c-1.5,0.9-2.9,2-4.1,3.3v-14.2c0-0.8-0.3-1.5-0.8-2c-0.3-0.3-1.7-1.8-2.2-2.2c-0.5-0.5-1.2-0.8-1.9-0.8h-11.8l0,0
		c-1.5,0-2.8,1.3-2.8,2.8v17c-0.3-0.3-0.6-0.6-0.9-0.8l0,0c-0.3-0.5-0.8-0.9-1.2-1.3c-3-2.9-7.5-4.3-13.2-4.3l0,0
		c-2.9,0.1-5.8,0.5-8.6,1.3l0,0c-2.8,0.7-5.4,1.7-7.9,3.1l-0.2,0.1l0,0c-0.1-0.1-0.2-0.1-0.3-0.2l0,0c-2.2-1.4-4.5-2.5-7-3.2
		c-2.5-0.8-5.2-1.1-7.8-1.1l0,0c-2.9-0.1-5.9,0.5-8.6,1.5l0,0c-2.5,0.9-4.7,2.5-6.4,4.6l0,0c-0.6,0.8-1,1.6-1.5,2.4
		c-0.3-0.4-0.6-0.8-1-1.2c-0.5-0.6-2-1.9-2.1-2.1c-3.3-3.6-7.7-5.4-13.2-5.4c-3.4-0.1-6.8,0.8-9.8,2.5l0,0c-1.8,1-3.5,2.4-4.8,4v-15
		c0-0.7-0.3-1.4-0.8-1.9c-0.3-0.4-1.8-1.9-2.2-2.2c-0.6-0.5-1.2-0.8-1.9-0.8h-11.8l0,0c-1.5,0-2.8,1.3-2.8,2.8v18.5l0,0
		c-0.4-0.4-0.8-0.8-1.3-1.3c-1.5-1.9-3.5-3.3-5.6-4.5c-6.8-3.1-14.6-3.1-21.5,0l0,0c-2.8,1.4-5.2,3.5-6.9,6.1l0,0
		c-0.3-0.6-0.8-1.3-1.3-1.9c-1.3-1.4-2.6-2.7-4-3.9c-2.3-1.7-5.3-2.6-8.9-2.6l0,0c-1.8,0-3.6,0.3-5.2,0.8v-9l0,0
		c0-0.7-0.3-1.3-0.7-1.9c-0.3-0.4-2-2-2.4-2.4c-0.5-0.4-1.1-0.6-1.7-0.6h-23.4l0,0c-1.2,0-2.2,0.8-2.6,1.9l-6.8,20.1l-6-18
		c-0.1-0.4-0.3-0.8-0.7-1l-2.1-2.1c-0.6-0.6-1.3-0.8-2-0.8H101l0,0c-1.2,0-2.2,0.8-2.6,1.9l-7,19.8l-5.7-17.6
		c-0.1-0.5-0.4-0.9-0.8-1.3c-0.3-0.3-1.7-1.7-2-2c-0.6-0.5-1.2-0.8-1.9-0.8H68.3l0,0c-1.5,0-2.8,1.3-2.8,2.8c0,0.3,0.1,0.6,0.1,0.9
		l16.6,46.6l0,0c0.1,0.3,0.3,0.6,0.5,0.8c0.4,0.5,2.1,2.2,2.4,2.4l0,0c0.5,0.4,1.1,0.6,1.7,0.6h9.8l0,0c1.2,0,2.2-0.8,2.6-1.9
		l6.7-18.7l5.9,16.6c0.1,0.3,0.2,0.6,0.4,0.8l0,0c0.8,0.9,1.7,1.7,2.6,2.6c0.5,0.4,1.1,0.6,1.7,0.6h9.7l0,0c1.2,0,2.2-0.8,2.6-1.9
		l9.2-25.9v23l0,0c0,0.5,0.1,1,0.3,1.4l0,0c0.8,1,1.7,2,2.8,2.9c0.5,0.4,1.1,0.6,1.7,0.6h11.8l0,0c1.5,0,2.8-1.3,2.8-2.8v-18.2l0,0
		c-0.1-1,0.2-1.9,0.8-2.6l0,0c0.3-0.4,0.8-0.6,1.3-0.7c0,0.2,0,0.4,0,0.6v18.7l0,0c0,0.6,0.3,1.3,0.7,1.7c0.8,0.9,1.6,1.7,2.5,2.5
		c0.5,0.4,1.1,0.6,1.7,0.6h11.8l0,0c1.5,0,2.8-1.3,2.8-2.8V272c0.3,0.3,0.8,0.7,1.1,1c1.5,1.8,3.5,3.3,5.6,4.4
		c6.8,3.2,14.6,3.2,21.4,0l0,0c1.8-0.9,3.5-2.2,4.9-3.6v0.6l0,0c0,0.6,0.2,1.2,0.6,1.7c0.4,0.5,2,2.1,2.4,2.4l0,0
		c0.5,0.5,1.2,0.7,1.9,0.8h11.8l0,0c1.5,0,2.8-1.3,2.8-2.8V271c0.6,0.7,1.3,1.4,2,2l0,0c1.6,1.9,3.5,3.3,5.7,4.5l0,0
		c3.4,1.6,7.1,2.4,10.9,2.3l0,0c2.6,0,5.2-0.4,7.7-1.1l0,0c2.2-0.6,4.3-1.6,6.3-2.9l0,0c2.2,1.4,4.5,2.4,7,3l0,0
		c3.1,0.8,6.2,1.1,9.3,1c5.1,0,9.2-1.1,12.3-3.3l0,0c1-0.8,2-1.7,2.8-2.7c0.3,0.2,0.5,0.5,0.8,0.7l0,0c1.3,1.5,2.8,2.8,4.6,3.7
		c2.3,1.1,4.8,1.7,7.3,1.6c2.2,0.1,4.3-0.5,6.2-1.5l0,0c0.6,0.6,1.3,1,2.1,1h11l0,0c1-0.6,2.2-0.6,3.1,0h11.8l0,0
		c1.5,0,2.8-1.3,2.8-2.8v-4.7c0.4,0.4,0.8,0.8,1.3,1.2l0,0c1.6,1.9,3.5,3.4,5.7,4.5l0,0c3.4,1.6,7.2,2.4,10.9,2.4l0,0
		c2.6,0,5.2-0.4,7.7-1.1l0,0c1.7-0.6,3.5-1.3,5.1-2.2c0.3,0.3,1.7,1.7,2.1,2.2c0.5,0.4,1.1,0.6,1.8,0.6H392l0,0
		c1.5,0,2.8-1.3,2.8-2.8v-14.2h7.6c5.4,0,9.8-1.4,13-4v16l0,0c0,0.6,0.2,1.3,0.6,1.7c0.4,0.5,2,2.1,2.4,2.5c0.5,0.4,1.1,0.6,1.8,0.6
		H432l0,0c1-0.8,2.3-0.8,3.3,0h11.8l0,0c1.5,0,2.8-1.3,2.8-2.8v-18.1c-0.1-1,0.2-2,0.8-2.6l0,0c0.3-0.3,0.8-0.6,1.3-0.7
		c0,0.2,0,0.4,0,0.6v18.7l0,0c0,0.6,0.2,1.3,0.6,1.7l0,0c0.8,0.8,1.6,1.7,2.4,2.5c0.5,0.4,1.1,0.7,1.8,0.7h11.6l0,0
		c1.3,0,2.5-1,2.7-2.2c1.5,0.8,3.2,1.3,4.9,1.7l0,0c3.1,0.7,6.2,1.1,9.3,1c5.1,0,9.2-1.1,12.3-3.3l0,0c3.2-2.2,5.1-5.9,5-9.9
		c0-3.5-1-6.3-3.1-8.4L500.4,258.8z"/>
	<path class="st1" d="M129.5,228.2H141l-16.7,46.6h-9.7l-9.8-27.9l-10,27.9H85l-16.6-46.6h12.3l9.7,29.5l10.5-29.5h8.4l10,30.1
		L129.5,228.2z M171.7,245c1.9,2.3,2.9,5.9,2.9,10.5v19.3h-11.8v-18.7c0-2-0.3-3.3-1-4.3l0,0c-0.8-0.9-1.9-1.4-3.1-1.3
		c-1.6-0.1-3.1,0.6-4.2,1.7l0,0c-1.1,1.3-1.7,2.9-1.5,4.5v18.1h-11.8v-46.6H153v18l0,0c1.2-1.5,2.6-2.7,4.4-3.5l0,0
		c1.8-0.8,3.8-1.3,5.8-1.2C166.9,241.5,169.8,242.7,171.7,245L171.7,245z M185.3,273.2L185.3,273.2c-2.6-1.3-4.8-3.4-6.3-5.9
		c-1.5-2.8-2.3-5.9-2.2-9c-0.1-3.1,0.7-6.2,2.2-8.9l0,0c1.5-2.5,3.6-4.6,6.3-5.9l0,0c6-2.7,12.9-2.7,18.9,0l0,0
		c2.6,1.3,4.8,3.3,6.3,5.9c1.5,2.7,2.3,5.9,2.2,9c0.1,3.1-0.7,6.3-2.2,9l0,0c-1.5,2.5-3.6,4.6-6.3,5.9l0,0
		C198.2,276,191.3,276,185.3,273.2L185.3,273.2z M201.1,258.4c0-5.4-2.1-8.2-6.3-8.2s-6.3,2.7-6.3,8.2c0,5.4,2.1,8.2,6.3,8.2
		S201.1,263.8,201.1,258.4z M215.2,274.9v-46.6H227v46.6H215.2z M261.8,260.8h-20.1c0.3,2.1,1.1,3.6,2.3,4.6
		c1.2,0.9,2.9,1.4,5.1,1.4l0,0c3.3-0.1,6.5-1.1,9.2-3l3,7.7l0,0c-1.8,1.3-3.8,2.2-5.9,2.8l0,0c-2.2,0.7-4.5,1-6.9,1l0,0
		c-3.3,0.1-6.7-0.6-9.8-2.1l0,0c-2.6-1.3-4.9-3.3-6.3-5.9c-1.5-2.7-2.3-5.9-2.2-9l0,0c-0.1-3.1,0.7-6.1,2.1-8.8l0,0
		c1.3-2.5,3.3-4.6,5.9-6l0,0c2.6-1.5,5.5-2.2,8.4-2.2c4.7,0,8.4,1.5,11.1,4.5c2.7,3,4.1,7,4.1,12.2V260.8z M241.6,255.3H252
		c-0.3-3.9-2-5.9-5-5.9C243.8,249.4,242,251.4,241.6,255.3L241.6,255.3z M270.1,274.4L270.1,274.4c-2.4-0.6-4.7-1.5-6.7-2.9l3-8
		c1.9,1.2,3.9,2.1,6,2.7s4.3,1,6.5,1l0,0c1,0.1,2-0.1,3-0.6l0,0c0.6-0.3,1-0.9,1-1.5l0,0c0-0.6-0.3-1-0.8-1.3c-1-0.5-2-0.8-3.1-1
		l-5.2-1.2c-3.3-0.8-5.7-1.9-7.2-3.3c-1.5-1.5-2.2-3.6-2.2-6.2l0,0c0-2,0.6-4,1.9-5.5l0,0c1.3-1.7,3.1-3,5.2-3.8l0,0
		c2.4-0.9,5-1.4,7.6-1.3l0,0c2.4,0,4.7,0.3,7,1c2.2,0.6,4.3,1.6,6.3,2.9l-3.1,7.7l0,0c-1.7-1-3.5-2-5.3-2.6l0,0
		c-1.6-0.6-3.3-0.8-5-0.9c-1-0.1-2,0.1-3,0.6l0,0c-0.7,0.3-1,1-1,1.7l0,0c0,0.5,0.3,0.8,0.6,1.1c0.7,0.4,1.5,0.7,2.3,0.8l5.5,1.3
		c3.4,0.8,5.9,1.9,7.5,3.5c1.5,1.6,2.3,3.7,2.3,6.4c0.1,3-1.4,5.9-3.9,7.6c-2.6,1.9-6.1,2.8-10.6,2.8l0,0
		C275.9,275.4,273,275.1,270.1,274.4L270.1,274.4z M322.3,245.1c2.4,2.4,3.7,6,3.7,11v18.7h-11v-4.5l0,0c-0.6,1.5-1.7,2.9-3.1,3.8
		l0,0c-1.6,0.9-3.4,1.4-5.2,1.3l0,0c-2.1,0-4.2-0.4-6.1-1.4l0,0c-1.7-0.8-3.2-2.2-4.3-3.8c-1-1.6-1.6-3.6-1.5-5.4l0,0
		c-0.1-2,0.6-4,1.8-5.6c1.2-1.4,3.1-2.4,5.8-3l0,0c3.5-0.7,7.1-1,10.7-0.9h1.8v-0.8c0-1.6-0.3-2.8-1.1-3.4c-0.8-0.6-2.1-1-4-1l0,0
		c-1.7,0.1-3.6,0.3-5.2,0.9l0,0c-2,0.6-3.8,1.3-5.5,2.3l-3-7.7l0,0c2.2-1.3,4.6-2.2,7.1-2.9l0,0c2.6-0.8,5.2-1.1,7.8-1.2
		C316.1,241.5,319.9,242.7,322.3,245.1L322.3,245.1z M313.3,265.9L313.3,265.9c1-1.2,1.6-2.7,1.5-4.3v-0.8h-1c-2.9,0-4.8,0.3-6,0.8
		l0,0c-1.1,0.3-1.8,1.4-1.8,2.5l0,0c-0.1,0.9,0.3,1.8,1,2.5c0.6,0.7,1.5,1,2.4,1l0,0C310.8,267.5,312.2,266.9,313.3,265.9
		L313.3,265.9z M329.1,274.9v-46.6h11.8v46.6H329.1z M374.9,260.8h-20.1c0.3,2.1,1.1,3.6,2.3,4.6c1.2,0.9,2.9,1.4,5.1,1.4l0,0
		c3.3-0.1,6.5-1.1,9.2-3l3,7.7l0,0c-1.8,1.3-3.8,2.2-5.9,2.8l0,0c-2.2,0.7-4.5,1-6.9,1l0,0c-3.3,0.1-6.7-0.6-9.8-2l0,0
		c-2.6-1.3-4.9-3.3-6.3-5.9l0,0c-1.5-2.7-2.2-5.9-2.2-9l0,0c-0.1-3.1,0.7-6.1,2.1-8.8l0,0c1.3-2.5,3.3-4.6,5.8-6l0,0
		c2.6-1.5,5.5-2.2,8.4-2.2c4.7,0,8.4,1.5,11.1,4.5c2.8,3,4.1,7,4.1,12.2L374.9,260.8z M354.7,255.3h10.4c-0.3-3.9-2-5.9-5-5.9
		S355.2,251.4,354.7,255.3L354.7,255.3z M378.2,228.2h22.6c5.2,0,9.2,1.3,12.1,4c2.9,2.6,4.3,6.3,4.3,11s-1.5,8.3-4.3,10.9
		c-2.9,2.6-6.9,4-12,3.9h-10.4v16.9h-12.2L378.2,228.2L378.2,228.2z M399.1,248.9c2.2,0,3.9-0.5,5-1.4c1-0.9,1.6-2.4,1.6-4.3
		c0-2-0.6-3.4-1.6-4.3c-1.1-1-2.7-1.4-5-1.4h-8.7v11.4H399.1z M418.4,226.1h12.3v10.7h-12.3V226.1z M418.7,274.9v-32.5h11.8v32.5
		H418.7z M464.4,245c1.9,2.3,2.9,5.9,2.9,10.5v19.3h-11.8v-18.7c0-2-0.3-3.3-1-4.3l0,0c-0.8-0.9-1.9-1.4-3.1-1.3
		c-1.6-0.1-3.1,0.6-4.2,1.7l0,0c-1.1,1.3-1.7,2.9-1.5,4.5v18.1h-11.8v-32.5h11.4v4.4l0,0c1.1-1.7,2.6-3,4.4-3.8l0,0
		c1.9-0.9,3.9-1.3,6-1.3C459.6,241.5,462.4,242.7,464.4,245L464.4,245z M475.5,274.4L475.5,274.4c-2.4-0.6-4.7-1.5-6.7-2.9l3-8
		c1.9,1.2,3.9,2.1,6,2.7s4.3,1,6.5,1l0,0c1,0.1,2-0.1,3-0.6l0,0c0.6-0.3,1-0.9,1-1.5l0,0c0-0.6-0.3-1-0.8-1.3l0,0
		c-1-0.5-2-0.8-3.1-1l-5.2-1.2c-3.3-0.8-5.7-1.9-7.2-3.3c-1.5-1.5-2.2-3.6-2.2-6.2c0-2,0.6-4,1.8-5.5l0,0c1.3-1.7,3.1-3,5.2-3.8l0,0
		c2.4-0.9,5-1.4,7.6-1.3l0,0c2.4,0,4.7,0.3,7,1c2.2,0.6,4.4,1.6,6.3,2.9l-3.1,7.7l0,0c-1.7-1-3.5-2-5.3-2.6l0,0
		c-1.6-0.6-3.3-0.9-5.1-0.9l0,0c-1-0.1-2,0.1-3,0.6l0,0c-0.7,0.3-1.1,1-1,1.7l0,0c0,0.5,0.3,0.9,0.7,1.1l0,0
		c0.7,0.4,1.5,0.7,2.3,0.8l5.5,1.3c3.4,0.8,5.9,1.9,7.5,3.5c1.5,1.6,2.3,3.7,2.3,6.4c0.1,3-1.4,5.9-3.9,7.6
		c-2.6,1.9-6.1,2.8-10.6,2.8l0,0C481.1,275.4,478.2,275.1,475.5,274.4L475.5,274.4z"/>
</g>
</svg>
