<svg id="beaffcb0-d790-41e5-9b0e-6daf5d235343" data-name="Layer 1" xmlns="http://www.w3.org/2000/svg" viewBox="0 0 885.69 123.09"><defs><style>.ab17e0f0-0b0b-473e-a3ea-6782fb41d209{fill:#e13e26;}.bf48dbdd-16fd-464a-8c36-6ad3f9667836{fill:#fff;}</style></defs><rect class="ab17e0f0-0b0b-473e-a3ea-6782fb41d209" width="123.09" height="123.09" rx="11.72"/><path class="bf48dbdd-16fd-464a-8c36-6ad3f9667836" d="M61.54,18.71l13,26.42,29.14,4.23L82.63,69.92l5,29L61.54,85.24,35.48,98.94l5-29L19.36,49.36l29.15-4.23Z"/><path class="bf48dbdd-16fd-464a-8c36-6ad3f9667836" d="M133.63,75.74V11.22h22.29l11.38,47,11.38-47H201V75.74H187.88V25.83h-1.42l-12.62,47H160.75l-12.61-47h-1.45V75.74Z"/><path class="bf48dbdd-16fd-464a-8c36-6ad3f9667836" d="M211.21,75.74V11.22H224.3V75.74Z"/><path class="bf48dbdd-16fd-464a-8c36-6ad3f9667836" d="M271.25,75.74H234.54V11.22h13.09V64.14h23.62Z"/><path class="bf48dbdd-16fd-464a-8c36-6ad3f9667836" d="M275.51,75.74V11.22H288.6V75.74Z"/><path class="bf48dbdd-16fd-464a-8c36-6ad3f9667836" d="M293.06,22.79V11.22h47.42V22.79H323.41v53H310.32V22.79Z"/><path class="bf48dbdd-16fd-464a-8c36-6ad3f9667836" d="M336,75.74l14.51-64.5h24.85l14.51,64.5H376.81l-2.56-11.67H351.69l-2.58,11.67ZM360.69,22l-6.55,30.64h17.64L365.24,22Z"/><path class="bf48dbdd-16fd-464a-8c36-6ad3f9667836" d="M407.82,54.09V75.74H394.69V11.22h25q22.77,0,22.77,21.25,0,12.62-9.49,18.59l9.28,24.68H427.93l-7.49-21.63Zm19.07-14a11.64,11.64,0,0,0,2.27-7.49,10.84,10.84,0,0,0-2.41-7.4,8.82,8.82,0,0,0-7-2.75H407.82V42.9H420q4.65,0,6.93-2.85Z"/><path class="bf48dbdd-16fd-464a-8c36-6ad3f9667836" d="M473.69,75.74H460.56V49.63L440.69,11.22H455.2l11.86,25.7,11.85-25.7h14.52L473.69,49.63Z"/><path class="ab17e0f0-0b0b-473e-a3ea-6782fb41d209" d="M537.38,74.67a88.47,88.47,0,0,1-17.54,2q-7.79,0-12.57-2.13a15.81,15.81,0,0,1-7.4-6.64,30.69,30.69,0,0,1-3.6-10.34,87.64,87.64,0,0,1-1-14.56,89.82,89.82,0,0,1,1-14.65,31.21,31.21,0,0,1,3.6-10.48,15.45,15.45,0,0,1,7.35-6.64Q512,9.15,519.55,9.14a91.39,91.39,0,0,1,17.83,2.09l-.28,6.17A97.8,97.8,0,0,0,520,15.69q-10.44,0-13.8,6.21t-3.37,21.2a90.76,90.76,0,0,0,.62,12,26.49,26.49,0,0,0,2.41,8.21,10.69,10.69,0,0,0,5.27,5.21q3.46,1.58,10.15,1.57a87.3,87.3,0,0,0,15.79-1.71Z"/><path class="ab17e0f0-0b0b-473e-a3ea-6782fb41d209" d="M593.69,43.37q0,17.55-5.59,25.42t-20.35,7.87q-14.75,0-20.34-8.06t-5.6-25.37q0-17.31,5.69-25.7t20.2-8.4q14.52,0,20.25,8.35T593.69,43.37Zm-44.39-.19q0,14.43,3.8,20.73t14.65,6.3q10.86,0,14.61-6.16t3.74-20.68q0-14.5-3.88-21.15t-14.53-6.64q-10.68,0-14.51,6.59t-3.85,21Z"/><path class="ab17e0f0-0b0b-473e-a3ea-6782fb41d209" d="M603.3,75.74V10.08h7.3V75.74Z"/><path class="ab17e0f0-0b0b-473e-a3ea-6782fb41d209" d="M622.84,75.74V10.08H636.5l25.13,59.19h2V10.08h7.21V75.74H657.46L631.94,16.53h-1.8V75.74Z"/><path class="ab17e0f0-0b0b-473e-a3ea-6782fb41d209" d="M701.27,15.49q-14.22,0-14.22,10.72c0,4,1.09,6.72,3.27,8.2s6.61,3,13.28,4.46,11.39,3.41,14.18,5.78S722,50.93,722,56.37q0,20.19-21,20.2A118.84,118.84,0,0,1,683.59,75l-3.41-.48.76-6.07a161.31,161.31,0,0,0,19.63,1.71q14,0,14-13.18,0-5.31-3.08-7.64T700,45.36q-11.1-2.36-15.74-6.11t-4.53-12.57Q679.69,9,700.84,9a116.81,116.81,0,0,1,16.6,1.42l3.22.48L720,17.1a180.59,180.59,0,0,0-18.73-1.61Z"/><path class="bf48dbdd-16fd-464a-8c36-6ad3f9667836" d="M742.25,54.19q0,11.28,11.47,11.28T765.2,54.19v-43h13.09V53.9q0,11.87-6.12,17.41t-18.48,5.54q-12.33,0-18.44-5.54T729.13,53.9V11.22h13.09Z"/><path class="bf48dbdd-16fd-464a-8c36-6ad3f9667836" d="M807.79,21.46q-10.35,0-10.34,6.83A5.16,5.16,0,0,0,800,32.94c1.71,1.08,5.7,2.62,12,4.65s10.7,4.31,13.23,6.87S829,51,829,56.27q0,10.15-6.16,15.37t-16.13,5.21a89.76,89.76,0,0,1-18.11-2.27l-3.42-.67,1.33-10.17A158.23,158.23,0,0,0,806,65.45q10,0,10.06-8.34a5.57,5.57,0,0,0-2.35-4.73q-2.33-1.7-9.24-3.7-11-3.12-15.51-7.44t-4.51-12q0-9.68,5.88-14.42t16.13-4.74A106.72,106.72,0,0,1,824.27,12l3.41.66-1,10.34Q813.29,21.46,807.79,21.46Z"/><path class="bf48dbdd-16fd-464a-8c36-6ad3f9667836" d="M829.6,75.74l14.51-64.5H869l14.51,64.5H870.38l-2.56-11.67H845.25l-2.56,11.67Zm24.66-53.69-6.57,30.62h17.64L858.78,22Z"/><path class="bf48dbdd-16fd-464a-8c36-6ad3f9667836" d="M149.29,113.12a37.12,37.12,0,0,1-7.72.93,14.85,14.85,0,0,1-5.49-.84,6.77,6.77,0,0,1-3.24-2.71,12,12,0,0,1-1.61-4.36,36.76,36.76,0,0,1-.45-6.29q0-8,2.24-11.08c1.5-2.08,4.25-3.13,8.27-3.13a35.44,35.44,0,0,1,8,1.09l-.16,4.44a46.3,46.3,0,0,0-6.65-.6,7.47,7.47,0,0,0-3.78.7A4.4,4.4,0,0,0,137,94a28.25,28.25,0,0,0-.55,6.74q0,4.76,1.11,6.59t4.45,1.84a46.86,46.86,0,0,0,7.09-.57Z"/><path class="bf48dbdd-16fd-464a-8c36-6ad3f9667836" d="M158.34,104.41q0,4.8,4.89,4.8t4.89-4.8V86.13h5.57v18.16q0,5-2.61,7.4c-1.74,1.58-4.36,2.36-7.86,2.36s-6.12-.78-7.86-2.36-2.61-4-2.61-7.4V86.13h5.58Z"/><path class="bf48dbdd-16fd-464a-8c36-6ad3f9667836" d="M187.07,90.49c-2.93,0-4.4,1-4.4,2.9a2.18,2.18,0,0,0,1.09,2,28.66,28.66,0,0,0,5.11,2,14,14,0,0,1,5.64,2.92,6.94,6.94,0,0,1,1.61,5q0,4.31-2.62,6.53a10.3,10.3,0,0,1-6.87,2.22,37.88,37.88,0,0,1-7.72-1l-1.46-.28.57-4.32a65.63,65.63,0,0,0,8.28.73q4.29,0,4.29-3.55a2.37,2.37,0,0,0-1-2,14.12,14.12,0,0,0-3.94-1.57c-3.13-.89-5.33-1.94-6.61-3.17a6.75,6.75,0,0,1-1.92-5.11q0-4.11,2.51-6.13a10.68,10.68,0,0,1,6.87-2,46,46,0,0,1,7.59.81l1.46.28-.45,4.4C191.32,90.74,188.63,90.49,187.07,90.49Z"/><path class="bf48dbdd-16fd-464a-8c36-6ad3f9667836" d="M197.34,91.05V86.13h20.2v4.92h-7.27v22.52h-5.58V91.05Z"/><path class="bf48dbdd-16fd-464a-8c36-6ad3f9667836" d="M239,110.64q-2.57,3.42-8.83,3.41t-8.83-3.41q-2.56-3.4-2.57-10.67t2.57-10.8q2.56-3.53,8.83-3.53T239,89.17q2.56,3.54,2.56,10.8T239,110.64Zm-13.33-3.55q1.2,2.11,4.47,2.12t4.46-2.12c.8-1.41,1.2-3.77,1.2-7.1s-.4-5.74-1.19-7.25-2.29-2.25-4.44-2.25-3.64.75-4.45,2.25-1.21,3.93-1.21,7.25S224.93,105.68,225.69,107.09Z"/><path class="bf48dbdd-16fd-464a-8c36-6ad3f9667836" d="M245.54,113.57V86.13H255l4.85,20,4.85-20h9.5v27.44h-5.55V92.34h-.61l-5.37,20h-5.58l-5.44-20h-.61v21.23Z"/><path class="bf48dbdd-16fd-464a-8c36-6ad3f9667836" d="M304.91,113.12a37.12,37.12,0,0,1-7.72.93,14.9,14.9,0,0,1-5.5-.84,6.8,6.8,0,0,1-3.23-2.71,12.05,12.05,0,0,1-1.62-4.36,37.8,37.8,0,0,1-.44-6.29q0-8,2.24-11.08c1.5-2.08,4.25-3.13,8.26-3.13a35.8,35.8,0,0,1,8.05,1.1l-.17,4.44a46.29,46.29,0,0,0-6.64-.6,7.47,7.47,0,0,0-3.78.7A4.35,4.35,0,0,0,292.69,94a29.32,29.32,0,0,0-.54,6.74q0,4.76,1.11,6.59t4.44,1.84a46.86,46.86,0,0,0,7.09-.57Z"/><path class="bf48dbdd-16fd-464a-8c36-6ad3f9667836" d="M327.39,110.64q-2.56,3.42-8.83,3.41t-8.87-3.41q-2.56-3.4-2.56-10.67t2.56-10.8q2.56-3.53,8.83-3.53t8.83,3.53q2.56,3.54,2.57,10.8T327.39,110.64Zm-13.29-3.55c.79,1.41,2.27,2.12,4.46,2.12s3.67-.71,4.47-2.12,1.19-3.78,1.19-7.1-.4-5.74-1.21-7.25-2.29-2.25-4.45-2.25-3.63.75-4.44,2.25-1.21,3.93-1.21,7.25S313.3,105.68,314.1,107.09Z"/><path class="bf48dbdd-16fd-464a-8c36-6ad3f9667836" d="M333.92,113.57V86.13h5.58v27.44Z"/><path class="bf48dbdd-16fd-464a-8c36-6ad3f9667836" d="M344.69,113.57V86.13h9.41l6.59,22.61h.4V86.13h5.6v27.44h-9.17L350.69,91h-.41v22.6Z"/><path class="bf48dbdd-16fd-464a-8c36-6ad3f9667836" d="M380.31,90.49c-2.94,0-4.41,1-4.41,2.9a2.21,2.21,0,0,0,1.1,2,28.66,28.66,0,0,0,5.11,2,14,14,0,0,1,5.63,2.92,6.89,6.89,0,0,1,1.62,5,8.07,8.07,0,0,1-2.63,6.53,10.3,10.3,0,0,1-6.87,2.22,37.79,37.79,0,0,1-7.71-1l-1.46-.28.57-4.32a65.63,65.63,0,0,0,8.28.73c2.86,0,4.28-1.18,4.28-3.55a2.37,2.37,0,0,0-1-2,14,14,0,0,0-3.94-1.57c-3.12-.89-5.32-1.94-6.6-3.17a6.75,6.75,0,0,1-1.92-5.11q0-4.11,2.5-6.13a10.68,10.68,0,0,1,6.87-2,46.24,46.24,0,0,1,7.6.81l1.45.28-.44,4.4A74.1,74.1,0,0,0,380.31,90.49Z"/><path class="bf48dbdd-16fd-464a-8c36-6ad3f9667836" d="M401.12,113.57V86.13h17.57V91h-12V99h9.77v4.84h-9.77v9.69Z"/><path class="bf48dbdd-16fd-464a-8c36-6ad3f9667836" d="M440.78,110.64q-2.56,3.42-8.83,3.41t-8.83-3.41q-2.56-3.4-2.56-10.67t2.56-10.8q2.56-3.53,8.83-3.53t8.83,3.53q2.57,3.54,2.57,10.8T440.78,110.64Zm-13.29-3.55c.79,1.41,2.27,2.12,4.46,2.12s3.68-.71,4.47-2.12,1.18-3.77,1.19-7.1-.41-5.74-1.21-7.25-2.29-2.25-4.45-2.25-3.64.75-4.44,2.25-1.22,3.93-1.22,7.25S426.69,105.68,427.49,107.09Z"/><path class="bf48dbdd-16fd-464a-8c36-6ad3f9667836" d="M452.88,104.37v9.2h-5.57V86.13H458q9.7,0,9.7,9c0,3.57-1.34,6.21-4,7.91l3.92,10.49h-6.1l-3.19-9.2Zm8.13-6a4.93,4.93,0,0,0,1-3.18A4.6,4.6,0,0,0,461,92a3.75,3.75,0,0,0-3-1.17h-5.09v8.72h5.18a3.55,3.55,0,0,0,2.91-1.2Z"/><path class="bf48dbdd-16fd-464a-8c36-6ad3f9667836" d="M498.69,110.64q-2.56,3.42-8.83,3.41T481,110.64q-2.56-3.4-2.57-10.67T481,89.17q2.57-3.53,8.83-3.53t8.83,3.53q2.56,3.54,2.56,10.8T498.69,110.64Zm-13.3-3.55c.8,1.41,2.28,2.12,4.47,2.12s3.67-.71,4.46-2.12,1.19-3.78,1.19-7.1-.4-5.74-1.21-7.25-2.29-2.25-4.44-2.25-3.64.75-4.45,2.25-1.21,3.93-1.21,7.25.36,5.69,1.15,7.1Z"/><path class="bf48dbdd-16fd-464a-8c36-6ad3f9667836" d="M510.51,104.41q0,4.8,4.89,4.8t4.89-4.8V86.13h5.57v18.16q0,5-2.6,7.4c-1.74,1.58-4.36,2.36-7.86,2.36s-6.13-.78-7.86-2.36-2.61-4-2.61-7.4V86.13h5.58Z"/><path class="bf48dbdd-16fd-464a-8c36-6ad3f9667836" d="M536.37,104.37v9.2h-5.58V86.13h10.67q9.7,0,9.7,9c0,3.57-1.33,6.2-4,7.91l3.92,10.49H545l-3.19-9.2Zm8.12-6a4.87,4.87,0,0,0,1-3.18,4.6,4.6,0,0,0-1-3.15,3.76,3.76,0,0,0-3-1.17H536.4v8.72h5.17a3.55,3.55,0,0,0,2.92-1.2Z"/><path class="bf48dbdd-16fd-464a-8c36-6ad3f9667836" d="M580.53,113.12a37,37,0,0,1-7.71.93,14.9,14.9,0,0,1-5.5-.84,6.8,6.8,0,0,1-3.23-2.71,12.05,12.05,0,0,1-1.62-4.36,36.76,36.76,0,0,1-.44-6.29q0-8,2.24-11.08c1.49-2.08,4.25-3.13,8.26-3.13a35.44,35.44,0,0,1,8,1.09l-.16,4.44a46.29,46.29,0,0,0-6.64-.6,7.47,7.47,0,0,0-3.78.7A4.32,4.32,0,0,0,568.27,94a28.78,28.78,0,0,0-.55,6.74c0,3.17.38,5.37,1.12,6.59s2.22,1.84,4.44,1.84a46.86,46.86,0,0,0,7.09-.57Z"/><path class="bf48dbdd-16fd-464a-8c36-6ad3f9667836" d="M603,110.64q-2.57,3.42-8.83,3.41t-8.83-3.41q-2.57-3.4-2.56-10.67t2.56-10.8q2.57-3.53,8.83-3.53T603,89.17q2.57,3.54,2.57,10.8T603,110.64Zm-13.33-3.55q1.18,2.11,4.46,2.12c2.19,0,3.67-.71,4.47-2.12s1.19-3.78,1.19-7.1-.4-5.74-1.21-7.25-2.29-2.25-4.45-2.25-3.63.75-4.44,2.25-1.21,3.93-1.21,7.25.43,5.69,1.19,7.1Z"/><path class="bf48dbdd-16fd-464a-8c36-6ad3f9667836" d="M614.88,104.41q0,4.8,4.89,4.8t4.89-4.8V86.13h5.58v18.16q0,5-2.61,7.4c-1.74,1.58-4.36,2.36-7.86,2.36s-6.12-.78-7.86-2.36-2.6-4-2.6-7.4V86.13h5.57Z"/><path class="bf48dbdd-16fd-464a-8c36-6ad3f9667836" d="M635.17,113.57V86.13h9.41l6.63,22.6h.41V86.13h5.57v27.44H648L641.15,91h-.4v22.6Z"/><path class="bf48dbdd-16fd-464a-8c36-6ad3f9667836" d="M659.9,91.05V86.13h20.2v4.92h-7.27v22.52h-5.58V91.05Z"/><path class="bf48dbdd-16fd-464a-8c36-6ad3f9667836" d="M688.39,104.37v9.2h-5.58V86.13h10.67q9.69,0,9.7,9c0,3.57-1.33,6.2-4,7.91l3.92,10.49H697l-3.19-9.2Zm8.12-6a4.87,4.87,0,0,0,1-3.18,4.6,4.6,0,0,0-1-3.15,3.76,3.76,0,0,0-3-1.17h-5.12v8.72h5.17a3.55,3.55,0,0,0,3-1.2Z"/><path class="bf48dbdd-16fd-464a-8c36-6ad3f9667836" d="M717.24,113.57h-5.55v-11.1l-8.48-16.34h6.18l5.05,10.93,5-10.93h6.25l-8.41,16.34Z"/><path class="bf48dbdd-16fd-464a-8c36-6ad3f9667836" d="M726.53,96.09l1.9-10h5.7l-3.43,10Z"/><path class="bf48dbdd-16fd-464a-8c36-6ad3f9667836" d="M745.77,90.49c-2.94,0-4.41,1-4.41,2.9a2.21,2.21,0,0,0,1.1,2,28.66,28.66,0,0,0,5.11,2,14,14,0,0,1,5.63,2.92,6.89,6.89,0,0,1,1.62,5,8.07,8.07,0,0,1-2.63,6.53,10.3,10.3,0,0,1-6.87,2.22,37.79,37.79,0,0,1-7.71-1l-1.46-.28.57-4.32a65.63,65.63,0,0,0,8.28.73c2.86,0,4.28-1.18,4.28-3.55a2.37,2.37,0,0,0-1-2,14,14,0,0,0-3.94-1.57c-3.12-.89-5.32-1.94-6.6-3.17a6.75,6.75,0,0,1-1.92-5.11q0-4.11,2.5-6.13a10.68,10.68,0,0,1,6.87-2,46.24,46.24,0,0,1,7.6.81l1.46.28-.45,4.4A75,75,0,0,0,745.77,90.49Z"/><path class="bf48dbdd-16fd-464a-8c36-6ad3f9667836" d="M766.58,113.57V86.13h17.54V91h-12V99h9.78v4.84h-9.78v9.69Z"/><path class="bf48dbdd-16fd-464a-8c36-6ad3f9667836" d="M787.23,113.57V86.13h5.57v27.44Z"/><path class="bf48dbdd-16fd-464a-8c36-6ad3f9667836" d="M798,113.57V86.13h9.41l6.63,22.6h.4V86.13H820v27.44h-9.17L804,91h-.41v22.6Z"/><path class="bf48dbdd-16fd-464a-8c36-6ad3f9667836" d="M825.17,113.57V86.13H843V91h-12.2v6.42h9.78v4.76h-9.78v6.59H843v4.84Z"/><path class="bf48dbdd-16fd-464a-8c36-6ad3f9667836" d="M855.2,90.49c-2.94,0-4.41,1-4.41,2.9a2.23,2.23,0,0,0,1.09,2,28.46,28.46,0,0,0,5.12,2,14.06,14.06,0,0,1,5.63,2.92,6.89,6.89,0,0,1,1.62,5,8.07,8.07,0,0,1-2.63,6.53,10.3,10.3,0,0,1-6.87,2.22,37.88,37.88,0,0,1-7.72-1l-1.45-.28.56-4.32a65.78,65.78,0,0,0,8.29.73q4.27,0,4.28-3.55a2.37,2.37,0,0,0-1-2,14,14,0,0,0-3.94-1.57,16.87,16.87,0,0,1-6.61-3.17,6.74,6.74,0,0,1-1.91-5.11q0-4.11,2.5-6.13a10.68,10.68,0,0,1,6.87-2,46.24,46.24,0,0,1,7.6.81l1.47.27-.44,4.4a77.71,77.71,0,0,0-8-.65Z"/><path class="bf48dbdd-16fd-464a-8c36-6ad3f9667836" d="M865.46,91.05V86.13h20.23v4.92h-7.3v22.52h-5.58V91.05Z"/></svg>