<svg id="b5df165f-33a7-4257-a2cc-4677e0afde15" data-name="Layer 1" xmlns="http://www.w3.org/2000/svg" viewBox="0 0 1355 298.9"><defs><style>.af4e7dea-90ab-49fb-a027-017c42a304ca,.ee01e630-7c10-4d04-a525-a69063df2998{fill:#3ba2db;}.ee01e630-7c10-4d04-a525-a69063df2998{fill-rule:evenodd;}</style></defs><path class="af4e7dea-90ab-49fb-a027-017c42a304ca" d="M1335.3,82.7a13.79,13.79,0,0,0-4.8,4.8,12.82,12.82,0,0,0,0,13.1,13.79,13.79,0,0,0,4.8,4.8,12.51,12.51,0,0,0,6.6,1.7,13.13,13.13,0,0,0,6.5-1.7,13.79,13.79,0,0,0,4.8-4.8A13,13,0,0,0,1354,89a13.43,13.43,0,0,0-2.8-4.2A11.91,11.91,0,0,0,1347,82a12.55,12.55,0,0,0-5.1-1,11.65,11.65,0,0,0-6.6,1.7Zm1.3,20.4a9.91,9.91,0,0,1-3.8-3.8,10.73,10.73,0,0,1,0-10.6,9.91,9.91,0,0,1,3.8-3.8,10.76,10.76,0,0,1,5.3-1.4,11,11,0,0,1,5.3,1.4,9.91,9.91,0,0,1,3.8,3.8,10.73,10.73,0,0,1,0,10.6,9.91,9.91,0,0,1-3.8,3.8,10.73,10.73,0,0,1-10.6,0Zm2-15.5a5.88,5.88,0,0,0-2.3,2.6,8.87,8.87,0,0,0-.8,3.8,8.43,8.43,0,0,0,.9,4,5.61,5.61,0,0,0,2.3,2.5,6.81,6.81,0,0,0,3.1.8,5.92,5.92,0,0,0,6.1-4.5l-2.8-.9c-.6,2-1.6,3-3.2,3a2.79,2.79,0,0,1-1.8-.6,3,3,0,0,1-1.1-1.7,7.89,7.89,0,0,1-.4-2.8,5.93,5.93,0,0,1,.9-3.4,3.17,3.17,0,0,1,2.6-1.3q2.1,0,3,2.4l2.8-.7a5.71,5.71,0,0,0-5.8-4.1,6.51,6.51,0,0,0-3.5.9Z" transform="translate(0 -8.1)"/><path class="af4e7dea-90ab-49fb-a027-017c42a304ca" d="M44.9,36.9A84,84,0,0,0,18.8,58.3a82.31,82.31,0,0,0-14.4,27A86.75,86.75,0,0,0,0,111.2V251.9H68.5V109.6c0-5.6,1.4-10,4.3-13.2s6.5-4.7,11.1-4.7a14.86,14.86,0,0,1,11.3,4.7c2.9,3.1,4.4,7.5,4.4,13.2v19.5h-21V185h21v66.9H168V111.2a86.75,86.75,0,0,0-4.4-25.9,83.91,83.91,0,0,0-14.3-27,81,81,0,0,0-25.9-21.4c-10.6-5.8-23.8-8.6-39.3-8.6S55.6,31.1,44.9,36.9Z" transform="translate(0 -8.1)"/><path class="af4e7dea-90ab-49fb-a027-017c42a304ca" d="M300.2,32V168.3c0,9.4-2.2,16.4-6.5,20.9s-10,6.7-16.7,6.7a21.91,21.91,0,0,1-15.6-6.1c-4.3-4.1-6.4-9.6-6.4-16.5a22.11,22.11,0,0,1,7.4-16.7,26.37,26.37,0,0,1,7.4-4.4,23.6,23.6,0,0,1,8.1-1.5,34.17,34.17,0,0,1,7.9.9,55,55,0,0,1,7.5,2.5V92.3c-3.3-.4-6.7-.7-10-.9S276.2,91,272,91a77,77,0,0,0-31.7,6.3,71.91,71.91,0,0,0-24,17.1,78.58,78.58,0,0,0-15.4,25.4,87.8,87.8,0,0,0-5.5,31.6,90.83,90.83,0,0,0,6.4,34.4,78.32,78.32,0,0,0,43.4,43.6,82,82,0,0,0,31.6,6.1,97.09,97.09,0,0,0,33.3-5.7,72.68,72.68,0,0,0,27.5-17.7c7.8-8.1,14.1-18.4,18.7-31.1s6.9-27.8,6.9-45.4V32Z" transform="translate(0 -8.1)"/><path class="af4e7dea-90ab-49fb-a027-017c42a304ca" d="M418.7,8.1a34.93,34.93,0,0,0-14.3,3,38.58,38.58,0,0,0-11.7,8,35.73,35.73,0,0,0-8,11.8,35.58,35.58,0,0,0,0,28.6,36.79,36.79,0,0,0,8,11.8,39.84,39.84,0,0,0,11.7,8,35.58,35.58,0,0,0,28.6,0,40.32,40.32,0,0,0,11.8-8,38.48,38.48,0,0,0,8-11.8,35,35,0,0,0,3.1-14.3,33.47,33.47,0,0,0-3.1-14.3A37.82,37.82,0,0,0,433,11.1,36.63,36.63,0,0,0,418.7,8.1ZM387.3,251.9h62.8V94.9H387.3Z" transform="translate(0 -8.1)"/><path class="af4e7dea-90ab-49fb-a027-017c42a304ca" d="M514.2,96.4a68.57,68.57,0,0,0-23.1,14.3,58.6,58.6,0,0,0-14,21.2,72.39,72.39,0,0,0-4.7,25.8v94.2h62.8V167.4c0-6.9.9-11.7,2.7-14.5s4.7-4.1,8.6-4.1,6.8,1.4,8.6,4.1,2.7,7.5,2.7,14.5v84.5h62.8V157.7a70.26,70.26,0,0,0-4.7-25.8,57.34,57.34,0,0,0-14-21.2c-6.2-6-13.9-10.7-23.2-14.3s-20-5.4-32.2-5.4c-12.4.1-23.1,1.9-32.3,5.4Z" transform="translate(0 -8.1)"/><path class="af4e7dea-90ab-49fb-a027-017c42a304ca" d="M690.8,97.3a78.17,78.17,0,0,0-26.1,17.8,83.75,83.75,0,0,0-17.6,27.5,94.26,94.26,0,0,0-6.4,35.5,74.4,74.4,0,0,0,6.1,29.9,78.77,78.77,0,0,0,41.8,41.6,76.36,76.36,0,0,0,30.6,6.1c3.1,0,6.4-.2,10-.5s7.4-.7,11.6-1.1V192.5c-3.5,1.2-6.6,2.1-9.1,2.7a36.9,36.9,0,0,1-7.2.8,19.34,19.34,0,0,1-14.1-6.1q-6.3-6.15-6.3-16.5c0-7.1,2.2-12.7,6.5-16.7a22.11,22.11,0,0,1,15.5-6,24.46,24.46,0,0,1,16.2,6c4.7,4,7.1,9.5,7.1,16.7v78.5h63.4V191c0-17.8-2.6-33-7.6-45.5s-11.7-22.9-20.1-30.9a77.37,77.37,0,0,0-28.9-17.8,102.25,102.25,0,0,0-33.9-5.7A82.28,82.28,0,0,0,690.8,97.3Z" transform="translate(0 -8.1)"/><path class="ee01e630-7c10-4d04-a525-a69063df2998" d="M835.1,32h62.8V251.9H835.1Z" transform="translate(0 -8.1)"/><path class="af4e7dea-90ab-49fb-a027-017c42a304ca" d="M953.9,8.1a34.93,34.93,0,0,0-14.3,3,40.32,40.32,0,0,0-11.8,8,37.58,37.58,0,0,0-8.1,11.8,35.58,35.58,0,0,0,0,28.6,38.47,38.47,0,0,0,19.9,19.8,35.58,35.58,0,0,0,28.6,0,40.32,40.32,0,0,0,11.8-8,40.32,40.32,0,0,0,8-11.8,35.58,35.58,0,0,0,0-28.6,37.82,37.82,0,0,0-19.8-19.8A36.63,36.63,0,0,0,953.9,8.1ZM922.4,251.9h62.8V94.9H922.4Z" transform="translate(0 -8.1)"/><path class="af4e7dea-90ab-49fb-a027-017c42a304ca" d="M1049.4,96.4a68.57,68.57,0,0,0-23.1,14.3,58.6,58.6,0,0,0-14,21.2,70.26,70.26,0,0,0-4.7,25.8v94.2h62.8V167.4c0-6.9.9-11.7,2.7-14.5s4.6-4.1,8.6-4.1,6.9,1.4,8.6,4.1,2.7,7.5,2.7,14.5v84.5h62.8V157.7a72.39,72.39,0,0,0-4.7-25.8,57.34,57.34,0,0,0-14-21.2c-6.2-6-13.9-10.7-23.3-14.3s-20-5.4-32.2-5.4S1058.5,92.9,1049.4,96.4Z" transform="translate(0 -8.1)"/><path class="af4e7dea-90ab-49fb-a027-017c42a304ca" d="M1227.6,97a80.5,80.5,0,0,0-25.5,16.7,86.79,86.79,0,0,0-18.1,25.4,74.47,74.47,0,0,0-6.9,32,90.5,90.5,0,0,0,6.2,33.9,81.49,81.49,0,0,0,17.1,26.7,77.59,77.59,0,0,0,26.1,17.6,85.89,85.89,0,0,0,33.3,6.3,101.86,101.86,0,0,0,45.7-10.5,120.42,120.42,0,0,0,36-26.9L1306,182.4a91.58,91.58,0,0,1-17.8,15.1c-6.1,4-13.6,6-22.4,6-10.5,0-18.3-3.4-23.5-10.2s-7.9-15.1-7.9-25a28.88,28.88,0,0,1,2-10.2,39,39,0,0,1,5.4-9.3,29.24,29.24,0,0,1,7.4-6.7,14.17,14.17,0,0,1,7.9-2.7,32.63,32.63,0,0,1,11.3,1.6,25.69,25.69,0,0,1,8.5,5l-31.4,17.3,17.9,31.7,78.2-43a97.76,97.76,0,0,0-11.4-24.7,76,76,0,0,0-17.9-19.2,87.24,87.24,0,0,0-24.5-12.6,100.14,100.14,0,0,0-31.1-4.6,80.26,80.26,0,0,0-29.1,6.1Z" transform="translate(0 -8.1)"/><path class="af4e7dea-90ab-49fb-a027-017c42a304ca" d="M23.7,306.4H18.1a15.14,15.14,0,0,1-6.3-1.3,14.69,14.69,0,0,1-5.3-3.6,17,17,0,0,1-3.6-5.4,16.83,16.83,0,0,1-1.3-6.8,17.31,17.31,0,0,1,1.3-6.9A18.22,18.22,0,0,1,6.5,277a16.07,16.07,0,0,1,5.3-3.6,15.14,15.14,0,0,1,6.3-1.3h5.6v9.7H20.6a8.08,8.08,0,0,0-3.1.5,6.19,6.19,0,0,0-2.5,1.5,6.58,6.58,0,0,0-1.7,2.3,7.45,7.45,0,0,0-.6,3.1,7.31,7.31,0,0,0,.6,3,7.64,7.64,0,0,0,1.7,2.3,7.68,7.68,0,0,0,2.5,1.4,7.49,7.49,0,0,0,3.1.5h3.1Z" transform="translate(0 -8.1)"/><path class="af4e7dea-90ab-49fb-a027-017c42a304ca" d="M36.3,306.4V284.9c0-4.3,1.1-7.5,3.4-9.8s5.5-3.4,9.6-3.4a16.82,16.82,0,0,1,4.4.7,12.16,12.16,0,0,1,3.9,2.1,9.87,9.87,0,0,1,2.8,3.3,7.89,7.89,0,0,1,1.1,4.3,9.24,9.24,0,0,1-.9,3.9,8.45,8.45,0,0,1-2.4,3.2,4.71,4.71,0,0,1,2.9,2.6,9.86,9.86,0,0,1,.9,4.4v10.2H51.4v-8.5a5.39,5.39,0,0,0-.5-2.6c-.4-.5-1.2-.7-2.5-.7v-8.2a6.44,6.44,0,0,0,2.4-.5,1.87,1.87,0,0,0,1-1.9,2.44,2.44,0,0,0-.6-1.8,2,2,0,0,0-1.8-.7,2.55,2.55,0,0,0-1.9.6,3.93,3.93,0,0,0-.6,2.6v21.8Z" transform="translate(0 -8.1)"/><path class="af4e7dea-90ab-49fb-a027-017c42a304ca" d="M96.9,293.4H86a4.31,4.31,0,0,0,1.3,1.9,6.57,6.57,0,0,0,1.7,1.2,7,7,0,0,0,1.9.6,13.55,13.55,0,0,0,2,.2H97v9H91.7a18.56,18.56,0,0,1-6.1-1,15.69,15.69,0,0,1-5.5-3.1,16.58,16.58,0,0,1-5.7-12.9,16.67,16.67,0,0,1,1.6-7.6,15.42,15.42,0,0,1,4.1-5.3,18.89,18.89,0,0,1,5.5-3.2,18.56,18.56,0,0,1,6.1-1H97v9H92.9a15,15,0,0,0-2,.2,7,7,0,0,0-1.9.6,6.57,6.57,0,0,0-1.7,1.2,9.06,9.06,0,0,0-1.3,1.9H96.9Z" transform="translate(0 -8.1)"/><path class="af4e7dea-90ab-49fb-a027-017c42a304ca" d="M121.9,287.4h3.3v-3a3.3,3.3,0,0,0-.7-2.1,2.19,2.19,0,0,0-1.7-.7,2.87,2.87,0,0,0-1.8.7,3.28,3.28,0,0,0-.6,2.1v22H109.8V284.6a12.49,12.49,0,0,1,.7-4,14.09,14.09,0,0,1,2.2-4.2,11.29,11.29,0,0,1,4.1-3.3,15,15,0,0,1,12.2,0,13.1,13.1,0,0,1,4,3.3,12.39,12.39,0,0,1,2.3,4.2,16.05,16.05,0,0,1,.7,4v21.8H125.4V296h-3.3v-8.6Z" transform="translate(0 -8.1)"/><path class="af4e7dea-90ab-49fb-a027-017c42a304ca" d="M145.9,272.3h21.8V282h-5.6v24.3H151.5V282h-5.6Z" transform="translate(0 -8.1)"/><path class="ee01e630-7c10-4d04-a525-a69063df2998" d="M178.7,272.3h10.6v34.1H178.7Z" transform="translate(0 -8.1)"/><path class="af4e7dea-90ab-49fb-a027-017c42a304ca" d="M211.6,272.3l3.3,21.1h.1l3.4-21.1h10.8l-5.7,26.3a18.26,18.26,0,0,1-1.2,4.1,8.22,8.22,0,0,1-1.6,2.6,4.78,4.78,0,0,1-2.3,1.3,11.61,11.61,0,0,1-3.5.4,11.33,11.33,0,0,1-3.4-.4,5.76,5.76,0,0,1-2.3-1.3,7.22,7.22,0,0,1-1.6-2.6,26.43,26.43,0,0,1-1.1-4.1l-5.8-26.3Z" transform="translate(0 -8.1)"/><path class="af4e7dea-90ab-49fb-a027-017c42a304ca" d="M262.5,293.4H251.6a6.89,6.89,0,0,0,1.2,1.9,8.85,8.85,0,0,0,1.7,1.2,6,6,0,0,0,1.9.6,13.55,13.55,0,0,0,2,.2h4.1v9h-5.4a19,19,0,0,1-6.1-1,17.09,17.09,0,0,1-5.6-3.1,15.87,15.87,0,0,1-4-5.4,17.28,17.28,0,0,1-1.6-7.5,16.67,16.67,0,0,1,1.6-7.6,16.48,16.48,0,0,1,4-5.3,18.17,18.17,0,0,1,5.6-3.2,18.56,18.56,0,0,1,6.1-1h5.4v9h-4.1a15,15,0,0,0-2,.2,6,6,0,0,0-1.9.6,6.57,6.57,0,0,0-1.7,1.2,6.15,6.15,0,0,0-1.2,1.9h10.9Z" transform="translate(0 -8.1)"/><path class="af4e7dea-90ab-49fb-a027-017c42a304ca" d="M299,306.4V286.2a20.84,20.84,0,0,1,1-6.6,12.75,12.75,0,0,1,2.8-4.5,10.66,10.66,0,0,1,4-2.6,15.25,15.25,0,0,1,4.9-.8,13.48,13.48,0,0,1,5,.9,10.66,10.66,0,0,1,4,2.6,12.13,12.13,0,0,1,3.6,8.5c0,4.1-1.1,7.2-3.4,9.3s-5.6,3.1-10,3.1v-9.4a4.87,4.87,0,0,0,1.2-.1,3.58,3.58,0,0,0,1.1-.4,5.5,5.5,0,0,0,.9-.7,2.13,2.13,0,0,0,.3-1.2,3.38,3.38,0,0,0-.6-2,1.78,1.78,0,0,0-1.7-.8,2,2,0,0,0-1.9.8,3.81,3.81,0,0,0-.7,2.4v21.5H299Z" transform="translate(0 -8.1)"/><path class="af4e7dea-90ab-49fb-a027-017c42a304ca" d="M335.7,306.4V284.9c0-4.3,1.1-7.5,3.4-9.8s5.4-3.4,9.6-3.4a16.82,16.82,0,0,1,4.4.7,13.32,13.32,0,0,1,3.9,2.1,11.18,11.18,0,0,1,2.8,3.3,8.86,8.86,0,0,1,1.1,4.3,9.24,9.24,0,0,1-.9,3.9,8.45,8.45,0,0,1-2.4,3.2,5.18,5.18,0,0,1,3,2.6,11.52,11.52,0,0,1,.8,4.4v10.2H350.8v-8.5a4.33,4.33,0,0,0-.6-2.6c-.4-.5-1.2-.7-2.5-.7v-8.2a6.35,6.35,0,0,0,2.3-.5,1.94,1.94,0,0,0,1.1-1.9,2.44,2.44,0,0,0-.6-1.8,2.14,2.14,0,0,0-1.8-.7,2.71,2.71,0,0,0-1.9.6,3.93,3.93,0,0,0-.6,2.6v21.8Z" transform="translate(0 -8.1)"/><path class="af4e7dea-90ab-49fb-a027-017c42a304ca" d="M391.3,282.5a8.08,8.08,0,0,0-2.7.5,6.62,6.62,0,0,0-2.2,1.5,5.55,5.55,0,0,0-1.4,2.2,6,6,0,0,0-.6,2.7,5.83,5.83,0,0,0,.6,2.6,6.36,6.36,0,0,0,1.4,2.2,8.55,8.55,0,0,0,2.2,1.5,5.92,5.92,0,0,0,2.7.5,7.51,7.51,0,0,0,2.6-.5,10.71,10.71,0,0,0,2.2-1.5,8.55,8.55,0,0,0,1.5-2.2,7.51,7.51,0,0,0,.5-2.6,8.08,8.08,0,0,0-.5-2.7,10.71,10.71,0,0,0-1.5-2.2,8.55,8.55,0,0,0-2.2-1.5,7.51,7.51,0,0,0-2.6-.5m0-10.8a17.23,17.23,0,0,1,6.8,1.4,17.91,17.91,0,0,1,5.6,3.8,19.79,19.79,0,0,1,3.8,5.6,17.46,17.46,0,0,1,0,13.7,17.91,17.91,0,0,1-3.8,5.6,19.14,19.14,0,0,1-5.6,3.8,17.23,17.23,0,0,1-6.8,1.4,15.35,15.35,0,0,1-6.8-1.4,18,18,0,0,1-9.4-9.4,17.23,17.23,0,0,1-1.4-6.8,17.72,17.72,0,0,1,1.4-6.9,18,18,0,0,1,9.4-9.4,16.52,16.52,0,0,1,6.8-1.4" transform="translate(0 -8.1)"/><path class="af4e7dea-90ab-49fb-a027-017c42a304ca" d="M422.1,306.4V272.3h10.7a19,19,0,0,1,7.3,1.3,15.25,15.25,0,0,1,5.5,3.7,16.55,16.55,0,0,1,3.5,5.7,21.09,21.09,0,0,1,1.2,7.3,16.58,16.58,0,0,1-1.1,5.8,17.38,17.38,0,0,1-3.2,5.2,14.51,14.51,0,0,1-5,3.7,14.78,14.78,0,0,1-6.8,1.4v-9.7a5.42,5.42,0,0,0,3.9-2.1,8.79,8.79,0,0,0,1.4-5.1,12.22,12.22,0,0,0-.3-2.6,6.77,6.77,0,0,0-1.2-2.4,5.1,5.1,0,0,0-2.1-1.7,6.57,6.57,0,0,0-3.2-.7v24.3Z" transform="translate(0 -8.1)"/><path class="af4e7dea-90ab-49fb-a027-017c42a304ca" d="M473.3,272.3v22.5a2.79,2.79,0,0,0,.6,1.8,2.43,2.43,0,0,0,3.6,0,2.79,2.79,0,0,0,.6-1.8V272.3h10.6v23.1a11,11,0,0,1-4,8.5,12.75,12.75,0,0,1-4.1,2.3,13.62,13.62,0,0,1-4.9.8,13.27,13.27,0,0,1-4.9-.8,12.23,12.23,0,0,1-4.2-2.3,10.38,10.38,0,0,1-2.8-3.7,9.45,9.45,0,0,1-1.1-4.8V272.3Z" transform="translate(0 -8.1)"/><path class="af4e7dea-90ab-49fb-a027-017c42a304ca" d="M523.8,306.4h-5.6a15.14,15.14,0,0,1-6.3-1.3,14.33,14.33,0,0,1-5.2-3.6,17,17,0,0,1-3.6-5.4,16.83,16.83,0,0,1-1.3-6.8,17.31,17.31,0,0,1,1.3-6.9,16.49,16.49,0,0,1,3.6-5.4,15.66,15.66,0,0,1,5.2-3.6,15.14,15.14,0,0,1,6.3-1.3h5.6v9.7h-3.2a8.08,8.08,0,0,0-3.1.5,7,7,0,0,0-2.5,1.5,6.58,6.58,0,0,0-1.7,2.3,7.45,7.45,0,0,0-.6,3.1,7.31,7.31,0,0,0,.6,3,7.64,7.64,0,0,0,1.7,2.3,6.77,6.77,0,0,0,2.5,1.4,8.08,8.08,0,0,0,3.1.5h3.2Z" transform="translate(0 -8.1)"/><path class="af4e7dea-90ab-49fb-a027-017c42a304ca" d="M534,272.3h21.9V282h-5.6v24.3H539.7V282H534Z" transform="translate(0 -8.1)"/><path class="af4e7dea-90ab-49fb-a027-017c42a304ca" d="M572.1,296.6a10.4,10.4,0,0,0,3.1-.3c.6-.2.8-.6.8-1.3a1.72,1.72,0,0,0-.8-1.3c-.5-.5-1.2-1-1.9-1.6s-1.6-1.2-2.5-1.9a17.32,17.32,0,0,1-4.5-5.3,8.9,8.9,0,0,1-.8-3.3,10,10,0,0,1,1-4.5,7.29,7.29,0,0,1,2.6-2.9,9.33,9.33,0,0,1,3.7-1.5,20.24,20.24,0,0,1,4.3-.4h9.7v9.5h-6.4a6.51,6.51,0,0,0-2.5.3,1,1,0,0,0-.6.9,1.93,1.93,0,0,0,.8,1.2,11.55,11.55,0,0,0,2,1.5c.9.6,1.7,1.3,2.7,2a29.56,29.56,0,0,1,2.6,2.4,12.09,12.09,0,0,1,2,3,8.63,8.63,0,0,1,.8,3.6,9.57,9.57,0,0,1-.8,3.8,7.62,7.62,0,0,1-2.4,3,11.82,11.82,0,0,1-3.9,1.9,17.45,17.45,0,0,1-5.3.7H565.5v-9.7Z" transform="translate(0 -8.1)"/><path class="af4e7dea-90ab-49fb-a027-017c42a304ca" d="M623.5,306.4V285.6a24.27,24.27,0,0,1,.8-6.6,9.06,9.06,0,0,1,2.6-4.1,8.33,8.33,0,0,1,4.1-2,23.44,23.44,0,0,1,5.6-.6h6.9v9.5h-6.6a2.3,2.3,0,0,0-1.4.4,1.76,1.76,0,0,0-.8.9,5,5,0,0,0-.4,1.3,8.75,8.75,0,0,0-.2,1.6h9.3v8.8h-9.3v11.6Z" transform="translate(0 -8.1)"/><path class="af4e7dea-90ab-49fb-a027-017c42a304ca" d="M672.8,282.5a8.08,8.08,0,0,0-2.7.5,7.82,7.82,0,0,0-2.2,1.5,5.55,5.55,0,0,0-1.4,2.2,7.63,7.63,0,0,0-.5,2.7,7.51,7.51,0,0,0,.5,2.6,11.84,11.84,0,0,0,1.4,2.2,7.12,7.12,0,0,0,2.2,1.5,5.92,5.92,0,0,0,2.7.5,8.57,8.57,0,0,0,2.7-.5,8,8,0,0,0,2.1-1.5,8.55,8.55,0,0,0,1.5-2.2,7.51,7.51,0,0,0,.5-2.6,8.08,8.08,0,0,0-.5-2.7,10.71,10.71,0,0,0-1.5-2.2,8,8,0,0,0-2.1-1.5,8.57,8.57,0,0,0-2.7-.5m0-10.8a17.23,17.23,0,0,1,6.8,1.4,17.91,17.91,0,0,1,5.6,3.8,19.79,19.79,0,0,1,3.8,5.6,17.31,17.31,0,0,1,1.3,6.9,19.13,19.13,0,0,1-1.3,6.8,19.79,19.79,0,0,1-3.8,5.6,17.91,17.91,0,0,1-5.6,3.8,17.23,17.23,0,0,1-6.8,1.4,16.39,16.39,0,0,1-6.9-1.4,18,18,0,0,1-9.4-9.4,17.23,17.23,0,0,1-1.4-6.8,17.72,17.72,0,0,1,1.4-6.9,19.79,19.79,0,0,1,3.8-5.6,16.83,16.83,0,0,1,5.6-3.8,18.1,18.1,0,0,1,6.9-1.4" transform="translate(0 -8.1)"/><path class="af4e7dea-90ab-49fb-a027-017c42a304ca" d="M703.2,306.4V284.9c0-4.3,1.1-7.5,3.3-9.8s5.5-3.4,9.6-3.4a16.82,16.82,0,0,1,4.4.7,13.32,13.32,0,0,1,3.9,2.1,9.87,9.87,0,0,1,2.8,3.3,7.89,7.89,0,0,1,1.1,4.3,9.24,9.24,0,0,1-.9,3.9,9.63,9.63,0,0,1-2.4,3.2,4.71,4.71,0,0,1,2.9,2.6,11.52,11.52,0,0,1,.8,4.4v10.2H718.1v-8.5a5.39,5.39,0,0,0-.5-2.6c-.3-.5-1.2-.7-2.5-.7v-8.2a5.93,5.93,0,0,0,2.3-.5,1.94,1.94,0,0,0,1.1-1.9,2.44,2.44,0,0,0-.6-1.8,2,2,0,0,0-1.8-.7,2.55,2.55,0,0,0-1.9.6,3.93,3.93,0,0,0-.6,2.6v21.8Z" transform="translate(0 -8.1)"/><path class="af4e7dea-90ab-49fb-a027-017c42a304ca" d="M786.7,306.4h-5.6a15.14,15.14,0,0,1-6.3-1.3,14.69,14.69,0,0,1-5.3-3.6,17,17,0,0,1-3.6-5.4,18.71,18.71,0,0,1-1.3-6.8,19.25,19.25,0,0,1,1.3-6.9,18.22,18.22,0,0,1,3.6-5.4,16.07,16.07,0,0,1,5.3-3.6,15.14,15.14,0,0,1,6.3-1.3h5.6v9.7h-3.1a7.77,7.77,0,0,0-3.1.5,7,7,0,0,0-2.5,1.5,6.58,6.58,0,0,0-1.7,2.3,7.45,7.45,0,0,0-.6,3.1,7.31,7.31,0,0,0,.6,3,7.64,7.64,0,0,0,1.7,2.3,6.77,6.77,0,0,0,2.5,1.4,7.77,7.77,0,0,0,3.1.5h3.1Z" transform="translate(0 -8.1)"/><path class="af4e7dea-90ab-49fb-a027-017c42a304ca" d="M799.4,306.4V284.9c0-4.3,1.2-7.5,3.4-9.8s5.5-3.4,9.6-3.4a16.19,16.19,0,0,1,4.4.7,13.32,13.32,0,0,1,3.9,2.1,11.5,11.5,0,0,1,2.9,3.3,8.86,8.86,0,0,1,1.1,4.3,9.24,9.24,0,0,1-.9,3.9,8.45,8.45,0,0,1-2.4,3.2,4.71,4.71,0,0,1,2.9,2.6,9.86,9.86,0,0,1,.9,4.4v10.2H814.6v-8.5a4.33,4.33,0,0,0-.6-2.6c-.3-.5-1.2-.7-2.4-.7v-8.2a5.93,5.93,0,0,0,2.3-.5A1.8,1.8,0,0,0,815,284a2.44,2.44,0,0,0-.6-1.8,2.14,2.14,0,0,0-1.8-.7,2.55,2.55,0,0,0-1.9.6,3.93,3.93,0,0,0-.6,2.6v21.8Z" transform="translate(0 -8.1)"/><path class="af4e7dea-90ab-49fb-a027-017c42a304ca" d="M860,293.4H849.1a6.89,6.89,0,0,0,1.2,1.9,6.57,6.57,0,0,0,1.7,1.2,6,6,0,0,0,1.9.6,12.31,12.31,0,0,0,2,.2H860v9h-5.4a18.56,18.56,0,0,1-6.1-1,17.09,17.09,0,0,1-5.6-3.1,15.87,15.87,0,0,1-4-5.4,17.28,17.28,0,0,1-1.6-7.5,16.67,16.67,0,0,1,1.6-7.6,16.48,16.48,0,0,1,4-5.3,19.41,19.41,0,0,1,5.6-3.2,18.56,18.56,0,0,1,6.1-1H860v9h-4.1a15,15,0,0,0-2,.2,6,6,0,0,0-1.9.6,6.57,6.57,0,0,0-1.7,1.2,6.15,6.15,0,0,0-1.2,1.9H860Z" transform="translate(0 -8.1)"/><path class="af4e7dea-90ab-49fb-a027-017c42a304ca" d="M885,287.4h3.3v-3a2.82,2.82,0,0,0-.7-2.1,2.27,2.27,0,0,0-1.8-.7,2.87,2.87,0,0,0-1.8.7,3.28,3.28,0,0,0-.6,2.1v22H872.8V284.6a12.49,12.49,0,0,1,.7-4,12.12,12.12,0,0,1,2.2-4.2,11.82,11.82,0,0,1,4-3.3,15,15,0,0,1,12.2,0,14.41,14.41,0,0,1,4,3.3,12.12,12.12,0,0,1,2.2,4.2,16.05,16.05,0,0,1,.7,4v21.8H888.2V296H885Z" transform="translate(0 -8.1)"/><path class="af4e7dea-90ab-49fb-a027-017c42a304ca" d="M909,272.3h21.9V282h-5.7v24.3H914.6V282H909Z" transform="translate(0 -8.1)"/><path class="ee01e630-7c10-4d04-a525-a69063df2998" d="M941.8,272.3h10.6v34.1H941.8Z" transform="translate(0 -8.1)"/><path class="af4e7dea-90ab-49fb-a027-017c42a304ca" d="M974.6,272.3l3.3,21.1h.1l3.4-21.1h10.8l-5.7,26.3c-.4,1.6-.8,3-1.2,4.1a8.22,8.22,0,0,1-1.6,2.6,5.29,5.29,0,0,1-2.3,1.3,11.76,11.76,0,0,1-3.4.4,10.53,10.53,0,0,1-3.4-.4,7,7,0,0,1-2.4-1.3,7.22,7.22,0,0,1-1.6-2.6,25.61,25.61,0,0,1-1.2-4.1l-5.8-26.3Z" transform="translate(0 -8.1)"/><path class="af4e7dea-90ab-49fb-a027-017c42a304ca" d="M1025.5,293.4h-10.9a7,7,0,0,0,1.3,1.9,6.57,6.57,0,0,0,1.7,1.2,6,6,0,0,0,1.9.6,13.55,13.55,0,0,0,2,.2h4.1v9h-5.3a18.56,18.56,0,0,1-6.1-1,16.63,16.63,0,0,1-5.5-3.1,14.68,14.68,0,0,1-4-5.4,16,16,0,0,1-1.5-7.5,18.08,18.08,0,0,1,1.5-7.6,16.48,16.48,0,0,1,4-5.3,18.89,18.89,0,0,1,5.5-3.2,18.56,18.56,0,0,1,6.1-1h5.3v9h-4.1a13.55,13.55,0,0,0-2,.2,6,6,0,0,0-1.9.6,6.57,6.57,0,0,0-1.7,1.2,9.06,9.06,0,0,0-1.3,1.9h10.9Z" transform="translate(0 -8.1)"/><path class="af4e7dea-90ab-49fb-a027-017c42a304ca" d="M1062.1,306.4V283.1a12.29,12.29,0,0,1,.9-4.7,10.4,10.4,0,0,1,2.6-3.6,12.51,12.51,0,0,1,4.1-2.3,15.12,15.12,0,0,1,5.3-.8,16.19,16.19,0,0,1,4.4.7,13.08,13.08,0,0,1,3.9,2,10.47,10.47,0,0,1,2.7,3.2,9.2,9.2,0,0,1,1,4.4,7.49,7.49,0,0,1-.5,3.1,10.06,10.06,0,0,1-1.7,2.7c2.9,1.8,4.4,4.5,4.4,8.4a12.31,12.31,0,0,1-.8,4.4,9.37,9.37,0,0,1-2.3,3.2,10.3,10.3,0,0,1-3.4,1.9,13.55,13.55,0,0,1-4.1.7h-4.4v-9a5.85,5.85,0,0,0,1.3-.2,6.11,6.11,0,0,0,1.3-.3,2.55,2.55,0,0,0,1-.7,1.59,1.59,0,0,0,.4-1.2,1.84,1.84,0,0,0-.4-1.3,2.55,2.55,0,0,0-1-.7,5.85,5.85,0,0,0-1.3-.2h-1.4v-7.5a2.44,2.44,0,0,0,1.8-.6,2.35,2.35,0,0,0,.6-1.7,1.36,1.36,0,0,0-.7-1.3,2.3,2.3,0,0,0-1.4-.4,1.68,1.68,0,0,0-1.4.6,3.44,3.44,0,0,0-.5,2v22.6h-10.4Z" transform="translate(0 -8.1)"/><path class="af4e7dea-90ab-49fb-a027-017c42a304ca" d="M1111.8,272.3v22.5a2.79,2.79,0,0,0,.6,1.8,2.43,2.43,0,0,0,3.6,0,2.79,2.79,0,0,0,.6-1.8V272.3h10.6v23.1a11,11,0,0,1-4,8.5,12.23,12.23,0,0,1-4.2,2.3,13.62,13.62,0,0,1-4.9.8,14.16,14.16,0,0,1-5-.8,12.75,12.75,0,0,1-4.1-2.3,11.93,11.93,0,0,1-2.9-3.7,10.61,10.61,0,0,1-1.1-4.8V272.3Z" transform="translate(0 -8.1)"/><path class="af4e7dea-90ab-49fb-a027-017c42a304ca" d="M1146.2,296.6a10,10,0,0,0,3.1-.3c.6-.2.8-.6.8-1.3a1.72,1.72,0,0,0-.8-1.3c-.5-.5-1.2-1-1.9-1.6s-1.6-1.2-2.5-1.9a18.78,18.78,0,0,1-2.5-2.4,13.16,13.16,0,0,1-1.9-2.9,7.25,7.25,0,0,1-.7-3.3,8.82,8.82,0,0,1,1-4.5,7.88,7.88,0,0,1,2.5-2.9,9.33,9.33,0,0,1,3.7-1.5,20.24,20.24,0,0,1,4.3-.4h9.7v9.5h-6.5a6.87,6.87,0,0,0-2.5.3,1.05,1.05,0,0,0-.5.9,1.93,1.93,0,0,0,.8,1.2,11.55,11.55,0,0,0,2,1.5c.8.6,1.7,1.3,2.7,2a20,20,0,0,1,2.6,2.4,12.09,12.09,0,0,1,2,3,8.63,8.63,0,0,1,.8,3.6,8.12,8.12,0,0,1-.8,3.8,7.62,7.62,0,0,1-2.4,3,11.82,11.82,0,0,1-3.9,1.9,17,17,0,0,1-5.3.7h-10.3v-9.7Z" transform="translate(0 -8.1)"/><path class="ee01e630-7c10-4d04-a525-a69063df2998" d="M1174.1,272.3h10.6v34.1h-10.6Z" transform="translate(0 -8.1)"/><path class="af4e7dea-90ab-49fb-a027-017c42a304ca" d="M1209,306.4h-10.6V277.9a8.53,8.53,0,0,1,.5-3,5.75,5.75,0,0,1,1.5-1.9,5,5,0,0,1,1.9-1,6.72,6.72,0,0,1,1.8-.3,5.22,5.22,0,0,1,2.1.4,15.11,15.11,0,0,1,1.8.9,8.64,8.64,0,0,1,1.4,1.3,8,8,0,0,1,.9,1.4l5.4,10.7h.1V272.3h10.6v28.6a6.12,6.12,0,0,1-.6,3,7.21,7.21,0,0,1-1.4,1.9,8.71,8.71,0,0,1-1.9,1,12.77,12.77,0,0,1-1.7.2,4.92,4.92,0,0,1-2.1-.4,16.18,16.18,0,0,1-1.8-1,8.06,8.06,0,0,1-1.4-1.2c-.4-.5-.7-1-1-1.4l-5.4-10.8h-.1Z" transform="translate(0 -8.1)"/><path class="af4e7dea-90ab-49fb-a027-017c42a304ca" d="M1262.3,293.4h-10.9a4.31,4.31,0,0,0,1.3,1.9,6.57,6.57,0,0,0,1.7,1.2,6,6,0,0,0,1.9.6,12.31,12.31,0,0,0,2,.2h4.1v9h-5.3a18.56,18.56,0,0,1-6.1-1,17.09,17.09,0,0,1-5.6-3.1,15.87,15.87,0,0,1-4-5.4,17.3,17.3,0,0,1-1.5-7.5,18.08,18.08,0,0,1,1.5-7.6,16.48,16.48,0,0,1,4-5.3,19.41,19.41,0,0,1,5.6-3.2,18.15,18.15,0,0,1,6.1-1h5.3v9h-4.1a15,15,0,0,0-2,.2,6,6,0,0,0-1.9.6,6.57,6.57,0,0,0-1.7,1.2,6.41,6.41,0,0,0-1.3,1.9h10.9Z" transform="translate(0 -8.1)"/><path class="af4e7dea-90ab-49fb-a027-017c42a304ca" d="M1280.4,296.6a10,10,0,0,0,3.1-.3c.6-.2.8-.6.8-1.3,0-.4-.3-.8-.8-1.3a17.5,17.5,0,0,0-1.9-1.6c-.8-.5-1.6-1.2-2.5-1.9a18.78,18.78,0,0,1-2.5-2.4,13.16,13.16,0,0,1-1.9-2.9,7.31,7.31,0,0,1-.8-3.3,10,10,0,0,1,.9-4.5,8.12,8.12,0,0,1,2.6-2.9,9.33,9.33,0,0,1,3.7-1.5,20.24,20.24,0,0,1,4.3-.4h9.7v9.5h-6.4a6.51,6.51,0,0,0-2.5.3,1,1,0,0,0-.6.9,1.93,1.93,0,0,0,.8,1.2,11.55,11.55,0,0,0,2,1.5c.8.6,1.6,1.3,2.6,2a29.56,29.56,0,0,1,2.6,2.4,12.09,12.09,0,0,1,2,3,8.63,8.63,0,0,1,.8,3.6,9.57,9.57,0,0,1-.8,3.8,8.62,8.62,0,0,1-2.4,3,10.93,10.93,0,0,1-3.9,1.9,17.45,17.45,0,0,1-5.3.7h-10.3v-9.7Z" transform="translate(0 -8.1)"/><path class="af4e7dea-90ab-49fb-a027-017c42a304ca" d="M1313.5,296.6a9.52,9.52,0,0,0,3.1-.3,1.25,1.25,0,0,0,.8-1.3,1.88,1.88,0,0,0-.7-1.3c-.5-.5-1.2-1-1.9-1.6s-1.6-1.2-2.5-1.9a18.78,18.78,0,0,1-2.5-2.4,18.08,18.08,0,0,1-1.9-2.9,7.25,7.25,0,0,1-.7-3.3,10,10,0,0,1,.9-4.5,7.29,7.29,0,0,1,2.6-2.9,9.33,9.33,0,0,1,3.7-1.5,20.24,20.24,0,0,1,4.3-.4h9.8v9.5H1322a6.51,6.51,0,0,0-2.5.3,1,1,0,0,0-.6.9,1.93,1.93,0,0,0,.8,1.2,11.55,11.55,0,0,0,2,1.5c.8.6,1.6,1.3,2.7,2a29.56,29.56,0,0,1,2.6,2.4,9.85,9.85,0,0,1,2,3,8.63,8.63,0,0,1,.8,3.6,9.57,9.57,0,0,1-.8,3.8,8.62,8.62,0,0,1-2.4,3,10.93,10.93,0,0,1-3.9,1.9,17,17,0,0,1-5.3.7h-10.3v-9.7Z" transform="translate(0 -8.1)"/></svg>
