<svg enable-background="new 0 0 1366 321" viewBox="0 0 1366 321" xmlns="http://www.w3.org/2000/svg"><g fill="#3ba2db"><path d="m1335.3 82.7c-2 1.2-3.6 2.8-4.8 4.8s-1.8 4.2-1.8 6.6c0 2.3.6 4.5 1.8 6.5s2.8 3.6 4.8 4.8 4.2 1.7 6.6 1.7 4.5-.6 6.5-1.7c2-1.2 3.6-2.8 4.8-4.8s1.8-4.2 1.8-6.5c0-1.8-.3-3.5-1-5.1s-1.6-3-2.8-4.2-2.6-2.2-4.2-2.8c-1.6-.7-3.3-1-5.1-1-2.4-.1-4.6.5-6.6 1.7zm1.3 20.4c-1.6-.9-2.9-2.2-3.8-3.8s-1.4-3.4-1.4-5.3.5-3.7 1.4-5.3 2.2-2.9 3.8-3.8 3.4-1.4 5.3-1.4 3.6.5 5.3 1.4c1.6.9 2.9 2.2 3.8 3.8s1.4 3.4 1.4 5.3-.5 3.7-1.4 5.3-2.2 2.9-3.8 3.8-3.4 1.4-5.3 1.4-3.7-.5-5.3-1.4zm2-15.5c-1 .6-1.7 1.4-2.3 2.6-.5 1.1-.8 2.3-.8 3.8s.3 2.9.9 4 1.3 2 2.3 2.5 2 .8 3.1.8c3.1 0 5.1-1.5 6.1-4.5l-2.8-.9c-.6 2-1.6 3-3.2 3-.7 0-1.3-.2-1.8-.6s-.9-.9-1.1-1.7c-.3-.8-.4-1.7-.4-2.8 0-1.4.3-2.5.9-3.4.6-.8 1.5-1.3 2.6-1.3 1.4 0 2.4.8 3 2.4l2.8-.7c-1-2.7-2.9-4.1-5.8-4.1-1.4 0-2.5.3-3.5.9z"/><path d="m44.9 36.9c-10.7 5.8-19.3 12.9-26.1 21.4-6.7 8.5-11.5 17.5-14.4 27-3 9.5-4.4 18.2-4.4 25.9v140.7h68.5v-142.3c0-5.6 1.4-10 4.3-13.2 2.8-3.2 6.5-4.7 11.1-4.7s8.4 1.6 11.3 4.7 4.4 7.5 4.4 13.2v19.5h-21v55.9h21v66.9h68.4v-140.7c0-7.7-1.4-16.4-4.4-25.9-2.9-9.5-7.7-18.5-14.3-27s-15.2-15.6-25.9-21.4c-10.6-5.8-23.8-8.6-39.3-8.6-15.4 0-28.5 2.8-39.2 8.6z"/><path d="m300.2 32v136.3c0 9.4-2.2 16.4-6.5 20.9-4.4 4.5-10 6.7-16.7 6.7-6.1 0-11.2-2-15.6-6.1-4.3-4.1-6.4-9.6-6.4-16.5 0-3.6.7-6.8 2.1-9.6 1.3-2.8 3.1-5.2 5.3-7.1s4.7-3.3 7.4-4.4c2.7-1 5.5-1.5 8.1-1.5 2.7 0 5.4.3 7.9.9s5 1.5 7.5 2.5v-61.8c-3.3-.4-6.7-.7-10-.9s-7.1-.4-11.3-.4c-11.7 0-22.3 2.1-31.7 6.3s-17.4 9.9-24 17.1-11.7 15.7-15.4 25.4-5.5 20.2-5.5 31.6c0 12.6 2.2 24 6.4 34.4 4.3 10.4 10.1 19.2 17.5 26.5 7.3 7.3 16 13 25.9 17.1s20.5 6.1 31.6 6.1c11.7 0 22.8-1.9 33.3-5.7 10.4-3.7 19.6-9.7 27.5-17.7 7.8-8.1 14.1-18.4 18.7-31.1s6.9-27.8 6.9-45.4v-123.6c-.1 0-63 0-63 0z"/><path d="m418.7 8.1c-5 0-9.8 1-14.3 3s-8.4 4.7-11.7 8c-3.4 3.3-6.1 7.3-8 11.8-2 4.5-3 9.3-3 14.3s1 9.8 3 14.3c1.9 4.5 4.6 8.4 8 11.8 3.3 3.3 7.3 6 11.7 8 4.5 2 9.3 3 14.3 3s9.8-1 14.3-3 8.4-4.7 11.8-8c3.4-3.4 6-7.3 8-11.8s3.1-9.3 3.1-14.3-1-9.8-3.1-14.3c-2-4.5-4.6-8.5-8-11.8-3.3-3.4-7.3-6-11.8-8-4.5-1.9-9.3-3-14.3-3zm-31.4 243.8h62.8v-157h-62.8z"/><path d="m514.2 96.4c-9.2 3.6-16.9 8.3-23.1 14.3s-10.8 13-14 21.2c-3.1 8.2-4.7 16.8-4.7 25.8v94.2h62.8v-84.5c0-6.9.9-11.7 2.7-14.5 1.8-2.7 4.7-4.1 8.6-4.1s6.8 1.4 8.6 4.1 2.7 7.5 2.7 14.5v84.5h62.8v-94.2c0-9-1.5-17.6-4.7-25.8-3.1-8.2-7.8-15.2-14-21.2s-13.9-10.7-23.2-14.3-20-5.4-32.2-5.4c-12.4.1-23.1 1.9-32.3 5.4z"/><path d="m690.8 97.3c-10 4.2-18.6 10.1-26.1 17.8-7.4 7.6-13.3 16.8-17.6 27.5s-6.4 22.5-6.4 35.5c0 10.5 2 20.4 6.1 29.9 4.1 9.4 9.7 17.7 16.8 24.8s15.5 12.7 25 16.8 19.7 6.1 30.6 6.1c3.1 0 6.4-.2 10-.5s7.4-.7 11.6-1.1v-61.6c-3.5 1.2-6.6 2.1-9.1 2.7-2.5.5-4.9.8-7.2.8-5.3 0-10-2-14.1-6.1-4.2-4.1-6.3-9.6-6.3-16.5 0-7.1 2.2-12.7 6.5-16.7 4.2-3.9 9.4-6 15.5-6s11.4 2 16.2 6c4.7 4 7.1 9.5 7.1 16.7v78.5h63.4v-60.9c0-17.8-2.6-33-7.6-45.5-5-12.6-11.7-22.9-20.1-30.9-8.3-8.1-18-14-28.9-17.8s-22.2-5.7-33.9-5.7c-11 0-21.5 2.1-31.5 6.2z"/><path clip-rule="evenodd" d="m835.1 32h62.8v219.9h-62.8z" fill-rule="evenodd"/><path d="m953.9 8.1c-5 0-9.8 1-14.3 3s-8.4 4.7-11.8 8-6.1 7.3-8.1 11.8-3 9.3-3 14.3 1 9.8 3 14.3 4.7 8.4 8.1 11.8c3.3 3.3 7.3 6 11.8 8s9.3 3 14.3 3c5.1 0 9.8-1 14.3-3s8.4-4.7 11.8-8c3.3-3.4 6-7.3 8-11.8s3-9.3 3-14.3-1-9.8-3-14.3-4.6-8.5-8-11.8c-3.3-3.4-7.3-6-11.8-8-4.5-1.9-9.3-3-14.3-3zm-31.5 243.8h62.8v-157h-62.8z"/><path d="m1049.4 96.4c-9.2 3.6-16.9 8.3-23.1 14.3s-10.8 13-14 21.2-4.7 16.8-4.7 25.8v94.2h62.8v-84.5c0-6.9.9-11.7 2.7-14.5 1.8-2.7 4.6-4.1 8.6-4.1 3.9 0 6.9 1.4 8.6 4.1 1.8 2.7 2.7 7.5 2.7 14.5v84.5h62.8v-94.2c0-9-1.6-17.6-4.7-25.8s-7.8-15.2-14-21.2-13.9-10.7-23.3-14.3c-9.3-3.6-20-5.4-32.2-5.4-12.2.1-23.1 1.9-32.2 5.4z"/><path d="m1227.6 97c-9.6 4-18.1 9.5-25.5 16.7-7.4 7.1-13.4 15.6-18.1 25.4-4.6 9.8-6.9 20.5-6.9 32 0 12.3 2.1 23.7 6.2 33.9s9.8 19.2 17.1 26.7 16 13.4 26.1 17.6 21.2 6.3 33.3 6.3c16.3 0 31.5-3.5 45.7-10.5 14.1-7 26.1-16 36-26.9l-35.5-35.8c-5.7 6.1-11.5 11.1-17.8 15.1-6.1 4-13.6 6-22.4 6-10.5 0-18.3-3.4-23.5-10.2s-7.9-15.1-7.9-25c0-3.3.7-6.8 2-10.2 1.4-3.4 3.2-6.5 5.4-9.3 2.2-2.7 4.6-5 7.4-6.7 2.7-1.8 5.3-2.7 7.9-2.7 4.6 0 8.4.5 11.3 1.6 3 1 5.8 2.7 8.5 5l-31.4 17.3 17.9 31.7 78.2-43c-2.8-9-6.5-17.2-11.4-24.7-4.8-7.4-10.8-13.8-17.9-19.2-7.1-5.3-15.3-9.5-24.5-12.6-9.2-3-19.6-4.6-31.1-4.6-9.9.2-19.6 2.2-29.1 6.1z"/><path d="m23.7 306.4h-5.6c-2.2 0-4.3-.4-6.3-1.3-2-.8-3.8-2-5.3-3.6-1.5-1.5-2.7-3.3-3.6-5.4s-1.3-4.3-1.3-6.8.4-4.8 1.3-6.9c.9-2 2.1-3.9 3.6-5.4s3.3-2.8 5.3-3.6c2-.9 4.1-1.3 6.3-1.3h5.6v9.7h-3.1c-1.1 0-2.1.1-3.1.5s-1.9.8-2.5 1.5c-.7.6-1.3 1.4-1.7 2.3s-.6 1.9-.6 3.1c0 1.1.2 2.1.6 3s1 1.6 1.7 2.3c.7.6 1.6 1.1 2.5 1.4.9.4 1.9.5 3.1.5h3.1z"/><path d="m36.3 306.4v-21.5c0-4.3 1.1-7.5 3.4-9.8 2.3-2.2 5.5-3.4 9.6-3.4 1.5 0 2.9.3 4.4.7 1.5.5 2.8 1.2 3.9 2.1 1.2.9 2.1 2 2.8 3.3.8 1.3 1.1 2.7 1.1 4.3 0 1.3-.3 2.6-.9 3.9s-1.3 2.3-2.4 3.2c1.4.5 2.4 1.4 2.9 2.6.6 1.2.9 2.7.9 4.4v10.2h-10.6v-8.5c0-1.2-.2-2.1-.5-2.6-.4-.5-1.2-.7-2.5-.7v-8.2c.9 0 1.6-.2 2.4-.5.7-.3 1-1 1-1.9 0-.8-.2-1.4-.6-1.8-.3-.5-1-.7-1.8-.7-.9 0-1.5.2-1.9.6s-.6 1.3-.6 2.6v21.8z"/><path d="m96.9 293.4h-10.9c.3.8.7 1.4 1.3 1.9.5.5 1.1.9 1.7 1.2s1.3.5 1.9.6c.7.1 1.3.2 2 .2h4.1v9h-5.3c-2 0-4.1-.3-6.1-1-2.1-.7-3.9-1.7-5.5-3.1-1.7-1.4-3-3.2-4.1-5.4-1.1-2.1-1.6-4.6-1.6-7.5s.5-5.4 1.6-7.6c1-2.1 2.4-3.9 4.1-5.3 1.6-1.4 3.5-2.4 5.5-3.2 2-.7 4.1-1 6.1-1h5.3v9h-4.1c-.6 0-1.3.1-2 .2-.6.1-1.3.3-1.9.6s-1.2.7-1.7 1.2-.9 1.2-1.3 1.9h10.9z"/><path d="m121.9 287.4h3.3v-3c0-.9-.3-1.6-.7-2.1-.5-.5-1-.7-1.7-.7s-1.3.3-1.8.7c-.4.5-.6 1.2-.6 2.1v22h-10.6v-21.8c0-1.2.2-2.5.7-4s1.2-2.9 2.2-4.2 2.4-2.5 4.1-3.3c1.7-.9 3.7-1.3 6.1-1.3s4.4.4 6.1 1.3c1.6.9 3 2 4 3.3 1.1 1.3 1.8 2.7 2.3 4.2.4 1.5.7 2.8.7 4v21.8h-10.6v-10.4h-3.3v-8.6z"/><path d="m145.9 272.3h21.8v9.7h-5.6v24.3h-10.6v-24.3h-5.6z"/><path clip-rule="evenodd" d="m178.7 272.3h10.6v34.1h-10.6z" fill-rule="evenodd"/><path d="m211.6 272.3 3.3 21.1h.1l3.4-21.1h10.8l-5.7 26.3c-.3 1.6-.7 3-1.2 4.1-.4 1.1-1 1.9-1.6 2.6-.6.6-1.4 1.1-2.3 1.3-.9.3-2.1.4-3.5.4-1.3 0-2.5-.1-3.4-.4s-1.7-.7-2.3-1.3-1.2-1.5-1.6-2.6-.8-2.5-1.1-4.1l-5.8-26.3z"/><path d="m262.5 293.4h-10.9c.4.8.7 1.4 1.2 1.9.6.5 1.1.9 1.7 1.2s1.2.5 1.9.6 1.3.2 2 .2h4.1v9h-5.4c-2 0-4-.3-6.1-1s-3.9-1.7-5.6-3.1c-1.6-1.4-3-3.2-4-5.4-1-2.1-1.6-4.6-1.6-7.5s.5-5.4 1.6-7.6c1-2.1 2.4-3.9 4-5.3s3.5-2.4 5.6-3.2c2-.7 4.1-1 6.1-1h5.4v9h-4.1c-.6 0-1.3.1-2 .2s-1.3.3-1.9.6-1.2.7-1.7 1.2-.9 1.2-1.2 1.9h10.9z"/><path d="m299 306.4v-20.2c0-2.6.4-4.8 1-6.6.7-1.8 1.6-3.3 2.8-4.5 1.1-1.2 2.5-2 4-2.6 1.5-.5 3.1-.8 4.9-.8s3.5.3 5 .9 2.9 1.4 4 2.6c1.1 1.1 2 2.4 2.6 3.8.6 1.5 1 3 1 4.7 0 4.1-1.1 7.2-3.4 9.3-2.2 2.1-5.6 3.1-10 3.1v-9.4c.4 0 .8 0 1.2-.1s.8-.2 1.1-.4.6-.4.9-.7c.2-.3.3-.7.3-1.2 0-.8-.2-1.4-.6-2s-.9-.8-1.7-.8c-.9 0-1.5.2-1.9.8-.4.5-.7 1.3-.7 2.4v21.5h-10.5z"/><path d="m335.7 306.4v-21.5c0-4.3 1.1-7.5 3.4-9.8 2.2-2.2 5.4-3.4 9.6-3.4 1.5 0 2.9.3 4.4.7 1.4.5 2.8 1.2 3.9 2.1s2.1 2 2.8 3.3 1.1 2.7 1.1 4.3c0 1.3-.3 2.6-.9 3.9-.5 1.3-1.4 2.3-2.4 3.2 1.4.5 2.4 1.4 3 2.6.5 1.2.8 2.7.8 4.4v10.2h-10.6v-8.5c0-1.2-.2-2.1-.6-2.6s-1.2-.7-2.5-.7v-8.2c.8 0 1.5-.2 2.3-.5.7-.3 1.1-1 1.1-1.9 0-.8-.2-1.4-.6-1.8-.4-.5-1-.7-1.8-.7-.9 0-1.4.2-1.9.6-.4.4-.6 1.3-.6 2.6v21.8z"/><path d="m391.3 282.5c-1 0-1.8.2-2.7.5-.8.3-1.6.9-2.2 1.5s-1.1 1.3-1.4 2.2c-.4.8-.6 1.7-.6 2.7 0 .9.2 1.8.6 2.6.3.8.8 1.6 1.4 2.2s1.4 1.1 2.2 1.5 1.7.5 2.7.5c.9 0 1.8-.2 2.6-.5.8-.4 1.5-.9 2.2-1.5.6-.6 1.1-1.4 1.5-2.2.3-.8.5-1.7.5-2.6 0-1-.2-1.8-.5-2.7-.4-.8-.9-1.5-1.5-2.2-.6-.6-1.4-1.1-2.2-1.5-.8-.3-1.7-.5-2.6-.5m0-10.8c2.4 0 4.7.5 6.8 1.4s4 2.2 5.6 3.8 2.8 3.5 3.8 5.6c.9 2.1 1.4 4.4 1.4 6.9 0 2.4-.5 4.7-1.4 6.8s-2.2 4-3.8 5.6c-1.7 1.6-3.5 2.9-5.6 3.8s-4.4 1.4-6.8 1.4c-2.5 0-4.7-.4-6.8-1.4-2.1-.9-4-2.2-5.6-3.8s-2.9-3.5-3.8-5.6-1.4-4.4-1.4-6.8c0-2.5.5-4.7 1.4-6.9.9-2.1 2.2-4 3.8-5.6s3.5-2.9 5.6-3.8c2-.9 4.3-1.4 6.8-1.4"/><path d="m422.1 306.4v-34.1h10.7c2.7 0 5.1.4 7.3 1.3s4 2.1 5.5 3.7 2.7 3.5 3.5 5.7 1.2 4.6 1.2 7.3c0 2-.4 3.9-1.1 5.8-.8 1.9-1.8 3.7-3.2 5.2-1.3 1.5-3 2.8-5 3.7-2 1-4.2 1.4-6.8 1.4v-9.7c1.7-.2 3-.9 3.9-2.1.9-1.3 1.4-3 1.4-5.1 0-.8-.1-1.7-.3-2.6-.3-.9-.6-1.7-1.2-2.4-.5-.7-1.2-1.3-2.1-1.7-.9-.5-2-.7-3.2-.7v24.3z"/><path d="m473.3 272.3v22.5c0 .7.2 1.3.6 1.8s1 .8 1.8.8 1.4-.3 1.8-.8.6-1.1.6-1.8v-22.5h10.6v23.1c0 1.8-.4 3.4-1.1 4.8-.7 1.5-1.7 2.7-2.9 3.7s-2.6 1.8-4.1 2.3c-1.6.6-3.2.8-4.9.8s-3.4-.2-4.9-.8c-1.6-.5-3-1.3-4.2-2.3s-2.1-2.2-2.8-3.7c-.8-1.4-1.1-3-1.1-4.8v-23.1z"/><path d="m523.8 306.4h-5.6c-2.2 0-4.3-.4-6.3-1.3-2-.8-3.7-2-5.2-3.6-1.5-1.5-2.7-3.3-3.6-5.4s-1.3-4.3-1.3-6.8.4-4.8 1.3-6.9c.9-2 2-3.9 3.6-5.4 1.5-1.5 3.2-2.8 5.2-3.6 2-.9 4.1-1.3 6.3-1.3h5.6v9.7h-3.2c-1.1 0-2.1.1-3.1.5s-1.8.8-2.5 1.5c-.7.6-1.3 1.4-1.7 2.3s-.6 1.9-.6 3.1c0 1.1.2 2.1.6 3s1 1.6 1.7 2.3c.7.6 1.5 1.1 2.5 1.4 1 .4 2 .5 3.1.5h3.2z"/><path d="m534 272.3h21.9v9.7h-5.6v24.3h-10.6v-24.3h-5.7z"/><path d="m572.1 296.6c1.5 0 2.6-.1 3.1-.3.6-.2.8-.6.8-1.3 0-.4-.2-.8-.8-1.3-.5-.5-1.2-1-1.9-1.6-.8-.5-1.6-1.2-2.5-1.9s-1.7-1.5-2.5-2.4-1.4-1.9-2-2.9c-.4-1-.8-2.1-.8-3.3 0-1.8.4-3.3 1-4.5s1.5-2.2 2.6-2.9c1.1-.8 2.3-1.2 3.7-1.5s2.8-.4 4.3-.4h9.7v9.5h-6.4c-1.3 0-2.1.1-2.5.3s-.6.5-.6.9c0 .3.3.8.8 1.2.5.5 1.2 1 2 1.5.9.6 1.7 1.3 2.7 2 .9.7 1.8 1.6 2.6 2.4.8.9 1.5 1.9 2 3s.8 2.3.8 3.6c0 1.4-.3 2.6-.8 3.8-.5 1.1-1.3 2.2-2.4 3s-2.4 1.5-3.9 1.9c-1.6.5-3.3.7-5.3.7h-10.3v-9.7z"/><path d="m623.5 306.4v-20.8c0-2.6.3-4.9.8-6.6.6-1.7 1.4-3.1 2.6-4.1 1.1-1 2.5-1.7 4.1-2 1.6-.4 3.5-.6 5.6-.6h6.9v9.5h-6.6c-.5 0-1 .1-1.4.4-.3.2-.7.5-.8.9-.2.4-.3.8-.4 1.3s-.2 1.1-.2 1.6h9.3v8.8h-9.3v11.6z"/><path d="m672.8 282.5c-1 0-1.8.2-2.7.5-.8.3-1.5.9-2.2 1.5-.6.6-1.1 1.3-1.4 2.2-.3.8-.5 1.7-.5 2.7 0 .9.2 1.8.5 2.6.4.8.9 1.6 1.4 2.2.6.6 1.3 1.1 2.2 1.5.8.4 1.7.5 2.7.5.9 0 1.8-.2 2.7-.5.8-.4 1.5-.9 2.1-1.5s1.1-1.4 1.5-2.2c.3-.8.5-1.7.5-2.6 0-1-.2-1.8-.5-2.7-.4-.8-.9-1.5-1.5-2.2-.6-.6-1.3-1.1-2.1-1.5-.9-.3-1.8-.5-2.7-.5m0-10.8c2.4 0 4.7.5 6.8 1.4s4 2.2 5.6 3.8 2.8 3.5 3.8 5.6c.9 2.1 1.3 4.4 1.3 6.9 0 2.4-.5 4.7-1.3 6.8-1 2.1-2.2 4-3.8 5.6s-3.5 2.9-5.6 3.8-4.4 1.4-6.8 1.4-4.7-.4-6.9-1.4c-2.1-.9-4-2.2-5.6-3.8s-2.9-3.5-3.8-5.6-1.4-4.4-1.4-6.8c0-2.5.5-4.7 1.4-6.9 1-2.1 2.2-4 3.8-5.6s3.4-2.9 5.6-3.8 4.5-1.4 6.9-1.4"/><path d="m703.2 306.4v-21.5c0-4.3 1.1-7.5 3.3-9.8 2.3-2.2 5.5-3.4 9.6-3.4 1.5 0 2.9.3 4.4.7 1.4.5 2.8 1.2 3.9 2.1 1.2.9 2.1 2 2.8 3.3.8 1.3 1.1 2.7 1.1 4.3 0 1.3-.3 2.6-.9 3.9s-1.4 2.3-2.4 3.2c1.4.5 2.4 1.4 2.9 2.6s.8 2.7.8 4.4v10.2h-10.6v-8.5c0-1.2-.2-2.1-.5-2.6s-1.2-.7-2.5-.7v-8.2c.8 0 1.6-.2 2.3-.5s1.1-1 1.1-1.9c0-.8-.2-1.4-.6-1.8-.4-.5-.9-.7-1.8-.7s-1.5.2-1.9.6-.6 1.3-.6 2.6v21.8z"/><path d="m786.7 306.4h-5.6c-2.2 0-4.3-.4-6.3-1.3-2-.8-3.8-2-5.3-3.6-1.5-1.5-2.7-3.3-3.6-5.4-.8-2.1-1.3-4.3-1.3-6.8s.5-4.8 1.3-6.9c.9-2 2.1-3.9 3.6-5.4s3.3-2.8 5.3-3.6c2-.9 4.1-1.3 6.3-1.3h5.6v9.7h-3.1c-1.1 0-2.2.1-3.1.5-1 .4-1.8.8-2.5 1.5-.7.6-1.3 1.4-1.7 2.3s-.6 1.9-.6 3.1c0 1.1.2 2.1.6 3s1 1.6 1.7 2.3c.7.6 1.5 1.1 2.5 1.4.9.4 2 .5 3.1.5h3.1z"/><path d="m799.4 306.4v-21.5c0-4.3 1.2-7.5 3.4-9.8 2.3-2.2 5.5-3.4 9.6-3.4 1.5 0 3 .3 4.4.7 1.4.5 2.8 1.2 3.9 2.1 1.2.9 2.1 2 2.9 3.3.7 1.3 1.1 2.7 1.1 4.3 0 1.3-.3 2.6-.9 3.9s-1.3 2.3-2.4 3.2c1.4.5 2.4 1.4 2.9 2.6.6 1.2.9 2.7.9 4.4v10.2h-10.6v-8.5c0-1.2-.2-2.1-.6-2.6-.3-.5-1.2-.7-2.4-.7v-8.2c.8 0 1.6-.2 2.3-.5.8-.3 1.1-1 1.1-1.9 0-.8-.2-1.4-.6-1.8-.4-.5-1-.7-1.8-.7-.9 0-1.5.2-1.9.6s-.6 1.3-.6 2.6v21.8z"/><path d="m860 293.4h-10.9c.3.8.8 1.4 1.2 1.9.5.5 1.1.9 1.7 1.2s1.2.5 1.9.6c.6.1 1.3.2 2 .2h4.1v9h-5.4c-2 0-4.1-.3-6.1-1-2.1-.7-3.9-1.7-5.6-3.1-1.6-1.4-3-3.2-4-5.4-1-2.1-1.6-4.6-1.6-7.5s.5-5.4 1.6-7.6c1-2.1 2.4-3.9 4-5.3 1.7-1.4 3.5-2.4 5.6-3.2 2-.7 4.1-1 6.1-1h5.4v9h-4.1c-.6 0-1.3.1-2 .2s-1.3.3-1.9.6-1.2.7-1.7 1.2-.9 1.2-1.2 1.9h10.9z"/><path d="m885 287.4h3.3v-3c0-.9-.2-1.6-.7-2.1s-1-.7-1.8-.7c-.7 0-1.3.3-1.8.7-.4.5-.6 1.2-.6 2.1v22h-10.6v-21.8c0-1.2.2-2.5.7-4 .4-1.5 1.2-2.9 2.2-4.2s2.4-2.5 4-3.3c1.7-.9 3.7-1.3 6.1-1.3s4.4.4 6.1 1.3c1.6.9 2.9 2 4 3.3 1 1.3 1.8 2.7 2.2 4.2s.7 2.8.7 4v21.8h-10.6v-10.4h-3.2z"/><path d="m909 272.3h21.9v9.7h-5.7v24.3h-10.6v-24.3h-5.6z"/><path clip-rule="evenodd" d="m941.8 272.3h10.6v34.1h-10.6z" fill-rule="evenodd"/><path d="m974.6 272.3 3.3 21.1h.1l3.4-21.1h10.8l-5.7 26.3c-.4 1.6-.8 3-1.2 4.1s-1 1.9-1.6 2.6c-.7.6-1.4 1.1-2.3 1.3-1 .3-2.1.4-3.4.4-1.4 0-2.6-.1-3.4-.4-.9-.3-1.7-.7-2.4-1.3-.6-.6-1.2-1.5-1.6-2.6s-.9-2.5-1.2-4.1l-5.8-26.3z"/><path d="m1025.5 293.4h-10.9c.4.8.8 1.4 1.3 1.9s1.1.9 1.7 1.2 1.2.5 1.9.6 1.3.2 2 .2h4.1v9h-5.3c-2 0-4.1-.3-6.1-1s-3.9-1.7-5.5-3.1c-1.7-1.4-3-3.2-4-5.4-1.1-2.1-1.5-4.6-1.5-7.5s.5-5.4 1.5-7.6c1-2.1 2.4-3.9 4-5.3s3.5-2.4 5.5-3.2c2-.7 4.1-1 6.1-1h5.3v9h-4.1c-.7 0-1.3.1-2 .2s-1.3.3-1.9.6-1.2.7-1.7 1.2-.9 1.2-1.3 1.9h10.9z"/><path d="m1062.1 306.4v-23.3c0-1.7.3-3.2.9-4.7.6-1.4 1.5-2.6 2.6-3.6s2.5-1.7 4.1-2.3 3.4-.8 5.3-.8c1.5 0 3 .3 4.4.7 1.5.5 2.7 1.1 3.9 2 1.1.9 2 1.9 2.7 3.2s1 2.8 1 4.4c0 1.2-.1 2.2-.5 3.1s-.9 1.8-1.7 2.7c2.9 1.8 4.4 4.5 4.4 8.4 0 1.6-.3 3.1-.8 4.4-.6 1.3-1.3 2.3-2.3 3.2-1 .8-2.1 1.5-3.4 1.9s-2.6.7-4.1.7h-4.4v-9c.4 0 .9-.1 1.3-.2.4 0 .9-.2 1.3-.3.4-.2.8-.4 1-.7.3-.3.4-.7.4-1.2s-.1-1-.4-1.3c-.2-.3-.6-.5-1-.7-.4-.1-.9-.2-1.3-.2-.5 0-.9 0-1.4 0v-7.5c.8 0 1.4-.2 1.8-.6s.6-1 .6-1.7c0-.6-.2-1-.7-1.3-.4-.3-.9-.4-1.4-.4-.6 0-1.1.2-1.4.6s-.5 1.1-.5 2v22.6h-10.4z"/><path d="m1111.8 272.3v22.5c0 .7.2 1.3.6 1.8s1 .8 1.8.8 1.4-.3 1.8-.8.6-1.1.6-1.8v-22.5h10.6v23.1c0 1.8-.4 3.4-1.1 4.8-.7 1.5-1.7 2.7-2.9 3.7s-2.6 1.8-4.2 2.3c-1.6.6-3.2.8-4.9.8s-3.4-.2-5-.8c-1.5-.5-2.9-1.3-4.1-2.3s-2.1-2.2-2.9-3.7c-.7-1.4-1.1-3-1.1-4.8v-23.1z"/><path d="m1146.2 296.6c1.6 0 2.6-.1 3.1-.3.6-.2.8-.6.8-1.3 0-.4-.2-.8-.8-1.3-.5-.5-1.2-1-1.9-1.6-.8-.5-1.6-1.2-2.5-1.9s-1.7-1.5-2.5-2.4-1.4-1.9-1.9-2.9-.7-2.1-.7-3.3c0-1.8.3-3.3 1-4.5.6-1.2 1.5-2.2 2.5-2.9 1.1-.8 2.3-1.2 3.7-1.5s2.8-.4 4.3-.4h9.7v9.5h-6.5c-1.2 0-2.1.1-2.5.3-.3.2-.5.5-.5.9 0 .3.3.8.8 1.2.5.5 1.2 1 2 1.5.8.6 1.7 1.3 2.7 2s1.8 1.6 2.6 2.4c.8.9 1.5 1.9 2 3s.8 2.3.8 3.6c0 1.4-.2 2.6-.8 3.8-.5 1.1-1.3 2.2-2.4 3s-2.4 1.5-3.9 1.9c-1.5.5-3.3.7-5.3.7h-10.3v-9.7z"/><path clip-rule="evenodd" d="m1174.1 272.3h10.6v34.1h-10.6z" fill-rule="evenodd"/><path d="m1209 306.4h-10.6v-28.5c0-1.2.2-2.2.5-3 .4-.8.9-1.4 1.5-1.9s1.2-.8 1.9-1 1.3-.3 1.8-.3c.7 0 1.4.1 2.1.4.6.2 1.2.6 1.8.9.5.4 1 .8 1.4 1.3s.7 1 .9 1.4l5.4 10.7h.1v-14.1h10.6v28.6c0 1.3-.2 2.3-.6 3-.4.8-.9 1.4-1.4 1.9-.6.4-1.3.8-1.9 1-.7.1-1.2.2-1.7.2-.8 0-1.4-.1-2.1-.4-.6-.3-1.2-.6-1.8-1-.5-.3-1-.8-1.4-1.2-.4-.5-.7-1-1-1.4l-5.4-10.8h-.1z"/><path d="m1262.3 293.4h-10.9c.3.8.7 1.4 1.3 1.9.5.5 1.1.9 1.7 1.2s1.2.5 1.9.6c.6.1 1.3.2 2 .2h4.1v9h-5.3c-2 0-4.1-.3-6.1-1-2.1-.7-3.9-1.7-5.6-3.1-1.6-1.4-3-3.2-4-5.4-1-2.1-1.5-4.6-1.5-7.5s.5-5.4 1.5-7.6c1-2.1 2.4-3.9 4-5.3 1.7-1.4 3.5-2.4 5.6-3.2 2-.7 4-1 6.1-1h5.3v9h-4.1c-.6 0-1.3.1-2 .2s-1.3.3-1.9.6-1.2.7-1.7 1.2-1 1.2-1.3 1.9h10.9z"/><path d="m1280.4 296.6c1.6 0 2.6-.1 3.1-.3.6-.2.8-.6.8-1.3 0-.4-.3-.8-.8-1.3s-1.1-1-1.9-1.6c-.8-.5-1.6-1.2-2.5-1.9s-1.7-1.5-2.5-2.4-1.4-1.9-1.9-2.9-.8-2.1-.8-3.3c0-1.8.3-3.3.9-4.5.7-1.2 1.5-2.2 2.6-2.9 1.1-.8 2.3-1.2 3.7-1.5s2.8-.4 4.3-.4h9.7v9.5h-6.4c-1.3 0-2.1.1-2.5.3s-.6.5-.6.9c0 .3.3.8.8 1.2.5.5 1.2 1 2 1.5.8.6 1.6 1.3 2.6 2 .9.7 1.8 1.6 2.6 2.4.8.9 1.5 1.9 2 3s.8 2.3.8 3.6c0 1.4-.3 2.6-.8 3.8-.5 1.1-1.4 2.2-2.4 3-1.1.8-2.3 1.5-3.9 1.9-1.5.5-3.4.7-5.3.7h-10.3v-9.7z"/><path d="m1313.5 296.6c1.6 0 2.7-.1 3.1-.3.5-.2.8-.6.8-1.3 0-.4-.2-.8-.7-1.3s-1.2-1-1.9-1.6c-.8-.5-1.6-1.2-2.5-1.9s-1.7-1.5-2.5-2.4c-.7-.9-1.4-1.9-1.9-2.9s-.7-2.1-.7-3.3c0-1.8.3-3.3.9-4.5s1.5-2.2 2.6-2.9c1.1-.8 2.3-1.2 3.7-1.5s2.8-.4 4.3-.4h9.8v9.5h-6.5c-1.3 0-2.1.1-2.5.3s-.6.5-.6.9c0 .3.3.8.8 1.2.5.5 1.2 1 2 1.5.8.6 1.6 1.3 2.7 2 .9.7 1.8 1.6 2.6 2.4.9.9 1.5 1.9 2 3s.8 2.3.8 3.6c0 1.4-.3 2.6-.8 3.8-.5 1.1-1.4 2.2-2.4 3-1.1.8-2.3 1.5-3.9 1.9-1.5.5-3.3.7-5.3.7h-10.3v-9.7z"/></g></svg>