<svg xmlns="http://www.w3.org/2000/svg" viewBox="0 0 1000 202.57"><defs><style>.a1cd7c29-d3a7-4405-adcd-ed10828208ae,.e724c9fe-e8b7-4fa9-8ff8-a1fee8a2f5f4{fill:#231f20;isolation:isolate;}.e724c9fe-e8b7-4fa9-8ff8-a1fee8a2f5f4{opacity:0.5;}.a2af0c96-f4f0-4aa0-a96e-e20209dfd3ef{fill:#fff;}.a6e14172-1386-432a-8d88-155cae4c7309{fill:#002f87;}.e31094a0-45f8-4d73-8a93-02a3821c5433{fill:#ce0e2d;}.a1cd7c29-d3a7-4405-adcd-ed10828208ae{opacity:0.52;}</style></defs><g id="fc81b133-1059-4ff4-b44a-392b419133e5" data-name="Layer 1"><circle class="e724c9fe-e8b7-4fa9-8ff8-a1fee8a2f5f4" cx="599.24" cy="108.47" r="94.1"/><path class="a2af0c96-f4f0-4aa0-a96e-e20209dfd3ef" d="M592,194.89a97.77,97.77,0,0,1-88.5-56.6A97.46,97.46,0,0,1,591.83,0a97.44,97.44,0,0,1,40.91,185.89A96.64,96.64,0,0,1,592,194.89Z"/><circle class="a6e14172-1386-432a-8d88-155cae4c7309" cx="591.89" cy="97.44" r="94.3"/><path class="a2af0c96-f4f0-4aa0-a96e-e20209dfd3ef" d="M547,31.31l-5.74-8.24,10,2.56L557.55,17V27.69l9.61,3.69L557.55,35V45.68l-6.25-8.25-9.74,3.06Z"/><path class="a2af0c96-f4f0-4aa0-a96e-e20209dfd3ef" d="M650.85,64.35,645,55.86l10.05,2.49,6.25-8.61V60.48L671,64.1l-9.61,3.68V78.4l-6.25-8.18-9.74,3.06Z"/><path class="a2af0c96-f4f0-4aa0-a96e-e20209dfd3ef" d="M580.34,21.2,575.91,15l7.55,1.87,4.87-6.55v8.12l7.25,2.74-7.25,2.75v8.06l-4.93-6.25L576.09,28Z"/><path class="a2af0c96-f4f0-4aa0-a96e-e20209dfd3ef" d="M632.24,37.68l-4.44-6.24,7.62,1.87,4.81-6.24v8.11l7.24,2.75-6.8,2.38v8l-4.87-6.25-7.62,2.38Z"/><path class="a2af0c96-f4f0-4aa0-a96e-e20209dfd3ef" d="M610.82,19.26l-3.06-4.5,5.3,1.32,3.44-4.56V17.2l5.06,1.94-5.06,1.93v5.62l-3.44-4.37-5.12,1.62Z"/><path class="a2af0c96-f4f0-4aa0-a96e-e20209dfd3ef" d="M512.46,46.55a94.36,94.36,0,1,0,173.67,55.21Z"/><path class="e31094a0-45f8-4d73-8a93-02a3821c5433" d="M512.46,46.55a93.92,93.92,0,0,0-13.63,66.13l20.35-64Z"/><path class="e31094a0-45f8-4d73-8a93-02a3821c5433" d="M540.89,176.93a94.45,94.45,0,0,0,13.6,7.13L590.34,71.31l-17.67-5.62L538,174.84C538.94,175.53,539.86,176.28,540.89,176.93Z"/><path class="e31094a0-45f8-4d73-8a93-02a3821c5433" d="M554.73,60,537.06,54.4,509,142.65a93.63,93.63,0,0,0,13.52,18.72Z"/><path class="e31094a0-45f8-4d73-8a93-02a3821c5433" d="M611.64,189.78a94.82,94.82,0,0,0,21.91-7.7l28-88.13L643.9,88.33Z"/><path class="e31094a0-45f8-4d73-8a93-02a3821c5433" d="M671.27,148.51a94.38,94.38,0,0,0,14.86-46.72l-6.68-2.12-20.39,64.1A94.38,94.38,0,0,0,671.27,148.51Z"/><path class="e31094a0-45f8-4d73-8a93-02a3821c5433" d="M626,82.63,608.28,77,572.42,189.78a94.43,94.43,0,0,0,18.82,2Z"/><path class="a1cd7c29-d3a7-4405-adcd-ed10828208ae" d="M639.92,62l-8.37-19.8-24.29-5.81L542.62,90.89l-5.37,16.92,7.31,17,18.23,4.37-5.18,16.36,7.31,17.05,51,12.18,4.44-14.18L613.75,145l1.06-3.37,15.86,3.81,4.75-15-10.18-21.73Z"/><path class="a2af0c96-f4f0-4aa0-a96e-e20209dfd3ef" d="M632.54,51.69,625.23,31.9A6.24,6.24,0,0,0,621,28l-21.11-5.81a6.28,6.28,0,0,0-6,1.53L537.59,78.28a6.3,6.3,0,0,0-1.67,2.82L531.23,98a6.29,6.29,0,0,0,.17,3.86l6.37,17.05A6.25,6.25,0,0,0,542,122.7l9.85,2.72L549,135.76a6.16,6.16,0,0,0,.17,3.84l6.37,17.05a6.24,6.24,0,0,0,4.19,3.84l44.4,12.18a6.7,6.7,0,0,0,1.66.22,6.24,6.24,0,0,0,6-4.6l3.88-14.18a6.24,6.24,0,0,0-.17-3.8l-3-8.24,4.49,1.24a6.24,6.24,0,0,0,7.69-4.37l4.13-15a6.27,6.27,0,0,0-.25-4l-8.06-19.77,12.23-44.6A6.24,6.24,0,0,0,632.54,51.69Z"/><path class="e31094a0-45f8-4d73-8a93-02a3821c5433" d="M626.68,53.86l-12.8,46.65,8.86,21.73-4.12,15-13.8-3.75-.94,3.37,5.75,15.55-3.93,14.3-44.34-12.49-6.25-17L559.48,121l-15.86-4.25-6.24-17,4.68-16.92,56.2-54.45,21.11,5.8ZM540.75,97.38l35.91,9.87-1.81,6.56c-2.19,7.8-4.81,12.49-9.06,12.11l-4.68-.37-2.38,9.93L597,145.66l2.69-9.68-4.75-2.19c-3.93-2-3.87-7.24-1.75-15l1.81-6.56,13.81,3.75,3.43-12.49-13.74-3.75,17.24-63.38-16.55-4.56-54.65,53Zm71.13-58.95-13,48.46a5.13,5.13,0,0,0-6.25-1.62A31.37,31.37,0,0,0,595.27,95a95.53,95.53,0,0,0-12.87,26.23,92,92,0,0,0,2.5-29.1A26.63,26.63,0,0,0,592,85.14a4.77,4.77,0,0,0-5.75-1.62l7.06-25.85c.68-2.56.31-4.25-.94-4.62s-3,.81-5.06,2.81L564.73,77.65a5.87,5.87,0,0,0-6.25-1.81l42.16-40.28Zm-53.9,50L590.4,57.17,580.09,94.64ZM592.71,85A21.26,21.26,0,0,1,601,74.53a57.21,57.21,0,0,1,.94-24.29,56.29,56.29,0,0,1-11.18,21.54A20.86,20.86,0,0,1,592.27,85Z"/></g><g id="bf25b596-ff59-4de3-b803-6f101e3bc874" data-name="Layer 2"><path class="a2af0c96-f4f0-4aa0-a96e-e20209dfd3ef" d="M736,51.17h-25a9.37,9.37,0,0,0-9.37,9.37V145.6a9.36,9.36,0,0,0,9.37,9.36h63.88a9.36,9.36,0,0,0,9.37-9.36,35.65,35.65,0,0,0,8.74,6.55,49.22,49.22,0,0,0,22.61,4.5,50.94,50.94,0,0,0,25-5.25,36.88,36.88,0,0,0,10.87-9.68,30.36,30.36,0,0,0,7.74,8.12,48.78,48.78,0,0,0,28.23,6.56,52.91,52.91,0,0,0,21.79-3.81,31.25,31.25,0,0,0,12.43-9.31,30.36,30.36,0,0,0,6.24,6.56,48.78,48.78,0,0,0,28.23,6.56,53,53,0,0,0,21.8-3.81,30.19,30.19,0,0,0,13.73-11.74,29,29,0,0,0,4.44-15.24,26.69,26.69,0,0,0-4.44-14.8,22.39,22.39,0,0,0-2.62-3.37,9.85,9.85,0,0,0,3.62-3.37,9.25,9.25,0,0,0,.88-8.18,36.25,36.25,0,0,0-7.5-12.81A29.58,29.58,0,0,0,974,75.4a61.1,61.1,0,0,0-18.74-2.18A56.41,56.41,0,0,0,936.49,76a29.89,29.89,0,0,0-13.3,9.56c-.63.87-1.25,1.81-1.81,2.75A31.5,31.5,0,0,0,917.44,83a29.35,29.35,0,0,0-12.18-7.68,60.44,60.44,0,0,0-18.73-2.19,56.12,56.12,0,0,0-18.73,2.75,29.64,29.64,0,0,0-13.43,9.68,24.51,24.51,0,0,0-2.56,4.18,35.57,35.57,0,0,0-12.49-11.43A49.53,49.53,0,0,0,815,73.09a39.83,39.83,0,0,0-42.34,41.72v.37H745.39V60.54A9.37,9.37,0,0,0,736,51.17Z"/><path class="a2af0c96-f4f0-4aa0-a96e-e20209dfd3ef" d="M248.92,49.8h-6.24a9.31,9.31,0,0,0-6.25,2.62L213.51,73.9a9.84,9.84,0,0,0-3.74-.87h-2.94V59.17a9.36,9.36,0,0,0-9.37-9.37H191a9.47,9.47,0,0,0-6.24,2.62L161.93,74.53a9.2,9.2,0,0,0-4.75-1.31H134.83a9.43,9.43,0,0,0-8.43,5.3A9.44,9.44,0,0,0,117.78,73H95.24A9.35,9.35,0,0,0,89,75.28a29.85,29.85,0,0,0-8.68-16.93,33.87,33.87,0,0,0-24.48-8.74H9.37A9.36,9.36,0,0,0,0,59v85.24a9.37,9.37,0,0,0,9.37,9.37h43a95,95,0,0,0,12.49-1.25A33.32,33.32,0,0,0,78,148.28a31.08,31.08,0,0,0,10.55-10.62,27.1,27.1,0,0,0,5.06,8.43A28,28,0,0,0,115.09,155a33.24,33.24,0,0,0,15.37-3.37,9.32,9.32,0,0,0,5.74,1.94h20.92a9.37,9.37,0,0,0,9.37-9.37V131.73a33.86,33.86,0,0,0,2,8.24,22.82,22.82,0,0,0,10,11.56A34.19,34.19,0,0,0,195.47,155a78.6,78.6,0,0,0,17.61-2.18,9.38,9.38,0,0,0,7.24-10.06V141.1a22.57,22.57,0,0,0,9.43,10.43,34.53,34.53,0,0,0,17,3.49,78.6,78.6,0,0,0,17.61-2.18,9.3,9.3,0,0,0,7.24-8.81l1.25,1.13A42.53,42.53,0,0,0,301.75,155,42,42,0,0,0,333,143.1a39.69,39.69,0,0,0,3.68-4.31v5.43a9.38,9.38,0,0,0,9.37,9.37h22.42a9.44,9.44,0,0,0,8.43-5.31,9.44,9.44,0,0,0,8.43,5.31h22.55a9.37,9.37,0,0,0,9.24-8,26.89,26.89,0,0,0,3.43,2.87A48.87,48.87,0,0,0,448.76,155a51.7,51.7,0,0,0,21.8-3.87,29.6,29.6,0,0,0,13.73-11.67,29.27,29.27,0,0,0,4.44-15.24,26.41,26.41,0,0,0-4.44-14.8,22.47,22.47,0,0,0-2.62-3.44,8.53,8.53,0,0,0,3.62-3.37,9.12,9.12,0,0,0,.88-8.12,36.21,36.21,0,0,0-7.87-12.8A29.15,29.15,0,0,0,466.18,74a58.94,58.94,0,0,0-18.73-2.19,54.69,54.69,0,0,0-18.74,2.75,29.32,29.32,0,0,0-13.48,9.68,28.31,28.31,0,0,0-1.88,2.87,26.21,26.21,0,0,0-4.18-6.24A27.93,27.93,0,0,0,387.62,72a33.48,33.48,0,0,0-15.36,3.37,9.22,9.22,0,0,0-5.75-2H345.84a9.37,9.37,0,0,0-9.36,9.37h0v5.18A22.85,22.85,0,0,0,335,86.08,41.56,41.56,0,0,0,301.32,72a41.94,41.94,0,0,0-30.91,11.8V82.71A9.38,9.38,0,0,0,261,73.34H258.1V59.17a9.36,9.36,0,0,0-9.36-9.37Z"/><path class="e724c9fe-e8b7-4fa9-8ff8-a1fee8a2f5f4" d="M206.83,73h2.94l.75,0V69.91A7.88,7.88,0,0,0,206.83,63Z"/><path class="e724c9fe-e8b7-4fa9-8ff8-a1fee8a2f5f4" d="M485.29,102.63a8.53,8.53,0,0,1-3.62,3.37,22.47,22.47,0,0,1,2.62,3.44,25.75,25.75,0,0,1,2.66,5.13,8,8,0,0,0,2.15-2.26,7.73,7.73,0,0,0,.69-6.81,34.59,34.59,0,0,0-3.1-6.88A9,9,0,0,1,485.29,102.63Z"/><path class="e724c9fe-e8b7-4fa9-8ff8-a1fee8a2f5f4" d="M88.55,137.66A31.08,31.08,0,0,1,78,148.28a33.32,33.32,0,0,1-13.12,4.06,95,95,0,0,1-12.49,1.25h-43a9.19,9.19,0,0,1-2.63-.38v1.5a7.87,7.87,0,0,0,7.87,7.87h43a95,95,0,0,0,12.49-1.25,32.39,32.39,0,0,0,12.49-3.87,30.4,30.4,0,0,0,10.74-11.24l.14-.26A27.23,27.23,0,0,1,88.55,137.66Z"/><path class="e724c9fe-e8b7-4fa9-8ff8-a1fee8a2f5f4" d="M258.1,73.34H261q.38,0,.75,0V69.91a7.81,7.81,0,0,0-3.69-6.63Z"/><path class="e724c9fe-e8b7-4fa9-8ff8-a1fee8a2f5f4" d="M488.62,121.74c.07.83.11,1.66.11,2.5a29.27,29.27,0,0,1-4.44,15.24,29.6,29.6,0,0,1-13.73,11.67,51.7,51.7,0,0,1-21.8,3.87,48.87,48.87,0,0,1-28.23-6.55,26.89,26.89,0,0,1-3.43-2.87,9.37,9.37,0,0,1-9.24,8H385.31a9.6,9.6,0,0,1-3.25-.6v1.72a7.94,7.94,0,0,0,7.87,7.87h22.48a7.87,7.87,0,0,0,7.87-7.87h0v-2.56a30.29,30.29,0,0,0,5.75,5.56A47.48,47.48,0,0,0,453.38,164a51,51,0,0,0,21.61-3.5,28.55,28.55,0,0,0,13.11-11.12,27.85,27.85,0,0,0,4.19-14.42A25.06,25.06,0,0,0,488.62,121.74Z"/><path class="e724c9fe-e8b7-4fa9-8ff8-a1fee8a2f5f4" d="M376.88,148.28a9.44,9.44,0,0,1-8.43,5.31H346a9.15,9.15,0,0,1-3.06-.52v1.39a7.87,7.87,0,0,0,7.87,7.87H373.2a7.87,7.87,0,0,0,7.87-7.87v-1.91A9.42,9.42,0,0,1,376.88,148.28Z"/><path class="e724c9fe-e8b7-4fa9-8ff8-a1fee8a2f5f4" d="M223.25,145.94a22.47,22.47,0,0,1-2.93-4.84v1.68a9.38,9.38,0,0,1-7.24,10.06A78.6,78.6,0,0,1,195.47,155a34.19,34.19,0,0,1-16.93-3.49,23.05,23.05,0,0,1-3.67-2.58l.24.7a20.9,20.9,0,0,0,9.18,10.81,32.22,32.22,0,0,0,16.23,3.31,75.78,75.78,0,0,0,17.3-2.13,7.87,7.87,0,0,0,6.25-8.43Z"/><path class="e724c9fe-e8b7-4fa9-8ff8-a1fee8a2f5f4" d="M336.66,144.22v-5.43A39.69,39.69,0,0,1,333,143.1,42,42,0,0,1,301.75,155a42.53,42.53,0,0,1-28.91-9.86L271.59,144a9.3,9.3,0,0,1-7.24,8.81A78.6,78.6,0,0,1,246.74,155a34.53,34.53,0,0,1-17-3.49,23.25,23.25,0,0,1-4-2.93c.15.48.3,1,.46,1.43a21.09,21.09,0,0,0,9.18,10.43,32.24,32.24,0,0,0,16.24,3.31,74.64,74.64,0,0,0,17.23-2.13,7.8,7.8,0,0,0,6.25-8.43v-3.06a41,41,0,0,0,3.37,4.06,41,41,0,0,0,27.92,9.5,41,41,0,0,0,30.35-11.43c.69-.72,1.34-1.46,2-2.22A9.32,9.32,0,0,1,336.66,144.22Z"/><path class="e724c9fe-e8b7-4fa9-8ff8-a1fee8a2f5f4" d="M168.49,140a33.86,33.86,0,0,1-2-8.24v12.49a9.37,9.37,0,0,1-9.37,9.37H136.2a9.32,9.32,0,0,1-5.74-1.94A33.24,33.24,0,0,1,115.09,155a28,28,0,0,1-19.49-7,26.81,26.81,0,0,0,4.57,7.49A26,26,0,0,0,120.53,164a31.73,31.73,0,0,0,15.17-3.5,7.75,7.75,0,0,0,5.5,2.25h21.11a7.93,7.93,0,0,0,7.86-7.87V143.39A22.61,22.61,0,0,1,168.49,140Z"/><path class="e724c9fe-e8b7-4fa9-8ff8-a1fee8a2f5f4" d="M992.69,104.07a9.85,9.85,0,0,1-3.62,3.37,22.39,22.39,0,0,1,2.62,3.37,26.28,26.28,0,0,1,2.73,5.36,7.66,7.66,0,0,0,3.14-9.29,34.64,34.64,0,0,0-3.43-7.44A9.13,9.13,0,0,1,992.69,104.07Z"/><path class="e724c9fe-e8b7-4fa9-8ff8-a1fee8a2f5f4" d="M995.91,122.16a28.28,28.28,0,0,1,.22,3.45,29,29,0,0,1-4.44,15.24A30.19,30.19,0,0,1,978,152.59a53,53,0,0,1-21.8,3.81,48.78,48.78,0,0,1-28.23-6.56,30.36,30.36,0,0,1-6.24-6.56,31.25,31.25,0,0,1-12.43,9.31,52.91,52.91,0,0,1-21.79,3.81,48.78,48.78,0,0,1-28.23-6.56,30.36,30.36,0,0,1-7.74-8.12,36.88,36.88,0,0,1-10.87,9.68,50.94,50.94,0,0,1-25,5.25,49.22,49.22,0,0,1-22.61-4.5,35.65,35.65,0,0,1-8.74-6.55,9.36,9.36,0,0,1-9.37,9.36H711.05a9.37,9.37,0,0,1-2.56-.35v1.48a7.81,7.81,0,0,0,7.74,7.87h63.95a7.88,7.88,0,0,0,7.87-7.87v-4.31A33.47,33.47,0,0,0,799,161a47,47,0,0,0,21.92,4.31,49.42,49.42,0,0,0,24.35-5,36.67,36.67,0,0,0,11.68-10.8,28.9,28.9,0,0,0,8.55,9.55,47.51,47.51,0,0,0,27.36,6.25,50.46,50.46,0,0,0,21.1-3.69,28.62,28.62,0,0,0,12.49-10.55,27.33,27.33,0,0,0,7.75,8,47.48,47.48,0,0,0,27.35,6.25,50.94,50.94,0,0,0,21.17-3.69,28.11,28.11,0,0,0,13-11.11A27.25,27.25,0,0,0,1000,136.1,25.37,25.37,0,0,0,995.91,122.16Z"/><path class="e724c9fe-e8b7-4fa9-8ff8-a1fee8a2f5f4" d="M745.39,115.18h3.81V71.09a7.85,7.85,0,0,0-3.81-6.74Z"/><polygon class="e31094a0-45f8-4d73-8a93-02a3821c5433" points="736.03 60.54 711.11 60.54 711.11 145.59 774.93 145.59 774.93 124.67 736.03 124.67 736.03 60.54"/><path class="e31094a0-45f8-4d73-8a93-02a3821c5433" d="M984.14,115.93a18.75,18.75,0,0,0-8.06-6.43,60.31,60.31,0,0,0-16.61-3.75,34.32,34.32,0,0,1-9.55-2.06,3.66,3.66,0,0,1-2.19-3.43,4.3,4.3,0,0,1,1.69-3.44A8.85,8.85,0,0,1,955,95.39a10.64,10.64,0,0,1,6.25,1.87,7.7,7.7,0,0,1,2.75,4.31l21.23-2.19a27.91,27.91,0,0,0-5.5-9.55,20.12,20.12,0,0,0-8.3-5.25,52.19,52.19,0,0,0-15.49-1.68h-.19A46.76,46.76,0,0,0,940,85.27a19.56,19.56,0,0,0-9.25,6.24,16.81,16.81,0,0,0-3.37,10.5,16.19,16.19,0,0,0,3.12,9.92,16.81,16.81,0,0,0,7.62,6.25,94.42,94.42,0,0,0,16.24,4,41.53,41.53,0,0,1,9.62,2.43,4.24,4.24,0,0,1,2.49,3.94,4.47,4.47,0,0,1-1.93,3.74,10.34,10.34,0,0,1-6.93,2.06,11.08,11.08,0,0,1-6.62-1.81,11.64,11.64,0,0,1-3.87-6.24l-22.24,2.18a21.93,21.93,0,0,0,8.75,13.74A40.8,40.8,0,0,0,956.41,147a43.55,43.55,0,0,0,17.92-3A21,21,0,0,0,984,136,19.45,19.45,0,0,0,987,125.61,17.26,17.26,0,0,0,984.14,115.93Z"/><path class="e31094a0-45f8-4d73-8a93-02a3821c5433" d="M907.2,109.69a60.31,60.31,0,0,0-16.61-3.75,34.83,34.83,0,0,1-9.56-2.06,3.76,3.76,0,0,1-2.24-3.44A4.37,4.37,0,0,1,880.53,97a8.91,8.91,0,0,1,5.56-1.44,10.72,10.72,0,0,1,6.25,1.88,8,8,0,0,1,2.75,4.31l21.23-2.19A28,28,0,0,0,910.76,90a19.23,19.23,0,0,0-8.31-5.25A51.7,51.7,0,0,0,887,83.08h-.19A47.3,47.3,0,0,0,871,85.27a19.9,19.9,0,0,0-9.24,6.24,18,18,0,0,0,0,20.42,17,17,0,0,0,7.68,6.25,92.63,92.63,0,0,0,16.18,4,41.51,41.51,0,0,1,9.68,2.43,4.24,4.24,0,0,1,2.49,3.94,4.49,4.49,0,0,1-1.93,3.74,10.65,10.65,0,0,1-7,2.06,10.8,10.8,0,0,1-6.55-1.81,11.71,11.71,0,0,1-3.88-6.24l-22.23,2.18A21.7,21.7,0,0,0,865,142.22a40.83,40.83,0,0,0,22.8,4.81,44.22,44.22,0,0,0,17.92-3,21.05,21.05,0,0,0,9.62-8.05,20,20,0,0,0,3.06-10.37,17.28,17.28,0,0,0-2.94-9.68A18,18,0,0,0,907.2,109.69Z"/><path class="e31094a0-45f8-4d73-8a93-02a3821c5433" d="M834.82,87.08A42.37,42.37,0,0,0,815,82.78h-1.72a32.52,32.52,0,0,0-22.69,9,32.29,32.29,0,0,0-8.56,23,34.34,34.34,0,0,0,4.37,17.67,26.85,26.85,0,0,0,11,10.93,40.14,40.14,0,0,0,18.3,3.49,42.51,42.51,0,0,0,20.55-4.06,32.52,32.52,0,0,0,12.17-13.3l-22-2.18a14.45,14.45,0,0,1-3.94,3.93,12.46,12.46,0,0,1-6.24,1.75,10.54,10.54,0,0,1-8.49-4,16,16,0,0,1-2.88-8.49h44.9v-2.68a44.89,44.89,0,0,0-3.8-19.8A26.9,26.9,0,0,0,834.82,87.08ZM804.6,109.62a16.58,16.58,0,0,1,2.62-8.3,10.52,10.52,0,0,1,16-1.5,16.31,16.31,0,0,1,3.49,9.8Z"/><path class="e31094a0-45f8-4d73-8a93-02a3821c5433" d="M253.48,129.23a4.05,4.05,0,0,1-4.06-2.31,11.7,11.7,0,0,1-.68-5.18V99.88h12.48V82.58H248.74V59.17h-6.5L218,82.58v17.3h8.31v22a40.82,40.82,0,0,0,1.93,14.93,13.24,13.24,0,0,0,5.81,6.87A25,25,0,0,0,246.55,146,70.34,70.34,0,0,0,262,144l-1.63-16.3A23.54,23.54,0,0,1,253.48,129.23Z"/><path class="e31094a0-45f8-4d73-8a93-02a3821c5433" d="M202,128.92a4,4,0,0,1-3.81-2,11.58,11.58,0,0,1-.75-5.18V99.88h12.49V82.58H197.4V59.17H191l-24.1,23.41v17.3h7.87v21.67a42.41,42.41,0,0,0,1.87,14.93,13.06,13.06,0,0,0,5.87,6.87A25,25,0,0,0,195,145.66a71.48,71.48,0,0,0,15.55-1.94l-1.69-16.3A22.92,22.92,0,0,1,202,128.92Z"/><path class="e31094a0-45f8-4d73-8a93-02a3821c5433" d="M66.63,99.13a18.76,18.76,0,0,0,8.68-5.68,19.42,19.42,0,0,0,4.5-12.93,20.43,20.43,0,0,0-6.25-15.11,24.6,24.6,0,0,0-17.92-6.24H9.37v85.24H51.71a107.71,107.71,0,0,0,11.18-1.13,24.88,24.88,0,0,0,9.43-2.81,22,22,0,0,0,8-8.36,24.12,24.12,0,0,0,2.93-11.87,21.4,21.4,0,0,0-4.12-13.49A22.36,22.36,0,0,0,66.63,99.13Zm-32.1-6.74V76.28h11a11.84,11.84,0,0,1,7.93,2.06,7.65,7.65,0,0,1,2.31,5.81,7.94,7.94,0,0,1-2.31,6.24,11.87,11.87,0,0,1-8.12,2.12H34.53Zm24.23,24.79a8.24,8.24,0,0,1-2.68,6.25A13.28,13.28,0,0,1,47,125.8H34.91v.12l-.38-.12h.38V108.69H47.4a14.2,14.2,0,0,1,8.74,2.25A7.69,7.69,0,0,1,58.76,117.18Z"/><path class="e31094a0-45f8-4d73-8a93-02a3821c5433" d="M476.43,114.87a18.83,18.83,0,0,0-8.37-6.81,63.19,63.19,0,0,0-16.61-3.68,32,32,0,0,1-9.56-2.12,3.59,3.59,0,0,1-2.19-3.38,4.51,4.51,0,0,1,1.69-3.49A8.88,8.88,0,0,1,447,94a11.14,11.14,0,0,1,6.24,1.81,7.81,7.81,0,0,1,2.75,4.37L477.17,98a26.69,26.69,0,0,0-5.49-9.87,20,20,0,0,0-8.31-5.24,52.54,52.54,0,0,0-14.66-1.72h-1.63c-5,0-8.79.89-14.81,3A19,19,0,0,0,423,90.7a16.74,16.74,0,0,0-3.37,10.49,16.2,16.2,0,0,0,3.12,9.93,17.74,17.74,0,0,0,7.62,6.25,95.39,95.39,0,0,0,16.24,3.93,49.61,49.61,0,0,1,9.61,2.44,4.28,4.28,0,0,1,2.5,4,4.61,4.61,0,0,1-1.87,3.75,13.12,13.12,0,0,1-13.62,0,11.51,11.51,0,0,1-3.87-6.24l-22.23,2.18a21.64,21.64,0,0,0,8.74,13.68A40.24,40.24,0,0,0,448.7,146a43.55,43.55,0,0,0,17.92-3,20.78,20.78,0,0,0,9.62-8.05,19.65,19.65,0,0,0,3.06-10.37A17.26,17.26,0,0,0,476.43,114.87Z"/><path class="e31094a0-45f8-4d73-8a93-02a3821c5433" d="M389.79,81.22c-.62,0-3.06,0-3.6,0a23.92,23.92,0,0,0-10,2.61,30.72,30.72,0,0,0-9.49,8.81V82.58H345.84v61.64h22.42V114.81a19.9,19.9,0,0,1,2.5-11.68,8.05,8.05,0,0,1,6.62-3.25,7.16,7.16,0,0,1,5.75,2.44,13,13,0,0,1,2,8.18v33.72h22.67V105.81a26.49,26.49,0,0,0-5.3-18C399.14,84.25,394.59,81.59,389.79,81.22Z"/><path class="e31094a0-45f8-4d73-8a93-02a3821c5433" d="M327.86,91.76a32.54,32.54,0,0,0-26.54-10.55h-.13a32.67,32.67,0,0,0-24.35,9.12,31.93,31.93,0,0,0-9.06,23.29,31.23,31.23,0,0,0,10.68,24.48,33.78,33.78,0,0,0,22.67,7.37,33,33,0,0,0,25-9.12A31.63,31.63,0,0,0,335,113.06,32.12,32.12,0,0,0,327.86,91.76Zm-18.17,34a10.1,10.1,0,0,1-7.28,4.18h-.66a9.69,9.69,0,0,1-7.93-3.93,19.19,19.19,0,0,1-3.18-12.49,19.14,19.14,0,0,1,3.18-12.12,9.83,9.83,0,0,1,8.06-4,9.61,9.61,0,0,1,7.81,3.93,18.8,18.8,0,0,1,3.12,11.93A20.23,20.23,0,0,1,309.69,125.8Z"/><path class="e31094a0-45f8-4d73-8a93-02a3821c5433" d="M134.83,112.25a19.35,19.35,0,0,1-3.06,11.93,7.89,7.89,0,0,1-6.25,3.24,7.11,7.11,0,0,1-5.74-2.43,13.31,13.31,0,0,1-2-8.25V82.58H95.24v39.28a26.18,26.18,0,0,0,5.24,17.93A18.77,18.77,0,0,0,115,145.66,23.94,23.94,0,0,0,126.71,143a31.19,31.19,0,0,0,9.43-8.8v10h20.92V82.58H134.83Z"/></g></svg>
