<svg viewBox="0 0 512 512" xmlns="http://www.w3.org/2000/svg"><path fill="#11B6DC" d="M424.8 296.2c-15.3 0-29.7 6-40.5 16.8 -1.3 1.3-2.5 2.6-3.6 3.9L334.3 290v-68l46.4-26.8c1.1 1.4 2.3 2.7 3.6 3.9 10.8 10.8 25.2 16.8 40.5 16.8s29.7-6 40.5-16.8 16.8-25.2 16.8-40.5 -6-29.7-16.8-40.5 -25.2-16.8-40.5-16.8 -29.7 6-40.5 16.8 -16.8 25.2-16.8 40.5c0 6.9 1.2 13.6 3.5 19.9l-46.4 26.8 -59-34v-53.6c6.6-1.1 13-3.4 19-6.9 13.2-7.7 22.7-20 26.7-34.8 4-14.8 1.9-30.2-5.7-43.5 -7.7-13.2-20-22.7-34.8-26.7 -14.8-4-30.2-1.9-43.5 5.7 -13.2 7.7-22.7 20-26.7 34.8 -4 14.8-1.9 30.2 5.7 43.5 7.7 13.2 20 22.7 34.8 26.7 1.7.5 3.4.8 5.2 1.1v53.6l-59 34.1 -46.3-26.8c2.3-6.3 3.5-13 3.5-19.9 0-15.3-6-29.7-16.8-40.5s-25.2-16.8-40.5-16.8 -29.7 6-40.5 16.8C35.9 128.9 30 143.3 30 158.6c0 15.3 6 29.7 16.8 40.5s25.2 16.8 40.5 16.8 29.7-6 40.5-16.8c1.3-1.3 2.5-2.6 3.6-3.9l46.4 26.8v68.1l-46.4 26.8c-1.1-1.4-2.3-2.7-3.6-3.9 -10.8-10.8-25.2-16.8-40.5-16.8s-29.7 6-40.5 16.8C35.9 323.8 30 338.1 30 353.4c0 15.3 6 29.7 16.8 40.5s25.2 16.8 40.5 16.8 29.7-6 40.5-16.8 16.8-25.2 16.8-40.5c0-6.9-1.2-13.6-3.5-19.9l46.3-26.8 59 34.1v53.5c-6.6 1.1-13 3.4-19 6.9 -13.2 7.6-22.7 20-26.7 34.8 -4 14.8-1.9 30.2 5.7 43.5 7.7 13.2 20 22.7 34.8 26.7 4.9 1.3 9.9 2 14.9 2s9.9-.7 14.7-1.9c4.8-1.3 9.4-3.2 13.9-5.8 13.2-7.7 22.7-20 26.7-34.8 4-14.8 1.9-30.2-5.7-43.5 -7.7-13.2-20-22.7-34.8-26.7 -1.7-.5-3.4-.8-5.2-1.1v-53.6l59-34.1 46.4 26.8c-2.3 6.3-3.5 13-3.5 19.9 0 15.3 6 29.7 16.8 40.5s25.2 16.8 40.5 16.8 29.7-6 40.5-16.8 16.8-25.2 16.8-40.5 -6-29.7-16.8-40.5c-11-10.8-25.3-16.7-40.6-16.7Zm-38-137.6c0-20.9 17-38 38-38 20.9 0 38 17 38 38s-17 38-38 38c-10.5 0-20.1-4.3-27-11.3 -4.5-4.6-7.9-10.3-9.7-16.7 -.9-3.2-1.3-6.6-1.3-10Zm-299.6 38c-20.9 0-38-17-38-38s17-38 38-38 38 17 38 38c0 3.5-.5 6.8-1.3 10l-9.7 16.7c-6.9 6.9-16.4 11.3-27 11.3Zm38 156.8c0 20.9-17 38-38 38s-38-17-38-38c0-20.9 17-38 38-38 10.5 0 20.1 4.3 27 11.3 4.5 4.6 7.9 10.3 9.7 16.7 .9 3.2 1.3 6.6 1.3 10Zm97.9-273.3C212.6 62 218.9 38.7 237 28.2c5.9-3.4 12.3-5.1 18.9-5.1 3.3 0 6.6.4 9.9 1.3 9.8 2.6 18 8.9 23.1 17.7 5.1 8.8 6.4 19 3.8 28.8 -2.6 9.8-8.9 18-17.7 23.1 -3 1.7-6.1 3-9.3 3.8 -3.2.8-6.4 1.2-9.6 1.2 -3.3 0-6.5-.4-9.7-1.3 -9.5-2.3-18-8.5-23.3-17.6Zm42.7 334.1c9.8 2.6 18 8.9 23.1 17.7 3.4 6 5.1 12.5 5.1 18.9 0 13.1-6.8 25.9-19 33 -18.1 10.5-41.4 4.2-51.9-13.9 -5.1-8.8-6.4-19-3.8-28.8 2.6-9.8 8.9-18 17.7-23.1 3-1.7 6.1-3 9.3-3.9 3.1-.8 6.3-1.2 9.6-1.2 3.2 0 6.5.4 9.7 1.3 .1-.1.2 0 .2 0Zm159-22.8c-20.9 0-38-17-38-38 0-3.5.5-6.8 1.3-10 1.7-6.4 5.1-12.1 9.7-16.7 6.9-7 16.4-11.3 27-11.3 20.9 0 38 17 38 38 -.1 21-17.1 38-38 38Z"/></svg>