<svg id="b89da229-c93f-48e8-bc36-0733baf21e7b" data-name="Layer 1" xmlns="http://www.w3.org/2000/svg" viewBox="0 0 759.7 98.1"><defs><style>.b607eb0f-f102-4d58-96f2-38fc2fdc61c3{fill:#fff;}.e31b0b49-21f4-419f-937f-89668187cae4{fill:#c3cae0;}.b8d1f0c8-73f4-4f40-b4eb-da94c2c88b11{fill:#db003f;}.b37af9da-a228-4cd2-b7f8-1584a5e256ec{fill:#0e2a85;}</style></defs><path class="b607eb0f-f102-4d58-96f2-38fc2fdc61c3" d="M710.2,85.9a36.3,36.3,0,1,1,36.3-36.3A36.3,36.3,0,0,1,710.2,85.9Z" transform="translate(0 -0.9)"/><path class="e31b0b49-21f4-419f-937f-89668187cae4" d="M741.2,41.8a30.35,30.35,0,0,1,1,9,29.19,29.19,0,0,1-1.1,7.2,26.54,26.54,0,0,1-1.2,3.7,37.78,37.78,0,0,1-1.7,3.5c-.4.6-.8,1.3-1.2,1.9a13.3,13.3,0,0,1-1.4,1.9c-.1.1-.1.2-.2.3l-.1-.1h0a1,1,0,0,0,.1-.3l.3-.9c.2-.6.4-1.1.6-1.6.3-.8.6-1.7.9-2.5.6-1.9,1.3-3.8,1.7-5.7a45.91,45.91,0,0,0,1-5.1c.2-1.2.3-2.4.5-3.6s.2-2.4.3-3.7a24.37,24.37,0,0,0,.1-2.7,4.87,4.87,0,0,1,.1-1.2v-.1Z" transform="translate(0 -0.9)"/><path class="b8d1f0c8-73f4-4f40-b4eb-da94c2c88b11" d="M680.9,34.5a11.91,11.91,0,0,1-3.2-1c.3-.7.7-1.3,1-1.9a2,2,0,0,0,.7.1c.2,0,.4.1.6.1l-.1-.2-.1-.1-.2-.2-.1-.1c-.1-.1-.2-.3-.3-.4l-.1-.1h0a14.29,14.29,0,0,1,1.4-2c.1-.1.1-.2.2-.2h0a1.76,1.76,0,0,1,.4-.5,1.85,1.85,0,0,0-.2.7c.1.2.2.5.3.7a5.55,5.55,0,0,0,.6.8c0-.2.1-.3.1-.5s.1-.4.2-.6a3.33,3.33,0,0,0,.3-.6c.1-.1.1-.2.2-.3l.1-.1.1-.1a.76.76,0,0,1,.5-.2h.6a.1.1,0,0,1,.1.1.19.19,0,0,1,0,.3,4,4,0,0,0-.1,1.9,7.39,7.39,0,0,0,.8,2.2h0l1.8.6a11.73,11.73,0,0,1-.5-1.1h0c-.1-.2-.1-.4-.2-.6s-.1-.4-.2-.6,0-.4.2-.5a2.19,2.19,0,0,1,.5-.3c.1-.1.2-.1.4-.1s.1,0,.2.1l.1.1c.1.2.2.3.3.5s.2.3.3.4l.1.1c0,.1.1.1.1.2l.3.3.3.3a6.47,6.47,0,0,0,.9.8l.1.1a1.38,1.38,0,0,0,.4.3c.2.1.3.3.5.4h.1a12.75,12.75,0,0,0,1.9-.1l-.9-.9a7,7,0,0,1-.8-1,.45.45,0,0,1,0-.5l.4-.4a.62.62,0,0,1,.7-.1h0a.1.1,0,0,1,.1.1l.4.2c.2.1.3.2.5.3l.1.1a9.29,9.29,0,0,0,1,.5l.2.1a10.37,10.37,0,0,0,1,.4l.2.1c.3.1.7.3,1,.4.7-.2,1.3-.3,2-.5-.7-.5-1.5-1-2.2-1.5-.2-.1-.2-.3-.1-.5l.4-.5a.78.78,0,0,1,.8-.2c1.4.5,2.9,1,5,1.7.7-.2,1.3-.4,2-.6h0c-.7-.4-1.5-.9-2.3-1.4l-.2-.2a.37.37,0,0,1,.1-.3l.4-.6c.2-.2.6-.4.8-.3,1.6.5,3.2,1,4.8,1.4l.3.1c.7-.2,1.3-.4,2-.6l-2.3-1.4-.2-.2a.37.37,0,0,1,.1-.3l.4-.6a.81.81,0,0,1,.9-.3c1.7.5,3.4,1,5.2,1.5l2.1-.6c-.8-.5-1.6-1-2.3-1.4l-.2-.2a.37.37,0,0,1,.1-.3l.4-.6a1,1,0,0,1,.9-.3c2,.6,3.7,1.2,5.2,1.8a15.52,15.52,0,0,1,2.1-.4,8.74,8.74,0,0,1-1-.8,12.49,12.49,0,0,1-1.2-.9l-.2-.2a.37.37,0,0,1,.1-.3c.1-.1.2-.3.3-.4l.1-.1a1.09,1.09,0,0,1,1-.2,35.33,35.33,0,0,1,5.1,2.4h.9a6.6,6.6,0,0,1,1.4.1c-.1-.1-.2-.3-.4-.4s-.3-.4-.5-.6l-.6-.6a2.65,2.65,0,0,0-.6-.5.37.37,0,0,1-.1-.3c0-.1.1-.2.2-.3l.4-.3c.1-.1.2-.1.3-.2a1.27,1.27,0,0,1,1.2,0,2.09,2.09,0,0,1,.6.4l.1.1c.1,0,.1.1.2.1s.3.2.5.3.4.3.6.5.4.3.6.5l.1.1.9.9c.2.2.3.4.5.5s.2.3.3.4l.1.1a9.49,9.49,0,0,1,2.1.9c-.1-.2-.1-.4-.2-.5s-.2-.5-.3-.7-.2-.5-.3-.7l-.1-.1a1.42,1.42,0,0,1-.2-.6c0-.1-.1-.2,0-.3s.1-.2.3-.2h.1a43.78,43.78,0,0,1,4.1,4.5c.1.3.2.5.3.8.1.1.3.2.4.3a.1.1,0,0,0,.1.1h0c.2.2.3.5.5.7a4.35,4.35,0,0,1,.4.7c.2.3.3.5.5.8a4.35,4.35,0,0,1,.4.7c.2.3.3.6.5.9l.3.6c.2.4.3.7.5,1.1.1.2.2.3.2.5h0c-.2-.1-.3-.3-.5-.5h0a29.65,29.65,0,0,0-5-.4.87.87,0,0,1-.8-.6l-.1-.4a.49.49,0,0,1,.3-.6c.8-.2,1.6-.4,2.5-.6a1.76,1.76,0,0,1-.5-.4c-.1-.1-.2-.2-.3-.2s-.2-.1-.3-.2-.4-.3-.6-.4h0a17.5,17.5,0,0,0-4.8.6.44.44,0,0,1-.5-.1.78.78,0,0,1-.4-.4l-.2-.3a.48.48,0,0,1,.2-.6,10.54,10.54,0,0,0,1.1-.7c.2-.1.3-.2.5-.3h.1c.2-.1.3-.2.5-.2-.1,0-.1-.1-.2-.1s-.5-.2-.7-.3l-.5-.2c-.1,0-.2-.1-.3-.1h-.1a14.24,14.24,0,0,0-4.1,2c-.1.1-.3.2-.4.1a.76.76,0,0,1-.4-.2l-.3-.3a.47.47,0,0,1-.1-.6c.1-.1.2-.3.4-.5s.3-.3.4-.5.3-.3.4-.5.2-.3.4-.4h-2a22.19,22.19,0,0,0-3.6,3.4l-.2.2c-.1,0-.2.1-.3.1a1.27,1.27,0,0,1-.6-.1l-.4-.2a.48.48,0,0,1-.2-.6c.5-.9.9-1.6,1.3-2.3l-.4.1-1.1.2-.5.1h0c-1.1,1.1-2.1,2.4-3.3,3.8a1.07,1.07,0,0,1-1.1.3l-.4-.2c-.1-.1-.2-.1-.3-.3v-.3c.3-.7.7-1.6,1.1-2.4l-.4.1H716a3.09,3.09,0,0,1-.8.2h0c-1.1,1.4-2.2,2.7-3.2,4a1,1,0,0,1-1.1.3l-.4-.2c-.1-.1-.2-.1-.3-.3v-.3l1.1-2.4-2,.6h0l-.2.2c-1,1.3-2,2.6-3.1,3.9-.3.3-.8.5-1.1.3l-.4-.2c-.1-.1-.2-.1-.3-.3v-.3c.3-.7.7-1.5,1-2.2l.1-.2c-.7.2-1.4.4-2,.6h0a52.45,52.45,0,0,1-3.5,4,1.31,1.31,0,0,1-1.2.3l-.4-.2-.3-.3v-.3c.3-.5.5-.9.7-1.2s.4-.7.6-1.1c-.2.1-.4.1-.6.2s-.3.1-.4.1-.5.1-.7.2-.2.1-.4.1h0a6,6,0,0,1-.8.8l-.2.2a2.7,2.7,0,0,1-.8.7l-.2.2-.4.4-.6.5c-.3.3-.7.5-1,.8l-.1.1a1.45,1.45,0,0,1-.7.2,1.48,1.48,0,0,1-.7-.1l-.4-.3c-.1-.1-.2-.2-.2-.3a.37.37,0,0,1,.1-.3l.5-.5.1-.1.4-.4c.2-.3.5-.6.8-1-.2,0-.5.1-.7.1h-1.5a20.3,20.3,0,0,1-5.3,2.3H685a.76.76,0,0,1-.4-.1c-.2-.1-.5-.2-.6-.4s-.2-.3-.3-.4-.2-.3-.1-.4.1-.2.3-.3.5-.2.7-.3a4.88,4.88,0,0,1,.7-.3,7.46,7.46,0,0,0,1.2-.7,2.92,2.92,0,0,0-.9-.2h-.1a6.94,6.94,0,0,1-1.3-.5h0A7.82,7.82,0,0,1,680.9,34.5Zm62.9,1.3a1.7,1.7,0,0,0-.7.1c-.5,0-1,.1-1.3.1s-.4.2-.4.5v.4a1,1,0,0,0,.7.8,20.48,20.48,0,0,1,2.4.5h.1A22.5,22.5,0,0,0,743.8,35.8Zm-5.1,34.3-.3-.1c-.1-.1-.3,0-.5,0a1.38,1.38,0,0,0-.4.3,20.56,20.56,0,0,1-2.4,3.9h0a1.27,1.27,0,0,1-.6.1c-.1,0-.2.1-.4.1l-.9.2a11.73,11.73,0,0,0,.5-1.1c.2-.4.3-.8.5-1.2h0a.48.48,0,0,0-.2-.6l-.3-.2a.65.65,0,0,0-.9.2,33.27,33.27,0,0,1-3.2,3.4h0c-.6.1-1.2.1-1.9.2.2-.3.5-.7.7-1s.5-.7.7-1.1c.1-.2.1-.5-.1-.6l-.3-.2a.44.44,0,0,0-.5-.1.76.76,0,0,0-.5.2,40,40,0,0,1-3.7,3h-1.8l.4-.4.5-.6a8.74,8.74,0,0,0,.8-1,.49.49,0,0,0-.1-.7l-.3-.3a.92.92,0,0,0-1-.1c-1.2.9-2.6,1.8-4,2.7h0l-1-.1-.9-.1.9-.9a9,9,0,0,0,.9-1,.48.48,0,0,0,0-.7l-.3-.3a.76.76,0,0,0-1-.1q-2,1.2-4.2,2.4h0c-.4-.1-.7-.1-1-.2a2.92,2.92,0,0,1-.9-.2c.6-.5,1.2-1.1,1.9-1.7.2-.2.2-.4,0-.7l-.2-.3a.78.78,0,0,0-1-.2c-1.4.7-2.9,1.4-4.4,2.1h0c-.7-.1-1.3-.3-1.9-.4.7-.5,1.3-1.1,2-1.6a.59.59,0,0,0,.1-.7l-.2-.3a1,1,0,0,0-1-.3c-1.4.6-2.9,1.3-4.5,1.9h0c-.6-.1-1.1-.3-1.9-.5l2.1-1.5a.47.47,0,0,0,.1-.6l-.2-.3a1,1,0,0,0-1-.3c-1.4.6-2.9,1.1-4.6,1.7h0l-1-.3c-.1,0-.2-.1-.3-.1s-.4-.1-.6-.2c.1,0,.1-.1.2-.1s.2-.1.3-.2l1.7-1.1c.2-.2.3-.4.1-.6l-.2-.3a.81.81,0,0,0-1-.3,29.21,29.21,0,0,0-4.9,1.9h0a12.31,12.31,0,0,0-2-.2l.9-.9a10.63,10.63,0,0,1,1.1-.9c.1-.1.2-.2.2-.3s0-.2-.2-.4l-.3-.3a1.63,1.63,0,0,0-.6-.3c-.2,0-.5,0-.6.1a22,22,0,0,0-4.4,2.8h-1c-.3,0-.6.1-1,.1h0a8.65,8.65,0,0,0,.7-1,7.29,7.29,0,0,1,.9-1.1.37.37,0,0,0,.1-.3c0-.1-.1-.2-.2-.3l-.4-.2a.66.66,0,0,0-.6-.1,1.42,1.42,0,0,0-.6.2c-.9.7-1.8,1.5-2.7,2.3l.6.9h0c0,.1.1.1.1.2a24.26,24.26,0,0,0,1.4,2h0c.7.9,1.5,1.8,2.2,2.7l-.2.1a.45.45,0,0,0,0-.5,9,9,0,0,0-.9-1,6.47,6.47,0,0,1-.8-.9,11.48,11.48,0,0,1,1.9-.1,21.72,21.72,0,0,1,3.6,3.1.76.76,0,0,0,.4.2.6.6,0,0,0,.4-.1l.5-.4c.2-.1.2-.3.1-.5a7.46,7.46,0,0,0-.7-1.2,8.79,8.79,0,0,0-.6-1c.6.1,1.2.1,1.9.2.5.6,1.1,1.2,1.6,1.8l.4.5a1.76,1.76,0,0,0,.4.5l.3.5.2.4a.1.1,0,0,0,.1.1h0a.83.83,0,0,0,.8.2l.6-.3a.37.37,0,0,0,.2-.5l-.6-1.3-.3-.6c0-.1-.1-.2-.1-.3l-.1-.2h.2c.5.1,1,.3,1.7.5,1.1,1.4,2.2,2.7,3.2,4a.83.83,0,0,0,.8.2l.6-.3a.37.37,0,0,0,.2-.5,25.57,25.57,0,0,1-1.1-2.4c.6.2,1.2.3,1.9.5,1.1,1.3,2.3,2.6,3.4,3.9a1,1,0,0,0,.9.2l.6-.3a.37.37,0,0,0,.2-.5c-.4-.8-.8-1.6-1.2-2.3.6.1,1.3.3,1.9.4,1.2,1.3,2.4,2.6,3.6,3.7a.74.74,0,0,0,.9.1l.6-.3c.1-.1.2-.1.2-.2V79c-.5-.8-.9-1.5-1.3-2.3l1.9.3c1.3,1.2,2.5,2.4,3.8,3.5a.94.94,0,0,0,.9.1l.6-.4c.1-.1.2-.1.2-.2a.37.37,0,0,0-.1-.3c-.2-.3-.5-.7-.8-1.2-.2-.3-.5-.7-.7-1,.7.1,1.3.1,2,.2,1.4,1.2,2.7,2.3,4.1,3.3a.6.6,0,0,0,.4.1c.2,0,.3,0,.4-.1a2.18,2.18,0,0,0,.5-.4c.1-.1.1-.2.2-.3a.37.37,0,0,0-.1-.3c-.3-.4-.6-.7-.9-1.1l-.4-.5L722,78h2c1.5,1.1,2.9,2,4.4,2.9.1,0,.1.1.2.1.4-.2.8-.5,1.3-.8V80a.37.37,0,0,0-.1-.3l-1-1-.9-.9a13.55,13.55,0,0,0,2-.2h0a18.65,18.65,0,0,0,2,1c.7-.5,1.3-1,2-1.6a.1.1,0,0,1-.1-.1h.2l.1-.1h0c.5-.5,1.1-1,1.6-1.5l.4-.4a17.88,17.88,0,0,0,1.3-1.4l.2-.2h0c.4-.5.9-1,1.3-1.5v-.1c.1-.4.1-.8.2-1.3A1.87,1.87,0,0,0,738.7,70.1Z" transform="translate(0 -0.9)"/><path class="b37af9da-a228-4cd2-b7f8-1584a5e256ec" d="M747.4,42.3a36.4,36.4,0,0,0-2.2-7.1,38.26,38.26,0,0,0-35.1-23.3h-2L12.5,15.5l675.3,3.6a39.15,39.15,0,0,0-4.4,3.7,42.65,42.65,0,0,0-4.8,5.7A46.27,46.27,0,0,0,675,35a38.64,38.64,0,0,0-3,14.5v.3a39.26,39.26,0,0,0,2.8,14.4A38.74,38.74,0,0,0,683,76.7a32.28,32.28,0,0,0,4.9,4.1L12.5,84.5l696,3.6h1.8a46.48,46.48,0,0,0,7.5-.7,35.31,35.31,0,0,0,7.2-2.2,42.24,42.24,0,0,0,6.6-3.6,33,33,0,0,0,5.7-4.8,37.9,37.9,0,0,0,8.1-12.5,42.69,42.69,0,0,0,2.1-7.2,36.4,36.4,0,0,0,.7-7.4h0A36.46,36.46,0,0,0,747.4,42.3Zm-2.5,7.3a37.13,37.13,0,0,1-.7,6.7,36.49,36.49,0,0,1-2,6.4,35,35,0,0,1-7.6,11,41.55,41.55,0,0,1-5.2,4.2,36.62,36.62,0,0,1-5.9,3.1,33.94,33.94,0,0,1-13.1,2.5,33.52,33.52,0,0,1-13-2.6,36.62,36.62,0,0,1-5.9-3.1,35.38,35.38,0,0,1-5.2-4.2,30.48,30.48,0,0,1-4.3-5.2,33.68,33.68,0,0,1-3.2-5.9,29.65,29.65,0,0,1-2-6.4,29.89,29.89,0,0,1-.7-6.7,34.81,34.81,0,0,1,2.5-13.2A34.07,34.07,0,0,1,686,24.9a34.46,34.46,0,0,1,24.5-10.3,38.22,38.22,0,0,1,6.8.6,30.48,30.48,0,0,1,6.5,2,34.56,34.56,0,0,1,6,3.2,43.32,43.32,0,0,1,5.3,4.3,34.73,34.73,0,0,1,10.1,24.4C744.9,49.5,744.9,49.6,744.9,49.6Z" transform="translate(0 -0.9)"/><path class="b8d1f0c8-73f4-4f40-b4eb-da94c2c88b11" d="M95.9,95.2c114.3-1.7,228.6-2.5,342.9-3.1l85.7-.4,85.7-.3,85.7-.1h14.7l1.2-.1,2.4-.1h.6l.6-.1,1.2-.2a40.28,40.28,0,0,0,17.9-7.3l2-1.5c.6-.5,1.2-1.1,1.8-1.6l.9-.8.5-.4.4-.5,1.6-1.8c.6-.6,1-1.3,1.5-1.9l1.5-2,1.3-2.1a22.47,22.47,0,0,0,1.2-2.1A39,39,0,0,0,752,50a41.11,41.11,0,0,0-4.6-18.8,14.32,14.32,0,0,0-1.2-2.1L745,27l-1.5-2c-.5-.7-1-1.3-1.5-1.9l-1.6-1.8-.4-.5-.5-.4-.9-.8c-.6-.5-1.2-1.1-1.8-1.6l-2-1.5a40.28,40.28,0,0,0-17.9-7.3L715.7,9h-1.2L712,8.8l-1.2-.1H696.1l-85.7-.1-85.7-.3-42.9-.1L438.9,8q-171.6-.9-343-3.2C210.2,3.1,324.5,2.3,438.8,1.7l42.9-.2,42.9-.1L610.3,1,696,.9h14.7l1.4.1,2.9.1h.7l.7.1,1.4.2A47.74,47.74,0,0,1,739.2,10l2.3,1.7c.8.6,1.5,1.3,2.2,1.9l1.1,1,.5.5.5.5,2,2.2a20.28,20.28,0,0,1,1.8,2.3l1.7,2.3,1.5,2.5a20.13,20.13,0,0,1,1.4,2.5,51.52,51.52,0,0,1,5.5,22.5,48.49,48.49,0,0,1-5.5,22.4,20.13,20.13,0,0,1-1.4,2.5l-1.5,2.5-1.7,2.3a20.28,20.28,0,0,1-1.8,2.3l-2,2.2-.5.5-.5.5-1.1,1c-.7.6-1.4,1.3-2.2,1.9l-2.3,1.7a47.74,47.74,0,0,1-21.4,8.6l-1.4.2-.7.1H715l-2.9.1-1.4.1H696l-85.7.2-85.7-.3-85.7-.4Q267.3,97.4,95.9,95.2Z" transform="translate(0 -0.9)"/><path d="M30.2,50.5l-2.9-1.6L30,47.3a8.68,8.68,0,0,0,2.9-2.8,8.76,8.76,0,0,0,.9-4.4V28.2c0-4.4-2.1-6.6-6.4-6.6H0V78.5H27.6q6.6,0,6.6-6.6v-14a9.45,9.45,0,0,0-.9-4.5A7.32,7.32,0,0,0,30.2,50.5ZM12.7,32.1h8.4v9.7L18.3,44H12.7Zm8.7,35.8H12.6V54h5.8l3,1.9ZM48,21.6,36,78.3v.1H48.7L50,69.9h9.8l1.3,8.5H73.8v-.1l-12-56.7Zm3.8,37.6,3.1-19.4L58,59.2Zm57.4-31.1V40.2H96.5V31.9H88.4v8.2l18.5,12.7a6.68,6.68,0,0,1,1.8,2,7.75,7.75,0,0,1,.5,3V71.9c0,4.4-2.2,6.6-6.5,6.6H82.2c-4.3,0-6.5-2.2-6.5-6.6V59.3H88.4v8.8h8.1V59.8L77.9,47.1a5,5,0,0,1-1.7-1.9,8,8,0,0,1-.4-3v-14c0-4.4,2.2-6.6,6.5-6.6h20.5C107,21.6,109.2,23.8,109.2,28.1Zm16.7,39.1h17V78.4H113.2V21.6h29.5V32.8H125.9V43.7h13.5V54.6H125.9Zm50.4-16.7-2.9-1.6,2.7-1.6a8.68,8.68,0,0,0,2.9-2.8,8.76,8.76,0,0,0,.9-4.4V28.2c0-4.4-2.1-6.6-6.4-6.6H146.1V78.5h27.6c4.4,0,6.5-2.2,6.5-6.6v-14a9.45,9.45,0,0,0-.9-4.5A6.49,6.49,0,0,0,176.3,50.5ZM158.8,32.1h8.4v9.7L164.4,44h-5.6V32.1Zm8.7,35.8h-8.8V54h5.8l3,1.9Zm26.6-46.3-12,56.7v.1h12.7l1.3-8.5h9.8l1.3,8.5h12.7v-.1l-12-56.7Zm3.8,37.6L201,39.8l3.1,19.4ZM234.8,67h14.9V78.4H222.2V21.6h12.7V67ZM265,67h14.9V78.4H252.4V21.6H265Zm15.2-16.3h20.3V62H280.2Zm18.5-29.1h32.6V32.8h-10V78.4H308.6V32.8h-10V21.6Zm61.2,32.9,8.9,23.4v.5H355.6l-7.9-21.6V46.7h6.6V32.3h-8V78.4H333.6V21.6h26.9c4.3,0,6.5,2.2,6.5,6.6V47.8c0,4.4-2.2,6.6-6.5,6.6h-.6Zm21.4-32.9-12,56.7v.1H382l1.3-8.5h9.8l1.3,8.5h12.7v-.1l-12-56.7Zm3.8,37.6,3.1-19.4,3.1,19.4Zm47-37.6H409.4V78.5h22.7c3.8,0,6.7-.9,8.7-2.8s3-4.7,3-8.5V33c0-3.8-1-6.7-3-8.6S435.9,21.6,432.1,21.6ZM431,64.7a3,3,0,0,1-.9,2.4,4.73,4.73,0,0,1-2.6.7H422V32.3h5.5a4,4,0,0,1,2.6.7,2.7,2.7,0,0,1,.9,2.4Zm16.4-43.1h12.7V78.5H447.4Zm39.5,0h12.7V78.5H487L476.7,51V78.5H464V21.6h12.4l10.3,26.8V21.6Zm51,6.6V39H525.2V32.3h-9V67.7h9V56.3h-6.6V45.6H538V71.8c0,4.4-2.2,6.6-6.5,6.6H510.1c-4.3,0-6.4-2.2-6.4-6.6V28.2c0-4.4,2.2-6.6,6.5-6.6h21.4C535.7,21.6,537.9,23.8,537.9,28.2Zm31-6.6h-27V78.5h12.7V60.1h14.3q6.6,0,6.6-6.6V28.2C575.4,23.8,573.3,21.6,568.9,21.6Zm-6.2,28h-8.1V32.3h8.1Zm16.4-28h12.7V78.5H579.1Zm39.5,0h12.7V78.5H618.8L608.5,51V78.5H595.8V21.6h12.4l10.3,26.8V21.6ZM656,40.2V31.9h-8.1v8.2l18.5,12.7a6.68,6.68,0,0,1,1.8,2,7.75,7.75,0,0,1,.5,3V71.9q0,6.6-6.6,6.6H641.6c-4.3,0-6.5-2.2-6.5-6.6V59.3h12.7v8.8h8.1V59.8L637.3,47.1a5,5,0,0,1-1.7-1.9,8,8,0,0,1-.4-3v-14c0-4.4,2.2-6.6,6.5-6.6h20.5c4.3,0,6.5,2.2,6.5,6.6V40.3H656Z" transform="translate(0 -0.9)"/></svg>