<svg viewBox="0 0 846 218" xmlns="http://www.w3.org/2000/svg" xmlns:xlink="http://www.w3.org/1999/xlink"><defs><mask id="a"><path fill="#FFF" d="M590.2 2.6c-50.6 0-93 35.8-103.2 83.4 1.3-.2 2.6-.3 4-.3 5.6 0 11.3 1.8 15.7 6 1.8-1.5 3.8-2.8 6-3.8 8.9-34.4 40.2-59.9 77.4-59.9 41.2 0 75.1 31.1 79.5 71.1 4.8-7.7 13.4-12.8 23.6-13.4 -10.2-47.4-52.5-83.1-103-83.1Zm89.9 136.9c-1.8 1.9-4.4 3.1-7.2 3.1h-10.5c-12.9 26.9-40.4 45.5-72.2 45.5 -31.7 0-59.1-18.4-72-45.2 -3-.5-5.8-1.3-8.2-2.5 -1.7 1.4-3.9 2.2-6.3 2.2h-13.1c14.3 41.3 53.6 71 99.7 71 46 0 85.3-29.6 99.6-70.8 -3.6-.7-6.8-1.8-9.8-3.3Z"/></mask><path id="b" d="M699 .7L482.8 216.9"/></defs><g transform="translate(0 .21285) scale(.99988)"><g mask="url(#a)"><g stroke-width="1.96" fill="none" stroke="#E53A40"><use xlink:href="#b"/><path stroke-width="1.9" d="M693.3.7L477.1 216.9"/><path stroke-width="1.84" d="M687.7.7L471.5 216.9"/><path stroke-width="1.78" d="M682 .7L465.8 216.9"/><path stroke-width="1.72" d="M676.4.7L460.2 216.9"/><path stroke-width="1.66" d="M670.7.7L454.5 216.9"/><path stroke-width="1.6" d="M665.1.7L448.8 216.9"/><path stroke-width="1.54" d="M659.4.7L443.2 216.9"/><path stroke-width="1.48" d="M653.8.7L437.5 216.9"/><path stroke-width="1.42" d="M648.1.7L431.9 216.9"/><path stroke-width="1.36" d="M642.5.7L426.2 216.9"/><path stroke-width="1.3" d="M636.8.7L420.6 216.9"/><path stroke-width="1.24" d="M631.1.7L414.9 216.9"/><path stroke-width="1.18" d="M625.5.7L409.3 216.9"/><path stroke-width="1.12" d="M619.8.7L403.6 216.9"/><path stroke-width="1.06" d="M614.2.7L398 216.9"/><path stroke-width="1" d="M608.5.7L392.3 216.9"/><path stroke-width=".93" d="M602.9.7L386.7 216.9"/><path stroke-width=".87" d="M597.2.7L381 216.9"/><path stroke-width=".81" d="M591.6.7L375.3 216.9"/><path stroke-width=".75" d="M585.9.7L369.7 216.9"/><path stroke-width=".69" d="M580.3.7L364 216.9"/><path stroke-width=".63" d="M574.6.7L358.4 216.9"/><path stroke-width=".57" d="M569 .7L352.7 216.9"/><path stroke-width=".51" d="M563.3.7L347.1 216.9"/><path stroke-width=".45" d="M557.6.7L341.4 216.9"/><g stroke-width=".39"><path d="M552 .7L335.8 216.9"/><path d="M846 .7L629.8 216.9"/></g><path stroke-width=".45" d="M840.3.7L624.1 216.9"/><path stroke-width=".51" d="M834.7.7L618.5 216.9"/><path stroke-width=".57" d="M829 .7L612.8 216.9"/><path stroke-width=".63" d="M823.4.7L607.2 216.9"/><path stroke-width=".69" d="M817.7.7L601.5 216.9"/><path stroke-width=".75" d="M812.1.7L595.8 216.9"/><path stroke-width=".81" d="M806.4.7L590.2 216.9"/><path stroke-width=".87" d="M800.8.7L584.5 216.9"/><path stroke-width=".93" d="M795.1.7L578.9 216.9"/><path stroke-width="1" d="M789.5.7L573.2 216.9"/><path stroke-width="1.06" d="M783.8.7L567.6 216.9"/><path stroke-width="1.12" d="M778.1.7L561.9 216.9"/><path stroke-width="1.18" d="M772.5.7L556.3 216.9"/><path stroke-width="1.24" d="M766.8.7L550.6 216.9"/><path stroke-width="1.3" d="M761.2.7L545 216.9"/><path stroke-width="1.36" d="M755.5.7L539.3 216.9"/><path stroke-width="1.42" d="M749.9.7L533.7 216.9"/><path stroke-width="1.48" d="M744.2.7L528 216.9"/><path stroke-width="1.54" d="M738.6.7L522.3 216.9"/><path stroke-width="1.6" d="M732.9.7L516.7 216.9"/><path stroke-width="1.66" d="M727.3.7L511 216.9"/><path stroke-width="1.72" d="M721.6.7L505.4 216.9"/><path stroke-width="1.78" d="M716 .7L499.7 216.9"/><path stroke-width="1.84" d="M710.3.7L494.1 216.9"/><path stroke-width="1.9" d="M704.6.7L488.4 216.9"/><use xlink:href="#b"/></g></g><g><path d="M26.8 83.8c8 0 13.4 3.2 18.5 7.7l-8.2 9.3c-2.6-3-6.4-4.7-10.4-4.7 -7.5 0-12.4 5.5-12.4 12.4s5 12.5 12.5 12.5c4 .1 7.8-1.6 10.4-4.7l8.2 9.3c-5.2 4.5-10.6 7.7-18.5 7.7 -16.3 0-26.9-11.4-26.9-24.7 0-13.3 10.6-24.8 26.8-24.8Z"/><path d="M71.9 112.8c0-2.8-.6-6.1-4.2-6.1s-4.2 3.3-4.2 6.1v19.8H49.3V82.9h14.1v18c2-3.2 5.2-5.2 10-5.2 11.2 0 12.6 9.8 12.6 15.7v21.1H71.9Z"/><path d="M117.8 128.1c-1.9 3.2-5.6 5.2-10.3 5.2 -9.6 0-17-7.9-17-18.8s7.3-18.8 17-18.8c4.7 0 8.4 2 10.3 5.3v-4.5H132v36.1h-14.2Zm-6.4-5.5c4.1 0 6.7-3.5 6.7-8s-2.5-8-6.7-8 -6.7 3.5-6.7 8 2.6 8 6.7 8Z"/><path d="M152.8 132.6h-14.1V82.9h14.1Z"/><path d="M173.7 132.6h-14.1V82.9h14.1Z"/><path d="M178.5 114.7c0-9.9 7.1-19 20.2-19 11.4 0 19.9 6.9 19.9 18.4 0 1.1-.1 2.2-.3 3.2h-26.6c0 2 3.2 5.4 9.3 5.4 3.6 0 7-1.3 9.8-3.5l5.8 7.8c-4.5 4.5-10.8 6.2-16.8 6.2 -13.4.1-21.3-8.2-21.3-18.5Zm13.2-3.9h14.1c-.2-3.5-3.6-5.2-7.1-5.2 -3.5 0-6.8 1.7-7 5.2Z"/><path d="M245.9 112.8c0-2.8-.6-6.1-4.3-6.1 -3.7 0-4.2 3.3-4.2 6.1v19.8h-14.1V96.5h14.1v4.5c2-3.2 5.1-5.2 10-5.2 11.2 0 12.6 9.8 12.6 15.7v21.1h-14.1Z"/><path d="M281.3 133.3c-9.6 0-16.8-8.4-16.8-18.8s7.1-18.8 16.8-18.8c4.7 0 8.4 2 10.3 5.3v-4.5h13.7v31.4c0 15.4-9.3 20.8-21.1 20.8 -6.5 0-13.3-1.5-18-4.7l5.1-9.3c3 1.8 6.9 3.6 11.1 3.6 5.6 0 9.3-2.8 9.3-10.2 -1.8 3.2-5.8 5.2-10.4 5.2Zm3.8-10.5c4.1 0 6.7-3.7 6.7-8.2 0-4.5-2.5-8.2-6.7-8.2s-6.8 3.7-6.8 8.2c0 4.5 2.7 8.2 6.8 8.2Z"/><path d="M310.1 114.7c0-9.9 7.1-19 20.2-19 11.4 0 19.9 6.9 19.9 18.4 0 1.1-.1 2.2-.3 3.2h-26.6c0 2 3.2 5.4 9.3 5.4 3.6 0 7-1.3 9.8-3.5l5.8 7.8c-4.5 4.5-10.9 6.2-16.8 6.2 -13.4.1-21.3-8.2-21.3-18.5Zm13.2-3.9h14.1c-.2-3.5-3.6-5.2-7.1-5.2 -3.5 0-6.8 1.7-7 5.2Z"/><path d="M379.9 83.8c8 0 13.4 3.2 18.5 7.7l-8.2 9.3c-2.6-3-6.4-4.7-10.4-4.7 -7.5 0-12.4 5.5-12.4 12.4s4.9 12.4 12.4 12.4c4 .1 7.8-1.6 10.4-4.7l8.2 9.3c-5.1 4.5-10.6 7.7-18.5 7.7 -16.2 0-26.8-11.4-26.8-24.8s10.6-24.6 26.8-24.6Z"/><path d="M420.4 133.3c-12.4 0-20.9-8.4-20.9-18.8s8.5-18.8 20.9-18.8c12.4 0 20.9 8.4 20.9 18.8s-8.5 18.8-20.9 18.8Zm0-11c4.3 0 7.9-3.4 7.9-7.8 0-4.3-3.4-7.9-7.8-7.9 -4.3 0-7.9 3.4-7.9 7.8v.1c-.2 4.1 3 7.7 7.2 7.8 .2.1.4.1.6 0Z"/><path d="M453.1 81.6c5.4 0 7.9 2.8 7.9 6.3s-2.8 6.3-7.9 6.3c-5.1 0-7.9-2.8-7.9-6.3s2.6-6.3 7.9-6.3Zm7.1 14.9h-14.1v36.1h14.1Z"/><path d="M489.5 112.8c0-2.8-.6-6.1-4.2-6.1s-4.2 3.3-4.2 6.1v19.8H467V96.5h14.1v4.5c2-3.2 5.1-5.2 10-5.2 11.2 0 12.6 9.8 12.6 15.7v21.1h-14.1v-19.8Z"/><path d="M517.9 119.4c.7 3.4 3 4.4 5.9 4.4 2.1 0 3.4-.6 3.4-1.8 0-.7-.3-1.2-2.4-1.9l-4.1-1.5c-2-.8-11.3-3.1-11.3-11 0-7.2 6.4-11.9 14.7-11.9 6.5 0 11.5 2.5 14.3 9.2l-10.2 2.9c-.6-1.8-2.3-2.9-4.2-2.9 -1.5 0-2.3.8-2.3 1.7 0 .9.8 1.3 2.4 1.8l4 1.7c7.8 2.7 11.3 6.6 11.5 11.5 0 8.1-7.3 11.7-15.7 11.7 -9 0-15-3.7-16.2-11.6Z"/><path d="M651.3 120.2h21.6v12.4h-36v-48h14.4Z"/><path d="M675.3 114.7c0-9.9 7.1-19 20.2-19 11.4 0 19.9 6.9 19.9 18.4 0 1.1-.1 2.2-.3 3.2h-26.6c0 2 3.2 5.4 9.3 5.4 3.6 0 7-1.3 9.8-3.5l5.8 7.8c-4.5 4.5-10.8 6.2-16.8 6.2 -13.4.1-21.3-8.2-21.3-18.5Zm13.2-3.9h14.1c-.2-3.5-3.6-5.2-7.1-5.2 -3.5 0-6.8 1.7-7 5.2Z"/><path d="M728 119.4c.7 3.4 3 4.4 5.9 4.4 2.1 0 3.4-.6 3.4-1.8 0-.7-.3-1.2-2.4-1.9l-4.1-1.5c-2-.8-11.2-3.1-11.2-11 0-7.2 6.4-11.9 14.7-11.9 6.5 0 11.5 2.5 14.3 9.2l-10.2 2.9c-.6-1.8-2.3-2.9-4.2-2.9 -1.5 0-2.3.8-2.3 1.7 0 .9.8 1.3 2.4 1.8l4 1.7c7.8 2.7 11.3 6.6 11.5 11.5 0 8.1-7.3 11.7-15.7 11.7 -9 0-15-3.7-16.2-11.6Z"/><path d="M762.4 119.4c.7 3.4 3 4.4 5.9 4.4 2.1 0 3.4-.6 3.4-1.8 0-.7-.3-1.2-2.4-1.9l-4.1-1.5c-2-.8-11.3-3.1-11.3-11 0-7.2 6.4-11.9 14.7-11.9 6.5 0 11.5 2.5 14.3 9.2l-10.2 2.9c-.6-1.8-2.3-2.9-4.2-2.9 -1.5 0-2.3.8-2.3 1.7 0 .9.8 1.3 2.4 1.8l4 1.7c7.8 2.7 11.3 6.6 11.5 11.5 0 8.1-7.3 11.7-15.7 11.7 -9 0-15-3.7-16.2-11.6Z"/></g><path fill="#256EFF" d="M543.5 132.4v-11.8c0-.2.1-.4.2-.6L597 58.5c.2-.2.4-.3.7-.3h13.4c.5 0 .9.4.9.9v55.4c0 .5.4.9.9.9H631c.5 0 .9.4.9.9v16.1c0 .5-.4.9-.9.9h-18.1c-.5 0-.9.4-.9.9v23.3c0 .5-.4.9-.9.9h-20c-.5 0-.9-.4-.9-.9v-23.3c0-.5-.4-.9-.9-.9h-45c-.4 0-.8-.4-.8-.9Zm46.8-17.8V92c0-.8-1-1.2-1.5-.6L569.1 114c-.5.6-.1 1.4.7 1.4h19.7c.4 0 .8-.4.8-.8Z"/></g></svg>