<svg viewBox="0 0 199 200" xmlns="http://www.w3.org/2000/svg" xmlns:xlink="http://www.w3.org/1999/xlink"><defs><mask id="a"><path fill="#FFF" d="M91.9 199.5c-31.4-2.3-58.9-19.4-75.4-44.3h25.3c12 12.6 28.2 21.3 46.3 23.9v11.8c0 3.4 1.5 6.4 3.8 8.6ZM1.4 115.6l.6-1.1 18.2-21c2.9-34.7 28.1-63 61.3-70.7l19-21.9c-.3 0-.7 0-1 0C44.6 1 0 45.5 0 100.3c0 5.3.4 10.6 1.2 15.7 .1-.1.2-.2.2-.4ZM149.3 14.4v24c18.1 14.6 29.7 36.9 29.7 62v1.7c4.6 1.6 7.9 5.9 7.9 11.1v30.4c0 6.5-5.2 11.7-11.7 11.7H157c-2.4 2.5-5 4.9-7.7 7.1v24c29.6-17.2 49.5-49.3 49.5-86s-19.9-68.8-49.5-86Z"/></mask><path id="b" d="M207.8-7L-8.4 209.2"/></defs><g transform="translate(.1993 0) scale(.999)"><g mask="url(#a)"><g stroke-width="1.96" fill="none" stroke="#E53A40"><use xlink:href="#b"/><path stroke-width="1.9" d="M202.1-7L-14.1 209.2"/><path stroke-width="1.84" d="M196.5-7L-19.7 209.2"/><path stroke-width="1.78" d="M190.8-7L-25.4 209.2"/><path stroke-width="1.72" d="M185.2-7L-31 209.2"/><path stroke-width="1.66" d="M179.5-7L-36.7 209.2"/><path stroke-width="1.6" d="M173.9-7L-42.4 209.2"/><path stroke-width="1.54" d="M168.2-7L-48 209.2"/><path stroke-width="1.48" d="M162.6-7L-53.7 209.2"/><path stroke-width="1.42" d="M156.9-7L-59.3 209.2"/><path stroke-width="1.36" d="M151.3-7L-65 209.2"/><path stroke-width="1.3" d="M145.6-7L-70.6 209.2"/><path stroke-width="1.24" d="M139.9-7L-76.3 209.2"/><path stroke-width="1.18" d="M134.3-7L-81.9 209.2"/><path stroke-width="1.12" d="M128.6-7L-87.6 209.2"/><path stroke-width="1.06" d="M123-7L-93.2 209.2"/><path stroke-width="1" d="M117.3-7L-98.9 209.2"/><path stroke-width=".93" d="M111.7-7l-216.2 216.2"/><path stroke-width=".87" d="M106-7l-216.2 216.2"/><path stroke-width=".81" d="M100.4-7l-216.3 216.2"/><path stroke-width=".75" d="M94.7-7l-216.2 216.2"/><path stroke-width=".69" d="M89.1-7l-216.3 216.2"/><path stroke-width=".63" d="M83.4-7l-216.2 216.2"/><path stroke-width=".57" d="M77.8-7l-216.3 216.2"/><path stroke-width=".51" d="M72.1-7l-216.2 216.2"/><path stroke-width=".45" d="M66.4-7l-216.2 216.2"/><g stroke-width=".39"><path d="M60.8-7l-216.2 216.2"/><path d="M354.8-7L138.6 209.2"/></g><path stroke-width=".45" d="M349.1-7L132.9 209.2"/><path stroke-width=".51" d="M343.5-7L127.3 209.2"/><path stroke-width=".57" d="M337.8-7L121.6 209.2"/><path stroke-width=".63" d="M332.2-7L116 209.2"/><path stroke-width=".69" d="M326.5-7L110.3 209.2"/><path stroke-width=".75" d="M320.9-7L104.6 209.2"/><path stroke-width=".81" d="M315.2-7L99 209.2"/><path stroke-width=".87" d="M309.6-7L93.3 209.2"/><path stroke-width=".93" d="M303.9-7L87.7 209.2"/><path stroke-width="1" d="M298.3-7L82 209.2"/><path stroke-width="1.06" d="M292.6-7L76.4 209.2"/><path stroke-width="1.12" d="M286.9-7L70.7 209.2"/><path stroke-width="1.18" d="M281.3-7L65.1 209.2"/><path stroke-width="1.24" d="M275.6-7L59.4 209.2"/><path stroke-width="1.3" d="M270-7L53.8 209.2"/><path stroke-width="1.36" d="M264.3-7L48.1 209.2"/><path stroke-width="1.42" d="M258.7-7L42.5 209.2"/><path stroke-width="1.48" d="M253-7L36.8 209.2"/><path stroke-width="1.54" d="M247.4-7L31.1 209.2"/><path stroke-width="1.6" d="M241.7-7L25.5 209.2"/><path stroke-width="1.66" d="M236.1-7L19.8 209.2"/><path stroke-width="1.72" d="M230.4-7L14.2 209.2"/><path stroke-width="1.78" d="M224.8-7L8.5 209.2"/><path stroke-width="1.84" d="M219.1-7L2.9 209.2"/><path stroke-width="1.9" d="M213.4-7L-2.8 209.2"/><use xlink:href="#b"/></g></g><path fill="#256EFF" d="M10 143.5v-22.3c0-.4.2-.8.4-1.1L111 4.1c.4-.4.8-.6 1.3-.6h25.3c.9 0 1.7.8 1.7 1.7v104.5c0 .9.8 1.7 1.7 1.7h34.2c.9 0 1.7.8 1.7 1.7v30.4c0 .9-.8 1.7-1.7 1.7H141c-.9 0-1.7.8-1.7 1.7v44c0 .9-.8 1.7-1.7 1.7H99.8c-.9 0-1.7-.8-1.7-1.7v-44c0-.9-.8-1.7-1.7-1.7H11.5c-.7 0-1.5-.8-1.5-1.7Zm88.3-33.6V67.3c0-1.5-1.9-2.3-2.8-1.1l-37.2 42.6c-.9 1.1-.2 2.6 1.3 2.6h37.2c.8 0 1.5-.7 1.5-1.5Z"/></g></svg>