<svg viewBox="0 0 164.2 166" xmlns="http://www.w3.org/2000/svg"><g transform="translate(-.1 0)"><path fill="#FF6A00" d="M49.3 144.7s-3.4 2.4-12.5 2.4c-28.7 0-32-23.6-29.7-44.2 4-36.1 55-86.4 95.5-86.4 19.6 0 24.3 13.2 24.3 13.2s-4.7-6.4-18.9-6.4c-33.4 0-85.7 47.3-89.4 84.7 -4 41.1 30.7 36.7 30.7 36.7"/><path fill="#FF122A" d="M36.2 166c-46.9 0-34.7-47.9-34.7-47.9s0 33.7 31.4 33.7c17.3 0 50.6-12.7 79.6-45.5 43.2-48.9 32.4-95.5-5.4-95.5 -23.3 0-42.5 13.8-42.5 13.8s20.5-24.6 59.3-24.6c46.9 0 53.5 55.7 16.5 106.3C124.9 127.5 89.5 166 36.2 166"/></g></svg>