<svg viewBox="0 0 1000 166" xmlns="http://www.w3.org/2000/svg"><defs><linearGradient id="a" x1="178.986" x2="999.106" gradientUnits="userSpaceOnUse" y1="66.601" y2="66.601"><stop offset="0%" stop-color="#FF6A00"/><stop offset="100%" stop-color="#FF122A"/></linearGradient></defs><path fill="#FF6A00" d="M49.3 144.7s-3.4 2.4-12.5 2.4c-28.7 0-32-23.6-29.7-44.2 4-36.1 55-86.4 95.5-86.4 19.6 0 24.3 13.2 24.3 13.2s-4.7-6.4-18.9-6.4c-33.4 0-85.7 47.3-89.4 84.7 -4 41.1 30.7 36.7 30.7 36.7"/><path fill="#FF122A" d="M36.2 166c-46.9 0-34.7-47.9-34.7-47.9s0 33.7 31.4 33.7c17.3 0 50.6-12.7 79.6-45.5 43.2-48.9 32.4-95.5-5.4-95.5 -23.3 0-42.5 13.8-42.5 13.8s20.5-24.6 59.3-24.6c46.9 0 53.5 55.7 16.5 106.3C124.9 127.5 89.5 166 36.2 166"/><path fill="url(#a)" d="M254.7 32.3l-15 14.5c-3.3-3.6-7.1-5.9-12.9-5.9 -14.1 0-18 23.3-18 34.6 0 10.5 3.8 15.7 11.4 15.7 5.6 0 10.4-3.2 16-7.3l10 16.1c-7.4 6.7-18.3 12.5-30.4 12.5 -22.6 0-36.1-12.6-36.1-36.2 0-24.4 12.1-55.6 46.8-55.6 12.6 0 22 4.1 28.2 11.6Zm30.5 77.5l.1-7.6c-5.3 6.2-12.4 10.3-20.2 10.3 -13 0-17.1-8.8-15.4-21.4l6.7-47.7h26.9l-5.7 42.1c-.6 4.3.6 5 1.9 5 1.2 0 3.5-2 5.7-6.1l5.8-41h26.9l-9.2 66.4h-23.5Zm92.7-60.2l-11.4 14.5c-4.1-2.9-10.2-4.6-15-4.6 -3.6 0-4.5.7-4.5 2.1 0 1.9 1 2 12.1 5.8 10 3.5 16 9.9 16 20.3 0 9.9-4.8 24.8-31.9 24.8 -12 0-24.2-4.8-30.5-12.1l13-13.6c4 3.5 9.7 7.1 16.9 7.1 2.7 0 6.1.5 6.1-2.6 0-2.1-1.7-2.7-12.3-6.3 -9.9-3.5-16.1-10.9-16.1-20.3 0-13.8 11.5-23.8 31.1-23.8 9.4-.1 21.2 3.3 26.5 8.7Zm40.4 40l6.4 17.5c-6.2 3.6-15.1 5.5-21.3 5.5 -17.5-.1-23.7-10.2-21.1-28.9l3.1-21.8h-7.1l2.5-18.5h8.3l4-14 24-2.9 -2.4 16.9h14.5L424 61.9h-11.8l-3 21.8c-.9 6.1.9 7.4 3.1 7.4 1.9 0 4-.4 6-1.5Zm76.9-19.8c-.1 20.4-9.8 42.8-39.7 42.8 -18.6 0-29.9-10.8-29.9-29 0-20.6 9.7-42.8 39.5-42.8 18.8 0 30.2 11.1 30.1 29Zm-42.2 15c0 6.1 1.4 8.2 4.8 8.2 9.2 0 9.8-16.9 9.9-24.4 .1-6.2-1.4-8.3-5-8.3 -9-.1-9.7 16.8-9.7 24.5Zm143.2-24.2l-6.8 49.2h-26.9l6.4-41.5c.7-4.2 0-5.2-1.1-5.2 -1.5 0-4.6 3.7-7.4 12.5l-4.7 34.2h-26.9l6.4-41.5c.7-4.2 0-5.2-1.1-5.2 -1.6 0-5.1 3.8-7.3 12.9l-5 33.8h-26.9l9.2-66.4h23.5l.2 9.2c4.7-7.6 12.8-11.8 19.6-11.8 8.3 0 13.4 3.8 14.9 10.8 5.1-6.6 12.5-10.8 18.8-10.8 11.2-.001 16.8 7 15.1 19.8Zm102-28.3l-15 14.5c-3.3-3.6-7.1-5.9-12.9-5.9 -14.1 0-18 23.3-18 34.6 0 10.5 3.8 15.7 11.4 15.7 5.6 0 10.4-3.2 16-7.3l10 16.1c-7.4 6.7-18.3 12.5-30.4 12.5 -22.6 0-36.1-12.6-36.1-36.2 0-24.4 12.1-55.6 46.8-55.6 12.6 0 22 4.1 28.2 11.6Zm20.1 53.9c.7 5.6 4.5 7.2 9.2 7.2 5.3 0 9.8-2.2 16.1-6.1l9 15.4c-7.3 5.5-17.2 9.8-28.9 9.8 -22.4 0-32.2-12.1-32.2-29.1 0-18 10.4-42.6 40.9-42.6 18 0 27.8 8.2 27.8 19.5 0 18.3-23.3 24.3-41.9 25.9ZM733.4 62c0-3-1.1-4.3-4.5-4.3 -5.3 0-8.2 6.6-9.5 13.8 14.1-.6 14-9.4 14-9.5Zm93.6-1.4l-6.9 49.2h-26.9l6.4-41.5c.7-4.2.1-5.2-.7-5.2 -1.9 0-5.1 4.1-9.2 13.4l-5 33.3h-26.9l9.2-66.4h23.5l.4 10.5c5-7.9 14.4-13.1 21.3-13.1 10.8-.001 16.5 7 14.8 19.8Zm41.7 29l6.4 17.5c-6.2 3.6-15.1 5.5-21.3 5.5 -17.5-.1-23.7-10.2-21.1-28.9l3.1-21.8h-7.1l2.5-18.5h8.3l4-14 24-2.9 -2.4 16.9h14.5l-5.2 18.5h-11.8l-3 21.8c-.9 6.1.9 7.4 3.1 7.4 1.9 0 4.1-.4 6-1.5Zm34-3.4c.7 5.6 4.5 7.2 9.2 7.2 5.3 0 9.8-2.2 16.1-6.1l9 15.4c-7.3 5.5-17.2 9.8-28.9 9.8 -22.4 0-32.2-12.1-32.2-29.1 0-18 10.4-42.6 40.9-42.6 18 0 27.8 8.2 27.8 19.5 0 18.3-23.3 24.3-41.9 25.9ZM917.8 62c0-3-1.1-4.3-4.5-4.3 -5.3 0-8.2 6.6-9.5 13.8 14.1-.6 14-9.4 14-9.5Zm82.2-19.6l-7.6 26.5c-2.2-.6-3.8-1.1-5.8-1.1 -7.8 0-11 7.9-13.8 15.6l-3.7 26.4h-26.9l9.2-66.4H975l.2 11.4c4-8.1 11.8-13.6 18.2-13.6 2.9-.1 4.5.3 6.6 1.2Z"/><path fill="#1A1F2A" d="M189.5 128.6c0 4.1-2.6 8.6-9.8 8.6h-2.4l-1 7.4h-5.2l3.1-22.2h7c5.2.1 8.3 2.1 8.3 6.2Zm-5.3.3c0-1.9-1.2-2.7-3.4-2.7h-1.9l-1 7.3h1.9c3.5 0 4.4-2.6 4.4-4.6Zm19.2 6.4l4.2 9.3H202l-3.4-8.5h-2.1l-1.2 8.5h-5.2l3.1-22.2h7.1c5.4 0 8.1 1.8 8.1 5.6 0 2.9-1 5.6-5 7.3Zm-4.2-2.8c3.2 0 3.9-2.4 3.9-4.1 0-1.6-1.1-2.3-3.3-2.3h-2l-.9 6.4h2.3Zm30.4-1.5c0 6-2.7 14.2-11.6 14.2 -5.4 0-8.5-3.3-8.5-9.1 0-5.9 2.8-14.2 11.6-14.2 5.4 0 8.5 3.3 8.5 9.1Zm-14.7 5.7c0 3.3 1.3 4.7 3.5 4.7 4.8 0 5.9-7.1 5.9-11 0-3.2-1.2-4.6-3.5-4.6 -4.9 0-5.9 7-5.9 10.9Zm32.4 7.9l.8-8.7c.3-3.1.7-6.2 1.2-9.4l-5.5 15.8h-5l-1.4-15.8c-.2 3.6-.5 6.4-1.1 9.5l-1.6 8.6h-5.1l4.8-22.2h6.3l1.2 15.4 5.2-15.4h6.7l-1.4 22.2h-5.1Zm28.6-13.6c0 6-2.7 14.2-11.6 14.2 -5.4 0-8.5-3.3-8.5-9.1 0-5.9 2.8-14.2 11.6-14.2 5.4 0 8.5 3.3 8.5 9.1Zm-14.8 5.7c0 3.3 1.3 4.7 3.5 4.7 4.8 0 5.9-7.1 5.9-11 0-3.2-1.2-4.6-3.5-4.6 -4.8 0-5.9 7-5.9 10.9Zm27-10.2l-2.5 18.2h-5.2l2.6-18.2h-5.7l.6-4h16.8l-1.1 4h-5.5Zm5.5 18.1l3.1-22.2h5.2l-3.1 22.2h-5.2Zm29.7-13.6c0 6-2.7 14.2-11.6 14.2 -5.4 0-8.5-3.3-8.5-9.1 0-5.9 2.8-14.2 11.6-14.2 5.4 0 8.5 3.3 8.5 9.1Zm-14.8 5.7c0 3.3 1.3 4.7 3.5 4.7 4.8 0 5.9-7.1 5.9-11 0-3.2-1.2-4.6-3.5-4.6 -4.8 0-5.9 7-5.9 10.9Zm26.4 7.9l-4.1-17.8c.1 2.8.1 5.6-.5 10l-1.1 7.9h-4.6l3.1-22.2h6.5l4.2 17.8c-.2-3.1-.2-5.4.3-9.1l1.2-8.7h4.6l-3.1 22.2h-6.5Zm15.3-4.7l-1.8 4.8H343l9.7-22.2h6.2l3.5 22.2H357l-.4-4.8h-6.4Zm5.1-13.9l-3.7 10.1h4.7l-1-10.1Zm23.1 14.5l-1.1 4.2h-13.2l3.1-22.2h5.2l-2.5 18h8.5Zm27.7-11.9c0 4.1-2.6 8.6-9.8 8.6h-2.4l-1 7.4h-5.2l3.1-22.2h7c5.2.1 8.3 2.1 8.3 6.2Zm-5.4.3c0-1.9-1.2-2.7-3.4-2.7h-1.9l-1 7.3h1.9c3.5 0 4.4-2.6 4.4-4.6Zm19.2 6.4l4.2 9.3h-5.6l-3.4-8.5H413l-1.2 8.5h-5.2l3.1-22.2h7.1c5.4 0 8.1 1.8 8.1 5.6 .1 2.9-.9 5.6-5 7.3Zm-4.2-2.8c3.2 0 3.9-2.4 3.9-4.1 0-1.6-1.1-2.3-3.3-2.3h-2l-.9 6.4h2.3Zm30.4-1.5c0 6-2.7 14.2-11.6 14.2 -5.4 0-8.5-3.3-8.5-9.1 0-5.9 2.8-14.2 11.6-14.2 5.5 0 8.5 3.3 8.5 9.1Zm-14.7 5.7c0 3.3 1.3 4.7 3.5 4.7 4.8 0 5.9-7.1 5.9-11 0-3.2-1.2-4.6-3.5-4.6 -4.8 0-5.9 7-5.9 10.9Zm35.3-5.8c0 7.2-3.1 13.8-12.6 13.8h-6.6l3.1-22.2h6c5.3-.001 10.1 1.5 10.1 8.4Zm-13.5 9.9h1.7c5.2 0 6.5-5.7 6.5-10 0-3.8-1.9-4.6-4.5-4.6h-1.7l-2 14.6Zm23.1 4.4c-5.7 0-8.1-3.3-7.5-8l2.1-14.8h5.2l-2 14.7c-.4 2.8.4 4.2 2.7 4.2 2.4 0 3.6-1.4 4-4.3l2-14.6h5.2l-2.1 14.9c-.7 4.5-4 7.9-9.6 7.9Zm30.6-20.7l-2.9 2.8c-1.1-1-2.1-1.6-3.6-1.6 -4.7 0-6.1 6.3-6.1 10.2 0 3.6 1.5 5.1 3.9 5.1 1.8 0 3.1-.9 4.5-1.9l2 3.1c-1.7 1.5-4.2 2.8-7.2 2.8 -5.3 0-8.6-3.2-8.6-9.2 0-6.1 3-14.1 11.4-14.1 3 .2 5.1 1.1 6.6 2.8Zm11.3 2l-2.5 18.2h-5.2l2.6-18.2h-5.7l.6-4h16.8l-1.1 4h-5.5Zm22.3-1.7l-2.8 2.8c-1.3-1.3-2.8-1.8-4.5-1.8 -2 0-3.4.9-3.4 2.5 0 1.3.9 1.8 3.7 2.9 3.6 1.2 5.7 2.9 5.7 6.3s-2.3 7.8-9.5 7.8c-3.8 0-6.4-1.4-8.1-3.2l3-2.9c1.3 1.4 3 2.2 5.1 2.2 2.4 0 4-1.1 4-2.9 0-1.5-.9-2.3-3.5-3.2 -4.2-1.3-5.9-3.3-5.9-6.2 0-3.2 2.6-6.9 8.7-6.9 3.4-.3 5.8.8 7.5 2.6Zm22 19.8l-.4-16.9 -5.3 16.9h-6.5l-.5-22.2h5.1l-.4 18.2 5.6-18.2h5.4l.3 18.2 5.1-18.2h5l-6.8 22.2h-6.6Zm12.7 0l3.1-22.2h5.2l-3.1 22.2h-5.2Zm20.9-18.1l-2.5 18.2h-5.2l2.6-18.2h-5.7l.6-4h16.8l-1.1 4h-5.5Zm11.9 8.6l-1.3 9.5h-5.2l3.1-22.2h5.2l-1.2 8.6h6.6l1.2-8.6h5.2l-3.1 22.2h-5.2l1.3-9.5H608Zm26.4 4.8l-1.8 4.8h-5.4l9.7-22.2h6.2l3.5 22.2h-5.4l-.4-4.8h-6.4Zm5.2-13.9l-3.7 10.1h4.7l-1-10.1Zm24.1 18.6l-1.9-16.3c.2 2.8.4 6-.2 10.5l-.8 5.8h-6.3l3.1-22.4h8.9l2 16.3c-.3-3.2-.4-5.9.2-10.7l.8-5.6h6.3l-3.1 22.4h-9Zm33.1-13.8c0 6.1-2.7 14.5-12.3 14.5 -6 0-9-3.6-9-9.3 0-6.2 2.8-14.4 12.3-14.4 5.9 0 9 3.5 9 9.2Zm-13.8 6c0 2.4.6 3.3 2.2 3.3 3.7 0 4.2-7 4.2-10.1 0-2.4-.6-3.3-2.2-3.3 -3.7.1-4.2 7.2-4.2 10.1Zm33.8 7.8l.7-15.5 -3.9 15.5h-9.2l.4-22.4h7.2l-1.4 17.1 4.3-17.1h7.6l-1 17.1 3.9-17.1h7l-6 22.4h-9.6Zm34.9-13.8c0 6.1-2.7 14.5-12.3 14.5 -6 0-9-3.6-9-9.3 0-6.2 2.8-14.4 12.3-14.4 6 0 9 3.5 9 9.2Zm-13.8 6c0 2.4.6 3.3 2.2 3.3 3.7 0 4.2-7 4.2-10.1 0-2.4-.6-3.3-2.2-3.3 -3.7.1-4.2 7.2-4.2 10.1Zm29.2-1l3.9 8.8h-7.9l-2.7-7.6h-.8l-1.1 7.6h-7.3l3.1-22.4h8.6c5.7 0 8.6 1.8 8.6 5.9 .2 3.1-.4 5.3-4.4 7.7Zm-5.5-3.7c2.2 0 2.6-2 2.6-3.1 0-1.2-.8-1.7-2.1-1.7H761l-.7 4.8h1.3Zm25.2 3.7l3.9 8.8h-7.9l-2.7-7.6h-.8l-1.1 7.6H771l3.1-22.4h8.6c5.7 0 8.6 1.8 8.6 5.9 -.001 3.1-.5 5.3-4.5 7.7Zm-5.5-3.7c2.2 0 2.6-2 2.6-3.1 0-1.2-.8-1.7-2.1-1.7h-1.1l-.7 4.8h1.3Zm21.1 12.5h-7.2l1.2-8.1 -5-14.2h7.8l1.6 8.7 4-8.7h7.8l-8.9 14.2 -1.3 8.1Zm35.1-19.9l-4 3.7c-1.1-1.1-2.1-1.7-3.7-1.7 -4.8 0-5.7 5.9-5.7 10.2 0 2.6.8 3.3 2.3 3.3 .8 0 1.3-.2 2-.4l.5-3.6H827l.1-4.9h9.4l-1.5 11.4c-2.7 1.7-6.2 2.6-8.8 2.6 -6.7 0-9.5-3.2-9.5-9 0-6.9 3.5-14.7 13.3-14.7 3.4-.001 6 1.4 7.5 3.1Zm8.1 20.7c-6.4 0-9-3.4-8.3-8.4l2-14.7h7.3l-2 14.5c-.3 2.3 0 3.3 1.6 3.3s2.3-1.1 2.6-3.3l2-14.5h7.2l-2 14.7c-.5 4.6-4 8.4-10.4 8.4Zm17.5-4.8l-1.2 4h-7.6l9.4-22.4h8.6l3.1 22.4h-7.7l-.1-4h-4.5Zm4-13.8l-2.6 8.7h2.8l-.2-8.7Zm24 9l3.9 8.8h-7.9l-2.7-7.6h-.8l-1.1 7.6h-7.3l3.1-22.4h8.6c5.7 0 8.6 1.8 8.6 5.9 .1 3.1-.4 5.3-4.4 7.7Zm-5.5-3.7c2.2 0 2.6-2 2.6-3.1 0-1.2-.8-1.7-2.1-1.7H885l-.7 4.8h1.3Zm16.2 8.5l-1.2 4H893l9.4-22.4h8.6l3.1 22.4h-7.7l-.1-4h-4.5Zm4.1-13.8l-2.6 8.7h2.8l-.2-8.7Zm17.3 17.8l-1.9-16.3c.2 2.8.4 6-.2 10.5l-.8 5.8H914l3.1-22.4h8.9l2 16.3c-.3-3.2-.4-5.9.2-10.7l.8-5.6h6.3l-3.1 22.4h-9Zm24.8-16.8l-2.4 16.9h-7.3l2.4-16.9h-5.1l.7-5.5h17.8l-1.5 5.5H948Zm13.5-.4l-.5 3.5h6.1l-.6 4.9h-6.1l-.5 3.8h7.5l-.7 5.1H952l3.1-22.4h15l-1.4 5.1h-7.2Zm16.2 0l-.5 3.5h6.1l-.6 4.9h-6.1l-.5 3.8h7.5l-.7 5.1H968l3.1-22.4h15l-1.4 5.1h-7Z"/></svg>