<svg id="f8502760-455d-43f2-88eb-c37e9e77358c" data-name="logo" xmlns="http://www.w3.org/2000/svg" viewBox="0 0 1023.98 206.48"><defs><style>.a063ab4f-5475-4a88-9f91-084a4ec43818{fill:#c7c7cb;}.a432f62b-2eed-41ff-a18b-c8f679f1b1a8{fill:#f1f1f2;}</style></defs><path id="aaffafda-8121-410b-bcd6-1d8ef486093c" data-name="dark" class="a063ab4f-5475-4a88-9f91-084a4ec43818" d="M1020,102.8a95.06,95.06,0,0,0-7.3-10.82l-.1-.13-.05-.06,0-.06-.11-.13c-.42-.52-.79-1-1.1-1.38a33.19,33.19,0,0,0,2.1-5.19,23,23,0,0,0,1.19-6.92,17.43,17.43,0,0,0-10.36-16c-3.08-1.4-6.56-2-11.3-2-11.06,0-20,5.54-24,14.82l0,0c-3.42-8.34-11.29-13.48-21.67-13.48a32.49,32.49,0,0,0-14.93,3.92c-.44-.33-.89-.65-1.36-.94a21.26,21.26,0,0,0-11.69-3c-1.14,0-2.24,0-3.32.15a30.12,30.12,0,0,0,.28-4.07,23,23,0,0,0-8.79-18.52,26.91,26.91,0,0,0-17-5.53,31,31,0,0,0-6.73.73,45.17,45.17,0,0,0-17.3-14.84c-7.64-3.85-16.73-5.8-27-5.8a71.25,71.25,0,0,0-38.95,11.3c-11.75,7.5-21.13,18.67-27.86,33.21A88.21,88.21,0,0,0,769,66.86a23.75,23.75,0,0,0-5.61-1.09,20.28,20.28,0,0,0-13.44-4.51,43.13,43.13,0,0,0-25.31,8.3,53.44,53.44,0,0,0-4.44,3.51c-3.8-7.24-11.25-11.56-20.78-11.56a32.49,32.49,0,0,0-14.93,3.92c-.44-.33-.89-.65-1.36-.94a21.26,21.26,0,0,0-11.69-3c-1.14,0-2.24.05-3.32.15a30.12,30.12,0,0,0,.28-4.07,23,23,0,0,0-8.79-18.52,26.11,26.11,0,0,0-14-5.39c-.42-8.53-2.55-15.32-6.47-20.69-5.28-7.23-12.88-11.21-21.41-11.21-9.79,0-23.3,4.7-32,27.12a161.12,161.12,0,0,0-8.79,35A49.6,49.6,0,0,0,565,70.34a51.72,51.72,0,0,0-4.15,3.37c-3.34-4.45-8.66-7.3-15.1-7.91a20.29,20.29,0,0,0-13.46-4.53A43.13,43.13,0,0,0,507,69.57l-1,.75c-4.16-5.61-10.87-8.8-19-8.8A32.49,32.49,0,0,0,472,65.44c-.44-.33-.89-.65-1.36-.94a21.26,21.26,0,0,0-11.69-3h-.13l.36-1.9c1.21,0,2.34.09,3.36.14,4.05.2,9.87.59,17.27,1.17,1,.07,1.9.11,2.79.11,6.15,0,11.34-1.68,15.44-5,3.66-3,8-8.49,8-18a21.08,21.08,0,0,0-6.63-15.44,26.41,26.41,0,0,0-13.62-6.69h-.09A128,128,0,0,0,469.4,14c-5.81-.35-13.57-.53-23.06-.53-15.95,0-29.38,1.13-39.91,3.36-12.42,2.63-21.76,7-28.56,13.28C370.08,37.34,366,47.18,366,58.57c0,1.15,0,2.28.13,3.39a29.6,29.6,0,0,0-5.44-.48,30.38,30.38,0,0,0-14,3.59c-.3-.21-.6-.42-.92-.62a21.26,21.26,0,0,0-11.69-3c-6.15,0-11.43,1.42-15.7,4.23a23.43,23.43,0,0,0-5.83,5.5,35.05,35.05,0,0,0-25.1-9.86,40.89,40.89,0,0,0-15.88,3.13,57.15,57.15,0,0,0,4.52-22.55,36.18,36.18,0,0,0-5.5-20.07,24.62,24.62,0,0,0-21.2-11.66c-6.36,0-15.81,2-24.74,11.78-5.45,5.94-10,13.73-13.66,23.14a129.41,129.41,0,0,0-5,16.19,20.49,20.49,0,0,0-6.25,2.78,18.61,18.61,0,0,0-3.34-2c-3.08-1.4-6.55-2-11.29-2-9.78,0-17.95,4.34-22.47,11.76A17.32,17.32,0,0,0,156,64.42c-3.31-2-7.13-3-12-3a25.28,25.28,0,0,0-14.67,4.14c-3.55-2.79-7.91-4.14-13.3-4.14a37,37,0,0,0-5.51.39,50.09,50.09,0,0,0,.57-7.71c0-11.86-3.9-21.74-11.6-29.37S81.14,13.34,67.91,13.34a62.68,62.68,0,0,0-35,10.4C22.6,30.5,14.41,40,8.54,52.09,2.87,63.74,0,77.06,0,91.7c0,11.64,2.71,22.14,8,31.22a54.78,54.78,0,0,0,23.45,21.55c9.49,4.69,20.56,7.07,32.89,7.07a113.64,113.64,0,0,0,21.19-2.1,103.36,103.36,0,0,0,11.71-2.94,25.53,25.53,0,0,0,15.37,5,26.23,26.23,0,0,0,13.46-3.78A26.06,26.06,0,0,0,140,151.54a39.77,39.77,0,0,0,20.07-5.22c.41.4.84.8,1.28,1.18,5.17,4.52,11.94,6.81,20.11,6.81a33.24,33.24,0,0,0,17.28-4.62,46.54,46.54,0,0,0,15.67-4.34c1.13-.56,2.26-1.2,3.38-1.9,6.68,5.31,15.16,8.09,24.78,8.09a41.41,41.41,0,0,0,20.72-5.3,39.3,39.3,0,0,0,45.51-4.35,22,22,0,0,0,18.32,9.65c7.77,0,12.85-3,16-5.94a21.62,21.62,0,0,0,15.16,5.94c8.52,0,13.78-3.47,16.79-6.58,3.87,3.38,9.9,6.58,18.88,6.58a40.23,40.23,0,0,0,16.35-3.35,25.4,25.4,0,0,0,13.14,3.35,26.42,26.42,0,0,0,15.13-4.49A21.86,21.86,0,0,0,452,151.54c9,0,14.34-4,17.27-7.3s5.05-7.91,6.61-14.55l0-.11A29,29,0,0,0,487,133a34.35,34.35,0,0,0,4.55,7.24,30.5,30.5,0,0,0,24.34,11.27,32.19,32.19,0,0,0,15.42-3.9,26.87,26.87,0,0,0,13.94,3.9,31.38,31.38,0,0,0,14.86-3.89,32,32,0,0,0,15.51,3.89,33.52,33.52,0,0,0,16.88-4.29L593,147a29.05,29.05,0,0,0,15.78,4.58,33.91,33.91,0,0,0,15.69-4,30.9,30.9,0,0,0,15.56,4,33.31,33.31,0,0,0,13.35-2.9,22,22,0,0,0,11.09,2.9c8.36,0,13.59-3.45,16.63-6.61,3.87,3.39,9.91,6.61,18.91,6.61a43.5,43.5,0,0,0,5.75-.38c-6.23,9.23-9.39,18.44-9.39,27.37A29.18,29.18,0,0,0,705,199.86a29.57,29.57,0,0,0,21.23,8.38c9.72,0,23.39-4,33.35-23.21,5.26-10.13,9.44-22.87,12.76-38.9l.35-.23a41.94,41.94,0,0,0,11,11.44,39.43,39.43,0,0,0,23,7.31c16.8,0,28.85-11.27,32.25-30.15l3.46-19.4A73.73,73.73,0,0,0,857,110.53c-.1,1.58-.15,3.07-.15,4.49,0,9.35,2.07,17.31,6.15,23.67,5.31,8.29,14.13,12.86,24.83,12.86a33.31,33.31,0,0,0,13.35-2.9,22,22,0,0,0,11.09,2.9c8.36,0,13.59-3.45,16.63-6.61,3.87,3.39,9.91,6.61,18.91,6.61a39.77,39.77,0,0,0,20.07-5.22c.41.4.84.8,1.28,1.18,5.18,4.52,11.94,6.81,20.11,6.81a33.1,33.1,0,0,0,18.51-5.42,35.21,35.21,0,0,0,12.06-13.37,36.73,36.73,0,0,0,4.19-17.1A31.45,31.45,0,0,0,1020,102.8Z" transform="translate(0 -1.76)"/><path id="b85a6bf3-1753-4631-b6f1-2d21d6d1531b" data-name="light" class="a432f62b-2eed-41ff-a18b-c8f679f1b1a8" d="M1015.5,100.18A90.33,90.33,0,0,0,1008.6,90l-.1-.13-.11-.13a41.46,41.46,0,0,1-3-4,15,15,0,0,1,1-2.38,29.21,29.21,0,0,0,2.07-5,18.29,18.29,0,0,0,1-5.41,12.37,12.37,0,0,0-7.37-11.33,21.65,21.65,0,0,0-9.17-1.56c-9.09,0-16.14,4.27-19.35,11.73-2.46,5.65-4.48,10.2-6,13.49-1.15,2.48-2.27,4.67-3.36,6.52a66.4,66.4,0,0,0,1.4-11.93c0-11.19-7.23-18.43-18.43-18.43a28.48,28.48,0,0,0-14.29,4.29c-.49.29-1,.59-1.46.91a12,12,0,0,0-3.26-3,16.37,16.37,0,0,0-9-2.2A24.19,24.19,0,0,0,907.81,64,21.13,21.13,0,0,0,911,52.42a17.93,17.93,0,0,0-6.83-14.49,21.92,21.92,0,0,0-13.87-4.44,24.35,24.35,0,0,0-9,1.66c-.21-.37-.42-.74-.64-1.11A39.72,39.72,0,0,0,864,18.84c-6.92-3.49-15.23-5.25-24.71-5.25a66.22,66.22,0,0,0-36.19,10.49c-10.92,7-19.65,17.41-26,31.05a89.72,89.72,0,0,0-5.07,14,10.75,10.75,0,0,0-.86-.67,17.09,17.09,0,0,0-10-2.85c-2.67-2.93-6.46-4.41-11.29-4.41a38.2,38.2,0,0,0-22.36,7.36,48.48,48.48,0,0,0-9.83,9.26c-.84-10-7.85-16.37-18.34-16.37a28.48,28.48,0,0,0-14.29,4.29c-.49.29-1,.59-1.46.91a12,12,0,0,0-3.26-3,16.37,16.37,0,0,0-9-2.2A24.19,24.19,0,0,0,660.05,64a21.13,21.13,0,0,0,3.21-11.54A17.93,17.93,0,0,0,656.43,38a21.92,21.92,0,0,0-13.87-4.44c-.68,0-1.35,0-2,.08,0-.61,0-1.21,0-1.81,0-9-1.82-15.79-5.56-20.91a21.08,21.08,0,0,0-17.28-9.11c-8.2,0-19.58,4.14-27.25,23.85-4.1,10.53-7.09,22.93-8.93,37A44.63,44.63,0,0,0,568,69.32a47.71,47.71,0,0,0-8.73,8.24c-1.11-6.19-6.1-11.74-15.72-11.91-2.67-2.93-6.46-4.41-11.29-4.41a38.2,38.2,0,0,0-22.36,7.36,47.43,47.43,0,0,0-5.58,4.61c-2.34-7.29-8.68-11.72-17.43-11.72a28.48,28.48,0,0,0-14.29,4.29c-.49.29-1,.59-1.46.91a12,12,0,0,0-3.26-3,16.32,16.32,0,0,0-9-2.2,28.3,28.3,0,0,0-6.43.69q1.2-6.49,2.46-13c3,.07,5.6.17,7.82.28,4.1.2,10,.6,17.42,1.18.84.06,1.63.09,2.4.09,4.94,0,9.05-1.3,12.21-3.86,2.79-2.27,6.12-6.53,6.12-14a16.08,16.08,0,0,0-5.07-11.77,21.29,21.29,0,0,0-11-5.34h-.1A131.7,131.7,0,0,0,469.06,14c-5.7-.35-13.35-.52-22.74-.52-15.6,0-28.67,1.09-38.85,3.25-11.49,2.43-20,6.36-26.14,12-6.72,6.24-10.27,14.78-10.27,24.71a34.09,34.09,0,0,0,2.11,12.16c-3.15-2.74-7.35-4.12-12.54-4.12A26.78,26.78,0,0,0,346,66.3,11.89,11.89,0,0,0,343,63.7a16.32,16.32,0,0,0-9-2.2c-5.13,0-9.47,1.14-12.88,3.39a19.6,19.6,0,0,0-7.69,10.35,38.28,38.28,0,0,0-3-3.8c-5.83-6.59-13.82-10.07-23.1-10.07a35.67,35.67,0,0,0-17.63,4.54,12.5,12.5,0,0,0-1.21-1.41,12.87,12.87,0,0,0-3.92-2.66,51.61,51.61,0,0,0,6.27-25,31.23,31.23,0,0,0-4.67-17.29,19.65,19.65,0,0,0-16.91-9.33c-5.33,0-13.3,1.76-21,10.12-5,5.47-9.27,12.71-12.66,21.52a126.27,126.27,0,0,0-5.53,18.82A15.35,15.35,0,0,0,199.46,66a12.83,12.83,0,0,0-5.22-4.35c-2.37-1.08-5.19-1.55-9.16-1.55-9.08,0-16.14,4.27-19.35,11.73v.06c-1.78,4.22-3.63,8.35-5.49,12.27-1.36,2.87-2.58,5.29-3.64,7.24C159,80.5,159.29,77,159.29,75a12.86,12.86,0,0,0-6-11.31c-2.47-1.5-5.44-2.2-9.38-2.2-5.11,0-9.34,1.29-12.57,3.83a16.7,16.7,0,0,0-2.42,2.34,12.65,12.65,0,0,0-2.63-2.94c-2.65-2.18-6-3.23-10.36-3.23-5.53,0-9.84,1.17-13.17,3.57l-.29.21A35.58,35.58,0,0,0,105.85,49c0-10.44-3.39-19.1-10.09-25.73s-16.05-10-27.87-10A57.7,57.7,0,0,0,35.67,22.9C26.19,29.15,18.6,38,13.15,49.21c-5.33,10.94-8,23.52-8,37.38a55.77,55.77,0,0,0,7.33,28.63,49.6,49.6,0,0,0,21.3,19.55c8.78,4.34,19.08,6.54,30.62,6.54a108.63,108.63,0,0,0,20.24-2,96.92,96.92,0,0,0,13.74-3.66,20.52,20.52,0,0,0,14.28,5.67,21.54,21.54,0,0,0,13.56-4.95A20.35,20.35,0,0,0,140,141.31a34.62,34.62,0,0,0,20-6.08l1.07-.75a21.91,21.91,0,0,0,3.67,4.06c4.22,3.68,9.85,5.55,16.75,5.55a28.13,28.13,0,0,0,15.6-4.48,42.12,42.12,0,0,0,15.09-4,34.49,34.49,0,0,0,6-3.85c6.08,6.21,14.4,9.51,24.4,9.51a36.13,36.13,0,0,0,20.42-6l.41-.28c.39.29.78.57,1.19.85a32.51,32.51,0,0,0,18.68,5.43,33.3,33.3,0,0,0,22.86-9,39.69,39.69,0,0,0,4.1-4.31c.19.6.39,1.18.61,1.74,2.81,7.24,8.89,11.57,16.29,11.57,7.05,0,11.19-3,13.42-5.56a18.36,18.36,0,0,0,2.5-3.71,16.88,16.88,0,0,0,15.21,9.27c7.08,0,11.22-2.92,13.44-5.38a18.37,18.37,0,0,0,2.89-4.39,20.4,20.4,0,0,0,2,2.59c2.88,3.27,8.24,7.18,17.38,7.18a34.84,34.84,0,0,0,16.8-4.14,19.44,19.44,0,0,0,12.69,4.14A21.42,21.42,0,0,0,436,137.5a16.71,16.71,0,0,0,2.78-2.44A16.7,16.7,0,0,0,452,141.32c7.05,0,11.19-3,13.42-5.56,2.43-2.77,4.12-6.58,5.48-12.37.64-2.59,1.39-5.12,2.25-7.57.29.32.57.61.86.89,4.12,4.05,9.68,6.17,16.53,6.32a29.14,29.14,0,0,0,5,8.88,25.54,25.54,0,0,0,20.38,9.41,26.86,26.86,0,0,0,15.57-4.89,22.07,22.07,0,0,0,13.79,4.89,27.41,27.41,0,0,0,14.93-4.75,26.36,26.36,0,0,0,15.44,4.75A28.5,28.5,0,0,0,590,137.7a26.28,26.28,0,0,0,3.14-2.12,24,24,0,0,0,15.66,5.74,29.8,29.8,0,0,0,15.9-4.85A24.81,24.81,0,0,0,640,141.32a29,29,0,0,0,13.78-3.68,16.78,16.78,0,0,0,10.67,3.68c7,0,11.19-3,13.42-5.55a18.75,18.75,0,0,0,2.76-4.26,20.33,20.33,0,0,0,2,2.63c2.88,3.27,8.25,7.18,17.38,7.18a34.7,34.7,0,0,0,18-4.82c.52.38,1,.73,1.59,1.06a78.26,78.26,0,0,0-9.24,10.85c-5.88,8.55-8.86,17-8.86,25a24.17,24.17,0,0,0,7.09,17.69A24.54,24.54,0,0,0,726.23,198c8.3,0,20-3.55,28.81-20.45,5.24-10.11,9.41-23.1,12.7-39.62l4.52-3,.08,0,.08-.06,1.92-1.33A39,39,0,0,0,786.59,148a34.35,34.35,0,0,0,20,6.38c14.33,0,24.25-9.46,27.21-25.94l4.08-22.89a67.63,67.63,0,0,0,21.3-7q2-1.06,3.86-2.25a94.77,94.77,0,0,0-1.17,13.52c0,8.35,1.8,15.38,5.34,20.9,4.34,6.77,11.63,10.51,20.52,10.51a29,29,0,0,0,13.78-3.68,16.78,16.78,0,0,0,10.67,3.68c7,0,11.19-3,13.42-5.55a18.75,18.75,0,0,0,2.76-4.26,20.33,20.33,0,0,0,2,2.63c2.88,3.27,8.25,7.18,17.38,7.18a34.62,34.62,0,0,0,20-6.08l1.07-.75a21.91,21.91,0,0,0,3.67,4.06c4.22,3.68,9.85,5.55,16.75,5.55a28.09,28.09,0,0,0,15.7-4.58,30.24,30.24,0,0,0,10.33-11.46,31.61,31.61,0,0,0,3.61-14.74A26.39,26.39,0,0,0,1015.5,100.18Z" transform="translate(0 -1.76)"/><path id="adb33d13-930a-4bfd-ae6a-6493752059f1" data-name="brand" d="M463.29,39.26q6.36.32,17.71,1.2,5,.38,7.37-1.51t2.33-6.05a6,6,0,0,0-1.95-4.41,11.43,11.43,0,0,0-5.86-2.65,122.2,122.2,0,0,0-14.43-1.64q-8.25-.49-22.12-.5-22.44,0-36.74,3t-21.3,9.51q-7,6.5-7,17.2a23.49,23.49,0,0,0,1.64,9,15.66,15.66,0,0,0,4.16,6.11,5,5,0,0,0,3.53,1.26,9.76,9.76,0,0,0,5.86-2.08q2.83-2.08,2.84-4.47a3.82,3.82,0,0,0-.5-1.89,14.86,14.86,0,0,1-2.52-8.19,10.32,10.32,0,0,1,3-7.62q3-3,10-4.6a104.87,104.87,0,0,1,19.41-2c-.42,2-.8,3.84-1.13,5.48s-.63,3.09-.88,4.35q-1.77,8.44-3.53,17.89t-3.15,19q-.75,5.67-2.14,13.36c-.2,1.19-.38,2.37-.57,3.54a5.05,5.05,0,0,0-2.08,1.5,102.23,102.23,0,0,1-9.26,10q-3.47,3.09-6,3.09c-2.44,0-3.65-1.68-3.65-5q0-3.52,2.39-14.49,2.77-12.86,2.77-17.77,0-8.19-8.19-8.19-6.68,0-14.37,7.06t-14,22.56q.38-2.27,1.39-6.81,2.39-10.59,2.39-14.62t-1.83-6.18c-1.22-1.34-3.3-2-6.24-2s-6.07,1.11-9.39,3.34a38.39,38.39,0,0,0-9.7,10.14,68.35,68.35,0,0,0-8.13,16.63,86.71,86.71,0,0,1,1.26-9.26c.5-2.48,1.18-5.4,2-8.76,1.26-4.7,1.89-7.73,1.89-9.07a2.59,2.59,0,0,0-1-2.39,7.1,7.1,0,0,0-3.53-.63,13.15,13.15,0,0,0-7.25,1.7,9.5,9.5,0,0,0-3.72,5.36A98,98,0,0,0,319.75,93a67.09,67.09,0,0,1-10,1.53,28.3,28.3,0,0,0-6.87-16.32q-5.87-6.61-15.44-6.62a25.41,25.41,0,0,0-14.24,4.22A28.72,28.72,0,0,0,263.1,87.51a38.44,38.44,0,0,0-3.65,17.08,33.76,33.76,0,0,0,.34,4.76,56.26,56.26,0,0,1-5,4.57,15,15,0,0,1-9.58,3.28q-6.68,0-9.77-5.29t-3.09-18.4q0-3.53.25-9.83H248q14.23,0,14.24-8.7a4.7,4.7,0,0,0-.88-3.28,4,4,0,0,0-2.9-.88H244.32q16.38-14.49,16.38-34a21.19,21.19,0,0,0-3-11.72,9.43,9.43,0,0,0-8.32-4.66q-7.19,0-13.42,6.81T225.29,45.49a122.26,122.26,0,0,0-6.55,25.33h-7.18q-5.67,0-5.67,7.06a6.22,6.22,0,0,0,1.32,4.41q1.32,1.39,5.1,1.39h4.91q-.37,5.67-.38,11.22,0,4.08.33,7.69a5,5,0,0,0-2.1,1.51q-8.31,10.34-14.49,12.73a33.46,33.46,0,0,0,.25-3.53,16.34,16.34,0,0,0-2.08-8.13,80.29,80.29,0,0,0-6.11-9,48.35,48.35,0,0,1-4.1-5.67,8.4,8.4,0,0,1-1.32-4.16,18,18,0,0,1,2.27-7.69,18.11,18.11,0,0,0,1.39-3.28,9.48,9.48,0,0,0,.5-2.39A2.11,2.11,0,0,0,190,71a13.22,13.22,0,0,0-4.91-.63q-7.56,0-10,5.55-2.77,6.55-5.67,12.67t-5,9.77a154.92,154.92,0,0,1-9.76,13.24c-1,1-1.86,1.87-2.65,2.57q-3.47,3.09-6,3.09a3.19,3.19,0,0,1-2.65-1.32,6,6,0,0,1-1-3.72q0-3.78,3.53-19.91Q149,78.14,149,75a2.78,2.78,0,0,0-1.13-2.58,8.36,8.36,0,0,0-4-.69q-4.16,0-6.24,1.64a9.87,9.87,0,0,0-3.09,5.42,153.75,153.75,0,0,1-6.24,18.9,55.34,55.34,0,0,1-6.05,11.47q-2.84,3.78-4.73,3.78a2.17,2.17,0,0,1-2-1.07,7.85,7.85,0,0,1-.63-3.72q0-4.41,2.52-17.64c.5-2.52,1.18-5.33,2-8.44a53,53,0,0,0,1.39-6.81,3.25,3.25,0,0,0-1.07-2.65,6.2,6.2,0,0,0-3.84-.88q-4.92,0-7.18,1.64a10.55,10.55,0,0,0-3.53,5.42A109.06,109.06,0,0,0,101,95.48a103.93,103.93,0,0,0-1.19,13.09,122.9,122.9,0,0,1-16,5.31A68.45,68.45,0,0,1,67.25,116q-16.51,0-25-8.25T33.86,84.33q0-14.49,4.66-25T50.74,43.37A26.85,26.85,0,0,1,66.62,38q12.22,0,12.22,11.47a32.12,32.12,0,0,1-.76,6,29.63,29.63,0,0,0-.5,4.16,5.79,5.79,0,0,0,2,4.79,9.24,9.24,0,0,0,13.29-3q2.72-4.66,2.71-12.35,0-11.46-7.06-18.46t-20.67-7a47.34,47.34,0,0,0-26.59,7.88q-12,7.87-19,22.24t-7,32.89q0,13.36,5.92,23.44a39.47,39.47,0,0,0,17,15.56q11.09,5.47,26.09,5.48a98.47,98.47,0,0,0,18.34-1.83,87,87,0,0,0,18.59-5.73l.59-.28a17.62,17.62,0,0,0,1.49,2.61q3.59,5.24,9.26,5.23,4.92,0,9.2-4.6t6.43-13.17q0,8.45,2.84,13.11t8.88,4.66a24.44,24.44,0,0,0,14.18-4.29,56.08,56.08,0,0,0,11.66-11,8.84,8.84,0,0,0,1.06-1.55c.47-.57.94-1.14,1.4-1.72A82.19,82.19,0,0,0,176,100.22q1.77,2,3.78,4.73a31.2,31.2,0,0,1,3.34,5.61,16.37,16.37,0,0,1,1.45,6.18c-.76-.08-1.87-.23-3.34-.44a27.55,27.55,0,0,0-3.84-.31q-4.67,0-7.06,2.39a7.74,7.74,0,0,0-2.39,5.67,8.89,8.89,0,0,0,3.47,6.81q3.47,3,10,3a17.87,17.87,0,0,0,12-4.29,34.23,34.23,0,0,0,14.18-3.09q5.73-2.84,12-10.65c.09-.11.17-.24.25-.36q5.79,15.6,22.68,15.6a25.9,25.9,0,0,0,14.74-4.29,49.59,49.59,0,0,0,6.89-5.57,22.85,22.85,0,0,0,6.16,6.2,22.34,22.34,0,0,0,12.92,3.65,23.25,23.25,0,0,0,16-6.36q7-6.36,9.45-17a62.52,62.52,0,0,0,9.76-1.16c0,1.1-.06,2.19-.06,3.3q0,11.09,1.95,16.13t6.74,5q3.9,0,5.73-2.08c1.22-1.39,2.29-4,3.21-8a110.15,110.15,0,0,1,4.35-13.86A64.79,64.79,0,0,1,346,95.55c1.93-3,3.53-4.54,4.79-4.54.92,0,1.39.67,1.39,2q0,2.52-1,10.59a109.11,109.11,0,0,0-1.26,13.86,20.52,20.52,0,0,0,2.08,9.64,6.68,6.68,0,0,0,6.24,4q4,0,5.86-2T367.3,121a91.27,91.27,0,0,1,4.91-14.62,61.76,61.76,0,0,1,6.05-11.15q3-4.22,4.66-4.22c.92,0,1.39.67,1.39,2a65.39,65.39,0,0,1-1.64,11,78.1,78.1,0,0,0-1.76,12.6q0,7.06,3.28,10.77t9.7,3.72a24.44,24.44,0,0,0,14.18-4.29,51.53,51.53,0,0,0,6.73-5.56c-.07,1-.11,1.85-.11,2.53a6.73,6.73,0,0,0,2.27,5.29,9.37,9.37,0,0,0,6.43,2,11.33,11.33,0,0,0,6.68-1.95,7,7,0,0,0,3-5.61q.5-6.93,2-18.21T438,85.45q3.9-23.45,8.57-46.63Q456.93,39,463.29,39.26ZM237.34,50.35a67.75,67.75,0,0,1,4.41-13.11q2.33-4.73,4.22-4.73,2.78,0,2.77,7.44,0,6.55-3.72,14.56a43.15,43.15,0,0,1-11.15,14.43A176.6,176.6,0,0,1,237.34,50.35Zm53.94,64.09a9.12,9.12,0,0,1-7,3.28q-3.66,0-6.36-3.65c-1.81-2.44-2.71-6-2.71-10.59q0-8.82,3.34-13.67T286.94,85h.63a22.07,22.07,0,0,0-.38,4,20.44,20.44,0,0,0,2.08,9.07,17.34,17.34,0,0,0,6,6.93Q294.23,111.16,291.28,114.44Zm341.83-53.5a8.93,8.93,0,0,1-2.65-6.87,9.28,9.28,0,0,1,3.47-7.37,12.85,12.85,0,0,1,8.63-3A11.92,11.92,0,0,1,650.12,46a7.69,7.69,0,0,1,2.9,6.43,10.22,10.22,0,0,1-3.28,8,12.5,12.5,0,0,1-8.7,3C637.52,63.4,634.87,62.58,633.11,60.94ZM871.85,39.26A29.41,29.41,0,0,0,859.37,28q-8.25-4.15-20.1-4.16a55.94,55.94,0,0,0-30.69,8.88q-13.92,8.88-22.18,26.72t-8.25,43.41c0,.59,0,1.16,0,1.74-5.52,3.64-11.23,7.74-17.17,12.37q.63-4,1.2-7.62c.38-2.39.73-4.6,1.07-6.62q2.64-15.89,3.15-19.79a18.41,18.41,0,0,0,.13-2.39q0-2.77-1.32-3.72a8,8,0,0,0-4.47-1,27.67,27.67,0,0,0-5.55.5,9,9,0,0,0-1.57-3.84c-.63-.71-1.87-1.07-3.72-1.07a28,28,0,0,0-16.45,5.48,39.7,39.7,0,0,0-12.41,14.49,41,41,0,0,0-4.64,18.28q-2.52,2.75-4.37,4.4-3.46,3.09-6,3.09c-2.44,0-3.65-1.68-3.65-5q0-3.52,2.4-14.49,2.77-12.86,2.77-17.77,0-8.19-8.19-8.19a18.5,18.5,0,0,0-9.14,2.9q-5,2.89-10.14,9.7a71.86,71.86,0,0,0-9.33,17.64,89.83,89.83,0,0,1,1.26-9.33c.5-2.52,1.18-5.46,2-8.82,1.26-4.7,1.89-7.73,1.89-9.07a2.59,2.59,0,0,0-1-2.39,7.1,7.1,0,0,0-3.53-.63,13.15,13.15,0,0,0-7.25,1.7,9.5,9.5,0,0,0-3.72,5.36,101.89,101.89,0,0,0-4.62,28.84,84.82,84.82,0,0,1-6.09,6.45q-3.4,3.15-5.67,3.15a3.49,3.49,0,0,1-3.4-2,13.32,13.32,0,0,1-1-5.8q0-4.92,3-18.78,2.39-11.46,2.39-14.62,0-4.29-6.43-4.29-4.15,0-6,1.51t-3,5.55a137.37,137.37,0,0,0-3.72,16.57A105.59,105.59,0,0,0,624.44,108a69.59,69.59,0,0,1-6.09,6.19c-2.35,2-4.66,3-6.93,3q-2.64,0-4.35-3.15t-2.21-10.46a245,245,0,0,0,18.52-38.81q6.93-18.9,6.93-33,0-10-3.59-14.87t-9-4.91q-11,0-17.71,17.33t-9.14,41.78A34.22,34.22,0,0,0,574,77.55a38.15,38.15,0,0,0-11.78,14.11,41.43,41.43,0,0,0-4.27,18c-1.66,1.82-3.09,3.29-4.3,4.38q-3.41,3.09-5.8,3.09a3.06,3.06,0,0,1-2.46-1.13,4.57,4.57,0,0,1-.94-3q0-5.67,2.9-20.16,1.89-10,1.89-12.6,0-4.41-6.17-4.41a30.23,30.23,0,0,0-5.55.5A9,9,0,0,0,536,72.52c-.63-.71-1.87-1.07-3.72-1.07a28,28,0,0,0-16.45,5.48,39.7,39.7,0,0,0-12.41,14.49,42.49,42.49,0,0,0-2.19,5,9.33,9.33,0,0,1-5.12,2.11q-3.15,0-3.15-4.41a45.22,45.22,0,0,1,1-6.3,62.24,62.24,0,0,0,1.13-7.94q0-8.19-8.19-8.19a18.5,18.5,0,0,0-9.14,2.9q-5,2.9-10.14,9.7a71.86,71.86,0,0,0-9.33,17.64,89.83,89.83,0,0,1,1.26-9.33c.5-2.52,1.18-5.46,2-8.82,1.26-4.7,1.89-7.73,1.89-9.07a2.59,2.59,0,0,0-1-2.39,7.1,7.1,0,0,0-3.53-.63,13.15,13.15,0,0,0-7.25,1.7A9.5,9.5,0,0,0,448,78.76a102.61,102.61,0,0,0-4.66,31.13q0,11.08,1.95,16.13t6.74,5q3.9,0,5.73-2.08c1.22-1.39,2.29-4,3.21-8a91.27,91.27,0,0,1,4.91-14.62,59.21,59.21,0,0,1,6.11-11.15Q475,91,476.92,91c.92,0,1.39.67,1.39,2,0,.59-.08,1.72-.25,3.4a19.39,19.39,0,0,0-.38,3.78q0,5.81,3.47,9.2t10.14,3.4a20.33,20.33,0,0,0,7.46-1.4q.21,8.6,4.63,14a15.34,15.34,0,0,0,12.48,5.67q10,0,16.51-10.59a17.29,17.29,0,0,0,5.23,7.75,11.77,11.77,0,0,0,7.62,2.84q5.41,0,11.22-4.41a57.51,57.51,0,0,0,4.61-3.93,19.18,19.18,0,0,0,1.88,2.61,16,16,0,0,0,12.66,5.73,18.34,18.34,0,0,0,9.26-2.27q4-2.26,9.26-8.95,5,11.22,14.62,11.22,6,0,12.22-4.47a56.62,56.62,0,0,0,5.47-4.53,19.67,19.67,0,0,0,1.65,3.2q3.72,5.8,11.91,5.8,7.95,0,16.79-8.23a21.68,21.68,0,0,0,.91,3.19q2,5,6.74,5,3.9,0,5.73-2.08c1.22-1.39,2.29-4,3.21-8a86.73,86.73,0,0,1,5-14.62,67.18,67.18,0,0,1,6-11.15c2-2.81,3.51-4.22,4.6-4.22.92,0,1.39.67,1.39,2a65.39,65.39,0,0,1-1.64,11,78.1,78.1,0,0,0-1.76,12.6q0,7.07,3.28,10.77t9.7,3.72a24.44,24.44,0,0,0,14.18-4.29,50.84,50.84,0,0,0,5.08-4,18.18,18.18,0,0,0,1.79,2.63,15.34,15.34,0,0,0,12.48,5.67A15.23,15.23,0,0,0,746,124l-.76,4.91q-19.41,15-26.46,25.27t-7.06,19.22a13.94,13.94,0,0,0,4,10.4,14.25,14.25,0,0,0,10.46,4q12,0,19.72-14.93t12.54-41l8.07-5.42q4.34-3,13-8.89a46.45,46.45,0,0,0,2.51,8.26q3.9,9.33,10.4,13.86a24.27,24.27,0,0,0,14.18,4.54q14,0,17.14-17.52l5.42-30.37q14.63-1,25.2-6.68A41.4,41.4,0,0,0,870.48,75,36.57,36.57,0,0,0,876,55.31,30.45,30.45,0,0,0,871.85,39.26ZM607.46,55.08a154,154,0,0,1,4.1-22.24q2.38-8.51,4.79-8.51c.76,0,1.41.88,1.95,2.65a26.15,26.15,0,0,1,.82,7.44q0,18.64-14.11,49.4Q605.76,68.82,607.46,55.08Zm-78.07,51.29a21.51,21.51,0,0,1-3.65,8.7c-1.68,2.19-3.45,3.28-5.29,3.28a5.36,5.36,0,0,1-4.35-1.89q-1.58-1.89-1.58-5.8a34.07,34.07,0,0,1,2.65-13.36,26.81,26.81,0,0,1,7.12-10.15,15.31,15.31,0,0,1,9.77-4Zm55.45,10a7.6,7.6,0,0,1-4.79,2q-6.3,0-6.3-9.2a28.52,28.52,0,0,1,4.6-15.82q4.6-7.12,11.53-9.26c-.17,4.54-.25,7.81-.25,9.83a84.17,84.17,0,0,0,1.26,15.25A37.22,37.22,0,0,1,584.84,116.39ZM734.74,168q-4,7.56-7.12,7.56a2.9,2.9,0,0,1-2.71-1.39,6.83,6.83,0,0,1-.82-3.53q0-5,4.28-11.72t14-15Q738.71,160.44,734.74,168Zm12.66-63.27q-1.14,6.55-3.78,10.08t-5.55,3.53a5.36,5.36,0,0,1-4.35-1.89q-1.58-1.89-1.58-5.8a34.07,34.07,0,0,1,2.65-13.36,27.14,27.14,0,0,1,7.06-10.15,14.92,14.92,0,0,1,9.58-4Zm84.06-21.42,4.16-24.45a17.14,17.14,0,0,0,.25-3.28q0-3.4-1.83-5c-1.22-1.05-3.21-1.57-6-1.57a11.06,11.06,0,0,0-6.36,1.83Q819,52.69,818.23,57q-3,16.52-4.66,26.34c-1.09-.08-2.65-.29-4.66-.63a10.74,10.74,0,0,0-1.89-.13,5.76,5.76,0,0,0-4.35,1.64,6.09,6.09,0,0,0-1.58,4.41A7.77,7.77,0,0,0,802.22,93q1.14,1.69,4.92,2.33-.63-.12,4.28.63l-4.16,23.82q-1.63,8.7-4.79,8.7-2.26,0-4.73-3.34a27.65,27.65,0,0,1-4-9.39,55.16,55.16,0,0,1-1.58-13.86q0-18.65,5.23-33.21t14.87-22.75a33.86,33.86,0,0,1,22.62-8.19q11.46,0,16.95,5.23a17.9,17.9,0,0,1,5.48,13.55Q857.31,80,831.46,83.31Zm49.4-22.37a8.93,8.93,0,0,1-2.65-6.87,9.28,9.28,0,0,1,3.47-7.37,12.85,12.85,0,0,1,8.63-3A11.92,11.92,0,0,1,897.87,46a7.69,7.69,0,0,1,2.9,6.43,10.22,10.22,0,0,1-3.28,8,12.5,12.5,0,0,1-8.7,3Q883.51,63.4,880.86,60.94Zm127.79,52.36a21.4,21.4,0,0,1-2.46,10,20,20,0,0,1-6.87,7.62,18,18,0,0,1-10.08,2.9q-6.56,0-10-3a8.91,8.91,0,0,1-3.47-6.81,7.75,7.75,0,0,1,2.4-5.67c1.59-1.59,4-2.39,7.06-2.39a29.17,29.17,0,0,1,3.84.31c1.47.21,2.58.36,3.34.44a16.27,16.27,0,0,0-1.45-6.18,31.2,31.2,0,0,0-3.34-5.61c-1.34-1.81-2.61-3.38-3.78-4.73a83,83,0,0,1-7.75,12.35c-.46.58-.93,1.15-1.4,1.72a8,8,0,0,1-1.06,1.55,55.57,55.57,0,0,1-11.66,11,24.42,24.42,0,0,1-14.18,4.29q-6.42,0-9.7-3.72t-3.28-10.77a79.29,79.29,0,0,1,1.76-12.6,65.54,65.54,0,0,0,1.64-11c0-1.34-.46-2-1.39-2-1.09,0-2.63,1.41-4.6,4.22a67.59,67.59,0,0,0-6.05,11.15,86.73,86.73,0,0,0-5,14.62c-.92,4-2,6.62-3.21,8s-3.13,2.08-5.73,2.08q-4.79,0-6.74-5a21.89,21.89,0,0,1-.91-3.18q-8.83,8.22-16.79,8.23-8.19,0-11.91-5.8t-3.72-15.37a93.78,93.78,0,0,1,1.45-14.56,135.06,135.06,0,0,1,3.72-16.57c.76-2.69,1.76-4.54,3-5.55s3.28-1.51,6-1.51q6.44,0,6.43,4.29,0,3.15-2.39,14.62-3,13.86-3,18.78a13.21,13.21,0,0,0,1,5.8,3.5,3.5,0,0,0,3.4,2q2.26,0,5.67-3.15a86.88,86.88,0,0,0,6.09-6.45,101.89,101.89,0,0,1,4.62-28.84,9.48,9.48,0,0,1,3.72-5.36,13.15,13.15,0,0,1,7.25-1.7,7.1,7.1,0,0,1,3.53.63,2.61,2.61,0,0,1,1,2.39q0,2-1.89,9.07-1.26,5-2,8.82a89.83,89.83,0,0,0-1.26,9.33,71.16,71.16,0,0,1,9.33-17.64Q933,77.5,938,74.61a18.47,18.47,0,0,1,9.14-2.9q8.19,0,8.19,8.19,0,4.92-2.77,17.77-2.4,11-2.4,14.49,0,5,3.65,5c1.68,0,3.67-1,6-3.09.79-.7,1.68-1.57,2.65-2.58a154.92,154.92,0,0,0,9.76-13.24,82.4,82.4,0,0,0,4.6-8.7q2.32-5,6.11-13.74c1.59-3.7,4.92-5.55,10-5.55a13.28,13.28,0,0,1,4.92.63,2.11,2.11,0,0,1,1.39,2,9.48,9.48,0,0,1-.5,2.39,18.41,18.41,0,0,1-1.39,3.28A18,18,0,0,0,995,86.31a8.4,8.4,0,0,0,1.32,4.16,47.19,47.19,0,0,0,4.1,5.67,78.94,78.94,0,0,1,6.11,9A16.58,16.58,0,0,1,1008.65,113.3Z" transform="translate(0 -1.76)"/></svg>