<svg viewBox="0 0 900 160" class="{{ $class ?? 'block w-full text-hfd-green-500 hover:text-hfd-green-600 transition-all' }}" xmlns="http://www.w3.org/2000/svg">
    <g id="fan-back">
        <path fill="#BDCCD4" d="M89.1,99.6c-1.2,0.4-2.4,0.7-3.7,0.9c-2.5,0.4-4.5,0.6-6.2,0.7c-0.8,3.9-1.5,8-1.7,13.5 c-0.6,13.5,1.2,19.9,0.9,26.1c-0.1,2.2-0.4,3.9-0.7,5.3c0.1,0.1,0.1,0.3,0.2,0.4c0.7,1.6,1.5,3.2,1.8,5.4c0.4,2.3-0.3,4.4-1.9,6.1 c1.8,1.2,4.6,1.7,7.1,1.8c4.2,0.2,9.4-0.6,9.6-4.8c0.2-4.2-1.8-6.3-1.5-13.6c0.3-6.2,2.6-12.4,3.2-25.9c0.3-6.4-0.2-10.9-0.8-15.4 C93.7,100,91.7,99.8,89.1,99.6z"/>
        <path fill="#656A6F" d="M137.9,22.5c0.3-7.3-2.3-17.8-29.4-19C104.6,3.3,97.6,3,90.7,2.7c2.8,2.7,4.6,6.2,5.3,10.7 c0.5,3.4,0.3,6.9,0,11c-0.4,5.2-0.8,11.1,0.4,18.5c1,6.5,2.6,10.4,4.4,14.5c1.7,4.1,3.4,8.3,4.4,14.7c2,13-4.6,24-16.1,27.6 c13,0.7,12.4,2.6,24.4,3.2c12.5,0.6,21.2-8.5,21.8-21c0.6-12.5-3.4-16.8-2.8-30.4C133,37.9,137.6,29.8,137.9,22.5z"/>
    </g>
    <g id="fan-front">
        <path fill="#BDCCD4" d="M72.5,139.4c-1-6.2,0.1-12.7-2-26.1c-1-6.3-2.4-10.7-3.8-15c-2.1,0.1-4.6,0.4-7.9,0.9 c-3.3,0.5-5.8,1-7.8,1.5c0,4.5,0,9.1,1,15.4c2.1,13.4,5.1,19.2,6.1,25.4c1.1,7.2-0.6,9.6,0,13.7c0.6,4.1,6,4.3,10.1,3.7 c4.1-0.6,9.1-2.5,8.5-6.6C76,148.4,73.6,146.7,72.5,139.4z"/>
        <path fill="#656A6F" d="M60.4,1C87.1-3.2,91.8,6.6,93,13.8c1.1,7.2-1.7,16.1,0.4,29.5s6.9,16.9,8.8,29.2 s-4.9,22.9-17.2,24.8c-12.4,1.9-11.7-0.3-26.1,2c-14.4,2.3-13.1,4.2-25.4,6.1s-22-6.1-24-18.4S11,69.9,8.9,56.5s-7.5-21-8.6-28.2 s0.4-18,27.1-22.2C34.6,5,53.1,2.1,60.4,1z"/>
    </g>
    <g id="wordmark">
        <path id="HandFans" fill="#BDCCD4" d="M115.6,105.1V25.4h22.3v29.1h24.2V25.4h22.3v79.7h-22.3V74.4h-24.2v30.7H115.6z M231.2,47.4c4.1,1.7,7.1,4.4,9,8.3c1.9,3.8,2.9,9,2.9,15.6v33.8h-17.8l-1.5-5.7h-0.9c-2.7,4.6-7.2,6.9-13.7,6.9 c-3.7,0-7-0.7-9.8-2.2c-2.8-1.5-4.9-3.6-6.4-6.2c-1.5-2.7-2.2-5.8-2.2-9.3c0-6,2-10.6,6-13.9c4-3.3,10.4-5.1,19.1-5.6l6-0.3 c-0.1-1.7-0.6-3.1-1.3-4.1c-0.7-1-1.9-1.7-3.4-2.2c-1.6-0.5-3.7-0.7-6.4-0.7c-2.3,0-4.8,0.2-7.4,0.5c-2.7,0.4-5.2,0.9-7.5,1.5 V47.1c2.9-0.7,6-1.3,9.5-1.6c3.4-0.4,6.7-0.6,9.8-0.6C221.7,44.9,227.1,45.7,231.2,47.4z M221.8,89.6v-9l-3.5,0.2 c-2.1,0.1-3.7,0.6-4.8,1.6c-1.1,0.9-1.6,2.2-1.6,3.9c0,1.5,0.4,2.7,1.3,3.5c0.9,0.8,2.1,1.2,3.7,1.2 C218.8,90.9,220.4,90.5,221.8,89.6z M252.2,45.8h18l1.5,5.8h0.9c3.8-4.5,8.9-6.8,15.4-6.8c5.8,0,10.5,1.9,13.9,5.7 c3.4,3.8,5.2,9.7,5.2,17.8v36.8h-21.9V69.9c0-2.2-0.4-3.7-1.3-4.6c-0.8-0.9-2.1-1.3-3.7-1.3c-1.2,0-2.4,0.2-3.5,0.7 c-1.1,0.4-2,1.1-2.8,1.8v38.7h-21.9V45.8z M325.5,103c-3.5-2.1-6.2-5.4-8.3-9.8c-2.1-4.4-3.1-9.9-3.1-16.5 c0-10.3,2.7-18.1,8.2-23.6c5.4-5.5,13.6-8.2,24.5-8.2c0.7,0,1.7,0,2.9,0.1V18h21.9v87.1h-18.4l-1.4-6.3h-0.9 c-1.4,2.3-3.3,4.1-5.6,5.4c-2.3,1.3-5.1,1.9-8.2,1.9C332.8,106.2,329,105.2,325.5,103z M349.7,86.8V61.6c-1.5-0.2-2.7-0.3-3.7-0.3 c-2.3,0-4.1,0.4-5.5,1.3c-1.4,0.8-2.5,2.3-3.2,4.2c-0.7,2-1.1,4.7-1.1,8.1c0,3.5,0.3,6.2,0.9,8.2c0.6,2,1.5,3.3,2.7,4.1 c1.2,0.8,2.6,1.2,4.4,1.2C346.4,88.3,348.2,87.8,349.7,86.8z M434.9,43.9h-34.2v13.8h28.7v18.5h-28.7v28.8h-22.3V25.4h56.5V43.9z M474.1,47.4c4.1,1.7,7.1,4.4,9,8.3c1.9,3.8,2.9,9,2.9,15.6v33.8h-17.8l-1.5-5.7h-0.9c-2.7,4.6-7.2,6.9-13.7,6.9 c-3.7,0-7-0.7-9.8-2.2c-2.8-1.5-4.9-3.6-6.4-6.2c-1.5-2.7-2.2-5.8-2.2-9.3c0-6,2-10.6,6-13.9c4-3.3,10.4-5.1,19.1-5.6l6-0.3 c-0.1-1.7-0.6-3.1-1.3-4.1c-0.7-1-1.9-1.7-3.4-2.2c-1.6-0.5-3.7-0.7-6.4-0.7c-2.3,0-4.8,0.2-7.4,0.5c-2.7,0.4-5.2,0.9-7.5,1.5 V47.1c2.9-0.7,6-1.3,9.5-1.6c3.4-0.4,6.7-0.6,9.8-0.6C464.6,44.9,470,45.7,474.1,47.4z M464.7,89.6v-9l-3.5,0.2 c-2.1,0.1-3.7,0.6-4.8,1.6c-1.1,0.9-1.6,2.2-1.6,3.9c0,1.5,0.4,2.7,1.3,3.5c0.9,0.8,2.1,1.2,3.7,1.2 C461.7,90.9,463.4,90.5,464.7,89.6z M493,45.8h18l1.5,5.8h0.9c3.8-4.5,8.9-6.8,15.4-6.8c5.8,0,10.5,1.9,13.9,5.7 c3.4,3.8,5.2,9.7,5.2,17.8v36.8h-21.9V69.9c0-2.2-0.4-3.7-1.3-4.6c-0.8-0.9-2.1-1.3-3.7-1.3c-1.2,0-2.4,0.2-3.5,0.7 c-1.1,0.4-2,1.1-2.8,1.8v38.7H493V45.8z M554.1,103.6V87.3c2.6,0.9,5.5,1.5,8.6,2c3.1,0.5,6.3,0.7,9.6,0.7c2.7,0,4.5-0.3,5.6-0.8 c1.1-0.6,1.6-1.4,1.6-2.4c0-0.6-0.2-1.1-0.6-1.5c-0.4-0.4-1.1-0.6-2-0.8l-9.6-1.9c-5-1-8.8-2.9-11.3-5.8 c-2.5-2.9-3.8-6.9-3.8-11.9c0-4.1,1.1-7.6,3.2-10.6c2.1-3,5.3-5.3,9.6-6.9c4.3-1.6,9.5-2.4,15.8-2.4c5.7,0,10.8,0.6,15.5,1.8V63 c-4.3-1.2-9.2-1.8-14.5-1.8c-6.4,0-9.6,1.1-9.6,3.4c0,0.6,0.2,1,0.6,1.3c0.4,0.3,1.1,0.6,2.2,0.8l9.6,1.9c5,1,8.7,2.9,11.2,5.6 c2.5,2.7,3.8,6.7,3.8,11.9c0,4.1-1.1,7.7-3.2,10.7c-2.2,3-5.2,5.4-9.3,7c-4,1.6-8.8,2.4-14.3,2.4 C565.8,106.3,559.6,105.4,554.1,103.6z"/>
        <path id="Direct" fill="currentColor" d="M616.3,105.8c-4-0.2-7.6-0.5-11-1V27.3c4-0.9,8.3-1.6,12.7-2.1c4.5-0.5,8.9-0.8,13.2-0.8 c14.6,0,25.5,3.3,32.7,10c7.2,6.6,10.8,17,10.8,30.9c0,9.5-1.7,17.3-5.2,23.3c-3.4,6-8.6,10.5-15.6,13.3 c-6.9,2.9-15.8,4.3-26.5,4.3C624,106.1,620.2,106,616.3,105.8z M643.8,85.8c2.6-1.4,4.6-3.8,6-7.1c1.4-3.3,2-7.8,2-13.4 c0-5.6-0.7-10.1-2.1-13.4c-1.4-3.3-3.5-5.7-6.2-7.2c-2.7-1.4-6.1-2.2-10.1-2.2c-0.9,0-2,0.1-3.1,0.2c-1.1,0.1-2,0.3-2.8,0.4v44.8 c1.6,0.1,3.7,0.1,6.1,0.1C637.8,87.9,641.2,87.2,643.8,85.8z M680.7,37.1c-2.2-1.9-3.2-4.7-3.2-8.4c0-3.6,1.1-6.4,3.2-8.4 c2.2-1.9,5.5-2.9,9.9-2.9c4.5,0,7.8,1,9.9,2.9s3.2,4.7,3.2,8.4c0,3.6-1.1,6.4-3.2,8.4c-2.2,1.9-5.5,2.9-9.9,2.9 C686.1,40,682.8,39,680.7,37.1z M679.6,105.1V45.8h22v59.3H679.6z M707.8,45.8h17.9l1.7,7.9h0.9c1.3-3.1,3.1-5.3,5.4-6.7 c2.4-1.4,5.2-2.1,8.5-2.1c1.5,0,3,0.1,4.7,0.4v19.9c-1.6-0.4-3.6-0.5-6.1-0.5c-2.3,0-4.4,0.4-6.5,1.1c-2,0.7-3.6,1.7-4.7,2.8v36.5 h-21.9V45.8z M802.7,81.8h-31.7c0.2,2,0.7,3.6,1.6,4.6c0.9,1.1,2.3,1.9,4.3,2.3c2,0.5,4.7,0.7,8.3,0.7c4.1,0,8.8-0.6,14.3-1.7 v16.6c-5.9,1.2-11.7,1.8-17.3,1.8c-7.9,0-14.2-1.1-19.1-3.3c-4.9-2.2-8.4-5.5-10.7-10c-2.3-4.5-3.4-10.4-3.4-17.7 c0-6.3,1.1-11.8,3.2-16.3c2.1-4.5,5.3-8,9.5-10.5c4.2-2.4,9.3-3.6,15.3-3.6c8.5,0,14.9,2.7,19.2,8.1c4.3,5.4,6.5,13.1,6.5,23V81.8 z M773.4,59.5c-0.8,0.6-1.4,1.7-1.9,3.3c-0.4,1.5-0.6,3.7-0.7,6.6h11.6c0-2.8-0.3-5-0.6-6.5c-0.4-1.6-1-2.7-1.8-3.3 c-0.8-0.6-1.9-0.9-3.3-0.9C775.3,58.6,774.2,58.9,773.4,59.5z M815.1,98.6c-5.3-5.1-8-12.8-8-23c0-10.3,2.9-18,8.6-23.1 c5.7-5.1,13.8-7.6,24.2-7.6c4.5,0,8.6,0.4,12.4,1.1v17.3c-3.2-0.5-6.1-0.7-8.7-0.7c-4.9,0-8.4,1-10.6,3c-2.2,2-3.3,5.3-3.3,9.8 c0,4.7,1,8.1,3.1,10.2c2,2,5.2,3,9.6,3c1.5,0,3-0.1,4.6-0.4c1.5-0.3,3.3-0.7,5.4-1.2v17.3c-2,0.6-4.3,1.1-6.8,1.5 c-2.5,0.3-4.9,0.5-7.4,0.5C828.1,106.3,820.4,103.7,815.1,98.6z M887,62.8v16.4c0,2.3,0.2,4.1,0.7,5.3c0.5,1.3,1.3,2.2,2.4,2.7 c1.1,0.5,2.6,0.8,4.6,0.8c1,0,2.7-0.2,5.3-0.5v17.3c-1.7,0.4-3.5,0.7-5.6,1c-2.1,0.3-4,0.4-5.9,0.4c-7.7,0-13.6-1.9-17.5-5.8 c-4-3.9-5.9-10-5.9-18.2V62.8h-8v-17h8l4.1-20.5H887v20.5h13v17H887z"/>
    </g>
    <path id="tagline" fill="#808589" d="M145.7,116.2h5l-6,25.1h-6.8l-4.5-18.8l-4.7,18.8h-6.8l-6-25.1h5.4l4.5,20l4.9-20h5.8 l4.7,20.2L145.7,116.2z M166.4,133.6H156c0,1,0.2,1.8,0.6,2.4c0.3,0.6,0.9,1,1.6,1.2s1.7,0.4,2.9,0.4c1.3,0,2.7-0.2,4.4-0.6v4.1 c-0.9,0.2-1.8,0.4-2.6,0.5c-0.8,0.1-1.7,0.2-2.5,0.2c-2.2,0-4-0.3-5.4-1c-1.4-0.7-2.4-1.7-3.1-3.1c-0.7-1.4-1-3.3-1-5.6 c0-3.1,0.7-5.5,2.1-7.1c1.4-1.6,3.4-2.5,6-2.5c2.5,0,4.3,0.8,5.6,2.5c1.3,1.6,1.9,4.1,1.9,7.2V133.6z M157.3,126.3 c-0.4,0.3-0.7,0.8-0.9,1.4c-0.2,0.7-0.3,1.6-0.3,2.8h5.5c0-1.2-0.1-2.1-0.3-2.8c-0.2-0.7-0.5-1.2-0.9-1.4c-0.4-0.3-0.9-0.4-1.5-0.4 C158.2,125.9,157.7,126,157.3,126.3z M171.8,140.7c-1.1-0.7-1.9-1.7-2.5-3c-0.6-1.4-0.9-3.1-0.9-5.2c0-3.3,0.8-5.7,2.4-7.4 s4.1-2.5,7.3-2.5c0.4,0,0.9,0,1.5,0.1v-8.7h5.2v27.4h-4.4l-0.4-2h-0.2c-0.5,0.7-1.1,1.3-1.8,1.7c-0.8,0.4-1.6,0.6-2.6,0.6 C174,141.7,172.8,141.4,171.8,140.7z M178.4,137.1c0.5-0.2,0.8-0.5,1.2-0.8v-9.6c-0.7-0.1-1.2-0.2-1.7-0.2c-1,0-1.7,0.2-2.4,0.5 c-0.6,0.4-1.1,0.9-1.4,1.7c-0.3,0.8-0.5,1.9-0.5,3.3c0,1.4,0.1,2.5,0.4,3.3c0.3,0.8,0.7,1.3,1.1,1.6c0.5,0.3,1.1,0.5,1.8,0.5 C177.5,137.4,177.9,137.3,178.4,137.1z M191.1,140.7c-1.1-0.7-1.9-1.7-2.5-3c-0.6-1.4-0.9-3.1-0.9-5.2c0-3.3,0.8-5.7,2.4-7.4 s4.1-2.5,7.3-2.5c0.4,0,0.9,0,1.5,0.1v-8.7h5.2v27.4h-4.4l-0.4-2h-0.2c-0.5,0.7-1.1,1.3-1.8,1.7c-0.8,0.4-1.6,0.6-2.6,0.6 C193.3,141.7,192.1,141.4,191.1,140.7z M197.7,137.1c0.5-0.2,0.8-0.5,1.2-0.8v-9.6c-0.7-0.1-1.2-0.2-1.7-0.2c-1,0-1.7,0.2-2.4,0.5 c-0.6,0.4-1.1,0.9-1.4,1.7c-0.3,0.8-0.5,1.9-0.5,3.3c0,1.4,0.1,2.5,0.4,3.3c0.3,0.8,0.7,1.3,1.1,1.6c0.5,0.3,1.1,0.5,1.8,0.5 C196.8,137.4,197.3,137.3,197.7,137.1z M207.9,119.3c-0.5-0.5-0.8-1.2-0.8-2.1c0-0.9,0.3-1.6,0.8-2.1c0.5-0.5,1.3-0.7,2.4-0.7 c1.1,0,1.9,0.2,2.4,0.7c0.5,0.5,0.8,1.2,0.8,2.1c0,0.9-0.3,1.6-0.8,2.1c-0.5,0.5-1.3,0.7-2.4,0.7 C209.3,120.1,208.5,119.8,207.9,119.3z M207.7,141.4v-18.6h5.2v18.6H207.7z M216.6,122.8h4.3l0.4,1.9h0.2c0.6-0.7,1.4-1.3,2.2-1.7 c0.9-0.4,1.8-0.6,2.8-0.6c1.8,0,3.2,0.6,4.2,1.7c1,1.1,1.6,2.9,1.6,5.3v12h-5.2v-11.6c0-1-0.2-1.7-0.6-2.1c-0.4-0.4-1-0.6-1.7-0.6 c-0.6,0-1.1,0.1-1.7,0.3s-1,0.6-1.3,1v12.9h-5.2V122.8z M239.1,149c-1-0.1-1.9-0.3-2.7-0.5v-4.1c1.8,0.5,3.5,0.7,5.1,0.7 c1.7,0,2.9-0.3,3.7-1c0.8-0.7,1.2-1.8,1.2-3.5v-1.2h-0.3c-0.5,0.7-1.1,1.2-1.8,1.6c-0.7,0.4-1.6,0.6-2.5,0.6c-1.2,0-2.3-0.3-3.3-1 c-1-0.6-1.8-1.7-2.4-3c-0.6-1.4-0.9-3.1-0.9-5.1c0-6.6,3.3-9.9,9.9-10c1.1,0,2.2,0.1,3.4,0.3c1.2,0.2,2.2,0.4,3.1,0.8v16.2 c0,2.2-0.4,4-1.1,5.4c-0.7,1.4-1.8,2.4-3.2,3.1c-1.4,0.7-3.2,1-5.3,1C241.1,149.2,240.1,149.1,239.1,149z M245.2,137 c0.4-0.2,0.8-0.4,1.1-0.7v-9.6c-0.7-0.1-1.3-0.2-1.8-0.2c-1.4,0-2.4,0.4-3.1,1.3c-0.7,0.8-1,2.3-1,4.2c0,1.3,0.1,2.4,0.4,3.2 c0.3,0.8,0.7,1.3,1.2,1.6c0.5,0.3,1.1,0.5,1.9,0.5C244.3,137.2,244.8,137.2,245.2,137z M260.3,136.2c0.6,0.7,0.9,1.8,0.9,3.2 c0,1.3-0.2,2.7-0.7,4.1c-0.5,1.4-1.1,2.6-1.9,3.7h-3c0.5-1.1,0.9-2.1,1.1-3c0.3-0.9,0.5-1.7,0.5-2.6c-0.9-0.1-1.6-0.4-2.1-1 c-0.5-0.6-0.8-1.3-0.8-2.2c0-1,0.3-1.8,0.9-2.4s1.4-0.9,2.4-0.9C258.9,135.1,259.7,135.4,260.3,136.2z M286.4,141.4l-6.1-9.2H280 c-0.6,0-1.4,0-2.5-0.1v9.3h-5.2v-24.6c2.5-0.5,4.9-0.8,7.4-0.8c3.5,0,6.2,0.7,7.9,2c1.7,1.3,2.6,3.4,2.6,6.1c0,1.8-0.4,3.3-1.2,4.5 c-0.8,1.2-2.1,2.1-3.6,2.8l6.8,10.1H286.4z M277.5,127.9c0.8,0.1,1.7,0.1,2.5,0.1c1.8,0,3.1-0.3,3.9-1c0.8-0.6,1.3-1.7,1.3-3.1 c0-1.4-0.4-2.4-1.2-3.1c-0.8-0.7-2-1-3.7-1c-1,0-2,0.1-2.8,0.2V127.9z M308,133.6h-10.4c0,1,0.2,1.8,0.6,2.4c0.3,0.6,0.9,1,1.6,1.2 s1.7,0.4,2.9,0.4c1.3,0,2.7-0.2,4.4-0.6v4.1c-0.9,0.2-1.8,0.4-2.6,0.5c-0.8,0.1-1.7,0.2-2.5,0.2c-2.2,0-4-0.3-5.4-1 c-1.4-0.7-2.4-1.7-3.1-3.1c-0.7-1.4-1-3.3-1-5.6c0-3.1,0.7-5.5,2.1-7.1c1.4-1.6,3.4-2.5,6-2.5c2.5,0,4.3,0.8,5.6,2.5 c1.3,1.6,1.9,4.1,1.9,7.2V133.6z M298.9,126.3c-0.4,0.3-0.7,0.8-0.9,1.4c-0.2,0.7-0.3,1.6-0.3,2.8h5.5c0-1.2-0.1-2.1-0.3-2.8 c-0.2-0.7-0.5-1.2-0.9-1.4c-0.4-0.3-0.9-0.4-1.5-0.4C299.8,125.9,299.3,126,298.9,126.3z M310.7,141.4v-27.4h5.2v27.4H310.7z M319.7,119.3c-0.5-0.5-0.8-1.2-0.8-2.1c0-0.9,0.3-1.6,0.8-2.1c0.5-0.5,1.4-0.7,2.4-0.7c1.1,0,1.9,0.2,2.4,0.7 c0.5,0.5,0.8,1.2,0.8,2.1c0,0.9-0.3,1.6-0.8,2.1c-0.5,0.5-1.3,0.7-2.4,0.7C321.1,120.1,320.3,119.8,319.7,119.3z M319.5,141.4 v-18.6h5.2v18.6H319.5z M331.7,149c-1-0.1-1.9-0.3-2.7-0.5v-4.1c1.8,0.5,3.5,0.7,5.1,0.7c1.7,0,2.9-0.3,3.7-1 c0.8-0.7,1.2-1.8,1.2-3.5v-1.2h-0.3c-0.5,0.7-1.1,1.2-1.8,1.6c-0.7,0.4-1.6,0.6-2.5,0.6c-1.2,0-2.3-0.3-3.3-1c-1-0.6-1.8-1.7-2.4-3 c-0.6-1.4-0.9-3.1-0.9-5.1c0-6.6,3.3-9.9,9.9-10c1.1,0,2.2,0.1,3.4,0.3c1.2,0.2,2.2,0.4,3.1,0.8v16.2c0,2.2-0.4,4-1.1,5.4 c-0.7,1.4-1.8,2.4-3.2,3.1c-1.4,0.7-3.2,1-5.3,1C333.6,149.2,332.7,149.1,331.7,149z M337.8,137c0.4-0.2,0.8-0.4,1.1-0.7v-9.6 c-0.7-0.1-1.3-0.2-1.8-0.2c-1.4,0-2.4,0.4-3.1,1.3c-0.7,0.8-1,2.3-1,4.2c0,1.3,0.1,2.4,0.4,3.2c0.3,0.8,0.7,1.3,1.2,1.6 c0.5,0.3,1.1,0.5,1.9,0.5C336.9,137.2,337.3,137.2,337.8,137z M347.9,119.3c-0.5-0.5-0.8-1.2-0.8-2.1c0-0.9,0.3-1.6,0.8-2.1 c0.5-0.5,1.3-0.7,2.4-0.7c1.1,0,1.9,0.2,2.4,0.7c0.5,0.5,0.8,1.2,0.8,2.1c0,0.9-0.3,1.6-0.8,2.1c-0.5,0.5-1.3,0.7-2.4,0.7 C349.3,120.1,348.5,119.8,347.9,119.3z M347.7,141.4v-18.6h5.2v18.6H347.7z M358,139.3c-1.4-1.6-2.2-4-2.2-7.2 c0-3.3,0.7-5.7,2.2-7.3c1.4-1.6,3.5-2.4,6.2-2.4c2.7,0,4.7,0.8,6.2,2.4c1.4,1.6,2.2,4,2.2,7.2c0,3.2-0.7,5.6-2.2,7.2 c-1.4,1.6-3.5,2.4-6.2,2.4C361.5,141.7,359.5,140.9,358,139.3z M365.9,137.3c0.4-0.3,0.8-0.9,1-1.7c0.2-0.8,0.4-2,0.4-3.4 c0-1.5-0.1-2.7-0.4-3.5c-0.2-0.8-0.6-1.4-1-1.8c-0.4-0.3-1-0.5-1.7-0.5c-0.7,0-1.3,0.2-1.7,0.5s-0.8,0.9-1,1.7 c-0.2,0.8-0.4,2-0.4,3.4c0,1.5,0.1,2.6,0.4,3.5c0.2,0.8,0.6,1.4,1,1.7c0.4,0.3,1,0.5,1.7,0.5C364.9,137.8,365.5,137.6,365.9,137.3z M376.9,140c-1-1.1-1.5-2.8-1.5-5.2v-12h5.2v11.6c0,1,0.2,1.7,0.6,2.1c0.4,0.4,0.9,0.6,1.7,0.6c0.5,0,1.1-0.1,1.6-0.4 c0.5-0.2,1-0.6,1.3-1v-12.9h5.2v18.6h-4.3l-0.4-1.9H386c-1.3,1.5-2.9,2.2-4.9,2.2C379.3,141.7,377.9,141.1,376.9,140z M394.2,140.9 v-4c1.7,0.5,3.4,0.8,5.3,0.8c1.1,0,1.9-0.2,2.3-0.5c0.5-0.3,0.7-0.8,0.7-1.3c0-0.5-0.1-0.8-0.4-1c-0.2-0.2-0.6-0.4-1.2-0.6 l-2.7-0.6c-1.5-0.3-2.7-0.9-3.4-1.8c-0.8-0.9-1.1-2-1.1-3.5c0-1.2,0.3-2.2,0.9-3.1c0.6-0.9,1.5-1.6,2.7-2.1 c1.2-0.5,2.7-0.7,4.5-0.7c1.6,0,3.1,0.2,4.5,0.5v4c-1.3-0.4-2.7-0.5-4.3-0.5c-2.4,0-3.6,0.6-3.6,1.9c0,0.4,0.1,0.7,0.4,1 c0.2,0.2,0.6,0.4,1.2,0.6l2.7,0.6c1.6,0.3,2.7,0.9,3.5,1.8c0.8,0.8,1.1,2,1.1,3.5c0,1.2-0.3,2.3-0.9,3.2c-0.6,0.9-1.5,1.6-2.7,2.1 c-1.2,0.5-2.5,0.7-4.2,0.7C397.6,141.7,395.8,141.4,394.2,140.9z M415,136.2c0.6,0.7,0.9,1.8,0.9,3.2c0,1.3-0.2,2.7-0.7,4.1 c-0.5,1.4-1.1,2.6-1.9,3.7h-3c0.5-1.1,0.9-2.1,1.1-3s0.4-1.7,0.5-2.6c-0.9-0.1-1.6-0.4-2.1-1c-0.5-0.6-0.8-1.3-0.8-2.2 c0-1,0.3-1.8,0.9-2.4s1.4-0.9,2.4-0.9C413.5,135.1,414.4,135.4,415,136.2z M426.9,116.7c2.4-0.5,4.8-0.8,7.2-0.8 c3.6,0,6.3,0.7,8.1,2.2c1.8,1.5,2.7,3.8,2.7,6.9c0,3-0.9,5.2-2.6,6.8c-1.8,1.5-4.4,2.3-7.8,2.3c-0.6,0-1.4,0-2.3-0.1v7.4h-5.3 V116.7z M438.5,128.8c0.8-0.8,1.2-2,1.2-3.7c0-1.7-0.4-3-1.2-3.8c-0.8-0.8-2.1-1.2-3.9-1.2c-0.9,0-1.7,0.1-2.4,0.2v9.5 c0.7,0.1,1.4,0.1,2.3,0.1C436.3,129.9,437.6,129.5,438.5,128.8z M448.9,139.3c-1.4-1.6-2.2-4-2.2-7.2c0-3.3,0.7-5.7,2.2-7.3 c1.4-1.6,3.5-2.4,6.2-2.4c2.7,0,4.7,0.8,6.2,2.4c1.4,1.6,2.2,4,2.2,7.2c0,3.2-0.7,5.6-2.2,7.2c-1.4,1.6-3.5,2.4-6.2,2.4 C452.4,141.7,450.3,140.9,448.9,139.3z M456.8,137.3c0.4-0.3,0.8-0.9,1-1.7c0.2-0.8,0.4-2,0.4-3.4c0-1.5-0.1-2.7-0.4-3.5 c-0.2-0.8-0.6-1.4-1-1.8c-0.4-0.3-1-0.5-1.7-0.5c-0.7,0-1.3,0.2-1.7,0.5s-0.8,0.9-1,1.7c-0.2,0.8-0.4,2-0.4,3.4 c0,1.5,0.1,2.6,0.4,3.5c0.2,0.8,0.6,1.4,1,1.7c0.4,0.3,1,0.5,1.7,0.5C455.8,137.8,456.3,137.6,456.8,137.3z M466.4,141.4v-27.4h5.2 v27.4H466.4z M475.4,119.3c-0.5-0.5-0.8-1.2-0.8-2.1c0-0.9,0.3-1.6,0.8-2.1c0.5-0.5,1.3-0.7,2.4-0.7c1.1,0,1.9,0.2,2.4,0.7 c0.5,0.5,0.8,1.2,0.8,2.1c0,0.9-0.3,1.6-0.8,2.1c-0.5,0.5-1.3,0.7-2.4,0.7C476.8,120.1,476,119.8,475.4,119.3z M475.2,141.4v-18.6 h5.2v18.6H475.2z M495.2,137.1v4.2c-0.5,0.1-1,0.2-1.6,0.3c-0.6,0.1-1.1,0.1-1.7,0.1c-2.2,0-3.9-0.6-5-1.7 c-1.1-1.1-1.7-2.9-1.7-5.3v-7.8h-2.8v-4.1h2.8l1-6.6h4.2v6.6h4.6v4.1h-4.6v7.2c0,0.8,0.1,1.5,0.3,2c0.2,0.5,0.5,0.8,0.9,1 c0.4,0.2,1,0.3,1.7,0.3C493.8,137.3,494.4,137.2,495.2,137.1z M497.8,119.3c-0.5-0.5-0.8-1.2-0.8-2.1c0-0.9,0.3-1.6,0.8-2.1 c0.5-0.5,1.3-0.7,2.4-0.7c1.1,0,1.9,0.2,2.4,0.7c0.5,0.5,0.8,1.2,0.8,2.1c0,0.9-0.3,1.6-0.8,2.1c-0.5,0.5-1.3,0.7-2.4,0.7 C499.2,120.1,498.4,119.8,497.8,119.3z M497.6,141.4v-18.6h5.2v18.6H497.6z M508,139.3c-1.5-1.6-2.3-4-2.3-7.2 c0-3.3,0.8-5.7,2.5-7.3c1.6-1.6,4-2.3,7-2.3c1.4,0,2.6,0.1,3.7,0.4v4.2c-1-0.2-1.9-0.3-2.8-0.3c-1.2,0-2.1,0.2-2.8,0.5 c-0.7,0.4-1.3,0.9-1.6,1.7c-0.4,0.8-0.5,1.8-0.5,3c0,1.3,0.2,2.4,0.5,3.2c0.3,0.8,0.8,1.4,1.5,1.7c0.7,0.3,1.5,0.5,2.5,0.5 c0.9,0,2-0.2,3.3-0.6v4.2c-0.7,0.2-1.4,0.4-2.1,0.5c-0.7,0.1-1.5,0.2-2.2,0.2C511.7,141.7,509.5,140.9,508,139.3z M532.1,123.2 c1.2,0.5,2,1.3,2.6,2.4c0.6,1.1,0.8,2.6,0.8,4.5v11.3h-4.2l-0.4-1.9h-0.2c-0.5,0.8-1.1,1.3-1.9,1.7c-0.8,0.4-1.7,0.6-2.7,0.6 c-1.1,0-2.1-0.2-2.9-0.7c-0.8-0.4-1.5-1.1-1.9-1.9c-0.5-0.8-0.7-1.8-0.7-2.8c0-1.8,0.6-3.2,1.7-4.2c1.2-1,3-1.6,5.5-1.7l2.6-0.2 v-0.4c0-0.8-0.1-1.5-0.4-1.9c-0.2-0.5-0.7-0.8-1.2-1c-0.6-0.2-1.3-0.3-2.3-0.3c-0.7,0-1.5,0.1-2.3,0.2c-0.8,0.1-1.6,0.3-2.4,0.5 v-4.1c0.8-0.2,1.7-0.4,2.7-0.5c1-0.1,2-0.2,2.9-0.2C529.5,122.5,531,122.7,532.1,123.2z M529.3,137.6c0.4-0.2,0.9-0.5,1.2-0.8v-3.6 l-2.1,0.2c-1.8,0.1-2.7,0.9-2.7,2.4c0,0.7,0.2,1.2,0.6,1.6c0.4,0.4,0.9,0.6,1.6,0.6C528.4,137.9,528.8,137.8,529.3,137.6z M539.1,141.4v-27.4h5.2v27.4H539.1z M553,136.2c0.6,0.7,0.9,1.8,0.9,3.2c0,1.3-0.2,2.7-0.7,4.1c-0.5,1.4-1.1,2.6-1.9,3.7h-3 c0.5-1.1,0.9-2.1,1.1-3c0.3-0.9,0.4-1.7,0.5-2.6c-0.9-0.1-1.6-0.4-2.1-1c-0.5-0.6-0.8-1.3-0.8-2.2c0-1,0.3-1.8,0.9-2.4 c0.6-0.6,1.4-0.9,2.4-0.9C551.6,135.1,552.5,135.4,553,136.2z M580.5,141.4l-1.9-6.7h-8.5l-1.9,6.7h-5.2l7.4-25.1h7.8l7.4,25.1 H580.5z M571.3,130.3h6l-3-10.7L571.3,130.3z M590.2,140.7c-1.1-0.7-1.9-1.7-2.5-3c-0.6-1.4-0.9-3.1-0.9-5.2c0-3.3,0.8-5.7,2.4-7.4 c1.6-1.7,4.1-2.5,7.3-2.5c0.4,0,0.9,0,1.5,0.1v-8.7h5.2v27.4h-4.4l-0.4-2h-0.2c-0.5,0.7-1.1,1.3-1.8,1.7c-0.8,0.4-1.6,0.6-2.6,0.6 C592.5,141.7,591.3,141.4,590.2,140.7z M596.9,137.1c0.5-0.2,0.8-0.5,1.2-0.8v-9.6c-0.7-0.1-1.2-0.2-1.7-0.2c-1,0-1.7,0.2-2.4,0.5 c-0.6,0.4-1.1,0.9-1.4,1.7c-0.3,0.8-0.5,1.9-0.5,3.3c0,1.4,0.1,2.5,0.4,3.3c0.3,0.8,0.7,1.3,1.1,1.6c0.5,0.3,1.1,0.5,1.8,0.5 C595.9,137.4,596.4,137.3,596.9,137.1z M618.2,122.8h5.1l-5.8,18.6h-6.7l-5.8-18.6h5.4l3.9,13.7L618.2,122.8z M639.8,133.6h-10.4 c0,1,0.2,1.8,0.6,2.4c0.3,0.6,0.9,1,1.6,1.2c0.7,0.3,1.7,0.4,2.9,0.4c1.3,0,2.7-0.2,4.4-0.6v4.1c-0.9,0.2-1.8,0.4-2.6,0.5 c-0.8,0.1-1.7,0.2-2.5,0.2c-2.2,0-4-0.3-5.4-1c-1.4-0.7-2.4-1.7-3.1-3.1c-0.7-1.4-1-3.3-1-5.6c0-3.1,0.7-5.5,2.1-7.1 c1.4-1.6,3.4-2.5,6-2.5c2.5,0,4.3,0.8,5.6,2.5c1.3,1.6,1.9,4.1,1.9,7.2V133.6z M630.7,126.3c-0.4,0.3-0.7,0.8-0.9,1.4 c-0.2,0.7-0.3,1.6-0.3,2.8h5.5c0-1.2-0.1-2.1-0.3-2.8c-0.2-0.7-0.5-1.2-0.9-1.4c-0.4-0.3-0.9-0.4-1.5-0.4 C631.6,125.9,631.1,126,630.7,126.3z M642.4,122.8h4.3l0.4,2.5h0.2c0.5-1,1.1-1.7,1.9-2.1c0.8-0.5,1.7-0.7,2.8-0.7 c0.4,0,0.9,0,1.4,0.1v4.8c-0.4-0.1-1-0.1-1.7-0.1c-0.8,0-1.6,0.2-2.3,0.5c-0.8,0.3-1.3,0.7-1.7,1.3v12.3h-5.2V122.8z M667,137.1 v4.2c-0.5,0.1-1,0.2-1.6,0.3c-0.6,0.1-1.1,0.1-1.7,0.1c-2.2,0-3.9-0.6-5-1.7c-1.1-1.1-1.7-2.9-1.7-5.3v-7.8h-2.8v-4.1h2.8l1-6.6 h4.2v6.6h4.6v4.1h-4.6v7.2c0,0.8,0.1,1.5,0.3,2c0.2,0.5,0.5,0.8,0.9,1c0.4,0.2,1,0.3,1.7,0.3C665.6,137.3,666.3,137.2,667,137.1z M669.7,119.3c-0.5-0.5-0.8-1.2-0.8-2.1c0-0.9,0.3-1.6,0.8-2.1c0.5-0.5,1.3-0.7,2.4-0.7c1.1,0,1.9,0.2,2.4,0.7 c0.5,0.5,0.8,1.2,0.8,2.1c0,0.9-0.3,1.6-0.8,2.1c-0.5,0.5-1.3,0.7-2.4,0.7C671,120.1,670.2,119.8,669.7,119.3z M669.5,141.4v-18.6 h5.2v18.6H669.5z M677.9,140.9v-4c1.7,0.5,3.4,0.8,5.3,0.8c1.1,0,1.9-0.2,2.3-0.5c0.5-0.3,0.7-0.8,0.7-1.3c0-0.5-0.1-0.8-0.4-1 c-0.2-0.2-0.6-0.4-1.2-0.6l-2.7-0.6c-1.5-0.3-2.7-0.9-3.4-1.8c-0.8-0.9-1.1-2-1.1-3.5c0-1.2,0.3-2.2,0.9-3.1s1.5-1.6,2.7-2.1 c1.2-0.5,2.7-0.7,4.5-0.7c1.6,0,3.1,0.2,4.5,0.5v4c-1.3-0.4-2.7-0.5-4.3-0.5c-2.4,0-3.6,0.6-3.6,1.9c0,0.4,0.1,0.7,0.4,1 c0.2,0.2,0.6,0.4,1.2,0.6l2.7,0.6c1.6,0.3,2.7,0.9,3.5,1.8c0.8,0.8,1.1,2,1.1,3.5c0,1.2-0.3,2.3-0.9,3.2c-0.6,0.9-1.5,1.6-2.7,2.1 c-1.2,0.5-2.5,0.7-4.2,0.7C681.3,141.7,679.5,141.4,677.9,140.9z M693.7,119.3c-0.5-0.5-0.8-1.2-0.8-2.1c0-0.9,0.3-1.6,0.8-2.1 c0.5-0.5,1.3-0.7,2.4-0.7c1.1,0,1.9,0.2,2.4,0.7s0.8,1.2,0.8,2.1c0,0.9-0.3,1.6-0.8,2.1c-0.5,0.5-1.3,0.7-2.4,0.7 C695.1,120.1,694.3,119.8,693.7,119.3z M693.5,141.4v-18.6h5.2v18.6H693.5z M702.4,122.8h4.3l0.4,1.9h0.2c0.6-0.7,1.4-1.3,2.2-1.7 c0.9-0.4,1.8-0.6,2.8-0.6c1.8,0,3.2,0.6,4.2,1.7c1,1.1,1.6,2.9,1.6,5.3v12H713v-11.6c0-1-0.2-1.7-0.6-2.1c-0.4-0.4-1-0.6-1.7-0.6 c-0.6,0-1.1,0.1-1.7,0.3c-0.5,0.2-1,0.6-1.3,1v12.9h-5.2V122.8z M724.9,149c-1-0.1-1.9-0.3-2.7-0.5v-4.1c1.8,0.5,3.5,0.7,5.1,0.7 s2.9-0.3,3.7-1c0.8-0.7,1.2-1.8,1.2-3.5v-1.2h-0.3c-0.5,0.7-1.1,1.2-1.8,1.6c-0.7,0.4-1.6,0.6-2.5,0.6c-1.2,0-2.3-0.3-3.3-1 c-1-0.6-1.8-1.7-2.4-3c-0.6-1.4-0.9-3.1-0.9-5.1c0-6.6,3.3-9.9,9.9-10c1.1,0,2.2,0.1,3.4,0.3c1.2,0.2,2.2,0.4,3.1,0.8v16.2 c0,2.2-0.4,4-1.1,5.4c-0.7,1.4-1.8,2.4-3.2,3.1c-1.4,0.7-3.2,1-5.3,1C726.9,149.2,725.9,149.1,724.9,149z M731,137 c0.4-0.2,0.8-0.4,1.1-0.7v-9.6c-0.7-0.1-1.3-0.2-1.8-0.2c-1.4,0-2.4,0.4-3.1,1.3c-0.7,0.8-1,2.3-1,4.2c0,1.3,0.1,2.4,0.4,3.2 c0.3,0.8,0.7,1.3,1.2,1.6c0.5,0.3,1.1,0.5,1.9,0.5C730.1,137.2,730.6,137.2,731,137z M759.6,123.2c1.2,0.5,2,1.3,2.6,2.4 c0.6,1.1,0.8,2.6,0.8,4.5v11.3h-4.2l-0.4-1.9h-0.2c-0.5,0.8-1.1,1.3-1.9,1.7c-0.8,0.4-1.7,0.6-2.7,0.6c-1.1,0-2.1-0.2-2.9-0.7 c-0.8-0.4-1.5-1.1-1.9-1.9c-0.5-0.8-0.7-1.8-0.7-2.8c0-1.8,0.6-3.2,1.7-4.2c1.2-1,3-1.6,5.5-1.7l2.6-0.2v-0.4 c0-0.8-0.1-1.5-0.4-1.9c-0.2-0.5-0.7-0.8-1.2-1c-0.6-0.2-1.3-0.3-2.3-0.3c-0.7,0-1.5,0.1-2.3,0.2c-0.8,0.1-1.6,0.3-2.4,0.5v-4.1 c0.8-0.2,1.7-0.4,2.7-0.5c1-0.1,2-0.2,2.9-0.2C757,122.5,758.5,122.7,759.6,123.2z M756.8,137.6c0.4-0.2,0.9-0.5,1.2-0.8v-3.6 l-2.1,0.2c-1.8,0.1-2.7,0.9-2.7,2.4c0,0.7,0.2,1.2,0.6,1.6c0.4,0.4,0.9,0.6,1.6,0.6C755.9,137.9,756.3,137.8,756.8,137.6z M766.6,122.8h4.3l0.4,1.9h0.2c0.6-0.7,1.4-1.3,2.2-1.7c0.9-0.4,1.8-0.6,2.8-0.6c1.8,0,3.2,0.6,4.2,1.7c1,1.1,1.6,2.9,1.6,5.3v12 h-5.2v-11.6c0-1-0.2-1.7-0.6-2.1s-1-0.6-1.7-0.6c-0.6,0-1.1,0.1-1.7,0.3c-0.5,0.2-1,0.6-1.3,1v12.9h-5.2V122.8z M788.5,140.7 c-1.1-0.7-1.9-1.7-2.5-3s-0.9-3.1-0.9-5.2c0-3.3,0.8-5.7,2.4-7.4c1.6-1.7,4.1-2.5,7.3-2.5c0.4,0,0.9,0,1.5,0.1v-8.7h5.2v27.4h-4.4 l-0.4-2h-0.2c-0.5,0.7-1.1,1.3-1.8,1.7c-0.8,0.4-1.6,0.6-2.6,0.6C790.8,141.7,789.6,141.4,788.5,140.7z M795.2,137.1 c0.5-0.2,0.8-0.5,1.2-0.8v-9.6c-0.7-0.1-1.2-0.2-1.7-0.2c-1,0-1.7,0.2-2.4,0.5c-0.6,0.4-1.1,0.9-1.4,1.7c-0.3,0.8-0.5,1.9-0.5,3.3 c0,1.4,0.1,2.5,0.4,3.3c0.3,0.8,0.7,1.3,1.1,1.6c0.5,0.3,1.1,0.5,1.8,0.5C794.2,137.4,794.7,137.3,795.2,137.1z M832.8,116.2h6.5 v25.1h-4.9v-17.9l-5.9,14.2h-4.3l-5.9-13.8v17.4h-4.9v-25.1h6.5l6.6,15.8L832.8,116.2z M844.6,139.3c-1.4-1.6-2.2-4-2.2-7.2 c0-3.3,0.7-5.7,2.2-7.3c1.4-1.6,3.5-2.4,6.2-2.4c2.7,0,4.7,0.8,6.2,2.4c1.4,1.6,2.2,4,2.2,7.2c0,3.2-0.7,5.6-2.2,7.2 c-1.4,1.6-3.5,2.4-6.2,2.4S846.1,140.9,844.6,139.3z M852.5,137.3c0.4-0.3,0.8-0.9,1-1.7c0.2-0.8,0.4-2,0.4-3.4 c0-1.5-0.1-2.7-0.4-3.5c-0.2-0.8-0.6-1.4-1-1.8c-0.4-0.3-1-0.5-1.7-0.5c-0.7,0-1.3,0.2-1.7,0.5c-0.4,0.3-0.8,0.9-1,1.7 c-0.2,0.8-0.4,2-0.4,3.4c0,1.5,0.1,2.6,0.4,3.5c0.2,0.8,0.6,1.4,1,1.7c0.4,0.3,1,0.5,1.7,0.5C851.5,137.8,852.1,137.6,852.5,137.3z M862.1,122.8h4.3l0.4,2.5h0.2c0.5-1,1.1-1.7,1.9-2.1c0.8-0.5,1.7-0.7,2.8-0.7c0.4,0,0.9,0,1.4,0.1v4.8c-0.4-0.1-1-0.1-1.7-0.1 c-0.8,0-1.6,0.2-2.3,0.5c-0.8,0.3-1.3,0.7-1.7,1.3v12.3h-5.2V122.8z M889.8,133.6h-10.4c0,1,0.2,1.8,0.6,2.4c0.3,0.6,0.9,1,1.6,1.2 c0.7,0.3,1.7,0.4,2.9,0.4c1.3,0,2.7-0.2,4.4-0.6v4.1c-0.9,0.2-1.8,0.4-2.6,0.5c-0.8,0.1-1.7,0.2-2.5,0.2c-2.2,0-4-0.3-5.4-1 c-1.4-0.7-2.4-1.7-3.1-3.1c-0.7-1.4-1-3.3-1-5.6c0-3.1,0.7-5.5,2.1-7.1c1.4-1.6,3.4-2.5,6-2.5c2.5,0,4.3,0.8,5.6,2.5 c1.3,1.6,1.9,4.1,1.9,7.2V133.6z M880.7,126.3c-0.4,0.3-0.7,0.8-0.9,1.4c-0.2,0.7-0.3,1.6-0.3,2.8h5.5c0-1.2-0.1-2.1-0.3-2.8 c-0.2-0.7-0.5-1.2-0.9-1.4c-0.4-0.3-0.9-0.4-1.5-0.4C881.6,125.9,881.1,126,880.7,126.3z M892.9,140.8c-0.6-0.6-0.9-1.3-0.9-2.3 c0-1,0.3-1.7,0.9-2.3c0.6-0.6,1.4-0.9,2.5-0.9c0.7,0,1.3,0.1,1.8,0.4c0.5,0.3,0.9,0.6,1.2,1.1c0.3,0.5,0.4,1,0.4,1.7 c0,0.6-0.1,1.2-0.4,1.7c-0.3,0.5-0.7,0.9-1.2,1.1c-0.5,0.3-1.1,0.4-1.8,0.4C894.4,141.6,893.6,141.4,892.9,140.8z M893.8,133.4 l-1.2-8.4v-8.7h5.6v8.7l-1.2,8.4H893.8z"/>
</svg>