<svg id="e7acbf7c-659a-43e4-8119-ff390bf1fa27" data-name="Layer 2" xmlns="http://www.w3.org/2000/svg" viewBox="0 0 650.97 131.46"><defs><style>.bba0f2ec-a51e-4d9d-ab39-6f696c084a15{fill:#cac6cd;}.fe7b184c-08e8-4d83-9112-0e1b16082c6d{fill:#e4e2e6;}.b8912c62-718e-4ee6-b683-1d9b084a6cb8{fill:#fff;}.a0a0b406-f890-4a0e-bc61-ba2a227e59f3{fill:#f09;}.ee5223bc-e52c-41bd-af53-fc28b94f76e1{fill:#0b83e3;}</style></defs><path class="bba0f2ec-a51e-4d9d-ab39-6f696c084a15" d="M51.26,96.56A16.54,16.54,0,0,1,38.8,91.4a16.27,16.27,0,0,1-4.31-11.27v0a18.18,18.18,0,0,1-5.42,11.58,17.42,17.42,0,0,1-12.3,4.81A16.23,16.23,0,0,1,.08,78.33L3.2,38.8A18,18,0,0,1,8.69,27.18a17.45,17.45,0,0,1,12.22-4.69,16.45,16.45,0,0,1,12.56,5.23,16.27,16.27,0,0,1,4.21,11.12v0a18,18,0,0,1,5.5-11.63,17.44,17.44,0,0,1,12.21-4.69A16.16,16.16,0,0,1,72.19,38a15.51,15.51,0,0,1-.11,2.64L69,80.17a18.13,18.13,0,0,1-5.42,11.58A17.34,17.34,0,0,1,51.26,96.56Z" transform="translate(0.05 0)"/><path class="bba0f2ec-a51e-4d9d-ab39-6f696c084a15" d="M74.15,96.7A25.15,25.15,0,0,1,63.1,94.25a21.64,21.64,0,0,1-8.79-7.52,20.14,20.14,0,0,1-3.46-11.41A20.93,20.93,0,0,1,54.8,62.51a14.85,14.85,0,0,1-1.44-6.39,15.54,15.54,0,0,1,2.29-8.07,16.59,16.59,0,0,1,6.41-6A38,38,0,0,1,80.65,37.7C88.8,37.7,95.32,39.81,100,44c3.51,3.09,7.68,8.88,7.68,18.87,0,1.33,0,2.41-.11,3.31l-1.18,14.61a16.78,16.78,0,0,1-5.48,11.51A18,18,0,0,1,82.42,95.2,22.47,22.47,0,0,1,74.15,96.7Z" transform="translate(0.05 0)"/><path class="bba0f2ec-a51e-4d9d-ab39-6f696c084a15" d="M131.16,96.56a16.9,16.9,0,0,1-12-4.53l-.29.26A17.65,17.65,0,0,1,107,96.56a16.71,16.71,0,0,1-12.22-4.74,16.12,16.12,0,0,1-4.57-12.48l0-.29L92.3,53.67A16.47,16.47,0,0,1,98.23,42,18.15,18.15,0,0,1,110,37.85a17.33,17.33,0,0,1,7.43,1.58,27.6,27.6,0,0,1,9.77-1.73c8.9,0,14.17,3.77,17,6.93,3.87,4.28,5.83,10.06,5.83,17.18,0,1.37,0,2.47-.11,3.37l-1.26,15.7,0,.13A17,17,0,0,1,143,92.29,17.61,17.61,0,0,1,131.16,96.56Z" transform="translate(0.05 0)"/><path class="bba0f2ec-a51e-4d9d-ab39-6f696c084a15" d="M157.89,96.7a26,26,0,0,1-13.54-3.61,24.74,24.74,0,0,1-9.49-10.37,31.17,31.17,0,0,1-3.08-14A34.94,34.94,0,0,1,135,53.56,27.92,27.92,0,0,1,145,42a26.76,26.76,0,0,1,14.92-4.31l1.12,0a16.27,16.27,0,0,1,5.75-11.15,17.7,17.7,0,0,1,11.59-4.08,17,17,0,0,1,12.1,4.6,15.92,15.92,0,0,1,4.84,12.56l0,.24-3.17,40.83a17,17,0,0,1-5.54,11.45A18.39,18.39,0,0,1,167.27,95,25.72,25.72,0,0,1,157.89,96.7Z" transform="translate(0.05 0)"/><path class="bba0f2ec-a51e-4d9d-ab39-6f696c084a15" d="M194,96.56a16.34,16.34,0,0,1-16.86-15.79,15.28,15.28,0,0,1,.1-2.44l3.11-39.63a17.36,17.36,0,0,1,5.45-11.43,17.11,17.11,0,0,1,11.89-4.41h24.89c9.76,0,16.58,6.42,16.58,15.61A15.63,15.63,0,0,1,234,50.66a15.72,15.72,0,0,1,2,7.9c0,6.71-3,10.57-5.51,12.63-3,2.48-7,3.73-11.95,3.73h-6.31l-.42,5.25a18.1,18.1,0,0,1-5.53,11.65A17.53,17.53,0,0,1,194,96.56Z" transform="translate(0.05 0)"/><path class="bba0f2ec-a51e-4d9d-ab39-6f696c084a15" d="M237.57,96.7a25.22,25.22,0,0,1-11.06-2.45,21.67,21.67,0,0,1-8.78-7.52,20.06,20.06,0,0,1-3.46-11.41,20.87,20.87,0,0,1,3.95-12.81,14.85,14.85,0,0,1-1.44-6.39,15.44,15.44,0,0,1,2.29-8.07,16.52,16.52,0,0,1,6.41-6,38,38,0,0,1,18.59-4.32c8.14,0,14.66,2.11,19.38,6.27,3.5,3.09,7.68,8.88,7.68,18.87,0,1.33,0,2.41-.11,3.31l-1.18,14.61a16.72,16.72,0,0,1-5.49,11.5,18,18,0,0,1-18.51,2.94A22.51,22.51,0,0,1,237.57,96.7Z" transform="translate(0.05 0)"/><path class="bba0f2ec-a51e-4d9d-ab39-6f696c084a15" d="M294.57,96.56a16.89,16.89,0,0,1-12-4.53l-.3.26a17.61,17.61,0,0,1-11.87,4.27,16.73,16.73,0,0,1-12.23-4.74,16.15,16.15,0,0,1-4.56-12.48l0-.29,2.06-25.38A16.51,16.51,0,0,1,261.65,42a18.18,18.18,0,0,1,11.81-4.11,17.25,17.25,0,0,1,7.42,1.58,27.66,27.66,0,0,1,9.78-1.73c8.9,0,14.17,3.77,17,6.93,3.87,4.28,5.84,10.06,5.84,17.18,0,1.37,0,2.47-.11,3.37l-1.27,15.71V81a17.14,17.14,0,0,1-5.68,11.28A17.63,17.63,0,0,1,294.57,96.56Z" transform="translate(0.05 0)"/><path class="bba0f2ec-a51e-4d9d-ab39-6f696c084a15" d="M313.7,96.56a16.33,16.33,0,0,1-16.86-15.79,15.28,15.28,0,0,1,.1-2.44l3.11-39.62a17.37,17.37,0,0,1,5.46-11.45,17.1,17.1,0,0,1,11.88-4.4h24.89c9.76,0,16.58,6.42,16.58,15.61a15.63,15.63,0,0,1-5.19,12.19,15.72,15.72,0,0,1,2,7.9c0,6.71-3,10.58-5.51,12.63-3,2.47-7,3.73-11.95,3.73h-6.31l-.42,5.25A18.1,18.1,0,0,1,326,91.82,17.53,17.53,0,0,1,313.7,96.56Z" transform="translate(0.05 0)"/><path class="bba0f2ec-a51e-4d9d-ab39-6f696c084a15" d="M357.27,96.7a25.15,25.15,0,0,1-11-2.45,21.64,21.64,0,0,1-8.79-7.52A20.06,20.06,0,0,1,334,75.32a20.87,20.87,0,0,1,3.95-12.81,14.85,14.85,0,0,1-1.44-6.39,15.65,15.65,0,0,1,2.28-8.07,16.61,16.61,0,0,1,6.42-6,38,38,0,0,1,18.59-4.32c8.14,0,14.66,2.11,19.38,6.27,3.5,3.09,7.68,8.88,7.68,18.87,0,1.32,0,2.4-.11,3.3l-1.18,14.62a16.75,16.75,0,0,1-5.49,11.51,18,18,0,0,1-18.51,2.93A22.47,22.47,0,0,1,357.27,96.7Z" transform="translate(0.05 0)"/><path class="bba0f2ec-a51e-4d9d-ab39-6f696c084a15" d="M403.2,96.7a34.38,34.38,0,0,1-15.1-3.23,26.76,26.76,0,0,1-11.39-10.2,28.05,28.05,0,0,1-4-15,32,32,0,0,1,3.91-15.86,27.44,27.44,0,0,1,11.78-11.22,35.24,35.24,0,0,1,16-3.53,41,41,0,0,1,8.84.91A30.21,30.21,0,0,1,421,41.39l.19.11a14.9,14.9,0,0,1,6.05,6.33,16.19,16.19,0,0,1,1.72,7.26,16.81,16.81,0,0,1-3.15,9.85,14.71,14.71,0,0,1-2.64,2.82A16.56,16.56,0,0,1,424.24,69a15.43,15.43,0,0,1,3.07,9.4,17.21,17.21,0,0,1-1.77,7.62,15.76,15.76,0,0,1-6.32,6.79l-.28.16a30.61,30.61,0,0,1-7.46,2.72A35.51,35.51,0,0,1,403.2,96.7Z" transform="translate(0.05 0)"/><path class="bba0f2ec-a51e-4d9d-ab39-6f696c084a15" d="M440.12,96.7c-7.32,0-13.28-2.08-17.7-6.19-3.19-3-7-8.42-7-17.55,0-1.3,0-2.31.11-3.15l.23-2.74A14.92,14.92,0,0,1,414.15,66a14.6,14.6,0,0,1-5.45-11.67,15,15,0,0,1,9.63-14.43,16.32,16.32,0,0,1,5.2-8.07,18,18,0,0,1,11.79-4.12,16.59,16.59,0,0,1,12.14,4.72,15.28,15.28,0,0,1,4.09,7.37,14.87,14.87,0,0,1,4.19,2.42,14.62,14.62,0,0,1,5.32,11.52,15.31,15.31,0,0,1-5.35,12.07,14.61,14.61,0,0,1-2.83,1.84,13.26,13.26,0,0,1,4.05,3.66,15.35,15.35,0,0,1,2.87,9.16c0,5.77-2.57,10.67-7.05,13.44C449.61,95.8,445.6,96.7,440.12,96.7Z" transform="translate(0.05 0)"/><path class="bba0f2ec-a51e-4d9d-ab39-6f696c084a15" d="M468.85,96.7a34.16,34.16,0,0,1-15.24-3.3A26.6,26.6,0,0,1,442.24,83a28.68,28.68,0,0,1-3.93-14.9,31.87,31.87,0,0,1,3.87-15.79,27.32,27.32,0,0,1,11.4-11,33.17,33.17,0,0,1,15.49-3.56A34.11,34.11,0,0,1,484.3,41a26.77,26.77,0,0,1,11.36,10.34,28.56,28.56,0,0,1,3.95,14.9,32,32,0,0,1-3.87,15.86,27.35,27.35,0,0,1-11.41,11A33,33,0,0,1,468.85,96.7Z" transform="translate(0.05 0)"/><path class="bba0f2ec-a51e-4d9d-ab39-6f696c084a15" d="M497.65,96.56a17.4,17.4,0,0,1-11.52-4.11,15.56,15.56,0,0,1-5.26-13.34L483,53.35a16.72,16.72,0,0,1,6.44-11.78,18.08,18.08,0,0,1,11.12-3.72,16.8,16.8,0,0,1,7.83,1.81A23.58,23.58,0,0,1,515.71,38l.88-.08h.11c.39,0,.76,0,1.12,0a14.67,14.67,0,0,1,15,14.28,14.25,14.25,0,0,1-.17,2.61,16.62,16.62,0,0,1-5.22,11c-2.72,2.45-6.37,3.88-11.14,4.36l-.32,0-.87,10.6A16.62,16.62,0,0,1,509,92.71,18.1,18.1,0,0,1,497.65,96.56Z" transform="translate(0.05 0)"/><path class="bba0f2ec-a51e-4d9d-ab39-6f696c084a15" d="M535.16,109.92a15.89,15.89,0,0,1-15.92-15.84,17.25,17.25,0,0,1,1.87-7.78l1.81-3.62-8.21-23a14,14,0,0,1-1-5.36,15.91,15.91,0,0,1,6.1-12.45,18.17,18.17,0,0,1,11.58-4.2,15.86,15.86,0,0,1,9.07,2.81,15.19,15.19,0,0,1,3.11,2.88,16.16,16.16,0,0,1,3.62-3.08A16.56,16.56,0,0,1,556,37.77a17.08,17.08,0,0,1,10.93,3.91,15.23,15.23,0,0,1,5.73,11.93,16.1,16.1,0,0,1-1.79,7.26L550,100.66a17.74,17.74,0,0,1-6.1,6.74A16.29,16.29,0,0,1,535.16,109.92Z" transform="translate(0.05 0)"/><path class="fe7b184c-08e8-4d83-9112-0e1b16082c6d" d="M51.26,91.1A16.54,16.54,0,0,1,38.8,85.94a16.27,16.27,0,0,1-4.31-11.27v0a18.18,18.18,0,0,1-5.42,11.58,17.38,17.38,0,0,1-12.3,4.81A16.23,16.23,0,0,1,.08,72.88L3.2,33.35A18,18,0,0,1,8.69,21.72,17.45,17.45,0,0,1,20.91,17a16.45,16.45,0,0,1,12.56,5.23,16.27,16.27,0,0,1,4.21,11.12v0a18,18,0,0,1,5.5-11.63A17.44,17.44,0,0,1,55.39,17a16.17,16.17,0,0,1,16.8,15.52,15.4,15.4,0,0,1-.11,2.63L69,74.71A18.18,18.18,0,0,1,63.55,86.3,17.37,17.37,0,0,1,51.26,91.1Z" transform="translate(0.05 0)"/><path class="fe7b184c-08e8-4d83-9112-0e1b16082c6d" d="M74.15,91.25A25.29,25.29,0,0,1,63.1,88.8a21.79,21.79,0,0,1-8.79-7.52,20.18,20.18,0,0,1-3.46-11.41A20.91,20.91,0,0,1,54.8,57.06a14.88,14.88,0,0,1-1.44-6.39,15.57,15.57,0,0,1,2.29-8.08,16.59,16.59,0,0,1,6.41-6,38.16,38.16,0,0,1,18.59-4.32c8.15,0,14.67,2.11,19.38,6.27,3.51,3.1,7.68,8.88,7.68,18.88,0,1.32,0,2.4-.11,3.3L106.42,75.3a16.78,16.78,0,0,1-5.48,11.51,18,18,0,0,1-18.52,2.94A22.68,22.68,0,0,1,74.15,91.25Z" transform="translate(0.05 0)"/><path class="fe7b184c-08e8-4d83-9112-0e1b16082c6d" d="M131.16,91.1a16.9,16.9,0,0,1-12-4.53l-.29.26A17.55,17.55,0,0,1,107,91.1a16.74,16.74,0,0,1-12.22-4.73,16.14,16.14,0,0,1-4.57-12.48l0-.3L92.3,48.22a16.48,16.48,0,0,1,5.93-11.71A18.15,18.15,0,0,1,110,32.39,17.33,17.33,0,0,1,117.47,34a27.6,27.6,0,0,1,9.77-1.73c8.9,0,14.17,3.77,17,6.93,3.87,4.29,5.83,10.07,5.83,17.18,0,1.37,0,2.47-.11,3.37l-1.26,15.71,0,.13A17,17,0,0,1,143,86.83,17.51,17.51,0,0,1,131.16,91.1Z" transform="translate(0.05 0)"/><path class="fe7b184c-08e8-4d83-9112-0e1b16082c6d" d="M157.89,91.25a25.88,25.88,0,0,1-13.54-3.62,24.74,24.74,0,0,1-9.49-10.37,31.11,31.11,0,0,1-3.08-14A34.87,34.87,0,0,1,135,48.11,27.8,27.8,0,0,1,145,36.56a26.69,26.69,0,0,1,14.92-4.32l1.12,0a16.29,16.29,0,0,1,5.75-11.15A17.7,17.7,0,0,1,178.34,17a17,17,0,0,1,12.1,4.6,15.92,15.92,0,0,1,4.84,12.56l0,.24-3.17,40.84a16.94,16.94,0,0,1-5.54,11.44,18.37,18.37,0,0,1-19.28,2.85A26,26,0,0,1,157.89,91.25Z" transform="translate(0.05 0)"/><path class="fe7b184c-08e8-4d83-9112-0e1b16082c6d" d="M194,91.1a16.32,16.32,0,0,1-16.86-15.79,15.28,15.28,0,0,1,.1-2.44l3.11-39.62A16.86,16.86,0,0,1,197.69,17.4h24.89c9.76,0,16.58,6.42,16.58,15.62A15.62,15.62,0,0,1,234,45.2a15.72,15.72,0,0,1,2,7.9c0,6.71-3,10.58-5.51,12.63-3,2.48-7,3.73-11.95,3.73h-6.31l-.42,5.25a18.1,18.1,0,0,1-5.53,11.65A17.53,17.53,0,0,1,194,91.1Z" transform="translate(0.05 0)"/><path class="fe7b184c-08e8-4d83-9112-0e1b16082c6d" d="M237.57,91.25a25.36,25.36,0,0,1-11.06-2.45,21.82,21.82,0,0,1-8.78-7.52,20.11,20.11,0,0,1-3.46-11.41,20.85,20.85,0,0,1,3.95-12.81,14.88,14.88,0,0,1-1.44-6.39,15.48,15.48,0,0,1,2.29-8.08,16.59,16.59,0,0,1,6.41-6,38.13,38.13,0,0,1,18.59-4.32c8.14,0,14.66,2.11,19.38,6.27,3.5,3.1,7.68,8.88,7.68,18.88,0,1.32,0,2.4-.11,3.3L269.84,75.3a16.75,16.75,0,0,1-5.49,11.51,18,18,0,0,1-18.51,2.94A22.72,22.72,0,0,1,237.57,91.25Z" transform="translate(0.05 0)"/><path class="fe7b184c-08e8-4d83-9112-0e1b16082c6d" d="M294.57,91.1a16.89,16.89,0,0,1-12-4.53l-.3.26a17.51,17.51,0,0,1-11.87,4.27,16.73,16.73,0,0,1-12.23-4.74,16.14,16.14,0,0,1-4.56-12.48l0-.29,2.06-25.37a16.48,16.48,0,0,1,5.93-11.71,18.14,18.14,0,0,1,11.81-4.12A17.25,17.25,0,0,1,280.88,34a27.66,27.66,0,0,1,9.78-1.73c8.9,0,14.17,3.77,17,6.93,3.87,4.28,5.84,10.07,5.84,17.18,0,1.37,0,2.47-.11,3.37l-1.27,15.71v.13a17.11,17.11,0,0,1-5.68,11.27A17.53,17.53,0,0,1,294.57,91.1Z" transform="translate(0.05 0)"/><path class="fe7b184c-08e8-4d83-9112-0e1b16082c6d" d="M313.7,91.1a16.32,16.32,0,0,1-16.86-15.79,15.33,15.33,0,0,1,.1-2.44l3.11-39.62a17.33,17.33,0,0,1,5.46-11.44,17.11,17.11,0,0,1,11.88-4.41h24.89c9.76,0,16.58,6.42,16.58,15.62a15.62,15.62,0,0,1-5.19,12.18,15.72,15.72,0,0,1,2,7.9c0,6.72-3,10.58-5.51,12.64-3,2.47-7,3.72-11.95,3.72h-6.31l-.42,5.25A18.1,18.1,0,0,1,326,86.36,17.53,17.53,0,0,1,313.7,91.1Z" transform="translate(0.05 0)"/><path class="fe7b184c-08e8-4d83-9112-0e1b16082c6d" d="M357.27,91.25a25.29,25.29,0,0,1-11-2.45,21.79,21.79,0,0,1-8.79-7.52A20.11,20.11,0,0,1,334,69.87a20.85,20.85,0,0,1,3.95-12.81,14.88,14.88,0,0,1-1.44-6.39,15.62,15.62,0,0,1,2.28-8.07,16.64,16.64,0,0,1,6.42-6,38.16,38.16,0,0,1,18.59-4.32c8.14,0,14.66,2.11,19.38,6.27,3.5,3.1,7.68,8.88,7.68,18.88,0,1.32,0,2.39-.11,3.29L389.54,75.3a16.73,16.73,0,0,1-5.49,11.51,18,18,0,0,1-18.51,2.94A22.68,22.68,0,0,1,357.27,91.25Z" transform="translate(0.05 0)"/><path class="fe7b184c-08e8-4d83-9112-0e1b16082c6d" d="M403.2,91.25A34.39,34.39,0,0,1,388.1,88a26.7,26.7,0,0,1-11.39-10.2,28.05,28.05,0,0,1-4-15A32,32,0,0,1,376.57,47a27.38,27.38,0,0,1,11.78-11.22,35.12,35.12,0,0,1,16-3.54,41.65,41.65,0,0,1,8.84.91A30.21,30.21,0,0,1,421,35.93l.19.11a14.9,14.9,0,0,1,6.05,6.33,16.19,16.19,0,0,1,1.72,7.26,16.82,16.82,0,0,1-3.15,9.86,14.65,14.65,0,0,1-2.64,2.81,16.72,16.72,0,0,1,1.09,1.28A15.38,15.38,0,0,1,427.31,73a17.29,17.29,0,0,1-1.77,7.63,15.79,15.79,0,0,1-6.32,6.78l-.28.16a30.61,30.61,0,0,1-7.46,2.72A36.06,36.06,0,0,1,403.2,91.25Z" transform="translate(0.05 0)"/><path class="fe7b184c-08e8-4d83-9112-0e1b16082c6d" d="M440.12,91.25c-7.32,0-13.28-2.09-17.7-6.2-3.19-3-7-8.41-7-17.55,0-1.3,0-2.31.11-3.15l.23-2.73a15,15,0,0,1-1.61-1.13,14.58,14.58,0,0,1-5.45-11.67,15,15,0,0,1,9.63-14.43,16.25,16.25,0,0,1,5.2-8.06,17.93,17.93,0,0,1,11.79-4.13,16.63,16.63,0,0,1,12.14,4.72,15.33,15.33,0,0,1,4.09,7.37,15.11,15.11,0,0,1,4.19,2.42,14.64,14.64,0,0,1,5.32,11.52,15.31,15.31,0,0,1-5.35,12.07,14.61,14.61,0,0,1-2.83,1.84,13.38,13.38,0,0,1,4.05,3.66A15.35,15.35,0,0,1,459.8,75c0,5.77-2.57,10.68-7.05,13.45C449.61,90.34,445.6,91.25,440.12,91.25Z" transform="translate(0.05 0)"/><path class="fe7b184c-08e8-4d83-9112-0e1b16082c6d" d="M468.85,91.25a34.3,34.3,0,0,1-15.24-3.31,26.6,26.6,0,0,1-11.37-10.41,28.66,28.66,0,0,1-3.93-14.9,31.87,31.87,0,0,1,3.87-15.79,27.44,27.44,0,0,1,11.4-11,33.29,33.29,0,0,1,15.49-3.56,34.39,34.39,0,0,1,15.23,3.3,26.83,26.83,0,0,1,11.36,10.34,28.58,28.58,0,0,1,3.95,14.9,32,32,0,0,1-3.87,15.86,27.43,27.43,0,0,1-11.41,11A33.25,33.25,0,0,1,468.85,91.25Z" transform="translate(0.05 0)"/><path class="fe7b184c-08e8-4d83-9112-0e1b16082c6d" d="M497.65,91.1A17.44,17.44,0,0,1,486.13,87a15.58,15.58,0,0,1-5.26-13.34L483,47.89a16.74,16.74,0,0,1,6.44-11.78,18.2,18.2,0,0,1,11.12-3.72,16.81,16.81,0,0,1,7.83,1.82,23.32,23.32,0,0,1,7.35-1.72l.88-.07h.11c.39,0,.76,0,1.12,0a14.68,14.68,0,0,1,15,14.29,14.15,14.15,0,0,1-.17,2.6,16.58,16.58,0,0,1-5.22,11.05c-2.72,2.46-6.37,3.88-11.14,4.37l-.32,0-.87,10.6A16.6,16.6,0,0,1,509,87.25,18,18,0,0,1,497.65,91.1Z" transform="translate(0.05 0)"/><path class="fe7b184c-08e8-4d83-9112-0e1b16082c6d" d="M535.16,104.46a15.89,15.89,0,0,1-15.92-15.84,17.29,17.29,0,0,1,1.87-7.78l1.81-3.62-8.21-23a14.09,14.09,0,0,1-1-5.36,15.91,15.91,0,0,1,6.1-12.46,18.22,18.22,0,0,1,11.58-4.2,15.86,15.86,0,0,1,9.07,2.81,15.47,15.47,0,0,1,3.11,2.88A16.53,16.53,0,0,1,556,32.32a17,17,0,0,1,10.93,3.91,15.2,15.2,0,0,1,5.73,11.93,16.06,16.06,0,0,1-1.79,7.25L550,95.2a17.74,17.74,0,0,1-6.1,6.74A16.2,16.2,0,0,1,535.16,104.46Z" transform="translate(0.05 0)"/><path class="b8912c62-718e-4ee6-b683-1d9b084a6cb8" d="M51.26,85.64A16.5,16.5,0,0,1,38.8,80.48a16.26,16.26,0,0,1-4.31-11.27v.05a18.21,18.21,0,0,1-5.42,11.58,17.41,17.41,0,0,1-12.3,4.8A16.23,16.23,0,0,1,.08,67.42L3.2,27.89A17.93,17.93,0,0,1,8.69,16.27a17.46,17.46,0,0,1,12.22-4.7,16.43,16.43,0,0,1,12.56,5.24,16.24,16.24,0,0,1,4.21,11.12v0a18,18,0,0,1,5.5-11.62,17.45,17.45,0,0,1,12.21-4.7,16.17,16.17,0,0,1,16.8,15.52,15.56,15.56,0,0,1-.11,2.64L69,69.26a18.16,18.16,0,0,1-5.42,11.58A17.33,17.33,0,0,1,51.26,85.64Z" transform="translate(0.05 0)"/><path class="b8912c62-718e-4ee6-b683-1d9b084a6cb8" d="M74.15,85.79A25.29,25.29,0,0,1,63.1,83.34a21.79,21.79,0,0,1-8.79-7.52,20.16,20.16,0,0,1-3.46-11.41A20.91,20.91,0,0,1,54.8,51.6a14.88,14.88,0,0,1-1.44-6.39,15.54,15.54,0,0,1,2.29-8.07,16.52,16.52,0,0,1,6.41-6,38.05,38.05,0,0,1,18.59-4.33c8.15,0,14.67,2.11,19.38,6.27,3.51,3.1,7.68,8.89,7.68,18.88,0,1.33,0,2.41-.11,3.31l-1.18,14.6a16.76,16.76,0,0,1-5.48,11.51,18,18,0,0,1-18.52,2.94A22.68,22.68,0,0,1,74.15,85.79Z" transform="translate(0.05 0)"/><path class="b8912c62-718e-4ee6-b683-1d9b084a6cb8" d="M131.16,85.64a16.85,16.85,0,0,1-12-4.53l-.29.26A17.55,17.55,0,0,1,107,85.64a16.66,16.66,0,0,1-12.22-4.73,16.12,16.12,0,0,1-4.57-12.48l0-.3L92.3,42.76a16.48,16.48,0,0,1,5.93-11.71A18.15,18.15,0,0,1,110,26.93a17.33,17.33,0,0,1,7.43,1.58,27.83,27.83,0,0,1,9.77-1.73c8.9,0,14.17,3.77,17,6.93,3.87,4.29,5.83,10.07,5.83,17.19,0,1.36,0,2.46-.11,3.36L148.73,70l0,.13A17,17,0,0,1,143,81.37,17.51,17.51,0,0,1,131.16,85.64Z" transform="translate(0.05 0)"/><path class="b8912c62-718e-4ee6-b683-1d9b084a6cb8" d="M157.89,85.79a25.88,25.88,0,0,1-13.54-3.62,24.66,24.66,0,0,1-9.49-10.36,31.18,31.18,0,0,1-3.08-14.05A34.9,34.9,0,0,1,135,42.65,27.8,27.8,0,0,1,145,31.1a26.85,26.85,0,0,1,14.92-4.32c.38,0,.75,0,1.12,0a16.25,16.25,0,0,1,5.75-11.15,17.71,17.71,0,0,1,11.59-4.09,17,17,0,0,1,12.1,4.61,15.91,15.91,0,0,1,4.84,12.55l0,.24-3.17,40.84a16.94,16.94,0,0,1-5.54,11.44,18.39,18.39,0,0,1-19.28,2.86A26.15,26.15,0,0,1,157.89,85.79Z" transform="translate(0.05 0)"/><path class="b8912c62-718e-4ee6-b683-1d9b084a6cb8" d="M194,85.64a16.32,16.32,0,0,1-16.86-15.79,15.33,15.33,0,0,1,.1-2.44l3.11-39.62a17.38,17.38,0,0,1,5.45-11.44,17.2,17.2,0,0,1,11.89-4.41h24.89c9.76,0,16.58,6.43,16.58,15.62A15.64,15.64,0,0,1,234,39.75a15.7,15.7,0,0,1,2,7.9c0,6.71-3,10.57-5.51,12.63-3,2.47-7,3.72-11.95,3.72h-6.31l-.42,5.26a18.07,18.07,0,0,1-5.53,11.64A17.49,17.49,0,0,1,194,85.64Z" transform="translate(0.05 0)"/><path class="b8912c62-718e-4ee6-b683-1d9b084a6cb8" d="M237.57,85.79a25.36,25.36,0,0,1-11.06-2.45,21.82,21.82,0,0,1-8.78-7.52,20.08,20.08,0,0,1-3.46-11.41,20.85,20.85,0,0,1,3.95-12.81,14.88,14.88,0,0,1-1.44-6.39,15.44,15.44,0,0,1,2.29-8.07,16.44,16.44,0,0,1,6.41-6,38,38,0,0,1,18.59-4.33c8.14,0,14.66,2.11,19.38,6.28,3.5,3.09,7.68,8.88,7.68,18.87,0,1.33,0,2.41-.11,3.31l-1.18,14.6a16.73,16.73,0,0,1-5.49,11.51,18,18,0,0,1-18.51,2.94A22.72,22.72,0,0,1,237.57,85.79Z" transform="translate(0.05 0)"/><path class="b8912c62-718e-4ee6-b683-1d9b084a6cb8" d="M294.57,85.64a16.85,16.85,0,0,1-12-4.53l-.3.26a17.51,17.51,0,0,1-11.87,4.27,16.68,16.68,0,0,1-12.23-4.73,16.16,16.16,0,0,1-4.56-12.48l0-.3,2.06-25.37a16.48,16.48,0,0,1,5.93-11.71,18.14,18.14,0,0,1,11.81-4.12,17.25,17.25,0,0,1,7.42,1.58,27.88,27.88,0,0,1,9.78-1.73c8.9,0,14.17,3.77,17,6.93,3.87,4.29,5.84,10.07,5.84,17.19,0,1.36,0,2.46-.11,3.36L312.14,70v.13a17.14,17.14,0,0,1-5.68,11.28A17.57,17.57,0,0,1,294.57,85.64Z" transform="translate(0.05 0)"/><path class="b8912c62-718e-4ee6-b683-1d9b084a6cb8" d="M313.7,85.64a16.32,16.32,0,0,1-16.86-15.79,15.33,15.33,0,0,1,.1-2.44l3.11-39.62a17.35,17.35,0,0,1,5.46-11.44,17.16,17.16,0,0,1,11.88-4.41h24.89c9.76,0,16.58,6.43,16.58,15.62a15.64,15.64,0,0,1-5.19,12.19,15.7,15.7,0,0,1,2,7.9c0,6.71-3,10.57-5.51,12.63-3,2.47-7,3.72-11.95,3.72h-6.31l-.42,5.26A18.07,18.07,0,0,1,326,80.9,17.49,17.49,0,0,1,313.7,85.64Z" transform="translate(0.05 0)"/><path class="b8912c62-718e-4ee6-b683-1d9b084a6cb8" d="M357.27,85.79a25.29,25.29,0,0,1-11-2.45,21.79,21.79,0,0,1-8.79-7.52A20.08,20.08,0,0,1,334,64.41a20.85,20.85,0,0,1,3.95-12.81,14.88,14.88,0,0,1-1.44-6.39,15.62,15.62,0,0,1,2.28-8.07,16.71,16.71,0,0,1,6.42-6,38.16,38.16,0,0,1,18.59-4.32c8.14,0,14.66,2.11,19.38,6.27,3.5,3.1,7.68,8.89,7.68,18.88,0,1.32,0,2.39-.11,3.29l-1.18,14.62a16.73,16.73,0,0,1-5.49,11.51,18,18,0,0,1-18.51,2.94A22.68,22.68,0,0,1,357.27,85.79Z" transform="translate(0.05 0)"/><path class="b8912c62-718e-4ee6-b683-1d9b084a6cb8" d="M403.2,85.79a34.39,34.39,0,0,1-15.1-3.24,26.74,26.74,0,0,1-11.39-10.19,28.09,28.09,0,0,1-4-15,32,32,0,0,1,3.91-15.85,27.38,27.38,0,0,1,11.78-11.22,35.12,35.12,0,0,1,16-3.54,41.66,41.66,0,0,1,8.84.92A29.84,29.84,0,0,1,421,30.48l.19.1a15,15,0,0,1,6.05,6.33,16.23,16.23,0,0,1,1.72,7.27A16.81,16.81,0,0,1,425.79,54a14.71,14.71,0,0,1-2.64,2.82,14.85,14.85,0,0,1,1.09,1.27,15.42,15.42,0,0,1,3.07,9.39,17.22,17.22,0,0,1-1.77,7.63,15.74,15.74,0,0,1-6.32,6.78l-.28.16a30.2,30.2,0,0,1-7.46,2.72A36.06,36.06,0,0,1,403.2,85.79Z" transform="translate(0.05 0)"/><path class="b8912c62-718e-4ee6-b683-1d9b084a6cb8" d="M440.12,85.79c-7.32,0-13.28-2.09-17.7-6.2-3.19-3-7-8.41-7-17.54,0-1.31,0-2.31.11-3.15l.23-2.74A16.49,16.49,0,0,1,414.15,55a14.61,14.61,0,0,1-5.45-11.68,15,15,0,0,1,9.63-14.42,16.32,16.32,0,0,1,5.2-8.07,18,18,0,0,1,11.79-4.13,16.63,16.63,0,0,1,12.14,4.73,15.25,15.25,0,0,1,4.09,7.36,15.37,15.37,0,0,1,4.19,2.42,14.64,14.64,0,0,1,5.32,11.52,15.28,15.28,0,0,1-5.35,12.07,14.61,14.61,0,0,1-2.83,1.84,13.51,13.51,0,0,1,4.05,3.66,15.36,15.36,0,0,1,2.87,9.17c0,5.77-2.57,10.67-7.05,13.44C449.61,84.89,445.6,85.79,440.12,85.79Z" transform="translate(0.05 0)"/><path class="b8912c62-718e-4ee6-b683-1d9b084a6cb8" d="M468.85,85.79a34.43,34.43,0,0,1-15.24-3.3,26.72,26.72,0,0,1-11.37-10.41,28.69,28.69,0,0,1-3.93-14.91,31.87,31.87,0,0,1,3.87-15.79,27.36,27.36,0,0,1,11.4-11,33.18,33.18,0,0,1,15.49-3.57,34.26,34.26,0,0,1,15.23,3.31,26.75,26.75,0,0,1,11.36,10.33,28.59,28.59,0,0,1,3.95,14.91,32,32,0,0,1-3.87,15.86,27.41,27.41,0,0,1-11.41,11A33.25,33.25,0,0,1,468.85,85.79Z" transform="translate(0.05 0)"/><path class="b8912c62-718e-4ee6-b683-1d9b084a6cb8" d="M497.65,85.64a17.44,17.44,0,0,1-11.52-4.1,15.57,15.57,0,0,1-5.26-13.34L483,42.43a16.7,16.7,0,0,1,6.44-11.77,18.15,18.15,0,0,1,11.12-3.73,16.93,16.93,0,0,1,7.83,1.82A23.88,23.88,0,0,1,515.71,27l.88-.07h.11l1.12,0a14.67,14.67,0,0,1,15,14.28,14.31,14.31,0,0,1-.17,2.61,16.62,16.62,0,0,1-5.22,11c-2.72,2.45-6.37,3.87-11.14,4.36l-.32,0-.87,10.59a16.64,16.64,0,0,1-6.15,12A18.09,18.09,0,0,1,497.65,85.64Z" transform="translate(0.05 0)"/><path class="b8912c62-718e-4ee6-b683-1d9b084a6cb8" d="M535.16,99a15.9,15.9,0,0,1-15.92-15.84,17.22,17.22,0,0,1,1.87-7.78l1.81-3.62-8.21-23a14.09,14.09,0,0,1-1-5.36A15.88,15.88,0,0,1,519.81,31a18.18,18.18,0,0,1,11.58-4.21,15.8,15.8,0,0,1,9.07,2.82,15.42,15.42,0,0,1,3.11,2.87A16.62,16.62,0,0,1,556,26.86a17.08,17.08,0,0,1,10.93,3.91,15.23,15.23,0,0,1,5.73,11.93A16.06,16.06,0,0,1,570.85,50L550,89.75a17.79,17.79,0,0,1-6.1,6.73A16.3,16.3,0,0,1,535.16,99Z" transform="translate(0.05 0)"/><path class="a0a0b406-f890-4a0e-bc61-ba2a227e59f3" d="M60.16,24a6,6,0,0,1,1.36,4.84l-3.1,39.43a7.57,7.57,0,0,1-2.21,5,6.82,6.82,0,0,1-5,1.84,6.12,6.12,0,0,1-4.73-1.81,6,6,0,0,1-1.4-4.91l1.18-14.77H25.12l-1.18,14.7a7.63,7.63,0,0,1-2.22,5A6.81,6.81,0,0,1,16.77,75,6.1,6.1,0,0,1,12,73.23a6.1,6.1,0,0,1-1.37-4.91l3.11-39.43A7.45,7.45,0,0,1,16,24a7,7,0,0,1,4.95-1.81A6.17,6.17,0,0,1,25.67,24,6,6,0,0,1,27,28.82l-1.11,14H47.12l1.11-13.88A7.42,7.42,0,0,1,50.45,24a6.92,6.92,0,0,1,4.94-1.81A6.18,6.18,0,0,1,60.16,24Z" transform="translate(0.05 0)"/><path class="a0a0b406-f890-4a0e-bc61-ba2a227e59f3" d="M93,41q4.1,3.61,4.1,10.93c0,1,0,1.85-.08,2.44L95.86,69a6.39,6.39,0,0,1-2,4.47A6.71,6.71,0,0,1,89.21,75a5.78,5.78,0,0,1-4-1.36,5,5,0,0,1-1.7-3.58,9.29,9.29,0,0,1-3.77,3.76,11.55,11.55,0,0,1-5.61,1.33,14.72,14.72,0,0,1-6.46-1.4,11.19,11.19,0,0,1-4.58-3.88,9.62,9.62,0,0,1-1.66-5.5,10.4,10.4,0,0,1,2.07-6.76,12.16,12.16,0,0,1,6.57-3.73,49.06,49.06,0,0,1,12-1.18h2.66l.07-.51Q85.08,47,79,47a26.51,26.51,0,0,0-8.27,1.92,6.59,6.59,0,0,1-2.51.52,4,4,0,0,1-3-1.26A4.17,4.17,0,0,1,64,45.21a5,5,0,0,1,.78-2.62,6,6,0,0,1,2.4-2.18,27.65,27.65,0,0,1,13.51-3Q88.92,37.38,93,41ZM82.24,64.52a7.82,7.82,0,0,0,2-4.91l.08-.81h-2c-3,0-5.06.31-6.31.92a3.29,3.29,0,0,0-1.88,3.21,3.15,3.15,0,0,0,1.07,2.51,4,4,0,0,0,2.84,1A5.54,5.54,0,0,0,82.24,64.52Z" transform="translate(0.05 0)"/><path class="a0a0b406-f890-4a0e-bc61-ba2a227e59f3" d="M136.4,40.82q3.1,3.43,3.1,10.08c0,1.08,0,1.92-.07,2.51L138.17,69A6.55,6.55,0,0,1,136,73.42,7.06,7.06,0,0,1,131.16,75a6.43,6.43,0,0,1-4.73-1.66A5,5,0,0,1,125,69l1.25-15.14a7,7,0,0,0-1-4.76,4.38,4.38,0,0,0-3.81-1.66A5.5,5.5,0,0,0,117,49.31a8.53,8.53,0,0,0-1.81,5.06L114,69a6.29,6.29,0,0,1-2.07,4.43A7.06,7.06,0,0,1,107,75a6.37,6.37,0,0,1-4.73-1.62A5.53,5.53,0,0,1,100.81,69l2.07-25.48A5.78,5.78,0,0,1,105,39.19a7.55,7.55,0,0,1,5-1.66,5.94,5.94,0,0,1,4,1.26,4.66,4.66,0,0,1,1.62,3.39,13.32,13.32,0,0,1,4.95-3.5,16.8,16.8,0,0,1,6.64-1.3Q133.3,37.38,136.4,40.82Z" transform="translate(0.05 0)"/><path class="a0a0b406-f890-4a0e-bc61-ba2a227e59f3" d="M183.11,23.83a5.31,5.31,0,0,1,1.59,4.32L181.52,69a6.32,6.32,0,0,1-2.07,4.39,6.84,6.84,0,0,1-4.8,1.66,6.21,6.21,0,0,1-4.13-1.29,5.2,5.2,0,0,1-1.85-3.43,11.55,11.55,0,0,1-4.54,3.62,14.88,14.88,0,0,1-6.24,1.25,15.41,15.41,0,0,1-8.09-2.1,14.37,14.37,0,0,1-5.46-6,20.63,20.63,0,0,1-2-9.31A24.35,24.35,0,0,1,144.6,47.2,17.29,17.29,0,0,1,150.76,40a16.29,16.29,0,0,1,9.12-2.59A13,13,0,0,1,170.44,42l1.11-14.17a5.57,5.57,0,0,1,2-4.1,7.16,7.16,0,0,1,4.76-1.59A6.62,6.62,0,0,1,183.11,23.83Zm-15.4,39a11.61,11.61,0,0,0,1.92-6.94q0-4.37-1.77-6.61a6.08,6.08,0,0,0-5.1-2.25,6.4,6.4,0,0,0-5.39,2.65,11.64,11.64,0,0,0-2,7.17,9.85,9.85,0,0,0,1.84,6.39,6.42,6.42,0,0,0,5.25,2.25A6.15,6.15,0,0,0,167.71,62.86Z" transform="translate(0.05 0)"/><path class="a0a0b406-f890-4a0e-bc61-ba2a227e59f3" d="M204,33.17l-.74,9.6h16.32q5.83,0,5.83,4.88,0,3.09-1.62,4.43c-1.08.88-2.83,1.33-5.24,1.33h-16.1l-1.18,14.84a7.51,7.51,0,0,1-2.26,5A6.94,6.94,0,0,1,194,75a6.19,6.19,0,0,1-4.76-1.84,5.92,5.92,0,0,1-1.44-4.88l3.1-39.5A7,7,0,0,1,193,24.16a6.72,6.72,0,0,1,4.72-1.62h24.89q6,0,6,5a5.16,5.16,0,0,1-1.66,4.28q-1.67,1.33-5.21,1.33Z" transform="translate(0.05 0)"/><path class="a0a0b406-f890-4a0e-bc61-ba2a227e59f3" d="M256.43,41q4.11,3.61,4.1,10.93c0,1,0,1.85-.07,2.44L259.28,69a6.4,6.4,0,0,1-2,4.47A6.67,6.67,0,0,1,252.63,75a5.82,5.82,0,0,1-4-1.36A5,5,0,0,1,247,70.1a9.29,9.29,0,0,1-3.77,3.76,11.55,11.55,0,0,1-5.61,1.33,14.72,14.72,0,0,1-6.46-1.4,11.13,11.13,0,0,1-4.58-3.88,9.62,9.62,0,0,1-1.66-5.5,10.45,10.45,0,0,1,2.06-6.76,12.19,12.19,0,0,1,6.58-3.73,49.06,49.06,0,0,1,12-1.18h2.66l.07-.51c.2-3.5-1.75-5.25-5.83-5.25a26.45,26.45,0,0,0-8.27,1.92,6.59,6.59,0,0,1-2.51.52,3.94,3.94,0,0,1-3-1.26,4.12,4.12,0,0,1-1.18-2.95,5,5,0,0,1,.77-2.62,6.15,6.15,0,0,1,2.4-2.18,27.72,27.72,0,0,1,13.52-3Q252.34,37.38,256.43,41ZM245.65,64.52a7.83,7.83,0,0,0,2-4.91l.07-.81h-2c-2.95,0-5.06.31-6.31.92a3.28,3.28,0,0,0-1.89,3.21,3.22,3.22,0,0,0,1.07,2.51,4.07,4.07,0,0,0,2.85,1A5.51,5.51,0,0,0,245.65,64.52Z" transform="translate(0.05 0)"/><path class="a0a0b406-f890-4a0e-bc61-ba2a227e59f3" d="M299.82,40.82q3.1,3.43,3.1,10.08c0,1.08,0,1.92-.07,2.51L301.59,69a6.55,6.55,0,0,1-2.14,4.43A7.09,7.09,0,0,1,294.57,75a6.42,6.42,0,0,1-4.72-1.66,5,5,0,0,1-1.4-4.39l1.25-15.14a7,7,0,0,0-1-4.76,4.36,4.36,0,0,0-3.8-1.66,5.52,5.52,0,0,0-4.47,1.88,8.6,8.6,0,0,0-1.81,5.06L277.37,69a6.33,6.33,0,0,1-2.07,4.43A7.06,7.06,0,0,1,270.43,75a6.37,6.37,0,0,1-4.73-1.62A5.53,5.53,0,0,1,264.23,69l2.06-25.48a5.85,5.85,0,0,1,2.14-4.32,7.58,7.58,0,0,1,5-1.66,5.91,5.91,0,0,1,4,1.26,4.63,4.63,0,0,1,1.63,3.39,13.36,13.36,0,0,1,4.94-3.5,16.88,16.88,0,0,1,6.65-1.3Q296.72,37.38,299.82,40.82Z" transform="translate(0.05 0)"/><path class="a0a0b406-f890-4a0e-bc61-ba2a227e59f3" d="M323.67,33.17l-.74,9.6h16.32c3.89,0,5.83,1.63,5.84,4.88,0,2.06-.55,3.54-1.63,4.43s-2.83,1.33-5.24,1.33h-16.1l-1.18,14.84a7.55,7.55,0,0,1-2.25,5,7,7,0,0,1-5,1.84,6.19,6.19,0,0,1-4.76-1.84,5.92,5.92,0,0,1-1.44-4.88l3.1-39.5a7,7,0,0,1,2.07-4.66,6.74,6.74,0,0,1,4.72-1.62h24.89q6,0,6,5a5.15,5.15,0,0,1-1.66,4.28c-1.11.89-2.84,1.33-5.21,1.33Z" transform="translate(0.05 0)"/><path class="a0a0b406-f890-4a0e-bc61-ba2a227e59f3" d="M376.14,41q4.1,3.61,4.09,10.93c0,1,0,1.85-.07,2.44L379,69a6.43,6.43,0,0,1-2,4.47A6.71,6.71,0,0,1,372.33,75a5.82,5.82,0,0,1-4-1.36,5,5,0,0,1-1.69-3.58,9.29,9.29,0,0,1-3.77,3.76,11.55,11.55,0,0,1-5.61,1.33,14.72,14.72,0,0,1-6.46-1.4,11.34,11.34,0,0,1-4.58-3.88,9.62,9.62,0,0,1-1.66-5.5,10.45,10.45,0,0,1,2.06-6.76,12.23,12.23,0,0,1,6.58-3.73,49.06,49.06,0,0,1,12-1.18h2.66l.07-.51c.2-3.5-1.75-5.25-5.83-5.25a26.45,26.45,0,0,0-8.27,1.92,6.59,6.59,0,0,1-2.51.52,3.94,3.94,0,0,1-3-1.26,4.17,4.17,0,0,1-1.18-2.95,5,5,0,0,1,.77-2.62,6.15,6.15,0,0,1,2.4-2.18,27.72,27.72,0,0,1,13.52-3Q372,37.38,376.14,41ZM365.35,64.52a7.83,7.83,0,0,0,2-4.91l.08-.81h-2c-2.95,0-5.06.31-6.31.92a3.3,3.3,0,0,0-1.89,3.21,3.19,3.19,0,0,0,1.08,2.51,4,4,0,0,0,2.84,1A5.51,5.51,0,0,0,365.35,64.52Z" transform="translate(0.05 0)"/><path class="a0a0b406-f890-4a0e-bc61-ba2a227e59f3" d="M392.71,73a16.28,16.28,0,0,1-7-6.2,17.51,17.51,0,0,1-2.48-9.41,21.49,21.49,0,0,1,2.55-10.68,16.9,16.9,0,0,1,7.31-6.94,24.58,24.58,0,0,1,11.19-2.4,30.85,30.85,0,0,1,6.57.67,19.66,19.66,0,0,1,5.1,1.77,4.28,4.28,0,0,1,1.77,1.85,5.55,5.55,0,0,1,.59,2.51,6,6,0,0,1-1.15,3.65,3.46,3.46,0,0,1-2.91,1.59,4.54,4.54,0,0,1-2.07-.52,17.58,17.58,0,0,0-7.09-1.62A7.65,7.65,0,0,0,399,49.83c-1.45,1.69-2.18,4.12-2.17,7.27a8.8,8.8,0,0,0,1.91,6,6.87,6.87,0,0,0,5.4,2.18,16.27,16.27,0,0,0,3.47-.34A21.18,21.18,0,0,0,411,63.89a5.23,5.23,0,0,1,2.29-.59,3,3,0,0,1,2.55,1.22,4.8,4.8,0,0,1,.92,3,6.73,6.73,0,0,1-.7,3,5.08,5.08,0,0,1-2.1,2.25A20.15,20.15,0,0,1,409,74.49a24.93,24.93,0,0,1-5.83.7A23.73,23.73,0,0,1,392.71,73Z" transform="translate(0.05 0)"/><path class="a0a0b406-f890-4a0e-bc61-ba2a227e59f3" d="M448.39,66.63a4.73,4.73,0,0,1,.82,2.88q0,3.17-2,4.43t-7.05,1.25q-6.87,0-10.48-3.36T426,62.05c0-1,0-1.73.07-2.22l1-11.89h-2.14a6.46,6.46,0,0,1-4.14-1.18,4.09,4.09,0,0,1-1.47-3.4q0-5.09,6.42-5.09h2.14l.37-4.8A6.31,6.31,0,0,1,430.37,29a7.4,7.4,0,0,1,4.95-1.62A6.29,6.29,0,0,1,440,29a5.37,5.37,0,0,1,1.41,4.44L441,38.27h4a6.17,6.17,0,0,1,4,1.18,4,4,0,0,1,1.44,3.32A4.85,4.85,0,0,1,449,46.69a7.4,7.4,0,0,1-4.77,1.25h-4l-1,12a7.71,7.71,0,0,0-.08,1.18c0,3.1,1.36,4.65,4.06,4.65l1.48-.07a14.78,14.78,0,0,1,1.62-.15A2.46,2.46,0,0,1,448.39,66.63Z" transform="translate(0.05 0)"/><path class="a0a0b406-f890-4a0e-bc61-ba2a227e59f3" d="M458.29,73a16.13,16.13,0,0,1-6.94-6.32,18.14,18.14,0,0,1-2.44-9.49,21.22,21.22,0,0,1,2.51-10.59,16.82,16.82,0,0,1,7.05-6.83,22.66,22.66,0,0,1,10.6-2.37,23.76,23.76,0,0,1,10.56,2.22,16.21,16.21,0,0,1,6.94,6.28A18,18,0,0,1,489,55.33,21.55,21.55,0,0,1,486.5,66a16.9,16.9,0,0,1-7.06,6.83,22.58,22.58,0,0,1-10.59,2.36A23.59,23.59,0,0,1,458.29,73Zm16-10.42A14.73,14.73,0,0,0,476,55c0-2.71-.55-4.71-1.66-6a6.27,6.27,0,0,0-5.06-1.95A6.07,6.07,0,0,0,463.64,50a14.27,14.27,0,0,0-1.73,7.43c0,2.75.55,4.8,1.66,6.12a6.19,6.19,0,0,0,5.06,2A6,6,0,0,0,474.27,62.56Z" transform="translate(0.05 0)"/><path class="a0a0b406-f890-4a0e-bc61-ba2a227e59f3" d="M521.09,38.71a4.58,4.58,0,0,1,1.07,4A6.38,6.38,0,0,1,520.39,47c-1,.89-2.71,1.45-5.17,1.7l-2,.22q-4.14.52-5.69,2.11t-1.92,5.35l-1,12.63a6,6,0,0,1-2.18,4.5A7.38,7.38,0,0,1,497.65,75,6.81,6.81,0,0,1,493,73.49a5.07,5.07,0,0,1-1.59-4.5l2.07-25.48a6.05,6.05,0,0,1,2.33-4.43,7.48,7.48,0,0,1,4.69-1.55A5.69,5.69,0,0,1,504.62,39a5.15,5.15,0,0,1,1.44,4.1A15.62,15.62,0,0,1,511,39.19a14.08,14.08,0,0,1,5.5-1.59l.88-.07A4.67,4.67,0,0,1,521.09,38.71Z" transform="translate(0.05 0)"/><path class="a0a0b406-f890-4a0e-bc61-ba2a227e59f3" d="M552.81,38.38a5.77,5.77,0,0,1,3.17-.92A6.4,6.4,0,0,1,560.19,39,4.64,4.64,0,0,1,562,42.7a5.5,5.5,0,0,1-.67,2.51L540.62,84.72a7.22,7.22,0,0,1-2.43,2.8,5.64,5.64,0,0,1-3,.89,5.24,5.24,0,0,1-3.73-1.51,5,5,0,0,1-1.59-3.73,6.78,6.78,0,0,1,.74-3l3.84-7.68L524.6,45a3.76,3.76,0,0,1-.3-1.55,5.35,5.35,0,0,1,2.22-4.25,7.58,7.58,0,0,1,4.87-1.81,5.21,5.21,0,0,1,3,.93,5.49,5.49,0,0,1,2,2.77l5.69,17.57,8.35-17.5A6.41,6.41,0,0,1,552.81,38.38Z" transform="translate(0.05 0)"/><path class="bba0f2ec-a51e-4d9d-ab39-6f696c084a15" d="M600.4,131.46c-.52,0-1,0-1.55-.08a14.71,14.71,0,0,1-9.58-5,13.25,13.25,0,0,1-2.92-10.11,18.06,18.06,0,0,1,2.11-6.84l.06-.13c0-.41-.19-1.21-.32-1.87a31.83,31.83,0,0,1-.66-10.3,21.64,21.64,0,0,1,2.38-8h-.18c-2,.15-4,.31-6.09.31a39.63,39.63,0,0,1-4.22-.22C572.14,88.49,568.1,85,566,82.12a19.07,19.07,0,0,1-3.27-14c.32-2.46,4.59-34.83,5.52-41.9,1.3-9.88,7.54-15.37,19.07-16.79A63.17,63.17,0,0,1,595.1,9a159.45,159.45,0,0,1,16.63,1C628,11.78,652.5,14.39,650.84,35c-.57,7.07-3.16,39.28-3.38,42.09-.33,7.4-5.34,15.9-15.61,17.17a22.53,22.53,0,0,1-2.6.15,24.4,24.4,0,0,1-2.56-.14A53.38,53.38,0,0,1,616.63,92l-.18-.06a21.54,21.54,0,0,1,.66,8.3,32.08,32.08,0,0,1-2.8,9.92c-.25.59-.58,1.36-.71,1.77l0,.14a18.07,18.07,0,0,1,.62,7.13,13.27,13.27,0,0,1-11.93,12.11A15.47,15.47,0,0,1,600.4,131.46Z" transform="translate(0.05 0)"/><path class="bba0f2ec-a51e-4d9d-ab39-6f696c084a15" d="M611.25,14.59C601,13.5,593.31,13.29,587.88,14c-9.44,1.17-14.1,5.14-15.12,12.88l-5.53,42a14.62,14.62,0,0,0,2.42,10.61c1.56,2.1,4.61,4.72,10.26,5.32a50,50,0,0,0,9.48-.09c2-.16,4.08-.32,6.51-.34a15.11,15.11,0,0,1,.13,3.08,4.47,4.47,0,0,1-.95,2,17.47,17.47,0,0,0-3,8.23,28,28,0,0,0,.6,8.94,12.21,12.21,0,0,1,.39,3.4,3.73,3.73,0,0,1-.54,1.55,13.47,13.47,0,0,0-1.63,5.25,8.8,8.8,0,0,0,1.89,6.73,10.17,10.17,0,0,0,9,3.34,8.75,8.75,0,0,0,8-8.08,13.7,13.7,0,0,0-.49-5.47,3.58,3.58,0,0,1-.21-1.62,12.45,12.45,0,0,1,1.09-3.25,27.53,27.53,0,0,0,2.47-8.61,17.31,17.31,0,0,0-1.23-8.68,4.64,4.64,0,0,1-.51-2.16,15.2,15.2,0,0,1,.78-3c2.36.53,4.35,1.12,6.3,1.69a49.45,49.45,0,0,0,9.24,2.09,18.4,18.4,0,0,0,4.13,0c8.85-1.09,11.46-8.85,11.61-12.93.17-2.13,2.82-35,3.39-42.17C647.4,21,634.83,17.09,611.25,14.59Z" transform="translate(0.05 0)"/><path class="fe7b184c-08e8-4d83-9112-0e1b16082c6d" d="M599.84,127c-.51,0-1,0-1.54-.08a14.76,14.76,0,0,1-9.59-5,13.5,13.5,0,0,1-2.91-10.12,18.16,18.16,0,0,1,2.1-6.84l.06-.12c0-.42-.2-1.25-.32-1.88A32.36,32.36,0,0,1,587,92.62a21.41,21.41,0,0,1,2.39-8h-.19c-1.95.15-4,.3-6.09.3a39.62,39.62,0,0,1-4.22-.21c-7.29-.78-11.32-4.31-13.43-7.14a19.08,19.08,0,0,1-3.27-14l5.53-41.9c1.3-9.88,7.53-15.38,19.06-16.8a63.17,63.17,0,0,1,7.78-.42,159.3,159.3,0,0,1,16.63,1C627.41,7.27,652,9.87,650.28,30.49c-.57,7.06-3.15,39.27-3.38,42.08-.33,7.41-5.34,15.91-15.6,17.17a20.78,20.78,0,0,1-2.61.16,24.4,24.4,0,0,1-2.56-.14,54.78,54.78,0,0,1-10-2.24l-.2-.06a21.53,21.53,0,0,1,.67,8.3,32.29,32.29,0,0,1-2.81,9.92c-.26.62-.58,1.36-.71,1.77l0,.13a18.09,18.09,0,0,1,.62,7.13,13.3,13.3,0,0,1-11.94,12.12A15.35,15.35,0,0,1,599.84,127Z" transform="translate(0.05 0)"/><path class="fe7b184c-08e8-4d83-9112-0e1b16082c6d" d="M610.69,10.07C600.4,9,592.76,8.78,587.32,9.45c-9.43,1.16-14.09,5.13-15.11,12.87-.94,7.14-5.29,40.07-5.54,42A14.64,14.64,0,0,0,569.1,74.9c1.56,2.09,4.6,4.72,10.25,5.32a49.22,49.22,0,0,0,9.48-.1c2-.15,4.09-.31,6.51-.33a15,15,0,0,1,.14,3.07,4.58,4.58,0,0,1-1,2,17.31,17.31,0,0,0-3,8.23,27.44,27.44,0,0,0,.6,8.94,13,13,0,0,1,.39,3.4A3.75,3.75,0,0,1,592,107a13.64,13.64,0,0,0-1.63,5.24,8.83,8.83,0,0,0,1.9,6.74,10.07,10.07,0,0,0,6.57,3.37,10.89,10.89,0,0,0,2.42,0,8.77,8.77,0,0,0,8-8.08,13.49,13.49,0,0,0-.49-5.47,3.77,3.77,0,0,1-.21-1.63,12.4,12.4,0,0,1,1.1-3.24A27.86,27.86,0,0,0,612,95.28a17.47,17.47,0,0,0-1.22-8.69,4.46,4.46,0,0,1-.51-2.15,14.5,14.5,0,0,1,.77-3c2.37.53,4.36,1.11,6.3,1.69a48.82,48.82,0,0,0,9.24,2.08,17.83,17.83,0,0,0,4.13,0c8.86-1.09,11.46-8.84,11.62-12.92.17-2.14,2.81-35,3.39-42.17C646.85,16.51,634.27,12.58,610.69,10.07Z" transform="translate(0.05 0)"/><path class="b8912c62-718e-4ee6-b683-1d9b084a6cb8" d="M599.29,122.43a13.41,13.41,0,0,1-1.55-.08,14.7,14.7,0,0,1-9.58-5,13.46,13.46,0,0,1-2.92-10.12,18.1,18.1,0,0,1,2.1-6.84l.07-.13c0-.41-.2-1.2-.32-1.86a32.12,32.12,0,0,1-.67-10.3,21.52,21.52,0,0,1,2.39-8h-.16c-2,.16-4,.31-6.12.31a39.44,39.44,0,0,1-4.21-.22c-7.29-.77-11.33-4.3-13.43-7.13a19.09,19.09,0,0,1-3.28-14s4.64-35.14,5.53-41.9c1.3-9.89,7.54-15.38,19.07-16.8A63.12,63.12,0,0,1,594,0a159.3,159.3,0,0,1,16.63,1C626.85,2.76,651.39,5.36,649.73,26c-.4,4.89-3.39,42.08-3.39,42.08C646,75.46,641,84,630.74,85.23a20.5,20.5,0,0,1-2.6.15,24.25,24.25,0,0,1-2.56-.13A54,54,0,0,1,615.52,83l-.18,0a21.48,21.48,0,0,1,.66,8.29,32.15,32.15,0,0,1-2.81,9.93c-.26.62-.58,1.36-.7,1.77l0,.13a18.07,18.07,0,0,1,.62,7.13,13.29,13.29,0,0,1-11.93,12.12A17.65,17.65,0,0,1,599.29,122.43Z" transform="translate(0.05 0)"/><path class="b8912c62-718e-4ee6-b683-1d9b084a6cb8" d="M610.13,5.56c-10.29-1.09-17.93-1.29-23.37-.62-9.43,1.16-14.09,5.13-15.11,12.87-.94,7.13-5.28,40.06-5.53,42a14.6,14.6,0,0,0,2.42,10.6c1.56,2.1,4.61,4.73,10.26,5.33a49.94,49.94,0,0,0,9.47-.1c2-.16,4.09-.31,6.51-.34a14.43,14.43,0,0,1,.14,3.08,4.64,4.64,0,0,1-.95,2,17.4,17.4,0,0,0-3,8.24,27.64,27.64,0,0,0,.6,8.93,12.21,12.21,0,0,1,.39,3.4,3.57,3.57,0,0,1-.55,1.55,13.68,13.68,0,0,0-1.62,5.25,8.74,8.74,0,0,0,1.89,6.73,10.13,10.13,0,0,0,6.57,3.38,10.87,10.87,0,0,0,2.42,0,8.75,8.75,0,0,0,8-8.08,13.48,13.48,0,0,0-.48-5.47,3.63,3.63,0,0,1-.22-1.63,12.65,12.65,0,0,1,1.1-3.24,27.84,27.84,0,0,0,2.46-8.62,17.41,17.41,0,0,0-1.22-8.68,4.52,4.52,0,0,1-.51-2.16,14.07,14.07,0,0,1,.78-3c2.36.53,4.35,1.12,6.29,1.7a49.71,49.71,0,0,0,9.25,2.08,18.31,18.31,0,0,0,4.12,0c8.86-1.09,11.46-8.85,11.62-12.93.17-2.13,2.82-35,3.39-42.17C646.29,12,633.72,8.06,610.13,5.56Z" transform="translate(0.05 0)"/><path class="a0a0b406-f890-4a0e-bc61-ba2a227e59f3" d="M605.18,79.44a29.93,29.93,0,0,1,2.5-7.72c-1.37-.23-2.86-.44-4.5-.61s-3.13-.29-4.53-.35a30.05,30.05,0,0,1,.83,8.07c-.4,3.72-3.38,4.61-4,10.24s1.37,8.75,1,12.34c-.32,3-1.81,3.38-2.17,6.79-.5,4.67,4.38,5.07,4.38,5.07s4.85.64,5.35-4c.36-3.41-1-4.1-.7-7.09.38-3.6,3-6.23,3.56-11.86S604.79,83.15,605.18,79.44Z" transform="translate(0.05 0)"/><path class="ee5223bc-e52c-41bd-af53-fc28b94f76e1" d="M588.08,71.18a1.41,1.41,0,0,1-1.4-1.41,1.39,1.39,0,0,1,1.3-1.4l.66-.06c1.28-.09,2.6-.2,4.07-.26a1.41,1.41,0,1,1,.14,2.81h0c-1.43.07-2.73.17-4,.27l-.66.05Z" transform="translate(0.05 0)"/><path class="ee5223bc-e52c-41bd-af53-fc28b94f76e1" d="M628.51,76a1.41,1.41,0,0,1-.17-2.81A6.35,6.35,0,0,0,634,68.41a1.41,1.41,0,0,1,2.7.84A9.19,9.19,0,0,1,628.67,76Zm-5.69-.45a1.42,1.42,0,0,1-.29,0c-1.81-.38-3.53-.89-5.34-1.43-1.24-.36-2.52-.74-3.94-1.12a1.41,1.41,0,1,1,.71-2.72c1.47.38,2.77.77,4,1.14,1.76.52,3.42,1,5.11,1.36a1.41,1.41,0,0,1-.28,2.79ZM608,71.84a1,1,0,0,1-.24,0c-1.47-.25-3-.46-4.6-.63s-3.21-.29-4.72-.35a1.41,1.41,0,0,1,.11-2.82h0c1.58.07,3.23.19,4.91.37s3.25.39,4.78.65a1.41,1.41,0,0,1-.24,2.8Zm-30.2-1.15a1.62,1.62,0,0,1-.44-.07,9.19,9.19,0,0,1-6.57-8.21,1.41,1.41,0,1,1,2.8-.29h0a6.34,6.34,0,0,0,4.65,5.81,1.42,1.42,0,0,1-.44,2.76Zm58.28-6.16H636A1.42,1.42,0,0,1,634.68,63l.77-9.56a1.41,1.41,0,0,1,2.81.23l-.77,9.55a1.41,1.41,0,0,1-1.4,1.3ZM572.67,58h-.19a1.42,1.42,0,0,1-1.21-1.59l1.25-9.5a1.41,1.41,0,0,1,1.58-1.22,1.43,1.43,0,0,1,1.22,1.59h0l-1.26,9.5A1.41,1.41,0,0,1,572.67,58Zm64.65-8.71h-.12a1.41,1.41,0,0,1-1.29-1.52l.77-9.55a1.41,1.41,0,1,1,2.81.22h0L638.72,48a1.4,1.4,0,0,1-1.4,1.29Zm-62.65-6.5h-.19a1.41,1.41,0,0,1-1.21-1.58l1.25-9.5a1.41,1.41,0,1,1,2.8.37l-1.25,9.5A1.41,1.41,0,0,1,574.67,42.74ZM638.55,34h-.12a1.41,1.41,0,0,1-1.29-1.51h0l.53-6.56c0-.38.05-.76.05-1.12a9.64,9.64,0,0,0-.12-1.52,1.41,1.41,0,0,1,2.78-.48,12.17,12.17,0,0,1,.16,2q0,.66-.06,1.35L640,32.66a1.41,1.41,0,0,1-1.4,1.3Zm-61.87-6.42h-.19a1.41,1.41,0,0,1-1.21-1.59l.87-6.66a13.88,13.88,0,0,1,.75-3.1,1.41,1.41,0,1,1,2.63,1h0a10.79,10.79,0,0,0-.58,2.45l-.88,6.66a1.41,1.41,0,0,1-1.39,1.23ZM636,19.66a1.39,1.39,0,0,1-.87-.3c-1.73-1.36-4.41-2.51-8.19-3.51a1.41,1.41,0,1,1,.72-2.73h0c4.16,1.11,7.18,2.42,9.22,4a1.41,1.41,0,0,1-.88,2.51Zm-14.3-5-.26,0c-2.7-.5-5.85-1-9.36-1.37a1.41,1.41,0,0,1,.33-2.81c3.57.43,6.78.9,9.55,1.41a1.41,1.41,0,0,1,1.13,1.64A1.43,1.43,0,0,1,621.74,14.67ZM582,14a1.41,1.41,0,0,1-.64-2.67c2.31-1.17,5.54-1.85,9.86-2.06a1.41,1.41,0,1,1,.14,2.81h0c-3.92.2-6.77.77-8.73,1.76A1.37,1.37,0,0,1,582,14Zm24.57-1.34h-.14c-3.52-.33-6.7-.54-9.45-.62a1.41,1.41,0,0,1,0-2.82h.05c2.81.07,6,.28,9.63.62a1.41,1.41,0,0,1-.13,2.81Z" transform="translate(0.05 0)"/><path class="ee5223bc-e52c-41bd-af53-fc28b94f76e1" d="M583.6,71.4h-.22a1.41,1.41,0,0,1,0-2.82h.21c1.46,0,2.91-.1,4.38-.21a1.41,1.41,0,0,1,.22,2.81h0C586.67,71.29,585.16,71.4,583.6,71.4Z" transform="translate(0.05 0)"/></svg>