<svg viewBox="0 0 885.66 123.09" xmlns="http://www.w3.org/2000/svg"><rect fill="#e13e26" height="123.09" rx="11.72" width="123.09"/><path d="m61.54 18.71 13.04 26.42 29.14 4.23-21.09 20.56 4.98 29.02-26.07-13.7-26.06 13.7 4.97-29.02-21.09-20.56 29.15-4.23z" fill="#fff"/><g transform="translate(-5.31 -4.26)"><path d="m138.94 80v-64.52h22.29l11.38 47 11.38-47h22.29v64.52h-13.09v-49.91h-1.42l-12.62 47h-13.09l-12.61-47h-1.45v49.91z" fill="#231f20"/><path d="m216.52 80v-64.52h13.09v64.52z" fill="#231f20"/><path d="m276.56 80h-36.71v-64.52h13.09v52.92h23.62z" fill="#231f20"/><path d="m280.82 80v-64.52h13.09v64.52z" fill="#231f20"/><path d="m298.37 27.05v-11.57h47.42v11.57h-17.07v52.95h-13.09v-52.95z" fill="#231f20"/><path d="m341.34 80 14.51-64.5h24.85l14.51 64.5h-13.09l-2.56-11.67h-22.56l-2.58 11.67zm24.66-53.71-6.55 30.64h17.64l-6.54-30.64z" fill="#231f20"/><path d="m413.13 58.35v21.65h-13.13v-64.52h25q22.77 0 22.77 21.25 0 12.62-9.49 18.59l9.28 24.68h-14.32l-7.49-21.63zm19.07-14a11.6 11.6 0 0 0 2.27-7.49 10.83 10.83 0 0 0 -2.41-7.4 8.82 8.82 0 0 0 -7-2.75h-11.93v20.45h12.14q4.65 0 6.93-2.85z" fill="#231f20"/><path d="m479 80h-13.13v-26.11l-19.87-38.41h14.51l11.86 25.7 11.85-25.7h14.52l-19.74 38.41z" fill="#231f20"/><path d="m542.69 78.93a88.53 88.53 0 0 1 -17.54 2q-7.78 0-12.57-2.13a15.77 15.77 0 0 1 -7.4-6.64 30.66 30.66 0 0 1 -3.6-10.34 88 88 0 0 1 -1-14.56 89.77 89.77 0 0 1 1-14.65 31.21 31.21 0 0 1 3.6-10.48 15.44 15.44 0 0 1 7.35-6.64q4.74-2.09 12.33-2.09a91.1 91.1 0 0 1 17.83 2.09l-.28 6.17a98.38 98.38 0 0 0 -17.07-1.71q-10.44 0-13.8 6.21t-3.37 21.2a91.88 91.88 0 0 0 .62 12 26.47 26.47 0 0 0 2.41 8.21 10.68 10.68 0 0 0 5.27 5.21q3.46 1.57 10.15 1.57a87.28 87.28 0 0 0 15.79-1.71z" fill="#e13e26"/><path d="m599 47.63q0 17.55-5.59 25.42t-20.35 7.87q-14.75 0-20.34-8.06t-5.6-25.37q0-17.31 5.69-25.7t20.2-8.4q14.52 0 20.25 8.35t5.74 25.89zm-44.39-.19q0 14.43 3.8 20.73t14.65 6.3q10.86 0 14.61-6.16t3.74-20.68q0-14.51-3.88-21.15t-14.53-6.64q-10.68 0-14.51 6.59t-3.85 21.01z" fill="#e13e26"/><path d="m608.61 80v-65.66h7.3v65.66z" fill="#e13e26"/><path d="m628.15 80v-65.66h13.66l25.13 59.19h2v-59.19h7.21v65.66h-13.38l-25.52-59.21h-1.8v59.21z" fill="#e13e26"/><path d="m706.58 19.75q-14.22 0-14.22 10.72c0 4 1.09 6.72 3.27 8.2s6.61 3 13.28 4.46 11.39 3.41 14.18 5.78 4.17 6.28 4.17 11.72q0 20.19-21 20.2a118.15 118.15 0 0 1 -17.36-1.61l-3.41-.48.76-6.07a162.05 162.05 0 0 0 19.63 1.71q14 0 14-13.18 0-5.31-3.08-7.64t-11.53-3.94q-11.1-2.35-15.74-6.11t-4.53-12.57q0-17.64 21.15-17.64a116.33 116.33 0 0 1 16.6 1.42l3.22.48-.66 6.16a179.26 179.26 0 0 0 -18.73-1.61z" fill="#e13e26"/><path d="m747.56 58.45q0 11.28 11.47 11.28t11.48-11.28v-43h13.09v42.71q0 11.86-6.12 17.41t-18.48 5.54q-12.33 0-18.44-5.54t-6.12-17.41v-42.68h13.09z" fill="#231f20"/><path d="m813.1 25.72q-10.35 0-10.34 6.83a5.16 5.16 0 0 0 2.56 4.65c1.71 1.08 5.7 2.62 12 4.65s10.7 4.31 13.23 6.87 3.79 6.5 3.79 11.81q0 10.16-6.16 15.37t-16.13 5.21a90.13 90.13 0 0 1 -18.11-2.27l-3.42-.67 1.33-10.17a157.55 157.55 0 0 0 19.44 1.71q10.05 0 10.06-8.34a5.56 5.56 0 0 0 -2.35-4.73q-2.32-1.7-9.24-3.7-11-3.12-15.51-7.44t-4.51-12q0-9.67 5.88-14.42t16.13-4.74a106.6 106.6 0 0 1 17.83 1.9l3.41.66-1 10.34q-13.4-1.51-18.89-1.52z" fill="#231f20"/><path d="m834.91 80 14.51-64.5h24.85l14.51 64.5h-13.09l-2.56-11.67h-22.57l-2.56 11.67zm24.66-53.69-6.57 30.62h17.64l-6.55-30.64z" fill="#231f20"/><path d="m154.6 117.38a36.78 36.78 0 0 1 -7.72.93 14.79 14.79 0 0 1 -5.49-.84 6.78 6.78 0 0 1 -3.24-2.71 11.93 11.93 0 0 1 -1.61-4.36 36.38 36.38 0 0 1 -.45-6.29q0-8 2.24-11.08c1.5-2.08 4.25-3.13 8.27-3.13a35.57 35.57 0 0 1 8 1.09l-.16 4.44a46.35 46.35 0 0 0 -6.65-.6 7.54 7.54 0 0 0 -3.78.7 4.37 4.37 0 0 0 -1.67 2.69 28.16 28.16 0 0 0 -.55 6.74q0 4.76 1.11 6.59t4.45 1.84a47.45 47.45 0 0 0 7.09-.57z" fill="#231f20"/><path d="m163.65 108.67q0 4.8 4.89 4.8t4.89-4.8v-18.28h5.57v18.16q0 5-2.61 7.4c-1.74 1.58-4.36 2.36-7.86 2.36s-6.12-.78-7.86-2.36-2.61-4-2.61-7.4v-18.16h5.58z" fill="#231f20"/><path d="m192.38 94.75c-2.93 0-4.4 1-4.4 2.9a2.2 2.2 0 0 0 1.09 2 28.89 28.89 0 0 0 5.11 2 14.15 14.15 0 0 1 5.64 2.92 6.94 6.94 0 0 1 1.61 5q0 4.31-2.62 6.53a10.28 10.28 0 0 1 -6.87 2.22 38 38 0 0 1 -7.72-1l-1.46-.28.57-4.32a66.37 66.37 0 0 0 8.28.73q4.29 0 4.29-3.55a2.37 2.37 0 0 0 -1-2 14.11 14.11 0 0 0 -3.94-1.57q-4.69-1.33-6.61-3.17a6.73 6.73 0 0 1 -1.92-5.11q0-4.11 2.51-6.13a10.69 10.69 0 0 1 6.87-2 45.5 45.5 0 0 1 7.59.81l1.46.28-.45 4.4c-3.78-.41-6.47-.66-8.03-.66z" fill="#231f20"/><path d="m202.65 95.31v-4.92h20.2v4.92h-7.27v22.52h-5.58v-22.52z" fill="#231f20"/><path d="m244.33 114.9q-2.57 3.42-8.83 3.41t-8.83-3.41q-2.56-3.41-2.57-10.67t2.57-10.8q2.57-3.53 8.83-3.53t8.83 3.53q2.56 3.54 2.56 10.8t-2.56 10.67zm-13.33-3.55q1.2 2.12 4.47 2.12t4.46-2.12q1.2-2.11 1.2-7.1t-1.19-7.25c-.8-1.5-2.29-2.25-4.44-2.25s-3.64.75-4.45 2.25-1.21 3.93-1.21 7.25.4 5.69 1.16 7.1z" fill="#231f20"/><path d="m250.85 117.83v-27.44h9.5l4.85 20 4.85-20h9.5v27.44h-5.55v-21.23h-.61l-5.37 20h-5.58l-5.44-20h-.61v21.23z" fill="#231f20"/><path d="m310.22 117.38a36.78 36.78 0 0 1 -7.72.93 14.89 14.89 0 0 1 -5.5-.84 6.81 6.81 0 0 1 -3.23-2.71 12.12 12.12 0 0 1 -1.62-4.36 37.55 37.55 0 0 1 -.44-6.29q0-8 2.24-11.08c1.5-2.08 4.25-3.13 8.26-3.13a35.65 35.65 0 0 1 8.05 1.1l-.17 4.44a46.23 46.23 0 0 0 -6.64-.6 7.49 7.49 0 0 0 -3.78.7 4.34 4.34 0 0 0 -1.67 2.68 28.85 28.85 0 0 0 -.54 6.74q0 4.76 1.11 6.59t4.44 1.84a47.34 47.34 0 0 0 7.09-.57z" fill="#231f20"/><path d="m332.7 114.9q-2.56 3.42-8.83 3.41t-8.87-3.41q-2.57-3.41-2.56-10.67t2.56-10.8q2.56-3.53 8.83-3.53t8.83 3.53q2.57 3.54 2.57 10.8t-2.53 10.67zm-13.29-3.55q1.18 2.12 4.46 2.12c2.19 0 3.67-.71 4.47-2.12s1.19-3.78 1.19-7.1-.4-5.74-1.21-7.25-2.29-2.25-4.45-2.25-3.63.75-4.44 2.25-1.21 3.93-1.21 7.25.39 5.69 1.19 7.1z" fill="#231f20"/><path d="m339.23 117.83v-27.44h5.58v27.44z" fill="#231f20"/><path d="m350 117.83v-27.44h9.41l6.59 22.61h.4v-22.61h5.6v27.44h-9.17l-6.83-22.6h-.41v22.6z" fill="#231f20"/><path d="m385.62 94.75c-2.94 0-4.41 1-4.41 2.9a2.21 2.21 0 0 0 1.1 2 28.55 28.55 0 0 0 5.11 2 14 14 0 0 1 5.63 2.92 6.9 6.9 0 0 1 1.62 5 8.08 8.08 0 0 1 -2.63 6.53 10.28 10.28 0 0 1 -6.87 2.22 37.89 37.89 0 0 1 -7.71-1l-1.46-.28.57-4.32a66.37 66.37 0 0 0 8.28.73c2.86 0 4.28-1.18 4.28-3.55a2.37 2.37 0 0 0 -1-2 14 14 0 0 0 -3.94-1.57q-4.68-1.33-6.6-3.17a6.73 6.73 0 0 1 -1.92-5.11q0-4.11 2.5-6.13a10.69 10.69 0 0 1 6.87-2 45.5 45.5 0 0 1 7.6.81l1.45.28-.44 4.4q-5.65-.67-8.03-.66z" fill="#231f20"/><path d="m406.43 117.83v-27.44h17.57v4.84h-12v8.07h9.77v4.84h-9.77v9.69z" fill="#231f20"/><path d="m446.09 114.9q-2.56 3.42-8.83 3.41t-8.83-3.41q-2.56-3.41-2.56-10.67t2.56-10.8q2.56-3.53 8.83-3.53t8.83 3.53q2.57 3.54 2.57 10.8t-2.57 10.67zm-13.29-3.55q1.18 2.12 4.46 2.12t4.47-2.12q1.18-2.11 1.19-7.1c0-3.32-.41-5.74-1.21-7.25s-2.29-2.25-4.45-2.25-3.64.75-4.44 2.25-1.22 3.93-1.22 7.25.4 5.69 1.2 7.1z" fill="#231f20"/><path d="m458.19 108.63v9.2h-5.57v-27.44h10.66q9.71 0 9.7 9c0 3.57-1.34 6.21-4 7.91l3.92 10.49h-6.1l-3.19-9.2zm8.13-6a4.94 4.94 0 0 0 1-3.18 4.58 4.58 0 0 0 -1-3.15 3.73 3.73 0 0 0 -3-1.17h-5.09v8.72h5.18a3.55 3.55 0 0 0 2.91-1.2z" fill="#231f20"/><path d="m504 114.9q-2.56 3.42-8.83 3.41t-8.83-3.41q-2.57-3.41-2.57-10.67t2.57-10.8q2.56-3.53 8.83-3.53t8.83 3.53q2.57 3.54 2.56 10.8t-2.56 10.67zm-13.3-3.55c.8 1.41 2.28 2.12 4.47 2.12s3.67-.71 4.46-2.12 1.19-3.78 1.19-7.1-.4-5.74-1.21-7.25-2.29-2.25-4.44-2.25-3.64.75-4.45 2.25-1.21 3.93-1.21 7.25.36 5.69 1.15 7.1z" fill="#231f20"/><path d="m515.82 108.67q0 4.8 4.89 4.8t4.89-4.8v-18.28h5.57v18.16q0 5-2.6 7.4c-1.74 1.58-4.36 2.36-7.86 2.36s-6.13-.78-7.86-2.36-2.61-4-2.61-7.4v-18.16h5.58z" fill="#231f20"/><path d="m541.68 108.63v9.2h-5.58v-27.44h10.67q9.71 0 9.7 9 0 5.35-4 7.91l3.92 10.49h-6.11l-3.19-9.2zm8.12-6a4.89 4.89 0 0 0 1-3.18 4.58 4.58 0 0 0 -1-3.15 3.76 3.76 0 0 0 -3-1.17h-5.09v8.72h5.17a3.55 3.55 0 0 0 2.92-1.2z" fill="#231f20"/><path d="m585.84 117.38a36.62 36.62 0 0 1 -7.71.93 14.85 14.85 0 0 1 -5.5-.84 6.81 6.81 0 0 1 -3.23-2.71 12.12 12.12 0 0 1 -1.62-4.36 36.51 36.51 0 0 1 -.44-6.29q0-8 2.24-11.08c1.49-2.08 4.25-3.13 8.26-3.13a35.5 35.5 0 0 1 8 1.09l-.16 4.44a46.23 46.23 0 0 0 -6.64-.6 7.49 7.49 0 0 0 -3.78.7 4.34 4.34 0 0 0 -1.68 2.69 28.71 28.71 0 0 0 -.55 6.74c0 3.17.38 5.37 1.12 6.59s2.22 1.84 4.44 1.84a47.34 47.34 0 0 0 7.09-.57z" fill="#231f20"/><path d="m608.33 114.9q-2.57 3.42-8.83 3.41t-8.83-3.41q-2.56-3.41-2.56-10.67t2.56-10.8q2.57-3.53 8.83-3.53t8.83 3.53q2.56 3.54 2.57 10.8t-2.57 10.67zm-13.33-3.55q1.19 2.12 4.46 2.12c2.19 0 3.67-.71 4.47-2.12s1.19-3.78 1.19-7.1-.4-5.74-1.21-7.25-2.29-2.25-4.45-2.25-3.63.75-4.44 2.25-1.21 3.93-1.21 7.25.43 5.69 1.19 7.1z" fill="#231f20"/><path d="m620.19 108.67q0 4.8 4.89 4.8t4.89-4.8v-18.28h5.58v18.16q0 5-2.61 7.4c-1.74 1.58-4.36 2.36-7.86 2.36s-6.12-.78-7.86-2.36-2.6-4-2.6-7.4v-18.16h5.57z" fill="#231f20"/><path d="m640.48 117.83v-27.44h9.41l6.63 22.6h.41v-22.6h5.57v27.44h-9.17l-6.87-22.6h-.4v22.6z" fill="#231f20"/><path d="m665.21 95.31v-4.92h20.2v4.92h-7.27v22.52h-5.58v-22.52z" fill="#231f20"/><path d="m693.7 108.63v9.2h-5.58v-27.44h10.67q9.69 0 9.7 9 0 5.35-4 7.91l3.92 10.49h-6.11l-3.19-9.2zm8.12-6a4.89 4.89 0 0 0 1-3.18 4.58 4.58 0 0 0 -1-3.15 3.76 3.76 0 0 0 -3-1.17h-5.12v8.72h5.17a3.55 3.55 0 0 0 2.95-1.2z" fill="#231f20"/><path d="m722.55 117.83h-5.55v-11.1l-8.48-16.34h6.18l5.05 10.93 5-10.93h6.25l-8.41 16.34z" fill="#231f20"/><path d="m731.84 100.35 1.9-10h5.7l-3.43 10z" fill="#231f20"/><path d="m751.08 94.75c-2.94 0-4.41 1-4.41 2.9a2.21 2.21 0 0 0 1.1 2 28.55 28.55 0 0 0 5.11 2 14 14 0 0 1 5.63 2.92 6.9 6.9 0 0 1 1.62 5 8.08 8.08 0 0 1 -2.63 6.53 10.28 10.28 0 0 1 -6.87 2.22 37.89 37.89 0 0 1 -7.71-1l-1.46-.28.57-4.32a66.37 66.37 0 0 0 8.28.73c2.86 0 4.28-1.18 4.28-3.55a2.37 2.37 0 0 0 -1-2 14 14 0 0 0 -3.94-1.57q-4.68-1.33-6.6-3.17a6.73 6.73 0 0 1 -1.92-5.11q0-4.11 2.5-6.13a10.69 10.69 0 0 1 6.87-2 45.5 45.5 0 0 1 7.6.81l1.46.28-.45 4.4q-5.69-.67-8.03-.66z" fill="#231f20"/><path d="m771.89 117.83v-27.44h17.54v4.84h-12v8.07h9.78v4.84h-9.78v9.69z" fill="#231f20"/><path d="m792.54 117.83v-27.44h5.57v27.44z" fill="#231f20"/><path d="m803.29 117.83v-27.44h9.41l6.63 22.6h.4v-22.6h5.58v27.44h-9.17l-6.87-22.6h-.41v22.6z" fill="#231f20"/><path d="m830.48 117.83v-27.44h17.78v4.84h-12.2v6.42h9.78v4.76h-9.78v6.59h12.2v4.84z" fill="#231f20"/><path d="m860.51 94.75c-2.94 0-4.41 1-4.41 2.9a2.22 2.22 0 0 0 1.09 2 28.77 28.77 0 0 0 5.12 2 14.09 14.09 0 0 1 5.63 2.92 6.9 6.9 0 0 1 1.62 5 8.08 8.08 0 0 1 -2.63 6.53 10.28 10.28 0 0 1 -6.87 2.22 38.06 38.06 0 0 1 -7.72-1l-1.45-.28.56-4.32a66.5 66.5 0 0 0 8.29.73q4.28 0 4.28-3.55a2.37 2.37 0 0 0 -1-2 14 14 0 0 0 -3.94-1.57c-3.12-.89-5.33-2-6.61-3.17a6.73 6.73 0 0 1 -1.91-5.11q0-4.11 2.5-6.13a10.69 10.69 0 0 1 6.87-2 45.6 45.6 0 0 1 7.6.81l1.47.27-.44 4.4q-5.71-.66-8.05-.65z" fill="#231f20"/><path d="m870.77 95.31v-4.92h20.23v4.92h-7.3v22.52h-5.58v-22.52z" fill="#231f20"/></g></svg>