<svg viewBox="0 0 500 500" xmlns="http://www.w3.org/2000/svg"><path d="m23.6 348.8c-8-19-13.6-39-16.5-59.4-10.8-77.1 17.2-158.3 74.3-212.4 44.3-41.7 102.4-65.6 163.2-67.2 2.1 0 4.2-.1 6.3-.1 76.1.4 150.3 37.8 195.8 98.6 45.4 60.7 60.5 143.2 38.6 216.8-2.7 9.2-6 18.2-9.9 27-2.6-7.2-7.8-13.1-14.7-16.5 10.1-25.9 15.3-53.5 15.2-81.2-.2-73.6-38.7-145.6-100.2-186.9-36.8-24.6-80-37.9-124.2-38.2h-2.2c-69.7.3-137.9 34.5-179.8 90.2-42.2 56.1-56.3 132.5-35.7 200.7 1.8 5.9 3.8 11.7 6.1 17.4-6.6 1.7-12.4 5.7-16.3 11.2zm35.2-9.7c-11.6-26.5-17.6-55.1-17.6-84 0-115.3 93.6-208.9 208.9-208.9s208.9 93.6 208.9 208.9c0 26.7-5.1 53.1-15 77.8-14.5 2-25.3 14.3-25.3 29 0 1.4.1 2.7.3 4-1.1-.1-2.1-.2-3.2-.2-15.2 0-27.9 11.7-29.1 26.9-8.7-1.9-17.8.9-24 7.4-4.2-9-13.3-14.8-23.2-14.8-.7 0-1.3 0-2 .1-1.6-14.1-14.3-24.1-28.4-22.5-3.4.4-6.7 1.4-9.6 3.1-.8-13.5-12-24.1-25.6-24.1-.9 0-1.9 0-2.8.1-.7-1.3-1.5-2.6-2.4-3.8 3.1-21 6.6-41.1 7.8-47.1.1-.4.3-.7.7-.9.4-.1.8-.1 1.1.1l29.6 22.3c.5.4.9 1 1.1 1.6l9 36.7c.3 1.2 1.4 1.9 2.6 1.6.9-.2 1.6-1 1.7-1.9 2.3-28.3 7.7-93.2 8.6-103.6.1-.9-.3-1.8-.9-2.4l-33.8-30.5c-.1-.1-.2-.3-.2-.4 2.5-101.9-45.5-140.9-45.5-140.9s-48 39-45.5 140.9c0 .2-.1.3-.2.4l-33.8 30.6c-.7.6-1 1.5-.9 2.4.9 10.3 6.2 74.5 8.5 103.1.1 1.2 1.2 2.1 2.4 2 1-.1 1.8-.8 2-1.7 3.2-13.1 7.8-31.7 8.9-36.2.2-.6.5-1.2 1.1-1.6l29.6-22.3c.5-.4 1.2-.3 1.6.2.1.1.2.3.2.5 1 5.7 4.3 23.8 7.2 43.3-2.5 2.2-4.6 5-6.1 8h-.5c-14.1 0-25.6 11.5-25.6 25.6v1.6c-12.9-5.9-28.1-.1-33.9 12.7-1.3 2.8-2 5.9-2.2 9-5.6-1.9-11.7-1.7-17.3.4-1.9-14-14.7-23.9-28.8-22-1.9.2-3.7.7-5.5 1.3-5.2-13.1-20.1-19.6-33.2-14.4-.9.4-1.9.8-2.8 1.3-2.8-8.3-8.8-15.2-16.9-18.7z"/><path d="m29.1 485.5v-48.1h-16.9v-13.2h49.4v13.2h-17v48.1z"/><path d="m73.9 473.2c1.4-.3 2.5-1.4 2.9-2.8.5-2.8.7-5.7.6-8.5v-37.7h15.5v33.6c0 9.7-.5 16.2-1.5 19.7-.8 3.3-3.4 5.8-6.6 6.6-3.4.9-10 1.4-19.8 1.4v-11.5c3 .1 6-.2 8.9-.8z"/><path d="m157.6 485.5v-39h-.6l-13.1 39h-10.5l-13.1-39h-.6v39h-14.4v-61.3h21.3l12.1 35.4h.6l12-35.4h21.2v61.3z"/><path d="m183.3 466.1v-11.9h24.2v11.9z"/><path d="m218.4 485.5v-61.3h41.7v12.6h-26.2v13.5h22.8v12.5h-22.8v22.7z"/><path d="m276.4 483.5c-3.5-1.7-6.1-4.9-6.9-8.7-.9-4-1.4-10.6-1.4-19.9s.5-16 1.4-20c.8-3.8 3.3-7 6.9-8.7 3.7-1.8 9.8-2.7 18.4-2.7s14.7.9 18.4 2.7c3.5 1.7 6 4.9 6.8 8.8.9 4 1.3 10.7 1.3 20s-.4 15.9-1.3 19.9c-.8 3.8-3.3 7-6.8 8.7-3.7 1.8-9.8 2.7-18.4 2.7s-14.7-1-18.4-2.8zm26.2-10.7c1.3-.6 2.1-2.1 2.5-4.3.5-4.5.6-9 .5-13.5.1-4.5-.1-9-.5-13.5-.4-2.3-1.2-3.7-2.5-4.3s-3.9-.9-7.8-.9-6.5.3-7.8.9c-1.4.6-2.2 2.1-2.6 4.4-.5 4.5-.6 9-.5 13.5-.1 4.5.1 9 .5 13.4.4 2.3 1.2 3.8 2.6 4.4s4 .9 7.8.9 6.5-.4 7.8-1z"/><path d="m367.1 485.5-8-21.5h-10.8v21.5h-15.5v-61.3h29.4c5.6 0 9.9.8 12.8 2.4 2.7 1.3 4.7 3.7 5.7 6.5 1 3.6 1.5 7.3 1.4 11.1.1 3.8-.5 7.5-1.6 11.1-1.1 3.1-3.5 5.6-6.5 6.9l9.4 23.3zm-4-34.3c1.1-.2 2.1-.9 2.6-2 .5-1.6.7-3.3.6-4.9.1-1.7-.1-3.4-.5-5-.4-1.1-1.4-1.8-2.5-2-2.2-.4-4.5-.6-6.8-.5h-8.2v15h8c2.2.1 4.5-.1 6.8-.6z"/><path d="m426.4 485.8c-3.1.3-5.9.4-8.6.4-7.7 0-13.4-.9-17.1-2.9-3.7-1.9-6.3-5.3-7.3-9.3-1.2-4.3-1.8-10.7-1.8-19.2 0-8.4.6-14.8 1.8-19.1 1-4 3.7-7.4 7.4-9.4s9.3-2.9 17-2.9c2.8 0 5.7.2 8.5.5 2.5.3 5 .7 7.4 1.2v11.9c-6.1-.6-10.1-.9-12-.9-4.9 0-8.2.4-10.1 1.1-1.9.8-3.2 2.6-3.5 4.6-.5 2.4-.8 6.7-.8 13s.2 10.7.8 13c.3 2.1 1.6 3.8 3.5 4.6 1.8.8 5.2 1.1 10.1 1.1 4.1 0 8.3-.3 12.4-.9v11.9c-2.1.6-4.6 1-7.7 1.3z"/><path d="m444.4 485.5v-61.3h43.5v12.6h-28v11.5h23.7v12.5h-23.6v12.2h28v12.6z"/></svg>