<svg id="b2d6c6cf-be09-4e36-9fda-e626fbb8a46b" data-name="Layer 1" xmlns="http://www.w3.org/2000/svg" viewBox="0 0 274.3 479.9"><defs><style>.af2137d3-62f1-4fc8-941f-fa2f04591760{fill:#fff;}.e6294d3c-1d30-4f6e-a6e4-f06705c60511{fill:#9bf799;}.b141d633-3aeb-47d5-ad34-5aedfbe5b2b2{fill:#ffc1db;}.a7739964-68e4-46e4-ad90-139f775df0be{fill:#111215;}</style></defs><g id="ba5c7cd3-518d-4a06-b089-1f9538d12665" data-name="Layer 2"><path class="af2137d3-62f1-4fc8-941f-fa2f04591760" d="M12.8,115.7V467.1H261.4V115.7Zm162.9,57.9H98.6V156.5h77.1Z"/><path class="e6294d3c-1d30-4f6e-a6e4-f06705c60511" d="M86.5,165a25.69,25.69,0,0,1,25.7-25.7v17.1a8.6,8.6,0,0,0,0,17.2h51.4a8.6,8.6,0,0,0,0-17.2V139.3a25.7,25.7,0,1,1,0,51.4H112.2A25.69,25.69,0,0,1,86.5,165ZM197.9,430.7H77.9a8.6,8.6,0,0,0,0,17.2h120a8.6,8.6,0,0,0,0-17.2Zm25.7-137.1a85.7,85.7,0,1,1-85.7-85.7A85.8,85.8,0,0,1,223.6,293.6Zm-17.1,0a68.6,68.6,0,1,0-68.6,68.6A68.71,68.71,0,0,0,206.5,293.6Zm8.6,102.8H60.8a8.6,8.6,0,1,0,0,17.2H215.1a8.6,8.6,0,0,0,0-17.2ZM127,260.5l-4.6-3.3s-6.7,10.4-6.4,22.5,13.4,21.4,28.9,11.8C126.7,290.1,123.2,272.7,127,260.5ZM246.4,11.4c-40.7,9.3-44.7-10.1-44.7-10.1L134.5,114.7l54.1-4.7C188.5,110,231.4,34.3,246.4,11.4ZM17.1,462.9H57.9C24.7,431,18.2,264.5,17.1,174.3Z"/><path class="b141d633-3aeb-47d5-ad34-5aedfbe5b2b2" d="M257.2,120V408.6c-1.1-90.2-7.6-256.7-40.8-288.6ZM86.5,161.1a25.69,25.69,0,0,0,25.7,25.7h51.4a25.7,25.7,0,1,0,0-51.4h-10l10,17.1a8.6,8.6,0,0,1,0,17.2H112.2a8.6,8.6,0,0,1-8.6-8.6,8.47,8.47,0,0,1,7-8.3l.8,1.4h51.4s-16.3-21.4-80-136.4C39.3,15.3,29.4,3.8,27.5.9l74.7,136.5A25.93,25.93,0,0,0,86.5,161.1ZM197.9,426.9H77.9a8.6,8.6,0,1,0,0,17.2h120a8.6,8.6,0,0,0,0-17.2Zm17.2-34.3H60.8a8.6,8.6,0,0,0,0,17.2H215.1a8.6,8.6,0,0,0,0-17.2Zm8.5-102.9A85.7,85.7,0,1,1,137.9,204,85.8,85.8,0,0,1,223.6,289.7Zm-17.1,0a68.93,68.93,0,1,0-43.4,63.7c-2.8-5.3-11.8-18-35.8-17.6-30.2.5,11.9-20,26.9-6.4A129.74,129.74,0,0,1,171.8,349C192.5,337.1,206.5,315.1,206.5,289.7Z"/><path class="a7739964-68e4-46e4-ad90-139f775df0be" d="M248.5,102.9H202.7l53-89.7a8.56,8.56,0,0,0-14.5-9.1l-58.4,98.8H151.6l52.7-89.7a8.56,8.56,0,1,0-14.5-9.1L137.1,93.7,84.4,4a8.56,8.56,0,1,0-14.5,9.1l77.5,132.6H116.1L32.9,4a8.56,8.56,0,0,0-14.5,9.1l52.8,89.7H25.7A25.69,25.69,0,0,0,0,128.5V454.2a25.69,25.69,0,0,0,25.7,25.7H248.6a25.69,25.69,0,0,0,25.7-25.7V128.6A25.84,25.84,0,0,0,248.5,102.9Zm-85.7,60a8.44,8.44,0,0,0,7.3-4.2,9,9,0,0,1,1.3,4.2,8.6,8.6,0,0,1-8.6,8.6H111.4a8.6,8.6,0,0,1-8.6-8.6,8.87,8.87,0,0,1,1.2-4.2l.1.1a8.6,8.6,0,0,0,7.3,4h51.4Zm94.3,291.4a8.6,8.6,0,0,1-8.6,8.6H25.7a8.66,8.66,0,0,1-8.6-8.6V128.6a8.6,8.6,0,0,1,8.6-8.6H81.3l13.8,23.5a25.27,25.27,0,0,0-9.4,19.4,25.69,25.69,0,0,0,25.7,25.7h51.4a25.7,25.7,0,0,0,0-51.4h-.1L152.6,120h95.9a8.6,8.6,0,0,1,8.6,8.6Zm-120-248.6A85.6,85.6,0,0,0,90.4,363.1a8.34,8.34,0,0,0,3.2,1.8h.1a83.3,83.3,0,0,0,86.8.2h.3a8.94,8.94,0,0,0,3.3-1.9,85.69,85.69,0,0,0,38.8-71.6C222.8,244.2,184.4,205.7,137.1,205.7Zm-30,147.1a34.09,34.09,0,0,1,30-18.5c12.8,0,24.1,7.5,30,18.5a66.1,66.1,0,0,1-60,0Zm74.5-9.6a51.08,51.08,0,0,0-89,0,68.6,68.6,0,1,1,89,0Zm41.2,59.7a8.6,8.6,0,0,1-8.6,8.6H60a8.6,8.6,0,0,1,0-17.2H214.3A8.51,8.51,0,0,1,222.8,402.9Zm-17.1,34.2a8.6,8.6,0,0,1-8.6,8.6H77.1a8.6,8.6,0,0,1,0-17.2h120A8.73,8.73,0,0,1,205.7,437.1ZM137.1,240a34.3,34.3,0,1,0,34.3,34.3A34.36,34.36,0,0,0,137.1,240Zm0,51.4a17.1,17.1,0,1,1,17.1-17.1A17.09,17.09,0,0,1,137.1,291.4Z"/></g></svg>