<svg id="a2ff98a7-0b24-4399-a0d9-4144623bd6fe" data-name="Layer 2" xmlns="http://www.w3.org/2000/svg" viewBox="0 0 632.9 107.65"><defs><style>.ae962434-0ace-4091-a6d9-e9e8933102e9{fill:#023e74;}.fe9fc61c-afcd-4d92-9d54-4ab3e2335d77{fill:#ff8812;}</style></defs><path class="ae962434-0ace-4091-a6d9-e9e8933102e9" d="M45.24,44.17,51.36,3.55H64.28L52.78,68.19H39.69L32.14,30.1,24.68,68.19H11.54L0,3.55H13l6.08,40.57L26.68,3.55h11Z"/><path class="ae962434-0ace-4091-a6d9-e9e8933102e9" d="M93.49,32.27l-4.17-.35q-5.16,0-7,4.53V68.19H69.74v-48H81.59l.36,5.2q3-6.09,8.21-6.08a8.69,8.69,0,0,1,3.46.57Z"/><path class="ae962434-0ace-4091-a6d9-e9e8933102e9" d="M99.93,7.72a6.45,6.45,0,0,1,1.86-4.79,7.55,7.55,0,0,1,9.94,0,6.49,6.49,0,0,1,1.87,4.79,6.68,6.68,0,0,1-1.84,4.8,7.5,7.5,0,0,1-10,0A6.6,6.6,0,0,1,99.93,7.72Zm13.18,60.47H100.5v-48h12.61Z"/><path class="ae962434-0ace-4091-a6d9-e9e8933102e9" d="M144.1,55.31a3.92,3.92,0,0,0-1.54-3,29.81,29.81,0,0,0-6.81-3.66q-7.77-3.15-10.68-6.53a12.4,12.4,0,0,1-2.9-8.39,13.41,13.41,0,0,1,4.55-10.41q4.54-4.11,12.05-4.1,7.9,0,12.65,4.08a13.76,13.76,0,0,1,4.75,11H143.61q0-5.85-4.89-5.85a4.5,4.5,0,0,0-3.28,1.24,4.59,4.59,0,0,0-1.29,3.46A3.62,3.62,0,0,0,135.57,36a31,31,0,0,0,6.71,3.48q7.68,2.85,10.85,6.33a12.88,12.88,0,0,1,3.17,9,12.62,12.62,0,0,1-4.84,10.35q-4.83,3.9-12.69,3.9A20.16,20.16,0,0,1,129.45,67a15.6,15.6,0,0,1-6.33-5.75,14.89,14.89,0,0,1-2.29-7.95h12a7.58,7.58,0,0,0,1.53,4.93c1,1.1,2.53,1.64,4.73,1.64Q144.1,59.88,144.1,55.31Z"/><path class="ae962434-0ace-4091-a6d9-e9e8933102e9" d="M178.72,8.35v11.8h6.44v9.41h-6.44V53.44a7.07,7.07,0,0,0,.78,3.91c.52.71,1.51,1.07,3,1.07a11.85,11.85,0,0,0,3-.31l-.09,9.77a19.68,19.68,0,0,1-6.92,1.19q-12.17,0-12.3-13.95V29.56h-5.55V20.15h5.55V8.35Z"/><path class="ae962434-0ace-4091-a6d9-e9e8933102e9" d="M229.51,45.72q0,11.69-3.73,17.52t-11.72,5.83q-6.27,0-10-5.63l-.39,4.75H192V0H204.6V24.06A11.1,11.1,0,0,1,214,19.27q8,0,11.72,5.79t3.82,17Zm-12.57-3.15q0-7.59-1.46-10.19t-5.11-2.59a6,6,0,0,0-5.77,3.59V55.27a6,6,0,0,0,5.86,3.37c2.4,0,4.06-.78,5-2.35s1.42-4.62,1.48-9.15Z"/><path class="ae962434-0ace-4091-a6d9-e9e8933102e9" d="M259.87,68.19a18.05,18.05,0,0,1-1.07-3.73,10.74,10.74,0,0,1-9.14,4.61,13.49,13.49,0,0,1-10-4,14,14,0,0,1-4-10.35q0-7.54,4.81-11.67t13.88-4.22h3.81V35c0-2.16-.37-3.68-1.11-4.57a4,4,0,0,0-3.24-1.33q-4.7,0-4.7,5.5H236.56a13.94,13.94,0,0,1,5-11,18.63,18.63,0,0,1,12.63-4.32q7.9,0,12.23,4.1t4.33,11.74v22.6a23.59,23.59,0,0,0,1.77,9.72v.76Zm-7.41-9a7,7,0,0,0,3.55-.85,5.84,5.84,0,0,0,2.17-2v-10h-3a6.42,6.42,0,0,0-5,2,7.83,7.83,0,0,0-1.85,5.46Q248.28,59.22,252.46,59.22Z"/><path class="ae962434-0ace-4091-a6d9-e9e8933102e9" d="M291.34,20.15l.36,4.75a13.3,13.3,0,0,1,11.14-5.63q12.39,0,12.74,17.35V68.19H303V37.56c0-2.73-.4-4.7-1.22-5.93s-2.24-1.84-4.28-1.84q-3.42,0-5.33,3.5v34.9h-12.6v-48Z"/><path class="ae962434-0ace-4091-a6d9-e9e8933102e9" d="M322.91,42.7q0-11.81,4-17.62t11.63-5.81a11.19,11.19,0,0,1,9.24,4.79V0h12.65V68.19H349l-.58-4.89q-3.85,5.78-9.94,5.77-7.55,0-11.52-5.77t-4.06-17Zm12.6,3.16c0,4.73.51,8,1.51,9.92a5.33,5.33,0,0,0,5.11,2.82,6.15,6.15,0,0,0,5.64-3.33V33.34a6,6,0,0,0-5.6-3.55,5.4,5.4,0,0,0-5.06,2.79c-1.06,1.87-1.6,5.18-1.6,10Z"/><path class="ae962434-0ace-4091-a6d9-e9e8933102e9" d="M390.91,55.31a3.88,3.88,0,0,0-1.53-3,29.81,29.81,0,0,0-6.81-3.66q-7.77-3.15-10.68-6.53A12.41,12.41,0,0,1,369,33.78a13.41,13.41,0,0,1,4.56-10.41q4.54-4.11,12-4.1,7.89,0,12.65,4.08a13.76,13.76,0,0,1,4.75,11H390.43q0-5.85-4.89-5.85a4.5,4.5,0,0,0-3.28,1.24A4.59,4.59,0,0,0,381,33.16,3.62,3.62,0,0,0,382.39,36a31.13,31.13,0,0,0,6.7,3.48q7.68,2.85,10.86,6.33a12.88,12.88,0,0,1,3.17,9,12.62,12.62,0,0,1-4.84,10.35q-4.83,3.9-12.69,3.9A20.16,20.16,0,0,1,376.27,67a15.54,15.54,0,0,1-6.33-5.75,14.8,14.8,0,0,1-2.29-7.95h12a7.58,7.58,0,0,0,1.53,4.93c1,1.1,2.53,1.64,4.72,1.64C389.23,59.88,390.91,58.36,390.91,55.31Z"/><path class="ae962434-0ace-4091-a6d9-e9e8933102e9" d="M482.86,57.35h22.91V68.19h-36V3.55h13.05Z"/><path class="ae962434-0ace-4091-a6d9-e9e8933102e9" d="M532.09,69.07q-9.68,0-15.09-5.77t-5.42-16.51V43q0-11.35,5-17.53t14.25-6.17q9,0,13.62,5.78t4.67,17.13v6.16h-25c.18,3.57,1,6.18,2.36,7.83s3.53,2.47,6.43,2.47a14.14,14.14,0,0,0,10.52-4.3l4.93,7.59a16.3,16.3,0,0,1-6.7,5.17A23.09,23.09,0,0,1,532.09,69.07Zm-7.9-29.47h12.56V38.44a13.28,13.28,0,0,0-1.42-6.52Q534,29.7,530.72,29.7a5.23,5.23,0,0,0-4.78,2.35Q524.46,34.41,524.19,39.6Z"/><path class="ae962434-0ace-4091-a6d9-e9e8933102e9" d="M577.46,55.31a3.94,3.94,0,0,0-1.53-3,30.23,30.23,0,0,0-6.81-3.66q-7.77-3.15-10.68-6.53a12.41,12.41,0,0,1-2.91-8.39,13.44,13.44,0,0,1,4.55-10.41q4.56-4.11,12-4.1,7.9,0,12.66,4.08a13.76,13.76,0,0,1,4.75,11H577c0-3.9-1.62-5.85-4.88-5.85a4.48,4.48,0,0,0-3.28,1.24,4.55,4.55,0,0,0-1.29,3.46A3.62,3.62,0,0,0,568.94,36a30.68,30.68,0,0,0,6.7,3.48q7.68,2.85,10.86,6.33a12.93,12.93,0,0,1,3.17,9,12.62,12.62,0,0,1-4.84,10.35q-4.85,3.9-12.7,3.9A20.21,20.21,0,0,1,562.81,67a15.58,15.58,0,0,1-6.32-5.75,14.71,14.71,0,0,1-2.29-7.95h11.94a7.58,7.58,0,0,0,1.53,4.93c1,1.1,2.54,1.64,4.73,1.64Q577.45,59.88,577.46,55.31Z"/><path class="ae962434-0ace-4091-a6d9-e9e8933102e9" d="M618.75,55.31a3.92,3.92,0,0,0-1.54-3,29.81,29.81,0,0,0-6.81-3.66q-7.77-3.15-10.68-6.53a12.4,12.4,0,0,1-2.9-8.39,13.41,13.41,0,0,1,4.55-10.41q4.54-4.11,12-4.1,7.91,0,12.65,4.08a13.76,13.76,0,0,1,4.75,11H618.26q0-5.85-4.89-5.85a4.5,4.5,0,0,0-3.28,1.24,4.59,4.59,0,0,0-1.29,3.46A3.62,3.62,0,0,0,610.22,36a31,31,0,0,0,6.71,3.48q7.68,2.85,10.85,6.33a12.88,12.88,0,0,1,3.17,9,12.62,12.62,0,0,1-4.84,10.35q-4.83,3.9-12.69,3.9A20.16,20.16,0,0,1,604.1,67a15.6,15.6,0,0,1-6.33-5.75,14.89,14.89,0,0,1-2.29-7.95h11.95A7.58,7.58,0,0,0,609,58.24c1,1.1,2.53,1.64,4.73,1.64Q618.74,59.88,618.75,55.31Z"/><path class="fe9fc61c-afcd-4d92-9d54-4ab3e2335d77" d="M534.5,103.44a3.82,3.82,0,0,1,1.16-2.87,4.2,4.2,0,0,1,3-1.12,4.27,4.27,0,0,1,3,1.11,3.74,3.74,0,0,1,1.2,2.88,3.67,3.67,0,0,1-1.22,2.88,4.34,4.34,0,0,1-3,1.09,4.27,4.27,0,0,1-3-1.1A3.72,3.72,0,0,1,534.5,103.44Z"/><path class="fe9fc61c-afcd-4d92-9d54-4ab3e2335d77" d="M559.18,101.62q3.14,0,3.2-4.09h6.8a10.16,10.16,0,0,1-2.79,7.32,9.46,9.46,0,0,1-7.06,2.79q-5.36,0-8.17-3.33t-2.86-9.8V92.3q0-6.52,2.77-10t8.21-3.43a9.36,9.36,0,0,1,7.22,2.83c1.75,1.88,2.65,4.56,2.68,8h-6.8a7.28,7.28,0,0,0-.77-3.58,2.64,2.64,0,0,0-2.46-1.26,2.92,2.92,0,0,0-2.71,1.35q-.83,1.34-.87,5.21V94.3A22.07,22.07,0,0,0,555.9,99a3.57,3.57,0,0,0,1.1,2A3.38,3.38,0,0,0,559.18,101.62Z"/><path class="fe9fc61c-afcd-4d92-9d54-4ab3e2335d77" d="M572.44,92.38q0-6.3,3-9.88A11.27,11.27,0,0,1,591.34,82c.19.17.37.36.55.55q3,3.59,3,9.93V94.2q0,6.31-2.94,9.88a11.36,11.36,0,0,1-16.06.46c-.16-.15-.32-.31-.47-.47q-3-3.57-2.95-9.92Zm7.27,1.82q0,7.42,4,7.42c2.45,0,3.76-2.06,4-6.19l0-3.05a11.7,11.7,0,0,0-1-5.62,3.27,3.27,0,0,0-3-1.83,3.2,3.2,0,0,0-2.88,1.83,11.81,11.81,0,0,0-1,5.62Z"/><path class="fe9fc61c-afcd-4d92-9d54-4ab3e2335d77" d="M606.18,79.43l.2,2.56a7.78,7.78,0,0,1,6.43-3.07,6,6,0,0,1,5.86,3.73,7.59,7.59,0,0,1,6.78-3.73q7.27,0,7.45,10.06v18.15h-7.24V89.44A6.55,6.55,0,0,0,625,86a2.48,2.48,0,0,0-2.25-1c-1.35,0-2.35.83-3,2.49l0,.87v18.79h-7.24V89.49a7,7,0,0,0-.64-3.44A2.46,2.46,0,0,0,609.61,85a3.34,3.34,0,0,0-3,2v20.12h-7.25V79.43Z"/><path class="fe9fc61c-afcd-4d92-9d54-4ab3e2335d77" d="M450,43.77h5.5V54.2H450v14H437.45v-14H416.06l-.58-8.12L437.41,3.55H450Zm-22.33,0h9.76V22.15l-.26.49Z"/><rect class="ae962434-0ace-4091-a6d9-e9e8933102e9" x="7.16" y="82.92" width="517.34" height="12.21"/></svg>