<svg id="a6eb6096-a98a-4a4c-9afb-4e4a08fa6a89" data-name="Layer 1" xmlns="http://www.w3.org/2000/svg" xmlns:xlink="http://www.w3.org/1999/xlink" viewBox="0 0 573.31 157.27"><defs><style>.e416e76b-db1c-4166-855d-48c3e427582b{fill:#231f20;}.e65fc2be-15d7-41e7-9bc3-c68c04743679{fill:#fff;}.adfe5234-79ca-48c9-bbb4-17817b3b4f7b{isolation:isolate;opacity:0.76;fill:url(#f5775dc5-8dd5-4b5d-aafa-79e7e9fa34d3);}.bb055731-7dca-44a7-928f-8e04e30e3e12{fill:url(#f967697b-c66c-425d-a638-51820ba302c9);}.b6dbfed2-b347-4bba-b13c-84405ace65d5{fill:url(#f156733e-0dd1-4827-895c-39eb4872337a);}.fe3acb67-d179-42fb-9dcb-60f127c5cb0c{fill:url(#a2a5c5e0-2aad-4711-824e-3ff34d750088);}.b10168ba-ad04-4eb5-a2be-2d53933f376a{fill:url(#ae235f82-b003-418e-a53c-4447a26f3cca);}.e6683b36-cc54-4c42-b42c-47e1175c57db{fill:#404040;}.b4a80db6-54d1-4237-9e21-8d4a6eea51fe{fill:#e3e3e3;}.ec5097fa-b3ac-4ecb-b19c-06129d1d0ac9{fill:url(#a1325632-b36d-47c0-9a18-7195a7b99263);}.a4b3ffa6-6cf9-41cf-891f-6cd8d6f729bd{fill:#ed1c24;}</style><linearGradient id="f5775dc5-8dd5-4b5d-aafa-79e7e9fa34d3" x1="307.91" y1="102.68" x2="311.6" y2="110.97" gradientTransform="matrix(1, 0, 0, -1, 0, 174)" gradientUnits="userSpaceOnUse"><stop offset="0" stop-color="#4d4d4d"/><stop offset="1" stop-color="#b3b3b3"/></linearGradient><linearGradient id="f967697b-c66c-425d-a638-51820ba302c9" x1="216.45" y1="1.59" x2="503.75" y2="216.89" gradientTransform="matrix(1, 0, 0, -1, 0, 174)" gradientUnits="userSpaceOnUse"><stop offset="0.21" stop-color="#999"/><stop offset="0.37" stop-color="#ccc"/><stop offset="0.42" stop-color="#c8c8c8"/><stop offset="0.46" stop-color="#bcbcbc"/><stop offset="0.5" stop-color="#adadad"/><stop offset="0.51" stop-color="#a9a9a9"/><stop offset="0.58" stop-color="#858585"/><stop offset="0.64" stop-color="#6e6e6e"/><stop offset="0.68" stop-color="#666"/><stop offset="0.74" stop-color="#909090"/><stop offset="0.79" stop-color="#b1b1b1"/><stop offset="0.83" stop-color="#c5c5c5"/><stop offset="0.86" stop-color="#ccc"/><stop offset="0.91" stop-color="#cacaca"/><stop offset="0.94" stop-color="#c2c2c2"/><stop offset="0.95" stop-color="#b5b5b5"/><stop offset="0.97" stop-color="#a3a3a3"/><stop offset="0.98" stop-color="#8b8b8b"/><stop offset="1" stop-color="#6e6e6e"/></linearGradient><linearGradient id="f156733e-0dd1-4827-895c-39eb4872337a" x1="281.18" y1="-84.79" x2="568.48" y2="130.52" gradientTransform="matrix(1, 0, 0, -1, 0, 174)" gradientUnits="userSpaceOnUse"><stop offset="0.13" stop-color="#999"/><stop offset="0.37" stop-color="#ccc"/><stop offset="0.42" stop-color="#c8c8c8"/><stop offset="0.46" stop-color="#bcbcbc"/><stop offset="0.5" stop-color="#adadad"/><stop offset="0.51" stop-color="#a9a9a9"/><stop offset="0.58" stop-color="#858585"/><stop offset="0.64" stop-color="#6e6e6e"/><stop offset="0.68" stop-color="#666"/><stop offset="0.74" stop-color="#909090"/><stop offset="0.79" stop-color="#b1b1b1"/><stop offset="0.83" stop-color="#c5c5c5"/><stop offset="0.86" stop-color="#ccc"/><stop offset="0.91" stop-color="#cacaca"/><stop offset="0.94" stop-color="#c2c2c2"/><stop offset="0.95" stop-color="#b5b5b5"/><stop offset="0.97" stop-color="#a3a3a3"/><stop offset="0.98" stop-color="#8b8b8b"/><stop offset="1" stop-color="#6e6e6e"/></linearGradient><linearGradient id="a2a5c5e0-2aad-4711-824e-3ff34d750088" x1="168.69" y1="65.32" x2="455.99" y2="280.62" gradientTransform="matrix(1, 0, 0, -1, 0, 174)" gradientUnits="userSpaceOnUse"><stop offset="0.21" stop-color="#999"/><stop offset="0.37" stop-color="#ccc"/><stop offset="0.42" stop-color="#c8c8c8"/><stop offset="0.46" stop-color="#bcbcbc"/><stop offset="0.5" stop-color="#adadad"/><stop offset="0.51" stop-color="#a9a9a9"/><stop offset="0.58" stop-color="#858585"/><stop offset="0.64" stop-color="#6e6e6e"/><stop offset="0.68" stop-color="#666"/><stop offset="0.74" stop-color="#909090"/><stop offset="0.79" stop-color="#b1b1b1"/><stop offset="0.83" stop-color="#c5c5c5"/><stop offset="0.86" stop-color="#ccc"/><stop offset="0.91" stop-color="#cacaca"/><stop offset="0.94" stop-color="#c2c2c2"/><stop offset="0.95" stop-color="#b5b5b5"/><stop offset="0.97" stop-color="#a3a3a3"/><stop offset="0.98" stop-color="#8b8b8b"/><stop offset="1" stop-color="#6e6e6e"/><stop offset="1" stop-color="#666"/></linearGradient><linearGradient id="ae235f82-b003-418e-a53c-4447a26f3cca" x1="389.3" y1="118.9" x2="560.29" y2="20.22" gradientTransform="matrix(1, 0, 0, -1, 0, 174)" gradientUnits="userSpaceOnUse"><stop offset="0" stop-color="#4d4d4d"/><stop offset="0.32" stop-color="#b3b3b3"/><stop offset="0.76" stop-color="#b3b3b3"/><stop offset="0.81" stop-color="#a4a4a4"/><stop offset="0.9" stop-color="#7d7d7d"/><stop offset="1" stop-color="#4d4d4d"/></linearGradient><linearGradient id="a1325632-b36d-47c0-9a18-7195a7b99263" x1="143.7" y1="153.18" x2="283.47" y2="95.09" gradientTransform="matrix(1, 0, 0, -1, 0, 174)" gradientUnits="userSpaceOnUse"><stop offset="0" stop-color="#b3b3b3"/><stop offset="0.31" stop-color="#e6e6e6"/><stop offset="0.47" stop-color="#e3e3e3"/><stop offset="0.59" stop-color="#d9d9d9"/><stop offset="0.7" stop-color="#c9c9c9"/><stop offset="0.79" stop-color="#b2b2b2"/><stop offset="0.89" stop-color="#959595"/><stop offset="0.98" stop-color="#727272"/><stop offset="1" stop-color="#666"/></linearGradient></defs><path class="e416e76b-db1c-4166-855d-48c3e427582b" d="M522,140.8v-3.1a7.42,7.42,0,0,0-1.4-4.8,5.38,5.38,0,0,0-4.2-1.9,6.11,6.11,0,0,0-3,.8c-.1,0-.1.1-.2.1s-.2-.1-.2-.2a5.47,5.47,0,0,0-2.9-.8,6,6,0,0,0-2.4.5,1.69,1.69,0,0,0-1-.3h-4.5a2,2,0,0,0-1.8,1.2,7.31,7.31,0,0,0-4.5-1.4,7,7,0,0,0-5.4,2.3.1.1,0,0,0-.1-.1,6,6,0,0,0-2.5-1.6,8,8,0,0,0-3.2-.5,7,7,0,0,0-5.5,2.3,7.76,7.76,0,0,0-1.9,5.4v1.1h-2.8a2,2,0,0,0-2,2v2.7a2,2,0,0,0,2,2h3a2,2,0,0,0,2-1.7,7.33,7.33,0,0,0,5.1,1.9,7.13,7.13,0,0,0,4.6-1.6,4.06,4.06,0,0,0,.9-1c.1.1.2.3.3.4a7,7,0,0,0,5.4,2.3,7.07,7.07,0,0,0,4.6-1.5,2,2,0,0,0,1.9,1.3h5.8a.9.9,0,0,0,.5-.1c.2,0,.3.1.5.1h5.5a.9.9,0,0,0,.5-.1c.2,0,.3.1.5.1h5.8a2,2,0,0,0,2-2v-1.8A2.17,2.17,0,0,0,522,140.8Z" transform="translate(-10.15 -9.79)"/><path class="e416e76b-db1c-4166-855d-48c3e427582b" d="M149.2,78.1Z" transform="translate(-10.15 -9.79)"/><path class="e65fc2be-15d7-41e7-9bc3-c68c04743679" d="M477.5,144.6h-3v-2.7h3Z" transform="translate(-10.15 -9.79)"/><path class="e65fc2be-15d7-41e7-9bc3-c68c04743679" d="M484.5,142.5a1.9,1.9,0,0,0,1.3-.5,1.73,1.73,0,0,0,.5-1.3h2.8v.1a3.74,3.74,0,0,1-1.3,2.9,4.79,4.79,0,0,1-3.3,1.2,4.72,4.72,0,0,1-3.9-1.6,6.17,6.17,0,0,1-1.4-4.1v-.3a6.17,6.17,0,0,1,1.4-4.1,4.93,4.93,0,0,1,4-1.6,6.9,6.9,0,0,1,2.5.4,5.67,5.67,0,0,1,1.8,1.2v3h-2.5l-.5-1.8a3.33,3.33,0,0,0-.6-.3,2,2,0,0,0-.8-.1,1.81,1.81,0,0,0-1.8.9,4.29,4.29,0,0,0-.5,2.4v.3a5.36,5.36,0,0,0,.5,2.4A2,2,0,0,0,484.5,142.5Z" transform="translate(-10.15 -9.79)"/><path class="e65fc2be-15d7-41e7-9bc3-c68c04743679" d="M490.5,138.8a6,6,0,0,1,1.4-4.1,4.85,4.85,0,0,1,3.9-1.6,4.72,4.72,0,0,1,3.9,1.6,6.44,6.44,0,0,1,1.4,4.2v.2a6.44,6.44,0,0,1-1.4,4.2,5.55,5.55,0,0,1-7.8,0,6.44,6.44,0,0,1-1.4-4.2Zm3,.2a5.83,5.83,0,0,0,.5,2.5,1.81,1.81,0,0,0,1.8.9,1.75,1.75,0,0,0,1.7-.9,4.65,4.65,0,0,0,.5-2.5v-.2a4.87,4.87,0,0,0-.6-2.5,2.06,2.06,0,0,0-1.7-1,1.67,1.67,0,0,0-1.7,1,6.18,6.18,0,0,0-.5,2.5v.2Z" transform="translate(-10.15 -9.79)"/><path class="e65fc2be-15d7-41e7-9bc3-c68c04743679" d="M502.1,135.1v-1.8h4.5l.1,1.5a4.36,4.36,0,0,1,1.4-1.3,3.81,3.81,0,0,1,1.9-.4,4.14,4.14,0,0,1,1.9.5,3.09,3.09,0,0,1,1.2,1.5,3.16,3.16,0,0,1,1.4-1.4,4.23,4.23,0,0,1,2-.5,3.09,3.09,0,0,1,2.6,1.2,5.61,5.61,0,0,1,1,3.5v4.7l1.5.3v1.8h-5.8v-1.8l1.3-.3v-4.7a2.65,2.65,0,0,0-.4-1.8,1.66,1.66,0,0,0-1.2-.5,2,2,0,0,0-1.1.3,3,3,0,0,0-.8.8v5.9l1.2.3v1.8h-5.5v-1.8l1.2-.3v-4.7a3,3,0,0,0-.4-1.8,1.73,1.73,0,0,0-1.3-.5,3.59,3.59,0,0,0-1.1.2,1.78,1.78,0,0,0-.8.7v6.1l1.3.3v1.8h-5.8v-1.8l1.5-.3v-7Z" transform="translate(-10.15 -9.79)"/><path class="e65fc2be-15d7-41e7-9bc3-c68c04743679" d="M477.5,144.6h-3v-2.7h3Z" transform="translate(-10.15 -9.79)"/><path class="e65fc2be-15d7-41e7-9bc3-c68c04743679" d="M484.5,142.5a1.9,1.9,0,0,0,1.3-.5,1.73,1.73,0,0,0,.5-1.3h2.8v.1a3.74,3.74,0,0,1-1.3,2.9,4.79,4.79,0,0,1-3.3,1.2,4.72,4.72,0,0,1-3.9-1.6,6.17,6.17,0,0,1-1.4-4.1v-.3a6.17,6.17,0,0,1,1.4-4.1,4.93,4.93,0,0,1,4-1.6,6.9,6.9,0,0,1,2.5.4,5.67,5.67,0,0,1,1.8,1.2v3h-2.5l-.5-1.8a3.33,3.33,0,0,0-.6-.3,2,2,0,0,0-.8-.1,1.81,1.81,0,0,0-1.8.9,4.29,4.29,0,0,0-.5,2.4v.3a5.36,5.36,0,0,0,.5,2.4A2,2,0,0,0,484.5,142.5Z" transform="translate(-10.15 -9.79)"/><path class="e65fc2be-15d7-41e7-9bc3-c68c04743679" d="M490.5,138.8a6,6,0,0,1,1.4-4.1,4.85,4.85,0,0,1,3.9-1.6,4.72,4.72,0,0,1,3.9,1.6,6.44,6.44,0,0,1,1.4,4.2v.2a6.44,6.44,0,0,1-1.4,4.2,5.55,5.55,0,0,1-7.8,0,6.44,6.44,0,0,1-1.4-4.2Zm3,.2a5.83,5.83,0,0,0,.5,2.5,1.81,1.81,0,0,0,1.8.9,1.75,1.75,0,0,0,1.7-.9,4.65,4.65,0,0,0,.5-2.5v-.2a4.87,4.87,0,0,0-.6-2.5,2.06,2.06,0,0,0-1.7-1,1.67,1.67,0,0,0-1.7,1,6.18,6.18,0,0,0-.5,2.5v.2Z" transform="translate(-10.15 -9.79)"/><path class="e65fc2be-15d7-41e7-9bc3-c68c04743679" d="M502.1,135.1v-1.8h4.5l.1,1.5a4.36,4.36,0,0,1,1.4-1.3,3.81,3.81,0,0,1,1.9-.4,4.14,4.14,0,0,1,1.9.5,3.09,3.09,0,0,1,1.2,1.5,3.16,3.16,0,0,1,1.4-1.4,4.23,4.23,0,0,1,2-.5,3.09,3.09,0,0,1,2.6,1.2,5.61,5.61,0,0,1,1,3.5v4.7l1.5.3v1.8h-5.8v-1.8l1.3-.3v-4.7a2.65,2.65,0,0,0-.4-1.8,1.66,1.66,0,0,0-1.2-.5,2,2,0,0,0-1.1.3,3,3,0,0,0-.8.8v5.9l1.2.3v1.8h-5.5v-1.8l1.2-.3v-4.7a3,3,0,0,0-.4-1.8,1.73,1.73,0,0,0-1.3-.5,3.59,3.59,0,0,0-1.1.2,1.78,1.78,0,0,0-.8.7v6.1l1.3.3v1.8h-5.8v-1.8l1.5-.3v-7Z" transform="translate(-10.15 -9.79)"/><path class="e416e76b-db1c-4166-855d-48c3e427582b" d="M125.4,64.2" transform="translate(-10.15 -9.79)"/><path class="adfe5234-79ca-48c9-bbb4-17817b3b4f7b" d="M312.3,73.6h1.9c-2.3-4.1-4.5-8.2-6.9-12.2a15,15,0,0,1-2.2-.2c2.6,4.9,4.8,8.9,6.7,12.4Z" transform="translate(-10.15 -9.79)"/><path class="bb055731-7dca-44a7-928f-8e04e30e3e12" d="M396,84.5h6.4a7,7,0,0,1,5.7,2.9,7,7,0,0,1,5.7-2.9H419C372.4,65,336,51.7,299.9,46a121.45,121.45,0,0,1,8.9,13.2C338.8,63.8,370.3,74.5,396,84.5Z" transform="translate(-10.15 -9.79)"/><path class="b6dbfed2-b347-4bba-b13c-84405ace65d5" d="M567.6,50.3c-4.9-6.8-9.9-8.8-15.5-8.5-14.4.9-33.7,17.6-54.8,31.8a7.1,7.1,0,0,1,5.8,5.1,7.23,7.23,0,0,1,2,4.9v.8a22,22,0,0,1,5.8-.7h.8c2.9-2,5.7-4.1,8.6-6.2s5.5-4,8.3-6c2.6-1.9,5.3-3.7,8-5.5,2.5-1.6,5-3.2,7.6-4.7a68.2,68.2,0,0,1,7.2-3.5,33.38,33.38,0,0,1,6.8-2.1,26.71,26.71,0,0,1,6.3-.4,17.25,17.25,0,0,1,8.7,3.6,12,12,0,0,1,1.2,1.1l1.3,1.3C574.4,59.3,571.6,55.8,567.6,50.3Z" transform="translate(-10.15 -9.79)"/><path class="fe3acb67-d179-42fb-9dcb-60f127c5cb0c" d="M163,73.9c1.3-.4,2.5-.7,3.8-1.1s2.5-.7,3.8-1.1,2.5-.7,3.8-1c1.1-.3,2.3-.6,3.5-.9.2-.1.5-.1.7-.2l3.4-.9c1.3-.3,2.5-.7,3.8-1,3.8-1,7.6-1.8,11.4-2.7,1.3-.3,2.5-.6,3.8-.8s2.5-.5,3.8-.8,2.5-.5,3.8-.8,2.4-.5,3.6-.7a.6.6,0,0,0,.4-.1c1.2-.2,2.4-.5,3.6-.7l3.6-.6a4.33,4.33,0,0,0,.5-.1c1.1-.2,2.3-.4,3.5-.5l3.8-.6c2.5-.4,5.1-.7,7.6-1,1.3-.2,2.5-.3,3.8-.4,3.8-.4,7.7-.8,11.5-1l5.8-.3c1.9-.1,3.9-.2,5.8-.2,7-.2,14-.1,21,.2.7,0,1.5.1,2.2.1,2.2.1,4.5.3,6.7.5,1.5.1,3,.3,4.5.4s3,.3,4.5.5l4.5.6a85.12,85.12,0,0,0-9.4-13.4c0,.1.1.1.1.2-41.6-6-80.1-1-120.7,9.1-9.8,5.7-19.1,11.5-27.3,16.9l3.5,5.8C155.5,76.1,159.2,75,163,73.9Z" transform="translate(-10.15 -9.79)"/><path class="b10168ba-ad04-4eb5-a2be-2d53933f376a" d="M572.2,61.3a13,13,0,0,0-2.3-1.8c6.3,20.4-8.2,52.7-51.1,72a4.89,4.89,0,0,1,1.8,1.4,7.42,7.42,0,0,1,1.4,4.8v3.1a2.17,2.17,0,0,1,1.4,2v1.8a2,2,0,0,1-2,2h-5.8c-.2,0-.3-.1-.5-.1a.9.9,0,0,1-.5.1h-5.5c-.2,0-.3-.1-.5-.1a.9.9,0,0,1-.5.1h-5.8a2,2,0,0,1-1.9-1.3,7.07,7.07,0,0,1-4.6,1.5,7,7,0,0,1-5.4-2.3c-.1-.1-.2-.3-.3-.4a4.06,4.06,0,0,1-.9,1,7.13,7.13,0,0,1-4.6,1.6,7.33,7.33,0,0,1-5.1-1.9,2,2,0,0,1-2,1.7h-3a2,2,0,0,1-2-1.8c-43.9,7.5-85,5.9-117-17.9a3.55,3.55,0,0,1-1-.2,12.13,12.13,0,0,1-3.3.7c14.9,16.2,34.9,28.9,64.8,33.1,29.3,4.2,69.1.5,101.6-11.5C579.6,126.2,592.2,80.7,572.2,61.3Z" transform="translate(-10.15 -9.79)"/><path class="e6683b36-cc54-4c42-b42c-47e1175c57db" d="M332.6,101.9c-.7-1.2-1.5-2.4-2.2-3.7v3.7Z" transform="translate(-10.15 -9.79)"/><path class="e6683b36-cc54-4c42-b42c-47e1175c57db" d="M577,62.8a17.38,17.38,0,0,0-1.3-1.5,19.48,19.48,0,0,0-7.8-5.2,11.94,11.94,0,0,0-4.1-.8,16.08,16.08,0,0,0-3.1.1,28.81,28.81,0,0,0-6.6,1.5A49.28,49.28,0,0,0,547,60c-2.6,1.3-5,2.8-7.5,4.3-2.7,1.7-5.3,3.4-7.9,5.2l-8.2,5.8c-2.8,2-5.6,4.1-8.5,6.1-1.1.8-2.2,1.5-3.2,2.3a23.28,23.28,0,0,1,3.8.4c22.6-16,42.2-32.3,54.5-24.6a12.39,12.39,0,0,1,2.2,1.8c20,19.3,7.4,64.8-54.6,87.6-32.5,11.9-72.3,15.7-101.6,11.5-30-4.3-50-17.1-64.8-33.2h-1.3a11.48,11.48,0,0,1-1.9-.1c25.3,28.6,64.6,47.1,144,31.5C572.9,142.9,596.5,88,577,62.8Z" transform="translate(-10.15 -9.79)"/><path class="e6683b36-cc54-4c42-b42c-47e1175c57db" d="M138.1,77.8a8.36,8.36,0,0,1,1.9-1.2c.7-.5,1.4-.9,2.1-1.4l1.8-1.2a16.44,16.44,0,0,1,2.2-1.4,16.44,16.44,0,0,1,2.2-1.4c8.2-5.4,17.5-11.2,27.3-16.9,25.2-14.6,53.8-28,76.9-29,15.6-.6,30.5,4.1,43.6,19.7a93.53,93.53,0,0,1,9.4,13.5l-4.5-.6c-1.5-.2-3-.4-4.5-.5s-3-.3-4.5-.4c-2.2-.2-4.5-.4-6.7-.5-.7,0-1.5-.1-2.2-.1-7-.4-14-.4-21-.2-1.9.1-3.9.1-5.8.2l-5.8.3c-3.8.3-7.7.6-11.5,1-1.3.1-2.5.3-3.8.4-2.5.3-5.1.6-7.6,1l-3.8.6c-1.2.2-2.3.4-3.5.5a4.33,4.33,0,0,0-.5.1l-3.6.6c-1.2.2-2.4.4-3.6.7a.6.6,0,0,0-.4.1c-1.2.2-2.4.5-3.6.7s-2.5.5-3.8.8-2.5.5-3.8.8-2.5.5-3.8.8l-11.4,2.7c-1.3.3-2.5.6-3.8,1l-3.4.9c-.2.1-.5.1-.7.2l-3.5.9c-1.3.3-2.5.7-3.8,1s-2.5.7-3.8,1.1-2.5.7-3.8,1.1c-3.8,1.1-7.5,2.2-11.3,3.4l1.3,2.1C203.3,63.8,252.5,53.7,305,61l2.1.3c2.4,4,4.7,8.1,7,12.3h2.8c-2.1-3.9-4.2-7.8-6.4-11.5,24.3,3.9,49.1,11.4,78,22.3l1.8.6a7.51,7.51,0,0,1,2.6-.5h3.5c-25.7-10-57.4-20.8-87.5-25.4A137.83,137.83,0,0,0,300,45.9c-.6-.8-1.2-1.5-1.8-2.3l-.1-.1a5.24,5.24,0,0,0-1-1.1c-1-1.2-2-2.3-3.1-3.4-10.7-10.9-23.7-17-42.3-15.9-.6,0-1.2.1-1.9.1s-1.4.1-2.1.2c-.9.1-1.8.2-2.8.4-21.6,3.1-46.4,14.6-68.8,27.4-.7.4-1.4.8-2.2,1.2-8.8,5.1-17.2,10.4-24.9,15.3-.1.1-.2.1-.3.2l-1.8,1.2c-.7.5-1.5,1-2.2,1.4s-1.5,1-2.2,1.4c-1.3.9-2.6,1.7-3.9,2.6-.1.1-.9.7-1.8,1.4A5.86,5.86,0,0,1,138.1,77.8Z" transform="translate(-10.15 -9.79)"/><path class="e416e76b-db1c-4166-855d-48c3e427582b" d="M527.9,103.5l1.6-4a6.94,6.94,0,0,0-1.6-7.5,7,7,0,0,0-2.9-4.1,25.63,25.63,0,0,0-6.7-3.1,26.52,26.52,0,0,0-7.4-1.1,22,22,0,0,0-5.8.7v-.8a7.23,7.23,0,0,0-2-4.9,7,7,0,0,0-6.7-5.2h-9.1a7,7,0,0,0-7,7v3.3h-.6A18.53,18.53,0,0,0,473,85a6.51,6.51,0,0,0-4.7-1.3l-2.4.2a19.33,19.33,0,0,0-4.9.9,6.72,6.72,0,0,0-2.4-.4H450a6.72,6.72,0,0,0-4.8,1.9,21.05,21.05,0,0,0-10.8-2.5,29.19,29.19,0,0,0-7.9,1.2c-.3.1-.5.1-.8.2a7.75,7.75,0,0,0-3-.7h-8.9a7,7,0,0,0-5.7,2.9,7,7,0,0,0-5.7-2.9h-9.5a7.51,7.51,0,0,0-2.6.5,17.53,17.53,0,0,0-6.5-1.2,17,17,0,0,0-5.9,1,7.8,7.8,0,0,0-2.2-.4h-8.9a6.72,6.72,0,0,0-4.8,1.9,21.05,21.05,0,0,0-10.8-2.5,29.19,29.19,0,0,0-7.9,1.2,27.16,27.16,0,0,0-7.3,3,6.89,6.89,0,0,0-2.9,8.4l1.4,3.7a14,14,0,0,0-1.2,1.8h-2.9V83.7a7.23,7.23,0,0,0-2-4.9,7,7,0,0,0-6.7-5.2h-9.4a7,7,0,0,0-7,7v5.1a19.16,19.16,0,0,0-8.4-1.8,21.54,21.54,0,0,0-6.8,1.1V83.8a7.23,7.23,0,0,0-2-4.9,7,7,0,0,0-6.7-5.2h-9.1a7,7,0,0,0-7,7v4.8a22.42,22.42,0,0,0-8.6-1.5,29.19,29.19,0,0,0-7.9,1.2,30.31,30.31,0,0,0-5.1,1.8,26.23,26.23,0,0,0-4.6-1.9,26.52,26.52,0,0,0-7.4-1.1,22.44,22.44,0,0,0-8.4,1.5,17.42,17.42,0,0,0-4.6,2.7A18.09,18.09,0,0,0,206.5,84a21.54,21.54,0,0,0-6.8,1.1V83.8a7.23,7.23,0,0,0-2-4.9,7,7,0,0,0-6.7-5.2h-9a7,7,0,0,0-7,7V86a23.83,23.83,0,0,0-9.8-2,23.36,23.36,0,0,0-8.5,1.5l-3.6-6.1-1.3-2.1-3.5-5.8c-.7.5-1.5,1-2.2,1.4s-1.5,1-2.2,1.4c2.8,4.6,1.5,2.4,8.2,13.7a5.5,5.5,0,0,0-.9.7,14.84,14.84,0,0,0-10.6-4.6v-.2a7.23,7.23,0,0,0-2-4.9,7.3,7.3,0,0,0-1.5-2.9c0-.1-.1-.1-.1-.2a2.65,2.65,0,0,0-.6-.5,6.78,6.78,0,0,0-4.4-1.6h-1l-5.2-9a1.06,1.06,0,0,1,.2-1.2l2-1.6.1-.1-1.5-2.5a2.62,2.62,0,1,0-4.5,2.7l7,11.7h-6.3a4.1,4.1,0,0,0-1.1.1c-.4,0-.7-.1-1.1-.1h-8.9a6.87,6.87,0,0,0-6.6,4.8l-.8,2.4a9.86,9.86,0,0,0-1.3-2l-.1-.4a7,7,0,0,0-6.6-4.8H89.8a7.15,7.15,0,0,0-6.6,4.6l-.9,2.5A9.06,9.06,0,0,0,81,79l-.1-.4a7,7,0,0,0-6.6-4.8H64.7A7,7,0,0,0,59,76.7a7.26,7.26,0,0,0-.9,6.4l12.9,36a7.16,7.16,0,0,0,1.6,2.5l.2.6a6.92,6.92,0,0,0,6.6,4.6h7.5a7.15,7.15,0,0,0,6.6-4.6l.8-2.3a4.81,4.81,0,0,0,1.2,1.6l.2.6a7,7,0,0,0,6.6,4.7h7.5a7.15,7.15,0,0,0,6.6-4.6l.7-1.9a4.49,4.49,0,0,0,1.1,1.3,5.7,5.7,0,0,0,1.1,2.2L56.2,161.6,15.7,93.8l103-61.7L134,57.8a14.79,14.79,0,0,1,2.1-1.3,16.44,16.44,0,0,1,2.2-1.4.1.1,0,0,0,.1-.1L122.8,29a4.66,4.66,0,0,0-6.2-1.6L12.4,89.7a4.48,4.48,0,0,0-1.6,6.2L52,164.8a4.48,4.48,0,0,0,6.2,1.6l66.2-39.6H134a7,7,0,0,0,3.8-1.1,7,7,0,0,0,3.8,1.1h9.1a7,7,0,0,0,5.3-2.4,5.58,5.58,0,0,1,.8.5,24.17,24.17,0,0,0,21,0,4.05,4.05,0,0,1,.9-.5,6.74,6.74,0,0,0,5.3,2.5h9.1a6.9,6.9,0,0,0,5.3-2.5c.4.2.7.4,1.1.6a22.93,22.93,0,0,0,10.6,2.3,26.37,26.37,0,0,0,7.3-1.1,36.16,36.16,0,0,0,3.5-1.3,18.84,18.84,0,0,0,4.2,1.4,32.25,32.25,0,0,0,8.4,1,20.76,20.76,0,0,0,11.8-3.2,16.44,16.44,0,0,0,2.2,1.4,17.2,17.2,0,0,0,7.8,1.8,13.85,13.85,0,0,0,4.6-.7,5.82,5.82,0,0,0,1.9.3h8.5a6.93,6.93,0,0,0,2-.3,6.45,6.45,0,0,0,2,.3h9.1a6.9,6.9,0,0,0,5.3-2.5c.4.2.7.4,1.1.6a22.93,22.93,0,0,0,10.6,2.3,26.37,26.37,0,0,0,7.3-1.1,15.55,15.55,0,0,0,2.3-.8,7.23,7.23,0,0,0,4.3,1.5H339a7,7,0,0,0,3.7-1.1,17.19,17.19,0,0,0,7.2,1.5,13.85,13.85,0,0,0,4.6-.7,5.82,5.82,0,0,0,1.9.3h8.5a6.93,6.93,0,0,0,2-.3,6.45,6.45,0,0,0,2,.3H378a7,7,0,0,0,3.8-1.1,7,7,0,0,0,3.8,1.1h5.9a6.72,6.72,0,0,0,1,2.8l.9,1.2a6.64,6.64,0,0,0,6.7,5.2h9.2a6.94,6.94,0,0,0,6.4-4.1l4.6-10.3a15.38,15.38,0,0,0,4.9,3.8,17.2,17.2,0,0,0,7.8,1.8,13.85,13.85,0,0,0,4.6-.7,5.82,5.82,0,0,0,1.9.3H448a6.93,6.93,0,0,0,2-.3,6.45,6.45,0,0,0,2,.3h9.1a6.94,6.94,0,0,0,6.9-6.2,16.43,16.43,0,0,0,4.1,3.8,16.88,16.88,0,0,0,9.6,2.8,19.05,19.05,0,0,0,5.4-.8,6.37,6.37,0,0,0,2.4.4h8.9a6.15,6.15,0,0,0,3.8-1.2l2,.6a32.25,32.25,0,0,0,8.4,1,20.79,20.79,0,0,0,12.3-3.5,13.77,13.77,0,0,0,5.9-11.5A15.71,15.71,0,0,0,527.9,103.5Z" transform="translate(-10.15 -9.79)"/><path class="e65fc2be-15d7-41e7-9bc3-c68c04743679" d="M138.6,79a7.23,7.23,0,0,1,2,4.9v.2a14.84,14.84,0,0,1,10.6,4.6c.3-.2.5-.4.8-.6l-5.4-9.2-2.7-4.5-1.8,1.2c-.7.5-1.4.9-2.1,1.4-.1-.2-.9.4-1.7,1.1Z" transform="translate(-10.15 -9.79)"/><path class="e65fc2be-15d7-41e7-9bc3-c68c04743679" d="M118.2,121.6a4.49,4.49,0,0,1-1.1-1.3l-.7,1.9a7.15,7.15,0,0,1-6.6,4.6h-7.5a7,7,0,0,1-6.6-4.7l-.2-.6a4.81,4.81,0,0,1-1.2-1.6l-.8,2.3a7.15,7.15,0,0,1-6.6,4.6H79.4a6.92,6.92,0,0,1-6.6-4.6l-.2-.6a7.16,7.16,0,0,1-1.6-2.5l-12.9-36a7.26,7.26,0,0,1,.9-6.4,7,7,0,0,1,5.7-2.9h9.6a7,7,0,0,1,6.6,4.8l.1.4a9.06,9.06,0,0,1,1.3,1.9l.9-2.5a7.15,7.15,0,0,1,6.6-4.6h6.5a7,7,0,0,1,6.6,4.8l.1.4a9.86,9.86,0,0,1,1.3,2l.8-2.4a6.87,6.87,0,0,1,6.6-4.8h8.9c.4,0,.7.1,1.1.1a4.1,4.1,0,0,1,1.1-.1h6.1L122,62.3a2.62,2.62,0,0,1,4.5-2.7l1.6,2.6.9-.7c1.6-1.1,3.3-2.2,5-3.4L118.5,32.2,15.5,93.9l40.6,67.8,63.2-37.8A7,7,0,0,1,118.2,121.6Z" transform="translate(-10.15 -9.79)"/><path class="b4a80db6-54d1-4237-9e21-8d4a6eea51fe" d="M65.5,103.7,58.1,83.1a6.24,6.24,0,0,1-.3-3.3l-1.1-1.9a1.58,1.58,0,0,0-2.1-.5l-2.3,1.3a1.58,1.58,0,0,0-.5,2.1Z" transform="translate(-10.15 -9.79)"/><path class="b4a80db6-54d1-4237-9e21-8d4a6eea51fe" d="M95.5,121.5a4.81,4.81,0,0,1-1.2-1.6l-.8,2.3a5.36,5.36,0,0,1-.5,1.1,11.79,11.79,0,0,0,6.6,3,7.15,7.15,0,0,1-3.9-4.1Z" transform="translate(-10.15 -9.79)"/><path class="b4a80db6-54d1-4237-9e21-8d4a6eea51fe" d="M74.3,73.8a7,7,0,0,1,6.6,4.8l.1.4a9.06,9.06,0,0,1,1.3,1.9l.9-2.5a7.15,7.15,0,0,1,6.6-4.6h6.5a7,7,0,0,1,6.6,4.8l.1.4a9.86,9.86,0,0,1,1.3,2l.8-2.4a6.87,6.87,0,0,1,6.6-4.8h8.9c.4,0,.7.1,1,.1L111.3,56.6a11.37,11.37,0,0,0-15.6-3.9L72,66.9a11.53,11.53,0,0,0-5.2,6.9Z" transform="translate(-10.15 -9.79)"/><path class="b4a80db6-54d1-4237-9e21-8d4a6eea51fe" d="M41.1,87.2a1.58,1.58,0,0,0-2.1-.5l-2.3,1.4a1.58,1.58,0,0,0-.5,2.1l33,55.1a1.58,1.58,0,0,0,2.1.5l2.3-1.4a1.41,1.41,0,0,0,.5-2.1Z" transform="translate(-10.15 -9.79)"/><path class="b4a80db6-54d1-4237-9e21-8d4a6eea51fe" d="M33.4,91.7a1.58,1.58,0,0,0-2.1-.5L29,92.6a1.58,1.58,0,0,0-.5,2.1l33,55.2a1.58,1.58,0,0,0,2.1.5l2.3-1.3a1.7,1.7,0,0,0,.5-2.2Z" transform="translate(-10.15 -9.79)"/><path class="b4a80db6-54d1-4237-9e21-8d4a6eea51fe" d="M85.9,126.8H79.3l5.5,9.2a1.58,1.58,0,0,0,2.1.5l2.3-1.4a1.48,1.48,0,0,0,.5-2Z" transform="translate(-10.15 -9.79)"/><path class="b4a80db6-54d1-4237-9e21-8d4a6eea51fe" d="M73.8,124.1a4.73,4.73,0,0,1-.7-1.2L48.9,82.4a1.58,1.58,0,0,0-2.1-.5l-2.3,1.4a1.58,1.58,0,0,0-.5,2.1l33,55.3a1.58,1.58,0,0,0,2.1.5l2.3-1.4a1.6,1.6,0,0,0,.5-2.2Z" transform="translate(-10.15 -9.79)"/><path class="ec5097fa-b3ac-4ecb-b19c-06129d1d0ac9" d="M131,73.8h.9a7.19,7.19,0,0,1,5.2,2.3c1.6-1.2,3.5-2.5,5.5-3.9.6-.5,1.4-1,2.1-1.5s1.5-1,2.2-1.5l1.8-1.2c.1-.1.2-.1.3-.2,7.1-4.7,15.6-10,24.9-15.3.8-.4,1.5-.8,2.2-1.2,21.8-12.3,47.6-24.2,68.8-27.4,1-.2,1.9-.3,2.8-.4.7-.1,1.4-.1,2.1-.2s1.3-.1,1.9-.1c18.6-1.1,31.6,5,42.3,15.9,1.1,1.1,2.1,2.2,3.1,3.4.3.4.7.8,1,1.2-10-14-19.5-28.2-40-32.7C223.2,3.4,172,33.1,138.3,55.1a16.44,16.44,0,0,0-2.2,1.4,16.44,16.44,0,0,0-2.2,1.4c-1.7,1.2-3.4,2.3-5,3.4l-.9.7-2,1.6a1.06,1.06,0,0,0-.2,1.2Z" transform="translate(-10.15 -9.79)"/><path class="e65fc2be-15d7-41e7-9bc3-c68c04743679" d="M521.8,102.3a10.63,10.63,0,0,0-1.1-.9,1.61,1.61,0,0,0,.4-.7l2.4-5.9a2.61,2.61,0,0,0-.9-3,19.71,19.71,0,0,0-5.5-2.5,21.46,21.46,0,0,0-6.1-.9,18.31,18.31,0,0,0-6.8,1.2,12,12,0,0,0-5.1,3.7c-.1.1-.2.3-.3.4V80.6a2.48,2.48,0,0,0-2.5-2.5h-9.1a2.48,2.48,0,0,0-2.5,2.5v8.8a12.55,12.55,0,0,0-5.1-1,13.34,13.34,0,0,0-7.1,2l-1.2.9v-.6a2.49,2.49,0,0,0-.8-1.7,2.47,2.47,0,0,0-1.8-.6l-.8.1-1.6.1a12.57,12.57,0,0,0-5.6,1.5,2.46,2.46,0,0,0-2-1H450a2.48,2.48,0,0,0-2.5,2.5V96a11.09,11.09,0,0,0-2.6-4,12.38,12.38,0,0,0-1.8-1.4,17,17,0,0,0-8.7-2,24.2,24.2,0,0,0-6.7,1c-1,.3-2,.6-2.8.9v-.1a2.36,2.36,0,0,0-2.1-1.1h-9a2.53,2.53,0,0,0-2.3,1.5L408,99l-3.3-8.4a2.62,2.62,0,0,0-2.3-1.6h-9.5a2.61,2.61,0,0,0-2.1,1.1c0,.1-.1.1-.1.2a9.41,9.41,0,0,0-4.1-1.7,12.65,12.65,0,0,0-2.8-.3,12,12,0,0,0-5.7,1.3c-.1.1-.3.1-.4.2a2.65,2.65,0,0,0-1.9-.9h-8.9a2.48,2.48,0,0,0-2.5,2.5v4.4a11.09,11.09,0,0,0-2.6-4,12.38,12.38,0,0,0-1.8-1.4,17,17,0,0,0-8.7-2,24.2,24.2,0,0,0-6.7,1,24.92,24.92,0,0,0-6.1,2.5,2.4,2.4,0,0,0-1,3l2.3,6a2.19,2.19,0,0,0,.3.5,6.55,6.55,0,0,0-1.8,1.5,7.68,7.68,0,0,0-1.8,3.6H324.3v-26a2.48,2.48,0,0,0-2.5-2.5h-9.4a2.48,2.48,0,0,0-2.5,2.5V96.4a13.6,13.6,0,0,0-2.4-3.8,11.23,11.23,0,0,0-2-1.8,14.34,14.34,0,0,0-8.4-2.4,15.23,15.23,0,0,0-7.7,2,13.12,13.12,0,0,0-5.3,5.4V80.6a2.48,2.48,0,0,0-2.5-2.5h-9.1a2.48,2.48,0,0,0-2.5,2.5V95.8a11.09,11.09,0,0,0-2.6-4c-.6-.5-1.2-1-1.9-1.5a16.83,16.83,0,0,0-8.6-2,24.2,24.2,0,0,0-6.7,1,24.92,24.92,0,0,0-6.1,2.5c-.1,0-.1.1-.2.2-.1-.1-.2-.1-.3-.2a27.54,27.54,0,0,0-3.8-2c-.5-.2-1.1-.4-1.7-.6a21.46,21.46,0,0,0-6.1-.9,18.31,18.31,0,0,0-6.8,1.2,12,12,0,0,0-5.1,3.7,11.78,11.78,0,0,0-1.1,1.9,14.37,14.37,0,0,0-1.8-2.5,15.38,15.38,0,0,0-1.3-1.2,13.86,13.86,0,0,0-9.1-3,15.23,15.23,0,0,0-7.7,2,13.12,13.12,0,0,0-5.3,5.4V80.6a2.48,2.48,0,0,0-2.5-2.5h-9.1a2.48,2.48,0,0,0-2.5,2.5V95.8a.1.1,0,0,0-.1-.1,13.49,13.49,0,0,0-4.5-4.7,6.38,6.38,0,0,0-1.4-.8,19,19,0,0,0-8.5-1.9,18,18,0,0,0-8.5,1.9,13.42,13.42,0,0,0-5.8,5.5,3,3,0,0,0-.4.8,11,11,0,0,0-2.2-4.6l-.2-.2c-2-2.3-4.8-3.4-8.5-3.4a13.22,13.22,0,0,0-5.3,1.1V80.5a2.48,2.48,0,0,0-2.5-2.5h-9.1a2,2,0,0,0-1.1.3,2,2,0,0,0-1.1-.3h-8.9a2.59,2.59,0,0,0-2.4,1.7l-5.5,16.2L98.3,79.7A2.26,2.26,0,0,0,96,78H89.5a2.41,2.41,0,0,0-2.3,1.6l-5.7,16L76.3,79.7A2.37,2.37,0,0,0,74,78H64.4a2.31,2.31,0,0,0-2,1.1,2.67,2.67,0,0,0-.3,2.3l12.9,36a2.47,2.47,0,0,0,2.3,1.6h7.5a2.41,2.41,0,0,0,2.3-1.6l5.4-15.1,5.3,15a2.47,2.47,0,0,0,2.3,1.6h7.5a2.51,2.51,0,0,0,2.3-1.6l5.7-16,4.5-12.6v27.9a2.48,2.48,0,0,0,2.5,2.5h9.1a2.48,2.48,0,0,0,2.5-2.5v-14a2.57,2.57,0,0,1,.5-1.8,1.85,1.85,0,0,1,1.4-.5h.4a3.35,3.35,0,0,1,.3,1.8v14.5a2.48,2.48,0,0,0,2.5,2.5h9.1a2.57,2.57,0,0,0,2.4-2.5v-4.3a14.55,14.55,0,0,0,5.7,5.3,18.89,18.89,0,0,0,8.4,1.9,18,18,0,0,0,8.5-1.9c.5-.3,1-.5,1.4-.8a14.15,14.15,0,0,0,4.4-4.7v4.6a2.48,2.48,0,0,0,2.5,2.5h9.1a2.41,2.41,0,0,0,1.7-.7,2.74,2.74,0,0,0,.8-1.8v-4.5a13.63,13.63,0,0,0,5.9,5.5,19.13,19.13,0,0,0,8.6,1.9,20.79,20.79,0,0,0,6-.9h.2a15.55,15.55,0,0,0,4.5-2.1,19.64,19.64,0,0,0,5.3,2.2,28.18,28.18,0,0,0,7.3.8,17.81,17.81,0,0,0,8.5-1.9,4.13,4.13,0,0,0,1.1-.7,10,10,0,0,0,2.3-2.3,11,11,0,0,0,4.1,3.6,12.37,12.37,0,0,0,5.8,1.3,10.61,10.61,0,0,0,4.8-1.1,2.41,2.41,0,0,0,1.7.7H268a2.61,2.61,0,0,0,2-1,2.46,2.46,0,0,0,2,1h9.1a2.41,2.41,0,0,0,1.7-.7,2.74,2.74,0,0,0,.8-1.8v-4.5a13.63,13.63,0,0,0,5.9,5.5,19.13,19.13,0,0,0,8.6,1.9,20.29,20.29,0,0,0,6-.9,4.87,4.87,0,0,0,1.1-.4,16.67,16.67,0,0,0,4.2-2.2h0v.6a2.48,2.48,0,0,0,2.5,2.5h24.7a2.48,2.48,0,0,0,2.5-2.5v-.2a10.06,10.06,0,0,0,2.5,1.7,12.37,12.37,0,0,0,5.8,1.3,10.61,10.61,0,0,0,4.8-1.1,2.41,2.41,0,0,0,1.7.7h8.6a2.61,2.61,0,0,0,2-1,2.46,2.46,0,0,0,2,1h9.1a2.48,2.48,0,0,0,2.5-2.5v-14a2.57,2.57,0,0,1,.5-1.8,1.85,1.85,0,0,1,1.4-.5h.4a3.35,3.35,0,0,1,.3,1.8v14.5a2.48,2.48,0,0,0,2.5,2.5h9.1a3,3,0,0,0,1-.2,2.58,2.58,0,0,0,1.5-2.3V102.7l5.3,12.1-4.6,9.9a2.32,2.32,0,0,0,.2,2.4,2.57,2.57,0,0,0,2.1,1.2H407a2.53,2.53,0,0,0,2.3-1.5l6-13.3,6.5-14.6.8,1.9a2.19,2.19,0,0,0,.3.5,6.55,6.55,0,0,0-1.8,1.5,8.86,8.86,0,0,0-2,6,10.13,10.13,0,0,0,1.6,5.6,10.61,10.61,0,0,0,4.3,3.8,12.37,12.37,0,0,0,5.8,1.3,10.61,10.61,0,0,0,4.8-1.1,2.41,2.41,0,0,0,1.7.7h8.6a2.61,2.61,0,0,0,2-1,2.46,2.46,0,0,0,2,1H459a2.48,2.48,0,0,0,2.5-2.5V103.5a2,2,0,0,1,.5-1.4,5.08,5.08,0,0,1,2.6-.8l1.6-.2a24.52,24.52,0,0,0-.2,2.7,19.11,19.11,0,0,0,1.7,8,14.36,14.36,0,0,0,4.9,5.7,12.51,12.51,0,0,0,7.1,2,12.24,12.24,0,0,0,5.7-1.3h.1a2.32,2.32,0,0,0,1.9.9h9a2.39,2.39,0,0,0,2.4-2.1,18.33,18.33,0,0,0,4.5,1.7,28.18,28.18,0,0,0,7.3.8,16.63,16.63,0,0,0,9.7-2.6,9.41,9.41,0,0,0,4-7.9A8.82,8.82,0,0,0,521.8,102.3Z" transform="translate(-10.15 -9.79)"/><path class="a4b3ffa6-6cf9-41cf-891f-6cd8d6f729bd" d="M120.2,80.5h.3l-.3.9-12.6,35.1h-7.5L92.5,95l-7.7,21.6H77.3l-12.9-36H74l7.5,22.9,8.1-22.9h6.5l7.7,23.3,7.8-23.3,8.6-.1Zm19.4,10.3a11.3,11.3,0,0,0-4.5.9,9.69,9.69,0,0,0-3.4,2.7V80.5h-9.1v36h9.1v-14a5,5,0,0,1,1.2-3.5,4.08,4.08,0,0,1,3.2-1.3,3,3,0,0,1,2.4,1,5.71,5.71,0,0,1,.8,3.3v14.5h9.1V101.6c0-3.6-.7-6.4-2.2-8.1S142.6,90.8,139.6,90.8Zm37.7,6.1a13.1,13.1,0,0,1,1.7,6.9,13.83,13.83,0,0,1-1.7,6.9,12.07,12.07,0,0,1-4.9,4.6,17.45,17.45,0,0,1-14.6,0,12.07,12.07,0,0,1-4.9-4.6,13.1,13.1,0,0,1-1.7-6.9,13.56,13.56,0,0,1,1.7-6.9,11.22,11.22,0,0,1,4.9-4.5,15.4,15.4,0,0,1,7.3-1.6,15.13,15.13,0,0,1,7.3,1.6A12.54,12.54,0,0,1,177.3,96.9Zm-7.3,6.9c0-4.2-1.6-6.4-4.9-6.4s-4.9,2.1-4.9,6.4,1.6,6.4,4.9,6.4S170,108,170,103.8Zm12,12.8h9.1v-36H182Zm36-2.6a2.18,2.18,0,0,1-.8.5,19,19,0,0,1-3.8,1.7,20.05,20.05,0,0,1-5.3.8,16,16,0,0,1-7.5-1.6,12.54,12.54,0,0,1-4.9-4.5A13.1,13.1,0,0,1,194,104a13.94,13.94,0,0,1,1.6-6.8,12,12,0,0,1,4.5-4.7,12.79,12.79,0,0,1,6.5-1.6,11.15,11.15,0,0,1,8.6,3.5,12,12,0,0,1,2.9,6.1c0,.3.1.6.1,1a19.27,19.27,0,0,1,.1,2.4v2H202.8a5.59,5.59,0,0,0,1.8,3.5,6.36,6.36,0,0,0,4,1.1,11.93,11.93,0,0,0,3.7-.6,13.53,13.53,0,0,0,3.4-1.7l1.8,4.6Zm-15.3-12.6h8q-.3-4.5-3.9-4.5C204.4,96.9,203.1,98.4,202.7,101.4Zm39.4,4.4a5.67,5.67,0,0,0-1.2-1.8,11.62,11.62,0,0,0-5.8-2.7l-4.2-1a7.35,7.35,0,0,1-1.8-.6.82.82,0,0,1-.5-.8,1.44,1.44,0,0,1,.8-1.3,4.74,4.74,0,0,1,2.3-.4,11.51,11.51,0,0,1,3.9.7,14.15,14.15,0,0,1,4.1,2l2.4-5.9a19.8,19.8,0,0,0-4.9-2.2,20.17,20.17,0,0,0-5.4-.8,18.23,18.23,0,0,0-5.9,1,8.68,8.68,0,0,0-4,2.9,7.14,7.14,0,0,0-1.4,4.3,6.52,6.52,0,0,0,1.7,4.8,10.85,10.85,0,0,0,5.5,2.5l4.1.9a8.06,8.06,0,0,1,2.4.8,1.1,1.1,0,0,1,.6,1,1.41,1.41,0,0,1-.8,1.2,4.74,4.74,0,0,1-2.3.4,18,18,0,0,1-5-.8,18.2,18.2,0,0,1-4.7-2.1l-2.3,6.2a16.66,16.66,0,0,0,5.2,2.3,28,28,0,0,0,6.7.8c3.5,0,6.2-.7,8.2-2.1a5.78,5.78,0,0,0,2.4-3,6.82,6.82,0,0,0,.5-2.9A8.29,8.29,0,0,0,242.1,105.8Zm23.4-12.3c1.9,1.8,2.8,4.7,2.8,8.5v14.5h-8.5V113a6.19,6.19,0,0,1-2.4,2.9,7.59,7.59,0,0,1-4.1,1.1,10.49,10.49,0,0,1-4.7-1.1,8.48,8.48,0,0,1-3.3-2.9,7.63,7.63,0,0,1-1.2-4.2,6.53,6.53,0,0,1,1.4-4.3,7.41,7.41,0,0,1,4.5-2.3,36.53,36.53,0,0,1,8.3-.7h1.4v-.6a3.27,3.27,0,0,0-.9-2.6,4.81,4.81,0,0,0-3.1-.8,12.49,12.49,0,0,0-4,.7,23,23,0,0,0-4.3,1.8l-2.3-6a21.72,21.72,0,0,1,5.5-2.2,23.1,23.1,0,0,1,6.1-.9C260.7,90.8,263.6,91.7,265.5,93.5Zm-5.8,12.1h-.8a13.3,13.3,0,0,0-4.7.6,2.13,2.13,0,0,0-1.4,2,3,3,0,0,0,.8,2,2.56,2.56,0,0,0,1.9.8,3.8,3.8,0,0,0,3-1.3,4.79,4.79,0,0,0,1.2-3.3v-.8Zm12.6,11h9.1v-36h-9.1Zm33.3-22.3c2.1,2.3,3.2,5.4,3.2,9.4v2H293.3a5.59,5.59,0,0,0,1.8,3.5,6.36,6.36,0,0,0,4,1.1,11.93,11.93,0,0,0,3.7-.6,13.53,13.53,0,0,0,3.4-1.7l2.3,6a17.15,17.15,0,0,1-4.5,2.2,20.05,20.05,0,0,1-5.3.8,16,16,0,0,1-7.5-1.6,12.54,12.54,0,0,1-4.9-4.5,13.1,13.1,0,0,1-1.7-6.9,13.94,13.94,0,0,1,1.6-6.8,12,12,0,0,1,4.5-4.7,12.79,12.79,0,0,1,6.5-1.6A10.41,10.41,0,0,1,305.6,94.3Zm-4.5,7.1q-.3-4.5-3.9-4.5c-2.4,0-3.8,1.5-4.1,4.5Zm35.1,7.5H321.7V80.5h-9.4v36H337v-7.6Zm23.9-15.4c1.9,1.8,2.8,4.7,2.8,8.5v14.5h-8.5V113a6.19,6.19,0,0,1-2.4,2.9,7.59,7.59,0,0,1-4.1,1.1,10.49,10.49,0,0,1-4.7-1.1,8.48,8.48,0,0,1-3.3-2.9,7.63,7.63,0,0,1-1.2-4.2,6.53,6.53,0,0,1,1.4-4.3,7.41,7.41,0,0,1,4.5-2.3,36.53,36.53,0,0,1,8.3-.7h1.4v-.6a3.27,3.27,0,0,0-.9-2.6,4.81,4.81,0,0,0-3.1-.8,12.49,12.49,0,0,0-4,.7A23,23,0,0,0,342,100l-2.3-6a21.72,21.72,0,0,1,5.5-2.2,23.1,23.1,0,0,1,6.1-.9C355.2,90.8,358.2,91.7,360.1,93.5Zm-5.9,12.1h-.8a13.3,13.3,0,0,0-4.7.6,2.13,2.13,0,0,0-1.4,2,3,3,0,0,0,.8,2,2.56,2.56,0,0,0,1.9.8,3.8,3.8,0,0,0,3-1.3,4.79,4.79,0,0,0,1.2-3.3Zm29.5-14.8a12.36,12.36,0,0,0-4.7,1,8.92,8.92,0,0,0-3.4,3V91.4h-8.9v25.2h9.2v-14a5,5,0,0,1,1.2-3.5,4.08,4.08,0,0,1,3.2-1.3,3,3,0,0,1,2.4,1,5.71,5.71,0,0,1,.8,3.3v14.5h9.1v-15c0-3.6-.7-6.4-2.2-8.1S386.8,90.8,383.7,90.8Zm30.1.7L408,105.6l-5.5-14.1H393l10.3,23.3-5.1,10.9h9.2l13.5-30.1,1.9-4.1h-9Zm29.4,2c1.9,1.8,2.8,4.7,2.8,8.5v14.5h-8.5V113a6.19,6.19,0,0,1-2.4,2.9A7.59,7.59,0,0,1,431,117a10.49,10.49,0,0,1-4.7-1.1A8.48,8.48,0,0,1,423,113a7.63,7.63,0,0,1-1.2-4.2,6.53,6.53,0,0,1,1.4-4.3,7.41,7.41,0,0,1,4.5-2.3,36.53,36.53,0,0,1,8.3-.7h1.4v-.6a3.27,3.27,0,0,0-.9-2.6,4.81,4.81,0,0,0-3.1-.8,12.49,12.49,0,0,0-4,.7,23,23,0,0,0-4.3,1.8l-2.3-6a21.72,21.72,0,0,1,5.5-2.2,23.1,23.1,0,0,1,6.1-.9C438.4,90.8,441.3,91.7,443.2,93.5Zm-5.8,12.1h-.8a13.3,13.3,0,0,0-4.7.6,2.13,2.13,0,0,0-1.4,2,3,3,0,0,0,.8,2,2.56,2.56,0,0,0,1.9.8,3.8,3.8,0,0,0,3-1.3,4.79,4.79,0,0,0,1.2-3.3Zm31.6-12-.2-2.9-2.5.2a10.77,10.77,0,0,0-4.9,1.3,6.09,6.09,0,0,0-2.8,3.5V91.3H450v25.2h9.1V103.9a4.89,4.89,0,0,1,1.2-3.6,6.79,6.79,0,0,1,4.1-1.6l2.4-.2,2.6-.3Zm27.3,19.8v3.1h-8.9v-3.4a7.35,7.35,0,0,1-3.2,2.8,11,11,0,0,1-10.3-.6,11.57,11.57,0,0,1-4-4.7,16.66,16.66,0,0,1-1.4-6.9,16.18,16.18,0,0,1,1.4-6.8,9.8,9.8,0,0,1,4-4.5,10.33,10.33,0,0,1,5.8-1.6,9.49,9.49,0,0,1,7.6,3.6V80.5h9.1l-.1,32.9Zm-8.9-9.6a6.83,6.83,0,0,0-1.3-4.6,4.32,4.32,0,0,0-3.7-1.6,4.44,4.44,0,0,0-3.7,1.6,7.51,7.51,0,0,0-1.3,4.5,7.8,7.8,0,0,0,1.3,4.8,4.86,4.86,0,0,0,7.3.1A6.89,6.89,0,0,0,487.4,103.8Zm26.9-2.5-4.2-1a7.35,7.35,0,0,1-1.8-.6.82.82,0,0,1-.5-.8,1.44,1.44,0,0,1,.8-1.3,4.74,4.74,0,0,1,2.3-.4,11.51,11.51,0,0,1,3.9.7,14.15,14.15,0,0,1,4.1,2l2.4-5.9a19.8,19.8,0,0,0-4.9-2.2A20.17,20.17,0,0,0,511,91a18.23,18.23,0,0,0-5.9,1,8.68,8.68,0,0,0-4,2.9,7.14,7.14,0,0,0-1.4,4.3,6.52,6.52,0,0,0,1.7,4.8,10.85,10.85,0,0,0,5.5,2.5l4.1.9a8.06,8.06,0,0,1,2.4.8,1.1,1.1,0,0,1,.6,1,1.41,1.41,0,0,1-.8,1.2,4.74,4.74,0,0,1-2.3.4,18,18,0,0,1-5-.8,18.2,18.2,0,0,1-4.7-2.1l-2.3,6.2a16.66,16.66,0,0,0,5.2,2.3,28,28,0,0,0,6.7.8c3.5,0,6.2-.7,8.2-2.1a6.83,6.83,0,0,0,3-5.9,6.57,6.57,0,0,0-1.8-4.9C518.9,102.8,517,101.9,514.3,101.3Z" transform="translate(-10.15 -9.79)"/></svg>