<?xml version="1.0" encoding="utf-8"?>
<!-- Generator: Adobe Illustrator 25.3.1, SVG Export Plug-In . SVG Version: 6.00 Build 0)  -->
<svg version="1.1" id="Layer_1" xmlns="http://www.w3.org/2000/svg" xmlns:xlink="http://www.w3.org/1999/xlink" x="0px" y="0px"
	 viewBox="0 0 595.9 172.9" style="enable-background:new 0 0 595.9 172.9;" xml:space="preserve">
<style type="text/css">
	.st0{fill:#231F20;}
	.st1{fill:#FFFFFF;}
	.st2{opacity:0.76;fill:url(#SVGID_1_);enable-background:new    ;}
	.st3{fill:url(#SVGID_2_);}
	.st4{fill:url(#SVGID_3_);}
	.st5{fill:url(#SVGID_4_);}
	.st6{fill:url(#SVGID_5_);}
	.st7{fill:#404040;}
	.st8{fill:#E3E3E3;}
	.st9{fill:url(#SVGID_6_);}
	.st10{fill:#ED1C24;}
</style>
<path class="st0" d="M522,140.8v-3.1c0-2.1-0.5-3.7-1.4-4.8c-1-1.2-2.5-1.9-4.2-1.9c-1.1,0-2.1,0.3-3,0.8c-0.1,0-0.1,0.1-0.2,0.1
	c-0.1-0.1-0.2-0.1-0.2-0.2c-0.8-0.5-1.8-0.8-2.9-0.8c-0.9,0-1.7,0.2-2.4,0.5c-0.3-0.2-0.6-0.3-1-0.3h-4.5c-0.8,0-1.5,0.5-1.8,1.2
	c-1.2-0.9-2.7-1.4-4.5-1.4c-2.2,0-4.1,0.8-5.4,2.3c0,0,0-0.1-0.1-0.1c-0.7-0.7-1.5-1.3-2.5-1.6c-0.9-0.4-2-0.5-3.2-0.5
	c-2.3,0-4.2,0.8-5.5,2.3c-1.3,1.4-1.9,3.3-1.9,5.4v0.3c0,0.3,0,0.5,0,0.8h-2.8c-1.1,0-2,0.9-2,2v2.7c0,1.1,0.9,2,2,2h3
	c1,0,1.8-0.7,2-1.7c1,0.9,2.6,1.9,5.1,1.9c1.8,0,3.4-0.6,4.6-1.6c0.4-0.3,0.7-0.7,0.9-1c0.1,0.1,0.2,0.3,0.3,0.4
	c1.3,1.5,3.2,2.3,5.4,2.3c1.8,0,3.4-0.5,4.6-1.5c0.3,0.8,1,1.3,1.9,1.3h5.8c0.2,0,0.3,0,0.5-0.1c0.2,0,0.3,0.1,0.5,0.1h5.5
	c0.2,0,0.3,0,0.5-0.1c0.2,0,0.3,0.1,0.5,0.1h5.8c1.1,0,2-0.9,2-2v-1.8C523.4,141.9,522.8,141.1,522,140.8z"/>
<path class="st0" d="M149.2,78.1L149.2,78.1C149.2,78,149.2,78.1,149.2,78.1L149.2,78.1z"/>
<g>
	<g>
		<path class="st1" d="M477.5,144.6h-3v-2.7h3V144.6z"/>
	</g>
	<g>
		<path class="st1" d="M484.5,142.5c0.5,0,1-0.2,1.3-0.5s0.5-0.7,0.5-1.3h2.8v0.1c0,1.1-0.4,2.1-1.3,2.9c-0.9,0.8-2,1.2-3.3,1.2
			c-1.7,0-3-0.5-3.9-1.6s-1.4-2.4-1.4-4.1v-0.3c0-1.7,0.5-3,1.4-4.1s2.3-1.6,4-1.6c0.9,0,1.7,0.1,2.5,0.4c0.7,0.3,1.3,0.7,1.8,1.2v3
			h-2.5l-0.5-1.8c-0.2-0.1-0.3-0.2-0.6-0.3c-0.2-0.1-0.5-0.1-0.8-0.1c-0.9,0-1.5,0.3-1.8,0.9c-0.4,0.6-0.5,1.4-0.5,2.4v0.3
			c0,1,0.2,1.8,0.5,2.4C483.1,142.2,483.7,142.5,484.5,142.5z"/>
	</g>
	<g>
		<path class="st1" d="M490.5,138.8c0-1.7,0.5-3.1,1.4-4.1c0.9-1.1,2.3-1.6,3.9-1.6c1.7,0,3,0.5,3.9,1.6s1.4,2.5,1.4,4.2v0.2
			c0,1.7-0.5,3.1-1.4,4.2c-0.9,1.1-2.2,1.6-3.9,1.6c-1.7,0-3-0.5-3.9-1.6s-1.4-2.5-1.4-4.2V138.8z M493.5,139c0,1,0.2,1.9,0.5,2.5
			s0.9,0.9,1.8,0.9c0.8,0,1.4-0.3,1.7-0.9c0.4-0.6,0.5-1.5,0.5-2.5v-0.2c0-1-0.2-1.8-0.6-2.5c-0.4-0.6-1-1-1.7-1
			c-0.8,0-1.4,0.3-1.7,1s-0.5,1.5-0.5,2.5L493.5,139L493.5,139z"/>
	</g>
	<g>
		<path class="st1" d="M502.1,135.1v-1.8h4.5l0.1,1.5c0.4-0.5,0.8-1,1.4-1.3c0.5-0.3,1.2-0.4,1.9-0.4c0.7,0,1.3,0.2,1.9,0.5
			c0.5,0.3,0.9,0.8,1.2,1.5c0.3-0.6,0.8-1.1,1.4-1.4c0.6-0.3,1.2-0.5,2-0.5c1.1,0,2,0.4,2.6,1.2s1,1.9,1,3.5v4.7l1.5,0.3v1.8h-5.8
			v-1.8l1.3-0.3v-4.7c0-0.9-0.1-1.5-0.4-1.8c-0.3-0.3-0.7-0.5-1.2-0.5c-0.4,0-0.8,0.1-1.1,0.3s-0.6,0.5-0.8,0.8c0,0.1,0,0.2,0,0.3
			s0,0.2,0,0.3v5.3l1.2,0.3v1.8h-5.5v-1.8l1.2-0.3v-4.7c0-0.8-0.1-1.4-0.4-1.8c-0.3-0.3-0.7-0.5-1.3-0.5c-0.4,0-0.8,0.1-1.1,0.2
			s-0.6,0.4-0.8,0.7v6.1l1.3,0.3v1.8h-5.8v-1.8l1.5-0.3v-7L502.1,135.1z"/>
	</g>
</g>
<g>
	<g>
		<path class="st1" d="M477.5,144.6h-3v-2.7h3V144.6z"/>
	</g>
	<g>
		<path class="st1" d="M484.5,142.5c0.5,0,1-0.2,1.3-0.5s0.5-0.7,0.5-1.3h2.8v0.1c0,1.1-0.4,2.1-1.3,2.9c-0.9,0.8-2,1.2-3.3,1.2
			c-1.7,0-3-0.5-3.9-1.6s-1.4-2.4-1.4-4.1v-0.3c0-1.7,0.5-3,1.4-4.1s2.3-1.6,4-1.6c0.9,0,1.7,0.1,2.5,0.4c0.7,0.3,1.3,0.7,1.8,1.2v3
			h-2.5l-0.5-1.8c-0.2-0.1-0.3-0.2-0.6-0.3c-0.2-0.1-0.5-0.1-0.8-0.1c-0.9,0-1.5,0.3-1.8,0.9c-0.4,0.6-0.5,1.4-0.5,2.4v0.3
			c0,1,0.2,1.8,0.5,2.4C483.1,142.2,483.7,142.5,484.5,142.5z"/>
	</g>
	<g>
		<path class="st1" d="M490.5,138.8c0-1.7,0.5-3.1,1.4-4.1c0.9-1.1,2.3-1.6,3.9-1.6c1.7,0,3,0.5,3.9,1.6s1.4,2.5,1.4,4.2v0.2
			c0,1.7-0.5,3.1-1.4,4.2c-0.9,1.1-2.2,1.6-3.9,1.6c-1.7,0-3-0.5-3.9-1.6s-1.4-2.5-1.4-4.2V138.8z M493.5,139c0,1,0.2,1.9,0.5,2.5
			s0.9,0.9,1.8,0.9c0.8,0,1.4-0.3,1.7-0.9c0.4-0.6,0.5-1.5,0.5-2.5v-0.2c0-1-0.2-1.8-0.6-2.5c-0.4-0.6-1-1-1.7-1
			c-0.8,0-1.4,0.3-1.7,1s-0.5,1.5-0.5,2.5L493.5,139L493.5,139z"/>
	</g>
	<g>
		<path class="st1" d="M502.1,135.1v-1.8h4.5l0.1,1.5c0.4-0.5,0.8-1,1.4-1.3c0.5-0.3,1.2-0.4,1.9-0.4c0.7,0,1.3,0.2,1.9,0.5
			c0.5,0.3,0.9,0.8,1.2,1.5c0.3-0.6,0.8-1.1,1.4-1.4c0.6-0.3,1.2-0.5,2-0.5c1.1,0,2,0.4,2.6,1.2s1,1.9,1,3.5v4.7l1.5,0.3v1.8h-5.8
			v-1.8l1.3-0.3v-4.7c0-0.9-0.1-1.5-0.4-1.8c-0.3-0.3-0.7-0.5-1.2-0.5c-0.4,0-0.8,0.1-1.1,0.3s-0.6,0.5-0.8,0.8c0,0.1,0,0.2,0,0.3
			s0,0.2,0,0.3v5.3l1.2,0.3v1.8h-5.5v-1.8l1.2-0.3v-4.7c0-0.8-0.1-1.4-0.4-1.8c-0.3-0.3-0.7-0.5-1.3-0.5c-0.4,0-0.8,0.1-1.1,0.2
			s-0.6,0.4-0.8,0.7v6.1l1.3,0.3v1.8h-5.8v-1.8l1.5-0.3v-7L502.1,135.1z"/>
	</g>
</g>
<path class="st0" d="M125.4,64.2"/>
<linearGradient id="SVGID_1_" gradientUnits="userSpaceOnUse" x1="307.9082" y1="71.3203" x2="311.5967" y2="63.0265">
	<stop  offset="0" style="stop-color:#4D4D4D"/>
	<stop  offset="1" style="stop-color:#B3B3B3"/>
</linearGradient>
<path class="st2" d="M312.3,73.6h1.9c-2.3-4.1-4.5-8.2-6.9-12.2c-0.8,0-1.5-0.1-2.2-0.2c2.6,4.9,4.8,8.9,6.7,12.4
	C312,73.6,312.1,73.6,312.3,73.6z"/>
<g>
	<linearGradient id="SVGID_2_" gradientUnits="userSpaceOnUse" x1="216.4504" y1="172.4108" x2="503.7508" y2="-42.8898">
		<stop  offset="0.2106" style="stop-color:#999999"/>
		<stop  offset="0.3688" style="stop-color:#CCCCCC"/>
		<stop  offset="0.4154" style="stop-color:#C8C8C8"/>
		<stop  offset="0.4622" style="stop-color:#BCBCBC"/>
		<stop  offset="0.4979" style="stop-color:#ADADAD"/>
		<stop  offset="0.5058" style="stop-color:#A9A9A9"/>
		<stop  offset="0.5812" style="stop-color:#858585"/>
		<stop  offset="0.6423" style="stop-color:#6E6E6E"/>
		<stop  offset="0.6813" style="stop-color:#666666"/>
		<stop  offset="0.7359" style="stop-color:#909090"/>
		<stop  offset="0.788" style="stop-color:#B1B1B1"/>
		<stop  offset="0.8314" style="stop-color:#C5C5C5"/>
		<stop  offset="0.8606" style="stop-color:#CCCCCC"/>
		<stop  offset="0.9121" style="stop-color:#CACACA"/>
		<stop  offset="0.9364" style="stop-color:#C2C2C2"/>
		<stop  offset="0.955" style="stop-color:#B5B5B5"/>
		<stop  offset="0.9707" style="stop-color:#A3A3A3"/>
		<stop  offset="0.9846" style="stop-color:#8B8B8B"/>
		<stop  offset="0.997" style="stop-color:#6E6E6E"/>
	</linearGradient>
	<path class="st3" d="M396,84.5h6.4c2.3,0,4.4,1.1,5.7,2.9c1.3-1.8,3.4-2.9,5.7-2.9h5.2C372.4,65,336,51.7,299.9,46
		c3.1,4,6.1,8.4,8.9,13.2C338.8,63.8,370.3,74.5,396,84.5z"/>
	<linearGradient id="SVGID_3_" gradientUnits="userSpaceOnUse" x1="281.2242" y1="258.846" x2="568.5246" y2="43.5455">
		<stop  offset="0.1253" style="stop-color:#999999"/>
		<stop  offset="0.3688" style="stop-color:#CCCCCC"/>
		<stop  offset="0.4154" style="stop-color:#C8C8C8"/>
		<stop  offset="0.4622" style="stop-color:#BCBCBC"/>
		<stop  offset="0.4979" style="stop-color:#ADADAD"/>
		<stop  offset="0.5058" style="stop-color:#A9A9A9"/>
		<stop  offset="0.5836" style="stop-color:#858585"/>
		<stop  offset="0.6423" style="stop-color:#6E6E6E"/>
		<stop  offset="0.6813" style="stop-color:#666666"/>
		<stop  offset="0.7359" style="stop-color:#909090"/>
		<stop  offset="0.788" style="stop-color:#B1B1B1"/>
		<stop  offset="0.8314" style="stop-color:#C5C5C5"/>
		<stop  offset="0.8606" style="stop-color:#CCCCCC"/>
		<stop  offset="0.9121" style="stop-color:#CACACA"/>
		<stop  offset="0.9364" style="stop-color:#C2C2C2"/>
		<stop  offset="0.955" style="stop-color:#B5B5B5"/>
		<stop  offset="0.9707" style="stop-color:#A3A3A3"/>
		<stop  offset="0.9846" style="stop-color:#8B8B8B"/>
		<stop  offset="0.997" style="stop-color:#6E6E6E"/>
	</linearGradient>
	<path class="st4" d="M567.6,50.3c-4.9-6.8-9.9-8.8-15.5-8.5c-14.4,0.9-33.7,17.6-54.8,31.8c2.8,0.4,5,2.4,5.8,5.1
		c1.2,1.3,2,3,2,4.9v0.8c1.8-0.5,3.8-0.7,5.8-0.7c0.3,0,0.5,0,0.8,0c2.9-2,5.7-4.1,8.6-6.2c2.8-2,5.5-4,8.3-6c2.6-1.9,5.3-3.7,8-5.5
		c2.5-1.6,5-3.2,7.6-4.7c2.3-1.3,4.8-2.5,7.2-3.5c2.2-0.9,4.5-1.7,6.8-2.1c2.1-0.4,4.2-0.5,6.3-0.4c3.1,0.3,6.3,1.7,8.7,3.6
		c0.4,0.3,0.8,0.7,1.2,1.1c0.4,0.4,0.9,0.9,1.3,1.3C574.4,59.3,571.6,55.8,567.6,50.3z"/>
	<linearGradient id="SVGID_4_" gradientUnits="userSpaceOnUse" x1="168.6954" y1="108.6858" x2="455.9958" y2="-106.6147">
		<stop  offset="0.2106" style="stop-color:#999999"/>
		<stop  offset="0.3688" style="stop-color:#CCCCCC"/>
		<stop  offset="0.4154" style="stop-color:#C8C8C8"/>
		<stop  offset="0.4622" style="stop-color:#BCBCBC"/>
		<stop  offset="0.4979" style="stop-color:#ADADAD"/>
		<stop  offset="0.5058" style="stop-color:#A9A9A9"/>
		<stop  offset="0.5812" style="stop-color:#858585"/>
		<stop  offset="0.6423" style="stop-color:#6E6E6E"/>
		<stop  offset="0.6813" style="stop-color:#666666"/>
		<stop  offset="0.7359" style="stop-color:#909090"/>
		<stop  offset="0.788" style="stop-color:#B1B1B1"/>
		<stop  offset="0.8314" style="stop-color:#C5C5C5"/>
		<stop  offset="0.8606" style="stop-color:#CCCCCC"/>
		<stop  offset="0.9121" style="stop-color:#CACACA"/>
		<stop  offset="0.9364" style="stop-color:#C2C2C2"/>
		<stop  offset="0.955" style="stop-color:#B5B5B5"/>
		<stop  offset="0.9707" style="stop-color:#A3A3A3"/>
		<stop  offset="0.9846" style="stop-color:#8B8B8B"/>
		<stop  offset="0.997" style="stop-color:#6E6E6E"/>
		<stop  offset="1" style="stop-color:#666666"/>
	</linearGradient>
	<path class="st5" d="M163,73.9c1.3-0.4,2.5-0.7,3.8-1.1c1.3-0.4,2.5-0.7,3.8-1.1c1.3-0.3,2.5-0.7,3.8-1c1.1-0.3,2.3-0.6,3.5-0.9
		c0.2-0.1,0.5-0.1,0.7-0.2c1.1-0.3,2.3-0.6,3.4-0.9c1.3-0.3,2.5-0.7,3.8-1c3.8-1,7.6-1.8,11.4-2.7c1.3-0.3,2.5-0.6,3.8-0.8
		c1.3-0.3,2.5-0.5,3.8-0.8c1.3-0.3,2.5-0.5,3.8-0.8c1.2-0.2,2.4-0.5,3.6-0.7c0.1,0,0.3,0,0.4-0.1c1.2-0.2,2.4-0.5,3.6-0.7
		s2.4-0.4,3.6-0.6c0.2,0,0.4-0.1,0.5-0.1c1.1-0.2,2.3-0.4,3.5-0.5c1.3-0.2,2.5-0.4,3.8-0.6c2.5-0.4,5.1-0.7,7.6-1
		c1.3-0.2,2.5-0.3,3.8-0.4c3.8-0.4,7.7-0.8,11.5-1c1.9-0.1,3.8-0.2,5.8-0.3c1.9-0.1,3.9-0.2,5.8-0.2c7-0.2,14-0.1,21,0.2
		c0.7,0,1.5,0.1,2.2,0.1c2.2,0.1,4.5,0.3,6.7,0.5c1.5,0.1,3,0.3,4.5,0.4c1.5,0.2,3,0.3,4.5,0.5s3,0.4,4.5,0.6
		c-3-5.2-6.1-9.6-9.4-13.4c0,0.1,0.1,0.1,0.1,0.2c-41.6-6-80.1-1-120.7,9.1c-9.8,5.7-19.1,11.5-27.3,16.9l3.5,5.8
		C155.5,76.1,159.2,75,163,73.9z"/>
</g>
<linearGradient id="SVGID_5_" gradientUnits="userSpaceOnUse" x1="389.3057" y1="55.0976" x2="560.2965" y2="153.7754">
	<stop  offset="0" style="stop-color:#4D4D4D"/>
	<stop  offset="0.3167" style="stop-color:#B3B3B3"/>
	<stop  offset="0.7575" style="stop-color:#B3B3B3"/>
	<stop  offset="0.8065" style="stop-color:#A4A4A4"/>
	<stop  offset="0.9006" style="stop-color:#7D7D7D"/>
	<stop  offset="1" style="stop-color:#4D4D4D"/>
</linearGradient>
<path class="st6" d="M572.2,61.3c-0.7-0.7-1.5-1.3-2.3-1.8c6.3,20.4-8.2,52.7-51.1,72c0.7,0.3,1.3,0.8,1.8,1.4
	c0.9,1.1,1.4,2.7,1.4,4.8v3.1c0.8,0.3,1.4,1.1,1.4,2v1.8c0,1.1-0.9,2-2,2h-5.8c-0.2,0-0.3-0.1-0.5-0.1c-0.2,0.1-0.3,0.1-0.5,0.1
	h-5.5c-0.2,0-0.3-0.1-0.5-0.1c-0.2,0.1-0.3,0.1-0.5,0.1h-5.8c-0.9,0-1.6-0.5-1.9-1.3c-1.2,1-2.8,1.5-4.6,1.5c-2.2,0-4.1-0.8-5.4-2.3
	c-0.1-0.1-0.2-0.3-0.3-0.4c-0.2,0.3-0.5,0.7-0.9,1c-1.2,1-2.8,1.6-4.6,1.6c-2.5,0-4.1-1-5.1-1.9c-0.2,1-1,1.7-2,1.7h-3
	c-1,0-1.9-0.8-2-1.8c-43.9,7.5-85,5.9-117-17.9c-0.3,0-0.7-0.1-1-0.2c-1,0.4-2.2,0.6-3.3,0.7c14.9,16.2,34.9,28.9,64.8,33.1
	c29.3,4.2,69.1,0.5,101.6-11.5C579.6,126.2,592.2,80.7,572.2,61.3z"/>
<g>
	<path class="st7" d="M332.6,101.9c-0.7-1.2-1.5-2.4-2.2-3.7v3.7H332.6z"/>
	<path class="st7" d="M577,62.8c-0.4-0.5-0.8-1-1.3-1.5c-1.9-2.1-4.8-4.2-7.8-5.2c-1.4-0.5-2.7-0.8-4.1-0.8c-1-0.1-2.1,0-3.1,0.1
		c-2.3,0.2-4.5,0.8-6.6,1.5c-2.4,0.8-4.8,1.9-7.1,3.1c-2.6,1.3-5,2.8-7.5,4.3c-2.7,1.7-5.3,3.4-7.9,5.2c-2.7,1.9-5.5,3.9-8.2,5.8
		c-2.8,2-5.6,4.1-8.5,6.1c-1.1,0.8-2.2,1.5-3.2,2.3c1.3,0,2.6,0.2,3.8,0.4c22.6-16,42.2-32.3,54.5-24.6c0.8,0.5,1.5,1.1,2.2,1.8
		c20,19.3,7.4,64.8-54.6,87.6c-32.5,11.9-72.3,15.7-101.6,11.5c-30-4.3-50-17.1-64.8-33.2c-0.4,0-0.8,0-1.3,0c-0.7,0-1.3,0-1.9-0.1
		c25.3,28.6,64.6,47.1,144,31.5C572.9,142.9,596.5,88,577,62.8z"/>
	<path class="st7" d="M138.1,77.8c0.8-0.6,1.7-1.2,1.9-1.2c0.7-0.5,1.4-0.9,2.1-1.4c0.6-0.4,1.2-0.8,1.8-1.2c0.7-0.5,1.4-1,2.2-1.4
		c0.7-0.5,1.4-1,2.2-1.4c8.2-5.4,17.5-11.2,27.3-16.9c25.2-14.6,53.8-28,76.9-29c15.6-0.6,30.5,4.1,43.6,19.7
		c3.2,3.8,6.4,8.3,9.4,13.5c-1.5-0.2-3-0.4-4.5-0.6s-3-0.4-4.5-0.5c-1.5-0.2-3-0.3-4.5-0.4c-2.2-0.2-4.5-0.4-6.7-0.5
		c-0.7,0-1.5-0.1-2.2-0.1c-7-0.4-14-0.4-21-0.2c-1.9,0.1-3.9,0.1-5.8,0.2c-1.9,0.1-3.8,0.2-5.8,0.3c-3.8,0.3-7.7,0.6-11.5,1
		c-1.3,0.1-2.5,0.3-3.8,0.4c-2.5,0.3-5.1,0.6-7.6,1c-1.3,0.2-2.5,0.4-3.8,0.6c-1.2,0.2-2.3,0.4-3.5,0.5c-0.2,0-0.4,0.1-0.5,0.1
		c-1.2,0.2-2.4,0.4-3.6,0.6c-1.2,0.2-2.4,0.4-3.6,0.7c-0.1,0-0.3,0-0.4,0.1c-1.2,0.2-2.4,0.5-3.6,0.7c-1.3,0.2-2.5,0.5-3.8,0.8
		c-1.3,0.3-2.5,0.5-3.8,0.8c-1.3,0.3-2.5,0.5-3.8,0.8c-3.8,0.9-7.6,1.8-11.4,2.7c-1.3,0.3-2.5,0.6-3.8,1c-1.1,0.3-2.3,0.6-3.4,0.9
		c-0.2,0.1-0.5,0.1-0.7,0.2c-1.2,0.3-2.3,0.6-3.5,0.9c-1.3,0.3-2.5,0.7-3.8,1c-1.3,0.4-2.5,0.7-3.8,1.1c-1.3,0.4-2.5,0.7-3.8,1.1
		c-3.8,1.1-7.5,2.2-11.3,3.4l1.3,2.1c50.3-15.4,99.5-25.5,152-18.2c0.7,0.1,1.4,0.2,2.1,0.3c2.4,4,4.7,8.1,7,12.3h2.8
		c-2.1-3.9-4.2-7.8-6.4-11.5c24.3,3.9,49.1,11.4,78,22.3c0.6,0.2,1.2,0.4,1.8,0.6c0.8-0.3,1.7-0.5,2.6-0.5h3.5
		c-25.7-10-57.4-20.8-87.5-25.4c-2.9-4.8-5.8-9.2-8.9-13.2c-0.6-0.8-1.2-1.5-1.8-2.3c0,0,0,0-0.1-0.1c-0.3-0.4-0.6-0.8-1-1.1
		c-1-1.2-2-2.3-3.1-3.4c-10.7-10.9-23.7-17-42.3-15.9c-0.6,0-1.2,0.1-1.9,0.1c-0.7,0.1-1.4,0.1-2.1,0.2c-0.9,0.1-1.8,0.2-2.8,0.4
		c-21.6,3.1-46.4,14.6-68.8,27.4c-0.7,0.4-1.4,0.8-2.2,1.2c-8.8,5.1-17.2,10.4-24.9,15.3c-0.1,0.1-0.2,0.1-0.3,0.2
		c-0.6,0.4-1.2,0.8-1.8,1.2c-0.7,0.5-1.5,1-2.2,1.4c-0.7,0.5-1.5,1-2.2,1.4c-1.3,0.9-2.6,1.7-3.9,2.6c-0.1,0.1-0.9,0.7-1.8,1.4
		C137.4,76.5,137.8,77.1,138.1,77.8z"/>
</g>
<path class="st0" d="M527.9,103.5l1.6-4c1-2.6,0.4-5.6-1.6-7.5c-0.4-1.6-1.4-3.1-2.9-4.1c-2-1.3-4.3-2.4-6.7-3.1
	c-2.4-0.7-4.9-1.1-7.4-1.1c-2,0-4,0.2-5.8,0.7v-0.8c0-1.9-0.8-3.6-2-4.9c-0.8-3-3.5-5.2-6.7-5.2h-9.1c-3.9,0-7,3.1-7,7v3.3
	c-0.2,0-0.4,0-0.6,0c-2.4,0-4.6,0.4-6.7,1.2c-1.3-1-3-1.5-4.7-1.3l-2.4,0.2c-1.7,0.1-3.4,0.4-4.9,0.9c-0.8-0.3-1.6-0.4-2.4-0.4H450
	c-1.9,0-3.6,0.7-4.8,1.9c-2.9-1.7-6.5-2.5-10.8-2.5c-2.4,0-5.1,0.4-7.9,1.2c-0.3,0.1-0.5,0.1-0.8,0.2c-0.9-0.4-2-0.7-3-0.7h-8.9
	c-2.3,0-4.4,1.1-5.7,2.9c-1.3-1.8-3.4-2.9-5.7-2.9h-9.5c-0.9,0-1.8,0.2-2.6,0.5c-1.8-0.7-3.9-1.2-6.5-1.2c-2,0-4,0.3-5.9,1
	c-0.7-0.2-1.4-0.4-2.2-0.4h-8.9c-1.9,0-3.6,0.7-4.8,1.9c-2.9-1.7-6.5-2.5-10.8-2.5c-2.4,0-5.1,0.4-7.9,1.2c-2.8,0.8-5.3,1.7-7.3,3
	c-2.9,1.7-4.1,5.3-2.9,8.4l1.4,3.7c-0.4,0.5-0.8,1.1-1.2,1.8h-2.9V83.7c0-1.9-0.8-3.6-2-4.9c-0.8-3-3.5-5.2-6.7-5.2h-9.4
	c-3.9,0-7,3.1-7,7v5.1c-2.5-1.2-5.3-1.8-8.4-1.8c-2.4,0-4.7,0.4-6.8,1.1v-1.2c0-1.9-0.8-3.6-2-4.9c-0.8-3-3.5-5.2-6.7-5.2h-9.1
	c-3.9,0-7,3.1-7,7v4.8c-2.4-1-5.3-1.5-8.6-1.5c-2.4,0-5.1,0.4-7.9,1.2c-1.9,0.5-3.6,1.1-5.1,1.8c-1.5-0.8-3-1.4-4.6-1.9
	c-2.4-0.7-4.9-1.1-7.4-1.1c-3.1,0-5.9,0.5-8.4,1.5c-1.7,0.7-3.3,1.6-4.6,2.7c-3.2-2.8-7.4-4.2-12.2-4.2c-2.4,0-4.7,0.4-6.8,1.1v-1.3
	c0-1.9-0.8-3.6-2-4.9c-0.8-3-3.5-5.2-6.7-5.2h-9c-3.9,0-7,3.1-7,7V86c-2.9-1.3-6.2-2-9.8-2c-3.1,0-5.9,0.5-8.5,1.5l-3.6-6.1
	l-1.3-2.1l-3.5-5.8c-0.7,0.5-1.5,1-2.2,1.4c-0.7,0.5-1.5,1-2.2,1.4c2.8,4.6,1.5,2.4,8.2,13.7c-0.3,0.2-0.6,0.4-0.9,0.7
	c-2-2.1-5.3-4.4-10.6-4.6v-0.2c0-1.9-0.8-3.6-2-4.9c-0.3-1.1-0.8-2.1-1.5-2.9c0-0.1-0.1-0.1-0.1-0.2c-0.2-0.2-0.4-0.4-0.6-0.5
	c-1.2-1-2.7-1.6-4.4-1.6H131l-5.2-9c-0.2-0.4-0.1-0.9,0.2-1.2l2-1.6l0.1-0.1l-1.5-2.5c-0.8-1.2-2.4-1.6-3.6-0.9
	c-1.2,0.8-1.6,2.4-0.9,3.6l7,11.7h-6.3c-0.4,0-0.7,0-1.1,0.1c-0.4,0-0.7-0.1-1.1-0.1h-8.9c-3,0-5.7,1.9-6.6,4.8l-0.8,2.4
	c-0.4-0.8-0.8-1.4-1.3-2l-0.1-0.4c-0.9-2.8-3.6-4.8-6.6-4.8h-6.5c-2.9,0-5.6,1.9-6.6,4.6l-0.9,2.5c-0.4-0.7-0.8-1.4-1.3-1.9
	l-0.1-0.4c-0.9-2.8-3.6-4.8-6.6-4.8h-9.6c-2.3,0-4.4,1.1-5.7,2.9c-1.3,1.9-1.6,4.2-0.9,6.4l12.9,36c0.4,1,0.9,1.8,1.6,2.5l0.2,0.6
	c1,2.8,3.6,4.6,6.6,4.6h7.5c2.9,0,5.6-1.9,6.6-4.6l0.8-2.3c0.3,0.6,0.7,1.2,1.2,1.6l0.2,0.6c1,2.8,3.6,4.7,6.6,4.7h7.5
	c2.9,0,5.6-1.9,6.6-4.6l0.7-1.9c0.3,0.5,0.6,0.9,1.1,1.3c0.2,0.8,0.6,1.6,1.1,2.2l-63.1,37.8L15.7,93.8l103-61.7L134,57.8
	c0.7-0.5,1.3-0.9,2.1-1.3c0.7-0.5,1.4-1,2.2-1.4c0,0,0.1,0,0.1-0.1l-15.6-26c-1.3-2.1-4.1-2.8-6.2-1.6L12.4,89.7
	c-2.2,1.3-2.9,4.1-1.6,6.2L52,164.8c1.3,2.2,4.1,2.9,6.2,1.6l66.2-39.6c0.2,0,0.3,0,0.5,0h9.1c1.4,0,2.7-0.4,3.8-1.1
	c1.1,0.7,2.4,1.1,3.8,1.1h9.1c2.1,0,4-0.9,5.3-2.4c0.3,0.2,0.6,0.3,0.8,0.5c3.1,1.6,6.6,2.4,10.5,2.4c3.9,0,7.4-0.8,10.5-2.4
	c0.3-0.2,0.6-0.4,0.9-0.5c1.3,1.6,3.2,2.5,5.3,2.5h9.1c2.1,0,4.1-1,5.3-2.5c0.4,0.2,0.7,0.4,1.1,0.6c3.1,1.6,6.7,2.3,10.6,2.3
	c2.4,0,4.9-0.4,7.3-1.1c1.2-0.4,2.4-0.8,3.5-1.3c1.3,0.6,2.7,1.1,4.2,1.4c2.6,0.7,5.4,1,8.4,1c4.7,0,8.7-1.1,11.8-3.2
	c0.7,0.5,1.4,1,2.2,1.4c2.4,1.2,5,1.8,7.8,1.8c1.6,0,3.2-0.2,4.6-0.7c0.6,0.2,1.2,0.3,1.9,0.3h8.5c0.7,0,1.3-0.1,2-0.3
	c0.6,0.2,1.3,0.3,2,0.3h9.1c2.1,0,4.1-1,5.3-2.5c0.4,0.2,0.7,0.4,1.1,0.6c3.1,1.6,6.7,2.3,10.6,2.3c2.4,0,4.9-0.4,7.3-1.1
	c0.8-0.2,1.6-0.5,2.3-0.8c1.2,0.9,2.7,1.5,4.3,1.5H339c1.3,0,2.6-0.4,3.7-1.1c2.2,1,4.6,1.5,7.2,1.5c1.6,0,3.2-0.2,4.6-0.7
	c0.6,0.2,1.2,0.3,1.9,0.3h8.5c0.7,0,1.3-0.1,2-0.3c0.6,0.2,1.3,0.3,2,0.3h9.1c1.4,0,2.7-0.4,3.8-1.1c1.1,0.7,2.4,1.1,3.8,1.1h5.9
	c0.1,1,0.5,2,1,2.8c0.3,0.4,0.6,0.8,0.9,1.2c0.2,0.7,0.4,1.4,0.8,2c1.3,2,3.5,3.2,5.9,3.2h9.2c2.8,0,5.3-1.6,6.4-4.1l4.6-10.3
	c1.3,1.6,3,2.8,4.9,3.8c2.4,1.2,5,1.8,7.8,1.8c1.6,0,3.2-0.2,4.6-0.7c0.6,0.2,1.2,0.3,1.9,0.3h8.5c0.7,0,1.3-0.1,2-0.3
	c0.6,0.2,1.3,0.3,2,0.3h9.1c3.6,0,6.5-2.7,6.9-6.2c1.2,1.5,2.5,2.8,4.1,3.8c2.8,1.9,6.1,2.8,9.6,2.8c1.9,0,3.7-0.3,5.4-0.8
	c0.8,0.3,1.5,0.4,2.4,0.4h8.9c1.4,0,2.8-0.4,3.8-1.2c0.7,0.2,1.3,0.4,2,0.6c2.6,0.7,5.4,1,8.4,1c4.9,0,9.1-1.2,12.3-3.5
	c3.8-2.7,5.9-6.8,5.9-11.5C530.6,108.2,529.3,105.4,527.9,103.5z"/>
<g>
	<path class="st1" d="M138.6,79c1.2,1.3,2,3,2,4.9v0.2c5.3,0.2,8.6,2.5,10.6,4.6c0.3-0.2,0.5-0.4,0.8-0.6l-5.4-9.2l-2.7-4.5
		c-0.6,0.4-1.2,0.8-1.8,1.2c-0.7,0.5-1.4,0.9-2.1,1.4c-0.1-0.2-0.9,0.4-1.7,1.1C138.4,78.4,138.5,78.7,138.6,79z"/>
	<path class="st1" d="M118.2,121.6c-0.5-0.4-0.8-0.8-1.1-1.3l-0.7,1.9c-1,2.7-3.7,4.6-6.6,4.6h-7.5c-3,0-5.6-1.9-6.6-4.7l-0.2-0.6
		c-0.5-0.4-0.9-1-1.2-1.6l-0.8,2.3c-1,2.7-3.7,4.6-6.6,4.6h-7.5c-3,0-5.6-1.8-6.6-4.6l-0.2-0.6c-0.7-0.7-1.2-1.5-1.6-2.5l-12.9-36
		c-0.7-2.2-0.4-4.5,0.9-6.4c1.3-1.8,3.4-2.9,5.7-2.9h9.6c3,0,5.7,2,6.6,4.8L81,79c0.5,0.5,0.9,1.2,1.3,1.9l0.9-2.5
		c1-2.7,3.7-4.6,6.6-4.6h6.5c3,0,5.7,2,6.6,4.8L103,79c0.5,0.6,0.9,1.2,1.3,2l0.8-2.4c0.9-2.9,3.6-4.8,6.6-4.8h8.9
		c0.4,0,0.7,0.1,1.1,0.1c0.4-0.1,0.7-0.1,1.1-0.1h6.1L122,62.3c-0.7-1.2-0.3-2.8,0.9-3.6c1.2-0.7,2.8-0.3,3.6,0.9l1.6,2.6l0.9-0.7
		c1.6-1.1,3.3-2.2,5-3.4l-15.5-25.9l-103,61.7l40.6,67.8l63.2-37.8C118.8,123.2,118.4,122.4,118.2,121.6z"/>
</g>
<g>
	<path class="st8" d="M65.5,103.7l-7.4-20.6c-0.4-1.1-0.5-2.2-0.3-3.3l-1.1-1.9c-0.4-0.7-1.4-0.9-2.1-0.5l-2.3,1.3
		c-0.7,0.4-0.9,1.4-0.5,2.1L65.5,103.7z"/>
	<path class="st8" d="M95.5,121.5c-0.5-0.4-0.9-1-1.2-1.6l-0.8,2.3c-0.1,0.4-0.3,0.7-0.5,1.1c1.8,1.7,4.2,2.7,6.6,3
		c-1.8-0.8-3.2-2.2-3.9-4.1L95.5,121.5z"/>
	<path class="st8" d="M74.3,73.8c3,0,5.7,2,6.6,4.8L81,79c0.5,0.5,0.9,1.2,1.3,1.9l0.9-2.5c1-2.7,3.7-4.6,6.6-4.6h6.5
		c3,0,5.7,2,6.6,4.8L103,79c0.5,0.6,0.9,1.2,1.3,2l0.8-2.4c0.9-2.9,3.6-4.8,6.6-4.8h8.9c0.4,0,0.7,0.1,1,0.1l-10.3-17.3
		c-3.2-5.4-10.2-7.1-15.6-3.9L72,66.9c-2.7,1.6-4.4,4.1-5.2,6.9H74.3z"/>
	<path class="st8" d="M41.1,87.2c-0.4-0.7-1.4-0.9-2.1-0.5l-2.3,1.4c-0.7,0.4-0.9,1.4-0.5,2.1l33,55.1c0.4,0.7,1.4,0.9,2.1,0.5
		l2.3-1.4c0.8-0.4,1-1.4,0.5-2.1L41.1,87.2z"/>
	<path class="st8" d="M33.4,91.7C33,91,32,90.8,31.3,91.2L29,92.6c-0.7,0.4-0.9,1.4-0.5,2.1l33,55.2c0.4,0.7,1.4,0.9,2.1,0.5
		l2.3-1.3c0.7-0.5,0.9-1.4,0.5-2.2L33.4,91.7z"/>
	<path class="st8" d="M85.9,126.8h-6.5c0,0-0.1,0-0.1,0l5.5,9.2c0.4,0.7,1.4,0.9,2.1,0.5l2.3-1.4c0.7-0.4,0.9-1.4,0.5-2L85.9,126.8z
		"/>
	<path class="st8" d="M73.8,124.1c-0.3-0.4-0.5-0.7-0.7-1.2L48.9,82.4c-0.4-0.7-1.4-0.9-2.1-0.5l-2.3,1.4c-0.7,0.4-0.9,1.4-0.5,2.1
		l33,55.3c0.4,0.7,1.4,0.9,2.1,0.5l2.3-1.4c0.7-0.5,1-1.4,0.5-2.2L73.8,124.1z"/>
</g>
<linearGradient id="SVGID_6_" gradientUnits="userSpaceOnUse" x1="143.6979" y1="20.8211" x2="283.4708" y2="78.9074">
	<stop  offset="0" style="stop-color:#B3B3B3"/>
	<stop  offset="0.3116" style="stop-color:#E6E6E6"/>
	<stop  offset="0.4719" style="stop-color:#E3E3E3"/>
	<stop  offset="0.591" style="stop-color:#D9D9D9"/>
	<stop  offset="0.6968" style="stop-color:#C9C9C9"/>
	<stop  offset="0.7948" style="stop-color:#B2B2B2"/>
	<stop  offset="0.8875" style="stop-color:#959595"/>
	<stop  offset="0.9751" style="stop-color:#727272"/>
	<stop  offset="1" style="stop-color:#666666"/>
</linearGradient>
<path class="st9" d="M131,73.8h0.9c2,0,3.9,0.9,5.2,2.3c1.6-1.2,3.5-2.5,5.5-3.9c0.6-0.5,1.4-1,2.1-1.5s1.5-1,2.2-1.5
	c0.6-0.4,1.2-0.8,1.8-1.2c0.1-0.1,0.2-0.1,0.3-0.2c7.1-4.7,15.6-10,24.9-15.3c0.8-0.4,1.5-0.8,2.2-1.2
	c21.8-12.3,47.6-24.2,68.8-27.4c1-0.2,1.9-0.3,2.8-0.4c0.7-0.1,1.4-0.1,2.1-0.2c0.7,0,1.3-0.1,1.9-0.1c18.6-1.1,31.6,5,42.3,15.9
	c1.1,1.1,2.1,2.2,3.1,3.4c0.3,0.4,0.7,0.8,1,1.2c-10-14-19.5-28.2-40-32.7C223.2,3.4,172,33.1,138.3,55.1c-0.8,0.4-1.5,0.9-2.2,1.4
	c-0.8,0.4-1.5,0.9-2.2,1.4c-1.7,1.2-3.4,2.3-5,3.4L128,62l-2,1.6c-0.3,0.3-0.4,0.8-0.2,1.2L131,73.8z"/>
<path class="st1" d="M521.8,102.3c-0.3-0.3-0.7-0.6-1.1-0.9c0.2-0.2,0.3-0.4,0.4-0.7l2.4-5.9c0.4-1.1,0-2.4-0.9-3
	c-1.6-1.1-3.5-1.9-5.5-2.5s-4.1-0.9-6.1-0.9c-2.5,0-4.8,0.4-6.8,1.2c-2.1,0.8-3.8,2.1-5.1,3.7c-0.1,0.1-0.2,0.3-0.3,0.4v-6.3v-6.8
	c0-1.4-1.1-2.5-2.5-2.5h-9.1c-1.4,0-2.5,1.1-2.5,2.5v8.8c-1.6-0.7-3.3-1-5.1-1c-2.6,0-5,0.7-7.1,2c-0.4,0.3-0.8,0.6-1.2,0.9v-0.6
	c0-0.7-0.4-1.3-0.8-1.7c-0.5-0.4-1.2-0.7-1.8-0.6l-0.8,0.1l-1.6,0.1c-2.1,0.1-4,0.6-5.6,1.5c-0.4-0.6-1.2-1-2-1H450
	c-1.4,0-2.5,1.1-2.5,2.5V96c-0.6-1.6-1.5-2.9-2.6-4c-0.5-0.5-1.2-1-1.8-1.4c-2.2-1.3-5.1-2-8.7-2c-2,0-4.3,0.3-6.7,1
	c-1,0.3-2,0.6-2.8,0.9v-0.1c-0.4-0.7-1.2-1.1-2.1-1.1H418h-4.2c-1,0-1.9,0.6-2.3,1.5L408,99l-3.3-8.4c-0.4-0.9-1.3-1.6-2.3-1.6h-9.5
	c-0.8,0-1.6,0.4-2.1,1.1c0,0.1-0.1,0.1-0.1,0.2c-1.2-0.8-2.5-1.5-4.1-1.7c-0.9-0.2-1.8-0.3-2.8-0.3c-2.1,0-4,0.4-5.7,1.3
	c-0.1,0.1-0.3,0.1-0.4,0.2c-0.4-0.5-1.2-0.9-1.9-0.9h-8.9c-1.4,0-2.5,1.1-2.5,2.5v4.4c-0.6-1.6-1.5-2.9-2.6-4
	c-0.5-0.5-1.2-1-1.8-1.4c-2.2-1.3-5.1-2-8.7-2c-2,0-4.3,0.3-6.7,1c-2.4,0.7-4.5,1.5-6.1,2.5c-1,0.6-1.5,1.9-1,3l2.3,6
	c0.1,0.2,0.2,0.4,0.3,0.5c-0.7,0.4-1.3,0.9-1.8,1.5c-0.9,1-1.5,2.2-1.8,3.6H332h-7.7v-26c0-1.4-1.1-2.5-2.5-2.5h-9.4
	c-1.4,0-2.5,1.1-2.5,2.5v15.9c-0.6-1.4-1.4-2.7-2.4-3.8c-0.6-0.7-1.3-1.3-2-1.8c-2.3-1.6-5.1-2.4-8.4-2.4c-2.8,0-5.5,0.7-7.7,2
	c-2.3,1.3-4.1,3.1-5.3,5.4v-7.1v-8.1c0-1.4-1.1-2.5-2.5-2.5h-9.1c-1.4,0-2.5,1.1-2.5,2.5v15.2c-0.6-1.6-1.5-2.9-2.6-4
	c-0.6-0.5-1.2-1-1.9-1.5c-2.2-1.3-5.1-2-8.6-2c-2,0-4.3,0.3-6.7,1s-4.5,1.5-6.1,2.5c-0.1,0-0.1,0.1-0.2,0.2
	c-0.1-0.1-0.2-0.1-0.3-0.2c-1.2-0.8-2.5-1.4-3.8-2c-0.5-0.2-1.1-0.4-1.7-0.6c-2-0.6-4.1-0.9-6.1-0.9c-2.5,0-4.8,0.4-6.8,1.2
	c-2.1,0.8-3.8,2.1-5.1,3.7c-0.4,0.6-0.8,1.2-1.1,1.9c-0.5-0.9-1.1-1.7-1.8-2.5c-0.4-0.4-0.8-0.8-1.3-1.2c-2.4-2-5.5-3-9.1-3
	c-2.8,0-5.5,0.7-7.7,2c-2.3,1.3-4.1,3.1-5.3,5.4v-7.1v-8.1c0-1.4-1.1-2.5-2.5-2.5h-9.1c-1.4,0-2.5,1.1-2.5,2.5v15.2
	c0,0,0-0.1-0.1-0.1c-1.1-1.9-2.6-3.5-4.5-4.7c-0.4-0.3-0.9-0.6-1.4-0.8c-2.4-1.2-5.3-1.9-8.5-1.9s-6,0.6-8.5,1.9s-4.5,3.1-5.8,5.5
	c-0.2,0.3-0.3,0.5-0.4,0.8c-0.4-1.8-1.2-3.4-2.2-4.6c0,0-0.1-0.1-0.2-0.2c-2-2.3-4.8-3.4-8.5-3.4c-1.9,0-3.7,0.4-5.3,1.1v-8.9
	c0-1.4-1.1-2.5-2.5-2.5h-9.1c-0.4,0-0.8,0.1-1.1,0.3c-0.3-0.2-0.7-0.3-1.1-0.3H116h-4.4c-1.1,0-2,0.7-2.4,1.7l-5.5,16.2l-5.4-16.2
	C98,78.6,97.1,78,96,78h-6.5c-1.1,0-2,0.7-2.3,1.6l-5.7,16l-5.2-15.9C76,78.7,75.1,78,74,78h-9.6c-0.8,0-1.6,0.4-2,1.1
	s-0.6,1.5-0.3,2.3l12.9,36c0.4,1,1.3,1.6,2.3,1.6h7.5c1.1,0,2-0.7,2.3-1.6l5.4-15.1l5.3,15c0.4,1,1.3,1.6,2.3,1.6h7.5
	c1,0,2-0.7,2.3-1.6l5.7-16l4.5-12.6v27.9c0,1.4,1.1,2.5,2.5,2.5h9.1c1.4,0,2.5-1.1,2.5-2.5v-14c0-1.2,0.4-1.7,0.5-1.8
	c0.2-0.2,0.6-0.5,1.4-0.5c0.3,0,0.4,0,0.4,0s0.3,0.4,0.3,1.8v14.5c0,1.4,1.1,2.5,2.5,2.5h9.1c0.6,0,1.2-0.3,1.6-0.7
	c0.5-0.4,0.8-1.1,0.8-1.8v-4.3c1.4,2.3,3.3,4,5.7,5.3c2.4,1.2,5.3,1.9,8.4,1.9c3.2,0,6-0.6,8.5-1.9c0.5-0.3,1-0.5,1.4-0.8
	c1.8-1.2,3.3-2.8,4.4-4.7V112v4.7c0,1.4,1.1,2.5,2.5,2.5h9.1c0.7,0,1.3-0.3,1.7-0.7c0.4-0.4,0.8-1.1,0.8-1.8v-4.5
	c1.4,2.4,3.4,4.3,5.9,5.5c2.4,1.2,5.3,1.9,8.6,1.9c2,0,4-0.3,6-0.9c0,0,0.1,0,0.2,0c1.7-0.5,3.2-1.2,4.5-2.1
	c1.5,0.9,3.3,1.7,5.3,2.2c2.2,0.6,4.7,0.8,7.3,0.8c3.4,0,6.3-0.7,8.5-1.9c0.4-0.2,0.8-0.4,1.1-0.7c0.9-0.7,1.7-1.4,2.3-2.3
	c1,1.5,2.4,2.7,4.1,3.6c1.7,0.9,3.7,1.3,5.8,1.3c1.8,0,3.4-0.4,4.8-1.1c0.4,0.4,1,0.7,1.7,0.7h6h2.6c0.8,0,1.5-0.4,2-1
	c0.4,0.6,1.2,1,2,1h9.1c0.7,0,1.3-0.3,1.7-0.7c0.4-0.4,0.8-1.1,0.8-1.8v-4.5c1.4,2.4,3.4,4.3,5.9,5.5c2.4,1.2,5.3,1.9,8.6,1.9
	c2,0,4.1-0.3,6-0.9c0.4-0.1,0.7-0.2,1.1-0.4c1.6-0.6,3-1.3,4.2-2.2l0,0v0.6c0,1.4,1.1,2.5,2.5,2.5h23.5h1.2c1.4,0,2.5-1.1,2.5-2.5
	v-0.2c0.8,0.7,1.6,1.3,2.5,1.7c1.7,0.9,3.7,1.3,5.8,1.3c1.8,0,3.4-0.4,4.8-1.1c0.4,0.4,1,0.7,1.7,0.7h6h2.6c0.8,0,1.5-0.4,2-1
	c0.4,0.6,1.2,1,2,1h9.1c1.4,0,2.5-1.1,2.5-2.5v-14c0-1.2,0.4-1.7,0.5-1.8c0.2-0.2,0.6-0.5,1.4-0.5c0.3,0,0.4,0,0.4,0
	s0.3,0.4,0.3,1.8v14.5c0,1.4,1.1,2.5,2.5,2.5h9.1c0.4,0,0.7-0.1,1-0.2c0.8-0.4,1.5-1.2,1.5-2.3v-0.9v-1.8v-11.2l5.3,12.1l-4.6,9.9
	c-0.4,0.8-0.3,1.6,0.2,2.4c0.5,0.7,1.2,1.2,2.1,1.2h9.2c1,0,1.9-0.6,2.3-1.5l6-13.3l6.5-14.6l0.8,1.9c0.1,0.2,0.2,0.4,0.3,0.5
	c-0.7,0.4-1.3,0.9-1.8,1.5c-1.3,1.5-2,3.5-2,6c0,2,0.5,3.9,1.6,5.6c1,1.6,2.5,2.9,4.3,3.8c1.7,0.9,3.7,1.3,5.8,1.3
	c1.8,0,3.4-0.4,4.8-1.1c0.4,0.4,1,0.7,1.7,0.7h6h2.6c0.8,0,1.5-0.4,2-1c0.4,0.6,1.2,1,2,1h9.1c1.4,0,2.5-1.1,2.5-2.5V104
	c0-0.2,0-0.4,0-0.5c0-0.6,0.2-1.1,0.5-1.4s1.1-0.6,2.6-0.8l1.6-0.2c-0.1,0.9-0.2,1.8-0.2,2.7c0,2.9,0.6,5.6,1.7,8
	c1.2,2.4,2.8,4.3,4.9,5.7c2.1,1.4,4.5,2,7.1,2c2,0,4-0.4,5.7-1.3h0.1c0.4,0.6,1.2,0.9,1.9,0.9h6.6h2.4c1.2,0,2.3-0.9,2.4-2.1
	c1.3,0.7,2.8,1.3,4.5,1.7c2.2,0.6,4.7,0.8,7.3,0.8c4,0,7.3-0.9,9.7-2.6c2.6-1.9,4-4.6,4-7.9C524.3,106.2,523.5,103.9,521.8,102.3z"
	/>
<path class="st10" d="M120.2,80.5h0.3l-0.3,0.9l-12.6,35.1h-7.5L92.5,95l-7.7,21.6h-7.5l-12.9-36H74l7.5,22.9l8.1-22.9h6.5l7.7,23.3
	l7.8-23.3L120.2,80.5L120.2,80.5z M139.6,90.8c-1.6,0-3.1,0.3-4.5,0.9c-1.3,0.6-2.4,1.5-3.4,2.7V80.5h-9.1v36h9.1v-14
	c0-1.5,0.4-2.6,1.2-3.5s1.9-1.3,3.2-1.3c1.1,0,1.9,0.4,2.4,1c0.5,0.7,0.8,1.8,0.8,3.3v14.5h9.1v-14.9c0-3.6-0.7-6.4-2.2-8.1
	C144.8,91.7,142.6,90.8,139.6,90.8z M177.3,96.9c1.2,2,1.7,4.3,1.7,6.9s-0.6,5-1.7,6.9c-1.2,2-2.8,3.5-4.9,4.6
	c-2.1,1.1-4.5,1.6-7.3,1.6s-5.2-0.5-7.3-1.6s-3.7-2.6-4.9-4.6s-1.7-4.3-1.7-6.9c0-2.7,0.6-5,1.7-6.9c1.2-2,2.8-3.5,4.9-4.5
	c2.1-1.1,4.5-1.6,7.3-1.6s5.3,0.5,7.3,1.6C174.5,93.5,176.1,95,177.3,96.9z M170,103.8c0-4.2-1.6-6.4-4.9-6.4
	c-3.2,0-4.9,2.1-4.9,6.4s1.6,6.4,4.9,6.4C168.3,110.2,170,108,170,103.8z M182,116.6h9.1v-36H182V116.6z M218,114
	c-0.2,0.2-0.5,0.4-0.8,0.5c-1.1,0.7-2.4,1.2-3.8,1.7c-1.8,0.5-3.6,0.8-5.3,0.8c-2.9,0-5.4-0.5-7.5-1.6s-3.7-2.6-4.9-4.5
	c-1.2-2-1.7-4.3-1.7-6.9c0-2.5,0.5-4.8,1.6-6.8s2.6-3.6,4.5-4.7s4.1-1.6,6.5-1.6c3.6,0,6.5,1.2,8.6,3.5c1.5,1.6,2.4,3.6,2.9,6.1
	c0,0.3,0.1,0.6,0.1,1c0.1,0.8,0.1,1.6,0.1,2.4v2h-15.5c0.3,1.6,0.9,2.8,1.8,3.5c0.9,0.7,2.2,1.1,4,1.1c1.2,0,2.5-0.2,3.7-0.6
	s2.4-1,3.4-1.7l1.8,4.6L218,114z M202.7,101.4h8c-0.2-3-1.5-4.5-3.9-4.5C204.4,96.9,203.1,98.4,202.7,101.4z M242.1,105.8
	c-0.3-0.7-0.7-1.3-1.2-1.8c-1.2-1.2-3.1-2.1-5.8-2.7l-4.2-1c-0.8-0.2-1.5-0.4-1.8-0.6c-0.4-0.2-0.5-0.5-0.5-0.8c0-0.6,0.3-1,0.8-1.3
	s1.3-0.4,2.3-0.4c1.2,0,2.5,0.2,3.9,0.7c1.4,0.4,2.8,1.1,4.1,2l2.4-5.9c-1.5-0.9-3.1-1.7-4.9-2.2c-1.8-0.5-3.6-0.8-5.4-0.8
	c-2.2,0-4.1,0.4-5.9,1c-1.7,0.7-3.1,1.6-4,2.9c-0.9,1.2-1.4,2.7-1.4,4.3c0,2.1,0.6,3.7,1.7,4.8c1.1,1.1,3,2,5.5,2.5l4.1,0.9
	c1.2,0.3,2,0.5,2.4,0.8c0.4,0.2,0.6,0.6,0.6,1c0,0.5-0.3,0.9-0.8,1.2c-0.5,0.3-1.3,0.4-2.3,0.4c-1.6,0-3.3-0.3-5-0.8
	s-3.3-1.2-4.7-2.1l-2.3,6.2c1.4,1,3.1,1.7,5.2,2.3c2,0.5,4.3,0.8,6.7,0.8c3.5,0,6.2-0.7,8.2-2.1c1.2-0.8,2-1.8,2.4-3
	c0.4-0.9,0.5-1.8,0.5-2.9C242.7,107.8,242.5,106.7,242.1,105.8z M265.5,93.5c1.9,1.8,2.8,4.7,2.8,8.5v14.5h-8.5V113
	c-0.5,1.2-1.3,2.2-2.4,2.9c-1.1,0.7-2.5,1.1-4.1,1.1c-1.7,0-3.3-0.4-4.7-1.1s-2.5-1.7-3.3-2.9c-0.8-1.2-1.2-2.7-1.2-4.2
	c0-1.8,0.5-3.2,1.4-4.3c0.9-1.1,2.4-1.9,4.5-2.3c2-0.5,4.8-0.7,8.3-0.7h1.4v-0.6c0-1.2-0.3-2.1-0.9-2.6s-1.6-0.8-3.1-0.8
	c-1.2,0-2.5,0.2-4,0.7c-1.5,0.4-2.9,1.1-4.3,1.8l-2.3-6c1.5-0.9,3.3-1.6,5.5-2.2s4.2-0.9,6.1-0.9C260.7,90.8,263.6,91.7,265.5,93.5z
	 M259.7,105.6h-0.8c-2.2,0-3.7,0.2-4.7,0.6c-0.9,0.4-1.4,1.1-1.4,2c0,0.8,0.3,1.4,0.8,2c0.5,0.5,1.1,0.8,1.9,0.8
	c1.2,0,2.2-0.4,3-1.3s1.2-2,1.2-3.3L259.7,105.6L259.7,105.6z M272.3,116.6h9.1v-36h-9.1V116.6z M305.6,94.3
	c2.1,2.3,3.2,5.4,3.2,9.4v2h-15.5c0.3,1.6,0.9,2.8,1.8,3.5s2.2,1.1,4,1.1c1.2,0,2.5-0.2,3.7-0.6s2.4-1,3.4-1.7l2.3,6
	c-1.2,0.9-2.8,1.6-4.5,2.2c-1.8,0.5-3.6,0.8-5.3,0.8c-2.9,0-5.4-0.5-7.5-1.6s-3.7-2.6-4.9-4.5c-1.2-2-1.7-4.3-1.7-6.9
	c0-2.5,0.5-4.8,1.6-6.8s2.6-3.6,4.5-4.7s4.1-1.6,6.5-1.6C300.6,90.8,303.4,91.9,305.6,94.3z M301.1,101.4c-0.2-3-1.5-4.5-3.9-4.5
	s-3.8,1.5-4.1,4.5H301.1z M336.2,108.9h-14.5V80.5h-9.4v36H337v-3.6v-4H336.2z M360.1,93.5c1.9,1.8,2.8,4.7,2.8,8.5v14.5h-8.5V113
	c-0.5,1.2-1.3,2.2-2.4,2.9c-1.1,0.7-2.5,1.1-4.1,1.1c-1.7,0-3.3-0.4-4.7-1.1c-1.4-0.7-2.5-1.7-3.3-2.9c-0.8-1.2-1.2-2.7-1.2-4.2
	c0-1.8,0.5-3.2,1.4-4.3c0.9-1.1,2.4-1.9,4.5-2.3c2-0.5,4.8-0.7,8.3-0.7h1.4v-0.6c0-1.2-0.3-2.1-0.9-2.6s-1.6-0.8-3.1-0.8
	c-1.2,0-2.5,0.2-4,0.7c-1.5,0.4-2.9,1.1-4.3,1.8l-2.3-6c1.5-0.9,3.3-1.6,5.5-2.2s4.2-0.9,6.1-0.9C355.2,90.8,358.2,91.7,360.1,93.5z
	 M354.2,105.6h-0.8c-2.2,0-3.7,0.2-4.7,0.6c-0.9,0.4-1.4,1.1-1.4,2c0,0.8,0.3,1.4,0.8,2c0.5,0.5,1.1,0.8,1.9,0.8
	c1.2,0,2.2-0.4,3-1.3s1.2-2,1.2-3.3V105.6z M383.7,90.8c-1.7,0-3.2,0.4-4.7,1c-1.4,0.7-2.5,1.7-3.4,3v-3.4h-8.9v25.2h9.2v-14
	c0-1.5,0.4-2.6,1.2-3.5c0.8-0.9,1.9-1.3,3.2-1.3c1.1,0,1.9,0.4,2.4,1c0.5,0.7,0.8,1.8,0.8,3.3v14.5h9.1v-15c0-3.6-0.7-6.4-2.2-8.1
	C389,91.7,386.8,90.8,383.7,90.8z M413.8,91.5l-5.8,14.1l-5.5-14.1H393l10.3,23.3l-5.1,10.9h9.2l13.5-30.1l1.9-4.1h-0.5
	C422.3,91.5,413.8,91.5,413.8,91.5z M443.2,93.5c1.9,1.8,2.8,4.7,2.8,8.5v14.5h-8.5V113c-0.5,1.2-1.3,2.2-2.4,2.9
	c-1.1,0.7-2.5,1.1-4.1,1.1c-1.7,0-3.3-0.4-4.7-1.1c-1.4-0.7-2.5-1.7-3.3-2.9c-0.8-1.2-1.2-2.7-1.2-4.2c0-1.8,0.5-3.2,1.4-4.3
	c0.9-1.1,2.4-1.9,4.5-2.3c2-0.5,4.8-0.7,8.3-0.7h1.4v-0.6c0-1.2-0.3-2.1-0.9-2.6s-1.6-0.8-3.1-0.8c-1.2,0-2.5,0.2-4,0.7
	c-1.5,0.4-2.9,1.1-4.3,1.8l-2.3-6c1.5-0.9,3.3-1.6,5.5-2.2s4.2-0.9,6.1-0.9C438.4,90.8,441.3,91.7,443.2,93.5z M437.4,105.6h-0.8
	c-2.2,0-3.7,0.2-4.7,0.6c-0.9,0.4-1.4,1.1-1.4,2c0,0.8,0.3,1.4,0.8,2c0.5,0.5,1.1,0.8,1.9,0.8c1.2,0,2.2-0.4,3-1.3s1.2-2,1.2-3.3
	V105.6z M469,93.6l-0.2-2.9l-2.5,0.2c-1.9,0.1-3.5,0.5-4.9,1.3s-2.3,2-2.8,3.5v-4.4H450v25.2h9.1v-12.6c0-1.6,0.4-2.8,1.2-3.6
	c0.8-0.8,2.2-1.4,4.1-1.6l2.4-0.2l2.6-0.3L469,93.6z M496.3,113.4v1.1v2h-8.9v-3.4c-0.7,1.2-1.8,2.1-3.2,2.8c-1.4,0.7-2.9,1-4.6,1
	c-2.1,0-4.1-0.5-5.7-1.6c-1.7-1.1-3-2.7-4-4.7c-0.9-2-1.4-4.3-1.4-6.9s0.5-4.8,1.4-6.8s2.3-3.5,4-4.5c1.7-1.1,3.6-1.6,5.8-1.6
	c1.6,0,3.1,0.3,4.4,1s2.4,1.5,3.2,2.6V80.5h9.1L496.3,113.4L496.3,113.4z M487.4,103.8c0-2-0.4-3.6-1.3-4.6
	c-0.8-1.1-2.1-1.6-3.7-1.6s-2.8,0.5-3.7,1.6c-0.8,1.1-1.3,2.6-1.3,4.5c0,2,0.4,3.6,1.3,4.8c0.9,1.1,2.1,1.7,3.6,1.7
	c1.6,0,2.8-0.5,3.7-1.6C487,107.5,487.4,105.9,487.4,103.8z M514.3,101.3l-4.2-1c-0.8-0.2-1.5-0.4-1.8-0.6c-0.4-0.2-0.5-0.5-0.5-0.8
	c0-0.6,0.3-1,0.8-1.3s1.3-0.4,2.3-0.4c1.2,0,2.5,0.2,3.9,0.7c1.4,0.4,2.8,1.1,4.1,2l2.4-5.9c-1.5-0.9-3.1-1.7-4.9-2.2
	c-1.8-0.5-3.6-0.8-5.4-0.8c-2.2,0-4.1,0.4-5.9,1c-1.7,0.7-3.1,1.6-4,2.9c-0.9,1.2-1.4,2.7-1.4,4.3c0,2.1,0.6,3.7,1.7,4.8
	c1.1,1.1,3,2,5.5,2.5l4.1,0.9c1.2,0.3,2,0.5,2.4,0.8c0.4,0.2,0.6,0.6,0.6,1c0,0.5-0.3,0.9-0.8,1.2c-0.5,0.3-1.3,0.4-2.3,0.4
	c-1.6,0-3.3-0.3-5-0.8s-3.3-1.2-4.7-2.1l-2.3,6.2c1.4,1,3.1,1.7,5.2,2.3c2,0.5,4.3,0.8,6.7,0.8c3.5,0,6.2-0.7,8.2-2.1s3-3.4,3-5.9
	c0-2.1-0.6-3.7-1.8-4.9C518.9,102.8,517,101.9,514.3,101.3z"/>
</svg>
