<?xml version="1.0" encoding="utf-8"?>
<!-- Generator: Adobe Illustrator 25.3.1, SVG Export Plug-In . SVG Version: 6.00 Build 0)  -->
<svg version="1.1" id="Layer_1" xmlns="http://www.w3.org/2000/svg" xmlns:xlink="http://www.w3.org/1999/xlink" x="0px" y="0px"
	 viewBox="0 0 503.3 218.9" style="enable-background:new 0 0 503.3 218.9;" xml:space="preserve">
<style type="text/css">
	.st0{fill:#FFFFFF;}
	.st1{fill:#999999;}
	.st2{fill:#FF0000;}
</style>
<g>
	<path class="st0" d="M500.7,102.2c1.4-1.7,2.1-3.8,2.1-6.4c0-4.8-1-9-2.9-12.8c-2-3.8-4.8-6.8-8.5-8.9c-3.6-2.1-7.7-3.1-12.3-3.1
		c-4.7,0-9,1.1-12.8,3.3c-3,1.7-5.4,4-7.4,6.7V66.8c0-4.8-2.2-7.6-4-9.2c-2.3-1.9-5.2-2.9-8.5-2.9s-6.2,1-8.5,2.9
		c-1.8,1.5-4,4.3-4,9.2v13.7c-0.8-1.3-1.7-2.5-2.7-3.5c-4-4-9.8-5.9-17.2-5.9c-3.1,0-6.2,0.4-9.3,1c-3.3,0.7-6,1.6-8.4,2.8l-0.1,0.1
		c-1.7,0.9-3,2.1-4,3.4c-0.8-1.2-2-2.3-3.3-3.1c-2.2-1.3-4.7-2.3-7.4-3.1c-2.7-0.7-5.5-1-8.3-1c-4,0-7.7,0.7-11,2.1
		c-3.5,1.5-6.4,3.6-8.4,6.3c-0.4,0.6-0.9,1.2-1.2,1.9c-1.9-3-4.4-5.4-7.5-7.2c-3.6-2.1-7.7-3.1-12.3-3.1c-4.7,0-9,1.1-12.8,3.3
		c-3,1.7-5.4,4-7.4,6.7V67c0-4.8-2.2-7.6-4-9.2c-2.3-1.9-5.2-2.9-8.5-2.9s-6.2,1-8.5,2.9c-1.8,1.5-4,4.3-4,9.2v14.4
		c-2.2-3-5-5.4-8.4-7.2c-4-2.1-8.7-3.1-13.8-3.1c-5.2,0-9.8,1-13.8,3.1c-4.1,2.1-7.3,5.1-9.6,8.9c-0.7-2.2-1.8-4.1-3.1-5.7
		c-2.3-2.9-6.6-6.2-14.4-6.2c-2.4,0-4.7,0.3-6.8,1v-5.6c0-3.4-1.3-6.5-3.8-8.6c-2.3-2-5.2-3-8.7-3s-6.6,1.1-8.9,3.2
		c-0.5,0.4-1,1-1.3,1.5c-0.5-0.7-1-1.2-1.7-1.8c-2.3-2-5.1-3-8.1-3c-2.5,0-4.9,0.7-7,2.1c-2.2,1.5-3.8,3.5-4.7,6.2l-5.9,16.7
		l-5.7-16.6c-1-2.6-2.5-4.8-4.6-6.2s-4.5-2.1-7-2.1s-4.9,0.7-7,2.1c-2.2,1.5-3.8,3.5-4.7,6.1l-6.1,16.6l-5.7-16.4
		c-1-2.7-2.6-4.9-5-6.4c-2.1-1.3-4.5-2-7-2c-3.1,0-6,1-8.4,2.9c-2.7,2.2-4.1,5.3-4.1,8.9c0,1.5,0.3,3.2,0.9,4.8l16,43
		c1,2.6,2.8,4.8,5.2,6.3c2.2,1.3,4.7,2,7.4,2c2.6,0,5.1-0.7,7.3-2c2.4-1.5,4.3-3.6,5.2-6.2l5.4-14.9l5.1,14.7
		c0.3,0.9,0.7,1.8,1.2,2.6h-5.1c-4.5,0-7.3,1.8-8.9,3.4c-1.5,1.5-3.4,4.3-3.4,8.9v42.2c0,4.6,1.9,7.6,3.5,9.2s4.5,3.6,9.2,3.6
		s7.6-1.9,9.2-3.5c1.7-1.6,3.7-4.5,3.7-9.2v-8.2h6.8c7.5,0,13.6-2.1,18-6.2c1.2-1.1,2.3-2.3,3.2-3.7c0.2,0.3,0.5,0.5,0.7,0.8
		c-0.5,0.4-1,0.9-1.3,1.3c-2.3,2.7-3.5,6.2-3.5,10.3c0,3.5,1,6.7,2.7,9.5c1.8,2.8,4.3,4.9,7.3,6.5c2.9,1.5,6.2,2.2,9.8,2.2
		c3.4,0,6.5-0.8,9.1-2.3l0,0c2.1,1.5,4.5,2.2,7.3,2.2c4.5,0,7.3-1.8,8.8-3.2c1.6-1.5,3.5-4.3,3.5-8.7l0.2-8.6
		c0,5.9,1.8,10.8,5.3,14.4c3.4,3.4,8.2,5.5,14.4,5.9l2.3,0.1c0.5,0,1,0.1,1.5,0.1c3.2,0,5.8-0.7,7.9-2c1.6-1,2.8-2.3,3.6-4
		c4.6,4,10.7,6.1,18,6.1c6.2,0,11.6-1.4,16.1-4.1c0.4-0.3,0.9-0.6,1.3-1c0.5,0.7,1,1.2,1.5,1.7c2.3,2.1,5.3,3.2,8.9,3.2
		c4.5,0,7.3-1.8,8.9-3.2c1.7-1.5,3.7-4.3,3.7-8.8h0.7c0,4.5,2,7.3,3.7,8.8c2.3,2.1,5.3,3.2,8.9,3.2c4.5,0,7.3-1.8,8.9-3.2
		c1.4-1.2,3-3.4,3.5-6.6c2.1,2.9,4.9,5.2,8.2,6.9c4,2.1,8.7,3.1,13.8,3.1c2.5,0,5.2-0.4,8.1-1.1s5.4-1.6,7.5-2.6l0.1-0.1
		c0.9-0.4,1.7-1,2.3-1.6c0.6,0.5,1.2,1,1.9,1.4c2.3,1.5,5,2.5,8,3.2c2.9,0.6,6.2,0.9,10.1,0.9c6.5,0,12-1.5,16.1-4.5
		c4.6-3.3,7.1-8.1,7.1-13.7c0-6.1-2.6-9.8-4.8-11.8c0.3-0.3,0.5-0.6,0.8-0.9c1.5-2,2.3-4.5,2.3-7.1c0-4.1-1.8-7.4-5.1-9.3
		c-2.2-1.3-4.7-2.3-7.4-3.1c-2.7-0.7-5.5-1-8.3-1c-4,0-7.7,0.7-11,2.1c-3.5,1.5-6.4,3.6-8.4,6.3c-0.4,0.6-0.9,1.2-1.2,1.9
		c-1.9-3-4.4-5.4-7.5-7.2c-3.6-2.1-7.7-3.1-12.3-3.1c-4.7,0-9,1.1-12.8,3.3c-3.7,2.1-6.5,5-8.7,8.7c-0.7-2.2-1.8-4.1-3.1-5.7
		c-2.3-2.9-6.6-6.2-14.4-6.2c-2.4,0-4.7,0.3-6.8,1v-5.6c0-2.3-0.6-4.3-1.7-6.1c2,0.4,4,0.6,6.2,0.6c2.5,0,5.2-0.4,8.1-1.1
		s5.4-1.6,7.5-2.6l0.1-0.1c0.9-0.4,1.7-1,2.3-1.6c0.6,0.5,1.2,1,1.9,1.4c2.3,1.5,5,2.5,8,3.2c2.9,0.6,6.2,0.9,10.1,0.9
		c6.5,0,12-1.5,16.1-4.5c1.3-1,2.5-2.1,3.4-3.2c1.7,2.3,4,4.2,6.6,5.5c2.9,1.5,6.2,2.2,9.8,2.2c3.4,0,6.5-0.8,9.1-2.3l0,0
		c2.1,1.5,4.5,2.2,7.3,2.2c4.5,0,7.3-1.8,8.8-3.2c0.7-0.6,1.3-1.4,1.9-2.4c0.7,1.2,1.6,2.2,2.5,2.9c2.3,1.9,5.2,2.9,8.5,2.9
		s6.2-1,8.5-2.9c1.6-1.3,3.4-3.5,4-7.3c2.1,3,5,5.4,8.4,7.2c4,2.1,8.7,3.1,13.8,3.1c2.5,0,5.2-0.4,8.1-1.1s5.4-1.6,7.5-2.6l0.1-0.1
		c3.9-2.1,6-5.5,6-9.7C502.7,106.5,502.1,104.2,500.7,102.2C500.7,102.3,500.7,102.3,500.7,102.2z M271.4,139.5
		c-1.4-3-4.4-5.5-9.6-5.8c-0.1-3.4-1.3-6.3-3.7-8.4c-1.6-1.5-4.5-3.3-8.9-3.3c-4.5,0-7.3,1.8-8.9,3.3c-2.3,2.2-3.6,5.2-3.7,8.7
		c-3.2,0.6-5.4,2.1-6.7,4.1c-3.9-3.5-9.5-5.4-16.6-5.4c-3.1,0-6.2,0.4-9.3,1c-3.2,0.7-5.9,1.5-8.2,2.7c-0.7-5.4-2.9-10-6.7-13.4
		c-2.9-2.7-6.6-4.5-10.9-5.4c0.7-1,1.3-2.1,1.8-3.2l12.2-33.1v29c0,4.5,2,7.3,3.7,8.8c2.3,2.1,5.3,3.2,8.9,3.2
		c4.5,0,7.3-1.8,8.9-3.2c1.7-1.5,3.7-4.3,3.7-8.8h0.7c0,4.5,2,7.3,3.7,8.8c2.3,2.1,5.3,3.2,8.9,3.2c4.5,0,7.3-1.8,8.9-3.2
		c1.4-1.3,3-3.4,3.5-6.7c2.1,2.9,4.9,5.3,8.3,7c4,2.1,8.7,3.1,13.8,3.1c5.2,0,9.8-1,13.9-3.1c3.4-1.8,6.3-4.3,8.5-7.3
		c0.4,3.8,2.3,6.2,4,7.5c2.3,1.9,5.2,2.9,8.5,2.9s6.2-1,8.5-2.9c1.6-1.3,2.3-1.8,0.2,0.1c-2.5,2.3-3.8,5.2-3.8,8.7v8
		c-1.9-1.1-4-1.9-6.4-2.6c-2.6-0.7-5.4-1-8.1-1c-5.1,0-9.6,1-13.6,3.2C274.7,136.9,272.9,138.1,271.4,139.5z"/>
</g>
<g>
	<path class="st1" d="M142.1,180.8c-1.6-1.6-3.5-4.6-3.5-9.2v-42.2c0-4.6,1.9-7.4,3.4-8.9c1.6-1.6,4.4-3.4,8.9-3.4h5.1
		c-0.5-0.8-0.9-1.7-1.2-2.6l-5.1-14.7l-5.4,14.9c-0.9,2.6-2.8,4.7-5.2,6.2c-2.2,1.3-4.7,2-7.3,2c-2.7,0-5.2-0.7-7.4-2
		c-2.4-1.5-4.2-3.7-5.2-6.3l-16-43c-0.6-1.6-0.9-3.3-0.9-4.8c0-3.6,1.4-6.7,4.1-8.9c2.4-1.9,5.3-2.9,8.4-2.9c2.5,0,4.9,0.7,7,2
		c2.4,1.5,4,3.7,5,6.4l5.7,16.4l6.1-16.6c0.9-2.6,2.5-4.6,4.7-6.1c2.1-1.4,4.5-2.1,7-2.1s4.9,0.7,7,2.1c2.1,1.4,3.6,3.6,4.6,6.2
		l5.7,16.6l5.9-16.7c0.7-2.1,1.8-3.7,3.2-5.1L135.6,17c-3.9-3.9-9-6-14.5-6s-10.6,2.1-14.5,6l-77,77c-8,8-8,21,0,29l77,77
		c3.9,3.9,9,6,14.5,6s10.7-2.2,14.5-6l15.6-15.6C146.6,184.3,143.7,182.4,142.1,180.8z"/>
	<path class="st1" d="M218.3,112.2c-0.1-0.6-0.2-1.3-0.2-2h-0.7c0,4.5-2,7.3-3.7,8.8c-1.6,1.4-4.4,3.2-8.9,3.2
		c-3.6,0-6.6-1.1-8.9-3.2c-1.7-1.5-3.7-4.3-3.7-8.8v-29l-12.2,33.1c-0.5,1.1-1.1,2.2-1.8,3.2c4.3,0.9,8,2.7,10.9,5.4
		c3.8,3.4,6,8,6.7,13.4c1.6-0.8,3.4-1.5,5.4-2l11.4-11.4C215.6,120,217.6,116.3,218.3,112.2z"/>
	<path class="st1" d="M164.2,171.4l7.9-7.9c-0.4,0-0.8,0-1.1,0h-6.8V171.4z"/>
</g>
<g>
	<g>
		<path class="st2" d="M180.8,61.4c1.2-0.8,2.5-1.2,3.9-1.2c1.8,0,3.2,0.6,4.5,1.7c1.3,1.1,1.9,2.6,1.9,4.5c0,0.8-0.2,1.9-0.7,3.2
			l-15.8,42.9c-0.5,1.5-1.5,2.6-2.9,3.4s-2.9,1.2-4.6,1.2c-1.7,0-3.2-0.4-4.5-1.2c-1.4-0.8-2.3-2-2.9-3.4l-10.3-29.3l-10.7,29.3
			c-0.6,1.5-1.5,2.6-2.9,3.4s-2.9,1.2-4.5,1.2c-1.7,0-3.2-0.4-4.5-1.2c-1.4-0.8-2.3-2-2.9-3.4l-15.9-43c-0.4-1-0.6-2.1-0.6-3
			c0-2,0.7-3.5,2.1-4.6s3-1.7,4.8-1.7c1.5,0,2.9,0.4,4,1.2c1.2,0.7,2.1,1.9,2.6,3.4l10.8,31.1l11.4-31.1c0.5-1.5,1.4-2.6,2.6-3.4
			c1.2-0.8,2.5-1.2,3.9-1.2s2.7,0.4,3.9,1.2s2,2,2.5,3.4l10.7,31.7L178,64.7C178.8,63.3,179.7,62.2,180.8,61.4z"/>
	</g>
	<g>
		<path class="st2" d="M234.3,80.7c2.2,2.8,3.3,7,3.3,12.6v17c0,2-0.7,3.6-1.9,4.8c-1.2,1.2-3,1.8-5.1,1.8s-3.9-0.6-5.1-1.8
			c-1.2-1.2-1.9-2.7-1.9-4.8V92.9c0-3.8-1.6-5.6-4.9-5.6c-2.1,0-3.7,0.7-5,2c-1.2,1.3-1.8,3.2-1.8,5.4v15.6c0,2-0.7,3.6-1.9,4.8
			s-3,1.8-5.1,1.8s-3.9-0.6-5.1-1.8c-1.2-1.2-1.9-2.7-1.9-4.8V66.6c0-1.8,0.7-3.4,2-4.5c1.3-1.2,3.1-1.8,5.2-1.8
			c2.1,0,3.7,0.6,5,1.7c1.2,1.1,1.9,2.6,1.9,4.4v15.8c1.4-1.8,3.2-3.2,5.3-4.2s4.5-1.4,7.1-1.4C228.7,76.6,232.1,78,234.3,80.7z"/>
	</g>
	<g>
		<path class="st2" d="M253.8,114.5c-3.2-1.7-5.7-4-7.5-7c-1.8-3.1-2.6-6.6-2.6-10.7s0.9-7.7,2.6-10.7c1.8-3,4.3-5.4,7.5-7
			c3.2-1.6,7-2.4,11.3-2.4s8.1,0.8,11.3,2.4c3.2,1.6,5.7,4,7.5,7s2.6,6.6,2.6,10.7s-0.9,7.7-2.6,10.7c-1.8,3.1-4.3,5.4-7.5,7
			c-3.2,1.7-7,2.5-11.3,2.5C260.7,117,257,116.2,253.8,114.5z M272.4,96.7c0-6.5-2.5-9.8-7.5-9.8s-7.5,3.2-7.5,9.8s2.5,9.8,7.5,9.8
			S272.4,103.3,272.4,96.7z"/>
	</g>
	<g>
		<path class="st2" d="M294.7,115.3c-1.3-1.1-2-2.7-2-4.8V67c0-2.1,0.7-3.8,2-4.9c1.3-1.1,3-1.7,5-1.7s3.7,0.6,5,1.7
			c1.3,1.1,2,2.7,2,4.9v43.5c0,2.1-0.7,3.7-2,4.8c-1.3,1.1-3,1.6-5,1.6S296.1,116.3,294.7,115.3z"/>
	</g>
	<g>
		<path class="st2" d="M349.4,105.4c0.7,1,1.2,2.2,1.2,3.7c0,2.1-1,3.7-3.1,4.8c-1.8,0.9-3.9,1.6-6.4,2.3c-2.4,0.6-4.7,0.9-6.7,0.9
			c-4.3,0-8.1-0.8-11.3-2.4s-5.6-4-7.4-7c-1.8-3.1-2.6-6.6-2.6-10.7c0-3.9,0.8-7.4,2.5-10.5s4-5.5,7-7.2s6.3-2.6,10-2.6
			s6.8,0.8,9.5,2.3c2.7,1.6,4.8,3.8,6.4,6.7c1.5,2.9,2.3,6.3,2.3,10.2c0,1.2-0.3,2.1-0.8,2.8c-0.6,0.7-1.3,1-2.4,1h-20.7
			c0.4,2.5,1.2,4.3,2.4,5.4c1.2,1.1,3.2,1.7,5.6,1.7c1.3,0,2.5-0.1,3.6-0.4s2.3-0.7,3.7-1.2c0.8-0.3,1.5-0.6,2.3-0.8
			c0.7-0.2,1.5-0.4,2.1-0.4C347.7,103.9,348.7,104.4,349.4,105.4z M328.7,87.9c-1.1,1.2-1.8,2.9-2,5.1h12.4c-0.3-4.6-2.3-7-6-7
			C331.2,86.1,329.7,86.7,328.7,87.9z"/>
	</g>
	<g>
		<path class="st2" d="M363.5,116.2c-2.4-0.5-4.5-1.4-6.4-2.5c-0.7-0.4-1.3-1-1.8-1.9s-0.7-1.9-0.7-3c0-1.4,0.4-2.6,1.2-3.5
			c0.7-1,1.7-1.4,2.9-1.4c0.8,0,1.5,0.1,2.2,0.3s1.5,0.5,2.5,0.9c1.7,0.6,3.2,1,4.5,1.3s2.9,0.4,4.9,0.4c1.4,0,2.6-0.2,3.4-0.6
			s1.2-1,1.2-1.7c0-0.6-0.2-1-0.6-1.3s-1.2-0.6-2.3-0.9c-1.1-0.3-3-0.7-5.6-1.2c-4.7-0.9-8.1-2.3-10.1-4c-2.1-1.8-3.2-4.4-3.2-7.7
			c0-2.4,0.7-4.6,2.3-6.5c1.5-2,3.6-3.4,6.2-4.5s5.6-1.7,8.9-1.7c2.3,0,4.7,0.3,6.9,0.9c2.2,0.6,4.3,1.4,5.9,2.4s2.4,2.5,2.4,4.5
			c0,1.5-0.4,2.7-1.2,3.7c-0.8,1-1.8,1.5-2.9,1.5c-1.4,0-3-0.4-4.9-1.3c-1.2-0.6-2.3-1-3.4-1.3c-1-0.3-2.1-0.4-3.4-0.4
			s-2.3,0.2-3.1,0.6s-1.1,1-1.1,1.7c0,0.8,0.5,1.5,1.5,2c1,0.4,3.1,1,6.1,1.6c5.1,0.9,8.7,2.3,10.8,4c2.1,1.8,3.2,4.4,3.2,7.8
			c0,3.8-1.6,6.9-4.8,9.2c-3.2,2.3-7.5,3.4-12.8,3.4C368.9,117,365.9,116.7,363.5,116.2z"/>
	</g>
	<g>
		<path class="st2" d="M427.1,81c2.9,2.9,4.3,7.2,4.3,13.1v16.4c0,2-0.6,3.6-1.8,4.7c-1.2,1.1-2.9,1.7-4.9,1.7
			c-1.8,0-3.4-0.5-4.5-1.6c-1.2-1-1.8-2.5-1.9-4.3c-0.7,1.9-2,3.4-3.7,4.4c-1.8,1-3.8,1.6-6.2,1.6c-2.7,0-5.1-0.5-7.3-1.6
			c-2.1-1.1-3.9-2.6-5.1-4.5s-1.8-4.1-1.8-6.5c0-2.8,0.7-5,2.2-6.7s3.7-2.9,6.9-3.6c3.2-0.7,7.4-1.1,12.8-1.1h2.1v-1
			c0-1.8-0.4-3.2-1.2-4c-0.8-0.8-2.3-1.2-4.3-1.2c-2.1,0-5.3,0.7-9.5,2.2c-1.2,0.4-2.3,0.7-3.1,0.7c-1.3,0-2.3-0.4-3.2-1.4
			c-0.8-1-1.2-2.2-1.2-3.7c0-1.2,0.2-2.1,0.7-2.9c0.4-0.7,1.2-1.4,2.3-2c1.8-1,4.2-1.7,7-2.3s5.5-0.9,8.2-0.9
			C419.9,76.6,424.3,78.1,427.1,81z M416.3,105.6c1.2-1.3,1.8-3.1,1.8-5.1v-1h-1.2c-3.4,0-5.8,0.3-7.2,0.9c-1.4,0.6-2.1,1.6-2.1,3
			c0,1.2,0.4,2.2,1.2,3c0.7,0.8,1.8,1.2,2.9,1.2C413.7,107.6,415.1,107,416.3,105.6z"/>
	</g>
	<g>
		<path class="st2" d="M441.3,115.3c-1.3-1.1-2-2.7-2-4.8V67c0-2.1,0.7-3.8,2-4.9c1.3-1.1,3-1.7,5-1.7s3.7,0.6,5,1.7
			c1.3,1.1,2,2.7,2,4.9v43.5c0,2.1-0.7,3.7-2,4.8s-3,1.6-5,1.6C444.4,116.9,442.7,116.3,441.3,115.3z"/>
	</g>
	<g>
		<path class="st2" d="M496,105.4c0.7,1,1.2,2.2,1.2,3.7c0,2.1-1,3.7-3.1,4.8c-1.8,0.9-3.9,1.6-6.4,2.3c-2.4,0.6-4.7,0.9-6.7,0.9
			c-4.3,0-8.1-0.8-11.3-2.4s-5.6-4-7.4-7c-1.8-3.1-2.6-6.6-2.6-10.7c0-3.9,0.8-7.4,2.5-10.5s4-5.5,7-7.2s6.3-2.6,10-2.6
			c3.6,0,6.8,0.8,9.5,2.3c2.7,1.6,4.8,3.8,6.4,6.7c1.5,2.9,2.3,6.3,2.3,10.2c0,1.2-0.3,2.1-0.8,2.8c-0.6,0.7-1.3,1-2.4,1h-20.8
			c0.4,2.5,1.2,4.3,2.4,5.4c1.2,1.1,3.2,1.7,5.6,1.7c1.3,0,2.5-0.1,3.6-0.4s2.3-0.7,3.7-1.2c0.8-0.3,1.5-0.6,2.3-0.8
			c0.7-0.2,1.5-0.4,2.1-0.4C494.3,103.9,495.2,104.4,496,105.4z M475.1,87.9c-1.1,1.2-1.8,2.9-2,5.1h12.4c-0.3-4.6-2.3-7-6-7
			C477.7,86.1,476.2,86.7,475.1,87.9z"/>
	</g>
</g>
<g>
	<path class="st2" d="M146.1,176.6c-1.3-1.3-1.9-3-1.9-5.3v-42.2c0-2.1,0.6-3.8,1.8-5s2.8-1.8,5-1.8h20.2c6.2,0,10.9,1.5,14.4,4.7
		c3.4,3.2,5.1,7.5,5.1,13.1c0,5.5-1.8,9.9-5.1,13.1c-3.4,3.2-8.2,4.8-14.3,4.8h-12.4v13.4c0,2.2-0.7,4-2,5.3s-3.1,1.9-5.4,1.9
		C149.1,178.5,147.3,177.9,146.1,176.6z M169.1,147c2.7,0,4.7-0.6,5.9-1.7c1.3-1.1,1.9-2.8,1.9-5.1c0-4.5-2.6-6.9-7.9-6.9h-10.4
		v13.6L169.1,147L169.1,147z"/>
</g>
<g>
	<path class="st2" d="M226.7,142.5c2.9,2.9,4.3,7.2,4.3,13.1v16.5c0,2-0.6,3.6-1.8,4.7s-2.9,1.7-4.9,1.7c-1.8,0-3.4-0.5-4.5-1.6
		c-1.2-1-1.8-2.5-1.9-4.3c-0.7,1.9-2,3.4-3.7,4.4s-3.8,1.6-6.2,1.6c-2.7,0-5.1-0.5-7.3-1.6s-3.9-2.6-5.1-4.5
		c-1.2-1.9-1.8-4.1-1.8-6.5c0-2.8,0.7-5,2.2-6.7s3.7-2.9,6.9-3.6s7.4-1.1,12.8-1.1h2.1v-1c0-1.8-0.4-3.2-1.2-4s-2.3-1.2-4.3-1.2
		c-2.1,0-5.3,0.7-9.5,2.2c-1.2,0.4-2.3,0.7-3.1,0.7c-1.3,0-2.3-0.4-3.2-1.4c-0.8-1-1.2-2.2-1.2-3.7c0-1.2,0.2-2.1,0.7-2.9
		c0.4-0.7,1.2-1.4,2.3-2c1.8-1,4.2-1.7,7-2.3s5.5-0.9,8.2-0.9C219.3,138.3,223.8,139.7,226.7,142.5z M215.8,167.3
		c1.2-1.3,1.8-3.1,1.8-5.1v-1h-1.2c-3.4,0-5.8,0.3-7.2,0.9s-2.1,1.6-2.1,3c0,1.2,0.4,2.2,1.2,3c0.7,0.8,1.8,1.2,2.9,1.2
		C213.1,169.3,214.7,168.6,215.8,167.3z"/>
</g>
<g>
	<path class="st2" d="M267.1,173.2c0,1.8-0.7,3.2-2.1,4.1s-3.4,1.2-6.1,1.1l-2.2-0.1c-4.8-0.4-8.4-1.8-10.8-4.3
		c-2.4-2.5-3.7-6-3.7-10.5v-14h-2.3c-4.2,0-6.3-1.8-6.3-5.2s2.1-5.1,6.3-5.1h2.3v-5.1c0-2,0.7-3.6,1.9-4.8s3-1.8,5.1-1.8
		s3.9,0.6,5.1,1.8c1.2,1.2,1.9,2.8,1.9,4.8v5.1h4.3c4.2,0,6.3,1.7,6.3,5.1s-2.1,5.2-6.3,5.2h-4.3v15.2c0,1,0.3,1.8,0.9,2.5
		s1.4,1,2.3,1.1l2.3,0.1C265.3,168.7,267.1,170.3,267.1,173.2z"/>
</g>
<g>
	<path class="st2" d="M274.5,173.3c-3.7-3.6-5.5-8.4-5.5-14.6c0-4,0.9-7.6,2.7-10.7c1.8-3.1,4.3-5.5,7.6-7.2s7-2.5,11.1-2.5
		c2.2,0,4.4,0.3,6.6,0.9s4.2,1.4,5.9,2.4c1.6,1,2.4,2.5,2.4,4.5c0,1.6-0.4,2.9-1.2,4c-0.7,1-1.8,1.5-2.9,1.5c-0.8,0-1.5-0.1-2.3-0.4
		c-0.7-0.2-1.5-0.6-2.4-1.1c-1-0.4-2-0.8-2.7-1.1c-0.7-0.2-1.5-0.4-2.4-0.4c-5.2,0-7.8,3.2-7.8,9.5c0,3.2,0.7,5.6,2,7.2
		c1.3,1.7,3.3,2.5,5.8,2.5c0.9,0,1.7-0.1,2.5-0.4c0.7-0.2,1.6-0.6,2.6-1.1c1-0.4,1.9-0.8,2.6-1.1c0.7-0.2,1.4-0.4,2.2-0.4
		c1.2,0,2.2,0.5,2.9,1.5s1.2,2.3,1.2,4c0,1-0.2,1.9-0.7,2.7c-0.4,0.8-1,1.5-1.8,1.8c-3.7,2.2-8.1,3.3-13.3,3.3
		C283.1,178.7,278.1,176.9,274.5,173.3z"/>
</g>
<g>
	<path class="st2" d="M346.8,142.4c2.2,2.8,3.3,7,3.3,12.6v17c0,2-0.7,3.6-1.9,4.8c-1.2,1.2-3,1.8-5.1,1.8s-3.9-0.6-5.1-1.8
		s-1.9-2.7-1.9-4.8v-17.3c0-3.8-1.6-5.6-4.9-5.6c-2.1,0-3.7,0.7-5,2c-1.2,1.3-1.8,3.2-1.8,5.4v15.6c0,2-0.7,3.6-1.9,4.8
		c-1.2,1.2-3,1.8-5.1,1.8s-3.9-0.6-5.1-1.8s-1.9-2.7-1.9-4.8v-43.8c0-1.8,0.7-3.4,2-4.5c1.3-1.2,3.1-1.8,5.2-1.8s3.7,0.6,5,1.7
		c1.2,1.1,1.9,2.6,1.9,4.4v15.8c1.4-1.8,3.2-3.2,5.3-4.2c2.1-1,4.5-1.4,7.1-1.4C341.2,138.3,344.7,139.7,346.8,142.4z"/>
</g>
<g>
	<path class="st2" d="M392.4,167c0.7,1,1.2,2.2,1.2,3.7c0,2.1-1,3.7-3.1,4.8c-1.8,0.9-3.9,1.6-6.4,2.3c-2.4,0.6-4.7,0.9-6.7,0.9
		c-4.3,0-8.1-0.8-11.3-2.4c-3.2-1.6-5.6-4-7.4-7c-1.8-3.1-2.6-6.6-2.6-10.7c0-3.9,0.8-7.4,2.5-10.5s4-5.5,7-7.2s6.3-2.6,10-2.6
		s6.8,0.8,9.5,2.3c2.7,1.6,4.8,3.8,6.4,6.7c1.5,2.9,2.3,6.3,2.3,10.2c0,1.2-0.3,2.1-0.8,2.8c-0.6,0.7-1.3,1-2.4,1h-20.7
		c0.4,2.5,1.2,4.3,2.4,5.4c1.2,1.1,3.2,1.7,5.6,1.7c1.3,0,2.5-0.1,3.7-0.4c1.1-0.3,2.3-0.7,3.7-1.2c0.8-0.3,1.5-0.6,2.3-0.8
		c0.7-0.2,1.5-0.4,2.1-0.4C390.8,165.6,391.7,166.1,392.4,167z M371.7,149.5c-1.1,1.2-1.8,2.9-2,5.1h12.4c-0.3-4.6-2.3-7-6-7
		C374.2,147.8,372.7,148.3,371.7,149.5z"/>
</g>
<g>
	<path class="st2" d="M406.5,177.9c-2.4-0.5-4.5-1.4-6.4-2.5c-0.7-0.4-1.3-1-1.8-1.9c-0.4-0.9-0.7-1.9-0.7-3c0-1.4,0.4-2.6,1.2-3.5
		c0.7-1,1.7-1.4,2.9-1.4c0.8,0,1.5,0.1,2.2,0.3s1.5,0.5,2.5,0.9c1.7,0.6,3.2,1,4.5,1.3s2.9,0.4,4.9,0.4c1.4,0,2.6-0.2,3.4-0.6
		s1.2-1,1.2-1.7c0-0.6-0.2-1-0.6-1.3s-1.2-0.6-2.3-0.9c-1.1-0.3-3-0.7-5.6-1.2c-4.7-0.9-8.1-2.3-10.1-4c-2.1-1.8-3.2-4.4-3.2-7.7
		c0-2.4,0.7-4.6,2.3-6.5c1.5-2,3.6-3.4,6.2-4.5s5.6-1.7,8.9-1.7c2.3,0,4.7,0.3,6.9,0.9c2.2,0.6,4.3,1.4,5.9,2.4s2.4,2.5,2.4,4.5
		c0,1.5-0.4,2.7-1.2,3.7c-0.8,1-1.8,1.5-2.9,1.5c-1.4,0-3-0.4-4.9-1.3c-1.2-0.6-2.3-1-3.4-1.3c-1-0.3-2.1-0.4-3.4-0.4
		s-2.3,0.2-3.1,0.6c-0.7,0.4-1.1,1-1.1,1.7c0,0.8,0.5,1.5,1.5,2c1,0.4,3.1,1,6.1,1.6c5.1,0.9,8.7,2.3,10.8,4
		c2.1,1.8,3.2,4.4,3.2,7.8c0,3.8-1.6,6.9-4.8,9.2c-3.2,2.3-7.5,3.4-12.8,3.4C411.9,178.7,408.9,178.4,406.5,177.9z"/>
</g>
<g>
	<path class="st0" d="M52.5,130.3c0.6,0,1-0.2,1.3-0.5c0.3-0.3,0.5-0.8,0.5-1.3s-0.1-0.9-0.5-1.3L43.6,117c-0.7-0.7-1.9-0.7-2.6,0
		c-0.3,0.3-0.5,0.8-0.5,1.3s0.1,0.9,0.5,1.3l10.2,10.2C51.5,130.1,52,130.3,52.5,130.3z"/>
	<path class="st0" d="M64,137.3c-0.7-0.7-1.9-0.7-2.6,0c-0.3,0.3-0.5,0.8-0.5,1.3s0.1,0.9,0.5,1.3l10.2,10.2
		c0.3,0.3,0.8,0.5,1.3,0.5s1-0.2,1.3-0.5c0.3-0.3,0.5-0.8,0.5-1.3s-0.1-0.9-0.5-1.3L64,137.3z"/>
	<path class="st0" d="M130.1,27.9c0.6,0,1-0.2,1.3-0.4c0.7-0.7,0.7-1.9,0-2.6c-2.6-2.6-5.9-4-9.6-4c-2,0-4,0.4-5.8,1.3
		c-0.6,0.3-1,0.9-1,1.6c0,0.3,0,0.5,0.1,0.8c0.3,0.9,1.5,1.3,2.4,0.9c1.4-0.7,2.8-1,4.3-1c2.7,0,5.2,1.1,7,2.9
		C129.1,27.7,129.6,27.9,130.1,27.9z"/>
	<path class="st0" d="M96.1,45.4c0.4,0,0.9-0.1,1.3-0.5l10.2-10.2c0.7-0.8,0.7-1.9,0-2.6c-0.7-0.7-1.9-0.7-2.6,0L94.9,42.3
		c-0.3,0.3-0.5,0.8-0.5,1.3s0.1,0.9,0.5,1.3C95.1,45.2,95.6,45.4,96.1,45.4z"/>
	<path class="st0" d="M151.9,45.2L141.7,35c-0.7-0.7-1.9-0.7-2.6,0c-0.3,0.3-0.5,0.8-0.5,1.3s0.1,0.9,0.5,1.3l10.2,10.2
		c0.3,0.3,0.8,0.5,1.3,0.5c0.4,0,0.9-0.3,1.3-0.5c0.3-0.3,0.5-0.8,0.5-1.3S152.4,45.6,151.9,45.2z"/>
	<path class="st0" d="M136.2,181l-7.3,7.3c-0.8,0.8-1.8,1.4-2.8,1.9c-0.9,0.4-1.3,1.5-0.9,2.4c0.4,0.6,1,1,1.7,1
		c0.3,0,0.5,0,0.9-0.1c1.4-0.6,2.6-1.5,3.7-2.6l7.3-7.3c0.3-0.3,0.5-0.8,0.5-1.3s-0.1-0.9-0.5-1.3
		C138.1,180.3,136.9,180.3,136.2,181z"/>
	<path class="st0" d="M46.5,95.7c0.7-0.8,0.7-1.9,0-2.6c-0.7-0.7-1.9-0.7-2.6,0l-5.1,5.1c-1.9,2-3.3,4.5-3.7,7.3c0,0.1,0,0.2,0,0.3
		c0,0.9,0.6,1.7,1.5,1.8c0.1,0,0.2,0,0.3,0c1,0,1.6-0.6,1.8-1.5c0.3-2,1.2-3.8,2.7-5.3L46.5,95.7z"/>
	<path class="st0" d="M104.7,178c-0.7-0.7-1.9-0.7-2.6,0c-0.3,0.3-0.5,0.8-0.5,1.3s0.1,0.9,0.5,1.3l10.2,10.2
		c0.3,0.3,0.8,0.5,1.3,0.5s1-0.1,1.3-0.5c0.3-0.3,0.5-0.8,0.5-1.3s-0.1-0.9-0.5-1.3L104.7,178z"/>
	<path class="st0" d="M91.5,164.2L75.9,65.7c0.5,0,0.9-0.1,1.2-0.5L87.2,55c0.3-0.3,0.5-0.8,0.5-1.3s-0.1-0.9-0.5-1.3
		c-0.7-0.7-1.9-0.7-2.6,0l-9.4,9.4l-3.4-21.7c1.5-1.3,2.8-3.1,3.8-5.6c2.2-4.9,2-9.8-0.5-13.6c-1.7-2.5-4.2-4.3-7.3-5.4L66.2,5.1
		c-0.5-3.3-3.6-5.5-6.8-5c-3.3,0.5-5.5,3.6-5,6.8c0,0.1,0,0.1,0,0.2l1.5,7.6c-8.4,1.8-14.5,8.6-20.1,14.7
		c-5.5,6.1-10.7,11.9-17.2,12.1c-4.7,0.2-10-2.6-16.1-8.5c-0.6-0.6-1.5-0.6-2.1,0s-0.6,1.5,0,2.1c6.7,6.4,12.7,9.5,18.3,9.3
		c7.8-0.3,13.4-6.5,19.3-13.1c5.4-6,11-12.2,18.4-13.8L61,40.8c-0.3,0-0.7,0.1-1,0.1c-5.6,0.6-12.5,1.3-20.9,6.5
		c-6.5,4-9.9,8.2-10.5,12.7c-0.9,7.2,5.5,14.1,12.8,22.1c6.8,7.5,14.6,15.9,18.2,26.4c4,11.4-3.6,25.5-8.7,34.8
		c-3.5,6.6-5.6,10.6-3.7,12.7c0.6,0.6,1.4,1,2.6,1c1.7,0,4-0.8,7.5-2.3c0.7-0.3,1.1-1.2,0.8-1.9c-0.3-0.7-1.2-1.1-1.9-0.8
		c-4.9,2-6.3,1.9-6.7,1.8c-0.2-1.2,2.2-5.7,4.2-9.3c5.3-9.8,13.3-24.6,8.9-37.1c-3.9-11.1-12-19.8-19-27.4
		c-6.9-7.5-12.8-13.8-12-19.7c0.4-3.6,3.5-7.1,9.1-10.6c7.8-4.9,14.3-5.6,19.6-6.1c0.4,0,0.9-0.1,1.3-0.1l5.8,29.7
		c-0.1-0.2-0.2-0.4-0.4-0.5c-0.7-0.7-1.9-0.7-2.6,0L54.1,83c-0.3,0.3-0.5,0.8-0.5,1.3s0.1,0.9,0.5,1.3c0.3,0.3,0.8,0.5,1.3,0.5
		s1-0.2,1.3-0.5l10.2-10.2c0.3-0.3,0.5-0.8,0.5-1.3c0,0,0,0,0,0l17.4,89.6c0.7,1.1,1.7,2.1,3.3,2.4
		C90.2,166.5,91.1,165.4,91.5,164.2z M72.6,22.5c1.9,3,2.1,6.8,0.3,10.9c-0.5,1.3-1.1,2.3-1.7,3.1l-2.8-17.6
		C70.2,19.8,71.6,21,72.6,22.5z M58.6,8.1c-0.2-1.1,0.6-2.2,1.7-2.3c1.1-0.2,2.2,0.6,2.3,1.7l1.2,7c-1.2-0.2-2.4-0.3-3.7-0.3
		c-0.1,0-0.3,0-0.4,0L58.6,8.1z M60.2,17.1c1.5,0,2.9,0.2,4.2,0.4l3.8,21.6c-1.2,0.6-2.4,1-3.9,1.2L60.2,17.1z M67.9,49.3
		c-1.1,0.2-2.2-0.6-2.3-1.7l-0.8-4.5c1.4-0.2,2.7-0.6,3.9-1.1l0.9,4.9C69.7,48,69,49.1,67.9,49.3z"/>
	<path class="st0" d="M96.2,194.1l-6.9-6.9l5.9,29.8c0.2,1.4,1.5,2.2,2.7,1.9c1.2-0.2,2.1-1.4,1.8-2.6L96.2,194.1z"/>
</g>
</svg>
