<svg id="ab45b261-3c4e-40e6-b271-ea89dd9f0bc3" data-name="Layer 1" xmlns="http://www.w3.org/2000/svg" viewBox="0 0 503.35 218.93"><defs><style>.b14a09af-9357-4723-93ae-b846f5dab4dd{fill:#fff;}.a19674fa-8169-4f0c-a684-2d6a82999b2e{fill:#999;}.f11e5a21-3086-4017-a30e-09f5831bbe51{fill:red;}</style></defs><path class="b14a09af-9357-4723-93ae-b846f5dab4dd" d="M500.7,102.2a9.67,9.67,0,0,0,2.1-6.4A28,28,0,0,0,499.9,83a21.46,21.46,0,0,0-8.5-8.9A23.93,23.93,0,0,0,479.1,71a25.17,25.17,0,0,0-12.8,3.3,23.78,23.78,0,0,0-7.4,6.7V66.8a11.73,11.73,0,0,0-4-9.2,13.91,13.91,0,0,0-17,0,11.4,11.4,0,0,0-4,9.2V80.5a19.12,19.12,0,0,0-2.7-3.5c-4-4-9.8-5.9-17.2-5.9a49,49,0,0,0-9.3,1,34.46,34.46,0,0,0-8.4,2.8l-.1.1a12.24,12.24,0,0,0-4,3.4,10.9,10.9,0,0,0-3.3-3.1,29.69,29.69,0,0,0-15.7-4.1,28,28,0,0,0-11,2.1,20.08,20.08,0,0,0-8.4,6.3,12.23,12.23,0,0,0-1.2,1.9,21.55,21.55,0,0,0-7.5-7.2,23.93,23.93,0,0,0-12.3-3.1A25.17,25.17,0,0,0,320,74.5a23.78,23.78,0,0,0-7.4,6.7V67a11.73,11.73,0,0,0-4-9.2,13.91,13.91,0,0,0-17,0,11.4,11.4,0,0,0-4,9.2V81.4a24.43,24.43,0,0,0-8.4-7.2,32.27,32.27,0,0,0-27.6,0,23.58,23.58,0,0,0-9.6,8.9,17.38,17.38,0,0,0-3.1-5.7c-2.3-2.9-6.6-6.2-14.4-6.2a21.52,21.52,0,0,0-6.8,1V66.6a11,11,0,0,0-3.8-8.6,12.78,12.78,0,0,0-8.7-3,13,13,0,0,0-8.9,3.2,6.1,6.1,0,0,0-1.3,1.5,9.58,9.58,0,0,0-1.7-1.8,12.14,12.14,0,0,0-8.1-3,12.5,12.5,0,0,0-7,2.1,11.79,11.79,0,0,0-4.7,6.2l-5.9,16.7-5.7-16.6a12.72,12.72,0,0,0-4.6-6.2,12.72,12.72,0,0,0-14,0,11.94,11.94,0,0,0-4.7,6.1l-6.1,16.6-5.7-16.4a12.28,12.28,0,0,0-5-6.4,13.25,13.25,0,0,0-7-2,13.38,13.38,0,0,0-8.4,2.9,11.1,11.1,0,0,0-4.1,8.9,14,14,0,0,0,.9,4.8l16,43a12.83,12.83,0,0,0,5.2,6.3,14.51,14.51,0,0,0,14.7,0,12.11,12.11,0,0,0,5.2-6.2l5.4-14.9,5.1,14.7a12.27,12.27,0,0,0,1.2,2.6h-5.1a11.67,11.67,0,0,0-12.3,12.3v42.2a12.75,12.75,0,0,0,3.5,9.2,13.7,13.7,0,0,0,18.4.1,12.19,12.19,0,0,0,3.7-9.2v-8.2H171c7.5,0,13.6-2.1,18-6.2a18.93,18.93,0,0,0,3.2-3.7c.2.3.5.5.7.8a8,8,0,0,0-1.3,1.3,15.48,15.48,0,0,0-3.5,10.3,18.14,18.14,0,0,0,2.7,9.5,19.11,19.11,0,0,0,7.3,6.5,21.09,21.09,0,0,0,9.8,2.2,18.09,18.09,0,0,0,9.1-2.3h0a12.13,12.13,0,0,0,7.3,2.2,12.52,12.52,0,0,0,8.8-3.2,11.61,11.61,0,0,0,3.5-8.7l.2-8.6c0,5.9,1.8,10.8,5.3,14.4,3.4,3.4,8.2,5.5,14.4,5.9l2.3.1c.5,0,1,.1,1.5.1a14.69,14.69,0,0,0,7.9-2,9.28,9.28,0,0,0,3.6-4c4.6,4,10.7,6.1,18,6.1a30.82,30.82,0,0,0,16.1-4.1,11.32,11.32,0,0,0,1.3-1,12.94,12.94,0,0,0,1.5,1.7,12.78,12.78,0,0,0,8.9,3.2,13,13,0,0,0,8.9-3.2,11.36,11.36,0,0,0,3.7-8.8h.7a11.36,11.36,0,0,0,3.7,8.8,12.78,12.78,0,0,0,8.9,3.2,13,13,0,0,0,8.9-3.2,10.88,10.88,0,0,0,3.5-6.6,23,23,0,0,0,8.2,6.9,29.52,29.52,0,0,0,13.8,3.1,34.86,34.86,0,0,0,8.1-1.1,38.46,38.46,0,0,0,7.5-2.6l.1-.1a7.85,7.85,0,0,0,2.3-1.6,13.3,13.3,0,0,0,1.9,1.4,24.84,24.84,0,0,0,8,3.2,49.82,49.82,0,0,0,10.1.9c6.5,0,12-1.5,16.1-4.5a16.4,16.4,0,0,0,7.1-13.7c0-6.1-2.6-9.8-4.8-11.8.3-.3.5-.6.8-.9a11.82,11.82,0,0,0,2.3-7.1,10.23,10.23,0,0,0-5.1-9.3,29.69,29.69,0,0,0-15.7-4.1,28,28,0,0,0-11,2.1,20.08,20.08,0,0,0-8.4,6.3,12.23,12.23,0,0,0-1.2,1.9,21.55,21.55,0,0,0-7.5-7.2,23.93,23.93,0,0,0-12.3-3.1,25.17,25.17,0,0,0-12.8,3.3,23.43,23.43,0,0,0-8.7,8.7,17.38,17.38,0,0,0-3.1-5.7c-2.3-2.9-6.6-6.2-14.4-6.2a21.52,21.52,0,0,0-6.8,1v-5.6a11.41,11.41,0,0,0-1.7-6.1,31.05,31.05,0,0,0,6.2.6,34.86,34.86,0,0,0,8.1-1.1,38.46,38.46,0,0,0,7.5-2.6l.1-.1a7.85,7.85,0,0,0,2.3-1.6,13.3,13.3,0,0,0,1.9,1.4,24.84,24.84,0,0,0,8,3.2,49.82,49.82,0,0,0,10.1.9c6.5,0,12-1.5,16.1-4.5a21,21,0,0,0,3.4-3.2,18.55,18.55,0,0,0,6.6,5.5,21.09,21.09,0,0,0,9.8,2.2,18.09,18.09,0,0,0,9.1-2.3h0a12.13,12.13,0,0,0,7.3,2.2,12.52,12.52,0,0,0,8.8-3.2,9.59,9.59,0,0,0,1.9-2.4,10.29,10.29,0,0,0,2.5,2.9,13.91,13.91,0,0,0,17,0,11.26,11.26,0,0,0,4-7.3,23.54,23.54,0,0,0,8.4,7.2,29.52,29.52,0,0,0,13.8,3.1,34.86,34.86,0,0,0,8.1-1.1,38.46,38.46,0,0,0,7.5-2.6l.1-.1a10.63,10.63,0,0,0,6-9.7c-.6-3.2-1.2-5.5-2.6-7.5ZM271.4,139.5c-1.4-3-4.4-5.5-9.6-5.8a11.17,11.17,0,0,0-3.7-8.4,12.74,12.74,0,0,0-8.9-3.3,12.54,12.54,0,0,0-8.9,3.3,12.23,12.23,0,0,0-3.7,8.7,9.76,9.76,0,0,0-6.7,4.1c-3.9-3.5-9.5-5.4-16.6-5.4a49,49,0,0,0-9.3,1,32.87,32.87,0,0,0-8.2,2.7,21.08,21.08,0,0,0-6.7-13.4,22.48,22.48,0,0,0-10.9-5.4,20.16,20.16,0,0,0,1.8-3.2l12.2-33.1v29a11.36,11.36,0,0,0,3.7,8.8,12.78,12.78,0,0,0,8.9,3.2,13,13,0,0,0,8.9-3.2,11.36,11.36,0,0,0,3.7-8.8h.7a11.36,11.36,0,0,0,3.7,8.8,12.78,12.78,0,0,0,8.9,3.2,13,13,0,0,0,8.9-3.2,11.18,11.18,0,0,0,3.5-6.7,22.71,22.71,0,0,0,8.3,7,29.52,29.52,0,0,0,13.8,3.1,29.93,29.93,0,0,0,13.9-3.1,25,25,0,0,0,8.5-7.3,10.61,10.61,0,0,0,4,7.5,13.91,13.91,0,0,0,17,0c1.6-1.3,2.3-1.8.2.1a11.36,11.36,0,0,0-3.8,8.7v8a28.54,28.54,0,0,0-6.4-2.6,31.54,31.54,0,0,0-8.1-1,27.61,27.61,0,0,0-13.6,3.2A17.89,17.89,0,0,0,271.4,139.5Z" transform="translate(0.05 -0.03)"/><path class="a19674fa-8169-4f0c-a684-2d6a82999b2e" d="M142.1,180.8a12.75,12.75,0,0,1-3.5-9.2V129.4a11.67,11.67,0,0,1,12.3-12.3H156a12.27,12.27,0,0,1-1.2-2.6l-5.1-14.7-5.4,14.9a12.11,12.11,0,0,1-5.2,6.2,14.51,14.51,0,0,1-14.7,0,12.83,12.83,0,0,1-5.2-6.3l-16-43a14,14,0,0,1-.9-4.8,11.1,11.1,0,0,1,4.1-8.9,13.38,13.38,0,0,1,8.4-2.9,13.25,13.25,0,0,1,7,2,12.28,12.28,0,0,1,5,6.4l5.7,16.4,6.1-16.6a11.94,11.94,0,0,1,4.7-6.1,12.72,12.72,0,0,1,14,0,12.72,12.72,0,0,1,4.6,6.2l5.7,16.6,5.9-16.7a12.69,12.69,0,0,1,3.2-5.1L135.6,17a20.52,20.52,0,0,0-29,0l-77,77a20.52,20.52,0,0,0,0,29l77,77a20.26,20.26,0,0,0,14.5,6,20.51,20.51,0,0,0,14.5-6l15.6-15.6A12.9,12.9,0,0,1,142.1,180.8Z" transform="translate(0.05 -0.03)"/><path class="a19674fa-8169-4f0c-a684-2d6a82999b2e" d="M218.3,112.2a12.31,12.31,0,0,1-.2-2h-.7a11.36,11.36,0,0,1-3.7,8.8,13,13,0,0,1-8.9,3.2,12.78,12.78,0,0,1-8.9-3.2,11.36,11.36,0,0,1-3.7-8.8v-29L180,114.3a20.16,20.16,0,0,1-1.8,3.2,22.48,22.48,0,0,1,10.9,5.4,21.08,21.08,0,0,1,6.7,13.4,26.35,26.35,0,0,1,5.4-2l11.4-11.4A19.37,19.37,0,0,0,218.3,112.2Z" transform="translate(0.05 -0.03)"/><path class="a19674fa-8169-4f0c-a684-2d6a82999b2e" d="M164.2,171.4l7.9-7.9h-7.9v7.9Z" transform="translate(0.05 -0.03)"/><path class="f11e5a21-3086-4017-a30e-09f5831bbe51" d="M180.8,61.4a6.89,6.89,0,0,1,3.9-1.2,6.62,6.62,0,0,1,4.5,1.7,5.55,5.55,0,0,1,1.9,4.5,9.27,9.27,0,0,1-.7,3.2l-15.8,42.9a6.06,6.06,0,0,1-2.9,3.4,9,9,0,0,1-4.6,1.2,8.41,8.41,0,0,1-4.5-1.2,6.86,6.86,0,0,1-2.9-3.4L149.4,83.2l-10.7,29.3a6.46,6.46,0,0,1-2.9,3.4,8.92,8.92,0,0,1-4.5,1.2,8.41,8.41,0,0,1-4.5-1.2,6.86,6.86,0,0,1-2.9-3.4L108,69.5a8.43,8.43,0,0,1-.6-3,5.48,5.48,0,0,1,2.1-4.6,7.6,7.6,0,0,1,4.8-1.7,6.76,6.76,0,0,1,4,1.2,6,6,0,0,1,2.6,3.4l10.8,31.1,11.4-31.1a6.4,6.4,0,0,1,2.6-3.4,6.94,6.94,0,0,1,7.8,0,6.63,6.63,0,0,1,2.5,3.4l10.7,31.7L178,64.7A10.21,10.21,0,0,1,180.8,61.4Z" transform="translate(0.05 -0.03)"/><path class="f11e5a21-3086-4017-a30e-09f5831bbe51" d="M234.3,80.7q3.3,4.2,3.3,12.6v17a6.55,6.55,0,0,1-1.9,4.8,8.12,8.12,0,0,1-10.2,0,6.39,6.39,0,0,1-1.9-4.8V92.9c0-3.8-1.6-5.6-4.9-5.6a6.7,6.7,0,0,0-5,2,7.83,7.83,0,0,0-1.8,5.4v15.6a6.55,6.55,0,0,1-1.9,4.8,8.12,8.12,0,0,1-10.2,0,6.39,6.39,0,0,1-1.9-4.8V66.6a5.77,5.77,0,0,1,2-4.5,7.48,7.48,0,0,1,5.2-1.8,7.38,7.38,0,0,1,5,1.7,5.81,5.81,0,0,1,1.9,4.4V82.2a14.56,14.56,0,0,1,5.3-4.2,16.38,16.38,0,0,1,7.1-1.4C228.7,76.6,232.1,78,234.3,80.7Z" transform="translate(0.05 -0.03)"/><path class="f11e5a21-3086-4017-a30e-09f5831bbe51" d="M253.8,114.5a18.77,18.77,0,0,1-7.5-7,20.7,20.7,0,0,1-2.6-10.7,21.46,21.46,0,0,1,2.6-10.7,18.1,18.1,0,0,1,7.5-7,27.8,27.8,0,0,1,22.6,0,18.1,18.1,0,0,1,7.5,7,20.46,20.46,0,0,1,2.6,10.7,21.46,21.46,0,0,1-2.6,10.7,17.48,17.48,0,0,1-7.5,7,23.84,23.84,0,0,1-11.3,2.5A23.56,23.56,0,0,1,253.8,114.5Zm18.6-17.8c0-6.5-2.5-9.8-7.5-9.8s-7.5,3.2-7.5,9.8,2.5,9.8,7.5,9.8S272.4,103.3,272.4,96.7Z" transform="translate(0.05 -0.03)"/><path class="f11e5a21-3086-4017-a30e-09f5831bbe51" d="M294.7,115.3a6,6,0,0,1-2-4.8V67a6.18,6.18,0,0,1,2-4.9,8.2,8.2,0,0,1,10,0,6,6,0,0,1,2,4.9v43.5a6,6,0,0,1-2,4.8,7.51,7.51,0,0,1-5,1.6A8.29,8.29,0,0,1,294.7,115.3Z" transform="translate(0.05 -0.03)"/><path class="f11e5a21-3086-4017-a30e-09f5831bbe51" d="M349.4,105.4a6.29,6.29,0,0,1,1.2,3.7,5.14,5.14,0,0,1-3.1,4.8,36.2,36.2,0,0,1-6.4,2.3,28.16,28.16,0,0,1-6.7.9,25.08,25.08,0,0,1-11.3-2.4,17.85,17.85,0,0,1-7.4-7A20.7,20.7,0,0,1,313.1,97a21.45,21.45,0,0,1,2.5-10.5,18,18,0,0,1,7-7.2,19.87,19.87,0,0,1,10-2.6,19.09,19.09,0,0,1,9.5,2.3,17.21,17.21,0,0,1,6.4,6.7,21.92,21.92,0,0,1,2.3,10.2,4.65,4.65,0,0,1-.8,2.8,2.84,2.84,0,0,1-2.4,1H326.9a9.08,9.08,0,0,0,2.4,5.4,8.32,8.32,0,0,0,5.6,1.7,13.7,13.7,0,0,0,3.6-.4c1.1-.3,2.3-.7,3.7-1.2a20.94,20.94,0,0,1,2.3-.8,8.58,8.58,0,0,1,2.1-.4A3,3,0,0,1,349.4,105.4ZM328.7,87.9a8.49,8.49,0,0,0-2,5.1h12.4c-.3-4.6-2.3-7-6-7A5.84,5.84,0,0,0,328.7,87.9Z" transform="translate(0.05 -0.03)"/><path class="f11e5a21-3086-4017-a30e-09f5831bbe51" d="M363.5,116.2a21.37,21.37,0,0,1-6.4-2.5,4.74,4.74,0,0,1-1.8-1.9,6,6,0,0,1-.7-3,5.13,5.13,0,0,1,1.2-3.5,3.3,3.3,0,0,1,2.9-1.4,7.8,7.8,0,0,1,2.2.3c.7.2,1.5.5,2.5.9a41.07,41.07,0,0,0,4.5,1.3,22.46,22.46,0,0,0,4.9.4,8,8,0,0,0,3.4-.6,1.89,1.89,0,0,0,1.2-1.7,1.49,1.49,0,0,0-.6-1.3,7.71,7.71,0,0,0-2.3-.9c-1.1-.3-3-.7-5.6-1.2-4.7-.9-8.1-2.3-10.1-4a9.66,9.66,0,0,1-3.2-7.7,9.77,9.77,0,0,1,2.3-6.5,14.47,14.47,0,0,1,6.2-4.5,22.78,22.78,0,0,1,8.9-1.7,26.66,26.66,0,0,1,6.9.9,22.73,22.73,0,0,1,5.9,2.4,5,5,0,0,1,2.4,4.5,5.67,5.67,0,0,1-1.2,3.7,3.65,3.65,0,0,1-2.9,1.5,11.56,11.56,0,0,1-4.9-1.3,18.08,18.08,0,0,0-3.4-1.3,11.76,11.76,0,0,0-3.4-.4,6.84,6.84,0,0,0-3.1.6,1.79,1.79,0,0,0-1.1,1.7,2.29,2.29,0,0,0,1.5,2,39.93,39.93,0,0,0,6.1,1.6c5.1.9,8.7,2.3,10.8,4a9.74,9.74,0,0,1,3.2,7.8,10.83,10.83,0,0,1-4.8,9.2c-3.2,2.3-7.5,3.4-12.8,3.4A43.72,43.72,0,0,1,363.5,116.2Z" transform="translate(0.05 -0.03)"/><path class="f11e5a21-3086-4017-a30e-09f5831bbe51" d="M427.1,81c2.9,2.9,4.3,7.2,4.3,13.1v16.4a6.1,6.1,0,0,1-1.8,4.7,7.11,7.11,0,0,1-4.9,1.7,6.21,6.21,0,0,1-4.5-1.6,5.78,5.78,0,0,1-1.9-4.3,8.45,8.45,0,0,1-3.7,4.4,12.41,12.41,0,0,1-6.2,1.6,16,16,0,0,1-7.3-1.6,13.12,13.12,0,0,1-5.1-4.5,12,12,0,0,1-1.8-6.5,9.67,9.67,0,0,1,2.2-6.7,12.27,12.27,0,0,1,6.9-3.6A61.32,61.32,0,0,1,416.1,93h2.1V92a5.63,5.63,0,0,0-1.2-4c-.8-.8-2.3-1.2-4.3-1.2s-5.3.7-9.5,2.2a11.06,11.06,0,0,1-3.1.7,4,4,0,0,1-3.2-1.4,5.67,5.67,0,0,1-1.2-3.7,5.2,5.2,0,0,1,.7-2.9,5.82,5.82,0,0,1,2.3-2,26.09,26.09,0,0,1,7-2.3,38.84,38.84,0,0,1,8.2-.9Q422.9,76.65,427.1,81Zm-10.8,24.6a7.39,7.39,0,0,0,1.8-5.1v-1h-1.2q-5.1,0-7.2.9a3.08,3.08,0,0,0-2.1,3,4.07,4.07,0,0,0,1.2,3,3.85,3.85,0,0,0,2.9,1.2A5.53,5.53,0,0,0,416.3,105.6Z" transform="translate(0.05 -0.03)"/><path class="f11e5a21-3086-4017-a30e-09f5831bbe51" d="M441.3,115.3a6,6,0,0,1-2-4.8V67a6.18,6.18,0,0,1,2-4.9,8.2,8.2,0,0,1,10,0,6,6,0,0,1,2,4.9v43.5a6,6,0,0,1-2,4.8,7.51,7.51,0,0,1-5,1.6A8.52,8.52,0,0,1,441.3,115.3Z" transform="translate(0.05 -0.03)"/><path class="f11e5a21-3086-4017-a30e-09f5831bbe51" d="M496,105.4a6.29,6.29,0,0,1,1.2,3.7,5.14,5.14,0,0,1-3.1,4.8,36.2,36.2,0,0,1-6.4,2.3,28.16,28.16,0,0,1-6.7.9,25.08,25.08,0,0,1-11.3-2.4,17.85,17.85,0,0,1-7.4-7A20.7,20.7,0,0,1,459.7,97a21.45,21.45,0,0,1,2.5-10.5,18,18,0,0,1,7-7.2,19.87,19.87,0,0,1,10-2.6,19.36,19.36,0,0,1,9.5,2.3,17.21,17.21,0,0,1,6.4,6.7,21.92,21.92,0,0,1,2.3,10.2,4.65,4.65,0,0,1-.8,2.8,2.84,2.84,0,0,1-2.4,1H473.4a9.08,9.08,0,0,0,2.4,5.4,8.32,8.32,0,0,0,5.6,1.7,13.7,13.7,0,0,0,3.6-.4c1.1-.3,2.3-.7,3.7-1.2a20.94,20.94,0,0,1,2.3-.8,8.58,8.58,0,0,1,2.1-.4A3.18,3.18,0,0,1,496,105.4ZM475.1,87.9a8.49,8.49,0,0,0-2,5.1h12.4c-.3-4.6-2.3-7-6-7A6.18,6.18,0,0,0,475.1,87.9Z" transform="translate(0.05 -0.03)"/><path class="f11e5a21-3086-4017-a30e-09f5831bbe51" d="M146.1,176.6a7,7,0,0,1-1.9-5.3V129.1a6.81,6.81,0,0,1,1.8-5,6.66,6.66,0,0,1,5-1.8h20.2c6.2,0,10.9,1.5,14.4,4.7s5.1,7.5,5.1,13.1-1.8,9.9-5.1,13.1-8.2,4.8-14.3,4.8H158.9v13.4a6.74,6.74,0,0,1-7.4,7.2C149.1,178.5,147.3,177.9,146.1,176.6Zm23-29.6c2.7,0,4.7-.6,5.9-1.7s1.9-2.8,1.9-5.1c0-4.5-2.6-6.9-7.9-6.9H158.6v13.6l10.5.1Z" transform="translate(0.05 -0.03)"/><path class="f11e5a21-3086-4017-a30e-09f5831bbe51" d="M226.7,142.5c2.9,2.9,4.3,7.2,4.3,13.1v16.5a6.1,6.1,0,0,1-1.8,4.7,7.11,7.11,0,0,1-4.9,1.7,6.21,6.21,0,0,1-4.5-1.6,5.78,5.78,0,0,1-1.9-4.3,8.45,8.45,0,0,1-3.7,4.4,12.14,12.14,0,0,1-6.2,1.6,16,16,0,0,1-7.3-1.6,12.45,12.45,0,0,1-5.1-4.5,12,12,0,0,1-1.8-6.5,9.67,9.67,0,0,1,2.2-6.7,12.27,12.27,0,0,1,6.9-3.6,61.32,61.32,0,0,1,12.8-1.1h2.1v-1a5.63,5.63,0,0,0-1.2-4c-.8-.8-2.3-1.2-4.3-1.2s-5.3.7-9.5,2.2a11.06,11.06,0,0,1-3.1.7,4,4,0,0,1-3.2-1.4,5.67,5.67,0,0,1-1.2-3.7,5.2,5.2,0,0,1,.7-2.9,5.82,5.82,0,0,1,2.3-2,26.09,26.09,0,0,1,7-2.3,38.84,38.84,0,0,1,8.2-.9C219.3,138.3,223.8,139.7,226.7,142.5Zm-10.9,24.8a7.39,7.39,0,0,0,1.8-5.1v-1h-1.2q-5.1,0-7.2.9a3.08,3.08,0,0,0-2.1,3,4.07,4.07,0,0,0,1.2,3,3.85,3.85,0,0,0,2.9,1.2A5.83,5.83,0,0,0,215.8,167.3Z" transform="translate(0.05 -0.03)"/><path class="f11e5a21-3086-4017-a30e-09f5831bbe51" d="M267.1,173.2a4.58,4.58,0,0,1-2.1,4.1c-1.4.9-3.4,1.2-6.1,1.1l-2.2-.1c-4.8-.4-8.4-1.8-10.8-4.3s-3.7-6-3.7-10.5v-14h-2.3c-4.2,0-6.3-1.8-6.3-5.2s2.1-5.1,6.3-5.1h2.3v-5.1a6.55,6.55,0,0,1,1.9-4.8,8.12,8.12,0,0,1,10.2,0,6.55,6.55,0,0,1,1.9,4.8v5.1h4.3q6.3,0,6.3,5.1c0,3.4-2.1,5.2-6.3,5.2h-4.3v15.2a3.66,3.66,0,0,0,.9,2.5,3.36,3.36,0,0,0,2.3,1.1l2.3.1Q267.1,168.85,267.1,173.2Z" transform="translate(0.05 -0.03)"/><path class="f11e5a21-3086-4017-a30e-09f5831bbe51" d="M274.5,173.3c-3.7-3.6-5.5-8.4-5.5-14.6a21,21,0,0,1,2.7-10.7,18.22,18.22,0,0,1,7.6-7.2,23.85,23.85,0,0,1,11.1-2.5,25,25,0,0,1,6.6.9,24.27,24.27,0,0,1,5.9,2.4,5,5,0,0,1,2.4,4.5,6.55,6.55,0,0,1-1.2,4,3.51,3.51,0,0,1-2.9,1.5,6.2,6.2,0,0,1-2.3-.4,12.21,12.21,0,0,1-2.4-1.1c-1-.4-2-.8-2.7-1.1a8.6,8.6,0,0,0-2.4-.4c-5.2,0-7.8,3.2-7.8,9.5,0,3.2.7,5.6,2,7.2a8,8,0,0,0,8.3,2.1,16.52,16.52,0,0,0,2.6-1.1c1-.4,1.9-.8,2.6-1.1a7.8,7.8,0,0,1,2.2-.4,3.39,3.39,0,0,1,2.9,1.5,6.79,6.79,0,0,1,1.2,4,5,5,0,0,1-.7,2.7,3.51,3.51,0,0,1-1.8,1.8,25.48,25.48,0,0,1-13.3,3.3C283.1,178.7,278.1,176.9,274.5,173.3Z" transform="translate(0.05 -0.03)"/><path class="f11e5a21-3086-4017-a30e-09f5831bbe51" d="M346.8,142.4q3.3,4.2,3.3,12.6v17a6.55,6.55,0,0,1-1.9,4.8,8.13,8.13,0,0,1-10.2,0,6.39,6.39,0,0,1-1.9-4.8V154.7c0-3.8-1.6-5.6-4.9-5.6a6.7,6.7,0,0,0-5,2,7.83,7.83,0,0,0-1.8,5.4v15.6a6.55,6.55,0,0,1-1.9,4.8,8.12,8.12,0,0,1-10.2,0,6.39,6.39,0,0,1-1.9-4.8V128.3a5.77,5.77,0,0,1,2-4.5,7.48,7.48,0,0,1,5.2-1.8,7.38,7.38,0,0,1,5,1.7,5.81,5.81,0,0,1,1.9,4.4v15.8a14.56,14.56,0,0,1,5.3-4.2,16.38,16.38,0,0,1,7.1-1.4C341.2,138.3,344.7,139.7,346.8,142.4Z" transform="translate(0.05 -0.03)"/><path class="f11e5a21-3086-4017-a30e-09f5831bbe51" d="M392.4,167a6.29,6.29,0,0,1,1.2,3.7,5.14,5.14,0,0,1-3.1,4.8,36.2,36.2,0,0,1-6.4,2.3,28.16,28.16,0,0,1-6.7.9,25.08,25.08,0,0,1-11.3-2.4,17.85,17.85,0,0,1-7.4-7,20.7,20.7,0,0,1-2.6-10.7,21.45,21.45,0,0,1,2.5-10.5,18,18,0,0,1,7-7.2,19.87,19.87,0,0,1,10-2.6,19.09,19.09,0,0,1,9.5,2.3,17.21,17.21,0,0,1,6.4,6.7,21.92,21.92,0,0,1,2.3,10.2,4.65,4.65,0,0,1-.8,2.8,2.84,2.84,0,0,1-2.4,1H369.9a9.08,9.08,0,0,0,2.4,5.4,8.32,8.32,0,0,0,5.6,1.7,15,15,0,0,0,3.7-.4c1.1-.3,2.3-.7,3.7-1.2a20.94,20.94,0,0,1,2.3-.8,8.58,8.58,0,0,1,2.1-.4A3.32,3.32,0,0,1,392.4,167Zm-20.7-17.5a8.49,8.49,0,0,0-2,5.1h12.4c-.3-4.6-2.3-7-6-7A6.22,6.22,0,0,0,371.7,149.5Z" transform="translate(0.05 -0.03)"/><path class="f11e5a21-3086-4017-a30e-09f5831bbe51" d="M406.5,177.9a21.37,21.37,0,0,1-6.4-2.5,4.74,4.74,0,0,1-1.8-1.9,7.35,7.35,0,0,1-.7-3,5.13,5.13,0,0,1,1.2-3.5,3.3,3.3,0,0,1,2.9-1.4,7.8,7.8,0,0,1,2.2.3c.7.2,1.5.5,2.5.9a41.07,41.07,0,0,0,4.5,1.3,22.46,22.46,0,0,0,4.9.4,8,8,0,0,0,3.4-.6,1.89,1.89,0,0,0,1.2-1.7,1.49,1.49,0,0,0-.6-1.3,7.71,7.71,0,0,0-2.3-.9c-1.1-.3-3-.7-5.6-1.2-4.7-.9-8.1-2.3-10.1-4a9.66,9.66,0,0,1-3.2-7.7,9.77,9.77,0,0,1,2.3-6.5,14.47,14.47,0,0,1,6.2-4.5,22.78,22.78,0,0,1,8.9-1.7,26.66,26.66,0,0,1,6.9.9,22.73,22.73,0,0,1,5.9,2.4,5,5,0,0,1,2.4,4.5,5.67,5.67,0,0,1-1.2,3.7,3.65,3.65,0,0,1-2.9,1.5,11.56,11.56,0,0,1-4.9-1.3,18.08,18.08,0,0,0-3.4-1.3,11.76,11.76,0,0,0-3.4-.4,6.84,6.84,0,0,0-3.1.6,2,2,0,0,0-1.1,1.7,2.29,2.29,0,0,0,1.5,2,39.93,39.93,0,0,0,6.1,1.6c5.1.9,8.7,2.3,10.8,4a9.74,9.74,0,0,1,3.2,7.8,10.83,10.83,0,0,1-4.8,9.2c-3.2,2.3-7.5,3.4-12.8,3.4A43.72,43.72,0,0,1,406.5,177.9Z" transform="translate(0.05 -0.03)"/><path class="b14a09af-9357-4723-93ae-b846f5dab4dd" d="M52.5,130.3a1.73,1.73,0,0,0,1.3-.5,1.9,1.9,0,0,0,.5-1.3,1.66,1.66,0,0,0-.5-1.3L43.6,117a1.87,1.87,0,0,0-2.6,0,1.9,1.9,0,0,0-.5,1.3,1.66,1.66,0,0,0,.5,1.3l10.2,10.2A1.9,1.9,0,0,0,52.5,130.3Z" transform="translate(0.05 -0.03)"/><path class="b14a09af-9357-4723-93ae-b846f5dab4dd" d="M64,137.3a1.87,1.87,0,0,0-2.6,0,1.9,1.9,0,0,0-.5,1.3,1.66,1.66,0,0,0,.5,1.3l10.2,10.2a1.8,1.8,0,0,0,3.1-1.3,1.66,1.66,0,0,0-.5-1.3Z" transform="translate(0.05 -0.03)"/><path class="b14a09af-9357-4723-93ae-b846f5dab4dd" d="M130.1,27.9a2.23,2.23,0,0,0,1.3-.4,1.87,1.87,0,0,0,0-2.6,13.3,13.3,0,0,0-9.6-4,13,13,0,0,0-5.8,1.3,1.78,1.78,0,0,0-1,1.6,2.2,2.2,0,0,0,.1.8,1.8,1.8,0,0,0,2.4.9,9.35,9.35,0,0,1,4.3-1,9.91,9.91,0,0,1,7,2.9A1.9,1.9,0,0,0,130.1,27.9Z" transform="translate(0.05 -0.03)"/><path class="b14a09af-9357-4723-93ae-b846f5dab4dd" d="M96.1,45.4a1.79,1.79,0,0,0,1.3-.5l10.2-10.2a1.84,1.84,0,0,0-2.6-2.6L94.9,42.3a1.9,1.9,0,0,0-.5,1.3,1.66,1.66,0,0,0,.5,1.3A1.5,1.5,0,0,0,96.1,45.4Z" transform="translate(0.05 -0.03)"/><path class="b14a09af-9357-4723-93ae-b846f5dab4dd" d="M151.9,45.2,141.7,35a1.87,1.87,0,0,0-2.6,0,1.9,1.9,0,0,0-.5,1.3,1.66,1.66,0,0,0,.5,1.3l10.2,10.2a1.9,1.9,0,0,0,1.3.5,3.49,3.49,0,0,0,1.3-.5,1.9,1.9,0,0,0,.5-1.3A1.38,1.38,0,0,0,151.9,45.2Z" transform="translate(0.05 -0.03)"/><path class="b14a09af-9357-4723-93ae-b846f5dab4dd" d="M136.2,181l-7.3,7.3a10.65,10.65,0,0,1-2.8,1.9,1.83,1.83,0,0,0-.9,2.4,2.06,2.06,0,0,0,1.7,1,3.08,3.08,0,0,0,.9-.1,11.83,11.83,0,0,0,3.7-2.6l7.3-7.3a1.9,1.9,0,0,0,.5-1.3,1.66,1.66,0,0,0-.5-1.3A1.87,1.87,0,0,0,136.2,181Z" transform="translate(0.05 -0.03)"/><path class="b14a09af-9357-4723-93ae-b846f5dab4dd" d="M46.5,95.7a1.84,1.84,0,0,0-2.6-2.6l-5.1,5.1a13.45,13.45,0,0,0-3.7,7.3v.3a1.75,1.75,0,0,0,1.5,1.8h.3a1.75,1.75,0,0,0,1.8-1.5,9.34,9.34,0,0,1,2.7-5.3Z" transform="translate(0.05 -0.03)"/><path class="b14a09af-9357-4723-93ae-b846f5dab4dd" d="M104.7,178a1.87,1.87,0,0,0-2.6,0,1.9,1.9,0,0,0-.5,1.3,1.66,1.66,0,0,0,.5,1.3l10.2,10.2a1.9,1.9,0,0,0,1.3.5,1.54,1.54,0,0,0,1.3-.5,1.9,1.9,0,0,0,.5-1.3,1.66,1.66,0,0,0-.5-1.3Z" transform="translate(0.05 -0.03)"/><path class="b14a09af-9357-4723-93ae-b846f5dab4dd" d="M91.5,164.2,75.9,65.7a1.35,1.35,0,0,0,1.2-.5L87.2,55a1.9,1.9,0,0,0,.5-1.3,1.66,1.66,0,0,0-.5-1.3,1.87,1.87,0,0,0-2.6,0l-9.4,9.4L71.8,40.1a14.16,14.16,0,0,0,3.8-5.6c2.2-4.9,2-9.8-.5-13.6a14.4,14.4,0,0,0-7.3-5.4L66.2,5.1A6,6,0,0,0,54.4,6.9v.2l1.5,7.6c-8.4,1.8-14.5,8.6-20.1,14.7S25.1,41.3,18.6,41.5c-4.7.2-10-2.6-16.1-8.5A1.45,1.45,0,0,0,.4,33a1.45,1.45,0,0,0,0,2.1c6.7,6.4,12.7,9.5,18.3,9.3,7.8-.3,13.4-6.5,19.3-13.1,5.4-6,11-12.2,18.4-13.8L61,40.8c-.3,0-.7.1-1,.1-5.6.6-12.5,1.3-20.9,6.5-6.5,4-9.9,8.2-10.5,12.7-.9,7.2,5.5,14.1,12.8,22.1,6.8,7.5,14.6,15.9,18.2,26.4,4,11.4-3.6,25.5-8.7,34.8-3.5,6.6-5.6,10.6-3.7,12.7a3.46,3.46,0,0,0,2.6,1c1.7,0,4-.8,7.5-2.3a1.46,1.46,0,0,0-1.1-2.7c-4.9,2-6.3,1.9-6.7,1.8-.2-1.2,2.2-5.7,4.2-9.3C59,134.8,67,120,62.6,107.5c-3.9-11.1-12-19.8-19-27.4s-12.8-13.8-12-19.7c.4-3.6,3.5-7.1,9.1-10.6,7.8-4.9,14.3-5.6,19.6-6.1.4,0,.9-.1,1.3-.1l5.8,29.7a1,1,0,0,0-.4-.5,1.87,1.87,0,0,0-2.6,0L54.1,83a1.9,1.9,0,0,0-.5,1.3,1.66,1.66,0,0,0,.5,1.3,1.94,1.94,0,0,0,2.6,0L66.9,75.4a1.9,1.9,0,0,0,.5-1.3h0l17.4,89.6a4.93,4.93,0,0,0,3.3,2.4A2.66,2.66,0,0,0,91.5,164.2ZM72.6,22.5c1.9,3,2.1,6.8.3,10.9a12.67,12.67,0,0,1-1.7,3.1L68.4,18.9A10.62,10.62,0,0,1,72.6,22.5ZM58.6,8.1a2,2,0,1,1,4-.6l1.2,7a22.18,22.18,0,0,0-3.7-.3h-.4Zm1.6,9a27.22,27.22,0,0,1,4.2.4l3.8,21.6a11.87,11.87,0,0,1-3.9,1.2Zm7.7,32.2a2,2,0,0,1-2.3-1.7l-.8-4.5A16,16,0,0,0,68.7,42l.9,4.9A2.2,2.2,0,0,1,67.9,49.3Z" transform="translate(0.05 -0.03)"/><path class="b14a09af-9357-4723-93ae-b846f5dab4dd" d="M96.2,194.1l-6.9-6.9L95.2,217a2.22,2.22,0,0,0,2.7,1.9,2.19,2.19,0,0,0,1.8-2.6Z" transform="translate(0.05 -0.03)"/></svg>