<svg id="bf7e7d9b-af7e-4638-85e1-ee32fa35dcdb" data-name="Layer 1" xmlns="http://www.w3.org/2000/svg" xmlns:xlink="http://www.w3.org/1999/xlink" viewBox="0 0 234.33 100.04"><defs><style>.ad05a3af-4c73-426c-903e-d6eed891f948{fill:#fff;}.e851791d-bf34-4278-b464-f7dbdf2e7b7f{fill:red;}.b32441fa-90ea-42f7-ab6c-c5c49def87bb{fill:url(#ad0daa94-4d17-4a06-bbcb-d5c0a994d9d0);}</style><linearGradient id="ad0daa94-4d17-4a06-bbcb-d5c0a994d9d0" x1="41.83" y1="-52.17" x2="130.38" y2="-53.48" gradientTransform="matrix(1, 0, 0, -1, -36.35, -3.21)" gradientUnits="userSpaceOnUse"><stop offset="0.23" stop-color="#f7f7f7"/><stop offset="0.58" stop-color="#e2e2e2"/><stop offset="0.77" stop-color="#d4d4d4"/></linearGradient></defs><path d="M234.3,44.7a14.46,14.46,0,0,0-1.6-7,12.68,12.68,0,0,0-4.9-5.1,13.15,13.15,0,0,0-6.9-1.8,14.21,14.21,0,0,0-6.8,1.6v-1a7.9,7.9,0,0,0-2.8-6.2,9.23,9.23,0,0,0-5.6-1.9,8.81,8.81,0,0,0-5.6,1.9,7.9,7.9,0,0,0-2.8,6.2v.7a15.25,15.25,0,0,0-6.6-1.3,26.07,26.07,0,0,0-4.8.5,21.54,21.54,0,0,0-4.5,1.5l-.1.1a2.19,2.19,0,0,1-.5.3c-.1-.1-.2-.1-.3-.2a13.64,13.64,0,0,0-4.1-1.7,16.11,16.11,0,0,0-4.4-.6,14.9,14.9,0,0,0-6,1.1,11.26,11.26,0,0,0-3.5,2.1,17,17,0,0,0-2.2-1.5,13.15,13.15,0,0,0-6.9-1.8,14.21,14.21,0,0,0-6.8,1.6v-1a7.9,7.9,0,0,0-2.8-6.2,9.23,9.23,0,0,0-5.6-1.9,8.81,8.81,0,0,0-5.6,1.9,7.9,7.9,0,0,0-2.8,6.2v1.1c-.1,0-.1-.1-.2-.1a17.39,17.39,0,0,0-15,0,13.79,13.79,0,0,0-2.8,1.9,10.39,10.39,0,0,0-8.4-3.6h-.6a7.54,7.54,0,0,0-2.6-5.4,8.34,8.34,0,0,0-5.6-2,8.92,8.92,0,0,0-4.7,1.3,8.74,8.74,0,0,0-4.5-1.3,7.87,7.87,0,0,0-4.2,1.2L63.5,6.6a11.12,11.12,0,0,0-7.9-3.3,10.64,10.64,0,0,0-7.8,3.2L33.4,20.9,33,18.3a7.19,7.19,0,0,0,1.6-2.4,6.45,6.45,0,0,0-.2-6.2,6.8,6.8,0,0,0-3.2-2.5l-.8-4.9a2.73,2.73,0,1,0-5.4.8v.1l.7,3.6c-3.9.8-6.8,3.9-9.3,6.7S11.5,18.9,8.5,19c-2.2.1-4.6-1.2-7.4-3.9a.56.56,0,0,0-.9,0,.56.56,0,0,0,0,.9c3.1,3,5.8,4.4,8.4,4.2,3.6-.1,6.2-3,8.9-6,2.5-2.7,5-5.5,8.4-6.3L28,18.5a.9.9,0,0,0-.5.1,20.44,20.44,0,0,0-9.6,3c-2.9,1.8-4.5,3.8-4.8,5.8-.4,2.9,1.9,5.7,4.8,8.9l-5.4,5.4a11,11,0,0,0,0,15.7l9.9,9.9c-1,1.9-1.4,3.2-.7,4a2.14,2.14,0,0,0,1.2.4,11.18,11.18,0,0,0,3.2-.8l15,15,2.6,13.3a1.21,1.21,0,0,0,1.3.8,1,1,0,0,0,.8-1.2l-1.5-9.7,3.5,3.5a11,11,0,0,0,7.8,3.2,10.64,10.64,0,0,0,7.8-3.2l5.9-5.9c.4,0,.8.1,1.2.1a8,8,0,0,0,8.4-8.3V77.4h.6a17.85,17.85,0,0,0,5.3-.8,10.27,10.27,0,0,0,1.6,5.2,10.15,10.15,0,0,0,4.3,3.9A11.84,11.84,0,0,0,96.3,87a10.7,10.7,0,0,0,4.1-.8,7.67,7.67,0,0,0,3.4.7,8.06,8.06,0,0,0,5.8-2.2,4.5,4.5,0,0,0,.9-1,12.27,12.27,0,0,0,7.8,3.1l1.1.1h.8a9.1,9.1,0,0,0,5-1.3,3,3,0,0,0,.7-.5,15,15,0,0,0,7.8,1.9,17,17,0,0,0,7.6-1.6,8,8,0,0,0,5.1,1.6,8.25,8.25,0,0,0,5.8-2.1l.1-.1.1.1a9.06,9.06,0,0,0,11.6,0l.6-.6a7.61,7.61,0,0,0,1.9,1.2,16.56,16.56,0,0,0,7.5,1.7,17.09,17.09,0,0,0,4.3-.6,19.79,19.79,0,0,0,3.9-1.4,13.76,13.76,0,0,0,4,1.5,26.2,26.2,0,0,0,5.2.5,18.84,18.84,0,0,0,9.1-2.2,9.89,9.89,0,0,0,4.3-8.3,9.56,9.56,0,0,0-1.6-5.6,8.17,8.17,0,0,0,.8-3.5,7.18,7.18,0,0,0-3.6-6.4,13.64,13.64,0,0,0-4.1-1.7c-.3-.1-.6-.1-.9-.2h.4a8.15,8.15,0,0,0,4.9-1.5,8.45,8.45,0,0,0,5,1.5,8.66,8.66,0,0,0,5.5-1.8,4.06,4.06,0,0,0,1-.9,10.59,10.59,0,0,0,2,1.2,16.56,16.56,0,0,0,7.5,1.7,17.09,17.09,0,0,0,4.3-.6,18.66,18.66,0,0,0,4-1.4l.1-.1a7.53,7.53,0,0,0,4.1-6.7,7.29,7.29,0,0,0-.5-3A7.31,7.31,0,0,0,234.3,44.7ZM27.4,6.6l-.5-2.9a1,1,0,0,1,1.9-.3l.6,3.4a11.24,11.24,0,0,0-2-.2ZM22.5,70.4a4.86,4.86,0,0,1,.8-2.2L25,69.9A6,6,0,0,1,22.5,70.4ZM18.7,35.5c-2.6-2.9-4.8-5.4-4.4-7.8q.3-2.4,4.2-4.8a19,19,0,0,1,9-2.8c.3,0,.5-.1.8-.1l1,5ZM27.6,7.7h0a11.24,11.24,0,0,1,2,.2l1.8,9.9a5.46,5.46,0,0,1-1.8.6Zm3.6,14.8a1,1,0,0,1-1.1-.8l-.3-1.9a6,6,0,0,0,1.9-.6l.4,2.1A1.32,1.32,0,0,1,31.2,22.5Zm.2-14a4.25,4.25,0,0,1,2,1.7,5.46,5.46,0,0,1,.1,5,8.7,8.7,0,0,1-.8,1.4Z" transform="translate(0.02 0.03)"/><path class="ad05a3af-4c73-426c-903e-d6eed891f948" d="M229.9,46.7a4.62,4.62,0,0,0,1-2.9,12.09,12.09,0,0,0-1.3-5.8,10.25,10.25,0,0,0-3.9-4.1,11.46,11.46,0,0,0-5.7-1.4,11.77,11.77,0,0,0-5.9,1.5,10.12,10.12,0,0,0-3.4,3.1V30.6a5.08,5.08,0,0,0-1.9-4.2,6.5,6.5,0,0,0-7.8,0,5.38,5.38,0,0,0-1.9,4.2v6.2c-.4-.6-.8-1.1-1.2-1.6-1.8-1.8-4.5-2.7-7.9-2.7a32.76,32.76,0,0,0-4.3.4,12.09,12.09,0,0,0-3.8,1.3h-.1a4.53,4.53,0,0,0-1.8,1.5,5,5,0,0,0-1.5-1.4,12.81,12.81,0,0,0-3.4-1.4,15.83,15.83,0,0,0-3.8-.5,13.48,13.48,0,0,0-5,.9,9.53,9.53,0,0,0-3.9,2.9l-.6.9a9.75,9.75,0,0,0-3.4-3.3,11.46,11.46,0,0,0-5.7-1.4,11.77,11.77,0,0,0-5.9,1.5,10.12,10.12,0,0,0-3.4,3.1V30.5a5.08,5.08,0,0,0-1.9-4.2,6.5,6.5,0,0,0-7.8,0,5.38,5.38,0,0,0-1.9,4.2v6.6a10.45,10.45,0,0,0-3.9-3.3,14.23,14.23,0,0,0-6.3-1.4,13.92,13.92,0,0,0-6.3,1.4,10.24,10.24,0,0,0-4.4,4.1,7.22,7.22,0,0,0-1.4-2.6c-1-1.3-3-2.8-6.6-2.8a10.12,10.12,0,0,0-3.1.4V30.4A4.84,4.84,0,0,0,98,26.5a6.38,6.38,0,0,0-8.1.1,4.35,4.35,0,0,0-.6.7,3,3,0,0,0-.8-.8,5.68,5.68,0,0,0-3.7-1.4,5.28,5.28,0,0,0-3.2,1,5.56,5.56,0,0,0-2.2,2.8l-2.7,7.6L74,28.9a5,5,0,0,0-2.1-2.8,6.33,6.33,0,0,0-3.2-1,5.28,5.28,0,0,0-3.2,1,5.56,5.56,0,0,0-2.2,2.8l-2.8,7.6L57.9,29a5.48,5.48,0,0,0-2.3-2.9,6.17,6.17,0,0,0-7,.4,5.18,5.18,0,0,0-1.9,4.1,5.7,5.7,0,0,0,.4,2.2l7.3,19.6a5.66,5.66,0,0,0,2.4,2.9,6.87,6.87,0,0,0,6.8,0A5.45,5.45,0,0,0,66,52.5l2.5-6.8,2.4,6.7a3.38,3.38,0,0,0,.6,1.2H69.2a5.18,5.18,0,0,0-5.6,5.6V78.5a6.09,6.09,0,0,0,1.6,4.2,5.89,5.89,0,0,0,4.2,1.6,5.7,5.7,0,0,0,4.2-1.6,5.5,5.5,0,0,0,1.7-4.2V74.9h3.1a11.93,11.93,0,0,0,8.3-2.8,7.46,7.46,0,0,0,1.4-1.7,1.38,1.38,0,0,1,.3.4l-.6.6a6.71,6.71,0,0,0-1.6,4.7,8.56,8.56,0,0,0,1.2,4.4,8.39,8.39,0,0,0,3.3,2.9,9.6,9.6,0,0,0,4.5,1,8.21,8.21,0,0,0,4.2-1.1,5.53,5.53,0,0,0,8.9-4.5l.1-3.9a9.24,9.24,0,0,0,2.4,6.6,9.77,9.77,0,0,0,6.6,2.7l1,.1h.7a6.63,6.63,0,0,0,3.6-.9,4.55,4.55,0,0,0,1.6-1.8,12.33,12.33,0,0,0,8.2,2.8,13.83,13.83,0,0,0,7.4-1.9c.2-.1.4-.3.6-.4a5.54,5.54,0,0,0,4.8,2.3,5.81,5.81,0,0,0,4.1-1.5,5.18,5.18,0,0,0,1.7-4h.3a5.18,5.18,0,0,0,1.7,4,6.35,6.35,0,0,0,8.2,0,5,5,0,0,0,1.6-3,10.41,10.41,0,0,0,3.8,3.1,14.23,14.23,0,0,0,6.3,1.4,17.19,17.19,0,0,0,3.7-.5,13.47,13.47,0,0,0,3.4-1.2h.1a10.54,10.54,0,0,0,1.1-.7c.3.2.5.5.9.6a10.94,10.94,0,0,0,3.7,1.4,20.71,20.71,0,0,0,4.6.4,12.93,12.93,0,0,0,7.4-2,7.56,7.56,0,0,0,3.3-6.3,7,7,0,0,0-2.2-5.4c.1-.1.2-.3.4-.4a5.17,5.17,0,0,0,1.1-3.2,4.64,4.64,0,0,0-2.4-4.3,12.81,12.81,0,0,0-3.4-1.4,15.83,15.83,0,0,0-3.8-.5,13.48,13.48,0,0,0-5,.9,9.53,9.53,0,0,0-3.9,2.9l-.6.9a9.75,9.75,0,0,0-3.4-3.3,12.33,12.33,0,0,0-11.6.1,11,11,0,0,0-4,4,7.22,7.22,0,0,0-1.4-2.6c-1-1.3-3-2.8-6.6-2.8a10.12,10.12,0,0,0-3.1.4V58.9a5.38,5.38,0,0,0-.8-2.8,13.58,13.58,0,0,0,2.9.3,17.19,17.19,0,0,0,3.7-.5,13.47,13.47,0,0,0,3.4-1.2h.1a10.54,10.54,0,0,0,1.1-.7c.3.2.5.5.9.6a10.94,10.94,0,0,0,3.7,1.4,20.71,20.71,0,0,0,4.6.4,12.93,12.93,0,0,0,7.4-2,7.52,7.52,0,0,0,1.6-1.5,8.06,8.06,0,0,0,3,2.5,9.6,9.6,0,0,0,4.5,1,8.21,8.21,0,0,0,4.2-1.1,6,6,0,0,0,7.3-.5,5.31,5.31,0,0,0,.9-1.1,3.61,3.61,0,0,0,1.1,1.3,6.5,6.5,0,0,0,7.8,0,5,5,0,0,0,1.8-3.3,10.45,10.45,0,0,0,3.9,3.3,14.23,14.23,0,0,0,6.3,1.4,17.19,17.19,0,0,0,3.7-.5,13.47,13.47,0,0,0,3.4-1.2h.1a4.8,4.8,0,0,0,2.8-4.4,5.37,5.37,0,0,0-.8-3.6Zm-105.3,17c-.6-1.4-2-2.5-4.4-2.6a5.22,5.22,0,0,0-1.7-3.9,6.35,6.35,0,0,0-8.2,0,5.28,5.28,0,0,0-1.7,4,4.64,4.64,0,0,0-3.1,1.9c-1.8-1.6-4.3-2.4-7.6-2.4a32.76,32.76,0,0,0-4.3.4,17,17,0,0,0-3.8,1.2,9,9,0,0,0-3.1-6.1,11.25,11.25,0,0,0-5-2.5,5.3,5.3,0,0,0,.8-1.5l5.6-15.1V50.4a5.18,5.18,0,0,0,1.7,4,6.35,6.35,0,0,0,8.2,0,5.18,5.18,0,0,0,1.7-4h.3a5.18,5.18,0,0,0,1.7,4,6.35,6.35,0,0,0,8.2,0,5.34,5.34,0,0,0,1.6-3.1,11.81,11.81,0,0,0,3.8,3.2,15.1,15.1,0,0,0,12.7,0,10.45,10.45,0,0,0,3.9-3.3,5.24,5.24,0,0,0,1.8,3.4,6.5,6.5,0,0,0,7.8,0c.7-.6,1-.8.1,0a5.37,5.37,0,0,0-1.8,4v3.7a14.76,14.76,0,0,0-2.9-1.2,15.68,15.68,0,0,0-3.7-.5,14.56,14.56,0,0,0-6.3,1.4c-.7.5-1.6,1.1-2.3,1.7Z" transform="translate(0.02 0.03)"/><path class="e851791d-bf34-4278-b464-f7dbdf2e7b7f" d="M83,28a2.73,2.73,0,0,1,1.8-.5,3.23,3.23,0,0,1,2.1.8,2.52,2.52,0,0,1,.9,2,3.93,3.93,0,0,1-.3,1.4L80.2,51.3a2.93,2.93,0,0,1-1.3,1.6,4,4,0,0,1-4.2,0,2.93,2.93,0,0,1-1.3-1.6L68.7,38,63.8,51.4A3.44,3.44,0,0,1,62.5,53a4,4,0,0,1-4.2,0A2.93,2.93,0,0,1,57,51.4L49.7,31.8a3.53,3.53,0,0,1-.3-1.4,2.39,2.39,0,0,1,1-2.1,3.49,3.49,0,0,1,2.2-.8,4.14,4.14,0,0,1,1.9.5,2.48,2.48,0,0,1,1.2,1.6l4.9,14.2,5.3-14.2a2.29,2.29,0,0,1,1.2-1.5,2.73,2.73,0,0,1,1.8-.5,3.74,3.74,0,0,1,1.8.5,3.09,3.09,0,0,1,1.1,1.6l4.9,14.5,5.2-14.5A3,3,0,0,1,83,28Z" transform="translate(0.02 0.03)"/><path class="e851791d-bf34-4278-b464-f7dbdf2e7b7f" d="M107.5,36.9c1,1.3,1.5,3.2,1.5,5.8v7.8a2.94,2.94,0,0,1-.9,2.2,4,4,0,0,1-4.8,0,2.66,2.66,0,0,1-.9-2.2V42.6c0-1.7-.7-2.6-2.3-2.6a3,3,0,0,0-2.3.9,3.29,3.29,0,0,0-.8,2.5v7.1a2.94,2.94,0,0,1-.9,2.2,4,4,0,0,1-4.8,0,2.66,2.66,0,0,1-.9-2.2v-20a2.88,2.88,0,0,1,.9-2.1,3.65,3.65,0,0,1,2.4-.8,3.57,3.57,0,0,1,2.3.8,2.52,2.52,0,0,1,.9,2v7.2a5.66,5.66,0,0,1,2.4-1.9,8.81,8.81,0,0,1,3.3-.6C105,35,106.5,35.6,107.5,36.9Z" transform="translate(0.02 0.03)"/><path class="e851791d-bf34-4278-b464-f7dbdf2e7b7f" d="M116.5,52.3a8.1,8.1,0,0,1-3.4-3.2,9.62,9.62,0,0,1-1.2-4.9,9.62,9.62,0,0,1,1.2-4.9,8.73,8.73,0,0,1,3.4-3.2,12.84,12.84,0,0,1,10.4,0,7.53,7.53,0,0,1,3.4,3.2,9.62,9.62,0,0,1,1.2,4.9,9.62,9.62,0,0,1-1.2,4.9,8.06,8.06,0,0,1-3.4,3.2,12.84,12.84,0,0,1-10.4,0Zm8.6-8.1c0-3-1.1-4.5-3.4-4.5s-3.4,1.5-3.4,4.5,1.1,4.5,3.4,4.5S125.1,47.2,125.1,44.2Z" transform="translate(0.02 0.03)"/><path class="e851791d-bf34-4278-b464-f7dbdf2e7b7f" d="M135.3,52.6a2.66,2.66,0,0,1-.9-2.2V30.6a2.66,2.66,0,0,1,.9-2.2,3.71,3.71,0,0,1,4.6,0,2.66,2.66,0,0,1,.9,2.2V50.5a2.66,2.66,0,0,1-.9,2.2,3.51,3.51,0,0,1-2.3.7A3.78,3.78,0,0,1,135.3,52.6Z" transform="translate(0.02 0.03)"/><path class="e851791d-bf34-4278-b464-f7dbdf2e7b7f" d="M160.5,48.1a2.86,2.86,0,0,1,.5,1.7,2.4,2.4,0,0,1-1.4,2.2,16.28,16.28,0,0,1-2.9,1,12.6,12.6,0,0,1-8.3-.7,7.53,7.53,0,0,1-3.4-3.2,9.62,9.62,0,0,1-1.2-4.9,10.61,10.61,0,0,1,1.1-4.8,8.46,8.46,0,0,1,3.2-3.3,9.38,9.38,0,0,1,9-.1,7.62,7.62,0,0,1,2.9,3,9.88,9.88,0,0,1,1,4.7,1.7,1.7,0,0,1-.4,1.3,1.37,1.37,0,0,1-1.1.4H150a4.16,4.16,0,0,0,1.1,2.5,3.84,3.84,0,0,0,2.6.8,7.77,7.77,0,0,0,1.6-.2,7,7,0,0,0,1.7-.6c.4-.1.7-.3,1.1-.4a3.55,3.55,0,0,1,1-.2,3.92,3.92,0,0,1,1.4.8Zm-9.6-8a3.74,3.74,0,0,0-.9,2.3h5.7c-.1-2.1-1.1-3.2-2.8-3.2A3.37,3.37,0,0,0,150.9,40.1Z" transform="translate(0.02 0.03)"/><path class="e851791d-bf34-4278-b464-f7dbdf2e7b7f" d="M166.9,53.1A8.35,8.35,0,0,1,164,52a2.36,2.36,0,0,1-.8-.9,3.19,3.19,0,0,1-.3-1.4,2.77,2.77,0,0,1,.5-1.6,1.61,1.61,0,0,1,1.3-.6,3.08,3.08,0,0,1,1,.1,7.6,7.6,0,0,1,1.1.4,9.65,9.65,0,0,0,2.1.6,13,13,0,0,0,2.3.2,3.06,3.06,0,0,0,1.5-.3c.4-.2.6-.4.6-.8a.6.6,0,0,0-.3-.6,3.36,3.36,0,0,0-1-.4c-.5-.1-1.4-.3-2.6-.6a9.53,9.53,0,0,1-4.6-1.8,4.51,4.51,0,0,1-1.4-3.5,4.72,4.72,0,0,1,1-3,6.69,6.69,0,0,1,2.8-2.1,10.7,10.7,0,0,1,4.1-.8,11.24,11.24,0,0,1,3.2.4,9.53,9.53,0,0,1,2.7,1.1,2.25,2.25,0,0,1,1.1,2.1,3.1,3.1,0,0,1-.5,1.7,1.57,1.57,0,0,1-1.3.7,6,6,0,0,1-2.3-.6,7.72,7.72,0,0,0-1.5-.6,7,7,0,0,0-1.6-.2,2.65,2.65,0,0,0-1.4.3.89.89,0,0,0-.5.8.93.93,0,0,0,.7.9,12.11,12.11,0,0,0,2.8.7c2.4.4,4,1,4.9,1.8a4.28,4.28,0,0,1,1.4,3.6,5,5,0,0,1-2.2,4.2,10.08,10.08,0,0,1-5.9,1.6,23.31,23.31,0,0,1-4-.3Z" transform="translate(0.02 0.03)"/><path class="e851791d-bf34-4278-b464-f7dbdf2e7b7f" d="M196.1,37c1.3,1.3,2,3.3,2,6v7.5a2.86,2.86,0,0,1-.8,2.1,3.2,3.2,0,0,1-2.3.8,3.14,3.14,0,0,1-2.1-.7,3.1,3.1,0,0,1-.9-1.9,3.71,3.71,0,0,1-1.7,2,5.43,5.43,0,0,1-2.9.7,7,7,0,0,1-3.3-.7,5.68,5.68,0,0,1-2.3-2,5.21,5.21,0,0,1-.8-3,4,4,0,0,1,1-3,5.4,5.4,0,0,1,3.2-1.6,29.35,29.35,0,0,1,5.9-.5h1v-.4a2.44,2.44,0,0,0-.6-1.8,2.65,2.65,0,0,0-2-.6,13.27,13.27,0,0,0-4.3,1,4.41,4.41,0,0,1-1.4.3,1.68,1.68,0,0,1-1.4-.6,2.31,2.31,0,0,1-.5-1.7,2.5,2.5,0,0,1,.3-1.3,4.5,4.5,0,0,1,1-.9,11,11,0,0,1,3.2-1,16.37,16.37,0,0,1,3.8-.4,6.92,6.92,0,0,1,5.9,1.7Zm-4.9,11.2a3.57,3.57,0,0,0,.8-2.3v-.4h-.6a8.81,8.81,0,0,0-3.3.4,1.5,1.5,0,0,0-1,1.4,2.17,2.17,0,0,0,.5,1.4,1.54,1.54,0,0,0,1.3.5A2.76,2.76,0,0,0,191.2,48.2Z" transform="translate(0.02 0.03)"/><path class="e851791d-bf34-4278-b464-f7dbdf2e7b7f" d="M202.7,52.6a2.66,2.66,0,0,1-.9-2.2V30.6a2.66,2.66,0,0,1,.9-2.2,3.71,3.71,0,0,1,4.6,0,2.66,2.66,0,0,1,.9,2.2V50.5a2.66,2.66,0,0,1-.9,2.2,3.51,3.51,0,0,1-2.3.7A3.37,3.37,0,0,1,202.7,52.6Z" transform="translate(0.02 0.03)"/><path class="e851791d-bf34-4278-b464-f7dbdf2e7b7f" d="M227.8,48.1a2.86,2.86,0,0,1,.5,1.7,2.4,2.4,0,0,1-1.4,2.2,16.28,16.28,0,0,1-2.9,1,12.6,12.6,0,0,1-8.3-.7,7.53,7.53,0,0,1-3.4-3.2,9.62,9.62,0,0,1-1.2-4.9,10.61,10.61,0,0,1,1.1-4.8,8.46,8.46,0,0,1,3.2-3.3,9,9,0,0,1,4.6-1.2,9.26,9.26,0,0,1,4.4,1.1,7.62,7.62,0,0,1,2.9,3,9.88,9.88,0,0,1,1,4.7,1.7,1.7,0,0,1-.4,1.3,1.37,1.37,0,0,1-1.1.4h-9.6a4.16,4.16,0,0,0,1.1,2.5,3.84,3.84,0,0,0,2.6.8,7.77,7.77,0,0,0,1.6-.2,7,7,0,0,0,1.7-.6c.4-.1.7-.3,1.1-.4a3.55,3.55,0,0,1,1-.2,3.08,3.08,0,0,1,1.5.8Zm-9.6-8a3.74,3.74,0,0,0-.9,2.3H223c-.1-2.1-1.1-3.2-2.8-3.2A3.37,3.37,0,0,0,218.2,40.1Z" transform="translate(0.02 0.03)"/><path class="e851791d-bf34-4278-b464-f7dbdf2e7b7f" d="M67.1,80.6a3.24,3.24,0,0,1-.9-2.4V58.9a3.37,3.37,0,0,1,.8-2.3,3.2,3.2,0,0,1,2.3-.8h9.3a9.68,9.68,0,0,1,6.6,2.1,7.55,7.55,0,0,1,2.4,6,7.83,7.83,0,0,1-2.4,6,9.72,9.72,0,0,1-6.6,2.2H72.9v6.1a3.24,3.24,0,0,1-.9,2.4,3.33,3.33,0,0,1-2.5.9A3.24,3.24,0,0,1,67.1,80.6ZM77.6,67.1a4,4,0,0,0,2.7-.8,2.87,2.87,0,0,0,.9-2.3c0-2.1-1.2-3.1-3.6-3.1H72.8v6.2Z" transform="translate(0.02 0.03)"/><path class="e851791d-bf34-4278-b464-f7dbdf2e7b7f" d="M104.1,65.1c1.3,1.3,2,3.3,2,6v7.5a2.86,2.86,0,0,1-.8,2.1,3.2,3.2,0,0,1-2.3.8,3.14,3.14,0,0,1-2.1-.7,3.1,3.1,0,0,1-.9-1.9,3.71,3.71,0,0,1-1.7,2,5.43,5.43,0,0,1-2.9.7,7,7,0,0,1-3.3-.7,5.68,5.68,0,0,1-2.3-2,5.21,5.21,0,0,1-.8-3,4,4,0,0,1,1-3,5.4,5.4,0,0,1,3.2-1.6,29.35,29.35,0,0,1,5.9-.5h1v-.4a2.44,2.44,0,0,0-.6-1.8,2.65,2.65,0,0,0-2-.6,13.27,13.27,0,0,0-4.3,1,4.41,4.41,0,0,1-1.4.3,1.68,1.68,0,0,1-1.4-.6,2.31,2.31,0,0,1-.5-1.7,2.5,2.5,0,0,1,.3-1.3,4.5,4.5,0,0,1,1-.9,11,11,0,0,1,3.2-1,24.5,24.5,0,0,1,3.8-.4,7.37,7.37,0,0,1,5.9,1.7Zm-5,11.3a3.57,3.57,0,0,0,.8-2.3v-.4h-.6a8.81,8.81,0,0,0-3.3.4,1.5,1.5,0,0,0-1,1.4,2.17,2.17,0,0,0,.5,1.4,1.54,1.54,0,0,0,1.3.5A3.29,3.29,0,0,0,99.1,76.4Z" transform="translate(0.02 0.03)"/><path class="e851791d-bf34-4278-b464-f7dbdf2e7b7f" d="M122.7,79.1a2.06,2.06,0,0,1-1,1.9,4.55,4.55,0,0,1-2.8.5l-1-.1a7.16,7.16,0,0,1-4.9-2,6.52,6.52,0,0,1-1.7-4.8V68.2h-1c-1.9,0-2.9-.8-2.9-2.4s1-2.3,2.9-2.3h1V61.2a2.94,2.94,0,0,1,.9-2.2,4,4,0,0,1,4.8,0,2.79,2.79,0,0,1,.9,2.2v2.3h2c1.9,0,2.9.8,2.9,2.3s-1,2.4-2.9,2.4h-2v6.9a1.37,1.37,0,0,0,.4,1.1,1.43,1.43,0,0,0,1.1.5l1,.1C121.8,77.1,122.7,77.8,122.7,79.1Z" transform="translate(0.02 0.03)"/><path class="e851791d-bf34-4278-b464-f7dbdf2e7b7f" d="M126.1,79.2a8.82,8.82,0,0,1-2.5-6.7,9.88,9.88,0,0,1,1.2-4.9,8.58,8.58,0,0,1,3.5-3.3,10.63,10.63,0,0,1,5.1-1.1,10.32,10.32,0,0,1,3,.4,10.91,10.91,0,0,1,2.7,1.1,2.36,2.36,0,0,1,1.1,2.1,3.45,3.45,0,0,1-.5,1.8,1.46,1.46,0,0,1-1.3.7,3,3,0,0,1-1-.2,9.74,9.74,0,0,1-1.1-.5c-.5-.2-.9-.4-1.2-.5a3.59,3.59,0,0,0-1.1-.2c-2.4,0-3.6,1.4-3.6,4.4a5.39,5.39,0,0,0,.9,3.3,3.1,3.1,0,0,0,2.7,1.1,3.59,3.59,0,0,0,1.1-.2c.3-.1.7-.3,1.2-.5s.9-.4,1.2-.5a3,3,0,0,1,1-.2,1.46,1.46,0,0,1,1.3.7,3.45,3.45,0,0,1,.5,1.8A2.13,2.13,0,0,1,140,79a1.55,1.55,0,0,1-.8.8,11.74,11.74,0,0,1-6.1,1.5c-3.1.3-5.4-.5-7-2.1Z" transform="translate(0.02 0.03)"/><path class="e851791d-bf34-4278-b464-f7dbdf2e7b7f" d="M159.2,65c1,1.3,1.5,3.2,1.5,5.8v7.8a2.94,2.94,0,0,1-.9,2.2,4,4,0,0,1-4.8,0,2.66,2.66,0,0,1-.9-2.2V70.7c0-1.7-.7-2.6-2.3-2.6a3,3,0,0,0-2.3.9,3.29,3.29,0,0,0-.8,2.5v7.1a2.94,2.94,0,0,1-.9,2.2,4,4,0,0,1-4.8,0,2.66,2.66,0,0,1-.9-2.2v-20a2.88,2.88,0,0,1,.9-2.1,3.65,3.65,0,0,1,2.4-.8,3.57,3.57,0,0,1,2.3.8,2.52,2.52,0,0,1,.9,2v7.2a5.66,5.66,0,0,1,2.4-1.9,8.81,8.81,0,0,1,3.3-.6c2.4,0,3.9.6,4.9,1.8Z" transform="translate(0.02 0.03)"/><path class="e851791d-bf34-4278-b464-f7dbdf2e7b7f" d="M180.2,76.3a2.86,2.86,0,0,1,.5,1.7,2.4,2.4,0,0,1-1.4,2.2,16.28,16.28,0,0,1-2.9,1,12.6,12.6,0,0,1-8.3-.7,7.53,7.53,0,0,1-3.4-3.2,9.62,9.62,0,0,1-1.2-4.9,10.61,10.61,0,0,1,1.1-4.8,8.46,8.46,0,0,1,3.2-3.3,9.38,9.38,0,0,1,9-.1,7.62,7.62,0,0,1,2.9,3,9.88,9.88,0,0,1,1,4.7,1.7,1.7,0,0,1-.4,1.3,1.37,1.37,0,0,1-1.1.4h-9.6a4.16,4.16,0,0,0,1.1,2.5,3.84,3.84,0,0,0,2.6.8,9.85,9.85,0,0,0,1.7-.2,7,7,0,0,0,1.7-.6c.4-.1.7-.3,1.1-.4a3.55,3.55,0,0,1,1-.2,2.19,2.19,0,0,1,1.4.8Zm-9.5-8a3.74,3.74,0,0,0-.9,2.3h5.7c-.1-2.1-1.1-3.2-2.8-3.2A2.69,2.69,0,0,0,170.7,68.3Z" transform="translate(0.02 0.03)"/><path class="e851791d-bf34-4278-b464-f7dbdf2e7b7f" d="M186.7,81.2a8.35,8.35,0,0,1-2.9-1.1,2.36,2.36,0,0,1-.8-.9,3.19,3.19,0,0,1-.3-1.4,2.77,2.77,0,0,1,.5-1.6,1.61,1.61,0,0,1,1.3-.6,3.08,3.08,0,0,1,1,.1,7.6,7.6,0,0,1,1.1.4,9.65,9.65,0,0,0,2.1.6,13,13,0,0,0,2.3.2,3.06,3.06,0,0,0,1.5-.3c.4-.2.6-.4.6-.8a.6.6,0,0,0-.3-.6,3.36,3.36,0,0,0-1-.4c-.5-.1-1.4-.3-2.6-.6a9.53,9.53,0,0,1-4.6-1.8,4.51,4.51,0,0,1-1.4-3.5,4.72,4.72,0,0,1,1-3,7.39,7.39,0,0,1,2.8-2.1,10.7,10.7,0,0,1,4.1-.8,11.24,11.24,0,0,1,3.2.4,9.53,9.53,0,0,1,2.7,1.1,2.25,2.25,0,0,1,1.1,2.1,3.1,3.1,0,0,1-.5,1.7,1.57,1.57,0,0,1-1.3.7,6,6,0,0,1-2.3-.6,7.72,7.72,0,0,0-1.5-.6,7,7,0,0,0-1.6-.2,2.65,2.65,0,0,0-1.4.3.89.89,0,0,0-.5.8.93.93,0,0,0,.7.9,12.11,12.11,0,0,0,2.8.7c2.4.4,4,1,4.9,1.8a4.28,4.28,0,0,1,1.4,3.6,5,5,0,0,1-2.2,4.2,10.08,10.08,0,0,1-5.9,1.6,12.53,12.53,0,0,1-4-.3Z" transform="translate(0.02 0.03)"/><path class="b32441fa-90ea-42f7-ab6c-c5c49def87bb" d="M27.1,49.8c-1.5-4.2-4.5-7.7-7.3-10.9l-5.3,5.3a7.64,7.64,0,0,0-2.3,5.5,7.88,7.88,0,0,0,2.3,5.5l9.3,9.2C26,60.2,28.8,54.5,27.1,49.8Zm-10.4-.4h0c-.5-.1-.8-.4-.8-.8v-.1a5.85,5.85,0,0,1,1.7-3.3l2.3-2.3a.85.85,0,0,1,1.2,1.2l-2.3,2.3a4,4,0,0,0-1.2,2.4A1.15,1.15,0,0,1,16.7,49.4Zm7.8,10.1a1.42,1.42,0,0,1-.6.2,1.42,1.42,0,0,1-.6-.2l-4.7-4.7a.73.73,0,0,1-.2-.6,1.42,1.42,0,0,1,.2-.6.91.91,0,0,1,1.2,0l4.7,4.7a.73.73,0,0,1,.2.6A1.42,1.42,0,0,1,24.5,59.5ZM60.8,9.1a8,8,0,0,0-5.5-2.2,7.73,7.73,0,0,0-5.4,2.2l-16.2,16,.5,3.3L38.6,24a.91.91,0,0,1,1.2,0,.73.73,0,0,1,.2.6,1.42,1.42,0,0,1-.2.6L35.1,30a1.42,1.42,0,0,1-.6.2l7.2,45c-.1.6-.5,1.1-1.5.9a2.29,2.29,0,0,1-1.5-1.2L30.7,34a1.42,1.42,0,0,1-.2.6l-4.7,4.7a1.42,1.42,0,0,1-.6.2,1.42,1.42,0,0,1-.6-.2.73.73,0,0,1-.2-.6,1.42,1.42,0,0,1,.2-.6l4.7-4.7a.91.91,0,0,1,1.2,0l.1.1L29.8,29l-9.1,9c2.9,3.2,6,6.8,7.6,11.3,1.9,5.3-1.1,11.5-3.6,15.9L49.9,90.3a8,8,0,0,0,5.5,2.2,7.79,7.79,0,0,0,5.5-2.2l4.7-4.7a4.73,4.73,0,0,1-1.3-1.1c-.2-.2-.4-.5-.6-.7a.1.1,0,0,1-.1.1l-3.4,3.3a6.57,6.57,0,0,1-1.7,1.2.76.76,0,0,1-.4.1,1,1,0,0,1-.8-.5.84.84,0,0,1,.4-1.1A3.81,3.81,0,0,0,59,86l3.4-3.3a.76.76,0,0,1,.4-.2,8.76,8.76,0,0,1-.9-4V59.3h-.7A8.66,8.66,0,0,1,53,53.8L45.2,34.2a7.89,7.89,0,0,1-.5-3,7.5,7.5,0,0,1,2.8-6A8.73,8.73,0,0,1,53,23.3a7.89,7.89,0,0,1,4.5,1.3,8.32,8.32,0,0,1,3.4,4.2l.3.8.3-.9a8.73,8.73,0,0,1,3.1-4,8.3,8.3,0,0,1,4.6-1.4,8.06,8.06,0,0,1,4.6,1.4,8.5,8.5,0,0,1,3.1,4.1l.2.7.3-.7a10.34,10.34,0,0,1,1.1-2.1Zm-27,59.7a1.07,1.07,0,0,1-.6.2,1.42,1.42,0,0,1-.6-.2l-4.7-4.7a.73.73,0,0,1-.2-.6,1.42,1.42,0,0,1,.2-.6.91.91,0,0,1,1.2,0l4.7,4.7a.73.73,0,0,1,.2.6A1.42,1.42,0,0,1,33.8,68.8ZM46.6,81.5a.91.91,0,0,1,1.2,0l4.7,4.7a.73.73,0,0,1,.2.6.71.71,0,0,1-.8.8,1.42,1.42,0,0,1-.6-.2l-4.7-4.7a.73.73,0,0,1-.2-.6A1.42,1.42,0,0,1,46.6,81.5ZM49.2,16l-4.7,4.7a.73.73,0,0,1-.6.2,1.42,1.42,0,0,1-.6-.2.73.73,0,0,1-.2-.6,1.42,1.42,0,0,1,.2-.6L48,14.8A.85.85,0,1,1,49.2,16Zm10.9-3.3a.73.73,0,0,1-.6.2,1.42,1.42,0,0,1-.6-.2,4.63,4.63,0,0,0-3.2-1.3,4.77,4.77,0,0,0-2,.4.84.84,0,0,1-1.1-.4c-.1-.1-.1-.2-.1-.4a.75.75,0,0,1,.5-.7,6.26,6.26,0,0,1,2.7-.6,6,6,0,0,1,4.4,1.8A.91.91,0,0,1,60.1,12.7ZM69.4,22a1.07,1.07,0,0,1-.6.2,1.42,1.42,0,0,1-.6-.2l-4.7-4.7a.73.73,0,0,1-.2-.6,1.42,1.42,0,0,1,.2-.6.91.91,0,0,1,1.2,0l4.7,4.7a.73.73,0,0,1,.2.6A1.42,1.42,0,0,1,69.4,22Z" transform="translate(0.02 0.03)"/></svg>