<?xml version="1.0" encoding="utf-8"?>
<!-- Generator: Adobe Illustrator 25.3.1, SVG Export Plug-In . SVG Version: 6.00 Build 0)  -->
<svg version="1.1" id="Layer_1" xmlns="http://www.w3.org/2000/svg" xmlns:xlink="http://www.w3.org/1999/xlink" x="0px" y="0px"
	 viewBox="0 0 234 100" style="enable-background:new 0 0 234 100;" xml:space="preserve">
<style type="text/css">
	.st0{fill:#FFFFFF;}
	.st1{fill:#FF0000;}
	.st2{fill:url(#SVGID_1_);}
</style>
<path d="M234.3,44.7c0-2.6-0.5-5-1.6-7c-1.2-2.2-2.8-3.9-4.9-5.1c-2-1.2-4.3-1.8-6.9-1.8c-2.5,0-4.7,0.5-6.8,1.6v-1
	c0-2.5-1-4.7-2.8-6.2c-1.6-1.2-3.5-1.9-5.6-1.9c-2.2,0-4.1,0.7-5.6,1.9c-1.8,1.5-2.8,3.7-2.8,6.2v0.7c-1.9-0.9-4.1-1.3-6.6-1.3
	c-1.6,0-3.2,0.2-4.8,0.5c-1.8,0.4-3.2,0.9-4.5,1.5l-0.1,0.1c-0.1,0.1-0.3,0.2-0.5,0.3c-0.1-0.1-0.2-0.1-0.3-0.2
	c-1.2-0.8-2.6-1.3-4.1-1.7c-1.4-0.4-2.9-0.6-4.4-0.6c-2.1,0-4.2,0.3-6,1.1c-1.3,0.5-2.5,1.2-3.5,2.1c-0.7-0.5-1.4-1.1-2.2-1.5
	c-2-1.2-4.3-1.8-6.9-1.8c-2.5,0-4.7,0.5-6.8,1.6v-1c0-2.5-1-4.7-2.8-6.2c-1.6-1.2-3.5-1.9-5.6-1.9c-2.2,0-4.1,0.7-5.6,1.9
	c-1.8,1.5-2.8,3.7-2.8,6.2v1.1c-0.1,0-0.1-0.1-0.2-0.1c-2.2-1.1-4.7-1.7-7.5-1.7c-2.8,0-5.3,0.6-7.5,1.7c-1,0.5-2,1.2-2.8,1.9
	c-1.4-1.7-4-3.6-8.4-3.6h-0.6c-0.1-2.1-1-4-2.6-5.4c-1.5-1.3-3.4-2-5.6-2c-1.8,0-3.4,0.5-4.7,1.3c-1.3-0.8-2.9-1.3-4.5-1.3
	c-1.5,0-2.9,0.4-4.2,1.2L63.5,6.6c-2.1-2.1-4.9-3.3-7.9-3.3s-5.8,1.1-7.8,3.2L33.4,20.9L33,18.3c0.6-0.6,1.2-1.4,1.6-2.4
	c1-2.2,0.9-4.5-0.2-6.2c-0.7-1.1-1.8-1.9-3.2-2.5l-0.8-4.9c-0.2-1.5-1.6-2.5-3.1-2.3S24.8,1.6,25,3.1v0.1l0.7,3.6
	c-3.9,0.8-6.8,3.9-9.3,6.7c-2.5,2.8-4.9,5.4-7.9,5.5c-2.2,0.1-4.6-1.2-7.4-3.9c-0.2-0.3-0.6-0.3-0.9,0c-0.3,0.2-0.3,0.6,0,0.9
	c3.1,3,5.8,4.4,8.4,4.2c3.6-0.1,6.2-3,8.9-6c2.5-2.7,5-5.5,8.4-6.3L28,18.5c-0.2,0-0.3,0-0.5,0.1c-2.6,0.3-5.8,0.6-9.6,3
	c-2.9,1.8-4.5,3.8-4.8,5.8c-0.4,2.9,1.9,5.7,4.8,8.9l-5.4,5.4C8.1,46,8.1,53,12.5,57.4l9.9,9.9c-1,1.9-1.4,3.2-0.7,4
	c0.3,0.2,0.7,0.4,1.2,0.4c0.7,0,1.8-0.3,3.2-0.8l15,15l2.6,13.3c0.2,0.5,0.7,0.9,1.3,0.8s0.9-0.6,0.8-1.2l-1.5-9.7l3.5,3.5
	c2.1,2.1,4.9,3.2,7.8,3.2c3,0,5.8-1.1,7.8-3.2l5.9-5.9c0.4,0,0.8,0.1,1.2,0.1c3,0,4.9-1.2,6-2.3c1.1-1.1,2.4-3,2.4-6v-1.1h0.6
	c1.9,0,3.7-0.3,5.3-0.8c0.1,1.9,0.6,3.7,1.6,5.2c1,1.7,2.5,3,4.3,3.9c1.7,0.9,3.6,1.3,5.6,1.3c1.5,0,2.9-0.3,4.1-0.8
	c1,0.5,2.2,0.7,3.4,0.7c2.9,0,4.8-1.2,5.8-2.2c0.3-0.2,0.6-0.6,0.9-1c1.9,1.8,4.6,2.9,7.8,3.1l1.1,0.1c0.3,0,0.5,0,0.8,0
	c1.9,0,3.6-0.4,5-1.3c0.2-0.1,0.5-0.3,0.7-0.5c2.2,1.3,4.8,1.9,7.8,1.9c2.8,0,5.4-0.5,7.6-1.6c1.4,1.1,3.1,1.6,5.1,1.6
	c2.9,0,4.7-1.1,5.8-2.1l0.1-0.1l0.1,0.1c1.5,1.4,3.5,2.1,5.8,2.1c2.9,0,4.7-1.1,5.8-2.1c0.2-0.2,0.4-0.4,0.6-0.6
	c0.6,0.5,1.2,0.9,1.9,1.2c2.2,1.1,4.7,1.7,7.5,1.7c1.3,0,2.8-0.2,4.3-0.6c1.4-0.4,2.8-0.8,3.9-1.4c1.2,0.7,2.6,1.2,4,1.5
	c1.5,0.3,3.2,0.5,5.2,0.5c3.5,0,6.5-0.8,9.1-2.2c2.8-2,4.3-4.9,4.3-8.3c0-2.5-0.7-4.3-1.6-5.6c0.5-1.1,0.8-2.2,0.8-3.5
	c0-2.7-1.3-5.1-3.6-6.4c-1.2-0.8-2.6-1.3-4.1-1.7c-0.3-0.1-0.6-0.1-0.9-0.2c0.1,0,0.3,0,0.4,0c2.2,0,3.8-0.7,4.9-1.5
	c1.4,1,3.1,1.5,5,1.5c2.1,0,4-0.6,5.5-1.8c0.3-0.2,0.7-0.5,1-0.9c0.7,0.5,1.3,0.9,2,1.2c2.2,1.1,4.7,1.7,7.5,1.7
	c1.3,0,2.8-0.2,4.3-0.6c1.5-0.4,2.9-0.8,4-1.4l0.1-0.1c2.6-1.4,4.1-3.9,4.1-6.7c0-1.1-0.1-2.1-0.5-3
	C234.1,46.8,234.3,45.8,234.3,44.7z M27.4,6.6l-0.5-2.9c-0.1-0.5,0.3-1,0.8-1.1c0.5-0.1,1,0.3,1.1,0.8l0.6,3.4
	C28.8,6.7,28.2,6.6,27.4,6.6C27.5,6.6,27.4,6.6,27.4,6.6z M22.5,70.4c-0.1-0.4,0.3-1.2,0.8-2.2l1.7,1.7
	C23.2,70.5,22.7,70.4,22.5,70.4z M18.7,35.5c-2.6-2.9-4.8-5.4-4.4-7.8c0.2-1.6,1.6-3.2,4.2-4.8c3.6-2.2,6.6-2.6,9-2.8
	c0.3,0,0.5-0.1,0.8-0.1l1,5L18.7,35.5z M27.6,7.7C27.6,7.7,27.7,7.7,27.6,7.7c0.8,0,1.4,0.1,2,0.2l1.8,9.9c-0.5,0.3-1.2,0.5-1.8,0.6
	L27.6,7.7z M31.2,22.5c-0.5,0.1-1-0.3-1.1-0.8l-0.3-1.9c0.7-0.1,1.3-0.3,1.9-0.6l0.4,2.1C32,21.9,31.7,22.4,31.2,22.5z M31.4,8.5
	c0.9,0.4,1.6,1,2,1.7c0.8,1.4,0.9,3.1,0.1,5c-0.3,0.6-0.5,1-0.8,1.4L31.4,8.5z"/>
<path class="st0" d="M229.9,46.7c0.6-0.8,1-1.7,1-2.9c0-2.2-0.4-4.1-1.3-5.8s-2.2-3.1-3.9-4.1c-1.6-0.9-3.5-1.4-5.7-1.4
	s-4.1,0.5-5.9,1.5c-1.4,0.8-2.5,1.8-3.4,3.1v-6.5c0-2.2-1-3.5-1.9-4.2c-1.1-0.9-2.4-1.3-3.9-1.3s-2.8,0.4-3.9,1.3
	c-0.8,0.7-1.9,2-1.9,4.2v6.2c-0.4-0.6-0.8-1.1-1.2-1.6c-1.8-1.8-4.5-2.7-7.9-2.7c-1.4,0-2.8,0.2-4.3,0.4c-1.5,0.3-2.8,0.7-3.8,1.3
	h-0.1c-0.8,0.4-1.4,0.9-1.8,1.5c-0.4-0.6-0.9-1-1.5-1.4c-1-0.6-2.2-1.1-3.4-1.4s-2.5-0.5-3.8-0.5c-1.8,0-3.5,0.3-5,0.9
	c-1.6,0.7-2.9,1.6-3.9,2.9c-0.2,0.3-0.4,0.6-0.6,0.9c-0.9-1.4-2-2.5-3.4-3.3c-1.6-0.9-3.5-1.4-5.7-1.4s-4.1,0.5-5.9,1.5
	c-1.4,0.8-2.5,1.8-3.4,3.1v-6.5c0-2.2-1-3.5-1.9-4.2c-1.1-0.9-2.4-1.3-3.9-1.3s-2.8,0.4-3.9,1.3c-0.8,0.7-1.9,2-1.9,4.2v6.6
	c-1-1.4-2.3-2.5-3.9-3.3c-1.8-0.9-4-1.4-6.3-1.4c-2.4,0-4.5,0.5-6.3,1.4c-1.9,0.9-3.3,2.3-4.4,4.1c-0.3-1-0.8-1.9-1.4-2.6
	c-1-1.3-3-2.8-6.6-2.8c-1.1,0-2.2,0.1-3.1,0.4v-2.5c0-1.6-0.6-2.9-1.8-3.9c-1-0.9-2.4-1.4-4-1.4s-3,0.5-4.1,1.5
	c-0.2,0.2-0.4,0.4-0.6,0.7c-0.2-0.3-0.5-0.6-0.8-0.8c-1-0.9-2.4-1.4-3.7-1.4c-1.1,0-2.3,0.3-3.2,1c-1,0.7-1.8,1.6-2.2,2.8l-2.7,7.6
	L74,28.9c-0.4-1.2-1.1-2.2-2.1-2.8s-2.1-1-3.2-1s-2.3,0.3-3.2,1c-1,0.7-1.8,1.6-2.2,2.8l-2.8,7.6L57.9,29c-0.4-1.2-1.2-2.2-2.3-2.9
	c-1-0.6-2.1-0.9-3.2-0.9c-1.4,0-2.8,0.5-3.8,1.3c-1.2,1-1.9,2.4-1.9,4.1c0,0.7,0.1,1.5,0.4,2.2l7.3,19.6c0.4,1.2,1.3,2.2,2.4,2.9
	c1,0.6,2.2,0.9,3.4,0.9s2.4-0.3,3.4-0.9c1.1-0.7,2-1.6,2.4-2.8l2.5-6.8l2.4,6.7c0.1,0.4,0.3,0.8,0.6,1.2h-2.3
	c-2.1,0-3.4,0.8-4.1,1.5s-1.5,2-1.5,4.1v19.3c0,2.1,0.9,3.4,1.6,4.2c0.7,0.7,2.1,1.6,4.2,1.6c2.2,0,3.5-0.9,4.2-1.6
	c0.8-0.7,1.7-2.1,1.7-4.2v-3.6h3.1c3.4,0,6.2-0.9,8.3-2.8c0.6-0.5,1-1.1,1.4-1.7c0.1,0.1,0.2,0.2,0.3,0.4c-0.2,0.2-0.4,0.4-0.6,0.6
	c-1.1,1.2-1.6,2.8-1.6,4.7c0,1.6,0.4,3,1.2,4.4c0.8,1.3,2,2.2,3.3,2.9s2.9,1,4.5,1s3-0.4,4.2-1.1c0.9,0.7,2.1,1,3.3,1
	c2.1,0,3.3-0.8,4-1.5s1.6-1.9,1.6-4l0.1-3.9c0,2.7,0.8,4.9,2.4,6.6c1.5,1.6,3.8,2.5,6.6,2.7l1,0.1h0.7c1.4,0,2.7-0.3,3.6-0.9
	c0.7-0.5,1.3-1.1,1.6-1.8c2.1,1.8,4.9,2.8,8.2,2.8c2.8,0,5.3-0.6,7.4-1.9c0.2-0.1,0.4-0.3,0.6-0.4c0.2,0.3,0.5,0.6,0.7,0.8
	c1.1,1,2.4,1.5,4.1,1.5c2.1,0,3.3-0.8,4.1-1.5s1.7-2,1.7-4h0.3c0,2,0.9,3.3,1.7,4c1.1,1,2.4,1.5,4.1,1.5c2.1,0,3.3-0.8,4.1-1.5
	c0.6-0.6,1.4-1.5,1.6-3c1,1.3,2.3,2.4,3.8,3.1c1.8,0.9,4,1.4,6.3,1.4c1.1,0,2.4-0.2,3.7-0.5s2.5-0.7,3.4-1.2h0.1
	c0.4-0.2,0.8-0.5,1.1-0.7c0.3,0.2,0.5,0.5,0.9,0.6c1.1,0.7,2.3,1.1,3.7,1.4c1.3,0.3,2.8,0.4,4.6,0.4c3,0,5.5-0.7,7.4-2
	c2.1-1.5,3.3-3.7,3.3-6.3c0-2.8-1.2-4.5-2.2-5.4c0.1-0.1,0.2-0.3,0.4-0.4c0.7-0.9,1.1-2,1.1-3.2c0-1.9-0.8-3.4-2.4-4.3
	c-1-0.6-2.2-1.1-3.4-1.4s-2.5-0.5-3.8-0.5c-1.8,0-3.5,0.3-5,0.9c-1.6,0.7-2.9,1.6-3.9,2.9c-0.2,0.3-0.4,0.6-0.6,0.9
	c-0.9-1.4-2-2.5-3.4-3.3c-1.7-0.9-3.5-1.4-5.7-1.4s-4.1,0.5-5.9,1.5c-1.7,1-3,2.3-4,4c-0.3-1-0.8-1.9-1.4-2.6c-1-1.3-3-2.8-6.6-2.8
	c-1.1,0-2.2,0.1-3.1,0.4v-2.5c0-1-0.3-2-0.8-2.8c0.9,0.2,1.9,0.3,2.9,0.3c1.1,0,2.4-0.2,3.7-0.5s2.5-0.7,3.4-1.2h0.1
	c0.4-0.2,0.8-0.5,1.1-0.7c0.3,0.2,0.5,0.5,0.9,0.6c1.1,0.7,2.3,1.1,3.7,1.4c1.3,0.3,2.8,0.4,4.6,0.4c3,0,5.5-0.7,7.4-2
	c0.6-0.4,1.1-0.9,1.6-1.5c0.8,1.1,1.8,1.9,3,2.5c1.3,0.7,2.9,1,4.5,1s3-0.4,4.2-1.1c0.9,0.7,2.1,1,3.3,1c2.1,0,3.3-0.8,4-1.5
	c0.3-0.3,0.6-0.6,0.9-1.1c0.3,0.6,0.7,1,1.1,1.3c1.1,0.9,2.4,1.3,3.9,1.3s2.8-0.4,3.9-1.3c0.7-0.6,1.6-1.6,1.8-3.3
	c1,1.4,2.3,2.5,3.9,3.3c1.8,0.9,4,1.4,6.3,1.4c1.1,0,2.4-0.2,3.7-0.5s2.5-0.7,3.4-1.2h0.1c1.8-0.9,2.8-2.5,2.8-4.4
	C230.8,48.6,230.5,47.6,229.9,46.7L229.9,46.7z M124.6,63.7c-0.6-1.4-2-2.5-4.4-2.6c0-1.5-0.6-2.9-1.7-3.9c-0.7-0.7-2.1-1.5-4.1-1.5
	s-3.4,0.8-4.1,1.5c-1.1,1-1.7,2.4-1.7,4c-1.5,0.3-2.5,1-3.1,1.9c-1.8-1.6-4.3-2.4-7.6-2.4c-1.4,0-2.8,0.2-4.3,0.4
	c-1.5,0.3-2.7,0.7-3.8,1.2c-0.3-2.5-1.3-4.6-3.1-6.1c-1.3-1.2-3-2-5-2.5c0.3-0.4,0.6-0.9,0.8-1.5l5.6-15.1v13.3c0,2,0.9,3.3,1.7,4
	c1.1,1,2.4,1.5,4.1,1.5c2.1,0,3.3-0.8,4.1-1.5s1.7-2,1.7-4h0.3c0,2,0.9,3.3,1.7,4c1.1,1,2.4,1.5,4.1,1.5c2.1,0,3.3-0.8,4.1-1.5
	c0.6-0.6,1.4-1.6,1.6-3.1c1,1.3,2.3,2.4,3.8,3.2c1.9,0.9,4,1.4,6.3,1.4c2.4,0,4.5-0.5,6.4-1.4c1.6-0.8,2.9-1.9,3.9-3.3
	c0.2,1.7,1.1,2.8,1.8,3.4c1.1,0.9,2.4,1.3,3.9,1.3s2.8-0.4,3.9-1.3c0.7-0.6,1-0.8,0.1,0c-1.1,1-1.8,2.4-1.8,4v3.7
	c-0.9-0.5-1.9-0.9-2.9-1.2c-1.2-0.3-2.5-0.5-3.7-0.5c-2.3,0-4.4,0.5-6.3,1.4C126.2,62.5,125.3,63.1,124.6,63.7L124.6,63.7z"/>
<g>
	<path class="st1" d="M83,28c0.5-0.4,1.1-0.5,1.8-0.5c0.8,0,1.5,0.3,2.1,0.8s0.9,1.2,0.9,2c0,0.4-0.1,0.9-0.3,1.4l-7.3,19.6
		c-0.2,0.7-0.7,1.2-1.3,1.6s-1.3,0.6-2.1,0.6s-1.5-0.2-2.1-0.6s-1.1-0.9-1.3-1.6L68.7,38l-4.9,13.4c-0.3,0.7-0.7,1.2-1.3,1.6
		s-1.3,0.6-2.1,0.6s-1.5-0.2-2.1-0.6s-1.1-0.9-1.3-1.6l-7.3-19.6c-0.2-0.5-0.3-0.9-0.3-1.4c0-0.9,0.3-1.6,1-2.1
		c0.6-0.5,1.4-0.8,2.2-0.8c0.7,0,1.3,0.2,1.9,0.5s1,0.9,1.2,1.6l4.9,14.2l5.3-14.2c0.2-0.7,0.6-1.2,1.2-1.5c0.5-0.4,1.1-0.5,1.8-0.5
		s1.2,0.2,1.8,0.5c0.5,0.4,0.9,0.9,1.1,1.6l4.9,14.5l5.2-14.5C82.1,28.9,82.5,28.4,83,28z"/>
	<path class="st1" d="M107.5,36.9c1,1.3,1.5,3.2,1.5,5.8v7.8c0,0.9-0.3,1.6-0.9,2.2c-0.6,0.5-1.4,0.8-2.4,0.8s-1.8-0.3-2.4-0.8
		s-0.9-1.2-0.9-2.2v-7.9c0-1.7-0.7-2.6-2.3-2.6c-1,0-1.7,0.3-2.3,0.9S97,42.3,97,43.4v7.1c0,0.9-0.3,1.6-0.9,2.2
		c-0.6,0.5-1.4,0.8-2.4,0.8s-1.8-0.3-2.4-0.8s-0.9-1.2-0.9-2.2v-20c0-0.8,0.3-1.5,0.9-2.1c0.6-0.5,1.4-0.8,2.4-0.8
		c0.9,0,1.7,0.3,2.3,0.8s0.9,1.2,0.9,2v7.2c0.6-0.8,1.4-1.5,2.4-1.9s2.1-0.6,3.3-0.6C105,35,106.5,35.6,107.5,36.9z"/>
	<path class="st1" d="M116.5,52.3c-1.5-0.8-2.6-1.8-3.4-3.2s-1.2-3-1.2-4.9s0.4-3.5,1.2-4.9s2-2.4,3.4-3.2c1.5-0.7,3.2-1.1,5.2-1.1
		s3.7,0.4,5.2,1.1s2.6,1.8,3.4,3.2s1.2,3,1.2,4.9s-0.4,3.5-1.2,4.9s-2,2.5-3.4,3.2c-1.5,0.8-3.2,1.1-5.2,1.1S118,53.1,116.5,52.3z
		 M125.1,44.2c0-3-1.1-4.5-3.4-4.5s-3.4,1.5-3.4,4.5s1.1,4.5,3.4,4.5S125.1,47.2,125.1,44.2z"/>
	<path class="st1" d="M135.3,52.6c-0.6-0.5-0.9-1.2-0.9-2.2V30.6c0-1,0.3-1.7,0.9-2.2s1.4-0.8,2.3-0.8s1.7,0.3,2.3,0.8
		s0.9,1.2,0.9,2.2v19.9c0,1-0.3,1.7-0.9,2.2s-1.4,0.7-2.3,0.7S136,53.1,135.3,52.6z"/>
	<path class="st1" d="M160.5,48.1c0.3,0.4,0.5,1,0.5,1.7c0,1-0.5,1.7-1.4,2.2c-0.8,0.4-1.8,0.7-2.9,1s-2.2,0.4-3.1,0.4
		c-2,0-3.7-0.4-5.2-1.1s-2.6-1.8-3.4-3.2s-1.2-3-1.2-4.9c0-1.8,0.4-3.4,1.1-4.8c0.8-1.4,1.8-2.5,3.2-3.3s2.9-1.2,4.6-1.2
		s3.1,0.4,4.4,1.1c1.2,0.7,2.2,1.7,2.9,3s1,2.9,1,4.7c0,0.6-0.1,1-0.4,1.3s-0.6,0.4-1.1,0.4H150c0.2,1.1,0.5,2,1.1,2.5
		s1.4,0.8,2.6,0.8c0.6,0,1.1-0.1,1.6-0.2s1.1-0.3,1.7-0.6c0.4-0.1,0.7-0.3,1.1-0.4c0.3-0.1,0.7-0.2,1-0.2
		C159.6,47.5,160.1,47.7,160.5,48.1L160.5,48.1z M150.9,40.1c-0.5,0.5-0.8,1.3-0.9,2.3h5.7c-0.1-2.1-1.1-3.2-2.8-3.2
		C152.1,39.3,151.4,39.6,150.9,40.1z"/>
	<path class="st1" d="M166.9,53.1c-1.1-0.2-2.1-0.6-2.9-1.1c-0.3-0.2-0.6-0.5-0.8-0.9s-0.3-0.9-0.3-1.4c0-0.6,0.2-1.2,0.5-1.6
		s0.8-0.6,1.3-0.6c0.4,0,0.7,0,1,0.1s0.7,0.2,1.1,0.4c0.8,0.3,1.4,0.5,2.1,0.6c0.6,0.1,1.3,0.2,2.3,0.2c0.6,0,1.2-0.1,1.5-0.3
		c0.4-0.2,0.6-0.4,0.6-0.8c0-0.3-0.1-0.5-0.3-0.6s-0.5-0.3-1-0.4s-1.4-0.3-2.6-0.6c-2.2-0.4-3.7-1-4.6-1.8s-1.4-2-1.4-3.5
		c0-1.1,0.3-2.1,1-3s1.6-1.6,2.8-2.1s2.6-0.8,4.1-0.8c1.1,0,2.2,0.1,3.2,0.4s2,0.6,2.7,1.1c0.7,0.4,1.1,1.1,1.1,2.1
		c0,0.7-0.2,1.2-0.5,1.7c-0.4,0.5-0.8,0.7-1.3,0.7c-0.6,0-1.4-0.2-2.3-0.6c-0.6-0.3-1.1-0.5-1.5-0.6s-1-0.2-1.6-0.2
		s-1.1,0.1-1.4,0.3s-0.5,0.4-0.5,0.8s0.2,0.7,0.7,0.9s1.4,0.5,2.8,0.7c2.4,0.4,4,1,4.9,1.8c1,0.8,1.4,2,1.4,3.6
		c0,1.7-0.7,3.1-2.2,4.2c-1.4,1-3.4,1.6-5.9,1.6C169.4,53.4,168,53.3,166.9,53.1L166.9,53.1z"/>
	<path class="st1" d="M196.1,37c1.3,1.3,2,3.3,2,6v7.5c0,0.9-0.3,1.6-0.8,2.1s-1.3,0.8-2.3,0.8c-0.8,0-1.5-0.2-2.1-0.7
		c-0.5-0.5-0.8-1.1-0.9-1.9c-0.3,0.9-0.9,1.5-1.7,2s-1.8,0.7-2.9,0.7c-1.2,0-2.4-0.2-3.3-0.7c-1-0.5-1.8-1.2-2.3-2
		c-0.6-0.9-0.8-1.9-0.8-3c0-1.3,0.3-2.3,1-3c0.7-0.8,1.7-1.3,3.2-1.6c1.4-0.3,3.4-0.5,5.9-0.5h1v-0.4c0-0.8-0.2-1.4-0.6-1.8
		s-1-0.6-2-0.6s-2.4,0.3-4.3,1c-0.6,0.2-1,0.3-1.4,0.3c-0.6,0-1.1-0.2-1.4-0.6c-0.4-0.4-0.5-1-0.5-1.7c0-0.5,0.1-1,0.3-1.3
		s0.6-0.6,1-0.9c0.8-0.4,1.9-0.8,3.2-1c1.3-0.3,2.5-0.4,3.8-0.4C192.8,35,194.8,35.7,196.1,37L196.1,37z M191.2,48.2
		c0.5-0.6,0.8-1.4,0.8-2.3v-0.4h-0.6c-1.5,0-2.7,0.1-3.3,0.4s-1,0.7-1,1.4c0,0.6,0.2,1,0.5,1.4s0.8,0.5,1.3,0.5
		C189.9,49.2,190.6,48.9,191.2,48.2z"/>
	<path class="st1" d="M202.7,52.6c-0.6-0.5-0.9-1.2-0.9-2.2V30.6c0-1,0.3-1.7,0.9-2.2s1.4-0.8,2.3-0.8s1.7,0.3,2.3,0.8
		s0.9,1.2,0.9,2.2v19.9c0,1-0.3,1.7-0.9,2.2s-1.4,0.7-2.3,0.7C204,53.4,203.3,53.1,202.7,52.6z"/>
	<path class="st1" d="M227.8,48.1c0.3,0.4,0.5,1,0.5,1.7c0,1-0.5,1.7-1.4,2.2c-0.8,0.4-1.8,0.7-2.9,1s-2.2,0.4-3.1,0.4
		c-2,0-3.7-0.4-5.2-1.1s-2.6-1.8-3.4-3.2s-1.2-3-1.2-4.9c0-1.8,0.4-3.4,1.1-4.8c0.8-1.4,1.8-2.5,3.2-3.3s2.9-1.2,4.6-1.2
		c1.6,0,3.1,0.4,4.4,1.1c1.2,0.7,2.2,1.7,2.9,3s1,2.9,1,4.7c0,0.6-0.1,1-0.4,1.3s-0.6,0.4-1.1,0.4h-9.6c0.2,1.1,0.5,2,1.1,2.5
		s1.4,0.8,2.6,0.8c0.6,0,1.1-0.1,1.6-0.2s1.1-0.3,1.7-0.6c0.4-0.1,0.7-0.3,1.1-0.4c0.3-0.1,0.7-0.2,1-0.2
		C227,47.5,227.4,47.7,227.8,48.1L227.8,48.1z M218.2,40.1c-0.5,0.5-0.8,1.3-0.9,2.3h5.7c-0.1-2.1-1.1-3.2-2.8-3.2
		C219.4,39.3,218.7,39.6,218.2,40.1z"/>
	<path class="st1" d="M67.1,80.6c-0.6-0.6-0.9-1.4-0.9-2.4V58.9c0-1,0.3-1.7,0.8-2.3c0.5-0.5,1.3-0.8,2.3-0.8h9.3
		c2.8,0,5,0.7,6.6,2.1s2.4,3.4,2.4,6c0,2.5-0.8,4.5-2.4,6c-1.6,1.4-3.8,2.2-6.6,2.2h-5.7v6.1c0,1-0.3,1.8-0.9,2.4s-1.4,0.9-2.5,0.9
		C68.5,81.5,67.7,81.2,67.1,80.6z M77.6,67.1c1.2,0,2.2-0.3,2.7-0.8c0.6-0.5,0.9-1.3,0.9-2.3c0-2.1-1.2-3.1-3.6-3.1h-4.8v6.2H77.6z"
		/>
	<path class="st1" d="M104.1,65.1c1.3,1.3,2,3.3,2,6v7.5c0,0.9-0.3,1.6-0.8,2.1s-1.3,0.8-2.3,0.8c-0.8,0-1.5-0.2-2.1-0.7
		c-0.5-0.5-0.8-1.1-0.9-1.9c-0.3,0.9-0.9,1.5-1.7,2s-1.8,0.7-2.9,0.7c-1.2,0-2.4-0.2-3.3-0.7c-1-0.5-1.8-1.2-2.3-2
		C89.2,78,89,77,89,75.9c0-1.3,0.3-2.3,1-3c0.7-0.8,1.7-1.3,3.2-1.6c1.4-0.3,3.4-0.5,5.9-0.5h1v-0.4c0-0.8-0.2-1.4-0.6-1.8
		s-1-0.6-2-0.6s-2.4,0.3-4.3,1c-0.6,0.2-1,0.3-1.4,0.3c-0.6,0-1.1-0.2-1.4-0.6c-0.4-0.4-0.5-1-0.5-1.7c0-0.5,0.1-1,0.3-1.3
		s0.6-0.6,1-0.9c0.8-0.4,1.9-0.8,3.2-1s2.5-0.4,3.8-0.4C100.7,63.2,102.8,63.8,104.1,65.1L104.1,65.1z M99.1,76.4
		c0.5-0.6,0.8-1.4,0.8-2.3v-0.4h-0.6c-1.5,0-2.7,0.1-3.3,0.4s-1,0.7-1,1.4c0,0.6,0.2,1,0.5,1.4s0.8,0.5,1.3,0.5
		C97.8,77.3,98.6,77,99.1,76.4z"/>
	<path class="st1" d="M122.7,79.1c0,0.8-0.3,1.5-1,1.9c-0.6,0.4-1.6,0.6-2.8,0.5l-1-0.1c-2.2-0.2-3.8-0.8-4.9-2
		c-1.1-1.1-1.7-2.7-1.7-4.8v-6.4h-1c-1.9,0-2.9-0.8-2.9-2.4s1-2.3,2.9-2.3h1v-2.3c0-0.9,0.3-1.6,0.9-2.2c0.6-0.5,1.4-0.8,2.4-0.8
		s1.8,0.3,2.4,0.8s0.9,1.3,0.9,2.2v2.3h2c1.9,0,2.9,0.8,2.9,2.3c0,1.6-1,2.4-2.9,2.4h-2v6.9c0,0.5,0.1,0.8,0.4,1.1s0.6,0.5,1.1,0.5
		l1,0.1C121.8,77.1,122.7,77.8,122.7,79.1z"/>
	<path class="st1" d="M126.1,79.2c-1.7-1.6-2.5-3.9-2.5-6.7c0-1.8,0.4-3.5,1.2-4.9s2-2.5,3.5-3.3c1.5-0.8,3.2-1.1,5.1-1.1
		c1,0,2,0.1,3,0.4s1.9,0.6,2.7,1.1c0.7,0.5,1.1,1.1,1.1,2.1c0,0.7-0.2,1.3-0.5,1.8s-0.8,0.7-1.3,0.7c-0.4,0-0.7-0.1-1-0.2
		s-0.7-0.3-1.1-0.5c-0.5-0.2-0.9-0.4-1.2-0.5s-0.7-0.2-1.1-0.2c-2.4,0-3.6,1.4-3.6,4.4c0,1.4,0.3,2.5,0.9,3.3s1.5,1.1,2.7,1.1
		c0.4,0,0.8-0.1,1.1-0.2s0.7-0.3,1.2-0.5s0.9-0.4,1.2-0.5s0.6-0.2,1-0.2c0.5,0,1,0.2,1.3,0.7s0.5,1.1,0.5,1.8c0,0.5-0.1,0.9-0.3,1.2
		c-0.2,0.4-0.5,0.7-0.8,0.8c-1.7,1-3.7,1.5-6.1,1.5C130,81.6,127.7,80.8,126.1,79.2L126.1,79.2z"/>
	<path class="st1" d="M159.2,65c1,1.3,1.5,3.2,1.5,5.8v7.8c0,0.9-0.3,1.6-0.9,2.2c-0.6,0.5-1.4,0.8-2.4,0.8s-1.8-0.3-2.4-0.8
		s-0.9-1.2-0.9-2.2v-7.9c0-1.7-0.7-2.6-2.3-2.6c-1,0-1.7,0.3-2.3,0.9s-0.8,1.4-0.8,2.5v7.1c0,0.9-0.3,1.6-0.9,2.2
		c-0.6,0.5-1.4,0.8-2.4,0.8s-1.8-0.3-2.4-0.8s-0.9-1.2-0.9-2.2v-20c0-0.8,0.3-1.5,0.9-2.1c0.6-0.5,1.4-0.8,2.4-0.8
		c0.9,0,1.7,0.3,2.3,0.8s0.9,1.2,0.9,2v7.2c0.6-0.8,1.4-1.5,2.4-1.9s2.1-0.6,3.3-0.6C156.7,63.2,158.2,63.8,159.2,65L159.2,65z"/>
	<path class="st1" d="M180.2,76.3c0.3,0.4,0.5,1,0.5,1.7c0,1-0.5,1.7-1.4,2.2c-0.8,0.4-1.8,0.7-2.9,1s-2.2,0.4-3.1,0.4
		c-2,0-3.7-0.4-5.2-1.1s-2.6-1.8-3.4-3.2s-1.2-3-1.2-4.9c0-1.8,0.4-3.4,1.1-4.8c0.8-1.4,1.8-2.5,3.2-3.3s2.9-1.2,4.6-1.2
		s3.1,0.4,4.4,1.1c1.2,0.7,2.2,1.7,2.9,3s1,2.9,1,4.7c0,0.6-0.1,1-0.4,1.3s-0.6,0.4-1.1,0.4h-9.6c0.2,1.1,0.5,2,1.1,2.5
		s1.4,0.8,2.6,0.8c0.6,0,1.1-0.1,1.7-0.2c0.5-0.1,1.1-0.3,1.7-0.6c0.4-0.1,0.7-0.3,1.1-0.4c0.3-0.1,0.7-0.2,1-0.2
		C179.4,75.6,179.9,75.9,180.2,76.3L180.2,76.3z M170.7,68.3c-0.5,0.5-0.8,1.3-0.9,2.3h5.7c-0.1-2.1-1.1-3.2-2.8-3.2
		C171.8,67.5,171.2,67.7,170.7,68.3z"/>
	<path class="st1" d="M186.7,81.2c-1.1-0.2-2.1-0.6-2.9-1.1c-0.3-0.2-0.6-0.5-0.8-0.9s-0.3-0.9-0.3-1.4c0-0.6,0.2-1.2,0.5-1.6
		s0.8-0.6,1.3-0.6c0.4,0,0.7,0,1,0.1s0.7,0.2,1.1,0.4c0.8,0.3,1.4,0.5,2.1,0.6c0.6,0.1,1.3,0.2,2.3,0.2c0.6,0,1.2-0.1,1.5-0.3
		c0.4-0.2,0.6-0.4,0.6-0.8c0-0.3-0.1-0.5-0.3-0.6s-0.5-0.3-1-0.4s-1.4-0.3-2.6-0.6c-2.2-0.4-3.7-1-4.6-1.8s-1.4-2-1.4-3.5
		c0-1.1,0.3-2.1,1-3s1.7-1.6,2.8-2.1c1.2-0.5,2.6-0.8,4.1-0.8c1.1,0,2.2,0.1,3.2,0.4s2,0.6,2.7,1.1c0.7,0.4,1.1,1.1,1.1,2.1
		c0,0.7-0.2,1.2-0.5,1.7c-0.4,0.5-0.8,0.7-1.3,0.7c-0.6,0-1.4-0.2-2.3-0.6c-0.6-0.3-1.1-0.5-1.5-0.6s-1-0.2-1.6-0.2
		s-1.1,0.1-1.4,0.3s-0.5,0.4-0.5,0.8s0.2,0.7,0.7,0.9s1.4,0.5,2.8,0.7c2.4,0.4,4,1,4.9,1.8c1,0.8,1.4,2,1.4,3.6
		c0,1.7-0.7,3.1-2.2,4.2c-1.4,1-3.4,1.6-5.9,1.6C189.2,81.6,187.8,81.5,186.7,81.2L186.7,81.2z"/>
</g>
<g>
	<g>
		
			<linearGradient id="SVGID_1_" gradientUnits="userSpaceOnUse" x1="41.8282" y1="154.1743" x2="130.3788" y2="155.4769" gradientTransform="matrix(1 0 0 1 -36.3494 -105.2069)">
			<stop  offset="0.2301" style="stop-color:#F7F7F7"/>
			<stop  offset="0.5842" style="stop-color:#E2E2E2"/>
			<stop  offset="0.7679" style="stop-color:#D4D4D4"/>
		</linearGradient>
		<path class="st2" d="M27.1,49.8c-1.5-4.2-4.5-7.7-7.3-10.9l-5.3,5.3c-1.5,1.5-2.3,3.4-2.3,5.5s0.9,4.1,2.3,5.5l9.3,9.2
			C26,60.2,28.8,54.5,27.1,49.8z M16.7,49.4L16.7,49.4c-0.5-0.1-0.8-0.4-0.8-0.8c0-0.1,0-0.1,0-0.1c0.2-1.3,0.8-2.4,1.7-3.3l2.3-2.3
			c0.3-0.3,0.9-0.3,1.2,0c0.3,0.3,0.3,0.8,0,1.2l-2.3,2.3c-0.7,0.7-1.1,1.5-1.2,2.4C17.4,49.1,17.1,49.4,16.7,49.4z M24.5,59.5
			c-0.2,0.1-0.4,0.2-0.6,0.2s-0.4-0.1-0.6-0.2l-4.7-4.7c-0.2-0.2-0.2-0.4-0.2-0.6s0.1-0.4,0.2-0.6c0.3-0.3,0.9-0.3,1.2,0l4.7,4.7
			c0.2,0.2,0.2,0.4,0.2,0.6S24.6,59.3,24.5,59.5z M60.8,9.1c-1.5-1.4-3.4-2.2-5.5-2.2c-2,0-4,0.8-5.4,2.2l-16.2,16l0.5,3.3l4.4-4.4
			c0.3-0.3,0.9-0.3,1.2,0c0.2,0.2,0.2,0.4,0.2,0.6s-0.1,0.4-0.2,0.6L35.1,30c-0.2,0.1-0.4,0.2-0.6,0.2l7.2,45
			c-0.1,0.6-0.5,1.1-1.5,0.9c-0.7-0.2-1.2-0.6-1.5-1.2l-8-40.9c0,0.2-0.1,0.4-0.2,0.6l-4.7,4.7c-0.2,0.1-0.4,0.2-0.6,0.2
			s-0.4-0.1-0.6-0.2c-0.2-0.2-0.2-0.4-0.2-0.6s0.1-0.4,0.2-0.6l4.7-4.7c0.3-0.3,0.9-0.3,1.2,0c0,0,0.1,0.1,0.1,0.1L29.8,29l-9.1,9
			c2.9,3.2,6,6.8,7.6,11.3c1.9,5.3-1.1,11.5-3.6,15.9l25.2,25.1c1.5,1.4,3.4,2.2,5.5,2.2c2.1,0,4.1-0.8,5.5-2.2l4.7-4.7
			c-0.5-0.3-1-0.7-1.3-1.1c-0.2-0.2-0.4-0.5-0.6-0.7c0,0,0,0.1-0.1,0.1l-3.4,3.3c-0.5,0.5-1.1,0.9-1.7,1.2c-0.2,0.1-0.3,0.1-0.4,0.1
			c-0.3,0-0.6-0.2-0.8-0.5c-0.2-0.4,0-0.9,0.4-1.1c0.5-0.2,0.9-0.5,1.3-0.9l3.4-3.3c0.1-0.1,0.3-0.2,0.4-0.2c-0.5-1-0.9-2.3-0.9-4
			V59.3h-0.7c-1.7,0-3.3-0.4-4.7-1.3c-1.6-1-2.8-2.4-3.5-4.2l-7.8-19.6c-0.4-1-0.5-2-0.5-3c0-2.4,1-4.6,2.8-6
			c1.5-1.2,3.4-1.9,5.5-1.9c1.6,0,3.2,0.4,4.5,1.3c1.6,1,2.7,2.4,3.4,4.2l0.3,0.8l0.3-0.9c0.6-1.6,1.7-3,3.1-4
			c1.4-0.9,2.9-1.4,4.6-1.4c1.7,0,3.3,0.5,4.6,1.4c1.4,1,2.5,2.4,3.1,4.1l0.2,0.7l0.3-0.7c0.3-0.8,0.7-1.5,1.1-2.1L60.8,9.1z
			 M33.8,68.8c-0.1,0.1-0.4,0.2-0.6,0.2s-0.4-0.1-0.6-0.2l-4.7-4.7c-0.2-0.2-0.2-0.4-0.2-0.6s0.1-0.4,0.2-0.6c0.3-0.3,0.9-0.3,1.2,0
			l4.7,4.7C34,67.8,34,68,34,68.2S33.9,68.6,33.8,68.8z M46.6,81.5c0.3-0.3,0.9-0.3,1.2,0l4.7,4.7c0.2,0.2,0.2,0.4,0.2,0.6
			c0,0.2-0.1,0.4-0.2,0.6c-0.2,0.1-0.4,0.2-0.6,0.2s-0.4-0.1-0.6-0.2l-4.7-4.7c-0.2-0.2-0.2-0.4-0.2-0.6
			C46.4,81.9,46.5,81.7,46.6,81.5z M49.2,16l-4.7,4.7c-0.2,0.2-0.4,0.2-0.6,0.2s-0.4-0.1-0.6-0.2c-0.2-0.2-0.2-0.4-0.2-0.6
			c0-0.2,0.1-0.4,0.2-0.6l4.7-4.7c0.3-0.3,0.9-0.3,1.2,0C49.5,15.1,49.5,15.6,49.2,16z M60.1,12.7c-0.2,0.2-0.4,0.2-0.6,0.2
			s-0.4-0.1-0.6-0.2c-0.8-0.8-2-1.3-3.2-1.3c-0.7,0-1.3,0.1-2,0.4c-0.4,0.2-0.9,0-1.1-0.4c-0.1-0.1-0.1-0.2-0.1-0.4
			c0-0.3,0.2-0.6,0.5-0.7c0.8-0.4,1.8-0.6,2.7-0.6c1.7,0,3.2,0.6,4.4,1.8C60.4,11.8,60.4,12.4,60.1,12.7z M69.4,22
			c-0.1,0.1-0.4,0.2-0.6,0.2c-0.2,0-0.4-0.1-0.6-0.2l-4.7-4.7c-0.2-0.2-0.2-0.4-0.2-0.6s0.1-0.4,0.2-0.6c0.3-0.3,0.9-0.3,1.2,0
			l4.7,4.7c0.2,0.2,0.2,0.4,0.2,0.6S69.5,21.8,69.4,22z"/>
	</g>
</g>
</svg>
