<svg id="fd4d372a-5b93-4c46-b94c-df262f83f8e4" data-name="Layer 1" xmlns="http://www.w3.org/2000/svg" viewBox="0 0 510.5 109.5"><defs><style>.e39915d7-c1be-4541-9eb8-9ca6fd7de381{fill:#fff;}.a938ae78-79f6-4e88-bca4-dfef07a33854{fill:red;}.a2e2ebd2-2539-46e4-b5c1-099adf8cd5f1{fill:#005d8d;}</style></defs><path d="M507.7,259.7l-.3.2,2.5-6.3a6.94,6.94,0,0,0-1.6-7.5c-2.7-2.7-6.1-6.1-6.6-6.4a30.35,30.35,0,0,0-8.2-3.7,33.61,33.61,0,0,0-8.9-1.3,27.44,27.44,0,0,0-10.2,1.8,23.26,23.26,0,0,0-5.5,3.2,7.51,7.51,0,0,0-1.5-1.3,18.59,18.59,0,0,0-11.7-3.7,19.71,19.71,0,0,0-7.6,1.4,7.17,7.17,0,0,0-2.9-.6h-2v-3.8a6.82,6.82,0,0,0-2.3-5.2l-.8-.8c-3.4-3.5-4.7-4.7-4.9-4.9a7.27,7.27,0,0,0-4.5-1.6H418.4a7,7,0,0,0-6.5,4.3,29,29,0,0,0-11.2-2.2H378.1a7,7,0,0,0-7,7v9.3a21.55,21.55,0,0,0-11.6-2.9,26.53,26.53,0,0,0-6.3.8V234a7.23,7.23,0,0,0-2-4.9l-5.8-5.8a7,7,0,0,0-4.7-1.9H328.9a7,7,0,0,0-7,7v8.4a26.89,26.89,0,0,0-11.2-2.1,35,35,0,0,0-9.7,1.4,39.45,39.45,0,0,0-6.8,2.5,31.27,31.27,0,0,0-15.2-3.9,26.58,26.58,0,0,0-10.1,1.8,19,19,0,0,0-6.8,4.4c-4-4.1-9.3-6.2-15.8-6.2a23.7,23.7,0,0,0-7,1V234a6.65,6.65,0,0,0-1.9-4.7c-.4-.5-5.4-5.4-5.9-5.9a6.64,6.64,0,0,0-4.8-1.9H214.9a7,7,0,0,0-7,7v9.6a4.05,4.05,0,0,1-.9-.5,29.28,29.28,0,0,0-25.2,0,26.31,26.31,0,0,0-4.9,3.3,28.54,28.54,0,0,0-2.8-2.6,17.46,17.46,0,0,0-9.1-3.4V234a5.82,5.82,0,0,0-.3-1.9V210.4a5.85,5.85,0,0,0-1.3-3.8,19.1,19.1,0,0,0-3.3-3.6,5.85,5.85,0,0,0-4-1.7h-1.6c-7.7,0-25.4,1.5-57.7,11.5l-6.5,2a19.67,19.67,0,0,0-.3-2.4,9.38,9.38,0,0,0-2.9-5,12.49,12.49,0,0,0-1.2-.9,14.62,14.62,0,0,0-1.6-1.9c-2-1.8-5-2.6-10.5-2.6H72l-5.2.3h-.1l-4,.4h-.1c-16.6,1.6-47.5,8.4-56.5,10.5A6.53,6.53,0,0,0,1,219.6v78.9a5.77,5.77,0,0,0,1.3,3.7,48.88,48.88,0,0,0,4,3.9,5.78,5.78,0,0,0,3.6,1.2c.4,0,.9-.1,1.3-.1,8.9-2,39.1-8.8,55.1-10.3h.2c.9-.1,2.3-.2,3.2-.3l7.9-.3c.7,0,1.3.1,1.7.1,0,.8.1,1.7.1,3.2,0,.4,0,1.1-.1,2.3a5.7,5.7,0,0,0,1.5,4.3l2.8,2.8a6,6,0,0,0,4.2,1.8,4.67,4.67,0,0,0,1.7-.3l8.4-2.6.7-.2,2.4-.8c33-10.3,50.3-11.4,56.2-11.4h1.6a5.85,5.85,0,0,0,5.9-5.9v-3.2a7.3,7.3,0,0,0,3.8,1.1h11.8a7.1,7.1,0,0,0,5.9-3.3c.6.3,1.1.7,1.7,1a29.28,29.28,0,0,0,25.2,0c.6-.3,1.1-.6,1.7-.9.7.7,1.5,1.4,1.5,1.4a7,7,0,0,0,4.7,1.9h11.8a6.81,6.81,0,0,0,6.1-3.7c.8.6,1.6,1,2.4,1.5a27.18,27.18,0,0,0,12.8,2.8,30,30,0,0,0,8.9-1.3c1.7-.6,3.5-1.3,5.2-2.1a30.72,30.72,0,0,0,6,2.2,40,40,0,0,0,10.4,1.2c6,0,10.9-1.4,14.7-4.1l.3-.3a11.52,11.52,0,0,0,3.5,2.2,21,21,0,0,0,9.2,2.1,17,17,0,0,0,5.9-1,6.72,6.72,0,0,0,2.4.4h11a8.08,8.08,0,0,1,3.1,0h11.8a7.28,7.28,0,0,0,6-3.3,12.81,12.81,0,0,0,2,1.1,27.18,27.18,0,0,0,12.8,2.8,32.88,32.88,0,0,0,8.8-1.3c1-.3,2-.7,3-1.1l.3.3a7.49,7.49,0,0,0,4.5,1.6h12.2a7,7,0,0,0,7-7V270.4h3.4a24.69,24.69,0,0,0,5.4-.5v4.7a7.77,7.77,0,0,0,1.5,4.4c.6.7,5.9,6,6.6,6.6a7.49,7.49,0,0,0,4.5,1.6h11.8a7.33,7.33,0,0,1,3.4,0h11.8a7.43,7.43,0,0,0,4.9-2l.3.3a7,7,0,0,0,4.5,1.7H473a7.06,7.06,0,0,0,4.2-1.4,21.72,21.72,0,0,0,2.4.7,40.51,40.51,0,0,0,10.4,1.2c6,0,10.9-1.4,14.7-4.1a16.12,16.12,0,0,0,6.8-13.2A15.55,15.55,0,0,0,507.7,259.7ZM156.2,288.5c-5.3-.2-23,.3-59,11.6l-3.2,1-8.4,2.6a1.49,1.49,0,0,1-.6.1,1.64,1.64,0,0,1-1.5-1.7,25.28,25.28,0,0,0,.1-2.7,38.88,38.88,0,0,0-.3-5.9,5.75,5.75,0,0,0-1.7-2.9c-1-.9-3.5-1.3-6.8-1.4l-8.2.3c-1,0-2.6.2-3.5.3-16.3,1.5-47.1,8.4-55.6,10.4a.6.6,0,0,1-.4.1,1.79,1.79,0,0,1-1.8-1.8V219.6a2.37,2.37,0,0,1,1.8-2.3c7.8-1.7,39.4-8.8,56-10.3l4-.4,5.2-.3c4.7-.1,7.9.2,9.2,1.4a4.82,4.82,0,0,1,1.7,2.9,49.24,49.24,0,0,1,.4,6.9c.1,1.1.1,2.4.1,3.7,1.3-.3,2.7-.8,4.4-1.3l10-3.1c35.2-10.9,52.6-11.5,57.9-11.3a1.84,1.84,0,0,1,1.9,1.9V224c-.5-.4-.8-.8-1-.9a7.1,7.1,0,0,0-4.4-1.5H129.1a7,7,0,0,0-6.6,4.7l-1.6,4.8a8.58,8.58,0,0,0-1.3-2l-5.6-5.6a7,7,0,0,0-4.9-2h-8.4a7,7,0,0,0-6.7,4.6l-1.7,4.8a8.68,8.68,0,0,0-1.7-2.2l-2.8-2.8-2.6-2.6a6.57,6.57,0,0,0-4.7-1.9H68.4a7,7,0,0,0-7,7,6.72,6.72,0,0,0,.4,2.4l16.6,46.6a7.19,7.19,0,0,0,1.2,2.1c.6.6,5.9,6,6.5,6.5a7.49,7.49,0,0,0,4.5,1.6h9.8A7.15,7.15,0,0,0,107,283l1.6-4.5a1.56,1.56,0,0,0,.6.8c.6.8,6.1,6.2,6.7,6.8a7,7,0,0,0,4.3,1.5h9.7a7.15,7.15,0,0,0,6.6-4.6l.7-2a61.06,61.06,0,0,0,5.2,5,7.1,7.1,0,0,0,4.4,1.5h11A1.78,1.78,0,0,1,156.2,288.5Z" transform="translate(-1 -201.3)"/><path class="e39915d7-c1be-4541-9eb8-9ca6fd7de381" d="M500.4,258.8a12.7,12.7,0,0,0-1.2-1,2.18,2.18,0,0,1-.4-.5h0a2.29,2.29,0,0,0,.7-1l3.1-7.7h0a3.23,3.23,0,0,0-.6-3.1h0a28.34,28.34,0,0,0-2.5-2.4h0a26.08,26.08,0,0,0-7-3.2h0a25.61,25.61,0,0,0-7.7-1.1h0a22.93,22.93,0,0,0-8.6,1.5h0a14.64,14.64,0,0,0-6.4,4.6l-.6.9c-.1-.1-.2-.3-.3-.4-.6-.7-3.2-3.3-3.8-3.8-2.3-1.9-5.4-2.8-9.1-2.8h0a17.61,17.61,0,0,0-7.2,1.6,2.18,2.18,0,0,0-.8.5,2.81,2.81,0,0,0-2.4-1.3h-9.8a2,2,0,0,0,.1-.8V228.1h0a2.64,2.64,0,0,0-1-2.1c-.3-.3-1.7-1.8-2.2-2.2h0a2.72,2.72,0,0,0-1.7-.6H418.7a2.86,2.86,0,0,0-2.8,2.8v5a9.43,9.43,0,0,0-1-1c-3.4-3.1-8.1-4.7-13.9-4.7H378.5a2.86,2.86,0,0,0-2.8,2.8v18.6a1.7,1.7,0,0,0-.6-.6c-.5-.6-2-1.9-2.1-2.1q-5-5.4-13.2-5.4h0a18.85,18.85,0,0,0-9.8,2.5h0a18.57,18.57,0,0,0-4.1,3.3V230.2a2.79,2.79,0,0,0-.8-2c-.3-.3-1.7-1.8-2.2-2.2a2.73,2.73,0,0,0-1.9-.8H329.2a2.86,2.86,0,0,0-2.8,2.8v17a6.47,6.47,0,0,0-.9-.8h0a7.41,7.41,0,0,0-1.2-1.3c-3-2.9-7.5-4.3-13.2-4.3h0a35.8,35.8,0,0,0-8.6,1.3h0a31.68,31.68,0,0,0-7.9,3.1l-.2.1h0c-.1-.1-.2-.1-.3-.2h0a26.08,26.08,0,0,0-7-3.2,25.81,25.81,0,0,0-7.8-1.1h0a22.93,22.93,0,0,0-8.6,1.5h0a14.64,14.64,0,0,0-6.4,4.6h0c-.6.8-1,1.6-1.5,2.4a10.59,10.59,0,0,0-1-1.2c-.5-.6-2-1.9-2.1-2.1q-5-5.4-13.2-5.4a18.85,18.85,0,0,0-9.8,2.5h0a16.81,16.81,0,0,0-4.8,4v-15a2.73,2.73,0,0,0-.8-1.9,22.84,22.84,0,0,0-2.2-2.2,2.93,2.93,0,0,0-1.9-.8H215.2a2.86,2.86,0,0,0-2.8,2.8v18.5h0l-1.3-1.3a18.84,18.84,0,0,0-5.6-4.5,26,26,0,0,0-21.5,0h0a17.68,17.68,0,0,0-6.9,6.1h0a10.72,10.72,0,0,0-1.3-1.9,48.88,48.88,0,0,0-4-3.9,14.68,14.68,0,0,0-8.9-2.6h0a17.68,17.68,0,0,0-5.2.8v-9h0a3.41,3.41,0,0,0-.7-1.9c-.3-.4-2-2-2.4-2.4a2.72,2.72,0,0,0-1.7-.6H129.5a2.8,2.8,0,0,0-2.6,1.9l-6.8,20.1-6-18a1.45,1.45,0,0,0-.7-1l-2.1-2.1a2.71,2.71,0,0,0-2-.8H101a2.8,2.8,0,0,0-2.6,1.9l-7,19.8-5.7-17.6a2.58,2.58,0,0,0-.8-1.3l-2-2a2.93,2.93,0,0,0-1.9-.8H68.3a2.86,2.86,0,0,0-2.8,2.8c0,.3.1.6.1.9l16.6,46.6h0a2.18,2.18,0,0,0,.5.8,27.07,27.07,0,0,0,2.4,2.4h0a2.72,2.72,0,0,0,1.7.6h9.8a2.8,2.8,0,0,0,2.6-1.9l6.7-18.7,5.9,16.6a2,2,0,0,0,.4.8h0c.8.9,1.7,1.7,2.6,2.6a2.72,2.72,0,0,0,1.7.6h9.7a2.8,2.8,0,0,0,2.6-1.9l9.2-25.9v23h0a3.19,3.19,0,0,0,.3,1.4h0a19,19,0,0,0,2.8,2.9,2.72,2.72,0,0,0,1.7.6h11.8a2.86,2.86,0,0,0,2.8-2.8V258.4h0a3.4,3.4,0,0,1,.8-2.6h0a2.09,2.09,0,0,1,1.3-.7v19.3h0a2.61,2.61,0,0,0,.7,1.7,29.49,29.49,0,0,0,2.5,2.5,2.72,2.72,0,0,0,1.7.6h11.8a2.86,2.86,0,0,0,2.8-2.8V272c.3.3.8.7,1.1,1a18.53,18.53,0,0,0,5.6,4.4,25.05,25.05,0,0,0,21.4,0h0a19.38,19.38,0,0,0,4.9-3.6v.6h0a2.72,2.72,0,0,0,.6,1.7,27.15,27.15,0,0,0,2.4,2.4h0a3.26,3.26,0,0,0,1.9.8h11.8a2.86,2.86,0,0,0,2.8-2.8V271a18.88,18.88,0,0,0,2,2h0a19.26,19.26,0,0,0,5.7,4.5h0a24,24,0,0,0,10.9,2.3h0a28.65,28.65,0,0,0,7.7-1.1h0a22.42,22.42,0,0,0,6.3-2.9h0a22.81,22.81,0,0,0,7,3h0a32.76,32.76,0,0,0,9.3,1q7.65,0,12.3-3.3h0a17.89,17.89,0,0,0,2.8-2.7c.3.2.5.5.8.7h0a15,15,0,0,0,4.6,3.7,15.55,15.55,0,0,0,7.3,1.6,12.11,12.11,0,0,0,6.2-1.5h0a3,3,0,0,0,2.1,1h11a2.89,2.89,0,0,1,3.1,0h11.8a2.86,2.86,0,0,0,2.8-2.8v-4.7a15.38,15.38,0,0,0,1.3,1.2h0a17.77,17.77,0,0,0,5.7,4.5h0a25.82,25.82,0,0,0,10.9,2.4h0a28.65,28.65,0,0,0,7.7-1.1h0a32.7,32.7,0,0,0,5.1-2.2c.3.3,1.7,1.7,2.1,2.2a2.79,2.79,0,0,0,1.8.6H392a2.86,2.86,0,0,0,2.8-2.8V262.4h7.6c5.4,0,9.8-1.4,13-4v16h0a2.52,2.52,0,0,0,.6,1.7c.4.5,2,2.1,2.4,2.5a2.79,2.79,0,0,0,1.8.6H432a2.57,2.57,0,0,1,3.3,0h11.8a2.86,2.86,0,0,0,2.8-2.8V258.3a3.28,3.28,0,0,1,.8-2.6h0a2.73,2.73,0,0,1,1.3-.7v19.3h0a2.52,2.52,0,0,0,.6,1.7h0c.8.8,1.6,1.7,2.4,2.5a2.87,2.87,0,0,0,1.8.7h11.6a2.79,2.79,0,0,0,2.7-2.2,20.3,20.3,0,0,0,4.9,1.7h0a36.81,36.81,0,0,0,9.3,1q7.65,0,12.3-3.3h0a11.62,11.62,0,0,0,5-9.9,11.32,11.32,0,0,0-3.1-8.4Z" transform="translate(-1 -201.3)"/><path class="a938ae78-79f6-4e88-bca4-dfef07a33854" d="M129.5,228.2H141l-16.7,46.6h-9.7l-9.8-27.9-10,27.9H85L68.4,228.2H80.7l9.7,29.5,10.5-29.5h8.4l10,30.1ZM171.7,245c1.9,2.3,2.9,5.9,2.9,10.5v19.3H162.8V256.1a7.19,7.19,0,0,0-1-4.3h0a3.7,3.7,0,0,0-3.1-1.3,5.51,5.51,0,0,0-4.2,1.7h0a5.89,5.89,0,0,0-1.5,4.5v18.1H141.2V228.2H153v18h0a11.61,11.61,0,0,1,4.4-3.5h0a12.86,12.86,0,0,1,5.8-1.2c3.7,0,6.6,1.2,8.5,3.5Zm13.6,28.2h0a15.56,15.56,0,0,1-6.3-5.9,17.91,17.91,0,0,1-2.2-9,17.3,17.3,0,0,1,2.2-8.9h0a15,15,0,0,1,6.3-5.9h0a23.06,23.06,0,0,1,18.9,0h0a14.92,14.92,0,0,1,6.3,5.9,19.51,19.51,0,0,1,0,18h0a15,15,0,0,1-6.3,5.9h0a22.68,22.68,0,0,1-18.9-.1Zm15.8-14.8c0-5.4-2.1-8.2-6.3-8.2s-6.3,2.7-6.3,8.2,2.1,8.2,6.3,8.2S201.1,263.8,201.1,258.4Zm14.1,16.5V228.3H227v46.6Zm46.6-14.1H241.7a7,7,0,0,0,2.3,4.6,8.36,8.36,0,0,0,5.1,1.4h0a16.81,16.81,0,0,0,9.2-3l3,7.7h0a18.82,18.82,0,0,1-5.9,2.8h0a22.59,22.59,0,0,1-6.9,1h0a21.14,21.14,0,0,1-9.8-2.1h0a14.37,14.37,0,0,1-6.3-5.9,17.66,17.66,0,0,1-2.2-9h0a17.87,17.87,0,0,1,2.1-8.8h0a14.22,14.22,0,0,1,5.9-6h0a16.74,16.74,0,0,1,8.4-2.2q7.05,0,11.1,4.5c2.7,3,4.1,7,4.1,12.2Zm-20.2-5.5H252c-.3-3.9-2-5.9-5-5.9-3.2,0-5,2-5.4,5.9Zm28.5,19.1h0a20.06,20.06,0,0,1-6.7-2.9l3-8a23,23,0,0,0,6,2.7,23.82,23.82,0,0,0,6.5,1h0a5.41,5.41,0,0,0,3-.6h0a1.75,1.75,0,0,0,1-1.5h0a1.44,1.44,0,0,0-.8-1.3,11.24,11.24,0,0,0-3.1-1l-5.2-1.2q-4.95-1.2-7.2-3.3a8.4,8.4,0,0,1-2.2-6.2h0a8.37,8.37,0,0,1,1.9-5.5h0a11.76,11.76,0,0,1,5.2-3.8h0a19.63,19.63,0,0,1,7.6-1.3h0a23.7,23.7,0,0,1,7,1,22.42,22.42,0,0,1,6.3,2.9l-3.1,7.7h0a28.89,28.89,0,0,0-5.3-2.6h0a17,17,0,0,0-5-.9,5.41,5.41,0,0,0-3,.6h0a1.76,1.76,0,0,0-1,1.7h0a1.52,1.52,0,0,0,.6,1.1,6.31,6.31,0,0,0,2.3.8l5.5,1.3c3.4.8,5.9,1.9,7.5,3.5a9.64,9.64,0,0,1-1.6,14c-2.6,1.9-6.1,2.8-10.6,2.8h0a36.66,36.66,0,0,1-8.6-1Zm52.2-29.3c2.4,2.4,3.7,6,3.7,11v18.7H315v-4.5h0a8.21,8.21,0,0,1-3.1,3.8h0a9.59,9.59,0,0,1-5.2,1.3h0a13,13,0,0,1-6.1-1.4h0a11.2,11.2,0,0,1-4.3-3.8,9.61,9.61,0,0,1-1.5-5.4h0a8.74,8.74,0,0,1,1.8-5.6,10.3,10.3,0,0,1,5.8-3h0a47.86,47.86,0,0,1,10.7-.9h1.8v-.8c0-1.6-.3-2.8-1.1-3.4a6.66,6.66,0,0,0-4-1h0a18.31,18.31,0,0,0-5.2.9h0a24.52,24.52,0,0,0-5.5,2.3l-3-7.7h0a29.44,29.44,0,0,1,7.1-2.9h0a30.13,30.13,0,0,1,7.8-1.2c5.1,0,8.9,1.2,11.3,3.6Zm-9,20.8h0a6.13,6.13,0,0,0,1.5-4.3v-.8h-1a16.42,16.42,0,0,0-6,.8h0a2.58,2.58,0,0,0-1.8,2.5h0a3.42,3.42,0,0,0,3.4,3.5h0a6.56,6.56,0,0,0,3.9-1.7Zm15.8,9V228.3h11.8v46.6Zm45.8-14.1H354.8a7,7,0,0,0,2.3,4.6,8.36,8.36,0,0,0,5.1,1.4h0a16.81,16.81,0,0,0,9.2-3l3,7.7h0a18.82,18.82,0,0,1-5.9,2.8h0a22.59,22.59,0,0,1-6.9,1h0a22.37,22.37,0,0,1-9.8-2h0a14.37,14.37,0,0,1-6.3-5.9h0a18.73,18.73,0,0,1-2.2-9h0a17.87,17.87,0,0,1,2.1-8.8h0a14.57,14.57,0,0,1,5.8-6h0a16.74,16.74,0,0,1,8.4-2.2q7,0,11.1,4.5c2.8,3,4.1,7,4.1,12.2Zm-20.2-5.5h10.4c-.3-3.9-2-5.9-5-5.9s-4.9,2-5.4,5.9Zm23.5-27.1h22.6c5.2,0,9.2,1.3,12.1,4s4.3,6.3,4.3,11-1.5,8.3-4.3,10.9-6.9,4-12,3.9H390.5v16.9H378.3l-.1-46.7Zm20.9,20.7a7.84,7.84,0,0,0,5-1.4,5.65,5.65,0,0,0,1.6-4.3,5.5,5.5,0,0,0-1.6-4.3c-1.1-1-2.7-1.4-5-1.4h-8.7v11.4Zm19.3-22.8h12.3v10.7H418.4Zm.3,48.8V242.4h11.8v32.5ZM464.4,245c1.9,2.3,2.9,5.9,2.9,10.5v19.3H455.5V256.1a7.19,7.19,0,0,0-1-4.3h0a3.7,3.7,0,0,0-3.1-1.3,5.51,5.51,0,0,0-4.2,1.7h0a5.89,5.89,0,0,0-1.5,4.5v18.1H433.9V242.3h11.4v4.4h0a10.11,10.11,0,0,1,4.4-3.8h0a13.8,13.8,0,0,1,6-1.3c3.9-.1,6.7,1.1,8.7,3.4Zm11.1,29.4h0a20.06,20.06,0,0,1-6.7-2.9l3-8a23,23,0,0,0,6,2.7,23.82,23.82,0,0,0,6.5,1h0a5.41,5.41,0,0,0,3-.6h0a1.75,1.75,0,0,0,1-1.5h0a1.44,1.44,0,0,0-.8-1.3h0a11.24,11.24,0,0,0-3.1-1l-5.2-1.2q-4.95-1.2-7.2-3.3a8.4,8.4,0,0,1-2.2-6.2,8.86,8.86,0,0,1,1.8-5.5h0a11.76,11.76,0,0,1,5.2-3.8h0a19.63,19.63,0,0,1,7.6-1.3h0a23.7,23.7,0,0,1,7,1,21.2,21.2,0,0,1,6.3,2.9l-3.1,7.7h0a28.89,28.89,0,0,0-5.3-2.6h0a14.4,14.4,0,0,0-5.1-.9h0a5.41,5.41,0,0,0-3,.6h0a1.62,1.62,0,0,0-1,1.7h0a1.23,1.23,0,0,0,.7,1.1h0a6.31,6.31,0,0,0,2.3.8l5.5,1.3c3.4.8,5.9,1.9,7.5,3.5a9.64,9.64,0,0,1-1.6,14c-2.6,1.9-6.1,2.8-10.6,2.8h0a34.11,34.11,0,0,1-8.5-1Z" transform="translate(-1 -201.3)"/><path class="a2e2ebd2-2539-46e4-b5c1-099adf8cd5f1" d="M61.8,230.8A7,7,0,0,1,63,224V207c-16.6,1.6-48.1,8.6-56,10.4a2.46,2.46,0,0,0-1.8,2.3v50S44,260.6,63,258.8V234.2ZM15,225.3l.8-4,1.2,3.9,4.1-.5L17.9,227l1.7,3.8-3.3-2.5-3.1,2.8,1.3-3.9-3.6-2Zm4.6,35.8-3.3-2.4-3.1,2.8,1.3-3.9-3.6-2,4.1.1.8-4,1.2,3.9,4.1-.5-3.3,2.4Zm-1.7-18.9,1.7,3.8-3.3-2.5-3.1,2.8,1.3-3.9-3.5-2,4.1.1.8-4,1.2,3.9,4.1-.5Zm19.6,15.1-3.3-2.4-3.1,2.8,1.3-3.9-3.6-2,4.1.1.8-4,1.2,3.9,4.1-.4-3.3,2.4Zm-1.7-19,1.7,3.8-3.3-2.4-3.1,2.8,1.3-3.9-3.6-2,4.1.1.8-4,1.2,3.9,4.1-.5Zm0-15.2,1.7,3.8-3.3-2.5-3.1,2.8,1.3-3.9-3.6-2,4.1.1.8-4,1.2,3.9,4.1-.5Zm19.6,30.4-3.3-2.4-3,2.8,1.4-3.9-3.6-2,4.1.1.8-4L53,248l4-.5-3.3,2.4Zm-1.6-19,1.7,3.8-3.3-2.4-3,2.8,1.4-3.9-3.6-2,4.1.1.8-4,1.2,3.9,4-.5Zm0-15.2,1.7,3.8-3.3-2.4-3,2.8,1.4-3.9-3.6-2,4.1.1.8-4,1.2,3.9,4-.5Z" transform="translate(-1 -201.3)"/><path class="a938ae78-79f6-4e88-bca4-dfef07a33854" d="M75.2,268.4H71.8l-5.2.3L63,269c-19,1.8-57.8,10.9-57.8,10.9v10.5s38.1-8.9,57.2-10.9c1.4-.1,2.8-.3,4.1-.4l8.2-.3a28.34,28.34,0,0,1,4.8.5,11.78,11.78,0,0,1-1.1-1.9Z" transform="translate(-1 -201.3)"/><path class="a938ae78-79f6-4e88-bca4-dfef07a33854" d="M63,238.1c.5,0,.9-.1,1.4-.1L63,234.2Z" transform="translate(-1 -201.3)"/><polygon class="a938ae78-79f6-4e88-bca4-dfef07a33854" points="65.1 57.2 70.6 57 66.9 46.7 65.8 46.8 62 47.1 62 57.5 65.1 57.2"/><path class="a938ae78-79f6-4e88-bca4-dfef07a33854" d="M109.2,279.3a1.56,1.56,0,0,1-.6-.8L107,283a7.15,7.15,0,0,1-6.6,4.6H90.6a7.49,7.49,0,0,1-4.5-1.6,36.47,36.47,0,0,1-2.9-2.9v.1a38.23,38.23,0,0,1,.3,5.8,39.08,39.08,0,0,1-.3,4.9l10.6-3.3,3.2-1c6.4-2,12.1-3.6,17.4-5C112.5,282.8,109.6,279.9,109.2,279.3Z" transform="translate(-1 -201.3)"/><path class="a938ae78-79f6-4e88-bca4-dfef07a33854" d="M155.9,205.6c-5.3-.2-22.7.4-57.9,11.3L88,220c-1.7.5-3.1,1-4.4,1.3,0-1.3,0-2.6-.1-3.7a49.24,49.24,0,0,0-.4-6.9,4.82,4.82,0,0,0-1.7-2.9c-1.3-1.2-4.5-1.5-9.2-1.4l-5.2.3-4,.3v10.4c1.2-.1,2.4-.3,3.5-.3l8.2-.3c3.3.1,5.8.5,6.8,1.5a5.75,5.75,0,0,1,1.7,2.9c0,.3.1.5.1.8a5.86,5.86,0,0,1,1.9,1.3l2.6,2.6,2.8,2.8.6.6,1.9-.6.9-2.6a7,7,0,0,1,6.7-4.6h8.4a7.06,7.06,0,0,1,4.2,1.4c32.1-8.5,44.5-6.8,44.5-6.8v-8.6A1.9,1.9,0,0,0,155.9,205.6Z" transform="translate(-1 -201.3)"/><path class="a938ae78-79f6-4e88-bca4-dfef07a33854" d="M120.9,231.1Z" transform="translate(-1 -201.3)"/></svg>