<?xml version="1.0" encoding="utf-8"?>
<!-- Generator: Adobe Illustrator 25.4.1, SVG Export Plug-In . SVG Version: 6.00 Build 0)  -->
<svg version="1.1" id="Layer_1" xmlns="http://www.w3.org/2000/svg" xmlns:xlink="http://www.w3.org/1999/xlink" x="0px" y="0px"
	 viewBox="0 0 512 512" style="enable-background:new 0 0 512 512;" xml:space="preserve">
<style type="text/css">
	.st0{fill:#FFFFFF;}
	.st1{fill:#FF0000;}
	.st2{opacity:0.25;fill:#34343F;enable-background:new    ;}
</style>
<path d="M508.6,284.4c1.4-2,2.2-4.6,2.2-7c0.1-2.8-1-5.5-2.8-7.6l-4.6-5.8c-0.9-1.2-2.1-2.2-3.3-3c-2.2-1.3-4.7-2.4-7.2-3
	c-2.6-0.6-5.3-1-8.1-1c-3.7-0.1-7.4,0.6-10.8,2c-2.7,1.1-5.1,2.7-7.1,4.8c0,0-0.3-0.5-0.5-0.6c-2.4-2.9-6.7-6.3-14.7-6.3
	c-0.6,0-1.3,0-1.9,0.1l-0.2-0.2c1.7-0.2,3.3-0.5,4.9-0.9c2.5-0.6,4.9-1.4,7.3-2.6l0.2-0.1c3.9-2,6.3-5.9,6.3-10.3
	c0-2.1-0.6-4.3-1.6-6.2c1.2-1.8,1.7-3.9,1.7-6c0.1-4.4-0.9-8.6-2.8-12.5c-0.8-1.5-1.7-2.9-2.9-4.2c-0.2-0.2-0.4-0.5-0.6-0.7
	s-0.4-0.5-0.6-0.7s-0.4-0.5-0.6-0.7c-0.2-0.2-0.4-0.5-0.6-0.7c-0.2-0.2-0.4-0.5-0.6-0.7s-0.4-0.5-0.6-0.7s-0.4-0.5-0.6-0.7
	c-0.2-0.2-0.4-0.5-0.6-0.7c-1.7-2.2-3.8-4-6.2-5.4c-3.7-2.1-7.9-3.2-12.2-3.1c-3.3,0-6.7,0.6-9.7,1.8c-0.3-2.1-1.2-4.2-2.6-5.9
	c-0.2-0.2-4.7-5.9-4.8-6c-0.6-0.7-1.2-1.3-1.8-2c-5.1-4-12.4-4-17.6,0c-2.9,2.4-4.4,5.9-4.3,9.6v5.8c-3.6-2.3-8.2-3.4-13.9-3.4
	c-3,0-6,0.3-9,1c-2.9,0.6-5.5,1.4-8.1,2.7h-0.1l-0.1,0.1c-1,0.6-1.8,1.2-2.6,1.9c-0.6-0.6-1.3-1.1-2.1-1.6c-2.3-1.3-4.7-2.4-7.2-3
	c-2.6-0.7-5.3-1-8.1-1c-3.6,0-7.3,0.6-10.7,2.1c-3.2,1.3-6,3.3-8.2,6c-1.7-2-3.6-3.7-5.9-5c-3.7-2.1-7.9-3.2-12.1-3.2
	c-3.6,0-7.1,0.7-10.4,2.1c-0.2-2.3-1.2-4.4-2.7-6.3c-0.2-0.2-4.7-5.9-4.8-6c-0.6-0.7-1.2-1.3-1.9-2c-5.1-4-12.4-4-17.6,0
	c-2.9,2.4-4.4,5.9-4.3,9.6v7.4c-1-0.7-2.1-1.3-3.2-2c-8.5-4-18.4-4-26.9,0c-2.5,1.3-4.8,2.9-6.7,5l-1.3-1.7
	c-2.3-2.9-6.7-6.3-14.5-6.3h-0.2c-0.4-1.4-1.1-2.8-2.1-4c-0.2-0.2-4.7-5.9-4.8-6c-0.6-0.7-1.1-1.3-1.7-2c-2.5-2.1-5.6-3.2-8.9-3.2
	c-2.9,0-5.8,0.9-8.2,2.6c-4.4-3.3-10.5-3.6-15.1-0.5c-2.3,1.5-4,3.8-4.9,6.4l-2.6,7.4l-0.2-0.7c-0.6-1.5-1.3-2.9-2.3-4.2
	c-0.2-0.2-0.6-0.9-0.8-1c-0.1-0.2-3.9-4.8-4-5c-0.8-1.1-1.8-2.1-2.9-2.9c-2.1-1.5-4.7-2.3-7.3-2.2c-2.6,0-5.1,0.7-7.2,2.2
	c-2.3,1.5-4,3.7-4.9,6.3l-2.9,7.5l-0.3-1c-0.6-1.5-1.3-2.9-2.3-4c-0.2-0.2-4.7-5.9-4.8-6c-0.9-1.2-2-2.2-3.3-3
	c-3.9-2.4-8.5-2.7-12.5-1c-10-4.7-21.2-7.3-33-7.3C36,178,1,212.9,1,256c0,43.1,34.9,78,78,78c21.2,0,40.4-8.5,54.4-22.2
	c5.1,2.4,11.2,1.6,15.7-2.2c1.3-1.3,2.4-2.9,3-4.5l0.3,0.3c0.2,0.2,0.4,0.5,0.6,0.7s0.4,0.5,0.6,0.7s0.4,0.5,0.6,0.7
	s0.4,0.5,0.6,0.7c0.6,0.8,1.3,1.5,2,2.1c5.2,4,12.4,4,17.6,0c2-1.6,4.4-4.6,4.4-9.7v-3.2c0.2,0.2,0.3,0.6,0.5,0.8
	c0.5,0.7,1,1.4,1.5,2.1c0.2,0.2,0.4,0.5,0.6,0.7s0.4,0.5,0.6,0.7s0.4,0.5,0.6,0.7s0.4,0.5,0.6,0.7s0.4,0.5,0.6,0.7s0.4,0.5,0.6,0.7
	s0.4,0.5,0.6,0.7s0.4,0.5,0.6,0.7c1.7,2.2,3.9,4,6.4,5.1c3,1.5,6.3,2.2,9.7,2.2c2.9,0.1,5.8-0.6,8.4-2c2.1,1.2,4.4,1.8,6.8,1.8
	c3.4,0.1,6.7-1.1,9.2-3.4c0.5-0.5,1-1,1.3-1.6c0.7,0.6,1.4,1.2,2.2,1.7c6.4,4.1,14.5,4.6,21.4,1.3l0.3-0.2c2.2,1.4,4.9,2.2,7.6,2.1
	c2.9,0.1,5.9-0.9,8.2-2.6c5,3.4,11.6,3.4,16.6,0c2.4,1.7,5.3,2.6,8.3,2.6c3.4,0.1,6.7-1.1,9.3-3.3c1-1,1.9-2.1,2.5-3.4l0.2,0.2
	c0.2,0.2,0.4,0.5,0.6,0.7s0.4,0.5,0.6,0.7c0.5,0.6,1,1.2,1.5,1.7c2.5,2.2,5.9,3.5,9.3,3.3c0.6,0,1.3-0.1,2-0.2
	c0.2,0.2,0.3,0.5,0.6,0.6c0.2,0.2,0.4,0.5,0.6,0.7s0.4,0.5,0.6,0.7s0.4,0.5,0.6,0.7s0.4,0.5,0.6,0.7s0.4,0.5,0.6,0.7
	s0.4,0.5,0.6,0.7s0.4,0.5,0.6,0.7s0.4,0.5,0.6,0.7c1,1.3,2.4,2.5,3.9,3.3c2.5,1.3,5.1,2.3,7.9,2.9c2.9,0.6,5.9,0.9,9,0.9
	c8.5,0,15.3-2.1,20-6.2c2.6-2.2,4.7-5.1,5.9-8.3c1.9,0.9,4,1.3,6.1,1.3c3.6,0.1,7.1-1.2,9.6-3.7s4-6,3.8-9.6v-5.8h4.8
	c3.2,0,6.3-0.4,9.3-1.3v1.3c-0.1,2.9,0.9,5.9,2.8,8.1c0.2,0.2,4.7,5.9,4.8,6c0.6,0.7,1.2,1.4,1.9,2c5.1,3.9,12.2,3.9,17.4,0.1
	c5.3,4,12.7,3.8,17.8-0.5c1.1-1,2-2.2,2.6-3.5c0.1,0.2,1.3,1.7,1.5,1.9c0.4,0.6,1,1.1,1.4,1.6c5.3,4.4,13,4.4,18.3,0l0.1-0.1
	c2.2,1.3,4.7,2.1,7.1,2.7c3.2,0.6,6.4,1,9.7,0.9c6.3,0,11.6-1.5,15.7-4.4c4.5-3.2,7.2-8.3,7.1-13.9
	C512.1,290.9,510.9,287.3,508.6,284.4z M8,256c0-39.2,31.8-71.1,71.1-71.1c9.6,0,18.7,1.9,27.1,5.3c-1.2,1.9-1.8,4.1-1.8,6.4
	c0,1.7,0.3,3.3,0.9,4.9v0.1v0.1l14.8,39.8c0,0.1,0,0.1,0.1,0.2h-3.4c-3.7,0-6.8,1-9,2.9c-1.8,1.5-4,4.4-4,9.2
	c-0.1,2.9,0.9,5.9,2.9,8.2c0.2,0.2,0.4,0.5,0.6,0.7s0.4,0.5,0.6,0.7c0.2,0.2,0.4,0.5,0.6,0.7s0.4,0.5,0.6,0.7s0.4,0.5,0.6,0.7
	c0.2,0.2,0.4,0.5,0.6,0.7s0.4,0.5,0.6,0.7c0.2,0.2,0.4,0.5,0.6,0.7c0.5,0.6,1,1.2,1.6,1.7c2.1,1.7,4.8,2.8,7.6,2.9v21.5
	c-0.1,3.2,1,6.3,3.2,8.8c0.2,0.2,0.4,0.5,0.6,0.7c0.2,0.2,0.4,0.5,0.6,0.7s0.4,0.5,0.6,0.7c0.2,0.2,0.4,0.5,0.6,0.7
	c0.2,0.2,0.4,0.5,0.6,0.7s0.4,0.5,0.6,0.7c0.2,0.2,0.4,0.5,0.6,0.7c0,0,0,0,0,0c-12.8,12.2-30,19.7-49,19.7
	C39.7,327.1,8,295.2,8,256z M508.4,284.8c0-0.1,0.1-0.1,0.1-0.2l0.3,0.7L508.4,284.8z"/>
<path class="st0" d="M502.6,283.3c-0.1-0.1-2.6-2.6-2.7-2.7l0,0c1.1-0.4,2-1.1,2.7-2.1l0,0c1.1-1.4,1.7-3.2,1.7-5.1l0,0
	c0.1-2.1-0.7-4.1-2.3-5.5l-2.1-2.2c-0.5-0.6-1.1-1-1.7-1.3c-2-1.2-4-2.1-6.3-2.6c-2.3-0.6-4.7-0.9-7.1-0.9c-3.2-0.1-6.3,0.6-9.2,1.7
	l0,0c-2.7,1-5,2.8-6.8,5.1l0,0c-0.6,0.7-1,1.5-1.4,2.4c-0.4-0.6-0.8-1.2-1.2-1.7c-0.3-0.4-3.3-3.4-3.4-3.5c-2.6-2.6-6.2-4-10.9-4
	l0,0c-2.7,0-5.4,0.6-7.8,1.7l0,0c-1,0.5-1.8,1-2.6,1.7l-1-1c-1.7-1.5-4-2.3-6.2-2.2l0,0c-2.4-0.1-4.8,0.7-6.5,2.3l0,0
	c-0.8,0.7-1.4,1.5-1.9,2.5c-0.1-0.1-2.5-2.5-2.6-2.6l0,0c1.2-0.4,2.3-1,3.2-1.8l0,0c1.8-1.7,2.9-4,2.9-6.5l0,0
	c0.1-2.3-0.9-4.5-2.5-6.1c-0.1-0.1-2.8-2.8-3.1-3l0,0c-0.3-0.2-0.6-0.6-1-0.7l0,0c0.8-1.3,1.2-2.9,1.1-4.5v-1.3l0,0
	c0.5,0.6,1,1.2,1.6,1.7l0.3,0.3l0.3,0.3l0.3,0.3l0.3,0.3c0.1,0.1,0.2,0.2,0.3,0.3c0.1,0.1,0.2,0.2,0.3,0.3c0.1,0.1,0.2,0.2,0.3,0.3
	c0.1,0.1,0.2,0.2,0.3,0.3l0,0c1.4,1.4,3,2.5,4.8,3.5l0,0c3.6,1.7,7.6,2.6,11.6,2.5l0,0c2.3,0,4.6-0.3,6.9-0.9l0,0
	c2.2-0.6,4.4-1.3,6.4-2.3h0.1l0,0c2.6-1.3,4.3-3.9,4.3-6.8l0,0c0.1-1.8-0.5-3.6-1.6-5.1c-0.2-0.3-0.5-0.6-0.8-0.8
	c-0.1-0.1-0.2-0.2-0.3-0.3c-0.1-0.1-0.2-0.2-0.3-0.3l-0.1-0.1l0,0c0.7-0.3,1.3-0.8,1.8-1.3l0,0c1-1.3,1.5-2.8,1.4-4.4l0,0
	c0.1-3.7-0.7-7.4-2.4-10.7l0,0c-0.8-1.7-1.9-3.1-3.2-4.4l-0.3-0.3l-0.3-0.3l-0.3-0.3l-0.3-0.3c-0.1-0.1-0.2-0.2-0.3-0.3l-0.3-0.3
	c-0.1-0.1-0.2-0.2-0.3-0.3l-0.3-0.3c-1.2-1.3-2.5-2.3-4-3.2c-3.1-1.7-6.7-2.6-10.2-2.5c-3.7-0.1-7.4,0.9-10.7,2.7l0,0
	c-2.1,1.2-4,2.8-5.5,4.7V200l0,0c0.1-2.4-0.8-4.6-2.5-6.3c-0.1-0.1-2.8-2.8-2.9-2.9c-3.7-2.9-8.9-2.9-12.6,0l0,0
	c-1.9,1.6-2.9,4-2.9,6.6v14.8c-0.3-0.4-0.6-0.7-1-1.1l-2.6-2.6c-3.2-3.2-7.9-4.8-14.2-4.8l0,0c-2.8,0-5.5,0.3-8.2,0.9l0,0
	c-2.5,0.5-4.8,1.3-7.1,2.4h-0.1l0,0c-1.3,0.6-2.3,1.6-3.1,2.7l0,0c-0.3,0.5-0.6,1-1,1.6c-0.1-0.2-2.4-2.4-2.5-2.5
	c-0.6-0.6-1.3-1.2-2.1-1.7c-2-1.2-4.1-2-6.3-2.5c-2.3-0.6-4.7-0.9-7.1-0.9c-3.2-0.1-6.3,0.5-9.3,1.7l0,0c-2.7,1-5.1,2.8-6.8,5.1l0,0
	c-1,1.2-1.7,2.6-2.1,4.1l0,0c-0.6-1-1.4-2-2.3-2.9l-2.3-2.3c-1.2-1.3-2.5-2.3-4-3.2c-3.1-1.7-6.7-2.6-10.2-2.5l0,0
	c-3.7-0.1-7.4,0.9-10.6,2.7l0,0c-2.5,1.3-4.5,3.2-6.1,5.5v-12l0,0c0.1-2.4-0.8-4.6-2.5-6.3c-0.1-0.1-2.8-2.8-2.9-2.9l0,0
	c-3.7-2.9-9-2.9-12.7,0l0,0c-1.9,1.6-2.9,4-2.9,6.6v16.6c-0.6-0.6-4-4.1-4-4.2l0,0c-1.4-1.4-3.1-2.5-4.8-3.5
	c-7.4-3.4-15.9-3.4-23.3,0l0,0c-3.3,1.7-6.1,4.3-8,7.5c-0.2,0.2-0.2,0.5-0.4,0.6l0,0c-0.5-1.2-1.1-2.3-1.9-3.2
	c-0.3-0.4-0.7-0.9-1.1-1.2l-2.3-2.3c-2.5-2.6-6.1-3.9-10.6-3.9c-2.1,0-4.3,0.3-6.3,1v-5.2l0,0c0.1-2.1-0.8-4.2-2.3-5.7
	c-0.1-0.1-2.8-2.8-2.9-2.9l0,0c-1.7-1.5-4-2.3-6.3-2.2l0,0c-2.4-0.1-4.8,0.7-6.6,2.3l0,0c-0.6,0.5-1.1,1.1-1.5,1.7
	c-0.1-0.1-1.8-1.9-2.1-2.1l0,0c-1.7-1.4-3.7-2.2-5.9-2.1c-1.8,0-3.6,0.6-5.1,1.5l0,0c-1.6,1-2.8,2.6-3.4,4.4l-7.1,19.9l-5.9-17.2
	c-0.5-1.4-1.3-2.7-2.4-3.7c-0.1-0.1-3.2-3.1-3.6-3.4c-1.5-1-3.2-1.6-5.1-1.6s-3.6,0.6-5.1,1.5l0,0c-1.6,1-2.8,2.6-3.4,4.4l-7.2,19.6
	l-5.8-17c-0.4-1.3-1.2-2.5-2.1-3.4c-0.1-0.1-2.2-2.2-2.3-2.3c-0.5-0.6-1.1-1-1.7-1.4l0,0c-1.6-1-3.3-1.4-5.1-1.4
	c-2.2,0-4.4,0.7-6.2,2.1l0,0c-1.9,1.5-3,3.9-2.9,6.3l0,0c0,1.3,0.2,2.5,0.6,3.7l14.8,39.8c0.4,1.3,1.2,2.4,2.1,3.3l2.1,2.1h-10.8
	c-2.8,0-5,0.6-6.5,1.9c-1.7,1.4-2.5,3.5-2.5,6.2s0.9,4.8,2.5,6.2l0.2,0.2c0.1,0.1,0.2,0.2,0.2,0.2c0.1,0.1,0.2,0.2,0.2,0.2l0,0
	c0.1,0.1,0.2,0.2,0.3,0.2l0.2,0.2c0.1,0.1,0.2,0.2,0.2,0.2c0.1,0.1,0.2,0.2,0.3,0.2l0,0c0.1,0.1,0.2,0.2,0.2,0.2l0.3,0.2
	c1.5,1.3,3.7,2,6.5,2h5v29.3l0,0c-0.1,2.5,0.9,5,2.7,6.7l0.2,0.2l0.2,0.2c0.1,0.1,0.1,0.1,0.2,0.2l0.2,0.2l0.2,0.2l0.2,0.2l0.2,0.2
	l0,0c0,0.1,0.1,0.1,0.2,0.2l0.2,0.2c0.1,0.1,0.1,0.1,0.2,0.2c0.1,0.1,0.1,0.1,0.2,0.2l0.2,0.2l0.2,0.2l0.2,0.2l0.2,0.2l0.2,0.2
	l0.2,0.2c0.1,0.1,0.1,0.1,0.2,0.2c3.9,3.4,9.7,3.4,13.5,0l0,0c1.8-1.7,2.8-4.2,2.7-6.7V265h6l0,0c-0.9,1.3-1.3,2.9-1.3,4.6v25.3l0,0
	c-0.2,2.4,0.8,4.7,2.5,6.3c0.1,0.1,0.2,0.2,0.3,0.3c0.1,0.1,0.2,0.2,0.3,0.3l0.3,0.2c0.1,0.1,0.2,0.2,0.3,0.3
	c0.1,0.1,0.2,0.2,0.3,0.3c0.1,0.1,0.2,0.2,0.3,0.3l0.3,0.2c0.1,0.1,0.2,0.2,0.3,0.3l0,0c0.2,0.2,0.4,0.4,0.6,0.6
	c3.7,2.8,8.9,2.8,12.7,0c1.3-1,2.9-3,2.9-6.6v-12.5l0,0c-0.1-1.2,0.2-2.4,1-3.3c0.6-0.7,1.8-1.2,3.5-1.3l2.1-0.2
	c2.9-0.3,5-1,6.3-2.3l0.2,0.2c0.1,0.1,0.2,0.2,0.3,0.3c0.1,0.1,0.2,0.2,0.3,0.3l0.3,0.3l0.1,0.1l0,0c-1.3,0.6-2.4,1.5-3.3,2.5l0,0
	c-1.8,2.2-2.8,5.1-2.7,7.9l0,0c-0.1,3.8,1.5,7.4,4.2,10l0.3,0.3l0.3,0.3c0.1,0.1,0.2,0.2,0.3,0.3c0.1,0.1,0.2,0.2,0.3,0.3l0.3,0.3
	l0.3,0.3l0.3,0.2c0.1,0.1,0.2,0.2,0.3,0.3l0,0c1.1,1.2,2.5,2.1,4,2.9c2.5,1.2,5.1,1.8,7.9,1.7l0,0c2.5,0.1,5-0.6,7.1-1.8l0,0
	c0.5-0.3,1-0.6,1.4-1v0.1l0.1,0.1c0.1,0.1,0.2,0.2,0.2,0.2l0.1,0.1c0.1,0.1,0.2,0.2,0.2,0.2c1.7,1.4,3.8,2.2,5.9,2.1l0,0
	c2.4,0.2,4.7-0.6,6.5-2.2l0,0c1.6-1.5,2.5-3.6,2.5-5.8c0.3,0.3,0.6,0.7,1,1l0.3,0.3l0.3,0.3l0.3,0.3l0.3,0.3l0.3,0.3l0.3,0.3
	l0.3,0.2c0.1,0.1,0.2,0.2,0.3,0.3l0,0c5.4,5.1,13.4,6.5,20.1,3.2l0,0c0.9-0.4,1.7-1,2.5-1.5l0.2,0.2c0.1,0.1,0.2,0.2,0.3,0.3
	c0.1,0.1,0.4,0.4,0.6,0.6l0,0c3.8,2.8,9,2.7,12.6-0.2l0,0c0.6-0.6,1.1-1.2,1.5-1.9l0.2,0.2c0.1,0.1,0.2,0.2,0.3,0.3
	c0.1,0.1,0.2,0.2,0.3,0.3l0.3,0.3l0.3,0.2c0.1,0.1,0.2,0.2,0.3,0.3c0.2,0.2,0.4,0.4,0.6,0.6l0,0c3.7,2.8,8.9,2.8,12.7,0l0,0
	c0.7-0.6,1.3-1.3,1.7-2.1l0.2,0.2l0.1,0.1c0.1,0.1,0.2,0.2,0.2,0.2l0.1,0.1l0.2,0.2l0.1,0.1l0.2,0.2l0.1,0.1l0.2,0.2l0.1,0.1
	c0.1,0.1,0.2,0.2,0.2,0.2l0,0l0.1,0.1l0.2,0.2l0,0c3.8,3.1,9.3,3.1,13.1,0l0,0c1.7-1.7,2.7-4,2.6-6.3v-14.6c-0.1-1.2,0.2-2.3,1-3.2
	l0,0c0.5-0.6,1.1-0.9,1.8-1c0,0.2,0,0.6,0,0.9v15.2l0,0c-0.1,2.4,0.9,4.7,2.6,6.3l0.1,0.1c0.1,0.1,0.1,0.2,0.2,0.2l0.1,0.1l0.2,0.2
	l0.1,0.1c0.1,0.1,0.1,0.2,0.2,0.2l0.1,0.1l0.2,0.2l0.1,0.1c0.1,0.1,0.1,0.2,0.2,0.2l0.1,0.1l0.2,0.2l0.1,0.1
	c0.1,0.1,0.1,0.2,0.2,0.2l0.1,0.1l0.2,0.2l0.1,0.1c0.1,0.1,0.1,0.2,0.2,0.2c3.8,3.1,9.3,3.1,13.1,0l0,0c-0.3,1-0.5,2-0.5,3l0,0
	c0,1.4,0.4,2.9,1.2,4.1c0.4,0.6,0.9,1.2,1.4,1.7c0.1,0.1,0.2,0.2,0.3,0.3l0.3,0.3l0.3,0.3c0.1,0.1,0.2,0.2,0.3,0.2
	c0.2,0.1,0.2,0.2,0.3,0.3l0.3,0.3l0.3,0.3c0.1,0.1,0.2,0.2,0.3,0.2c0.6,0.6,1.2,1,1.9,1.4c2.1,1.1,4.4,1.9,6.8,2.4l0,0
	c2.7,0.6,5.4,0.8,8.2,0.8c7.5,0,13.5-1.7,17.5-5.2c3.5-2.9,5.5-7.1,6.1-12.1c0,0.1,0.1,0.1,0.2,0.2l0.2,0.2l0.2,0.2
	c0.1,0.1,0.1,0.1,0.2,0.2l0.2,0.2l0.2,0.2l0.2,0.2l0.2,0.2l0.2,0.2l0.2,0.2l0.2,0.2c1.8,1.7,4.3,2.7,6.7,2.5l0,0
	c2.5,0.1,5-0.8,6.8-2.5l0,0c0.4-0.4,0.8-0.9,1.2-1.4l0,0c1-1.6,1.5-3.5,1.5-5.4V288h8.8l0,0c2.9,0,5.8-0.4,8.6-1.3l0,0
	c2.5-0.8,4.7-2.1,6.5-3.8c0.3-0.2,0.6-0.6,0.8-0.8v13.8l0,0c-0.1,2.3,0.8,4.6,2.5,6.2c0.1,0.1,2.8,2.8,3,2.9l0,0
	c3.7,2.8,8.9,2.8,12.6,0l0,0c0.9-0.7,1.6-1.7,2.1-2.7c0,0,2.4,2.4,2.5,2.5c3.8,3.1,9.3,3.1,13.1,0l0,0c1.7-1.7,2.7-4,2.6-6.3V284
	l0,0c-0.1-1.2,0.2-2.4,1-3.2l0,0c0.6-0.6,1.3-1,2-1c0,0.2,0,0.6,0,0.9v15.2l0,0c-0.1,2.4,0.9,4.7,2.6,6.3c0.1,0.1,2.5,2.5,2.6,2.6
	l0,0c3.8,3.1,9.3,3.1,13.1,0l0,0c0.9-0.8,1.5-1.7,1.9-2.8l0.7,0.7l0,0c0.4,0.4,0.9,0.8,1.4,1.1l0,0c2.1,1.3,4.4,2.1,6.9,2.6l0,0
	c2.9,0.6,5.9,0.8,8.8,0.8c5.5,0,10.1-1.3,13.5-3.6l0,0c3.6-2.4,5.6-6.4,5.5-10.7c-0.1-3.6-1.1-6.5-3.3-8.6L502.6,283.3z
	 M244.7,254.1v8.8c-0.2-0.1-0.4-0.2-0.6-0.3c-2.4-1.1-4.9-1.7-7.5-1.7c-3.4-0.1-6.8,0.9-9.7,2.7l0,0c-2.7,1.7-4.9,4.1-6.3,7l0,0
	c-0.6-0.8-1.1-1.6-1.8-2.3l-0.2-0.2l-0.1-0.1c-0.1-0.1-0.2-0.2-0.2-0.2l-0.1-0.1c-0.1-0.1-0.2-0.2-0.2-0.2l-0.1-0.1l-0.2-0.2
	l-0.1-0.1l-0.2-0.2l-0.1-0.1c-0.1-0.1-0.2-0.1-0.2-0.2l-0.1-0.1c-0.1-0.1-0.2-0.2-0.2-0.2l-0.1-0.1l-0.2-0.2l-0.1-0.1l-0.2-0.2
	l-0.1-0.1c-3.2-3.2-7.9-4.8-14.3-4.8l0,0c-2.8,0-5.5,0.3-8.2,0.9l0,0c-2.5,0.5-4.8,1.3-7.1,2.4h0.1l0,0c-0.5,0.2-0.9,0.6-1.3,0.9
	c-0.1-0.1-0.1-0.1-0.2-0.2l-0.2-0.1c-0.1-0.1-0.1-0.1-0.2-0.2l-0.2-0.1c-0.1-0.1-0.1-0.2-0.2-0.2l-0.2-0.1c-0.1-0.1-0.1-0.2-0.2-0.2
	l-0.1-0.1c-0.1-0.1-0.1-0.1-0.2-0.2l-0.2-0.1c-0.1-0.1-0.1-0.1-0.2-0.2l-0.2-0.1c-0.1-0.1-0.1-0.2-0.2-0.2l-0.2-0.1
	c-0.1-0.1-0.1-0.2-0.2-0.2l0,0c-1.4-1.3-3.2-1.9-5.1-1.9c-0.3,0-0.6,0-0.9,0l-1,0.1l0,0c-2.5,0.2-4.8,1-6.9,2.4l0,0
	c-0.4,0.2-0.8,0.5-1.1,0.8l-0.2-0.2l-0.1-0.1l-0.2-0.2h-0.1c-0.1-0.1-0.2-0.2-0.2-0.2h-0.1l-0.2-0.2c-1.2-1-2.6-1.7-4.1-2l0,0
	c0.7-1.3,1.1-2.9,1-4.4l0,0c0.1-2.2-0.7-4.3-2.2-5.9l-0.3-0.2c-0.1-0.1-0.2-0.2-0.3-0.3s-0.2-0.2-0.3-0.3s-0.2-0.2-0.3-0.3l-0.3-0.4
	l-0.3-0.2c-0.1-0.1-0.2-0.2-0.3-0.3s-0.2-0.2-0.3-0.3c-0.2-0.2-0.4-0.4-0.6-0.6c-1.5-1.3-3.7-1.9-6.5-1.9h-8.2l0,0
	c0.7-0.8,1.3-1.8,1.7-2.9l6.6-18l5.4,15.3l0,0c0.4,1.3,1.2,2.4,2.1,3.3l2.3,2.3c0.6,0.6,1.2,1.1,1.9,1.5c1.7,1,3.6,1.5,5.6,1.5
	s3.9-0.5,5.6-1.5l0,0c1.7-1,3.1-2.6,3.8-4.5l11-29.9v24.4l0,0c-0.1,2.4,0.9,4.7,2.6,6.3l2.6,2.6l0,0c3.8,3.1,9.3,3.1,13.1,0l0,0
	c1.7-1.7,2.7-4,2.6-6.3v-15.3l0,0c-0.1-1.2,0.3-2.4,1-3.2l0,0c0.6-0.6,1.3-1,2.1-1v16.1l0,0c-0.1,2.4,0.9,4.7,2.6,6.3l2.6,2.6l0,0
	c3.8,3.1,9.3,3.1,13.1,0l0,0c1.7-1.7,2.7-4,2.6-6.3v-2c0.6,0.9,1.3,1.7,2.1,2.4l2.3,2.3c1.4,1.4,3.1,2.5,4.8,3.5l0,0
	c1,0.6,2.1,1,3.2,1.3l0,0c-1.7,1.5-2.6,3.7-2.6,6L244.7,254.1z M261.1,248.9l-0.2-0.2l0.4-0.1C261.4,248.8,261.3,248.9,261.1,248.9
	L261.1,248.9L261.1,248.9L261.1,248.9z M364,248.6L364,248.6c-1.7,1.7-2.5,4.1-2.4,6.5v9.7l-0.2-0.1l-0.2-0.2l-0.2-0.1l-0.2-0.2l0,0
	c-0.1-0.1-0.1-0.1-0.2-0.2l-0.2-0.2l-0.2-0.2l-0.2-0.2l-0.2-0.1l-0.2-0.2l0,0c-1.7-1.6-4.1-2.5-6.5-2.4c-2.2-0.1-4.4,0.6-6.2,2.1
	l0,0c-0.4,0.3-0.8,0.7-1.1,1.1l0,0c-0.8-0.6-1.7-1.1-2.5-1.6c-2.5-1.2-5.1-1.7-7.8-1.7l0,0c-3.4-0.1-6.8,0.9-9.7,2.6l0,0
	c-2.5,1.6-4.7,3.7-6.2,6.3c-0.3-0.6-0.7-1.1-1.1-1.6s-0.8-0.9-1.2-1.3l-0.3-0.3l-0.3-0.3l-0.3-0.2c-0.1-0.1-0.2-0.2-0.3-0.3
	l-0.3-0.3l-0.3-0.3l-0.3-0.2l-0.3-0.2c-2.6-2.5-6.2-3.9-10.8-3.9l0,0c-2.7,0-5.4,0.6-7.8,1.7l0,0c-1,0.4-1.7,1-2.6,1.6l-0.1-0.1
	l-0.1-0.1l-0.2-0.2l-0.1-0.1l-0.2-0.2l-0.1-0.1l-0.2-0.2l0,0c-1.7-1.5-4-2.4-6.3-2.2c-2.4-0.1-4.8,0.7-6.6,2.3l0,0
	c-0.6,0.6-1.2,1.2-1.6,1.9c-0.1-0.1-0.1-0.1-0.2-0.2l-0.3-0.2c-0.1-0.1-0.2-0.2-0.3-0.3l-0.3-0.3c-0.1-0.1-0.2-0.2-0.3-0.3l-0.3-0.3
	c-0.2-0.2-0.3-0.3-0.5-0.5l0,0c1.2-0.4,2.3-1,3.2-1.8l0,0c3.6-3.4,3.8-9,0.4-12.7c-0.1-0.1-0.1-0.1-0.2-0.2l-0.3-0.2
	c-0.1-0.1-0.2-0.2-0.3-0.3c-0.1-0.1-0.2-0.2-0.3-0.3l-0.3-0.3l-0.3-0.2c-0.1-0.1-0.2-0.2-0.3-0.3h0.1l0,0c0.1,0.1,0.2,0.2,0.2,0.2
	c3.7,2.8,8.9,2.8,12.6,0c1.3-1,2.9-3,2.9-6.6v-2.3l0,0c0.6,1,1.4,1.8,2.3,2.6l2.3,2.3c1.4,1.4,3,2.5,4.8,3.5l0,0
	c3.6,1.7,7.6,2.6,11.6,2.5l0,0c2.3,0,4.6-0.3,6.9-1l0,0c2.2-0.6,4.4-1.3,6.4-2.3h0.1l0,0c1.2-0.6,2.2-1.5,3-2.6l1.2,1.2l0,0
	c0.5,0.5,1,0.9,1.6,1.2l0,0c2.1,1.3,4.3,2.1,6.7,2.6l0,0c2.9,0.6,5.9,0.8,8.8,0.8c5.5,0,10.1-1.3,13.5-3.6l0,0c1.7-1.2,3-2.7,4-4.4
	c0.3,0.3,3.2,3.2,3.2,3.3c0.6,0.6,1.3,1.2,2,1.7h-2.1l0,0c-2.4-0.2-4.8,0.7-6.5,2.4L364,248.6z"/>
<path class="st1" d="M387.3,221.8L387.3,221.8c-4-0.1-8,0.2-11.9,1c-2.9,0.7-5.1,1.8-6.4,3.3l0,0c-1.4,1.7-2.1,4-2,6.2l0,0
	c0,2.1,0.6,4.2,1.7,6s2.8,3.2,4.8,4.2l0,0c2.1,1,4.4,1.5,6.7,1.5l0,0c2.1,0.1,4-0.5,5.8-1.4l0,0c1.6-1,2.8-2.4,3.4-4.1l0,0
	c0,1.5,0.6,2.9,1.7,4l0,0c1.2,1,2.7,1.5,4.2,1.4l0,0c1.7,0.1,3.3-0.5,4.6-1.6l0,0c1.1-1.2,1.7-2.8,1.7-4.4v-15.4
	c0-5.5-1.3-9.4-4-12.1c-2.6-2.7-6.7-4-12.4-4l0,0c-2.5,0-5.1,0.2-7.6,0.8l0,0c-2.2,0.4-4.4,1.1-6.4,2.1l0,0c-0.9,0.4-1.6,1-2.1,1.8
	l0,0c-0.5,0.8-0.7,1.7-0.6,2.6l0,0c-0.1,1.3,0.3,2.5,1.1,3.4c0.7,0.9,1.8,1.3,2.9,1.3l0,0c1,0,1.9-0.2,2.9-0.6
	c3.9-1.3,6.8-2.1,8.8-2.1c1.8,0,3.2,0.4,4,1.1c0.8,0.7,1.2,2,1.2,3.7v0.9L387.3,221.8z M389.2,228.7c0.1,1.7-0.6,3.5-1.7,4.8l0,0
	c-1.1,1.2-2.7,1.9-4.4,1.9l0,0c-1,0-2.1-0.4-2.8-1.1l0,0c-0.7-0.7-1.1-1.7-1-2.8l0,0c-0.1-1.3,0.7-2.5,2-2.9
	c1.3-0.6,3.6-0.8,6.7-0.8h1.2L389.2,228.7L389.2,228.7z M242.5,241.7c6.7,3.1,14.3,3.1,20.9,0l0,0c2.9-1.4,5.3-3.7,6.9-6.6l0,0
	c1.7-3,2.5-6.5,2.5-10l0,0c0.1-3.5-0.8-6.9-2.5-9.9l0,0c-1.6-2.8-4-5.1-6.9-6.5c-6.7-3-14.3-3-20.9,0l0,0c-2.9,1.4-5.3,3.7-6.9,6.5
	l0,0c-1.7,3-2.5,6.4-2.5,9.9l0,0c-0.1,3.5,0.8,6.9,2.5,10l0,0C237.1,237.9,239.5,240.2,242.5,241.7L242.5,241.7z M253,216.2
	c4.7,0,7,3,7,9.1c0,6-2.3,9.1-7,9.1s-7-3-7-9.1S248.3,216.2,253,216.2L253,216.2z M282.6,243.9L282.6,243.9
	c-1.7,0.1-3.3-0.5-4.7-1.5c-1.3-1.1-2-2.8-1.9-4.5v-40.3l0,0c-0.2-1.7,0.6-3.4,1.9-4.5l0,0c2.8-2.1,6.5-2.1,9.3,0l0,0
	c1.3,1.1,2,2.9,1.9,4.5v40.3c0.1,1.7-0.6,3.4-1.9,4.5l0,0C285.9,243.4,284.3,244,282.6,243.9L282.6,243.9z M412.1,243.9L412.1,243.9
	c-1.7,0.1-3.3-0.5-4.7-1.5c-1.3-1.1-2-2.8-1.9-4.5v-40.3l0,0c-0.2-1.7,0.6-3.4,1.9-4.5l0,0c2.8-2.1,6.5-2.1,9.3,0l0,0
	c1.3,1.1,2,2.9,1.9,4.5v40.3c0.2,1.7-0.6,3.4-1.9,4.5l0,0C415.5,243.4,413.8,244,412.1,243.9L412.1,243.9z M327.8,236.7L327.8,236.7
	c0.1-1.3-0.3-2.5-1-3.5c-0.6-0.9-1.7-1.3-2.8-1.3l0,0c-0.6,0-1.3,0.1-2,0.3s-1.4,0.5-2.1,0.8l0,0c-1.1,0.4-2.3,0.8-3.4,1.1l0,0
	c-1.1,0.2-2.2,0.4-3.3,0.4c-2.3,0-4-0.5-5.2-1.5s-1.9-2.7-2.3-5.1H325l0,0c0.9,0.1,1.7-0.3,2.2-1l0,0c0.6-0.7,0.9-1.7,0.8-2.6l0,0
	c0.1-3.2-0.6-6.5-2.1-9.4c-1.3-2.6-3.4-4.8-5.9-6.3c-2.7-1.5-5.8-2.3-8.9-2.2c-3.2-0.1-6.5,0.8-9.3,2.4l0,0c-2.8,1.6-5,3.9-6.4,6.7
	l0,0c-1.6,3-2.4,6.3-2.3,9.7l0,0c-0.1,3.5,0.7,6.9,2.4,10c1.6,2.8,4,5.1,6.9,6.5c3.2,1.6,6.8,2.4,10.5,2.2l0,0
	c2.1,0,4.2-0.3,6.3-0.9l0,0c2.1-0.5,4-1.2,5.9-2.1l0,0c1.7-0.8,2.9-2.5,2.9-4.4L327.8,236.7z M307.4,217L307.4,217
	c1-1.1,2.5-1.7,4.1-1.7c3.4,0,5.2,2.1,5.5,6.4h-11.5l0,0C305.7,220,306.3,218.3,307.4,217L307.4,217z M222.9,243.9L222.9,243.9
	c-1.7,0.1-3.4-0.5-4.8-1.6c-1.2-1.1-1.8-2.8-1.7-4.4v-16.2c0-3.5-1.5-5.3-4.5-5.3l0,0c-1.7-0.1-3.5,0.6-4.7,1.9l0,0
	c-1.2,1.3-1.8,3.2-1.7,5v14.5c0.1,1.7-0.6,3.2-1.7,4.4l0,0c-2.8,2.1-6.7,2.1-9.5,0c-1.2-1.1-1.9-2.8-1.8-4.4v-40.5l0,0
	c-0.1-1.6,0.6-3.2,1.8-4.2l0,0c1.3-1.1,3.1-1.7,4.8-1.7l0,0c1.7-0.1,3.3,0.5,4.6,1.5l0,0c1.2,1,1.8,2.5,1.7,4.1v14.7l0,0
	c1.3-1.7,2.9-3,4.9-3.9l0,0c2.1-0.9,4.3-1.3,6.6-1.3c4.2,0,7.4,1.3,9.3,3.9c2.1,2.5,3.1,6.4,3.1,11.6v15.8c0.1,1.7-0.6,3.2-1.7,4.4
	l0,0C226.2,243.3,224.5,243.9,222.9,243.9L222.9,243.9z M363.8,232.3L363.8,232.3c0.1,3.4-1.6,6.6-4.4,8.6
	c-2.9,2.1-6.9,3.2-11.9,3.2l0,0c-2.8,0-5.5-0.2-8.2-0.7l0,0c-2.1-0.5-4.1-1.3-5.9-2.4l0,0c-0.7-0.4-1.3-1-1.6-1.7l0,0
	c-0.4-0.9-0.6-1.8-0.6-2.8l0,0c-0.1-1.2,0.3-2.4,1-3.2l0,0c0.6-0.8,1.7-1.3,2.7-1.3l0,0c0.7,0,1.3,0.1,2.1,0.2
	c0.8,0.2,1.6,0.5,2.4,0.9c1.6,0.6,2.9,1,4.1,1.3l0,0c1.5,0.3,3,0.5,4.6,0.5c1,0.1,2.1-0.2,3.1-0.6l0,0c0.6-0.2,1.1-0.9,1.1-1.6l0,0
	c0-0.5-0.2-1-0.6-1.3l0,0c-0.6-0.4-1.3-0.7-2.1-0.9c-1-0.2-2.8-0.6-5.2-1.1c-4.4-0.9-7.4-2.1-9.4-3.8c-1.9-1.7-2.9-4-2.9-7.1l0,0
	c0-2.2,0.7-4.4,2.1-6.1l0,0c1.5-1.9,3.5-3.3,5.7-4.3l0,0c2.6-1,5.4-1.6,8.2-1.5l0,0c2.1,0,4.3,0.2,6.4,0.8c1.9,0.5,3.8,1.3,5.5,2.3
	l0,0c1.5,0.9,2.4,2.5,2.3,4.3c0,1.3-0.3,2.5-1.1,3.4l0,0c-0.6,0.9-1.7,1.4-2.7,1.4c-1.6-0.1-3.2-0.5-4.5-1.3c-1-0.5-2.1-0.9-3.1-1.2
	s-2.1-0.4-3.2-0.4l0,0c-1-0.1-2,0.2-2.9,0.6l0,0c-0.6,0.2-1,0.9-1,1.6c0.1,0.9,0.6,1.6,1.4,1.8c1.8,0.6,3.7,1.2,5.7,1.4
	c4.8,0.8,8.1,2.1,10.1,3.8c1.9,1.7,2.9,4.1,2.8,7.4V232.3z M441.7,244L441.7,244c2.1,0,4.2-0.3,6.3-0.9l0,0c2.1-0.5,4-1.2,5.9-2.1
	l0,0c1.7-0.8,2.9-2.5,2.9-4.4l0,0c0.1-1.3-0.3-2.5-1.1-3.4c-0.6-0.9-1.7-1.3-2.8-1.3l0,0c-0.6,0-1.3,0.1-1.9,0.3
	c-0.7,0.2-1.4,0.5-2.1,0.8l0,0c-1.1,0.5-2.3,0.8-3.4,1.1l0,0c-1.1,0.2-2.2,0.4-3.3,0.4c-2.3,0-4-0.5-5.2-1.5s-1.9-2.7-2.3-5.1H454
	c0.9,0.1,1.7-0.3,2.2-1l0,0c0.6-0.7,0.9-1.7,0.8-2.6l0,0c0.1-3.2-0.6-6.5-2.1-9.4l0,0c-1.3-2.6-3.3-4.8-5.9-6.2
	c-2.7-1.5-5.8-2.3-8.9-2.2l0,0c-3.2-0.1-6.5,0.8-9.3,2.4l0,0c-2.8,1.6-5,3.9-6.5,6.7l0,0c-1.6,3-2.4,6.3-2.3,9.7l0,0
	c-0.1,3.5,0.7,6.9,2.4,10c1.6,2.8,4,5.1,6.9,6.5l0,0C434.4,243.3,438,244.1,441.7,244L441.7,244z M436.3,217L436.3,217
	c1-1.1,2.5-1.7,4-1.7c3.4,0,5.2,2.1,5.5,6.4h-11.5l0,0C434.5,220,435.1,218.4,436.3,217L436.3,217z M111.9,200L111.9,200
	c-0.3-0.9-0.6-1.8-0.6-2.8c-0.1-1.7,0.6-3.2,1.9-4.3l0,0c1.3-1,2.9-1.6,4.5-1.6l0,0c1.3,0,2.6,0.3,3.8,1l0,0
	c1.2,0.7,2.1,1.8,2.5,3.2l10.1,28.8l10.6-28.8l0,0c0.4-1.3,1.3-2.4,2.4-3.2l0,0c1-0.7,2.3-1.1,3.6-1.1l0,0c2.7-0.1,5.1,1.7,5.9,4.3
	l9.9,29.4l10.5-29.5l0,0c0.4-1.3,1.3-2.4,2.4-3.2l0,0c1-0.7,2.3-1.1,3.6-1.1l0,0c1.5,0,3,0.5,4.2,1.5s1.8,2.6,1.8,4.2l0,0
	c-0.1,1-0.2,2-0.6,2.9l-14.8,39.9l0,0c-0.5,1.3-1.4,2.5-2.7,3.2l0,0c-1.3,0.8-2.8,1.1-4.3,1.1l0,0c-1.5,0-2.9-0.4-4.3-1.1
	c-1.3-0.7-2.1-1.8-2.6-3.2l-9.5-27.2l-10,27.2l0,0c-0.6,1.3-1.5,2.5-2.7,3.2l0,0c-1.3,0.7-2.7,1.1-4.2,1.1l0,0
	c-1.5,0-2.9-0.4-4.3-1.1c-1.3-0.7-2.1-1.8-2.6-3.2L111.9,200z M156.7,258.4c-1,0.9-2.6,1.3-4.8,1.3h-10.3v34.5l0,0
	c0.1,1.8-0.6,3.6-1.9,4.8l0,0c-2.9,2.4-7.1,2.4-9.9,0c-1.3-1.3-2-3-1.9-4.8v-34.5h-10.3c-2.1,0-3.7-0.5-4.8-1.3l0,0
	c-1.1-1-1.7-2.6-1.6-4.1c0-1.8,0.6-3.2,1.6-4.1s2.6-1.3,4.8-1.3h34.2c2.1,0,3.7,0.4,4.8,1.3c1,0.9,1.6,2.2,1.6,4.1
	C158.5,255.8,157.8,257.3,156.7,258.4L156.7,258.4z M201.7,263.5L201.7,263.5c-2.5,0-5.1,0.2-7.6,0.8l0,0c-2.2,0.4-4.4,1.1-6.4,2.1
	l0,0c-0.9,0.4-1.6,1-2.1,1.8l0,0c-0.5,0.8-0.7,1.7-0.6,2.6l0,0c-0.1,1.3,0.3,2.5,1.1,3.4l0,0c0.7,0.9,1.8,1.3,2.9,1.3l0,0
	c1-0.1,1.9-0.2,2.9-0.6c3.9-1.3,6.8-2.1,8.8-2.1c1.8,0,3.2,0.4,4,1.1s1.2,2,1.2,3.7v0.9h-2c-4-0.1-8,0.2-11.9,1
	c-2.9,0.7-5.1,1.8-6.4,3.3l0,0c-1.4,1.7-2.1,4-2,6.2l0,0c0,2.1,0.6,4.2,1.7,6c1.2,1.8,2.8,3.2,4.8,4.2c2.1,1,4.4,1.5,6.7,1.5l0,0
	c2,0.1,4-0.5,5.8-1.4l0,0c1.6-1,2.8-2.4,3.4-4.1l0,0c0,1.5,0.6,2.9,1.7,4l0,0c1.2,1,2.7,1.5,4.2,1.4l0,0c1.7,0.1,3.3-0.5,4.6-1.6
	l0,0c1.1-1.2,1.7-2.8,1.7-4.4v-15.3c0-5.4-1.3-9.4-4-12.1C211.6,264.8,207.4,263.5,201.7,263.5L201.7,263.5z M205.7,285.6
	c0.1,1.7-0.6,3.5-1.7,4.8l0,0c-1.1,1.2-2.7,1.9-4.3,1.9l0,0c-1,0-2.1-0.4-2.8-1.1l0,0c-0.7-0.7-1.1-1.7-1-2.8l0,0
	c-0.1-1.3,0.8-2.5,2-2.9c1.3-0.6,3.6-0.9,6.7-0.9h1.2L205.7,285.6z M181.1,264.8c1,1,1.6,2.5,1.4,4c0,2-0.5,3.3-1.3,4.3
	c-0.9,0.9-2.5,1.4-4.8,1.7l-2.2,0.2c-2.5,0.3-4.2,1-5.2,2.3l0,0c-1.1,1.4-1.7,3.2-1.6,5.1v12.5c0.1,1.7-0.6,3.4-1.9,4.5l0,0
	c-2.8,2-6.5,2-9.3,0c-1.3-1.1-2-2.8-1.9-4.5v-25.3l0,0c-0.1-1.7,0.6-3.2,1.9-4.3l0,0c1.3-1,2.9-1.6,4.5-1.6l0,0
	c1.6-0.1,3.2,0.5,4.4,1.4c1.1,1,1.7,2.5,1.7,4.1v1.4l0,0c0.7-2.1,2.1-3.8,3.8-5l0,0c1.7-1.1,3.6-1.8,5.6-1.9l1-0.1l0,0
	C178.4,263.4,179.9,263.8,181.1,264.8L181.1,264.8z M258.4,250.1L258.4,250.1c-1.3-1.1-3.1-1.7-4.8-1.7l0,0
	c-1.7-0.1-3.3,0.5-4.7,1.5l0,0c-1.2,1-1.8,2.5-1.7,4.1v14.6c-1.1-1.6-2.7-2.9-4.5-3.7c-2-1-4.1-1.4-6.3-1.4
	c-2.9-0.1-5.8,0.7-8.3,2.3l0,0c-2.5,1.6-4.4,3.8-5.6,6.5l0,0c-1.4,3.1-2.1,6.4-2,9.7l0,0c-0.1,3.4,0.6,6.7,2.1,9.9
	c1.2,2.7,3.2,5.1,5.7,6.7c4.4,2.8,10,3.2,14.8,0.9l0,0c1.8-0.9,3.4-2.3,4.5-4l0,0c0.1,1.5,0.8,2.9,1.9,3.9c2.7,2,6.4,1.9,9.1-0.2
	l0,0c1.2-1.1,1.8-2.8,1.7-4.4v-40.6l0,0C260.3,252.6,259.6,251,258.4,250.1L258.4,250.1z M245.7,288.9L245.7,288.9
	c-1.3,1.6-3.2,2.5-5.3,2.3l0,0c-2,0.1-4-0.8-5.1-2.4c-1.3-1.6-1.9-3.9-1.9-6.8s0.6-5,1.8-6.5l0,0c2.7-2.9,7.1-3.1,10.1-0.4
	c0.2,0.2,0.2,0.2,0.4,0.4c1.2,1.5,1.8,3.7,1.8,6.7C247.5,285.1,246.9,287.3,245.7,288.9L245.7,288.9z M353.7,263.7
	c-1.7-0.1-3.2,0.4-4.5,1.4l0,0c-1.2,1-1.8,2.4-1.9,3.9c-1.1-1.7-2.7-3.2-4.6-4l0,0c-2.1-1-4.3-1.5-6.6-1.4c-2.9-0.1-5.9,0.7-8.3,2.2
	l0,0c-2.5,1.5-4.4,3.7-5.7,6.3l0,0c-1.4,2.9-2.1,6.2-2.1,9.4l0,0c-0.1,3.2,0.6,6.5,2.1,9.4l0,0c1.3,2.6,3.2,4.8,5.7,6.3l0,0
	c2.5,1.5,5.4,2.2,8.3,2.2c2.2,0,4.4-0.5,6.5-1.4l0,0c1.8-0.9,3.5-2.1,4.6-3.9v2.8c0,2.7-0.7,4.7-2.1,5.9c-1.4,1.3-3.6,1.8-6.6,1.9
	l0,0c-1.2,0-2.4-0.2-3.6-0.4s-2.5-0.6-4-1.1c-1.5-0.6-3.1-1-4.8-1.1c-1.1,0-2.1,0.5-2.8,1.3l0,0c-0.7,1-1.1,2.2-1,3.4l0,0
	c0,1,0.2,1.8,0.8,2.6l0,0c0.6,0.8,1.3,1.4,2.1,1.9l0,0c1.9,1,4,1.7,6.1,2.1l0,0c2.5,0.5,5.1,0.7,7.6,0.7c6.9,0,12.2-1.5,15.8-4.6
	s5.4-7.6,5.4-13.5v-26.4l0,0c0.1-1.7-0.6-3.2-1.7-4.4c-1.3-1.1-3-1.7-4.7-1.7L353.7,263.7z M345.3,287.5L345.3,287.5
	c-1.3,1.4-3.3,2.2-5.3,2.1l0,0c-2,0.1-3.9-0.7-5.2-2.1l0,0c-1.3-1.7-2.1-3.8-1.9-5.9c0-2.6,0.6-4.7,1.9-6.1l0,0
	c2.9-2.9,7.7-2.9,10.6,0c1.3,1.4,1.9,3.5,1.9,6.1C347.2,284,346.6,286,345.3,287.5L345.3,287.5z M314.4,267.4
	c2.1,2.5,3.2,6.4,3.2,11.6v15.8l0,0c0.1,1.7-0.6,3.2-1.7,4.4l0,0c-2.8,2.1-6.7,2.1-9.5,0c-1.2-1.1-1.8-2.8-1.7-4.4v-15.3
	c0-2.1-0.4-3.7-1.1-4.7l0,0c-0.8-1-2.1-1.6-3.4-1.4c-1.7-0.1-3.4,0.6-4.7,1.8l0,0c-1.2,1.3-1.8,3.2-1.7,5v14.5l0,0
	c0.1,1.7-0.6,3.2-1.7,4.4l0,0c-2.8,2.1-6.7,2.1-9.5,0c-1.2-1.1-1.8-2.8-1.7-4.4v-25.3c-0.1-1.6,0.6-3.2,1.8-4.2l0,0
	c1.3-1.1,3-1.7,4.8-1.7l0,0c1.6-0.1,3.2,0.5,4.4,1.6c1.1,1,1.7,2.5,1.7,4l0,0c1.2-1.8,2.9-3.3,4.9-4.3l0,0c2.1-1,4.4-1.5,6.7-1.5
	c4.3,0,7.4,1.3,9.5,3.8L314.4,267.4z M277,269.7v25.1c0.1,1.7-0.6,3.4-1.9,4.5l0,0c-2.8,2-6.5,2-9.3,0l0,0c-1.3-1.1-2-2.8-1.8-4.5
	v-25.2l0,0c-0.2-1.7,0.6-3.4,1.8-4.5l0,0c2.8-2,6.5-2,9.3,0C276.4,266.2,277.1,267.9,277,269.7L277,269.7z M277.6,252.3L277.6,252.3
	c0.1,1.7-0.6,3.4-2,4.6l0,0c-3.1,2.3-7.4,2.3-10.5,0c-1.3-1.2-2-2.9-2-4.6l0,0c-0.1-1.7,0.6-3.4,1.9-4.6l0,0c3.1-2.2,7.3-2.2,10.5,0
	l0,0C276.9,248.8,277.7,250.5,277.6,252.3L277.6,252.3z M500.5,289.3c0.1,3.4-1.6,6.7-4.4,8.6c-2.9,2.1-6.9,3.2-11.9,3.2l0,0
	c-2.8,0.1-5.5-0.2-8.2-0.7l0,0c-2.1-0.5-4.1-1.3-5.9-2.4l0,0c-0.7-0.4-1.3-1-1.6-1.7c-0.4-0.9-0.6-1.8-0.6-2.8
	c-0.1-1.2,0.3-2.4,1-3.2l0,0c0.6-0.8,1.6-1.3,2.7-1.3l0,0c0.7,0,1.3,0.1,2.1,0.2c0.8,0.2,1.6,0.5,2.4,0.9c1.6,0.6,2.9,1,4.1,1.3l0,0
	c1.5,0.3,3,0.5,4.6,0.5c1,0.1,2.1-0.2,3.1-0.6l0,0c0.6-0.2,1.1-0.9,1.1-1.6l0,0c0-0.5-0.2-1-0.6-1.3l0,0c-0.6-0.4-1.3-0.7-2.1-0.9
	c-1-0.2-2.8-0.6-5.2-1.1c-4.4-0.9-7.5-2.1-9.4-3.8c-1.9-1.7-2.9-4-2.9-7.1l0,0c0-2.2,0.7-4.4,2.1-6.1l0,0c1.5-1.9,3.5-3.4,5.7-4.3
	l0,0c2.6-1.1,5.4-1.6,8.2-1.6l0,0c2.1,0,4.3,0.2,6.4,0.8c2,0.5,3.8,1.3,5.5,2.3c1.5,0.9,2.4,2.5,2.3,4.3c0,1.3-0.3,2.5-1.1,3.4l0,0
	c-0.6,0.9-1.7,1.4-2.7,1.4l0,0c-1.6-0.1-3.2-0.5-4.7-1.2c-1-0.5-2.1-0.9-3.1-1.2c-1-0.3-2.1-0.4-3.2-0.4l0,0c-1-0.1-2,0.2-2.9,0.6
	l0,0c-0.6,0.2-1,0.9-1,1.6l0,0c0,0.9,0.6,1.6,1.4,1.8c1.8,0.6,3.7,1.2,5.7,1.4c4.8,0.8,8.1,2.1,10.1,3.8
	C499.5,283.8,500.5,286.3,500.5,289.3L500.5,289.3z M461.6,267.5c2.1,2.5,3.2,6.4,3.2,11.7V295c0.1,1.7-0.6,3.2-1.7,4.4l0,0
	c-2.8,2.1-6.7,2.1-9.5,0c-1.2-1.1-1.8-2.8-1.7-4.4v-15.3c0-2.1-0.4-3.7-1.1-4.7l0,0c-0.8-1-2.1-1.6-3.4-1.4l0,0
	c-1.7-0.1-3.5,0.6-4.7,1.9l0,0c-1.2,1.3-1.8,3.2-1.7,5V295c0.1,1.7-0.6,3.2-1.7,4.4l0,0c-2.8,2.1-6.7,2.1-9.5,0
	c-1.2-1.1-1.8-2.8-1.7-4.4v-25.3c-0.1-1.6,0.6-3.2,1.8-4.2l0,0c1.3-1.1,3-1.7,4.8-1.7l0,0c1.6-0.1,3.2,0.5,4.4,1.5l0,0
	c1.1,1,1.7,2.5,1.7,4l0,0c1.3-1.8,2.9-3.3,4.9-4.3l0,0c2.1-1,4.4-1.5,6.7-1.5C456.3,263.6,459.5,264.9,461.6,267.5L461.6,267.5z
	 M389.2,248.9h-18.7c-3.1-0.3-5.9,1.9-6.3,5c-0.1,0.4-0.1,0.9,0,1.3v39.1l0,0c-0.2,3.4,2.3,6.4,5.7,6.7c0.3,0,0.6,0,1,0
	c1.8,0.1,3.6-0.6,5-1.8l0,0c1.3-1.3,1.9-3.1,1.8-4.8v-12.5h11.5c5.6,0,10.1-1.4,13.3-4.4c3.2-2.9,4.8-7,4.8-12
	c0-5.1-1.6-9.2-4.8-12.1C399.4,250.3,394.9,248.9,389.2,248.9L389.2,248.9z M393,270.2c-1.2,1-3,1.5-5.5,1.5h-9.7V259h9.7
	c4.9,0,7.3,2.1,7.3,6.3C394.8,267.6,394.1,269.1,393,270.2z M423.5,269.7v25.2c0.1,1.7-0.6,3.4-1.9,4.5l0,0c-2.8,2-6.5,2-9.3,0
	c-1.3-1.1-2-2.8-1.9-4.5v-25.2l0,0c-0.2-1.7,0.6-3.4,1.9-4.5l0,0c2.8-2,6.5-2,9.3,0C422.8,266.3,423.5,268,423.5,269.7L423.5,269.7z
	 M424.1,252.4c0.1,1.7-0.6,3.4-2,4.6l0,0c-3.1,2.3-7.4,2.3-10.5,0c-1.3-1.2-2.1-2.9-2-4.6l0,0c-0.1-1.7,0.6-3.4,1.9-4.5l0,0
	c3.1-2.2,7.3-2.2,10.5,0l0,0C423.4,248.9,424.1,250.5,424.1,252.4L424.1,252.4z"/>
<g>
	<path class="st1" d="M24,226.1c0,0,5.1,0,5.1-0.2c0,0,0.8-2.1,1.4-4.3c0.3-1,0.6-2.1,0.8-2.9s0.3-1.3,0.3-1.3s-0.3-0.5-0.7-1.2
		c-0.4-0.7-1-1.7-1.4-2.7c-1-2-1.7-4-1.7-4l-0.5,0.1h-1.2h-1l-0.5,0.6c0.2,0.9,0.6,2.3,1.1,3.7c0.7,2.1,1.7,4,1.7,4
		s-0.6,2.1-1.5,4.1C25,224.1,24,226.1,24,226.1z"/>
	<path class="st1" d="M18.3,287.4l-0.8,0.2c0,0-0.3,1.2-0.6,2.7c1,1.7,2,3.4,3.1,5.1c0.1-0.2,0.2-0.6,0.3-1.2c0-0.9,0.3-1.9,0.7-2.9
		c0.6-2.1,1.5-4.3,1.5-4.3l-2.5,0.2C19.4,287.2,18.8,287.3,18.3,287.4z"/>
	<path class="st1" d="M41.6,289.7c0,0-1.1-0.4-2.3-0.7l-2.4-0.6l-0.9,1.1c-0.6,0.7-1.2,1.6-1.8,2.5c-1.3,1.8-2.4,3.6-2.4,3.6
		s0.4,2.1,0.7,4.4c0.2,1,0.2,2.1,0.3,2.9c0.1,0.8,0.1,1.3,0.1,1.3l3.4,1c0,0.1,0-2.2-0.1-4.4c-0.1-2.1-0.3-4.4-0.3-4.4
		s1.3-1.7,2.8-3.5C40.2,291.4,41.6,289.7,41.6,289.7z"/>
	<path class="st1" d="M32.2,287.3l-2.5-0.3c-0.9-0.1-1.7-0.2-2.5-0.2c0,0-1,2.1-1.9,4c-0.4,1-0.8,2.1-1.1,2.8l-0.5,1.3l0.6,1.3
		c0.3,0.8,0.7,1.8,1,2.9c0.7,2.1,1.3,4.1,1.3,4.1c1.1,0,2.2,0.2,3.2,0.3c-0.1,0-0.4-2-0.9-4.1c-0.5-2.1-1.1-4.3-1.1-4.3s0.9-2,2-3.9
		C30.9,289.3,32.2,287.3,32.2,287.3z"/>
	<path class="st1" d="M15.3,225l3.4,0.7l0.8-1.2c0.5-0.7,1-1.7,1.6-2.7c1.1-2,2-4,2-4s-0.6-2-1.1-4C19.4,217.3,17.2,221.1,15.3,225z
		"/>
	<path class="st1" d="M36,216.4c0,0-0.2,2.2-0.6,4.4c-0.3,2.2-0.9,4.4-0.9,4.4l0.8-0.2c0.5-0.1,1.1-0.2,1.7-0.4l2.4-0.6
		c0,0,0.3-2.2,0.5-4.4c0.2-2.2,0.2-4.4,0.2-4.4s-1.5-1.6-2.9-3.3c-1.3-1.8-2.5-3.6-2.5-3.6l-1.7,0.5c-0.4,0.2-0.9,0.2-1.1,0.2
		l-0.6,0.1c0,0,1,1.9,2.2,3.7S36,216.4,36,216.4z"/>
	<path class="st1" d="M103.2,228c0,0,0.6,0.6,1.2,1.3c0.2,0.3,0.5,0.6,0.7,1l0.3,0.5c0,0,2-0.7,4.1-1.3c2.1-0.6,4.3-1.1,4.3-1.1
		s0.4-0.5,0.9-1.3l-1.9-5c-0.8,1.6-1.6,2.9-1.6,2.9s-2.1,0.6-4.1,1.4C105.1,227.1,103.2,228,103.2,228z"/>
	<path class="st1" d="M112.8,278.7c1.4,1.7,2.8,3.3,2.8,3.3s2.1,0.4,4.4,0.6c0.2,0,0.5,0,0.7,0.1v-4.4c-1.7-0.1-3.1-0.1-3.1-0.1
		s-1.5-1.6-3.1-3.1s-3.2-2.9-3.2-2.9l-0.2,0.6c-0.1,0.3-0.3,0.7-0.5,1.1c-0.4,0.8-0.8,1.6-0.8,1.6S111.4,277,112.8,278.7z"/>
	<path class="st1" d="M44.6,213.4c0,0,0,2.2,0,4.4l-0.1,4.4l2.1-0.8l2.1-0.8l-0.2-8.8l-6-6.3l-2,0.8l-1.8,0.7l2.9,3.2
		C43.1,211.8,44.6,213.4,44.6,213.4z"/>
	<path class="st1" d="M99,224c0,0,1.8-1.1,3.6-2.1c1.9-1,3.9-2,3.9-2s0.8-2,1.5-4.1c0.5-1.5,0.9-3,1.1-3.8l-0.4-1l-0.1-0.1l-1.2-1.1
		l-2-1.4c0,0-0.4,2.2-1,4.4c-0.6,2.2-1.2,4.2-1.2,4.2s-1.9,1.1-3.7,2.4c-1.8,1.3-3.5,2.5-3.5,2.5L99,224z"/>
	<path class="st1" d="M53.3,209.9v4.4l0.2,4.4l1.8-0.7l1.3-0.5l0.6-0.2c0,0,0-2.1,0-4.3c0-2.3,0.1-4.5,0.1-4.5s-1.3-1.7-2.9-3.3
		c-1.4-1.7-3-3.3-3-3.3l-0.7,0.2l-1.4,0.6l-2.1,0.8l3.1,3.2L53.3,209.9z"/>
	<path class="st1" d="M110.2,235.5l-1.3,0.2c0.1-0.1,1.6,3.2,1.6,3.2s2.1-0.2,4.4-0.4c1.8-0.2,3.4-0.1,4-0.1l-1.4-3.9
		c0,0-2.2,0.2-4.3,0.5C112,235.2,111,235.3,110.2,235.5z"/>
	<path class="st1" d="M94.3,215.8c1.7-1.4,3.3-2.8,3.3-2.8s0.4-2.1,0.6-4.4c0.2-2.2,0.3-4.4,0.3-4.4l-4.4-2.1
		c-0.1,0.1,0.1,2.2,0.1,4.4c-0.3,2.4-0.4,4.5-0.4,4.5s-1.6,1.5-3.1,3.1c-1.5,1.6-2.9,3.2-2.9,3.2l0.6,0.2c0.3,0.1,0.7,0.3,1.1,0.5
		l1.6,0.8C91.1,218.8,92.6,217.2,94.3,215.8z"/>
	<path class="st1" d="M83.4,305.6c0,0,0.3-2.2,0.5-4.4c0.2-2.1,0.2-4.3,0.2-4.3l-3.4,0.9l-0.2,1.3c-0.1,0.8-0.2,1.8-0.4,2.9
		c-0.3,2.1-0.9,4.3-0.9,4.3s1,1.9,2.3,3.8c0.7,1,1.3,2,1.8,2.7l0.8,1.1l4.8-1.2c0,0-1.5-1.7-2.9-3.5
		C84.7,307.5,83.4,305.6,83.4,305.6z"/>
	<path class="st1" d="M97.4,304.9c-1.7-1.4-3.3-2.9-3.3-2.9s-0.2-2.2-0.5-4.3c-0.2-1-0.3-2.1-0.5-2.9c-0.2-0.8-0.2-1.3-0.2-1.3
		l-3.2,1.6c0,0,0.2,2.1,0.4,4.4c0.2,2.2,0.2,4.3,0.2,4.3s1.4,1.4,3,3c1.6,1.5,3.2,3,3.2,3s4.4-2.1,4.4-2.2l-1.1-0.8
		C99.2,306.3,98.3,305.6,97.4,304.9z"/>
	<path class="st1" d="M82.3,215.6c0,0,1.1-1.8,2.4-3.6c0.6-0.9,1.3-1.7,1.8-2.5l0.9-1c0,0,0-0.6-0.1-1.3c-0.1-0.8-0.2-1.9-0.3-3
		c-0.2-2.2-0.6-4.4-0.6-4.4l-2.4-0.6l-2.5-0.4c0,0,0.6,2.1,1,4.3c0.2,1,0.4,2.1,0.6,3c0.2,0.8,0.2,1.3,0.2,1.3l-0.7,1.1
		c-0.5,0.7-1,1.6-1.6,2.6c-1.1,1.9-2.1,3.8-2.1,3.8l1.7,0.2L82.3,215.6z"/>
	<path class="st1" d="M111.5,287.7c0,0-1.1-1.9-2.4-3.7c-1.3-1.8-2.5-3.5-2.5-3.5l-2.1,2.9c0,0,1.1,1.8,2.1,3.6c1,1.9,2,3.9,2,3.9
		s2,0.8,4.1,1.5c2.4,0.9,4.5,1.5,4.5,1.5l2.9-4c0,0-2.2-0.4-4.4-1C113.6,288.3,111.5,287.7,111.5,287.7z"/>
	<path class="st1" d="M103.6,295.8c0,0-0.6-2.1-1.4-4.1c-0.8-2.1-1.7-4-1.7-4l-1.3,1.2c-0.3,0.3-0.6,0.6-1,0.8l-0.5,0.3
		c0,0,0.7,2,1.3,4.1c0.6,2.1,1.1,4.3,1.1,4.3s1.7,1.2,3.6,2.4c2.1,1.1,4.1,2.2,4.1,2.2l0.6-0.5c0.5-0.3,0.9-0.6,1.3-1l1.8-1.7
		c0,0-2.1-0.9-4-1.9C105.5,296.9,103.6,295.8,103.6,295.8z"/>
	<path class="st1" d="M74.2,197.9c0,0-1.2-0.1-2.5-0.1l-2.5,0.1c0,0,1,2,1.9,4c0.9,2,1.7,4.1,1.7,4.1s-0.8,2-1.5,4.1
		c-0.7,2.1-1.2,4.1-1.2,4.1l1.7-0.1c0.9,0,1.7,0.1,1.7,0.1s0.7-2,1.6-4c0.9-2,1.8-4,1.8-4s-0.4-1.9-1.1-4.1
		C75.1,200,74.2,197.9,74.2,197.9z"/>
	<path class="st1" d="M58.7,296.4l-1.7-0.6l-1.8-0.7l-2.9,3.2c-1.5,1.6-3,3.2-3,3.2s0,2.2-0.1,4.4v4.4l2.1,0.8l2.2,0.8
		c0,0-0.2-2.2-0.2-4.4c-0.1-2.2-0.1-4.4-0.1-4.4s1.3-1.6,2.8-3.3C57.4,298.1,58.7,296.4,58.7,296.4z"/>
	<path class="st1" d="M64.9,298.1l-1.7-0.4c0,0-0.3,0.5-0.7,1.2s-1,1.6-1.7,2.5c-1.2,1.7-2.5,3.5-2.5,3.5s0.2,2.2,0.5,4.4
		c0.2,1.1,0.3,2.2,0.5,3s0.2,1.3,0.2,1.3l2.4,0.6c0.6,0.2,1.2,0.2,1.7,0.3l0.8,0.1c0,0-0.6-2.1-1.1-4.3c-0.5-2.2-0.8-4.4-0.8-4.4
		s1.2-1.8,2.3-3.7c1.1-1.8,1.9-3.8,1.9-3.8l-0.6-0.1C65.7,298.2,65.3,298.2,64.9,298.1z"/>
	<path class="st1" d="M63,199.9l-0.8-1.2c0,0-4.8,1-4.8,1.1c0.1,0.1,1.4,1.7,2.7,3.5c1.3,1.8,2.5,3.6,2.5,3.6s-0.4,2.1-0.6,4.3
		c-0.2,2.1-0.3,4.4-0.3,4.4l3.4-0.8l0.2-1.3c0.1-0.8,0.3-1.8,0.5-2.9c0.4-2.1,1-4.3,1-4.3s-0.9-1.8-2.1-3.8
		C64.1,201.5,63.5,200.6,63,199.9z"/>
	<path class="st1" d="M73,306.8c0,0,0.8-2.1,1.4-4.2c0.3-1.9,0.8-4,0.9-4l-1.7,0.1l-1.2,0.1c-0.2,0-0.4,0-0.6,0c0,0-0.6,2-1.4,4
		s-1.7,4-1.7,4s0.6,2.1,1.4,4.2c0.8,2.1,1.7,4.2,1.7,4.2c0.2,0,0.6,0,0.8,0l1.7-0.1l2.5-0.2c0,0-1.1-2-2-4
		C73.8,308.9,73,306.8,73,306.8z"/>
	<path class="st1" d="M48.4,292.5l-2.1-0.8l-3,3.2c-1.5,1.6-2.9,3.2-2.9,3.2s0.1,2.1,0,4.4v4.3l1.8,0.8l1.9,0.8l0.2-8.8l6.1-6.3
		L48.4,292.5z"/>
</g>
<g>
	<path class="st2" d="M128.1,307.4c-0.2-0.2-0.4-0.5-0.6-0.7c-0.2-0.2-0.4-0.5-0.6-0.7s-0.4-0.5-0.6-0.7c-0.2-0.2-0.4-0.5-0.6-0.7
		c-0.2-0.2-0.4-0.5-0.6-0.7s-0.4-0.5-0.6-0.7c-0.2-0.2-0.4-0.5-0.6-0.7c-2.2-2.5-3.3-5.6-3.2-8.8v-1.2
		c-9.7,15.6-25.5,27.3-44.9,31.3c-4.3,0.9-8.7,1.3-13,1.4c5.2,1.2,10.7,1.9,16.3,1.9C98.1,327.1,115.4,319.6,128.1,307.4
		C128.1,307.4,128.1,307.4,128.1,307.4z"/>
	<path class="st2" d="M105.3,201.7v-0.1v-0.1c-0.6-1.6-0.9-3.2-0.9-4.9c0-2.3,0.6-4.5,1.8-6.4c-8.3-3.4-17.5-5.3-27.1-5.3
		c-5.7,0-11.2,0.7-16.5,2c15.9,0.1,31,5.8,43,15.5L105.3,201.7z"/>
</g>
</svg>
