<svg id="e912761b-d910-410d-aeb2-45a9618649b1" data-name="Layer 1" xmlns="http://www.w3.org/2000/svg" viewBox="0 0 510.92 156"><defs><style>.afcee807-5ce8-4c96-b3cd-a6263eaa3687{fill:#fff;}.a0c17a44-3200-497f-b0b8-cbb125e2978f{fill:red;}.b291b1a9-09fc-4d54-97f2-d3421c7da06e{fill:#34343f;isolation:isolate;opacity:0.25;}</style></defs><path d="M508.6,284.4a12.6,12.6,0,0,0,2.2-7,11.18,11.18,0,0,0-2.8-7.6l-4.6-5.8a13.41,13.41,0,0,0-3.3-3,26.77,26.77,0,0,0-7.2-3,35.92,35.92,0,0,0-8.1-1,26.58,26.58,0,0,0-10.8,2,20.29,20.29,0,0,0-7.1,4.8,2.2,2.2,0,0,0-.5-.6c-2.4-2.9-6.7-6.3-14.7-6.3a12.1,12.1,0,0,0-1.9.1l-.2-.2a38.56,38.56,0,0,0,4.9-.9,33.54,33.54,0,0,0,7.3-2.6l.2-.1a11.47,11.47,0,0,0,6.3-10.3,13.61,13.61,0,0,0-1.6-6.2,10.72,10.72,0,0,0,1.7-6,26.93,26.93,0,0,0-2.8-12.5,19.69,19.69,0,0,0-2.9-4.2c-.2-.2-.4-.5-.6-.7s-.4-.5-.6-.7-.4-.5-.6-.7-.4-.5-.6-.7-.4-.5-.6-.7-.4-.5-.6-.7-.4-.5-.6-.7-.4-.5-.6-.7a21.4,21.4,0,0,0-6.2-5.4,23.59,23.59,0,0,0-12.2-3.1,26.51,26.51,0,0,0-9.7,1.8,12.08,12.08,0,0,0-2.6-5.9c-.2-.2-4.7-5.9-4.8-6-.6-.7-1.2-1.3-1.8-2a14.41,14.41,0,0,0-17.6,0,11.89,11.89,0,0,0-4.3,9.6v5.8c-3.6-2.3-8.2-3.4-13.9-3.4a39.42,39.42,0,0,0-9,1,32.16,32.16,0,0,0-8.1,2.7h-.1l-.1.1a17.42,17.42,0,0,0-2.6,1.9,11.6,11.6,0,0,0-2.1-1.6,28.18,28.18,0,0,0-7.2-3,31,31,0,0,0-8.1-1,26.52,26.52,0,0,0-10.7,2.1,20.33,20.33,0,0,0-8.2,6,21.8,21.8,0,0,0-5.9-5,24.6,24.6,0,0,0-12.1-3.2,26.48,26.48,0,0,0-10.4,2.1,11.83,11.83,0,0,0-2.7-6.3c-.2-.2-4.7-5.9-4.8-6-.6-.7-1.2-1.3-1.9-2a14.41,14.41,0,0,0-17.6,0,11.89,11.89,0,0,0-4.3,9.6v7.4c-1-.7-2.1-1.3-3.2-2a31.65,31.65,0,0,0-26.9,0,23.48,23.48,0,0,0-6.7,5l-1.3-1.7c-2.3-2.9-6.7-6.3-14.5-6.3h-.2a11,11,0,0,0-2.1-4c-.2-.2-4.7-5.9-4.8-6l-1.7-2a13.69,13.69,0,0,0-8.9-3.2,14.26,14.26,0,0,0-8.2,2.6,13.08,13.08,0,0,0-15.1-.5,12.5,12.5,0,0,0-4.9,6.4l-2.6,7.4-.2-.7a17.19,17.19,0,0,0-2.3-4.2c-.2-.2-.6-.9-.8-1s-3.9-4.8-4-5a13.29,13.29,0,0,0-2.9-2.9,11.87,11.87,0,0,0-7.3-2.2,12.85,12.85,0,0,0-12.1,8.5l-2.9,7.5-.3-1a13.09,13.09,0,0,0-2.3-4c-.2-.2-4.7-5.9-4.8-6a11.84,11.84,0,0,0-3.3-3,13.57,13.57,0,0,0-12.5-1,78.06,78.06,0,1,0,21.3,126.5,14.63,14.63,0,0,0,15.7-2.2,13.16,13.16,0,0,0,3-4.5l.3.3c.2.2.4.5.6.7s.4.5.6.7.4.5.6.7.4.5.6.7a13.36,13.36,0,0,0,2,2.1,14.41,14.41,0,0,0,17.6,0,11.9,11.9,0,0,0,4.4-9.7v-3.2c.2.2.3.6.5.8l1.5,2.1c.2.2.4.5.6.7s.4.5.6.7.4.5.6.7.4.5.6.7.4.5.6.7.4.5.6.7.4.5.6.7.4.5.6.7A16.68,16.68,0,0,0,192,311a21.55,21.55,0,0,0,9.7,2.2,16.54,16.54,0,0,0,8.4-2,13.57,13.57,0,0,0,6.8,1.8,13,13,0,0,0,9.2-3.4,6.53,6.53,0,0,0,1.3-1.6,18.39,18.39,0,0,0,2.2,1.7A22,22,0,0,0,251,311l.3-.2a14.5,14.5,0,0,0,15.8-.5,14.78,14.78,0,0,0,16.6,0,14.33,14.33,0,0,0,8.3,2.6,13.79,13.79,0,0,0,9.3-3.3,12,12,0,0,0,2.5-3.4l.2.2c.2.2.4.5.6.7s.4.5.6.7c.5.6,1,1.2,1.5,1.7a13.15,13.15,0,0,0,9.3,3.3,15,15,0,0,0,2-.2c.2.2.3.5.6.6s.4.5.6.7.4.5.6.7.4.5.6.7.4.5.6.7.4.5.6.7.4.5.6.7.4.5.6.7.4.5.6.7a12.48,12.48,0,0,0,3.9,3.3,31.18,31.18,0,0,0,7.9,2.9,44.31,44.31,0,0,0,9,.9c8.5,0,15.3-2.1,20-6.2a20.41,20.41,0,0,0,5.9-8.3,14.24,14.24,0,0,0,6.1,1.3,13,13,0,0,0,9.6-3.7,12.74,12.74,0,0,0,3.8-9.6v-5.8h4.8a32.15,32.15,0,0,0,9.3-1.3v1.3a12,12,0,0,0,2.8,8.1c.2.2,4.7,5.9,4.8,6a18,18,0,0,0,1.9,2,14.55,14.55,0,0,0,17.4.1,14.29,14.29,0,0,0,17.8-.5,11,11,0,0,0,2.6-3.5c.1.2,1.3,1.7,1.5,1.9.4.6,1,1.1,1.4,1.6a14.34,14.34,0,0,0,18.3,0l.1-.1a26.65,26.65,0,0,0,7.1,2.7,44.92,44.92,0,0,0,9.7.9c6.3,0,11.6-1.5,15.7-4.4a16.62,16.62,0,0,0,7.1-13.9A15,15,0,0,0,508.6,284.4ZM8,256a71.12,71.12,0,0,1,71.1-71.1,71.91,71.91,0,0,1,27.1,5.3,11.9,11.9,0,0,0-1.8,6.4,13.72,13.72,0,0,0,.9,4.9v.2l14.8,39.8c0,.1,0,.1.1.2h-3.4a13.51,13.51,0,0,0-9,2.9,11.56,11.56,0,0,0-4,9.2,12,12,0,0,0,2.9,8.2c.2.2.4.5.6.7s.4.5.6.7.4.5.6.7.4.5.6.7.4.5.6.7.4.5.6.7.4.5.6.7.4.5.6.7a11.8,11.8,0,0,0,9.2,4.6v21.5a12.62,12.62,0,0,0,3.2,8.8c.2.2.4.5.6.7s.4.5.6.7.4.5.6.7.4.5.6.7.4.5.6.7.4.5.6.7.4.5.6.7h0A71,71,0,0,1,8,256Zm500.4,28.8c0-.1.1-.1.1-.2l.3.7Z" transform="translate(-1 -178)"/><path class="afcee807-5ce8-4c96-b3cd-a6263eaa3687" d="M502.6,283.3l-2.7-2.7h0a5.56,5.56,0,0,0,2.7-2.1h0a8.24,8.24,0,0,0,1.7-5.1h0a6.79,6.79,0,0,0-2.3-5.5l-2.1-2.2a5.15,5.15,0,0,0-1.7-1.3,20.48,20.48,0,0,0-6.3-2.6,28.2,28.2,0,0,0-7.1-.9,23.86,23.86,0,0,0-9.2,1.7h0a15.54,15.54,0,0,0-6.8,5.1h0a9.46,9.46,0,0,0-1.4,2.4c-.4-.6-.8-1.2-1.2-1.7s-3.3-3.4-3.4-3.5c-2.6-2.6-6.2-4-10.9-4h0a18.87,18.87,0,0,0-7.8,1.7h0a11.67,11.67,0,0,0-2.6,1.7l-1-1a8.93,8.93,0,0,0-6.2-2.2h0a9,9,0,0,0-6.5,2.3h0a7.9,7.9,0,0,0-1.9,2.5l-2.6-2.6h0a9.16,9.16,0,0,0,3.2-1.8h0a8.94,8.94,0,0,0,2.9-6.5h0a8.22,8.22,0,0,0-2.5-6.1c-.1-.1-2.8-2.8-3.1-3h0c-.3-.2-.6-.6-1-.7h0a7.74,7.74,0,0,0,1.1-4.5v-1.3h0a12.88,12.88,0,0,0,1.6,1.7l.3.3.3.3.3.3.3.3.3.3.3.3.3.3.3.3h0a21.15,21.15,0,0,0,4.8,3.5h0a25.8,25.8,0,0,0,11.6,2.5h0a27.24,27.24,0,0,0,6.9-.9h0a34.8,34.8,0,0,0,6.4-2.3h.1a7.64,7.64,0,0,0,4.3-6.8h0a7.94,7.94,0,0,0-1.6-5.1,3,3,0,0,0-.8-.8l-.3-.3-.3-.3-.1-.1h0a5.94,5.94,0,0,0,1.8-1.3h0a6.45,6.45,0,0,0,1.4-4.4h0a22.08,22.08,0,0,0-2.4-10.7h0a15.55,15.55,0,0,0-3.2-4.4l-.3-.3-.3-.3-.3-.3-.3-.3-.3-.3-.3-.3-.3-.3-.3-.3a17.6,17.6,0,0,0-4-3.2,20.29,20.29,0,0,0-10.2-2.5,21.29,21.29,0,0,0-10.7,2.7h0a19.1,19.1,0,0,0-5.5,4.7V200h0a8.29,8.29,0,0,0-2.5-6.3l-2.9-2.9a10.21,10.21,0,0,0-12.6,0h0a8.49,8.49,0,0,0-2.9,6.6v14.8a10,10,0,0,0-1-1.1l-2.6-2.6c-3.2-3.2-7.9-4.8-14.2-4.8h0a37.46,37.46,0,0,0-8.2.9h0a29.72,29.72,0,0,0-7.1,2.4h-.1a8.12,8.12,0,0,0-3.1,2.7h0c-.3.5-.6,1-1,1.6-.1-.2-2.4-2.4-2.5-2.5a12,12,0,0,0-2.1-1.7,21.27,21.27,0,0,0-6.3-2.5,28.2,28.2,0,0,0-7.1-.9,22.91,22.91,0,0,0-9.3,1.7h0a15,15,0,0,0-6.8,5.1h0a10.67,10.67,0,0,0-2.1,4.1h0a15.41,15.41,0,0,0-2.3-2.9l-2.3-2.3a17.6,17.6,0,0,0-4-3.2,20.29,20.29,0,0,0-10.2-2.5h0a20.67,20.67,0,0,0-10.6,2.7h0a17,17,0,0,0-6.1,5.5v-12h0a8.29,8.29,0,0,0-2.5-6.3l-2.9-2.9h0a10.36,10.36,0,0,0-12.7,0h0a8.49,8.49,0,0,0-2.9,6.6v16.6c-.6-.6-4-4.1-4-4.2h0a23.62,23.62,0,0,0-4.8-3.5,27.89,27.89,0,0,0-23.3,0h0a19.92,19.92,0,0,0-8,7.5c-.2.2-.2.5-.4.6h0a11.3,11.3,0,0,0-1.9-3.2,6.28,6.28,0,0,0-1.1-1.2l-2.3-2.3c-2.5-2.6-6.1-3.9-10.6-3.9a19.32,19.32,0,0,0-6.3,1v-5.2h0a7.69,7.69,0,0,0-2.3-5.7l-2.9-2.9h0a9,9,0,0,0-6.3-2.2h0A9.37,9.37,0,0,0,192,191h0a8,8,0,0,0-1.5,1.7c-.1-.1-1.8-1.9-2.1-2.1h0a8.57,8.57,0,0,0-5.9-2.1,10.11,10.11,0,0,0-5.1,1.5h0a8.29,8.29,0,0,0-3.4,4.4l-7.1,19.9L161,197.1a9.13,9.13,0,0,0-2.4-3.7c-.1-.1-3.2-3.1-3.6-3.4a9.07,9.07,0,0,0-5.1-1.6,9.83,9.83,0,0,0-5.1,1.5h0a8.29,8.29,0,0,0-3.4,4.4l-7.2,19.6-5.8-17a8.49,8.49,0,0,0-2.1-3.4l-2.3-2.3a7.46,7.46,0,0,0-1.7-1.4h0a9.35,9.35,0,0,0-5.1-1.4,10.09,10.09,0,0,0-6.2,2.1h0a7.72,7.72,0,0,0-2.9,6.3h0a11.48,11.48,0,0,0,.6,3.7l14.8,39.8a8.13,8.13,0,0,0,2.1,3.3l2.1,2.1H116.9c-2.8,0-5,.6-6.5,1.9-1.7,1.4-2.5,3.5-2.5,6.2a7.9,7.9,0,0,0,2.5,6.2l.2.2.2.2.2.2h0c.1.1.2.2.3.2l.2.2.2.2c.1.1.2.2.3.2h0l.2.2.3.2a9.71,9.71,0,0,0,6.5,2h5v29.3h0a8.82,8.82,0,0,0,2.7,6.7l.2.2.2.2.2.2.2.2.2.2.2.2.2.2h0c0,.1.1.1.2.2l.2.2.2.2.2.2.2.2.2.2.2.2.2.2.2.2.2.2.2.2a10.21,10.21,0,0,0,13.5,0h0a8.82,8.82,0,0,0,2.7-6.7V265h6a8,8,0,0,0-1.3,4.6v25.3h0a7.82,7.82,0,0,0,2.5,6.3l.3.3.3.3.3.2.3.3.3.3.3.3.3.2.3.3h0l.6.6a10.65,10.65,0,0,0,12.7,0,7.91,7.91,0,0,0,2.9-6.6V284.9h0a4.36,4.36,0,0,1,1-3.3,5,5,0,0,1,3.5-1.3l2.1-.2c2.9-.3,5-1,6.3-2.3l.2.2.3.3.3.3.3.3.1.1h0a10.3,10.3,0,0,0-3.3,2.5h0a12,12,0,0,0-2.7,7.9h0a13.44,13.44,0,0,0,4.2,10l.3.3.3.3.3.3.3.3.3.3.3.3.3.2.3.3h0a14.67,14.67,0,0,0,4,2.9,16.57,16.57,0,0,0,7.9,1.7h0a13.42,13.42,0,0,0,7.1-1.8h0a7.1,7.1,0,0,0,1.4-1v.1l.1.1.2.2.1.1.2.2a8.74,8.74,0,0,0,5.9,2.1h0a8.63,8.63,0,0,0,6.5-2.2h0a7.94,7.94,0,0,0,2.5-5.8,9.43,9.43,0,0,0,1,1l.3.3.3.3.3.3.3.3.3.3.3.3.3.2.3.3h0a17.84,17.84,0,0,0,20.1,3.2h0a20.68,20.68,0,0,0,2.5-1.5l.2.2.3.3.6.6h0a10.35,10.35,0,0,0,12.6-.2h0a9,9,0,0,0,1.5-1.9l.2.2.3.3.3.3.3.3.3.2.3.3.6.6h0a10.65,10.65,0,0,0,12.7,0h0a6.84,6.84,0,0,0,1.7-2.1l.2.2.1.1.2.2.1.1.2.2.1.1.2.2.1.1.2.2.1.1.2.2h0l.1.1.2.2h0a10.39,10.39,0,0,0,13.1,0h0a8.53,8.53,0,0,0,2.6-6.3V283.5a4.13,4.13,0,0,1,1-3.2h0a2.74,2.74,0,0,1,1.8-1v16.1h0a8.23,8.23,0,0,0,2.6,6.3l.1.1c.1.1.1.2.2.2l.1.1.2.2.1.1c.1.1.1.2.2.2l.1.1.2.2.1.1c.1.1.1.2.2.2l.1.1.2.2.1.1c.1.1.1.2.2.2l.1.1.2.2.1.1c.1.1.1.2.2.2a10.39,10.39,0,0,0,13.1,0h0a10.47,10.47,0,0,0-.5,3h0a7.54,7.54,0,0,0,1.2,4.1,11.51,11.51,0,0,0,1.4,1.7l.3.3.3.3.3.3c.1.1.2.2.3.2s.2.2.3.3l.3.3.3.3c.1.1.2.2.3.2a8.47,8.47,0,0,0,1.9,1.4,26.16,26.16,0,0,0,6.8,2.4h0a37.4,37.4,0,0,0,8.2.8c7.5,0,13.5-1.7,17.5-5.2,3.5-2.9,5.5-7.1,6.1-12.1,0,.1.1.1.2.2l.2.2.2.2.2.2.2.2.2.2.2.2.2.2.2.2.2.2.2.2a8.94,8.94,0,0,0,6.7,2.5h0a9.42,9.42,0,0,0,6.8-2.5h0a17.41,17.41,0,0,0,1.2-1.4h0a10.23,10.23,0,0,0,1.5-5.4V288h8.8a28,28,0,0,0,8.6-1.3h0a16.93,16.93,0,0,0,6.5-3.8,6,6,0,0,0,.8-.8v13.8h0a8.08,8.08,0,0,0,2.5,6.2c.1.1,2.8,2.8,3,2.9h0a10.5,10.5,0,0,0,12.6,0h0a7.89,7.89,0,0,0,2.1-2.7l2.5,2.5a10.39,10.39,0,0,0,13.1,0h0a8.53,8.53,0,0,0,2.6-6.3V284h0a4,4,0,0,1,1-3.2h0a3,3,0,0,1,2-1v16.1h0a8.23,8.23,0,0,0,2.6,6.3l2.6,2.6h0a10.39,10.39,0,0,0,13.1,0h0a6.66,6.66,0,0,0,1.9-2.8l.7.7h0a7.55,7.55,0,0,0,1.4,1.1h0a20.54,20.54,0,0,0,6.9,2.6h0a43.67,43.67,0,0,0,8.8.8c5.5,0,10.1-1.3,13.5-3.6h0a12.38,12.38,0,0,0,5.5-10.7c-.1-3.6-1.1-6.5-3.3-8.6ZM244.7,254.1v8.8l-.6-.3a17.86,17.86,0,0,0-7.5-1.7,17.57,17.57,0,0,0-9.7,2.7h0a17,17,0,0,0-6.3,7h0a20.28,20.28,0,0,0-1.8-2.3l-.2-.2-.1-.1-.2-.2-.1-.1-.2-.2-.1-.1-.2-.2-.1-.1-.2-.2-.1-.1c-.1-.1-.2-.1-.2-.2l-.1-.1-.2-.2-.1-.1-.2-.2-.1-.1-.2-.2-.1-.1c-3.2-3.2-7.9-4.8-14.3-4.8h0a37.46,37.46,0,0,0-8.2.9h0a29.72,29.72,0,0,0-7.1,2.4h.1a6,6,0,0,0-1.3.9l-.2-.2-.2-.1-.2-.2-.2-.1c-.1-.1-.1-.2-.2-.2l-.2-.1c-.1-.1-.1-.2-.2-.2l-.1-.1-.2-.2-.2-.1-.2-.2-.2-.1c-.1-.1-.1-.2-.2-.2l-.2-.1c-.1-.1-.1-.2-.2-.2h0a7.35,7.35,0,0,0-5.1-1.9h-.9l-1,.1h0a14.3,14.3,0,0,0-6.9,2.4h0a4.44,4.44,0,0,0-1.1.8l-.2-.2-.1-.1-.2-.2h-.1l-.2-.2h-.1l-.2-.2a9.26,9.26,0,0,0-4.1-2h0a8.39,8.39,0,0,0,1-4.4h0a8.05,8.05,0,0,0-2.2-5.9l-.3-.2-.3-.3-.3-.3-.3-.3-.3-.4-.3-.2-.3-.3-.3-.3-.6-.6c-1.5-1.3-3.7-1.9-6.5-1.9h-8.2a9.25,9.25,0,0,0,1.7-2.9l6.6-18,5.4,15.3h0a8.13,8.13,0,0,0,2.1,3.3l2.3,2.3a9,9,0,0,0,1.9,1.5,11.2,11.2,0,0,0,11.2,0h0a8.85,8.85,0,0,0,3.8-4.5l11-29.9v24.4h0a8.23,8.23,0,0,0,2.6,6.3l2.6,2.6h0a10.39,10.39,0,0,0,13.1,0h0a8.53,8.53,0,0,0,2.6-6.3V224.9h0a4.41,4.41,0,0,1,1-3.2h0a3,3,0,0,1,2.1-1v16.1h0a8.23,8.23,0,0,0,2.6,6.3l2.6,2.6h0a10.39,10.39,0,0,0,13.1,0h0a8.53,8.53,0,0,0,2.6-6.3v-2a12.06,12.06,0,0,0,2.1,2.4l2.3,2.3a23.62,23.62,0,0,0,4.8,3.5h0a12.66,12.66,0,0,0,3.2,1.3h0a7.94,7.94,0,0,0-2.6,6Zm16.4-5.2-.2-.2.4-.1c.1.2,0,.3-.2.3Zm102.9-.3h0a8.65,8.65,0,0,0-2.4,6.5v9.7l-.2-.1-.2-.2-.2-.1-.2-.2h0l-.2-.2-.2-.2-.2-.2-.2-.2-.2-.1-.2-.2h0a10.1,10.1,0,0,0-12.7-.3h0a5.73,5.73,0,0,0-1.1,1.1h0c-.8-.6-1.7-1.1-2.5-1.6a17.71,17.71,0,0,0-7.8-1.7h0a18.35,18.35,0,0,0-9.7,2.6h0a18.68,18.68,0,0,0-6.2,6.3,9.06,9.06,0,0,0-1.1-1.6,15.38,15.38,0,0,0-1.2-1.3l-.3-.3-.3-.3-.3-.2-.3-.3-.3-.3-.3-.3-.3-.2-.3-.2c-2.6-2.5-6.2-3.9-10.8-3.9h0a18.87,18.87,0,0,0-7.8,1.7h0a14,14,0,0,0-2.6,1.6l-.1-.1-.1-.1-.2-.2-.1-.1-.2-.2-.1-.1-.2-.2h0a8.57,8.57,0,0,0-6.3-2.2,9.37,9.37,0,0,0-6.6,2.3h0a9.5,9.5,0,0,0-1.6,1.9l-.2-.2-.3-.2-.3-.3-.3-.3-.3-.3-.3-.3-.5-.5h0a9.16,9.16,0,0,0,3.2-1.8h0a9,9,0,0,0,.4-12.7l-.2-.2-.3-.2-.3-.3-.3-.3-.3-.3-.3-.2-.3-.3h.1l.2.2a10.5,10.5,0,0,0,12.6,0,7.91,7.91,0,0,0,2.9-6.6v-2.3h0a11.31,11.31,0,0,0,2.3,2.6l2.3,2.3a21.15,21.15,0,0,0,4.8,3.5h0a25.8,25.8,0,0,0,11.6,2.5h0a23.52,23.52,0,0,0,6.9-1h0a34.8,34.8,0,0,0,6.4-2.3h.1a8.33,8.33,0,0,0,3-2.6L332,244h0a6.1,6.1,0,0,0,1.6,1.2h0a20.31,20.31,0,0,0,6.7,2.6h0a43.67,43.67,0,0,0,8.8.8c5.5,0,10.1-1.3,13.5-3.6h0a14,14,0,0,0,4-4.4c.3.3,3.2,3.2,3.2,3.3a16.32,16.32,0,0,0,2,1.7h-2.1a8.28,8.28,0,0,0-6.5,2.4Z" transform="translate(-1 -178)"/><path class="a0c17a44-3200-497f-b0b8-cbb125e2978f" d="M387.3,221.8h0a52.68,52.68,0,0,0-11.9,1c-2.9.7-5.1,1.8-6.4,3.3h0a9.24,9.24,0,0,0-2,6.2h0a11.11,11.11,0,0,0,6.5,10.2h0a15.6,15.6,0,0,0,6.7,1.5h0a11.58,11.58,0,0,0,5.8-1.4h0a8,8,0,0,0,3.4-4.1h0a5.61,5.61,0,0,0,1.7,4h0a6,6,0,0,0,4.2,1.4h0a6.49,6.49,0,0,0,4.6-1.6h0a6.56,6.56,0,0,0,1.7-4.4V222.5c0-5.5-1.3-9.4-4-12.1s-6.7-4-12.4-4h0a32.73,32.73,0,0,0-7.6.8h0a24,24,0,0,0-6.4,2.1h0a4.63,4.63,0,0,0-2.1,1.8h0a4,4,0,0,0-.6,2.6h0a4.53,4.53,0,0,0,1.1,3.4,3.6,3.6,0,0,0,2.9,1.3h0a7.53,7.53,0,0,0,2.9-.6c3.9-1.3,6.8-2.1,8.8-2.1a6.16,6.16,0,0,1,4,1.1,4.84,4.84,0,0,1,1.2,3.7v.9Zm1.9,6.9a7.07,7.07,0,0,1-1.7,4.8h0a6,6,0,0,1-4.4,1.9h0a4.11,4.11,0,0,1-2.8-1.1h0a3.48,3.48,0,0,1-1-2.8h0a2.8,2.8,0,0,1,2-2.9c1.3-.6,3.6-.8,6.7-.8h1.2v.9Zm-146.7,13a24.65,24.65,0,0,0,20.9,0h0a15.7,15.7,0,0,0,6.9-6.6h0a20.34,20.34,0,0,0,2.5-10h0a19,19,0,0,0-2.5-9.9h0a16,16,0,0,0-6.9-6.5,25.39,25.39,0,0,0-20.9,0h0a16,16,0,0,0-6.9,6.5h0a20,20,0,0,0-2.5,9.9h0a19.56,19.56,0,0,0,2.5,10h0a15.74,15.74,0,0,0,6.9,6.6ZM253,216.2c4.7,0,7,3,7,9.1s-2.3,9.1-7,9.1-7-3-7-9.1,2.3-9.1,7-9.1Zm29.6,27.7h0a7.34,7.34,0,0,1-4.7-1.5,5.51,5.51,0,0,1-1.9-4.5V197.6h0a5.23,5.23,0,0,1,1.9-4.5h0a7.65,7.65,0,0,1,9.3,0h0a5.64,5.64,0,0,1,1.9,4.5v40.3a5.51,5.51,0,0,1-1.9,4.5h0a6.89,6.89,0,0,1-4.6,1.5Zm129.5,0h0a7.34,7.34,0,0,1-4.7-1.5,5.51,5.51,0,0,1-1.9-4.5V197.6h0a5.23,5.23,0,0,1,1.9-4.5h0a7.65,7.65,0,0,1,9.3,0h0a5.64,5.64,0,0,1,1.9,4.5v40.3a5.23,5.23,0,0,1-1.9,4.5h0a6.72,6.72,0,0,1-4.6,1.5Zm-84.3-7.2h0a5.34,5.34,0,0,0-1-3.5,3.29,3.29,0,0,0-2.8-1.3h0a7.47,7.47,0,0,0-2,.3,18,18,0,0,0-2.1.8h0c-1.1.4-2.3.8-3.4,1.1h0a18.59,18.59,0,0,1-3.3.4A7.87,7.87,0,0,1,308,233c-1.2-1-1.9-2.7-2.3-5.1H325a2.35,2.35,0,0,0,2.2-1h0a3.53,3.53,0,0,0,.8-2.6h0a19.31,19.31,0,0,0-2.1-9.4,15.56,15.56,0,0,0-5.9-6.3,17.3,17.3,0,0,0-8.9-2.2,17.94,17.94,0,0,0-9.3,2.4h0a15.89,15.89,0,0,0-6.4,6.7h0a19.3,19.3,0,0,0-2.3,9.7h0a19.47,19.47,0,0,0,2.4,10,16,16,0,0,0,6.9,6.5,20.93,20.93,0,0,0,10.5,2.2h0a22.84,22.84,0,0,0,6.3-.9h0a29.53,29.53,0,0,0,5.9-2.1h0a5,5,0,0,0,2.9-4.4ZM307.4,217h0a5.5,5.5,0,0,1,4.1-1.7c3.4,0,5.2,2.1,5.5,6.4H305.5a8.89,8.89,0,0,1,1.9-4.7Zm-84.5,26.9h0a7.15,7.15,0,0,1-4.8-1.6,5.59,5.59,0,0,1-1.7-4.4V221.7c0-3.5-1.5-5.3-4.5-5.3h0a6,6,0,0,0-4.7,1.9h0a6.94,6.94,0,0,0-1.7,5v14.5a6,6,0,0,1-1.7,4.4h0a8,8,0,0,1-9.5,0,5.67,5.67,0,0,1-1.8-4.4V197.3h0a5.13,5.13,0,0,1,1.8-4.2h0a7.6,7.6,0,0,1,4.8-1.7h0a6.89,6.89,0,0,1,4.6,1.5h0a4.86,4.86,0,0,1,1.7,4.1v14.7h0a12.51,12.51,0,0,1,4.9-3.9h0a16.54,16.54,0,0,1,6.6-1.3c4.2,0,7.4,1.3,9.3,3.9,2.1,2.5,3.1,6.4,3.1,11.6v15.8a6,6,0,0,1-1.7,4.4h0a7.75,7.75,0,0,1-4.7,1.7Zm140.9-11.6h0a10.27,10.27,0,0,1-4.4,8.6c-2.9,2.1-6.9,3.2-11.9,3.2h0a44.65,44.65,0,0,1-8.2-.7h0a20.34,20.34,0,0,1-5.9-2.4h0a3.75,3.75,0,0,1-1.6-1.7h0a6.71,6.71,0,0,1-.6-2.8h0a4.41,4.41,0,0,1,1-3.2h0a3.51,3.51,0,0,1,2.7-1.3h0a16.46,16.46,0,0,1,2.1.2,11.72,11.72,0,0,1,2.4.9,37.14,37.14,0,0,0,4.1,1.3h0a23.15,23.15,0,0,0,4.6.5,6.86,6.86,0,0,0,3.1-.6h0a1.76,1.76,0,0,0,1.1-1.6h0a1.61,1.61,0,0,0-.6-1.3h0a6.67,6.67,0,0,0-2.1-.9c-1-.2-2.8-.6-5.2-1.1-4.4-.9-7.4-2.1-9.4-3.8a9,9,0,0,1-2.9-7.1h0a9.61,9.61,0,0,1,2.1-6.1h0a15.12,15.12,0,0,1,5.7-4.3h0a20.93,20.93,0,0,1,8.2-1.5h0a23.4,23.4,0,0,1,6.4.8,22.1,22.1,0,0,1,5.5,2.3h0a4.66,4.66,0,0,1,2.3,4.3,5,5,0,0,1-1.1,3.4h0a3.32,3.32,0,0,1-2.7,1.4,9.82,9.82,0,0,1-4.5-1.3,19.78,19.78,0,0,0-3.1-1.2,11.24,11.24,0,0,0-3.2-.4h0a5.83,5.83,0,0,0-2.9.6h0a1.68,1.68,0,0,0-1,1.6,2,2,0,0,0,1.4,1.8,26.41,26.41,0,0,0,5.7,1.4c4.8.8,8.1,2.1,10.1,3.8s2.9,4.1,2.8,7.4ZM441.7,244h0a22.84,22.84,0,0,0,6.3-.9h0a29.53,29.53,0,0,0,5.9-2.1h0a5,5,0,0,0,2.9-4.4h0a4.53,4.53,0,0,0-1.1-3.4,3.29,3.29,0,0,0-2.8-1.3h0a6.28,6.28,0,0,0-1.9.3,18,18,0,0,0-2.1.8h0a22.4,22.4,0,0,1-3.4,1.1h0a18.59,18.59,0,0,1-3.3.4A7.87,7.87,0,0,1,437,233c-1.2-1-1.9-2.7-2.3-5.1H454a2.35,2.35,0,0,0,2.2-1h0a3.53,3.53,0,0,0,.8-2.6h0a19.31,19.31,0,0,0-2.1-9.4h0a14.13,14.13,0,0,0-5.9-6.2,17.3,17.3,0,0,0-8.9-2.2h0a17.94,17.94,0,0,0-9.3,2.4h0a16.75,16.75,0,0,0-6.5,6.7h0a19.3,19.3,0,0,0-2.3,9.7h0a19.47,19.47,0,0,0,2.4,10,16,16,0,0,0,6.9,6.5h0a22.6,22.6,0,0,0,10.4,2.2Zm-5.4-27h0a5.44,5.44,0,0,1,4-1.7c3.4,0,5.2,2.1,5.5,6.4H434.3a8.57,8.57,0,0,1,2-4.7ZM111.9,200h0a8.75,8.75,0,0,1-.6-2.8,5.12,5.12,0,0,1,1.9-4.3h0a7.49,7.49,0,0,1,4.5-1.6h0a7.46,7.46,0,0,1,3.8,1h0a5.38,5.38,0,0,1,2.5,3.2l10.1,28.8,10.6-28.8h0a6.36,6.36,0,0,1,2.4-3.2h0a6.38,6.38,0,0,1,3.6-1.1h0a6,6,0,0,1,5.9,4.3l9.9,29.4L177,195.4h0a6.36,6.36,0,0,1,2.4-3.2h0a6.38,6.38,0,0,1,3.6-1.1h0a6.55,6.55,0,0,1,4.2,1.5,5.45,5.45,0,0,1,1.8,4.2h0a9.37,9.37,0,0,1-.6,2.9l-14.8,39.9h0a6,6,0,0,1-2.7,3.2h0a8.12,8.12,0,0,1-4.3,1.1h0a9.47,9.47,0,0,1-4.3-1.1,5.53,5.53,0,0,1-2.6-3.2l-9.5-27.2-10,27.2h0a7.07,7.07,0,0,1-2.7,3.2h0a8.77,8.77,0,0,1-4.2,1.1h0a9.47,9.47,0,0,1-4.3-1.1,5.53,5.53,0,0,1-2.6-3.2Zm44.8,58.4c-1,.9-2.6,1.3-4.8,1.3H141.6v34.5h0a6.12,6.12,0,0,1-1.9,4.8h0a7.71,7.71,0,0,1-9.9,0,6.26,6.26,0,0,1-1.9-4.8V259.7H117.6a8.07,8.07,0,0,1-4.8-1.3h0a5.21,5.21,0,0,1-1.6-4.1,5.33,5.33,0,0,1,1.6-4.1c1-.9,2.6-1.3,4.8-1.3h34.2a7.42,7.42,0,0,1,4.8,1.3,5.19,5.19,0,0,1,1.6,4.1,4.65,4.65,0,0,1-1.5,4.1Zm45,5.1h0a32.73,32.73,0,0,0-7.6.8h0a24,24,0,0,0-6.4,2.1h0a4.63,4.63,0,0,0-2.1,1.8h0a4,4,0,0,0-.6,2.6h0a4.53,4.53,0,0,0,1.1,3.4h0a3.6,3.6,0,0,0,2.9,1.3h0a10,10,0,0,0,2.9-.6c3.9-1.3,6.8-2.1,8.8-2.1a6.16,6.16,0,0,1,4,1.1,4.84,4.84,0,0,1,1.2,3.7v.9h-2a52.68,52.68,0,0,0-11.9,1c-2.9.7-5.1,1.8-6.4,3.3h0a9.24,9.24,0,0,0-2,6.2h0a11.58,11.58,0,0,0,1.7,6,12.22,12.22,0,0,0,4.8,4.2,15.6,15.6,0,0,0,6.7,1.5h0a11.84,11.84,0,0,0,5.8-1.4h0a8,8,0,0,0,3.4-4.1h0a5.61,5.61,0,0,0,1.7,4h0a6,6,0,0,0,4.2,1.4h0a6.49,6.49,0,0,0,4.6-1.6h0a6.56,6.56,0,0,0,1.7-4.4V279.3c0-5.4-1.3-9.4-4-12.1-2.6-2.4-6.8-3.7-12.5-3.7Zm4,22.1a7.07,7.07,0,0,1-1.7,4.8h0a5.91,5.91,0,0,1-4.3,1.9h0a4.11,4.11,0,0,1-2.8-1.1h0a3.48,3.48,0,0,1-1-2.8h0a2.91,2.91,0,0,1,2-2.9c1.3-.6,3.6-.9,6.7-.9h1.2Zm-24.6-20.8a4.86,4.86,0,0,1,1.4,4,6.49,6.49,0,0,1-1.3,4.3c-.9.9-2.5,1.4-4.8,1.7l-2.2.2c-2.5.3-4.2,1-5.2,2.3h0a7.6,7.6,0,0,0-1.6,5.1v12.5a5.51,5.51,0,0,1-1.9,4.5h0a8,8,0,0,1-9.3,0,5.51,5.51,0,0,1-1.9-4.5V269.6h0a5.12,5.12,0,0,1,1.9-4.3h0a7.49,7.49,0,0,1,4.5-1.6h0a6.82,6.82,0,0,1,4.4,1.4,5.5,5.5,0,0,1,1.7,4.1v1.4h0a10.06,10.06,0,0,1,3.8-5h0a11.37,11.37,0,0,1,5.6-1.9l1-.1h0a5,5,0,0,1,3.9,1.2Zm77.3-14.7h0a7.6,7.6,0,0,0-4.8-1.7h0a7.34,7.34,0,0,0-4.7,1.5h0a4.86,4.86,0,0,0-1.7,4.1v14.6a10.85,10.85,0,0,0-4.5-3.7,13.81,13.81,0,0,0-6.3-1.4,14.5,14.5,0,0,0-8.3,2.3h0a14.73,14.73,0,0,0-5.6,6.5h0a21.94,21.94,0,0,0-2,9.7h0a21.55,21.55,0,0,0,2.1,9.9,15.47,15.47,0,0,0,5.7,6.7,15.29,15.29,0,0,0,14.8.9h0a11.57,11.57,0,0,0,4.5-4h0a5.82,5.82,0,0,0,1.9,3.9,7.51,7.51,0,0,0,9.1-.2h0a5.59,5.59,0,0,0,1.7-4.4V254.2h0a5.18,5.18,0,0,0-1.9-4.1Zm-12.7,38.8h0a6,6,0,0,1-5.3,2.3h0a5.87,5.87,0,0,1-5.1-2.4c-1.3-1.6-1.9-3.9-1.9-6.8s.6-5,1.8-6.5h0a7.12,7.12,0,0,1,10.1-.4l.4.4c1.2,1.5,1.8,3.7,1.8,6.7a10.9,10.9,0,0,1-1.8,6.7Zm108-25.2a6.55,6.55,0,0,0-4.5,1.4h0a5.42,5.42,0,0,0-1.9,3.9,10.51,10.51,0,0,0-4.6-4h0a13.79,13.79,0,0,0-6.6-1.4,15,15,0,0,0-8.3,2.2h0a15.09,15.09,0,0,0-5.7,6.3h0a21.87,21.87,0,0,0-2.1,9.4h0a19.31,19.31,0,0,0,2.1,9.4h0a15.09,15.09,0,0,0,5.7,6.3h0a16.12,16.12,0,0,0,8.3,2.2,16.53,16.53,0,0,0,6.5-1.4h0a10.86,10.86,0,0,0,4.6-3.9v2.8c0,2.7-.7,4.7-2.1,5.9s-3.6,1.8-6.6,1.9h0a22,22,0,0,1-3.6-.4,27.27,27.27,0,0,1-4-1.1,15.29,15.29,0,0,0-4.8-1.1,3.72,3.72,0,0,0-2.8,1.3h0a5.24,5.24,0,0,0-1,3.4h0a4,4,0,0,0,.8,2.6h0a7.56,7.56,0,0,0,2.1,1.9h0a22.06,22.06,0,0,0,6.1,2.1h0a39.09,39.09,0,0,0,7.6.7c6.9,0,12.2-1.5,15.8-4.6s5.4-7.6,5.4-13.5V269.6h0a6,6,0,0,0-1.7-4.4,7.33,7.33,0,0,0-4.7-1.7Zm-8.4,23.8h0a6.87,6.87,0,0,1-5.3,2.1h0a6.65,6.65,0,0,1-5.2-2.1h0a8.55,8.55,0,0,1-1.9-5.9c0-2.6.6-4.7,1.9-6.1h0a7.54,7.54,0,0,1,10.6,0c1.3,1.4,1.9,3.5,1.9,6.1a9.32,9.32,0,0,1-2,5.9Zm-30.9-20.1c2.1,2.5,3.2,6.4,3.2,11.6v15.8h0a6,6,0,0,1-1.7,4.4h0a8,8,0,0,1-9.5,0,5.59,5.59,0,0,1-1.7-4.4V279.5a8.35,8.35,0,0,0-1.1-4.7h0a3.71,3.71,0,0,0-3.4-1.4,6.48,6.48,0,0,0-4.7,1.8h0a6.94,6.94,0,0,0-1.7,5v14.5h0a6,6,0,0,1-1.7,4.4h0a8,8,0,0,1-9.5,0,5.59,5.59,0,0,1-1.7-4.4V269.4a5.13,5.13,0,0,1,1.8-4.2h0a7.4,7.4,0,0,1,4.8-1.7h0a6,6,0,0,1,4.4,1.6,5.44,5.44,0,0,1,1.7,4h0a12.76,12.76,0,0,1,4.9-4.3h0a15.6,15.6,0,0,1,6.7-1.5c4.3,0,7.4,1.3,9.5,3.8ZM277,269.7v25.1a5.51,5.51,0,0,1-1.9,4.5h0a8,8,0,0,1-9.3,0h0a5.15,5.15,0,0,1-1.8-4.5V269.6h0a5.43,5.43,0,0,1,1.8-4.5h0a8,8,0,0,1,9.3,0,5.58,5.58,0,0,1,1.9,4.6Zm.6-17.4h0a5.62,5.62,0,0,1-2,4.6h0a8.85,8.85,0,0,1-10.5,0,6.29,6.29,0,0,1-2-4.6h0a5.84,5.84,0,0,1,1.9-4.6h0a9.18,9.18,0,0,1,10.5,0h0a5.46,5.46,0,0,1,2.1,4.6Zm222.9,37a10.14,10.14,0,0,1-4.4,8.6c-2.9,2.1-6.9,3.2-11.9,3.2h0a37.35,37.35,0,0,1-8.2-.7h0a20.34,20.34,0,0,1-5.9-2.4h0a3.75,3.75,0,0,1-1.6-1.7,6.71,6.71,0,0,1-.6-2.8,4.41,4.41,0,0,1,1-3.2h0a3.37,3.37,0,0,1,2.7-1.3h0a16.46,16.46,0,0,1,2.1.2,11.72,11.72,0,0,1,2.4.9,37.14,37.14,0,0,0,4.1,1.3h0a23.15,23.15,0,0,0,4.6.5,6.86,6.86,0,0,0,3.1-.6h0a1.76,1.76,0,0,0,1.1-1.6h0a1.61,1.61,0,0,0-.6-1.3h0a6.67,6.67,0,0,0-2.1-.9c-1-.2-2.8-.6-5.2-1.1-4.4-.9-7.5-2.1-9.4-3.8a9,9,0,0,1-2.9-7.1h0a9.61,9.61,0,0,1,2.1-6.1h0a14.16,14.16,0,0,1,5.7-4.3h0a21,21,0,0,1,8.2-1.6h0a23.4,23.4,0,0,1,6.4.8,20.64,20.64,0,0,1,5.5,2.3,4.66,4.66,0,0,1,2.3,4.3,5,5,0,0,1-1.1,3.4h0a3.32,3.32,0,0,1-2.7,1.4h0a13.05,13.05,0,0,1-4.7-1.2,19.78,19.78,0,0,0-3.1-1.2,11.24,11.24,0,0,0-3.2-.4h0a5.83,5.83,0,0,0-2.9.6h0a1.68,1.68,0,0,0-1,1.6h0a1.83,1.83,0,0,0,1.4,1.8,26.41,26.41,0,0,0,5.7,1.4c4.8.8,8.1,2.1,10.1,3.8a9.07,9.07,0,0,1,3,7.2Zm-38.9-21.8c2.1,2.5,3.2,6.4,3.2,11.7V295a6,6,0,0,1-1.7,4.4h0a8,8,0,0,1-9.5,0,5.59,5.59,0,0,1-1.7-4.4V279.7a8.35,8.35,0,0,0-1.1-4.7h0a3.71,3.71,0,0,0-3.4-1.4h0a6,6,0,0,0-4.7,1.9h0a6.94,6.94,0,0,0-1.7,5V295a6,6,0,0,1-1.7,4.4h0a8,8,0,0,1-9.5,0,5.59,5.59,0,0,1-1.7-4.4V269.7a5.13,5.13,0,0,1,1.8-4.2h0a7.4,7.4,0,0,1,4.8-1.7h0a6.37,6.37,0,0,1,4.4,1.5h0a5.44,5.44,0,0,1,1.7,4h0a13.53,13.53,0,0,1,4.9-4.3h0a15.6,15.6,0,0,1,6.7-1.5c3.9.1,7.1,1.4,9.2,4Zm-72.4-18.6H370.5a5.78,5.78,0,0,0-6.3,5,2.85,2.85,0,0,0,0,1.3v39.1h0a6.32,6.32,0,0,0,5.7,6.7h1a7.18,7.18,0,0,0,5-1.8h0a6.31,6.31,0,0,0,1.8-4.8V281.9h11.5c5.6,0,10.1-1.4,13.3-4.4s4.8-7,4.8-12-1.6-9.2-4.8-12.1c-3.1-3.1-7.6-4.5-13.3-4.5Zm3.8,21.3c-1.2,1-3,1.5-5.5,1.5h-9.7V259h9.7c4.9,0,7.3,2.1,7.3,6.3A6.49,6.49,0,0,1,393,270.2Zm30.5-.5v25.2a5.51,5.51,0,0,1-1.9,4.5h0a8,8,0,0,1-9.3,0,5.51,5.51,0,0,1-1.9-4.5V269.7h0a5.23,5.23,0,0,1,1.9-4.5h0a8,8,0,0,1,9.3,0,6.19,6.19,0,0,1,1.9,4.5Zm.6-17.3a5.62,5.62,0,0,1-2,4.6h0a8.85,8.85,0,0,1-10.5,0,5.93,5.93,0,0,1-2-4.6h0a5.51,5.51,0,0,1,1.9-4.5h0a9.18,9.18,0,0,1,10.5,0h0a5.29,5.29,0,0,1,2.1,4.5Z" transform="translate(-1 -178)"/><path class="a0c17a44-3200-497f-b0b8-cbb125e2978f" d="M24,226.1a43.49,43.49,0,0,0,5.1-.2s.8-2.1,1.4-4.3c.3-1,.6-2.1.8-2.9s.3-1.3.3-1.3-.3-.5-.7-1.2a22.26,22.26,0,0,1-1.4-2.7,38.88,38.88,0,0,1-1.7-4l-.5.1H25.1l-.5.6a33.85,33.85,0,0,0,1.1,3.7,30.43,30.43,0,0,0,1.7,4,34.56,34.56,0,0,1-1.5,4.1C25,224.1,24,226.1,24,226.1Z" transform="translate(-1 -178)"/><path class="a0c17a44-3200-497f-b0b8-cbb125e2978f" d="M18.3,287.4l-.8.2s-.3,1.2-.6,2.7c1,1.7,2,3.4,3.1,5.1a5,5,0,0,0,.3-1.2,8.17,8.17,0,0,1,.7-2.9c.6-2.1,1.5-4.3,1.5-4.3l-2.5.2A8.81,8.81,0,0,0,18.3,287.4Z" transform="translate(-1 -178)"/><path class="a0c17a44-3200-497f-b0b8-cbb125e2978f" d="M41.6,289.7s-1.1-.4-2.3-.7l-2.4-.6-.9,1.1a27,27,0,0,0-1.8,2.5c-1.3,1.8-2.4,3.6-2.4,3.6s.4,2.1.7,4.4c.2,1,.2,2.1.3,2.9a11.62,11.62,0,0,1,.1,1.3l3.4,1c0,.1,0-2.2-.1-4.4s-.3-4.4-.3-4.4,1.3-1.7,2.8-3.5C40.2,291.4,41.6,289.7,41.6,289.7Z" transform="translate(-1 -178)"/><path class="a0c17a44-3200-497f-b0b8-cbb125e2978f" d="M32.2,287.3l-2.5-.3a22.86,22.86,0,0,0-2.5-.2l-1.9,4c-.4,1-.8,2.1-1.1,2.8l-.5,1.3.6,1.3c.3.8.7,1.8,1,2.9.7,2.1,1.3,4.1,1.3,4.1a31.63,31.63,0,0,1,3.2.3c-.1,0-.4-2-.9-4.1s-1.1-4.3-1.1-4.3.9-2,2-3.9S32.2,287.3,32.2,287.3Z" transform="translate(-1 -178)"/><path class="a0c17a44-3200-497f-b0b8-cbb125e2978f" d="M15.3,225l3.4.7.8-1.2c.5-.7,1-1.7,1.6-2.7,1.1-2,2-4,2-4s-.6-2-1.1-4A70.59,70.59,0,0,0,15.3,225Z" transform="translate(-1 -178)"/><path class="a0c17a44-3200-497f-b0b8-cbb125e2978f" d="M36,216.4s-.2,2.2-.6,4.4a39.52,39.52,0,0,1-.9,4.4l.8-.2a13.64,13.64,0,0,0,1.7-.4l2.4-.6s.3-2.2.5-4.4.2-4.4.2-4.4-1.5-1.6-2.9-3.3-2.5-3.6-2.5-3.6l-1.7.5a2.56,2.56,0,0,1-1.1.2l-.6.1s1,1.9,2.2,3.7S36,216.4,36,216.4Z" transform="translate(-1 -178)"/><path class="a0c17a44-3200-497f-b0b8-cbb125e2978f" d="M103.2,228s.6.6,1.2,1.3a8.65,8.65,0,0,1,.7,1l.3.5s2-.7,4.1-1.3,4.3-1.1,4.3-1.1a15.07,15.07,0,0,0,.9-1.3l-1.9-5c-.8,1.6-1.6,2.9-1.6,2.9s-2.1.6-4.1,1.4S103.2,228,103.2,228Z" transform="translate(-1 -178)"/><path class="a0c17a44-3200-497f-b0b8-cbb125e2978f" d="M112.8,278.7c1.4,1.7,2.8,3.3,2.8,3.3s2.1.4,4.4.6a1.7,1.7,0,0,1,.7.1v-4.4c-1.7-.1-3.1-.1-3.1-.1s-1.5-1.6-3.1-3.1-3.2-2.9-3.2-2.9l-.2.6a9.74,9.74,0,0,1-.5,1.1l-.8,1.6A39,39,0,0,1,112.8,278.7Z" transform="translate(-1 -178)"/><path class="a0c17a44-3200-497f-b0b8-cbb125e2978f" d="M44.6,213.4v4.4l-.1,4.4,2.1-.8,2.1-.8-.2-8.8-6-6.3-2,.8-1.8.7,2.9,3.2Z" transform="translate(-1 -178)"/><path class="a0c17a44-3200-497f-b0b8-cbb125e2978f" d="M99,224s1.8-1.1,3.6-2.1,3.9-2,3.9-2,.8-2,1.5-4.1c.5-1.5.9-3,1.1-3.8l-.4-1-.1-.1-1.2-1.1-2-1.4s-.4,2.2-1,4.4-1.2,4.2-1.2,4.2-1.9,1.1-3.7,2.4-3.5,2.5-3.5,2.5Z" transform="translate(-1 -178)"/><path class="a0c17a44-3200-497f-b0b8-cbb125e2978f" d="M53.3,209.9v4.4l.2,4.4,1.8-.7,1.3-.5.6-.2V213c0-2.3.1-4.5.1-4.5a37.63,37.63,0,0,0-2.9-3.3c-1.4-1.7-3-3.3-3-3.3l-.7.2-1.4.6-2.1.8,3.1,3.2Z" transform="translate(-1 -178)"/><path class="a0c17a44-3200-497f-b0b8-cbb125e2978f" d="M110.2,235.5l-1.3.2a31.82,31.82,0,0,1,1.6,3.2l4.4-.4a29.84,29.84,0,0,1,4-.1l-1.4-3.9s-2.2.2-4.3.5C112,235.2,111,235.3,110.2,235.5Z" transform="translate(-1 -178)"/><path class="a0c17a44-3200-497f-b0b8-cbb125e2978f" d="M94.3,215.8c1.7-1.4,3.3-2.8,3.3-2.8s.4-2.1.6-4.4.3-4.4.3-4.4l-4.4-2.1c-.1.1.1,2.2.1,4.4-.3,2.4-.4,4.5-.4,4.5s-1.6,1.5-3.1,3.1-2.9,3.2-2.9,3.2l.6.2a9.74,9.74,0,0,1,1.1.5l1.6.8A39,39,0,0,1,94.3,215.8Z" transform="translate(-1 -178)"/><path class="a0c17a44-3200-497f-b0b8-cbb125e2978f" d="M83.4,305.6s.3-2.2.5-4.4.2-4.3.2-4.3l-3.4.9-.2,1.3c-.1.8-.2,1.8-.4,2.9a41,41,0,0,1-.9,4.3,43.56,43.56,0,0,0,2.3,3.8c.7,1,1.3,2,1.8,2.7l.8,1.1,4.8-1.2s-1.5-1.7-2.9-3.5S83.4,305.6,83.4,305.6Z" transform="translate(-1 -178)"/><path class="a0c17a44-3200-497f-b0b8-cbb125e2978f" d="M97.4,304.9c-1.7-1.4-3.3-2.9-3.3-2.9s-.2-2.2-.5-4.3c-.2-1-.3-2.1-.5-2.9a5.94,5.94,0,0,1-.2-1.3l-3.2,1.6s.2,2.1.4,4.4.2,4.3.2,4.3l3,3,3.2,3s4.4-2.1,4.4-2.2l-1.1-.8C99.2,306.3,98.3,305.6,97.4,304.9Z" transform="translate(-1 -178)"/><path class="a0c17a44-3200-497f-b0b8-cbb125e2978f" d="M82.3,215.6s1.1-1.8,2.4-3.6c.6-.9,1.3-1.7,1.8-2.5l.9-1a10.3,10.3,0,0,0-.1-1.3c-.1-.8-.2-1.9-.3-3-.2-2.2-.6-4.4-.6-4.4l-2.4-.6-2.5-.4s.6,2.1,1,4.3c.2,1,.4,2.1.6,3a5.94,5.94,0,0,1,.2,1.3l-.7,1.1c-.5.7-1,1.6-1.6,2.6-1.1,1.9-2.1,3.8-2.1,3.8l1.7.2Z" transform="translate(-1 -178)"/><path class="a0c17a44-3200-497f-b0b8-cbb125e2978f" d="M111.5,287.7s-1.1-1.9-2.4-3.7-2.5-3.5-2.5-3.5l-2.1,2.9s1.1,1.8,2.1,3.6,2,3.9,2,3.9,2,.8,4.1,1.5c2.4.9,4.5,1.5,4.5,1.5l2.9-4s-2.2-.4-4.4-1Z" transform="translate(-1 -178)"/><path class="a0c17a44-3200-497f-b0b8-cbb125e2978f" d="M103.6,295.8s-.6-2.1-1.4-4.1-1.7-4-1.7-4l-1.3,1.2a3.92,3.92,0,0,1-1,.8l-.5.3s.7,2,1.3,4.1,1.1,4.3,1.1,4.3,1.7,1.2,3.6,2.4c2.1,1.1,4.1,2.2,4.1,2.2l.6-.5a6.42,6.42,0,0,0,1.3-1l1.8-1.7s-2.1-.9-4-1.9S103.6,295.8,103.6,295.8Z" transform="translate(-1 -178)"/><path class="a0c17a44-3200-497f-b0b8-cbb125e2978f" d="M74.2,197.9s-1.2-.1-2.5-.1l-2.5.1s1,2,1.9,4,1.7,4.1,1.7,4.1-.8,2-1.5,4.1-1.2,4.1-1.2,4.1l1.7-.1a15.44,15.44,0,0,1,1.7.1s.7-2,1.6-4l1.8-4s-.4-1.9-1.1-4.1S74.2,197.9,74.2,197.9Z" transform="translate(-1 -178)"/><path class="a0c17a44-3200-497f-b0b8-cbb125e2978f" d="M58.7,296.4l-1.7-.6-1.8-.7-2.9,3.2-3,3.2s0,2.2-.1,4.4v4.4l2.1.8,2.2.8s-.2-2.2-.2-4.4-.1-4.4-.1-4.4,1.3-1.6,2.8-3.3S58.7,296.4,58.7,296.4Z" transform="translate(-1 -178)"/><path class="a0c17a44-3200-497f-b0b8-cbb125e2978f" d="M64.9,298.1l-1.7-.4s-.3.5-.7,1.2a22.34,22.34,0,0,1-1.7,2.5c-1.2,1.7-2.5,3.5-2.5,3.5s.2,2.2.5,4.4c.2,1.1.3,2.2.5,3a5.94,5.94,0,0,1,.2,1.3l2.4.6a12.23,12.23,0,0,0,1.7.3l.8.1s-.6-2.1-1.1-4.3-.8-4.4-.8-4.4,1.2-1.8,2.3-3.7a29,29,0,0,0,1.9-3.8l-.6-.1C65.7,298.2,65.3,298.2,64.9,298.1Z" transform="translate(-1 -178)"/><path class="a0c17a44-3200-497f-b0b8-cbb125e2978f" d="M63,199.9l-.8-1.2s-4.8,1-4.8,1.1,1.4,1.7,2.7,3.5,2.5,3.6,2.5,3.6-.4,2.1-.6,4.3-.3,4.4-.3,4.4l3.4-.8.2-1.3c.1-.8.3-1.8.5-2.9.4-2.1,1-4.3,1-4.3s-.9-1.8-2.1-3.8C64.1,201.5,63.5,200.6,63,199.9Z" transform="translate(-1 -178)"/><path class="a0c17a44-3200-497f-b0b8-cbb125e2978f" d="M73,306.8s.8-2.1,1.4-4.2a22.26,22.26,0,0,1,.9-4l-1.7.1-1.2.1h-.6s-.6,2-1.4,4-1.7,4-1.7,4,.6,2.1,1.4,4.2,1.7,4.2,1.7,4.2h.8l1.7-.1,2.5-.2s-1.1-2-2-4S73,306.8,73,306.8Z" transform="translate(-1 -178)"/><path class="a0c17a44-3200-497f-b0b8-cbb125e2978f" d="M48.4,292.5l-2.1-.8-3,3.2c-1.5,1.6-2.9,3.2-2.9,3.2s.1,2.1,0,4.4v4.3l1.8.8,1.9.8.2-8.8,6.1-6.3Z" transform="translate(-1 -178)"/><path class="b291b1a9-09fc-4d54-97f2-d3421c7da06e" d="M128.1,307.4c-.2-.2-.4-.5-.6-.7s-.4-.5-.6-.7-.4-.5-.6-.7-.4-.5-.6-.7-.4-.5-.6-.7-.4-.5-.6-.7-.4-.5-.6-.7a12.62,12.62,0,0,1-3.2-8.8v-1.2a69.1,69.1,0,0,1-44.9,31.3,71.79,71.79,0,0,1-13,1.4,72.72,72.72,0,0,0,16.3,1.9,70.55,70.55,0,0,0,49-19.7Z" transform="translate(-1 -178)"/><path class="b291b1a9-09fc-4d54-97f2-d3421c7da06e" d="M105.3,201.7v-.2a13.72,13.72,0,0,1-.9-4.9,11.9,11.9,0,0,1,1.8-6.4,71.52,71.52,0,0,0-27.1-5.3,69,69,0,0,0-16.5,2,69.2,69.2,0,0,1,43,15.5Z" transform="translate(-1 -178)"/></svg>