<?xml version="1.0" encoding="UTF-8" standalone="no"?>
<!DOCTYPE svg PUBLIC "-//W3C//DTD SVG 1.1//EN" "http://www.w3.org/Graphics/SVG/1.1/DTD/svg11.dtd">
<svg width="100%" height="100%" viewBox="0 0 511 185" version="1.1" xmlns="http://www.w3.org/2000/svg" xmlns:xlink="http://www.w3.org/1999/xlink" xml:space="preserve" xmlns:serif="http://www.serif.com/" style="fill-rule:evenodd;clip-rule:evenodd;stroke-linejoin:round;stroke-miterlimit:2;">
    <g transform="matrix(1,0,0,1,-0.98,-163.83)">
        <path d="M43.3,313.4C40.7,314.6 36.1,316.4 33.2,314.7C28.4,311.9 28.8,300.2 30.5,291.1C33.3,276.4 40.4,258.7 50.6,241.3C51.9,239.1 53.3,236.9 54.6,234.7C52.1,228.1 50.3,223.1 50.3,223.1C49.392,220.53 48.918,217.826 48.9,215.1C48.797,208.742 51.643,202.682 56.6,198.7C64.163,192.591 74.819,191.908 83.1,197C83.8,197.5 84.5,198 85.1,198.5C88.402,195.708 92.028,193.324 95.9,191.4C98.5,190.2 103.2,188.4 106,190.1C107.216,190.872 108.134,192.037 108.6,193.4C112.184,193.802 115.617,195.072 118.6,197.1C120.443,198.393 122.093,199.942 123.5,201.7C124.926,199.86 126.65,198.271 128.6,197C130.432,195.807 132.417,194.865 134.5,194.2C132.6,185.1 128.1,180.1 123.7,177.5C123,177.1 121.9,176.4 120.6,175.6C116,172.7 109.1,168.3 104.9,166.2C97.7,162.6 89.1,163.1 79.3,167.7C61.7,176 40.8,198.3 24.7,225.9C13.5,245.1 5.3,266.3 2.3,283.9C-1.3,305.1 2.5,319.8 13.3,326.5C15.2,327.7 17.7,329.3 20,330.9C23.3,333.1 25.4,334.5 26.6,335.2C32,338.3 41.5,340.5 55.4,333.9C58.422,332.456 61.331,330.785 64.1,328.9C62.1,323.4 58.5,313.6 55.4,305.2C51.741,308.448 47.673,311.205 43.3,313.4Z" style="fill-rule:nonzero;"/>
    </g>
    <g transform="matrix(1,0,0,1,-0.98,-163.83)">
        <path d="M508.5,308.3C509.343,305.926 509.75,303.419 509.7,300.9C509.803,293.663 506.02,286.9 499.8,283.2C496.704,281.385 493.373,280.005 489.9,279.1C486.411,278.17 482.81,277.732 479.2,277.8C476.105,277.781 473.018,278.117 470,278.8C469.187,274.904 467.319,271.306 464.6,268.4C466.585,265.186 467.625,261.477 467.6,257.7C467.61,255.534 467.306,253.379 466.7,251.3C467.413,249.138 467.784,246.877 467.8,244.6C467.869,238.629 466.497,232.728 463.8,227.4C461.041,221.996 456.766,217.513 451.5,214.5C446.3,211.522 440.392,210.002 434.4,210.1C430.772,210.07 427.161,210.61 423.7,211.7C422.896,206.743 420.341,202.235 416.5,199C407.908,192.225 395.692,192.225 387.1,199C383.325,202.122 380.774,206.48 379.9,211.3C376.466,210.452 372.937,210.048 369.4,210.1C365.601,210.098 361.813,210.5 358.1,211.3C354.533,211.978 351.07,213.121 347.8,214.7C345.131,213.292 342.314,212.186 339.4,211.4C330.984,209.25 322.104,209.774 314,212.9C311.903,213.706 309.919,214.782 308.1,216.1C307.3,215.5 306.4,215 305.5,214.4C300.3,211.422 294.392,209.902 288.4,210C284.772,209.97 281.161,210.51 277.7,211.6C276.896,206.643 274.341,202.135 270.5,198.9C261.908,192.125 249.692,192.125 241.1,198.9C237.173,202.163 234.575,206.754 233.8,211.8C229.689,210.519 225.406,209.879 221.1,209.9C214.794,209.803 208.555,211.209 202.9,214C201.545,214.67 200.242,215.438 199,216.3C194.437,212.416 188.689,210.194 182.7,210C181.702,205.815 179.431,202.041 176.2,199.2C172.035,195.617 166.692,193.694 161.2,193.8C157.712,193.777 154.262,194.528 151.1,196C143.963,192.434 135.435,192.97 128.8,197.4C126.892,198.724 125.175,200.306 123.7,202.1C122.319,200.319 120.665,198.766 118.8,197.5C111.341,192.43 101.5,192.39 94,197.4C92.014,198.703 90.257,200.324 88.8,202.2C87.226,200.14 85.295,198.379 83.1,197C74.819,191.908 64.163,192.591 56.6,198.7C51.643,202.682 48.797,208.742 48.9,215.1C48.918,217.826 49.392,220.53 50.3,223.1C51.208,225.67 60.8,251.3 64.7,262C61.74,262.829 58.983,264.259 56.6,266.2C51.643,270.182 48.797,276.242 48.9,282.6C48.918,285.326 49.392,288.03 50.3,290.6C50.3,290.7 66.2,333.5 66.2,333.5C67.895,338.26 71.228,342.267 75.6,344.8C83.208,349.295 92.692,349.295 100.3,344.8C102.372,343.576 104.229,342.023 105.8,340.2C107.371,342.023 109.228,343.576 111.3,344.8C118.908,349.295 128.392,349.295 136,344.8C137.505,343.879 138.913,342.807 140.2,341.6C140.643,342.058 141.11,342.492 141.6,342.9C150.15,349.479 162.15,349.479 170.7,342.9C171.3,342.4 172,341.8 172.6,341.2C173.185,341.818 173.821,342.387 174.5,342.9C178.632,346.221 183.8,347.99 189.1,347.9C193.206,347.93 197.247,346.859 200.8,344.8C202.899,345.694 205.075,346.397 207.3,346.9C211.28,347.716 215.338,348.085 219.4,348C228,348 235.3,345.9 241.1,341.7C241.214,341.576 241.35,341.475 241.5,341.4C246.578,345.09 252.629,347.211 258.9,347.5L261.3,347.6L263.3,347.6C266.363,347.606 269.405,347.099 272.3,346.1C275.042,347.154 277.963,347.664 280.9,347.6C283.8,347.606 286.678,347.098 289.4,346.1C292.72,347.214 296.198,347.788 299.7,347.8C305.81,347.836 311.797,346.061 316.9,342.7C317.1,342.5 317.4,342.4 317.6,342.2C318.86,343.116 320.199,343.919 321.6,344.6C325.986,346.752 330.815,347.848 335.7,347.8C338.724,347.832 341.732,347.359 344.6,346.4C350.599,348.379 357.143,347.911 362.8,345.1C366.132,346.829 369.847,347.689 373.6,347.6C378.138,347.657 382.592,346.369 386.4,343.9C394.57,349.078 405.114,348.801 413,343.2C417.909,346.198 423.548,347.79 429.3,347.8C432.805,347.83 436.29,347.255 439.6,346.1C442.32,347.107 445.2,347.615 448.1,347.6C452.206,347.63 456.247,346.559 459.8,344.5C461.899,345.394 464.075,346.097 466.3,346.6C470.28,347.416 474.338,347.785 478.4,347.7C487,347.7 494.3,345.6 500.1,341.4C507.127,336.474 511.286,328.382 511.2,319.8C511.251,315.493 510.256,311.237 508.3,307.4L508.5,308.3Z" style="fill-rule:nonzero;"/>
    </g>
    <g transform="matrix(1,0,0,1,-0.98,-163.83)">
        <path d="M499.7,308.7C501.326,306.393 502.168,303.622 502.1,300.8C502.245,296.245 499.855,291.965 495.9,289.7C493.437,288.229 490.777,287.118 488,286.4C485.121,285.684 482.167,285.315 479.2,285.3C475.163,285.275 471.157,286.022 467.4,287.5C465.742,288.19 464.165,289.062 462.7,290.1L462.7,283C462.695,276.553 458.189,270.92 451.9,269.5C452.125,269.382 452.359,269.282 452.6,269.2C452.654,269.146 452.724,269.111 452.8,269.1C457.162,266.941 459.924,262.467 459.9,257.6C459.929,255.301 459.379,253.031 458.3,251C459.499,249.05 460.091,246.787 460,244.5C460.082,239.751 459.019,235.051 456.9,230.8C454.815,226.702 451.583,223.297 447.6,221C443.55,218.701 438.957,217.527 434.3,217.6C429.464,217.57 424.705,218.812 420.5,221.2C418.999,222.051 417.591,223.056 416.3,224.2L416.3,215.6C416.441,211.457 414.67,207.471 411.5,204.8C405.723,200.314 397.577,200.314 391.8,204.8C388.614,207.415 386.835,211.381 387,215.5L387,223.2C382.7,219.4 376.8,217.5 369.3,217.5C366.04,217.481 362.788,217.816 359.6,218.5C356.515,219.106 353.523,220.115 350.7,221.5L350.5,221.6C349.451,222.139 348.476,222.811 347.6,223.6C346.876,222.978 346.107,222.41 345.3,221.9C342.837,220.429 340.177,219.318 337.4,218.6C334.521,217.884 331.567,217.515 328.6,217.5C324.563,217.475 320.557,218.222 316.8,219.7C313.332,221.081 310.27,223.317 307.9,226.2C306.116,224.089 303.985,222.296 301.6,220.9C297.55,218.601 292.957,217.427 288.3,217.5C283.464,217.47 278.705,218.712 274.5,221.1C272.999,221.951 271.591,222.956 270.3,224.1L270.3,215.3C270.441,211.157 268.67,207.171 265.5,204.5C259.723,200.014 251.577,200.014 245.8,204.5C242.614,207.115 240.835,211.081 241,215.2L241,224.1C239.38,222.698 237.601,221.489 235.7,220.5C226.4,216.103 215.6,216.103 206.3,220.5C203.171,222.114 200.385,224.321 198.1,227C197.595,226.009 196.992,225.071 196.3,224.2C193.7,221 188.9,217.2 180.3,217.2C178.724,217.18 177.15,217.314 175.6,217.6L175.6,214.7C175.623,210.816 173.984,207.102 171.1,204.5C168.311,202.134 164.757,200.855 161.1,200.9C157.352,200.778 153.698,202.104 150.9,204.6L150.6,204.3C147.983,202.005 144.619,200.739 141.138,200.739C136.928,200.739 132.925,202.591 130.2,205.8C129.017,207.186 128.102,208.78 127.5,210.5L123.6,221.4L119.9,210.7C117.947,204.839 112.426,200.86 106.248,200.86C100.185,200.86 94.743,204.692 92.7,210.4L88.7,221.3L84.9,210.5C83.893,207.431 81.839,204.811 79.1,203.1C73.575,199.691 66.46,200.133 61.4,204.2C58.213,206.736 56.397,210.628 56.5,214.7C56.474,216.581 56.813,218.449 57.5,220.2L73.1,263C74.223,266.093 76.378,268.707 79.2,270.4C84.364,273.495 90.836,273.495 96,270.4C98.811,268.786 100.969,266.238 102.1,263.2L105.5,253.9L108.7,263C109.823,266.093 111.978,268.707 114.8,270.4C117.381,271.902 120.314,272.696 123.3,272.7C126.292,272.743 129.238,271.946 131.8,270.4C134.695,268.768 136.9,266.136 138,263L146.1,241.2L146.1,258.3C146.011,262.234 147.614,266.024 150.5,268.7C156.394,273.681 165.106,273.681 171,268.7C172.025,267.773 172.902,266.693 173.6,265.5C174.266,266.715 175.147,267.8 176.2,268.7C176.7,269.1 177.2,269.6 177.8,270C174.971,272.624 173.403,276.342 173.5,280.2C173.487,281.761 173.724,283.314 174.2,284.8L171.9,284.8C169.133,284.916 166.429,285.669 164,287C161.572,285.401 158.705,284.597 155.8,284.7L154.7,284.7C154.904,283.781 155.005,282.842 155,281.9C155.053,277.96 153.369,274.19 150.4,271.6C147.77,269.299 144.392,268.029 140.897,268.029C136.718,268.029 132.739,269.844 130,273C128.817,274.386 127.902,275.98 127.3,277.7L123.4,288.6L119.7,277.9C117.747,272.039 112.226,268.06 106.048,268.06C99.985,268.06 94.543,271.892 92.5,277.6L88.5,288.5L84.5,278C83.493,274.931 81.439,272.311 78.7,270.6C73.175,267.191 66.06,267.633 61,271.7C57.813,274.236 55.997,278.128 56.1,282.2C56.083,284.08 56.422,285.946 57.1,287.7L73,330.4C74.123,333.493 76.278,336.107 79.1,337.8C84.264,340.895 90.736,340.895 95.9,337.8C98.711,336.186 100.869,333.638 102,330.6L105.4,321.3L108.6,330.4C109.723,333.493 111.878,336.107 114.7,337.8C117.281,339.302 120.214,340.096 123.2,340.1C126.192,340.143 129.138,339.346 131.7,337.8C134.595,336.168 136.8,333.536 137.9,330.4L141.2,321.5L141.2,325.7C140.984,329.878 142.813,333.911 146.1,336.5C151.875,340.887 159.925,340.887 165.7,336.5C168.95,333.882 170.77,329.87 170.6,325.7L170.6,312C170.772,312.007 170.944,311.972 171.1,311.9L173.4,311.7C173.7,311.7 173.9,311.6 174.2,311.6L174.2,325.7C173.984,329.878 175.813,333.911 179.1,336.5C184.875,340.887 192.925,340.887 198.7,336.5C199.124,336.161 199.525,335.793 199.9,335.4C200,335.4 200.1,335.5 200.2,335.6C202.859,337.2 205.765,338.349 208.8,339C212.255,339.696 215.777,339.998 219.3,339.9C226.2,339.9 232,338.3 236.5,335C238.4,333.617 240.056,331.928 241.4,330C242.047,331.056 242.82,332.029 243.7,332.9C247.5,336.8 252.7,338.9 259.4,339.4L261.7,339.5L263.3,339.5C266.455,339.584 269.572,338.787 272.3,337.2C272.355,337.2 272.4,337.155 272.4,337.1C274.922,338.747 277.889,339.584 280.9,339.5C283.829,339.543 286.711,338.745 289.2,337.2L289.3,337.2C299.017,341.976 310.833,339.488 317.8,331.2C319.69,333.718 322.16,335.742 325,337.1C328.305,338.694 331.931,339.514 335.6,339.5C338.714,339.541 341.796,338.856 344.6,337.5C346.841,338.722 349.348,339.375 351.9,339.4C355.667,339.532 359.337,338.165 362.1,335.6L362.6,335.1C362.774,335.295 362.976,335.464 363.2,335.6C369.094,340.581 377.806,340.581 383.7,335.6C384.725,334.673 385.602,333.593 386.3,332.4C386.966,333.615 387.847,334.7 388.9,335.6C394.829,340.588 403.571,340.588 409.5,335.6C410.591,334.594 411.504,333.411 412.2,332.1C413.46,333.425 414.869,334.6 416.4,335.6C423.408,340.129 432.302,340.661 439.8,337L439.9,337C442.361,338.514 445.211,339.279 448.1,339.2C451.848,339.322 455.502,337.996 458.3,335.5L459,334.8C459.1,334.9 459.3,334.9 459.4,335C462.032,336.583 464.902,337.731 467.9,338.4C471.355,339.096 474.877,339.398 478.4,339.3C485.3,339.3 491.1,337.7 495.6,334.4C500.665,330.938 503.643,325.133 503.5,319C503.646,314.665 502.185,310.425 499.4,307.1L499.7,308.7ZM263.1,278.5C257.208,273.323 248.292,273.323 242.4,278.5C240.006,280.722 238.51,283.748 238.2,287C236.981,287.327 235.829,287.869 234.8,288.6C232.891,287.72 230.919,286.984 228.9,286.4C226.021,285.684 223.067,285.315 220.1,285.3C216.063,285.275 212.057,286.022 208.3,287.5C205.822,288.465 203.549,289.89 201.6,291.7C201.333,291.277 201.032,290.875 200.7,290.5C205.985,284.616 205.535,275.439 199.7,270.1C199.056,269.554 198.351,269.085 197.6,268.7C198.535,267.69 199.31,266.543 199.9,265.3C201.813,267.119 203.966,268.666 206.3,269.9C215.6,274.297 226.4,274.297 235.7,269.9C238.108,268.656 240.303,267.036 242.2,265.1C243.01,266.93 244.244,268.541 245.8,269.8C251.575,274.187 259.625,274.187 265.4,269.8C266.891,268.583 268.088,267.045 268.9,265.3C270.801,267.205 272.995,268.792 275.4,270C275.477,270.007 275.548,270.043 275.6,270.1C273.857,270.699 272.257,271.652 270.9,272.9C267.978,275.474 266.331,279.207 266.4,283.1L266.4,283.8C265.704,281.764 264.499,279.94 262.9,278.5L263.1,278.5ZM433.5,282.8L433.5,285.6C432.176,285.401 430.839,285.3 429.5,285.3C424.917,285.272 420.416,286.519 416.5,288.9C414.128,290.36 412.057,292.261 410.4,294.5C409.935,293.688 409.4,292.918 408.8,292.2C406.2,289 401.3,285.3 392.6,285.3C388.971,285.263 385.381,286.049 382.1,287.6L381.9,287.7C379.472,286.101 376.605,285.297 373.7,285.4C369.952,285.278 366.298,286.604 363.5,289.1C362.378,290.102 361.432,291.285 360.7,292.6C360.462,292.276 360.194,291.974 359.9,291.7C355.6,287.4 349.3,285.2 341.3,285.2C338.007,285.186 334.722,285.521 331.5,286.2C328.415,286.806 325.423,287.815 322.6,289.2C322.523,289.207 322.452,289.243 322.4,289.3C320.563,290.237 318.983,291.611 317.8,293.3C316.281,291.569 314.531,290.055 312.6,288.8C308.704,286.374 304.189,285.124 299.6,285.2C298.261,285.2 296.924,285.301 295.6,285.5L295.6,282.7C295.607,279.065 294.167,275.573 291.6,273C293.933,272.886 296.247,272.517 298.5,271.9C301.231,271.268 303.881,270.328 306.4,269.1C306.454,269.046 306.524,269.011 306.6,269C307,268.8 307.4,268.5 307.9,268.2C308.174,268.409 308.478,268.577 308.8,268.7C311.459,270.3 314.365,271.449 317.4,272.1C320.855,272.796 324.377,273.098 327.9,273C334.8,273 340.6,271.4 345.1,268.1C345.868,267.584 346.573,266.98 347.2,266.3C348.856,268.004 350.782,269.423 352.9,270.5C356.205,272.094 359.831,272.914 363.5,272.9C366.614,272.941 369.696,272.256 372.5,270.9C374.741,272.122 377.248,272.775 379.8,272.8C383.567,272.932 387.237,271.565 390,269C390.157,268.854 390.292,268.685 390.4,268.5C390.744,268.858 391.111,269.192 391.5,269.5C397.275,273.887 405.325,273.887 411.1,269.5C412.591,268.283 413.788,266.745 414.6,265C416.501,266.905 418.695,268.492 421.1,269.7C425.675,271.933 430.71,273.063 435.8,273L437,273C434.408,275.507 432.991,278.996 433.1,282.6L433.5,282.8Z" style="fill:white;fill-rule:nonzero;"/>
    </g>
    <g transform="matrix(1,0,0,1,-0.98,-163.83)">
        <path d="M141.2,276.7C139.807,276.683 138.443,277.103 137.3,277.9C136.091,278.724 135.179,279.917 134.7,281.3L123.5,313L112.8,281.4C111.899,278.607 109.282,276.702 106.348,276.702C104.974,276.702 103.631,277.12 102.5,277.9C101.291,278.724 100.379,279.917 99.9,281.3L88.5,312.3L77.8,281.3C77.358,279.898 76.437,278.694 75.2,277.9C73.955,277.176 72.54,276.796 71.1,276.8C69.315,276.751 67.571,277.355 66.2,278.5C64.791,279.596 64.005,281.317 64.1,283.1C64.12,284.119 64.288,285.13 64.6,286.1L80.5,328.8C80.993,330.233 81.988,331.441 83.3,332.2C84.698,333.005 86.287,333.42 87.9,333.4C89.48,333.406 91.033,332.991 92.4,332.2C93.694,331.393 94.707,330.205 95.3,328.8L106,299.6L116.2,328.8C116.693,330.233 117.688,331.441 119,332.2C120.398,333.005 121.987,333.42 123.6,333.4C125.211,333.406 126.797,332.992 128.2,332.2C129.54,331.448 130.569,330.242 131.1,328.8L146.9,286.1C147.244,285.1 147.446,284.056 147.5,283C147.602,281.287 146.899,279.621 145.6,278.5C144.357,277.405 142.756,276.8 141.1,276.8L141.2,276.7ZM173.8,293.1L172.7,293.2C170.554,293.299 168.476,293.991 166.7,295.2C164.8,296.48 163.362,298.339 162.6,300.5L162.6,299C162.74,297.331 162.069,295.693 160.8,294.6C159.495,293.488 157.813,292.915 156.1,293C154.335,292.978 152.612,293.541 151.2,294.6C149.833,295.721 149.088,297.436 149.2,299.2L149.2,326.4C149.085,328.223 149.825,329.999 151.2,331.2C154.195,333.296 158.205,333.296 161.2,331.2C162.589,329.966 163.329,328.154 163.2,326.3L163.2,312.8C163.084,310.853 163.689,308.93 164.9,307.4C166.384,305.891 168.386,304.998 170.5,304.9L172.9,304.7C175.4,304.5 177.2,303.8 178.1,302.9C179.196,301.634 179.705,299.962 179.5,298.3C179.647,296.699 179.057,295.116 177.9,294C176.702,293.009 175.138,292.573 173.6,292.8L173.8,293.1ZM194.8,276C191.461,273.606 186.939,273.606 183.6,276C182.174,277.215 181.396,279.03 181.5,280.9C181.396,282.77 182.174,284.585 183.6,285.8C186.905,288.293 191.495,288.293 194.8,285.8C196.167,284.542 196.932,282.757 196.9,280.9C197.004,279.03 196.226,277.215 194.8,276ZM194.2,294.8C191.205,292.704 187.195,292.704 184.2,294.8C182.825,296.001 182.085,297.777 182.2,299.6L182.2,326.6C182.085,328.423 182.825,330.199 184.2,331.4C187.195,333.496 191.205,333.496 194.2,331.4C195.589,330.166 196.329,328.354 196.2,326.5L196.2,299.5C196.297,297.651 195.563,295.853 194.2,294.6L194.2,294.8ZM233.9,312.9C231.8,311.1 228.2,309.7 223.2,308.8C221.11,308.515 219.061,307.978 217.1,307.2C216.197,306.967 215.571,306.132 215.6,305.2C215.596,304.467 216.03,303.797 216.7,303.5C217.682,303.09 218.737,302.886 219.8,302.9C220.946,302.885 222.089,303.019 223.2,303.3C224.332,303.646 225.436,304.081 226.5,304.6C228.021,305.38 229.692,305.823 231.4,305.9C232.553,305.907 233.639,305.346 234.3,304.4C235.095,303.332 235.517,302.031 235.5,300.7C235.62,298.842 234.693,297.064 233.1,296.1C231.263,295.012 229.275,294.203 227.2,293.7C224.949,293.1 222.629,292.797 220.3,292.8C217.293,292.779 214.307,293.321 211.5,294.4C209.045,295.325 206.897,296.918 205.3,299C203.798,300.825 203.015,303.138 203.1,305.5C202.889,308.406 204.035,311.251 206.2,313.2C208.3,315 211.6,316.4 216.3,317.3C218.9,317.8 220.8,318.2 221.9,318.5C222.698,318.606 223.456,318.916 224.1,319.4C224.492,319.715 224.714,320.197 224.7,320.7C224.65,321.445 224.185,322.103 223.5,322.4C222.446,322.801 221.327,323.004 220.2,323C218.552,323.032 216.907,322.864 215.3,322.5C213.776,322.153 212.274,321.719 210.8,321.2C210,320.9 209.2,320.6 208.3,320.3C207.583,320.102 206.843,320.001 206.1,320C204.971,319.999 203.902,320.516 203.2,321.4C202.395,322.38 202.001,323.635 202.1,324.9C202.105,325.929 202.309,326.948 202.7,327.9C203.008,328.724 203.615,329.402 204.4,329.8C206.345,330.981 208.475,331.826 210.7,332.3C213.639,332.819 216.616,333.086 219.6,333.1C224.9,333.1 229.2,332 232.4,329.7C235.459,327.653 237.271,324.18 237.2,320.5C237,317.2 236,314.6 233.9,312.9ZM265.3,323.1L263,323C262.108,322.994 261.265,322.59 260.7,321.9C260.112,321.2 259.793,320.314 259.8,319.4L259.8,304.3L264.1,304.3C268.3,304.3 270.4,302.6 270.4,299.1C270.4,295.6 268.3,294 264.1,294L259.8,294L259.8,288.9C259.887,287.102 259.194,285.352 257.9,284.1C254.935,281.707 250.665,281.707 247.7,284.1C246.391,285.341 245.695,287.099 245.8,288.9L245.8,294L243.5,294C239.3,294 237.2,295.7 237.2,299.1C237.2,302.6 239.3,304.3 243.5,304.3L245.8,304.3L245.8,318.2C245.8,322.7 247,326.1 249.5,328.6C252,331.1 255.5,332.5 260.2,332.9L262.4,333C264.465,333.249 266.558,332.865 268.4,331.9C269.801,331.027 270.61,329.447 270.5,327.8C270.5,324.8 268.8,323.3 265.3,323.1ZM308.7,295.4C306.045,293.717 302.941,292.88 299.8,293C297.45,292.985 295.126,293.498 293,294.5C291.074,295.427 289.394,296.798 288.1,298.5L288.1,282.8C288.155,281.124 287.458,279.509 286.2,278.4C284.768,277.295 283.009,276.697 281.2,276.7C279.295,276.573 277.419,277.223 276,278.5C274.711,279.637 273.98,281.281 274,283L274,326.5C273.923,328.248 274.576,329.951 275.8,331.2C277.19,332.391 278.97,333.031 280.8,333C282.531,333.122 284.246,332.586 285.6,331.5C286.832,330.437 287.589,328.923 287.7,327.3C288.812,329.199 290.491,330.703 292.5,331.6C297.621,333.984 303.618,333.607 308.4,330.6C311.069,328.847 313.157,326.341 314.4,323.4C315.874,320.062 316.624,316.449 316.6,312.8C316.722,309.174 315.967,305.572 314.4,302.3C313.256,299.468 311.265,297.058 308.7,295.4ZM301.1,320.2C299.688,321.814 297.645,322.742 295.5,322.742C293.698,322.742 291.956,322.087 290.6,320.9C290.342,320.692 290.108,320.458 289.9,320.2C288.46,318.086 287.757,315.554 287.9,313C287.9,309.9 288.5,307.6 289.9,305.9C291.268,304.233 293.346,303.306 295.5,303.4C297.606,303.295 299.645,304.184 301,305.8C302.423,307.843 303.094,310.318 302.9,312.8C303.21,315.402 302.571,318.031 301.1,320.2ZM341.3,292.9C338.548,292.914 335.803,293.181 333.1,293.7C330.698,294.117 328.372,294.893 326.2,296C325.26,296.437 324.463,297.13 323.9,298C323.412,298.851 323.17,299.82 323.2,300.8C323.151,302.136 323.576,303.447 324.4,304.5C325.173,305.404 326.311,305.918 327.5,305.9C328.562,305.895 329.613,305.691 330.6,305.3C333.598,304.075 336.77,303.332 340,303.1C341.498,302.985 342.989,303.411 344.2,304.3C345.142,305.406 345.578,306.858 345.4,308.3L345.4,309.2L343.2,309.2C338.938,309.06 334.675,309.43 330.5,310.3C327.876,310.736 325.459,311.998 323.6,313.9C322.11,315.77 321.33,318.11 321.4,320.5C321.379,322.792 322.003,325.045 323.2,327C324.446,328.947 326.213,330.506 328.3,331.5C330.544,332.582 333.009,333.13 335.5,333.1C337.672,333.128 339.813,332.576 341.7,331.5C343.388,330.486 344.691,328.937 345.4,327.1C345.411,328.734 346.1,330.292 347.3,331.4C350.061,333.563 353.986,333.521 356.7,331.3C357.896,330.039 358.513,328.334 358.4,326.6L358.4,310C358.4,304.2 357,299.8 354.1,297C351.2,294.2 346.8,292.7 340.9,292.7L341.3,292.9ZM345.5,316.7C345.515,318.588 344.879,320.425 343.7,321.9C342.484,323.196 340.777,323.922 339,323.9C337.907,323.93 336.852,323.493 336.1,322.7C335.307,321.913 334.904,320.813 335,319.7C334.938,318.344 335.804,317.106 337.1,316.7C339.399,316.002 341.8,315.698 344.2,315.8L345.4,315.8L345.5,316.7ZM392.7,292.9C390.21,292.881 387.748,293.428 385.5,294.5C383.347,295.521 381.514,297.112 380.2,299.1C380.225,297.479 379.572,295.919 378.4,294.8C377.052,293.684 375.35,293.081 373.6,293.1C371.726,292.974 369.88,293.625 368.5,294.9C367.211,296.037 366.48,297.681 366.5,299.4L366.5,326.6C366.395,328.371 367.094,330.099 368.4,331.3C371.402,333.593 375.598,333.593 378.6,331.3C379.896,330.092 380.592,328.369 380.5,326.6L380.5,310.9C380.373,308.935 381.019,306.996 382.3,305.5C383.582,304.118 385.419,303.384 387.3,303.5C388.718,303.406 390.098,304.002 391,305.1C391.886,306.611 392.304,308.351 392.2,310.1L392.2,326.4C392.095,328.171 392.794,329.899 394.1,331.1C397.102,333.393 401.298,333.393 404.3,331.1C405.596,329.892 406.292,328.169 406.2,326.4L406.2,309.4C406.2,303.8 405.1,299.6 402.8,296.9C400.5,294.2 397.1,292.7 392.5,292.7L392.7,292.9ZM453.1,278.5C451.634,277.304 449.791,276.666 447.9,276.7C446.095,276.614 444.319,277.182 442.9,278.3C441.669,279.42 441.007,281.038 441.1,282.7L441.1,298.4C439.852,296.655 438.16,295.274 436.2,294.4C434.071,293.407 431.749,292.895 429.4,292.9C426.271,292.876 423.193,293.706 420.5,295.3C417.847,296.938 415.754,299.345 414.5,302.2C413.027,305.503 412.276,309.083 412.3,312.7C412.216,316.355 412.969,319.98 414.5,323.3C415.813,326.227 417.928,328.724 420.6,330.5C425.381,333.511 431.38,333.888 436.5,331.5C438.509,330.603 440.188,329.099 441.3,327.2C441.39,328.829 442.151,330.351 443.4,331.4C446.349,333.482 450.338,333.401 453.2,331.2C454.496,329.992 455.192,328.269 455.1,326.5L455.1,283C455.12,281.281 454.389,279.637 453.1,278.5ZM439.4,320.2C438.032,321.867 435.954,322.794 433.8,322.7C431.652,322.796 429.59,321.821 428.3,320.1C426.8,317.976 426.092,315.392 426.3,312.8C426.092,310.302 426.804,307.812 428.3,305.8C429.74,304.236 431.772,303.345 433.898,303.345C435.83,303.345 437.69,304.08 439.1,305.4L439.5,305.8C440.8,307.4 441.4,309.8 441.5,312.9C441.564,315.491 440.831,318.039 439.4,320.2ZM492.9,312.8C490.8,311 487.2,309.6 482.2,308.7C480.11,308.415 478.061,307.878 476.1,307.1C475.197,306.867 474.571,306.032 474.6,305.1C474.596,304.367 475.03,303.697 475.7,303.4C476.682,302.99 477.737,302.786 478.8,302.8C479.946,302.785 481.089,302.919 482.2,303.2C483.332,303.546 484.436,303.981 485.5,304.5C487.021,305.28 488.692,305.723 490.4,305.8C491.553,305.807 492.639,305.246 493.3,304.3C494.095,303.232 494.517,301.931 494.5,300.6C494.62,298.742 493.693,296.964 492.1,296C490.263,294.912 488.275,294.103 486.2,293.6C483.949,293 481.629,292.697 479.3,292.7C476.293,292.679 473.307,293.221 470.5,294.3C468.045,295.225 465.897,296.818 464.3,298.9C462.798,300.725 462.015,303.038 462.1,305.4C461.889,308.306 463.035,311.151 465.2,313.1C467.3,314.9 470.6,316.3 475.3,317.2C477.9,317.7 479.8,318.1 480.9,318.4C481.698,318.506 482.456,318.816 483.1,319.3C483.492,319.615 483.714,320.097 483.7,320.6C483.65,321.345 483.185,322.003 482.5,322.3C481.446,322.701 480.327,322.904 479.2,322.9C477.552,322.932 475.907,322.764 474.3,322.4C472.776,322.053 471.274,321.619 469.8,321.1C469,320.8 468.2,320.5 467.3,320.2C466.583,320.002 465.843,319.901 465.1,319.9C463.971,319.899 462.902,320.416 462.2,321.3C461.395,322.28 461.001,323.535 461.1,324.8C461.105,325.829 461.309,326.848 461.7,327.8C462.008,328.624 462.615,329.302 463.4,329.7C465.345,330.881 467.475,331.726 469.7,332.2C472.639,332.719 475.616,332.986 478.6,333C483.9,333 488.2,331.9 491.4,329.6C494.459,327.553 496.271,324.08 496.2,320.4C496,317.1 494.9,314.5 492.9,312.8ZM141.1,209C139.707,208.983 138.343,209.403 137.2,210.2C135.991,211.024 135.079,212.217 134.6,213.6L123.4,245.3L112.7,213.7C111.799,210.907 109.182,209.002 106.248,209.002C104.874,209.002 103.531,209.42 102.4,210.2C101.191,211.024 100.279,212.217 99.8,213.6L88.4,244.6L77.7,213.6C77.258,212.198 76.337,210.994 75.1,210.2C73.855,209.476 72.44,209.096 71,209.1C69.215,209.051 67.471,209.655 66.1,210.8C64.691,211.896 63.905,213.617 64,215.4C64.02,216.419 64.188,217.43 64.5,218.4L80.5,261C80.993,262.433 81.988,263.641 83.3,264.4C84.698,265.205 86.287,265.62 87.9,265.6C89.48,265.606 91.033,265.191 92.4,264.4C93.694,263.593 94.707,262.405 95.3,261L106,231.8L116.2,261C116.693,262.433 117.688,263.641 119,264.4C120.398,265.205 121.987,265.62 123.6,265.6C125.211,265.606 126.797,265.192 128.2,264.4C129.54,263.648 130.569,262.442 131.1,261L146.9,218.3C147.244,217.3 147.446,216.256 147.5,215.2C147.602,213.487 146.899,211.821 145.6,210.7C144.357,209.605 142.756,209 141.1,209ZM181.6,263.7C184.602,265.993 188.798,265.993 191.8,263.7C193.096,262.492 193.792,260.769 193.7,259L193.7,242C193.7,236.4 192.6,232.2 190.4,229.5C188.2,226.8 184.9,225.3 180.3,225.3C177.861,225.261 175.442,225.738 173.2,226.7C171.108,227.631 169.284,229.076 167.9,230.9L167.9,215.1C167.955,213.424 167.258,211.809 166,210.7C164.568,209.595 162.809,208.997 161,209C159.095,208.873 157.219,209.523 155.8,210.8C154.511,211.937 153.78,213.581 153.8,215.3L153.8,258.8C153.695,260.571 154.394,262.299 155.7,263.5C158.702,265.793 162.898,265.793 165.9,263.5C167.196,262.292 167.892,260.569 167.8,258.8L167.8,243.2C167.673,241.235 168.319,239.296 169.6,237.8C170.882,236.418 172.719,235.684 174.6,235.8C177.8,235.8 179.5,237.7 179.5,241.4L179.5,258.7C179.395,260.471 180.094,262.199 181.4,263.4L181.6,263.7ZM209.8,263.1C216.898,266.398 225.102,266.398 232.2,263.1C235.294,261.535 237.866,259.102 239.6,256.1C241.394,252.825 242.291,249.133 242.2,245.4C242.303,241.697 241.405,238.035 239.6,234.8C237.866,231.798 235.294,229.365 232.2,227.8C225.067,224.502 216.833,224.502 209.7,227.8C206.612,229.327 204.039,231.726 202.3,234.7C200.495,237.935 199.597,241.597 199.7,245.3C199.609,249.033 200.506,252.725 202.3,256C204.124,258.992 206.713,261.443 209.8,263.1ZM221,235.6C226,235.6 228.5,238.8 228.5,245.4C228.5,252 226,255.2 221,255.2C216,255.2 213.5,251.9 213.5,245.4C213.5,238.9 216,235.6 221,235.6ZM250.7,263.8C253.695,265.896 257.705,265.896 260.7,263.8C262.089,262.566 262.829,260.754 262.7,258.9L262.7,215.6C262.816,213.748 262.079,211.941 260.7,210.7C257.738,208.506 253.662,208.506 250.7,210.7C249.311,211.934 248.571,213.746 248.7,215.6L248.7,259C248.585,260.823 249.325,262.599 250.7,263.8ZM278.9,263.1C282.386,264.79 286.228,265.613 290.1,265.5C292.364,265.503 294.617,265.2 296.8,264.6C298.968,264.078 301.078,263.341 303.1,262.4C305.002,261.572 306.228,259.674 306.2,257.6C306.238,256.281 305.852,254.984 305.1,253.9C304.398,253.016 303.329,252.499 302.2,252.5C301.489,252.501 300.783,252.602 300.1,252.8C299.4,253 298.6,253.3 297.8,253.6C296.6,254 295.4,254.5 294.1,254.8C292.921,255.081 291.712,255.215 290.5,255.2C288.487,255.35 286.49,254.744 284.9,253.5C283.49,252.039 282.64,250.126 282.5,248.1L303.3,248.1C304.207,248.134 305.086,247.769 305.7,247.1C306.309,246.301 306.595,245.3 306.5,244.3C306.572,240.775 305.819,237.282 304.3,234.1C302.888,231.308 300.7,228.981 298,227.4C295.086,225.813 291.818,224.988 288.5,225C284.993,224.947 281.537,225.845 278.5,227.6C275.607,229.308 273.225,231.76 271.6,234.7C269.93,237.91 269.072,241.481 269.1,245.1C269.009,248.833 269.906,252.525 271.7,255.8C273.434,258.802 276.006,261.235 279.1,262.8L278.9,263.1ZM284.3,236.5C285.447,235.308 287.046,234.654 288.7,234.7C292.4,234.7 294.3,237 294.7,241.6L282.3,241.6C282.405,239.73 283.106,237.943 284.3,236.5ZM340.8,262.1C343.859,260.053 345.671,256.58 345.6,252.9C345.6,249.5 344.6,246.9 342.5,245.1C340.4,243.3 336.8,241.9 331.8,241C329.71,240.715 327.661,240.178 325.7,239.4C324.797,239.167 324.171,238.332 324.2,237.4C324.196,236.667 324.63,235.997 325.3,235.7C326.282,235.29 327.337,235.086 328.4,235.1C329.546,235.085 330.689,235.219 331.8,235.5C332.932,235.846 334.036,236.281 335.1,236.8C336.621,237.58 338.292,238.023 340,238.1C341.153,238.107 342.239,237.546 342.9,236.6C343.695,235.532 344.117,234.231 344.1,232.9C344.22,231.042 343.293,229.264 341.7,228.3C339.863,227.212 337.875,226.403 335.8,225.9C333.549,225.3 331.229,224.997 328.9,225C325.893,224.979 322.907,225.521 320.1,226.6C317.645,227.525 315.497,229.118 313.9,231.2C312.398,233.025 311.615,235.338 311.7,237.7C311.489,240.606 312.635,243.451 314.8,245.4C316.9,247.2 320.2,248.6 324.9,249.5C327.5,250 329.4,250.4 330.5,250.7C331.298,250.806 332.056,251.116 332.7,251.6C333.092,251.915 333.314,252.397 333.3,252.9C333.25,253.645 332.785,254.303 332.1,254.6C331.046,255.001 329.927,255.204 328.8,255.2C327.152,255.232 325.507,255.064 323.9,254.7C322.376,254.353 320.874,253.919 319.4,253.4C318.6,253.1 317.8,252.8 316.9,252.5C316.183,252.302 315.443,252.201 314.7,252.2C313.571,252.199 312.502,252.716 311.8,253.6C310.995,254.58 310.601,255.835 310.7,257.1C310.705,258.129 310.909,259.148 311.3,260.1C311.608,260.924 312.215,261.602 313,262C314.945,263.181 317.075,264.026 319.3,264.5C322.239,265.019 325.216,265.286 328.2,265.3C333.4,265.5 337.6,264.3 340.8,262.1ZM373.7,259.6C373.712,261.205 374.403,262.731 375.6,263.8C378.361,265.963 382.286,265.921 385,263.7C386.196,262.439 386.813,260.734 386.7,259L386.7,242.6C386.7,236.8 385.3,232.4 382.4,229.6C379.5,226.8 375.1,225.3 369.2,225.3C366.448,225.314 363.703,225.581 361,226.1C358.598,226.517 356.272,227.293 354.1,228.4C353.16,228.837 352.363,229.53 351.8,230.4C351.312,231.251 351.07,232.22 351.1,233.2C351.051,234.536 351.476,235.847 352.3,236.9C353.073,237.804 354.211,238.318 355.4,238.3C356.462,238.295 357.513,238.091 358.5,237.7C361.498,236.475 364.67,235.732 367.9,235.5C369.398,235.385 370.889,235.811 372.1,236.7C373.042,237.806 373.478,239.258 373.3,240.7L373.3,241.6L371.2,241.6C366.938,241.46 362.675,241.83 358.5,242.7C355.876,243.136 353.459,244.398 351.6,246.3C350.11,248.17 349.33,250.51 349.4,252.9C349.379,255.192 350.003,257.445 351.2,259.4C352.446,261.347 354.213,262.906 356.3,263.9C358.544,264.982 361.009,265.53 363.5,265.5C365.672,265.528 367.813,264.976 369.7,263.9C371.388,262.886 372.691,261.337 373.4,259.5L373.7,259.6ZM364.1,255C363.307,254.213 362.904,253.113 363,252C362.938,250.644 363.804,249.406 365.1,249C367.399,248.302 369.8,247.998 372.2,248.1L373.4,248.1L373.4,249C373.415,250.888 372.779,252.725 371.6,254.2C370.384,255.496 368.677,256.222 366.9,256.2C365.85,256.165 364.85,255.736 364.1,255ZM406.6,210.8C403.638,208.606 399.562,208.606 396.6,210.8C395.211,212.034 394.471,213.846 394.6,215.7L394.6,259C394.485,260.823 395.225,262.599 396.6,263.8C399.595,265.896 403.605,265.896 406.6,263.8C407.989,262.566 408.729,260.754 408.6,258.9L408.6,215.6C408.716,213.748 407.979,211.941 406.6,210.7L406.6,210.8ZM424.9,263.1C428.386,264.79 432.228,265.613 436.1,265.5C438.364,265.503 440.617,265.2 442.8,264.6C444.968,264.078 447.078,263.341 449.1,262.4C451.002,261.572 452.228,259.674 452.2,257.6C452.238,256.281 451.852,254.984 451.1,253.9C450.398,253.016 449.329,252.499 448.2,252.5C447.489,252.501 446.783,252.602 446.1,252.8C445.4,253 444.6,253.3 443.8,253.6C442.6,254 441.4,254.5 440.1,254.8C438.921,255.081 437.712,255.215 436.5,255.2C434.487,255.35 432.49,254.744 430.9,253.5C429.49,252.039 428.64,250.126 428.5,248.1L449.3,248.1C450.207,248.134 451.086,247.769 451.7,247.1C452.309,246.301 452.595,245.3 452.5,244.3C452.572,240.775 451.819,237.282 450.3,234.1C448.888,231.308 446.7,228.981 444,227.4C441.086,225.813 437.818,224.988 434.5,225C430.993,224.947 427.537,225.845 424.5,227.6C421.607,229.308 419.225,231.76 417.6,234.7C415.93,237.91 415.072,241.481 415.1,245.1C415.009,248.833 415.906,252.525 417.7,255.8C419.434,258.802 422.006,261.235 425.1,262.8L424.9,263.1ZM430.3,236.5C431.447,235.308 433.046,234.654 434.7,234.7C438.4,234.7 440.3,237 440.7,241.6L428.4,241.6C428.418,239.731 429.09,237.925 430.3,236.5Z" style="fill:rgb(255,0,0);fill-rule:nonzero;"/>
    </g>
    <g transform="matrix(1,0,0,1,-0.98,-163.83)">
        <path d="M27.5,279.9C27.4,280.2 27.3,280.6 27.1,281.3C27.2,280.8 27.4,280.4 27.5,279.9Z" style="fill:rgb(255,0,0);fill-rule:nonzero;"/>
    </g>
    <g transform="matrix(1,0,0,1,-0.98,-163.83)">
        <path d="M27.6,279.6C27.5,279.8 27.5,279.8 27.5,279.9C27.554,279.808 27.588,279.706 27.6,279.6Z" style="fill:rgb(255,0,0);fill-rule:nonzero;"/>
    </g>
    <g transform="matrix(1,0,0,1,-0.98,-163.83)">
        <path d="M27.6,279.7C32.027,265.331 38.136,251.535 45.8,238.6C47.9,235 50,231.6 52.2,228.3C51,225.1 50.3,223.1 50.3,223.1C49.392,220.53 48.918,217.826 48.9,215.1C48.797,208.742 51.643,202.682 56.6,198.7C60.708,195.395 65.827,193.594 71.1,193.6C74.228,193.632 77.32,194.278 80.2,195.5C84.736,191.449 89.861,188.111 95.4,185.6C114.1,176.3 121.8,187.1 124.7,200.3C125.792,199.109 127.036,198.067 128.4,197.2C128.6,197.1 128.9,196.9 129.1,196.8C128,190.4 125.3,185.4 120.6,182.5C117.5,180.6 107.3,174 102.3,171.5C83,161.8 50.5,192.8 29.4,229C7.8,266.1 -2.4,310.5 16.2,322.1C20.5,324.8 27.2,329.4 29.3,330.6C38,335.5 49.7,332.3 62,323.9C61.6,322.019 61.031,320.179 60.3,318.4C6,338.6 26.7,282.1 27.6,279.7Z" style="fill:rgb(255,0,0);fill-rule:nonzero;"/>
    </g>
</svg>
