<svg id="af9588f5-2751-40ac-906a-4c727ad74e10" data-name="Layer 1" xmlns="http://www.w3.org/2000/svg" viewBox="0 0 510.22 184.35"><defs><style>.f9f25a37-5c76-4145-b69f-0feb9ac4e737{fill:#fff;}.bdffa9b4-f4b2-42a4-8ebd-23b7a01f23ba{fill:red;}</style></defs><path class="f9f25a37-5c76-4145-b69f-0feb9ac4e737" d="M43.3,313.4c-2.6,1.2-7.2,3-10.1,1.3-4.8-2.8-4.4-14.5-2.7-23.6,2.8-14.7,9.9-32.4,20.1-49.8,1.3-2.2,2.7-4.4,4-6.6-2.5-6.6-4.3-11.6-4.3-11.6a24.5,24.5,0,0,1-1.4-8,20.61,20.61,0,0,1,7.7-16.4A23,23,0,0,1,83.1,197c.7.5,1.4,1,2,1.5a53.82,53.82,0,0,1,10.8-7.1c2.6-1.2,7.3-3,10.1-1.3a6.34,6.34,0,0,1,2.6,3.3,22.19,22.19,0,0,1,10,3.7,23.71,23.71,0,0,1,4.9,4.6,20.85,20.85,0,0,1,5.1-4.7,24.41,24.41,0,0,1,5.9-2.8c-1.9-9.1-6.4-14.1-10.8-16.7-.7-.4-1.8-1.1-3.1-1.9-4.6-2.9-11.5-7.3-15.7-9.4-7.2-3.6-15.8-3.1-25.6,1.5-17.6,8.3-38.5,30.6-54.6,58.2-11.2,19.2-19.4,40.4-22.4,58-3.6,21.2.2,35.9,11,42.6,1.9,1.2,4.4,2.8,6.7,4.4,3.3,2.2,5.4,3.6,6.6,4.3,5.4,3.1,14.9,5.3,28.8-1.3a66.16,66.16,0,0,0,8.7-5c-2-5.5-5.6-15.3-8.7-23.7A56.24,56.24,0,0,1,43.3,313.4Z" transform="translate(-0.98 -163.83)"/><path d="M508.5,308.3h0a20.88,20.88,0,0,0,1.2-7.4h0a20.26,20.26,0,0,0-9.9-17.7,39.06,39.06,0,0,0-9.9-4.1h0a38.73,38.73,0,0,0-10.7-1.3,40.53,40.53,0,0,0-9.2,1h0a21.72,21.72,0,0,0-5.4-10.4h0a20.11,20.11,0,0,0,3-10.7h0a22.5,22.5,0,0,0-.9-6.4h0a21.87,21.87,0,0,0,1.1-6.7h0a37.13,37.13,0,0,0-4-17.2h0a31.21,31.21,0,0,0-12.3-12.9,33.31,33.31,0,0,0-17.1-4.4h0a34.67,34.67,0,0,0-10.7,1.6,21,21,0,0,0-7.2-12.7,23.74,23.74,0,0,0-29.4,0h0a20.77,20.77,0,0,0-7.2,12.3,41.28,41.28,0,0,0-10.5-1.2h0a53.55,53.55,0,0,0-11.3,1.2h0a41.52,41.52,0,0,0-10.3,3.4,40.76,40.76,0,0,0-8.4-3.3h0a41.82,41.82,0,0,0-25.4,1.5h0a25.89,25.89,0,0,0-5.9,3.2h0c-.8-.6-1.7-1.1-2.6-1.7a33.31,33.31,0,0,0-17.1-4.4h0a34.67,34.67,0,0,0-10.7,1.6,21,21,0,0,0-7.2-12.7,23.74,23.74,0,0,0-29.4,0h0a20.9,20.9,0,0,0-7.3,12.9,42,42,0,0,0-12.7-1.9h0a39.74,39.74,0,0,0-18.2,4.1h0a30.67,30.67,0,0,0-3.9,2.3,26.47,26.47,0,0,0-16.3-6.3,20.81,20.81,0,0,0-6.5-10.8,22.34,22.34,0,0,0-15-5.4h0a23.57,23.57,0,0,0-10.1,2.2,22.25,22.25,0,0,0-22.3,1.4h0a25.22,25.22,0,0,0-5.1,4.7,21.44,21.44,0,0,0-4.9-4.6h0a22.19,22.19,0,0,0-24.8-.1h0a21.55,21.55,0,0,0-5.2,4.8,21.71,21.71,0,0,0-5.7-5.2h0a23,23,0,0,0-26.5,1.7h0a20.61,20.61,0,0,0-7.7,16.4,24.5,24.5,0,0,0,1.4,8S60.8,251.3,64.7,262h0a22.39,22.39,0,0,0-8.1,4.2h0a20.61,20.61,0,0,0-7.7,16.4h0a24.5,24.5,0,0,0,1.4,8c0,.1,15.9,42.9,15.9,42.9h0a21.33,21.33,0,0,0,9.4,11.3h0a24.28,24.28,0,0,0,24.7,0h0a22.09,22.09,0,0,0,5.5-4.6h0a22.09,22.09,0,0,0,5.5,4.6h0a24.28,24.28,0,0,0,24.7,0h0a25.89,25.89,0,0,0,4.2-3.2,17.88,17.88,0,0,0,1.4,1.3h0a23.86,23.86,0,0,0,29.1,0h0c.6-.5,1.3-1.1,1.9-1.7h0a15.37,15.37,0,0,0,1.9,1.7,22.69,22.69,0,0,0,14.6,5h0a23,23,0,0,0,11.7-3.1h0a37.89,37.89,0,0,0,6.5,2.1h0a54.52,54.52,0,0,0,12.1,1.1c8.6,0,15.9-2.1,21.7-6.3a1.38,1.38,0,0,1,.4-.3h0a32.11,32.11,0,0,0,17.4,6.1l2.4.1h2a27.42,27.42,0,0,0,9-1.5,22.59,22.59,0,0,0,8.6,1.5h0a24.55,24.55,0,0,0,8.5-1.5,32.71,32.71,0,0,0,10.3,1.7,30.94,30.94,0,0,0,17.2-5.1c.2-.2.5-.3.7-.5a26.48,26.48,0,0,0,4,2.4h0a31.31,31.31,0,0,0,14.1,3.2h0a27.15,27.15,0,0,0,8.9-1.4,24,24,0,0,0,18.2-1.3h0a22.3,22.3,0,0,0,10.8,2.5h0a23,23,0,0,0,12.8-3.7,23.87,23.87,0,0,0,26.6-.7h0a31.38,31.38,0,0,0,16.3,4.6,30.49,30.49,0,0,0,10.3-1.7,24.14,24.14,0,0,0,8.5,1.5h0a23,23,0,0,0,11.7-3.1h0a37.89,37.89,0,0,0,6.5,2.1h0a54.52,54.52,0,0,0,12.1,1.1c8.6,0,15.9-2.1,21.7-6.3h0a26.06,26.06,0,0,0,11.1-21.6h0a26.61,26.61,0,0,0-2.9-12.4Z" transform="translate(-0.98 -163.83)"/><path class="f9f25a37-5c76-4145-b69f-0feb9ac4e737" d="M499.7,308.7h0a13.16,13.16,0,0,0,2.4-7.9h0a12.34,12.34,0,0,0-6.2-11.1,30.12,30.12,0,0,0-7.9-3.3,37.21,37.21,0,0,0-8.8-1.1h0a31.69,31.69,0,0,0-11.8,2.2h0a24.21,24.21,0,0,0-4.7,2.6V283h0a13.85,13.85,0,0,0-10.8-13.5,4.88,4.88,0,0,1,.7-.3.35.35,0,0,1,.2-.1h0a12.76,12.76,0,0,0,7.1-11.5h0a13.7,13.7,0,0,0-1.6-6.6h0a11.53,11.53,0,0,0,1.7-6.5h0a29.57,29.57,0,0,0-3.1-13.7,23.74,23.74,0,0,0-9.3-9.8,26.11,26.11,0,0,0-13.3-3.4,27.6,27.6,0,0,0-13.8,3.6h0a24.71,24.71,0,0,0-4.2,3v-8.6h0a13.52,13.52,0,0,0-4.8-10.8,16.06,16.06,0,0,0-19.7,0h0a13.16,13.16,0,0,0-4.8,10.7v7.7q-6.45-5.7-17.7-5.7h0a45,45,0,0,0-9.7,1h0a35.92,35.92,0,0,0-8.9,3l-.2.1h0a13.67,13.67,0,0,0-2.9,2,19.52,19.52,0,0,0-2.3-1.7,30.12,30.12,0,0,0-7.9-3.3,37.21,37.21,0,0,0-8.8-1.1,31.69,31.69,0,0,0-11.8,2.2h0a22.11,22.11,0,0,0-8.9,6.5h0a24.36,24.36,0,0,0-6.3-5.3,26.11,26.11,0,0,0-13.3-3.4h0a27.6,27.6,0,0,0-13.8,3.6h0a24.71,24.71,0,0,0-4.2,3v-8.8h0a13.52,13.52,0,0,0-4.8-10.8h0a16.06,16.06,0,0,0-19.7,0h0a13.16,13.16,0,0,0-4.8,10.7v8.9a27.49,27.49,0,0,0-5.3-3.6h0a34.39,34.39,0,0,0-29.4,0h0a27.11,27.11,0,0,0-8.2,6.5,16.65,16.65,0,0,0-1.8-2.8c-2.6-3.2-7.4-7-16-7h0a24.18,24.18,0,0,0-4.7.4v-2.9h0a13.63,13.63,0,0,0-4.5-10.2,15.17,15.17,0,0,0-10-3.6h0a14.61,14.61,0,0,0-10.2,3.7l-.3-.3a14.35,14.35,0,0,0-20.4,1.5,14.75,14.75,0,0,0-2.7,4.7l-3.9,10.9-3.7-10.7a14.39,14.39,0,0,0-27.2-.3l-4,10.9-3.8-10.8a13.8,13.8,0,0,0-5.8-7.4,15.37,15.37,0,0,0-17.7,1.1h0a13,13,0,0,0-4.9,10.5h0a14.51,14.51,0,0,0,1,5.5L73.1,263h0a14.33,14.33,0,0,0,6.1,7.4h0a16.34,16.34,0,0,0,16.8,0h0a13.89,13.89,0,0,0,6.1-7.2l3.4-9.3,3.2,9.1h0a14.33,14.33,0,0,0,6.1,7.4,16.94,16.94,0,0,0,8.5,2.3,16,16,0,0,0,8.5-2.3h0A13.7,13.7,0,0,0,138,263l8.1-21.8v17.1h0a13.76,13.76,0,0,0,4.4,10.4,15.88,15.88,0,0,0,20.5,0h0a13.51,13.51,0,0,0,2.6-3.2h0a11.44,11.44,0,0,0,2.6,3.2c.5.4,1,.9,1.6,1.3h0a13.45,13.45,0,0,0-4.3,10.2h0a14.69,14.69,0,0,0,.7,4.6h-2.3A18,18,0,0,0,164,287h0a14,14,0,0,0-8.2-2.3h-1.1a12.65,12.65,0,0,0,.3-2.8h0a13.43,13.43,0,0,0-4.6-10.3A14.43,14.43,0,0,0,130,273a14.75,14.75,0,0,0-2.7,4.7l-3.9,10.9-3.7-10.7a14.39,14.39,0,0,0-27.2-.3l-4,10.9-4-10.5a13.8,13.8,0,0,0-5.8-7.4A15.37,15.37,0,0,0,61,271.7h0a13,13,0,0,0-4.9,10.5,14.87,14.87,0,0,0,1,5.5L73,330.4h0a14.33,14.33,0,0,0,6.1,7.4h0a16.34,16.34,0,0,0,16.8,0h0a13.89,13.89,0,0,0,6.1-7.2l3.4-9.3,3.2,9.1h0a14.33,14.33,0,0,0,6.1,7.4h0a16.94,16.94,0,0,0,8.5,2.3h0a16,16,0,0,0,8.5-2.3h0a13.7,13.7,0,0,0,6.2-7.4l3.3-8.9v4.2h0a12.9,12.9,0,0,0,4.9,10.8h0a16.2,16.2,0,0,0,19.6,0h0a13.18,13.18,0,0,0,4.9-10.8V312a1.09,1.09,0,0,0,.5-.1l2.3-.2c.3,0,.5-.1.8-.1v14.1h0a12.9,12.9,0,0,0,4.9,10.8h0a16.2,16.2,0,0,0,19.6,0h0a12,12,0,0,0,1.2-1.1c.1,0,.2.1.3.2h0a28.11,28.11,0,0,0,8.6,3.4h0a46.59,46.59,0,0,0,10.5.9c6.9,0,12.7-1.6,17.2-4.9h0a21.13,21.13,0,0,0,4.9-5h0a15.41,15.41,0,0,0,2.3,2.9c3.8,3.9,9,6,15.7,6.5l2.3.1h1.6a17,17,0,0,0,9-2.3.1.1,0,0,0,.1-.1,14.79,14.79,0,0,0,8.5,2.4,15.31,15.31,0,0,0,8.3-2.3h.1a23.62,23.62,0,0,0,28.5-6,19.55,19.55,0,0,0,7.2,5.9h0a24.19,24.19,0,0,0,10.6,2.4h0a20.06,20.06,0,0,0,9-2h0a15.57,15.57,0,0,0,7.3,1.9,14.26,14.26,0,0,0,10.2-3.8l.5-.5a2.65,2.65,0,0,0,.6.5,15.88,15.88,0,0,0,20.5,0h0a13.51,13.51,0,0,0,2.6-3.2,11.44,11.44,0,0,0,2.6,3.2,16,16,0,0,0,20.6,0h0a13.12,13.12,0,0,0,2.7-3.5,23.66,23.66,0,0,0,4.2,3.5h0a23.84,23.84,0,0,0,23.4,1.4h.1a14.88,14.88,0,0,0,8.2,2.2h0a14.61,14.61,0,0,0,10.2-3.7l.7-.7c.1.1.3.1.4.2h0a28.57,28.57,0,0,0,8.5,3.4h0a46.59,46.59,0,0,0,10.5.9c6.9,0,12.7-1.6,17.2-4.9h0a18.14,18.14,0,0,0,7.9-15.4h0a17.61,17.61,0,0,0-4.1-11.9ZM263.1,278.5h0a15.68,15.68,0,0,0-20.7,0h0a13.32,13.32,0,0,0-4.2,8.5h0a10.61,10.61,0,0,0-3.4,1.6,41.88,41.88,0,0,0-5.9-2.2,37.21,37.21,0,0,0-8.8-1.1h0a31.69,31.69,0,0,0-11.8,2.2h0a21.1,21.1,0,0,0-6.7,4.2,9.38,9.38,0,0,0-.9-1.2h0a14.51,14.51,0,0,0-1-20.4h0a11,11,0,0,0-2.1-1.4h0a13.56,13.56,0,0,0,2.3-3.4,28.87,28.87,0,0,0,6.4,4.6h0a34.39,34.39,0,0,0,29.4,0h0a25.46,25.46,0,0,0,6.5-4.8,12.61,12.61,0,0,0,3.6,4.7h0a16.2,16.2,0,0,0,19.6,0h0a12.76,12.76,0,0,0,3.5-4.5h0a25.09,25.09,0,0,0,6.5,4.7.31.31,0,0,1,.2.1h0a13.35,13.35,0,0,0-4.7,2.8h0a13.28,13.28,0,0,0-4.5,10.2v.7h0a12.63,12.63,0,0,0-3.5-5.3Zm170.4,4.3v2.8a26.93,26.93,0,0,0-4-.3,24.73,24.73,0,0,0-13,3.6h0a21.83,21.83,0,0,0-6.1,5.6h0a16,16,0,0,0-1.6-2.3c-2.6-3.2-7.5-6.9-16.2-6.9h0a24,24,0,0,0-10.5,2.3l-.2.1h0a14,14,0,0,0-8.2-2.3h0a14.61,14.61,0,0,0-10.2,3.7h0a13.49,13.49,0,0,0-2.8,3.5,6.47,6.47,0,0,0-.8-.9c-4.3-4.3-10.6-6.5-18.6-6.5h0a46.58,46.58,0,0,0-9.8,1h0a35.92,35.92,0,0,0-8.9,3,.31.31,0,0,0-.2.1h0a12.61,12.61,0,0,0-4.6,4,25.15,25.15,0,0,0-5.2-4.5,23.85,23.85,0,0,0-13-3.6,26.93,26.93,0,0,0-4,.3v-2.8h0a13.7,13.7,0,0,0-4-9.7h0a32,32,0,0,0,6.9-1.1h0a37.15,37.15,0,0,0,7.9-2.8.35.35,0,0,1,.2-.1c.4-.2.8-.5,1.3-.8a3.6,3.6,0,0,0,.9.5h0a28.11,28.11,0,0,0,8.6,3.4h0a46.59,46.59,0,0,0,10.5.9c6.9,0,12.7-1.6,17.2-4.9h0a11.79,11.79,0,0,0,2.1-1.8h0a21.58,21.58,0,0,0,5.7,4.2h0a24.19,24.19,0,0,0,10.6,2.4,20.06,20.06,0,0,0,9-2,15.57,15.57,0,0,0,7.3,1.9A14.26,14.26,0,0,0,390,269a2.18,2.18,0,0,0,.4-.5h0a11,11,0,0,0,1.1,1h0a16.2,16.2,0,0,0,19.6,0h0a12.76,12.76,0,0,0,3.5-4.5h0a25.09,25.09,0,0,0,6.5,4.7h0a32.59,32.59,0,0,0,14.7,3.3H437a12.82,12.82,0,0,0-3.9,9.6Z" transform="translate(-0.98 -163.83)"/><path class="bdffa9b4-f4b2-42a4-8ebd-23b7a01f23ba" d="M141.2,276.7a6.67,6.67,0,0,0-3.9,1.2h0a6.81,6.81,0,0,0-2.6,3.4L123.5,313l-10.7-31.6a6.78,6.78,0,0,0-10.3-3.5h0a6.81,6.81,0,0,0-2.6,3.4l-11.4,31-10.7-31a6.29,6.29,0,0,0-2.6-3.4,8.11,8.11,0,0,0-4.1-1.1,7.33,7.33,0,0,0-4.9,1.7h0a5.46,5.46,0,0,0-2.1,4.6h0a10.47,10.47,0,0,0,.5,3l15.9,42.7h0a6.29,6.29,0,0,0,2.8,3.4h0a9,9,0,0,0,4.6,1.2h0a8.92,8.92,0,0,0,4.5-1.2h0a7.39,7.39,0,0,0,2.9-3.4L106,299.6l10.2,29.2h0a6.29,6.29,0,0,0,2.8,3.4h0a9,9,0,0,0,4.6,1.2,9.29,9.29,0,0,0,4.6-1.2h0a6.46,6.46,0,0,0,2.9-3.4l15.8-42.7h0a11.34,11.34,0,0,0,.6-3.1h0a5.51,5.51,0,0,0-1.9-4.5,6.81,6.81,0,0,0-4.5-1.7Zm32.6,16.4-1.1.1h0a11.61,11.61,0,0,0-6,2h0a10.67,10.67,0,0,0-4.1,5.3V299h0a5.23,5.23,0,0,0-1.8-4.4h0a6.73,6.73,0,0,0-4.7-1.6h0a8,8,0,0,0-4.9,1.6h0a5.5,5.5,0,0,0-2,4.6v27.2h0a5.88,5.88,0,0,0,2,4.8,8.72,8.72,0,0,0,10,0h0a6,6,0,0,0,2-4.9V312.8h0a7.94,7.94,0,0,1,1.7-5.4,8.4,8.4,0,0,1,5.6-2.5l2.4-.2c2.5-.2,4.3-.9,5.2-1.8h0a5.92,5.92,0,0,0,1.4-4.6h0a5.3,5.3,0,0,0-1.6-4.3h0a5.49,5.49,0,0,0-4.3-1.2Zm21-17.1a9.61,9.61,0,0,0-11.2,0h0a6,6,0,0,0-2.1,4.9h0a6,6,0,0,0,2.1,4.9h0a9.3,9.3,0,0,0,11.2,0h0a6.51,6.51,0,0,0,2.1-4.9h0a6,6,0,0,0-2.1-4.9Zm-.6,18.8a8.72,8.72,0,0,0-10,0h0a5.88,5.88,0,0,0-2,4.8v27h0a5.88,5.88,0,0,0,2,4.8,8.72,8.72,0,0,0,10,0h0a6,6,0,0,0,2-4.9v-27h0a6.21,6.21,0,0,0-2-4.9Zm39.7,18.1c-2.1-1.8-5.7-3.2-10.7-4.1h0a26.14,26.14,0,0,1-6.1-1.6h0a2,2,0,0,1-1.5-2h0a1.85,1.85,0,0,1,1.1-1.7h0a7.79,7.79,0,0,1,3.1-.6h0a13.17,13.17,0,0,1,3.4.4h0a22.56,22.56,0,0,1,3.3,1.3,11.91,11.91,0,0,0,4.9,1.3h0a3.51,3.51,0,0,0,2.9-1.5h0a6.07,6.07,0,0,0,1.2-3.7h0a5,5,0,0,0-2.4-4.6h0a21.54,21.54,0,0,0-5.9-2.4,26.66,26.66,0,0,0-6.9-.9h0a24.06,24.06,0,0,0-8.8,1.6h0a14.06,14.06,0,0,0-6.2,4.6h0a9.68,9.68,0,0,0-2.2,6.5h0a9.44,9.44,0,0,0,3.1,7.7c2.1,1.8,5.4,3.2,10.1,4.1,2.6.5,4.5.9,5.6,1.2a4.69,4.69,0,0,1,2.2.9,1.61,1.61,0,0,1,.6,1.3h0a2,2,0,0,1-1.2,1.7h0a9.19,9.19,0,0,1-3.3.6h0a20.4,20.4,0,0,1-4.9-.5,41.07,41.07,0,0,1-4.5-1.3h0c-.8-.3-1.6-.6-2.5-.9h0a8.33,8.33,0,0,0-2.2-.3,3.7,3.7,0,0,0-2.9,1.4h0a4.91,4.91,0,0,0-1.1,3.5h0a8,8,0,0,0,.6,3,3.51,3.51,0,0,0,1.7,1.9h0a20.26,20.26,0,0,0,6.3,2.5h0a52.6,52.6,0,0,0,8.9.8c5.3,0,9.6-1.1,12.8-3.4h0a10.82,10.82,0,0,0,4.8-9.2c-.2-3.3-1.2-5.9-3.3-7.6Zm31.4,10.2L263,323h0a3,3,0,0,1-2.3-1.1h0a3.84,3.84,0,0,1-.9-2.5V304.3h4.3c4.2,0,6.3-1.7,6.3-5.2s-2.1-5.1-6.3-5.1h-4.3v-5.1h0a6.26,6.26,0,0,0-1.9-4.8,8.12,8.12,0,0,0-10.2,0h0a6.12,6.12,0,0,0-1.9,4.8V294h-2.3q-6.3,0-6.3,5.1c0,3.5,2.1,5.2,6.3,5.2h2.3v13.9c0,4.5,1.2,7.9,3.7,10.4s6,3.9,10.7,4.3l2.2.1h0a10.28,10.28,0,0,0,6-1.1h0a4.48,4.48,0,0,0,2.1-4.1c0-3-1.7-4.5-5.2-4.7Zm43.4-27.7a15.51,15.51,0,0,0-8.9-2.4,15.72,15.72,0,0,0-6.8,1.5h0a13.53,13.53,0,0,0-4.9,4V282.8h0a5.62,5.62,0,0,0-1.9-4.4,8.16,8.16,0,0,0-5-1.7,7.07,7.07,0,0,0-5.2,1.8h0a5.91,5.91,0,0,0-2,4.5v43.5h0a6.32,6.32,0,0,0,1.8,4.7,7.49,7.49,0,0,0,5,1.8h0a6.9,6.9,0,0,0,4.8-1.5h0a6.1,6.1,0,0,0,2.1-4.2h0a10.54,10.54,0,0,0,4.8,4.3,16.66,16.66,0,0,0,15.9-1h0a16.12,16.12,0,0,0,6-7.2h0a25.83,25.83,0,0,0,2.2-10.6h0a22.56,22.56,0,0,0-2.2-10.5h0a14.83,14.83,0,0,0-5.7-6.9Zm-7.6,24.8h0a7.44,7.44,0,0,1-10.5.7,4.62,4.62,0,0,1-.7-.7,11.63,11.63,0,0,1-2-7.2c0-3.1.6-5.4,2-7.1h0a6.86,6.86,0,0,1,5.6-2.5h0a6.74,6.74,0,0,1,5.5,2.4,10.78,10.78,0,0,1,1.9,7,10.89,10.89,0,0,1-1.8,7.4Zm40.2-27.3h0a44.69,44.69,0,0,0-8.2.8h0a24.38,24.38,0,0,0-6.9,2.3h0a5.5,5.5,0,0,0-2.3,2h0a5.3,5.3,0,0,0-.7,2.8h0a5.67,5.67,0,0,0,1.2,3.7h0a4,4,0,0,0,3.1,1.4h0a8.53,8.53,0,0,0,3.1-.6h0a30.67,30.67,0,0,1,9.4-2.2h0a6.29,6.29,0,0,1,4.2,1.2h0a5.19,5.19,0,0,1,1.2,4v.9h-2.2a53.63,53.63,0,0,0-12.7,1.1h0a12.52,12.52,0,0,0-6.9,3.6h0a10.12,10.12,0,0,0-2.2,6.6h0a12.24,12.24,0,0,0,1.8,6.5,12.38,12.38,0,0,0,5.1,4.5,16.14,16.14,0,0,0,7.2,1.6h0a12.2,12.2,0,0,0,6.2-1.6h0a8.85,8.85,0,0,0,3.7-4.4h0a5.91,5.91,0,0,0,1.9,4.3h0a7.52,7.52,0,0,0,9.4-.1h0a6.24,6.24,0,0,0,1.7-4.7V310c0-5.8-1.4-10.2-4.3-13s-7.3-4.3-13.2-4.3Zm4.2,23.8a8.22,8.22,0,0,1-1.8,5.2h0a6.34,6.34,0,0,1-4.7,2h0a3.85,3.85,0,0,1-2.9-1.2h0a3.77,3.77,0,0,1-1.1-3,3,3,0,0,1,2.1-3h0a21.33,21.33,0,0,1,7.1-.9h1.2Zm47.2-23.8a16.44,16.44,0,0,0-7.2,1.6h0a13.07,13.07,0,0,0-5.3,4.6h0a5.82,5.82,0,0,0-1.8-4.3,7.4,7.4,0,0,0-4.8-1.7h0a6.84,6.84,0,0,0-5.1,1.8h0a5.91,5.91,0,0,0-2,4.5v27.2h0a5.91,5.91,0,0,0,1.9,4.7,8.4,8.4,0,0,0,10.2,0h0a6,6,0,0,0,1.9-4.7V310.9a7.55,7.55,0,0,1,1.8-5.4h0a6.29,6.29,0,0,1,5-2h0a4.41,4.41,0,0,1,3.7,1.6h0a8.84,8.84,0,0,1,1.2,5v16.3h0a5.91,5.91,0,0,0,1.9,4.7,8.4,8.4,0,0,0,10.2,0h0a6,6,0,0,0,1.9-4.7v-17c0-5.6-1.1-9.8-3.4-12.5s-5.7-4.2-10.3-4.2Zm60.4-14.4h0a8,8,0,0,0-5.2-1.8h0a7.5,7.5,0,0,0-5,1.6h0a5.53,5.53,0,0,0-1.8,4.4v15.7h0a12.06,12.06,0,0,0-4.9-4,16,16,0,0,0-6.8-1.5h0a17.22,17.22,0,0,0-8.9,2.4h0a15.38,15.38,0,0,0-6,6.9h0a25.37,25.37,0,0,0-2.2,10.5h0a24,24,0,0,0,2.2,10.6,17,17,0,0,0,6.1,7.2,16.64,16.64,0,0,0,15.9,1h0a10.54,10.54,0,0,0,4.8-4.3h0a5.91,5.91,0,0,0,2.1,4.2h0a8.26,8.26,0,0,0,9.8-.2h0a6,6,0,0,0,1.9-4.7V283h0a5.91,5.91,0,0,0-2-4.5Zm-13.7,41.7h0a6.86,6.86,0,0,1-5.6,2.5h0a6.51,6.51,0,0,1-5.5-2.6h0a11.11,11.11,0,0,1-2-7.3h0a10.3,10.3,0,0,1,2-7h0a7.61,7.61,0,0,1,10.8-.4l.4.4c1.3,1.6,1.9,4,2,7.1a12.66,12.66,0,0,1-2.1,7.3Zm53.5-7.4c-2.1-1.8-5.7-3.2-10.7-4.1h0a26.14,26.14,0,0,1-6.1-1.6h0a2,2,0,0,1-1.5-2h0a1.85,1.85,0,0,1,1.1-1.7h0a7.79,7.79,0,0,1,3.1-.6h0a13.17,13.17,0,0,1,3.4.4h0a22.56,22.56,0,0,1,3.3,1.3,11.91,11.91,0,0,0,4.9,1.3h0a3.51,3.51,0,0,0,2.9-1.5h0a6.07,6.07,0,0,0,1.2-3.7h0a5,5,0,0,0-2.4-4.6h0a21.54,21.54,0,0,0-5.9-2.4,26.66,26.66,0,0,0-6.9-.9h0a24.06,24.06,0,0,0-8.8,1.6h0a14.06,14.06,0,0,0-6.2,4.6h0a9.68,9.68,0,0,0-2.2,6.5h0a9.44,9.44,0,0,0,3.1,7.7c2.1,1.8,5.4,3.2,10.1,4.1,2.6.5,4.5.9,5.6,1.2a4.69,4.69,0,0,1,2.2.9,1.61,1.61,0,0,1,.6,1.3h0a2,2,0,0,1-1.2,1.7h0a9.19,9.19,0,0,1-3.3.6h0a20.4,20.4,0,0,1-4.9-.5,41.07,41.07,0,0,1-4.5-1.3h0c-.8-.3-1.6-.6-2.5-.9a8.33,8.33,0,0,0-2.2-.3,3.7,3.7,0,0,0-2.9,1.4h0a4.91,4.91,0,0,0-1.1,3.5h0a8,8,0,0,0,.6,3,3.51,3.51,0,0,0,1.7,1.9h0a20.26,20.26,0,0,0,6.3,2.5h0a52.6,52.6,0,0,0,8.9.8c5.3,0,9.6-1.1,12.8-3.4h0a10.82,10.82,0,0,0,4.8-9.2c-.2-3.3-1.3-5.9-3.3-7.6ZM141.1,209a6.67,6.67,0,0,0-3.9,1.2h0a6.81,6.81,0,0,0-2.6,3.4l-11.2,31.7-10.7-31.6a6.78,6.78,0,0,0-10.3-3.5h0a6.81,6.81,0,0,0-2.6,3.4l-11.4,31-10.7-31a6.29,6.29,0,0,0-2.6-3.4h0a8.11,8.11,0,0,0-4.1-1.1h0a7.33,7.33,0,0,0-4.9,1.7h0a5.46,5.46,0,0,0-2.1,4.6,10.47,10.47,0,0,0,.5,3l16,42.6h0a6.29,6.29,0,0,0,2.8,3.4h0a9,9,0,0,0,4.6,1.2h0a8.92,8.92,0,0,0,4.5-1.2h0a7.39,7.39,0,0,0,2.9-3.4L106,231.8,116.2,261h0a6.29,6.29,0,0,0,2.8,3.4h0a9,9,0,0,0,4.6,1.2,9.29,9.29,0,0,0,4.6-1.2h0a6.46,6.46,0,0,0,2.9-3.4l15.8-42.7h0a11.34,11.34,0,0,0,.6-3.1h0a5.51,5.51,0,0,0-1.9-4.5,6.81,6.81,0,0,0-4.5-1.7Zm40.5,54.7a8.4,8.4,0,0,0,10.2,0h0a6,6,0,0,0,1.9-4.7V242c0-5.6-1.1-9.8-3.3-12.5s-5.5-4.2-10.1-4.2a17.31,17.31,0,0,0-7.1,1.4h0a13.58,13.58,0,0,0-5.3,4.2V215.1h0a5.62,5.62,0,0,0-1.9-4.4h0a8.16,8.16,0,0,0-5-1.7h0a7.07,7.07,0,0,0-5.2,1.8h0a5.91,5.91,0,0,0-2,4.5v43.5h0a5.91,5.91,0,0,0,1.9,4.7,8.4,8.4,0,0,0,10.2,0h0a6,6,0,0,0,1.9-4.7V243.2a7.55,7.55,0,0,1,1.8-5.4h0a6.29,6.29,0,0,1,5-2c3.2,0,4.9,1.9,4.9,5.6v17.3h0a5.91,5.91,0,0,0,1.9,4.7Zm28.2-.6a26.58,26.58,0,0,0,22.4,0h0a17.85,17.85,0,0,0,7.4-7h0a21.19,21.19,0,0,0,2.6-10.7h0a20.58,20.58,0,0,0-2.6-10.6h0a17.85,17.85,0,0,0-7.4-7h0a26.81,26.81,0,0,0-22.5,0h0a17.62,17.62,0,0,0-7.4,6.9h0a20.58,20.58,0,0,0-2.6,10.6h0a21.19,21.19,0,0,0,2.6,10.7,19.69,19.69,0,0,0,7.5,7.1ZM221,235.6c5,0,7.5,3.2,7.5,9.8s-2.5,9.8-7.5,9.8-7.5-3.3-7.5-9.8,2.5-9.8,7.5-9.8Zm29.7,28.2a8.72,8.72,0,0,0,10,0h0a6,6,0,0,0,2-4.9V215.6h0a6.08,6.08,0,0,0-2-4.9,8.4,8.4,0,0,0-10,0h0a6,6,0,0,0-2,4.9V259h0a5.88,5.88,0,0,0,2,4.8Zm28.2-.7h0a24.06,24.06,0,0,0,11.2,2.4h0a25.17,25.17,0,0,0,6.7-.9h0a33.54,33.54,0,0,0,6.3-2.2h0a5.16,5.16,0,0,0,3.1-4.8h0a6.18,6.18,0,0,0-1.1-3.7h0a3.7,3.7,0,0,0-2.9-1.4h0a7.61,7.61,0,0,0-2.1.3c-.7.2-1.5.5-2.3.8h0c-1.2.4-2.4.9-3.7,1.2h0a14.72,14.72,0,0,1-3.6.4h0a8.11,8.11,0,0,1-5.6-1.7,8.63,8.63,0,0,1-2.4-5.4h20.8a3.1,3.1,0,0,0,2.4-1h0a4,4,0,0,0,.8-2.8h0a22.61,22.61,0,0,0-2.2-10.2h0a16.27,16.27,0,0,0-6.3-6.7,19.71,19.71,0,0,0-9.5-2.4h0a19.4,19.4,0,0,0-10,2.6h0a18.81,18.81,0,0,0-6.9,7.1h0a22.16,22.16,0,0,0-2.5,10.4h0a21.19,21.19,0,0,0,2.6,10.7,17.85,17.85,0,0,0,7.4,7Zm5.4-26.6h0a5.88,5.88,0,0,1,4.4-1.8c3.7,0,5.6,2.3,6,6.9H282.3a8.77,8.77,0,0,1,2-5.1Zm56.5,25.6h0a10.82,10.82,0,0,0,4.8-9.2c0-3.4-1-6-3.1-7.8s-5.7-3.2-10.7-4.1h0a26.14,26.14,0,0,1-6.1-1.6h0a2,2,0,0,1-1.5-2h0a1.85,1.85,0,0,1,1.1-1.7h0a7.79,7.79,0,0,1,3.1-.6h0a13.17,13.17,0,0,1,3.4.4,22.56,22.56,0,0,1,3.3,1.3,11.91,11.91,0,0,0,4.9,1.3h0a3.51,3.51,0,0,0,2.9-1.5h0a6.07,6.07,0,0,0,1.2-3.7h0a5,5,0,0,0-2.4-4.6,21.54,21.54,0,0,0-5.9-2.4,26.66,26.66,0,0,0-6.9-.9,24.06,24.06,0,0,0-8.8,1.6h0a14.06,14.06,0,0,0-6.2,4.6h0a9.68,9.68,0,0,0-2.2,6.5h0a9.44,9.44,0,0,0,3.1,7.7c2.1,1.8,5.4,3.2,10.1,4.1,2.6.5,4.5.9,5.6,1.2a4.69,4.69,0,0,1,2.2.9,1.61,1.61,0,0,1,.6,1.3h0a2,2,0,0,1-1.2,1.7h0a9.19,9.19,0,0,1-3.3.6h0a20.4,20.4,0,0,1-4.9-.5,41.07,41.07,0,0,1-4.5-1.3c-.8-.3-1.6-.6-2.5-.9a8.33,8.33,0,0,0-2.2-.3,3.7,3.7,0,0,0-2.9,1.4h0a4.91,4.91,0,0,0-1.1,3.5h0a8,8,0,0,0,.6,3A3.51,3.51,0,0,0,313,262h0a20.26,20.26,0,0,0,6.3,2.5h0a52.6,52.6,0,0,0,8.9.8c5.2.2,9.4-1,12.6-3.2Zm32.9-2.5h0a5.69,5.69,0,0,0,1.9,4.2h0a7.52,7.52,0,0,0,9.4-.1h0a6.24,6.24,0,0,0,1.7-4.7V242.6c0-5.8-1.4-10.2-4.3-13s-7.3-4.3-13.2-4.3h0a44.69,44.69,0,0,0-8.2.8h0a24.38,24.38,0,0,0-6.9,2.3h0a5.5,5.5,0,0,0-2.3,2h0a5.3,5.3,0,0,0-.7,2.8h0a5.67,5.67,0,0,0,1.2,3.7h0a4,4,0,0,0,3.1,1.4h0a8.53,8.53,0,0,0,3.1-.6h0a30.67,30.67,0,0,1,9.4-2.2h0a6.29,6.29,0,0,1,4.2,1.2h0a5.19,5.19,0,0,1,1.2,4v.9h-2.1a53.63,53.63,0,0,0-12.7,1.1h0a12.52,12.52,0,0,0-6.9,3.6h0a10.12,10.12,0,0,0-2.2,6.6h0a12.24,12.24,0,0,0,1.8,6.5,12.38,12.38,0,0,0,5.1,4.5,16.14,16.14,0,0,0,7.2,1.6h0a12.2,12.2,0,0,0,6.2-1.6h0a8.85,8.85,0,0,0,3.7-4.4Zm-9.6-4.6h0a3.77,3.77,0,0,1-1.1-3h0a3,3,0,0,1,2.1-3h0a21.33,21.33,0,0,1,7.1-.9h1.2v.9a8.22,8.22,0,0,1-1.8,5.2h0a6.34,6.34,0,0,1-4.7,2h0a4.2,4.2,0,0,1-2.8-1.2Zm42.5-44.2a8.4,8.4,0,0,0-10,0h0a6,6,0,0,0-2,4.9V259h0a5.88,5.88,0,0,0,2,4.8,8.72,8.72,0,0,0,10,0h0a6,6,0,0,0,2-4.9V215.6h0a6.08,6.08,0,0,0-2-4.9Zm18.3,52.3h0a24.06,24.06,0,0,0,11.2,2.4h0a25.17,25.17,0,0,0,6.7-.9h0a33.54,33.54,0,0,0,6.3-2.2h0a5.16,5.16,0,0,0,3.1-4.8h0a6.18,6.18,0,0,0-1.1-3.7h0a3.7,3.7,0,0,0-2.9-1.4h0a7.61,7.61,0,0,0-2.1.3c-.7.2-1.5.5-2.3.8h0c-1.2.4-2.4.9-3.7,1.2h0a14.72,14.72,0,0,1-3.6.4h0a8.11,8.11,0,0,1-5.6-1.7,8.63,8.63,0,0,1-2.4-5.4h20.8a3.1,3.1,0,0,0,2.4-1h0a4,4,0,0,0,.8-2.8h0a22.61,22.61,0,0,0-2.2-10.2h0a16.27,16.27,0,0,0-6.3-6.7,19.71,19.71,0,0,0-9.5-2.4h0a19.4,19.4,0,0,0-10,2.6h0a18.81,18.81,0,0,0-6.9,7.1h0a22.16,22.16,0,0,0-2.5,10.4h0a21.19,21.19,0,0,0,2.6,10.7,17.85,17.85,0,0,0,7.4,7Zm5.4-26.6h0a5.88,5.88,0,0,1,4.4-1.8c3.7,0,5.6,2.3,6,6.9H428.4a8,8,0,0,1,1.9-5.1Z" transform="translate(-0.98 -163.83)"/><path class="bdffa9b4-f4b2-42a4-8ebd-23b7a01f23ba" d="M27.5,279.9c-.1.3-.2.7-.4,1.4C27.2,280.8,27.4,280.4,27.5,279.9Z" transform="translate(-0.98 -163.83)"/><path class="bdffa9b4-f4b2-42a4-8ebd-23b7a01f23ba" d="M27.6,279.6h0c-.1.2-.1.2-.1.3A.77.77,0,0,0,27.6,279.6Z" transform="translate(-0.98 -163.83)"/><path class="bdffa9b4-f4b2-42a4-8ebd-23b7a01f23ba" d="M27.6,279.7a190.85,190.85,0,0,1,18.2-41.1c2.1-3.6,4.2-7,6.4-10.3-1.2-3.2-1.9-5.2-1.9-5.2a24.5,24.5,0,0,1-1.4-8,20.61,20.61,0,0,1,7.7-16.4,23.09,23.09,0,0,1,14.5-5.1,23.93,23.93,0,0,1,9.1,1.9,60,60,0,0,1,15.2-9.9c18.7-9.3,26.4,1.5,29.3,14.7a18.46,18.46,0,0,1,3.7-3.1c.2-.1.5-.3.7-.4-1.1-6.4-3.8-11.4-8.5-14.3-3.1-1.9-13.3-8.5-18.3-11C83,161.8,50.5,192.8,29.4,229,7.8,266.1-2.4,310.5,16.2,322.1c4.3,2.7,11,7.3,13.1,8.5,8.7,4.9,20.4,1.7,32.7-6.7a32,32,0,0,0-1.7-5.5C6,338.6,26.7,282.1,27.6,279.7Z" transform="translate(-0.98 -163.83)"/></svg>