<svg id="b463b7c0-fc1a-4c34-9170-f41dbbae82ea" data-name="Layer 1" xmlns="http://www.w3.org/2000/svg" viewBox="0 0 1019.93 410.2"><defs><style>.aaeecbc9-3869-4e67-8f0a-8134fc946a28{fill:#fff;}.b556416b-a270-493e-b651-99d0cca3df69{fill:#1a3b70;}.b8fa5963-d2b5-4a23-9cd6-a90308c78917{fill:#dd1738;}</style></defs><path class="aaeecbc9-3869-4e67-8f0a-8134fc946a28" d="M1017.7,84.6C1010.8,61,999.2,45.4,983,38.3c-11.1-4.9-23.4-5.4-36.6-1.5C941.1,38.4,907.9,50,839.6,74c-17.5,6.1-36.7,12.9-57.2,20H752.7l-62.5-.1h-8.6l-.3,1a70.74,70.74,0,0,0-12.6-1H657.1C630,41.1,575.2,4.9,512,4.9S394,41.1,366.9,93.8h-9.7l-43.6.1H304l-1.5,7.9c-7.9-5.3-17.8-7.9-30.2-7.9h-.6l-30,.1c-20.5-7.2-39.7-13.9-57.2-20C116.1,50,82.9,38.4,77.5,36.9,64.3,33,52,33.5,40.9,38.4,24.8,45.5,13.2,61,6.3,84.6c-17.1,58.6,22,75,34.4,78.6,5.4,1.6,39.3,9.6,109.4,26.1,6.3,1.5,12.9,3,19.7,4.6l-.1,67.1v4.4l2.9,3.3,19.4,22c-2.4.6-4.8,1.1-7.1,1.5a33.87,33.87,0,0,1-8.1.8c-10.3-9.8-22.3-13.4-33.8-10.1s-19.9,13.3-23.2,27.3c-2.5,10.8-1.9,23.6,1.7,36.1s10,23.6,18,31.4a44.2,44.2,0,0,0,12.8,8.9,25.06,25.06,0,0,0,4.6,1.6,30.35,30.35,0,0,0,16.9,0c11.5-3.3,19.7-13,23.1-26.7a37.13,37.13,0,0,1,7.3-3.7c13.4-5.4,30.3-10,53.4-16.2l-6,20-4.1,13.6,14-2.1c.9-.1,64.1-9.6,146-14.8l22.3,16.2-8.5,26.3,23.8-15.2L466,400.8l18.4,14.3,14.4-10.5,13.4-9.7,13.4,9.7L540,415.1l18.4-14.3,14.4-10.5,6.5-4.7,23.8,15.2-8.5-26.3,22.3-16.2c81.8,5.3,145,14.8,145.8,14.9l14,2.1-4.1-13.6-6.1-20.1c23.2,6.2,40.1,10.8,53.6,16.2a37.13,37.13,0,0,1,7.3,3.7c3.4,13.8,11.6,23.4,23.1,26.7a30.35,30.35,0,0,0,16.9,0,41.89,41.89,0,0,0,4.6-1.6,44.2,44.2,0,0,0,12.8-8.9c8-7.7,14.4-18.9,18-31.4s4.3-25.3,1.7-36.1c-3.3-14-11.8-24-23.2-27.3s-23.5.3-33.8,10.1a39.49,39.49,0,0,1-8.1-.8c-1.5-.3-3-.6-4.6-.9,10.7-12.1,26.5-30,28.7-32.5a46.13,46.13,0,0,0,8.5-14.1c3.2-8.5,4.8-19.9,4.8-34.7a136.11,136.11,0,0,0-1.3-20.9c69.2-16.3,102.8-24.2,108.1-25.8,12.2-3.6,51.2-20,34.1-78.7Z" transform="translate(-2.04 -4.9)"/><path class="b556416b-a270-493e-b651-99d0cca3df69" d="M980.5,153.3c-5.3,1.6-46.5,11.3-108.9,26-3.3.8-6.7,1.6-10.1,2.4a35.8,35.8,0,0,1,1.1,3.5c1.6,5.7,2.4,13.8,2.4,24.8,0,13.4-1.3,23.4-4,30.6a33.49,33.49,0,0,1-6.2,10.5c-.2.2-38.4,43.4-38.6,43.7a20.79,20.79,0,0,1-2.1,2.1c8.5,2.4,16.1,4.3,23.2,5.7,6.2,1.2,10.3,1.3,14.8.5,8.1-8.9,17.5-12.6,26.1-10,7.9,2.3,13.6,9.3,16,19.7,2.1,9.1,1.6,20.1-1.6,30.8s-8.6,20.3-15.3,26.8a34,34,0,0,1-9.8,6.8,22.82,22.82,0,0,1-14.4,1.2c-8.6-2.5-14.6-10.7-16.6-22.5-3.4-3.1-6.9-5.2-12.8-7.5-14.5-5.8-32.2-10.6-56.9-17.2-1.4-.4-2.7-.7-4.1-1.1l-3.3-10.9L783,274.1l-12.5-1.8c-1.2-.2-125.9-18.4-254.3-18.4h-8.9c-128.5,0-253.1,18.2-254.3,18.4l-12.5,1.8,23.5,45-3.3,11c-1.3.4-2.7.7-4,1.1-24.6,6.6-42.4,11.3-56.9,17.2-5.9,2.4-9.4,4.5-12.8,7.5-2,11.8-8,20-16.6,22.5a20.32,20.32,0,0,1-11.2-.1c-1.1-.3-2.1-.7-3.2-1.1a34,34,0,0,1-9.8-6.8c-6.7-6.5-12.1-16-15.3-26.8s-3.7-21.7-1.6-30.8c2.5-10.4,8.2-17.4,16-19.7,8.6-2.5,18,1.2,26.1,10,4.5.8,8.6.6,14.8-.5,7.7-1.4,16-3.6,25.5-6.3l-30.9-35,.1-75c-10-2.4-19.7-4.6-28.9-6.8-62.3-14.7-103.5-24.4-108.9-26-16-4.7-40.8-19.5-27.3-65.8,6-20.5,15.7-33.9,28.9-39.7,8.8-3.9,18.7-4.2,29.5-1.1,5.8,1.5,46,15.5,106.8,36.8,19,6.6,40,14,62.4,21.8l28.3-.1c10.5-.1,18.4,2,24.4,6.1A30.39,30.39,0,0,1,307,124.9c.1.2.8,1.9,1.3,3.2l.9.3,4.3-23.1,50.4-.1,4.7,16.9.1-16.9h5.5C398.1,53,450.8,16.5,512,16.5S625.9,53,649.8,105.4h18.9c8.2,0,14.9,1.3,20.3,3.8l1.1-3.8,66.3.1,2,5.6,2.2-5.6h20C803,97.7,824,90.4,843,83.7c60.8-21.3,101-35.4,106.4-36.9,10.8-3.2,20.7-2.8,29.5,1.1,13.2,5.8,22.9,19.1,28.9,39.7,13.5,46.3-11.3,61-27.3,65.7ZM518.4,367.9,512,348.1l-6.4,19.8H484.8l16.8,12.2-6.4,19.8L512,387.7l16.8,12.2-6.4-19.8,16.8-12.2Zm-70.7-3.8-4.3-13.3-4.3,13.3h-14l11.3,8.2-4.3,13.3,11.3-8.2,11.3,8.2-4.3-13.3,11.3-8.2Zm137.2,0-4.3-13.3-4.3,13.3h-14l11.3,8.2-4.3,13.3,11.3-8.2,11.3,8.2-4.3-13.3,11.3-8.2Z" transform="translate(-2.04 -4.9)"/><path class="aaeecbc9-3869-4e67-8f0a-8134fc946a28" d="M634.8,105.4a137.74,137.74,0,0,0-245.6-.1h19.7c11.7,0,20.5,1.7,26.8,5.2v-5.2h65.8l4.6,11.3V105.3h42.5v5.5a21.16,21.16,0,0,1,2-1.2c6.8-3.7,16-5.5,28.1-5.5a126,126,0,0,1,14.3.9,123.26,123.26,0,0,1,13.6,2.3l8.3,2c4.1,1.2,6.7,2,8,2.5l1.2-6.4Z" transform="translate(-2.04 -4.9)"/><path class="b8fa5963-d2b5-4a23-9cd6-a90308c78917" d="M555.9,107.3,548,95.2l6.8-1.9,8.9,12A49.14,49.14,0,0,0,555.9,107.3Zm18.7-3.1c1.3,0,2.7-.1,4.1-.1,1,0,2,0,3.1.1l-.5-3.7L569,88.5,563.1,91l11.5,13Zm-50.4,1.1c-1.4-3.5-2.5-6.6-2.5-6.6l-7.1.3,2.3,6.3Zm19,0c-.1-.2-.3-.5-.4-.7-2.2-3.9-4.1-7.8-4.1-7.8l-7.3,1.3,3.6,7.3Zm77.1-21.7.2-.6-.1-.1c-2.6-3.3-5.4-6.6-8.3-9.7l-.3-.3c-3-3.1-6.1-6.1-9.3-8.9h-5.2l-2.9,4.4,15,2.9ZM592.5,105a.9.9,0,0,1,.5.1c2.7.3,5.2.7,7.6,1.1l-5.1-15.6-14-9-5.2,3.2,13.2,10.5Zm17.3-6.9,5.5-6.6-8.9-14-15.3-4.6-4,4.2,15,6.6ZM470.2,93.4l-6.3-2-.3,13.9h7ZM427.5,65.5l-1.7-3.6a28.11,28.11,0,0,0-4.1,2c-.2.2-.5.4-.7.6a20,20,0,0,1-1.6,1.4c-.7.6-1.3,1.2-2,1.8l-1.2,1.2c-.8.7-1.5,1.5-2.2,2.2a6.47,6.47,0,0,0-.8.9c-.8.9-1.7,1.7-2.5,2.6a2.65,2.65,0,0,0-.5.6,14.62,14.62,0,0,0-1.6,1.9l8.4-.6Zm74.1,39.8,4.6,11.3V106.1l-1.9-7.3-7-.5s.6,3.3,1.5,7Zm-83.3-3,5,4.2c.8.1,1.5.3,2.2.4l13.1-9.1,4.7-16.1-4.8-3.5-6.1,15.3Zm7.2-14.7,7.9-14-3.1-3.9L420.5,82l-14.7,5.2,4,6.2Zm55.4,17.7h6.9c-.7-4.2-1.2-8.3-1.2-8.3a3.5,3.5,0,0,1-1-.2c-.6-.1-1.4-.3-2.3-.4l-3.3-.6s.3,4.4.8,8.8A1.7,1.7,0,0,1,480.9,105.3Zm-27.7,0,.2-.2L455.3,88s-5.8-2.7-5.7-2.8-.2,1-.6,2.6-2.4,14.2-2.4,14.2l-3.8,3.3ZM769.5,281.1s-123.7-18.3-253-18.3h-8.8c-129.3,0-253,18.3-253,18.3l19.4,37.1L260,364.3s121.2-18.4,247.8-18.4h8.4c126.6,0,247.7,18.4,247.7,18.4L750,318.2Z" transform="translate(-2.04 -4.9)"/><path class="aaeecbc9-3869-4e67-8f0a-8134fc946a28" d="M187.3,116.6c15.5,0,31-.1,46.4-.1v20c-7.8.2-11.7.3-19.5.6V158c0,12-.1,23.9-.1,35.9,0,16.7-.1,33.4-.1,50.1l-21.9,4c0-22.5.1-44.9.1-67.4V137.7c-1.3,0-2.5.1-3.7.1-1.9.1-3.6.1-5.2.2H183c-3.1.1-6.1.2-10.3.4V116.6Zm259.1,59.5v11c0,7.3,0,14.6-.1,22v9.6c3.6-.1,6.4-.2,9.1-.3h7.2a18.48,18.48,0,0,0,2.3-.1h.6a24.37,24.37,0,0,0,2.7-.1V185.5c0-23.1.1-46.1.1-69.2H446.5c0,19.9,0,39.9-.1,59.8Zm91.4,13.7c0-24.5-.1-49.1-.1-73.6H516.9v53.1h-1.1c-8.7-21.3-13-31.8-21.7-53.1H473.3c0,23.1-.1,46.1-.1,69.2v32.4a17.7,17.7,0,0,0,2.3-.1h1.2c6.3-.1,10.4-.2,17.6-.3V160.3h.7l15.3,37.8c.3.7.6,1.5.9,2.2l6.9,17.1c7.8,0,11.7.1,19.6.2V193.1c.1-1.1.1-2.2.1-3.3Zm66.6-29.3c-11.7-.3-17.5-.4-29.2-.6v15.8c2.5.1,4.2.1,6.1.1h3.4v8.8c0,6.2,0,11.2.1,19a41.45,41.45,0,0,1-7.5.3c-4.3-.1-7.2-1-9-2.7s-2.8-4.9-3.4-9.6a15.16,15.16,0,0,1-.2-2.3v-.2c-.1-.7-.1-1.5-.2-2.3v-.1c-.3-4.8-.4-11.3-.5-19.6,0-12.2.4-20.6,1.4-25.3s2.7-7.7,5.3-8.9,7.2-1.7,14-1.7A154.64,154.64,0,0,1,604,133c0-6.1,0-9.1-.1-15.2a98.85,98.85,0,0,0-12.3-2,103.83,103.83,0,0,0-13-.8c-10.2,0-17.8,1.4-22.9,4.1s-8.6,7.7-10.5,15-2.9,18.2-2.9,32.8a209.76,209.76,0,0,0,.9,21,83.79,83.79,0,0,0,1.6,10.5c.1.5.2.9.3,1.4a26.5,26.5,0,0,0,6.3,12.3c.5.5,1.1,1,1.7,1.5a12.74,12.74,0,0,0,1.9,1.3c.6.3,1.2.7,1.8,1,.2.1.5.2.7.3a5,5,0,0,0,1.3.5c.3.1.6.2,1,.3s.8.3,1.2.4l1.2.3,1.2.3c.4.1.9.2,1.4.3a5,5,0,0,0,1.2.2c.5.1,1,.2,1.6.3.4.1.8.1,1.2.2a11,11,0,0,0,1.8.2c.3,0,.7.1,1,.1.7.1,1.4.1,2.1.2,1,.1,2.1.1,3.2.2a147.32,147.32,0,0,0,14.8-.2c.4,0,.8-.1,1.2-.1l3.3-.3,3-.3c.2,0,.4-.1.6-.1l2.2-.3c.9-.2,1.8-.3,2.6-.5v-1.7c-.1-21.8-.2-33.3-.2-55.7Zm118.7,6.7c-.1-10.2-.1-20.3-.2-30.5,0-3.7,0-7.3-.1-11v-9.4H701c0,8.7.1,17.4.1,26.2v1.8c.1,10.8.1,21.6.2,32.4v3.5c.1,9.9.1,19.8.2,29.7v17.9c8.7,1,13.1,1.5,21.8,2.6-.1-20.3-.2-40.7-.3-61a5.45,5.45,0,0,0,.1-2.2Zm69.3-4.3V116.4H771.6c0,5.7,0,11.5.1,17.2v2.9c0,5.4,0,10.8.1,16.2v4.8c0,7.4.1,14.8.1,22.2-.4,0-.7-.1-1.1-.1l-3.3-9.6c-.9-2.8-1.9-5.6-2.9-8.4-.3-.9-.6-1.7-.9-2.6-2.6-7.5-5.2-15.1-7.8-22.6-.1-.2-.2-.5-.3-.7-.8-2.3-1.6-4.5-2.4-6.8l-.9-2.4c-.7-2-1.4-4.1-2.1-6.1-.5-1.3-.9-2.7-1.4-4H728c0,4.5,0,9.1.1,13.6v5c.1,10.2.1,20.5.2,30.7v3.9c0,3.8,0,7.7.1,11.5.1,10.7.1,21.3.2,32,0,6,.1,12,.1,17.9,8.4,1.1,12.5,1.6,20.9,2.8,0-8.6-.1-17.1-.1-25.7-.1-11-.1-22-.2-33v-7.6h.7c.8,2.2,1.5,4.5,2.3,6.7v.1c3.5,10.2,6.9,20.4,10.3,30.6,3.6,10.8,7.2,21.5,10.7,32.3,7.8,1.2,11.6,1.8,19.4,3.1-.1-24.6-.2-49.1-.2-73.7-.1-1.1-.1-2.4-.1-3.7ZM371.3,202.5c1.3,6.8,2.6,13.7,3.9,20.5-8.9.7-13.4,1.1-22.3,2-1.6-9.4-2.4-14.1-4.1-23.5-8.6.7-12.9,1-21.5,1.7-.2,1.2-.4,2.2-.6,3.3-.1.4-.1.8-.2,1.2a.37.37,0,0,1-.1.3c-1.2,7-2.1,11.8-3.5,20.1l-21.2,2.5c-8.7,1.1-13.3,1.7-22.1,2.9-2.7-10.4-4.5-17.5-6.6-25.7-.6-2.2-1.1-4.5-1.8-7,0-.1,0-.1-.1-.2-.2-1-.5-2-.8-3l-.3-1.2c-.3-1.2-.6-2.3-.9-3.6h-.4l-10,1c-.1,17.1-.1,25.7-.2,42.8-8.8,1.3-13.2,2-21.9,3.5,0-13.6.1-27.1.1-40.7,0-11.6.1-23.2.1-34.8V151c0-11.5.1-23,.1-34.5h34.4a24.37,24.37,0,0,1,2.7.1c6.8.3,12,1.7,15.6,4.1a14.93,14.93,0,0,1,2.7,2.3c.6.6,1.1,1.2,1.6,1.8.1.1.2.3.3.4a13.73,13.73,0,0,1,1.3,2c.4.7.7,1.5,1.1,2.2a1.42,1.42,0,0,1,.2.6,18.29,18.29,0,0,1,.8,2.5c.1.6.3,1.2.4,1.8l.3,1.8a94.06,94.06,0,0,1,1.1,17.2,109.47,109.47,0,0,1-.8,13.6c-.3,2.3-.7,4.5-1.1,6.4-.1.3-.1.6-.2.9a22.77,22.77,0,0,1-3.1,6.9,17.55,17.55,0,0,1-2.4,3c-.4.4-.9.8-1.3,1.2-.1,0-.1.1-.2.1-.5.4-1,.8-1.6,1.2.4,1.3.7,2.5,1.1,3.7a3.09,3.09,0,0,1,.2.8c.3,1,.6,2,.9,2.9.1.2.1.4.2.5.3.9.5,1.8.8,2.6l.3.9.9,3a6.37,6.37,0,0,1,.2.7l.6,2.1a5.64,5.64,0,0,0,.4,1.2c.2.6.3,1.1.5,1.7.1.4.2.7.3,1.1.5,1.8,1.1,3.6,1.6,5.4,0,.2.1.3.1.5,1.4,4.6,2.8,9.4,4.5,15.2,3.3-17.9,6.5-35.9,9.9-53.8.3-1.5.5-2.9.8-4.4,1.8-9.5,3.5-19,5.3-28.5.6-3.3,1.2-6.6,1.8-9.8l3-15.9h32.4c1.9,10.1,3.8,20.1,5.7,30.2.2,1.2.5,2.5.7,3.7l6.9,36.6c.5,2.4.9,4.7,1.4,7.1A44.89,44.89,0,0,1,371.3,202.5Zm-93.1-48.1a92.81,92.81,0,0,0-.6-12.6c-.4-2.6-1.3-4.4-2.7-5.3-.3-.2-.6-.3-.9-.5a13.73,13.73,0,0,0-5.9-.8c-2.4.1-4,.1-5.9.1a27.15,27.15,0,0,0-2.8.1v2c0,9.2-.1,15.8-.1,23.2v1c0,4.1,0,8.5-.1,13.7,3.5-.3,5.2-.4,8.7-.6a11,11,0,0,0,1.8-.2,11.22,11.22,0,0,0,5-1.7c1.4-1.1,2.3-2.9,2.8-5.6v-.1c.1-.4.1-.8.2-1.2v-.3c0-.4.1-.8.1-1.2V164c0-.4.1-.9.1-1.3v-.4C278.1,160.1,278.2,157.5,278.2,154.4Zm68.6,30.4c-.1-.9-.3-1.7-.4-2.6l-.3-1.8c-1.8-11.4-3.2-19.6-4.7-29.6-.5-3.4-1.1-7.1-1.8-11.2-.2-1.1-.4-2.2-.5-3.4H338c-2.7,16.2-4.3,25.8-6.6,39.9v.1c-.5,3-1,6.2-1.6,9.8,4.1-.3,7-.5,10.1-.7.5,0,1-.1,1.5-.1h.2c.4,0,.9-.1,1.4-.1h.7c.4,0,.8-.1,1.3-.1a5,5,0,0,1,1.8-.2Zm505.3,3.3a35.4,35.4,0,0,0-1.4-3.9,20,20,0,0,0-1-2.1V182a10.81,10.81,0,0,0-1.1-1.8c-.3-.5-.7-.9-1-1.4l-.3-.3-1.2-1.2a24.29,24.29,0,0,0-9.3-4.9l-12.5-4a11.94,11.94,0,0,1-4.7-2.4,7.18,7.18,0,0,1-1.9-4.3c0-.3-.1-.7-.1-1v-.3c0-.4-.1-.8-.1-1.2-.1-1-.1-2.1-.2-3.4v-3.5c0-2.7.1-5,.2-6.8.1-.6.1-1.2.2-1.7a9.53,9.53,0,0,1,1.9-4.8,6,6,0,0,1,.8-.8,8.86,8.86,0,0,1,3.9-1.8c.5-.1,1.2-.2,1.8-.3s1.2-.1,1.8-.2h.7a7.57,7.57,0,0,0,1.5-.1h3.2c3.6.1,7.1.4,10.3.8a61.66,61.66,0,0,1,6.6,1.1V118.3c-.3-.1-.6-.2-1.1-.4s-.8-.2-1.3-.3h-.1a12.44,12.44,0,0,1-1.6-.4,11.63,11.63,0,0,1-1.8-.4c-.1,0-.3-.1-.4-.1-.7-.1-1.4-.3-2.2-.4a83.67,83.67,0,0,0-14.8-1.2c-7.2,0-13,1.1-17.6,3.1a20.19,20.19,0,0,0-9.3,9c-.4.7-.7,1.4-1.1,2.1a18.61,18.61,0,0,0-1,2.5,50.35,50.35,0,0,0-2.4,13.7c-.1,1-.1,2-.1,3.1v3.7c0,3.5.1,6.7.4,9.7.1,1.3.2,2.5.4,3.7a.6.6,0,0,0,.1.4,23.58,23.58,0,0,0,.4,2.8c0,.3.1.6.1.8.1.8.3,1.5.4,2.2.1.3.1.5.2.8a19.73,19.73,0,0,0,.7,2.6c1.7,5.5,4.9,8.9,9.5,10.3,5.8,1.8,8.7,2.7,14.5,4.6.5.2.9.3,1.3.5,2.8,1,4.8,2,5.9,3.1a9.18,9.18,0,0,1,2.6,5.3,80.22,80.22,0,0,1,.6,11.9c0,7.2-.8,11.8-2.5,13.7a6.86,6.86,0,0,1-4.3,1.9,29.6,29.6,0,0,1-7.8-.6c-4.8-.7-11.7-2.2-20.5-4.3,0,7.2,0,10.8.1,17.9a101.18,101.18,0,0,0,12.7,4.5,123.9,123.9,0,0,0,13.8,3.3c7.2,1.4,13,1.4,17.3,0s7.5-4.9,9.7-10.8,3.3-14.8,3.3-26.7c-.2-9.7-.8-17-2.2-21.8ZM697.2,145.7c.1,2.5.2,5.1.3,7.9,0,8.5-.6,15.3-1.8,20.5l-.3,1.2a18.06,18.06,0,0,1-3.1,6.2c0,.1-.1.1-.1.2a21,21,0,0,1-1.4,1.7,15.43,15.43,0,0,1-3.1,2.5c-3.9,2.6-9.6,3.6-17.1,3.3a6.6,6.6,0,0,1-1.4-.1c-4.7-.3-7-.4-11.7-.7,0,4.9,0,9,.1,12.8v5.2c0,4.1,0,8.3.1,13.3v3.8c-8.8-.7-13.2-1.1-22.1-1.7,0-7.5-.1-15-.1-22.5v-6.7c0-8.4-.1-16.9-.1-25.3v-2.4c-.1-16.2-.1-32.4-.2-48.6h33.7c8.1,0,14.3,1.4,18.4,4.2a20.45,20.45,0,0,1,8.3,12c.2.8.4,1.7.6,2.6s.3,1.5.4,2.4.2,1.6.3,2.5q0,2.7.3,5.7Zm-21.8,7.1v-3.5a17.72,17.72,0,0,0-.1-2.4c0-.8-.1-1.5-.1-2.2v-.5c0-.7-.1-1.3-.1-1.8-.1-.9-.2-1.6-.3-2.2a7.77,7.77,0,0,0-2.8-5.3c-1.4-1-3.7-1.5-6.8-1.5s-4.8-.1-8-.1c0,6,.1,10.8.1,15.3v4.3c0,5.6.1,11.2.1,18.6,3.2.1,4.8.2,8,.4s5.4-.2,6.8-1.2,2.3-2.7,2.7-5.2a119.34,119.34,0,0,0,.5-12.7Zm-235.5-18c1.1,6.5,1.7,17.4,1.6,32.8,0,2.4,0,4.7-.1,6.9,0,1.9-.1,3.7-.1,5.4v.5c-.1,1.7-.1,3.3-.2,4.9a135.34,135.34,0,0,1-1.4,15,24.38,24.38,0,0,1-1.9,6.3c-.5,1-1,2-1.5,2.9-.1.1-.1.2-.2.3a23.48,23.48,0,0,1-1.9,2.5,14.75,14.75,0,0,1-3,2.6,24.92,24.92,0,0,1-5.9,2.8c-.4.1-.9.3-1.4.4a2.35,2.35,0,0,1-.8.2c-.6.2-1.3.3-2,.5l-1.4.3a5.07,5.07,0,0,1-1.3.2c-.6.1-1.2.2-1.9.3-.3,0-.6.1-.9.1l-2.9.3c-.3,0-.6.1-.9.1l-3.4.3c-11.8.7-17.6,1.1-29.4,2.1,0-6,.1-12,.1-18V189.6c0-10.1.1-20.1.1-30.2v-6.7c.1-12.2.1-24.5.2-36.7h29.3c10.6,0,18.1,1.5,22.6,4.4,4.6,3.2,7.4,7.9,8.6,14.4Zm-20.7,8.3c-.5-4.6-1.4-7.5-2.7-8.6s-3.9-1.7-7.6-1.7c-3.1,0-4.6,0-7.6.1,0,9.8-.1,19.6-.1,29.3v9.3c0,9.1-.1,18.2-.1,27.2v5.8c2.1-.1,3.4-.2,5.1-.3h.9c.5,0,1.1-.1,1.7-.1,3.8-.2,6.3-.9,7.7-2.1a3.32,3.32,0,0,0,.9-1.3,21.51,21.51,0,0,0,1.8-7.5c.4-3.8.7-10.1.8-18.8v-7.5c-.2-11.4-.4-19.4-.8-23.8ZM321.8,312.9l-7.2,6.2,3.7,8.8-8.1-4.9-7.2,6.2,2.2-9.2-8.1-4.9,9.5-.8,2.2-9.2,3.7,8.8Zm91.7-31.1c1.2,20.8,1.7,31.2,2.9,52l9.1-.5c-1.1-20.8-1.6-31.2-2.6-52Zm74.1,28.9c2.4,8.2,3.5,12.3,5.8,20.5-3.8,0-5.6.1-9.4.1-1.9-7.4-2.8-11.1-4.7-18.5h-.2c-1.7,0-2.5,0-4.2.1.2,7.4.2,11.1.4,18.5-3.7.1-5.5.1-9.2.2-.6-20.8-.8-31.2-1.4-52,5.9-.2,8.8-.2,14.7-.3,3.5-.1,6.1.5,7.9,1.8a8.66,8.66,0,0,1,3.5,5.3,44.16,44.16,0,0,1,1,9.4,47.35,47.35,0,0,1-.7,9.4,8.21,8.21,0,0,1-3.5,5.5Zm-5-14.5a34,34,0,0,0-.4-5.6,3.65,3.65,0,0,0-1.2-2.4,5.46,5.46,0,0,0-2.9-.6c-1.5,0-2.2,0-3.7.1.1,6.9.2,10.3.4,17.2,1.5,0,2.2,0,3.7-.1a5.36,5.36,0,0,0,2.9-.7,3,3,0,0,0,1.1-2.4A42.59,42.59,0,0,0,482.6,296.2ZM532,331.3c8.3.1,12.5.2,20.8.4.1-3.3.1-4.9.2-8.2-4.7-.1-7-.2-11.6-.2.1-5.6.1-8.3.2-13.9,4.1.1,6.2.1,10.3.2.1-3.3.1-4.9.2-8.2-4.1-.1-6.2-.1-10.3-.2.1-5.4.1-8,.2-13.4,4.8.1,7.1.1,11.9.2.1-3.3.1-4.9.2-8.2-8.6-.2-12.8-.3-21.4-.4-.3,20.6-.5,31-.7,51.9Zm75.6-50.2c-4.1-.2-7.1.4-9.1,1.8s-3.4,4-4.2,7.6a100.65,100.65,0,0,0-1.7,16.5,123.18,123.18,0,0,0,.1,16.6c.4,3.6,1.6,6.3,3.4,7.9s4.7,2.5,8.7,2.8a24.74,24.74,0,0,0,3.8-.1,18.65,18.65,0,0,0,3.3-.7c.2-3,.3-4.5.4-7.6a24,24,0,0,1-5.4.2c-2-.1-3.3-.5-4.1-1.3s-1.2-2.3-1.3-4.7,0-6.6.3-12.6.6-10.2,1-12.6,1-3.9,1.8-4.6,2.3-1,4.3-.9a40.31,40.31,0,0,1,5.3.8c.2-3.1.3-4.6.4-7.6a10.37,10.37,0,0,0-3-1,24.28,24.28,0,0,0-4-.5ZM651.4,293c3.3.3,5,.4,8.3.7-1.5,17.4-2.2,26.1-3.7,43.5,3.7.3,5.5.5,9.1.8,1.6-17.4,2.3-26.1,3.9-43.5,3.3.3,5,.5,8.3.8.3-3.3.5-5,.8-8.4-10.4-1-15.6-1.4-26.1-2.3C651.8,288,651.7,289.7,651.4,293ZM727,314.9l-9.5-.8-2.2-9.2-3.7,8.8-9.5-.8,7.2,6.2-3.7,8.8,8.1-4.9,7.2,6.2-2.2-9.2Zm-352.6-4.3a137.46,137.46,0,0,1,.6,16.6c-.2,3.4-1.2,5.9-2.9,7.5s-4.8,2.6-9.2,3c-4.9.4-7.3.6-12.2,1.1-2-20.7-2.9-31.1-4.9-51.8,5-.5,7.5-.7,12.5-1.1,4.5-.4,7.8.1,9.8,1.4s3.4,3.6,4.2,6.9C373.1,297.3,373.8,302.8,374.4,310.6Zm-8.3,13.2c0-2.3-.2-6.5-.8-12.5s-1-10.2-1.4-12.5-.9-3.7-1.5-4.2a4.84,4.84,0,0,0-3.3-.6c-1.3.1-2,.2-3.3.3,1.3,14.2,1.9,21.2,3.2,35.4,1.3-.1,1.9-.2,3.2-.3a4.3,4.3,0,0,0,3.1-1.1c.5-.6.8-2.1.8-4.5ZM159,305.4c-6.4,5-8.2,17.5-4.3,31.2.1.4.2.7.3,1a8,8,0,0,1-5.2,6.5,7.23,7.23,0,0,1-8.2-2.3c-.1-.4-.3-.8-.4-1.3-2.7-9.1-3.2-18.2-1.4-25.5,1.6-6.6,4.7-10.9,8.8-12.1,3.2-.9,6.8.1,10.4,2.5Zm15.9,8.4a51,51,0,0,1-11.5-2.1c-3.1,2.9-4.4,12.3-1.3,22.9.3,1,.6,1.9.9,2.9,1.7,2.5,4.4,4.5,7.4,3.8,2.4-.6,3.7-4.2,3-7.5a39.05,39.05,0,0,1-.7-13.7,17.54,17.54,0,0,1,2.2-6.3Zm700.4-10.9c-3.1-.9-6.7.1-10.3,2.5,6.4,5,8.2,17.5,4.3,31.2-.1.4-.2.7-.3,1a8,8,0,0,0,5.2,6.5,7.23,7.23,0,0,0,8.2-2.3c.1-.4.3-.8.4-1.3,2.7-9.1,3.2-18.2,1.4-25.5-1.6-6.6-4.7-10.9-8.9-12.1Zm-26.2,10.9a19,19,0,0,1,2.2,6.3,36.82,36.82,0,0,1-.7,13.7c-.7,3.2.5,6.9,3,7.5,3.1.7,5.7-1.4,7.4-3.8a24.57,24.57,0,0,0,.9-2.9c3.1-10.6,1.8-20-1.3-22.9a56.08,56.08,0,0,1-11.5,2.1ZM65.6,100.4a110.23,110.23,0,0,0,20.3,13.5A320.51,320.51,0,0,0,131.1,133c10.2,3.5,20.5,6.7,30.8,9.8V131c-5.8-1.9-11.6-3.9-17.4-5.8-16.5-5.8-33.3-11.1-49.1-19.4A108.73,108.73,0,0,1,73.4,91a49.35,49.35,0,0,1-8.8-10c-2.3-3.7-4.4-8.1-3.9-12.5.2,4.4,2.6,8.2,5.3,11.5a59.51,59.51,0,0,0,9.3,8.8,137.13,137.13,0,0,0,22.2,13c15.6,7.5,32.1,12.9,48.8,18.2,5.2,1.7,10.4,3.3,15.7,4.9V113.4c-12.8-4.5-25.6-9.2-38.2-14.4-8.1-3.5-16.2-7.2-24-11.4a102.42,102.42,0,0,1-11.4-7,35.67,35.67,0,0,1-5.2-4.4c-1.5-1.7-3.4-3.6-3.3-6.7a3.54,3.54,0,0,1,.3-1.1,4.13,4.13,0,0,1,.7-1.1,4.69,4.69,0,0,1,1.9-1.1,15.58,15.58,0,0,1,3.6-.5,29.85,29.85,0,0,1,6.7.6c4.4.7,8.7,1.8,13,2.9,1.7.4,3.4.9,5.1,1.3C89,62.8,74.7,57.8,71.9,57c-21.8-6.5-37.4,5-45.7,33.5q-4.65,16.2-3,27.6c.9,3.9,2.7,6.8,4.9,7.4,5,1.5,13.4-9.2,19.7-28.1,2.5,8.5,9.8,17.6,24.7,24.6,13.5,6.1,22.3,3.2,19.6-.2-2.7-1.5-5.4-3-8-4.6-7.1-4.4-14-9.2-19.9-15.2s-10.9-13.2-12-21.5c1.8,8.2,7.3,14.7,13.4,19.9ZM92.8,67.6c-2.2-.1-4.4-.1-6.5,0s-4.4.8-4.1,1.9c-.1,1.4,1.3,3.2,2.7,4.6a39.22,39.22,0,0,0,5,3.9,96.55,96.55,0,0,0,11.3,6.4c7.8,3.9,15.9,7.2,24.1,10.4,12,4.8,24.2,9.2,36.5,13.3v-2.4l50.2-.1c-12.1-4.2-23.7-8.3-34.5-12.1-25.9-9.1-48.5-17-66.2-23.2-1.8-.4-3.6-.8-5.5-1.2-4.3-.7-8.7-1.2-13-1.5ZM180,313.7a15.43,15.43,0,0,0-1,6.8,41.39,41.39,0,0,0,2.3,11.2,27.59,27.59,0,0,1,.8,2.7c1.8-.8,3.7-1.6,6-2.4,2.8-1,5.1-3,4.6-6.1a28.07,28.07,0,0,1,.3-11.5,13.59,13.59,0,0,1,1.1-2.8c-1.9.4-3.8.8-5.6,1.1a69.62,69.62,0,0,1-8.5,1Zm19.1,1.8a27.93,27.93,0,0,0,1.5,8.7c.3,1.1.6,2.2.9,3.4l9-2.7a5.26,5.26,0,0,0,3.2-5.8,22.82,22.82,0,0,1,.2-11.3,8.8,8.8,0,0,1,.5-1.5c-4.7,1.4-9.1,2.6-13.4,3.6a9.93,9.93,0,0,0-1.9,5.6ZM225,303.1c-1.5.5-2.9.9-4.4,1.3a11.42,11.42,0,0,0-1.1,4.4,24.34,24.34,0,0,0,1.6,8.2,43.79,43.79,0,0,1,1.3,4.3c2.6-.8,5.3-1.6,8.2-2.4,2.4-.7,4.5-3.4,3.9-6a22.15,22.15,0,0,1,.3-11.4c0-.2.1-.3.2-.5-1.3.2-2.7.5-4.2.8Zm572.3-.5H797a54,54,0,0,1-7.7-.6,22.81,22.81,0,0,1,.2,11c-.6,2.6,1.5,5.3,3.9,6,2.8.8,5.6,1.6,8.2,2.4a43.79,43.79,0,0,1,1.3-4.3,20.28,20.28,0,0,0,1.6-8.2,10.59,10.59,0,0,0-1.1-4.4c-2.1-.6-4.1-1.3-6.1-1.9Zm38.1,10c-1.8-.3-3.7-.7-5.6-1.1a9.61,9.61,0,0,1,1.1,2.8c1.2,3.9.8,8.1.3,11.5-.5,3.1,1.8,5.1,4.6,6.1,2.3.8,4.2,1.6,6,2.4a27.59,27.59,0,0,0,.8-2.7,45.58,45.58,0,0,0,2.3-11.2,17,17,0,0,0-1-6.8,46.38,46.38,0,0,1-8.5-1ZM823.1,310c-4.3-1.1-8.7-2.3-13.4-3.6.2.5.3,1,.5,1.5a24.05,24.05,0,0,1,.2,11.3,5.26,5.26,0,0,0,3.2,5.8l9,2.7c.3-1.2.6-2.3.9-3.4a28.42,28.42,0,0,0,1.5-8.7,11,11,0,0,0-1.9-5.6Zm31.3-201.8,3.4,1.4c13.7-4.6,27.4-9.4,40.8-14.7,8.2-3.2,16.3-6.6,24.1-10.4A113.45,113.45,0,0,0,934,78.1a39.22,39.22,0,0,0,5-3.9c1.5-1.4,2.8-3.2,2.7-4.6.3-1.1-2.1-1.8-4.1-1.9a47,47,0,0,0-6.5,0A114.28,114.28,0,0,0,918,69.3l-5.5,1.2c-17.7,6.2-40.4,14.1-66.2,23.2-11.6,4-23.9,8.4-36.8,12.9a60.18,60.18,0,0,1,17.2-2.3,95.16,95.16,0,0,1,16.7,1.3c7.1,1.1,9.5,1.9,11,2.6ZM997.8,90.5c-8.3-28.5-23.9-40-45.5-33.7-2.8.8-17.2,5.8-39.3,13.5,1.7-.4,3.4-.9,5.1-1.3,4.3-1,8.6-2.1,13-2.9a29.85,29.85,0,0,1,6.7-.6,11.57,11.57,0,0,1,3.6.5,4.69,4.69,0,0,1,1.9,1.1,2.59,2.59,0,0,1,.7,1.1,4.51,4.51,0,0,1,.3,1.1c.1,3.1-1.8,5.1-3.3,6.7a35.67,35.67,0,0,1-5.2,4.4,112.49,112.49,0,0,1-11.4,7c-7.8,4.2-15.9,7.9-24,11.4-12.9,5.4-26.1,10.2-39.3,14.8v11.5c5.6-1.8,11.2-3.5,16.7-5.3,16.6-5.4,33.2-10.7,48.8-18.2a129.07,129.07,0,0,0,22.2-13,55.4,55.4,0,0,0,9.3-8.8c2.7-3.3,5.1-7.1,5.3-11.5.5,4.5-1.6,8.8-3.9,12.5a49.35,49.35,0,0,1-8.8,10c-6.6,6-14.2,10.7-22.1,14.9-15.7,8.3-32.6,13.6-49.1,19.4-6.2,2.1-12.3,4.1-18.5,6.2v11.8c10.7-3.2,21.3-6.6,31.9-10.2a320.51,320.51,0,0,0,45.2-19.1,121.38,121.38,0,0,0,20.3-13.5c6.1-5.2,11.6-11.8,13.5-19.9-1.1,8.3-6.2,15.6-12,21.5S947,112.7,940,117.1c-2.6,1.6-5.3,3.1-8,4.6-2.7,3.4,6.1,6.3,19.6.2,14.9-7,22.2-16.1,24.7-24.6,6.4,18.9,14.8,29.6,19.7,28.1,2.3-.7,4.1-3.5,4.9-7.4,1-7.6,0-16.8-3.1-27.5ZM254.9,308.7c.4,2.3-.8,3.6-3,4.3q-4.35,1.2-8.4,2.4a27,27,0,0,0-1.3-4.3,21.81,21.81,0,0,1-1.5-8.1,12.61,12.61,0,0,1,.5-2.8c2.6-.5,5.3-1,8.8-1.6l3.2-.5.8,1.5a31.53,31.53,0,0,0,.7,7.7A9.32,9.32,0,0,0,254.9,308.7ZM783,300.8c-3-.7-6.2-1.5-9.6-2.5-.8-.2-1.7-.5-2.4-.7l-.9,1.7a28.36,28.36,0,0,1-.7,7.8c-.1.5-.2,1.1-.3,1.6-.4,2.3.8,3.6,3,4.3q4.35,1.2,8.4,2.4a27,27,0,0,1,1.3-4.3,21.81,21.81,0,0,0,1.5-8.1c-.1-.8-.2-1.5-.3-2.2Z" transform="translate(-2.04 -4.9)"/></svg>