<svg class="fill-current" xmlns="http://www.w3.org/2000/svg" enable-background="new 0 0 750 120" viewBox="0 0 750 120"><ellipse cx="693.7" cy="59" fill="#5ba6e3" rx="37.7" ry="37.7" transform="matrix(.3287 -.9444 .9444 .3287 409.9136 694.7577)"></ellipse><path d="m705.8 15.4c-1.2-.3-1.7 1.4-.5 1.8.9.2 1.8.5 2.6.8 1.2.4 1.8-1.3.6-1.7.2-.1-1.9-.7-2.7-.9zm-8.5-1.6c-1.1-.1-1.4 1.4-.4 1.8.1 0 1.8.2 3 .4 1.1.2 1.5-1.4.4-1.8.2 0-1.2-.2-3-.4zm-8.6.2c-1 .1-1.1 1.5-.2 1.8.3.1 1-.1 3.2-.2 1 0 1.2-1.5.3-1.8 0 0-.4-.1-3.3.2zm-5.7 1c-.9.2-1.9.5-2.8.8-.8.3-.9 1.5 0 1.8.5.2.5-.1 3.2-.7 1.2-.4.8-2.2-.4-1.9zm-7.5 2.8c-.4-.2-.8 0-3.3 1.3-.7.4-.6 1.4.1 1.7.6.2.6-.1 3.2-1.3.9-.3.8-1.4 0-1.7zm-8.1 4.3c-.8.6-1.6 1.1-2.3 1.7-.9.7.1 2.3 1.3 1.3.7-.5 1.3-1 2-1.5.4-.3.5-.9.2-1.3-.2-.4-.8-.5-1.2-.2zm-6.6 5.7c-.7.7-1.3 1.4-1.9 2.1-.4.5-.2 1.3.4 1.5.8.3 1.1-.4 2.2-1.7.1-.1.3-.3.6-.7.5-.5.3-1.3-.4-1.5.2 0-.4-.2-.9.3zm-5.3 6.8c-.5.8-1 1.6-1.5 2.5-.6 1.1 1 2 1.6.9.6-1 1-1.7 1.4-2.4.3-.5.1-1.2-.5-1.4.2 0-.6-.3-1 .4zm-3.9 7.7c-.4.9-.7 1.8-1 2.7-.4 1.2 1.4 1.7 1.8.6.1-.3.2-.5.3-.8.2-.7.4-1.2.7-1.8.3-1.2-1.4-1.9-1.8-.7zm-2.5 8.3c-.2.9-.3 1.9-.5 2.8-.1 1.2 1.7 1.6 1.9.1 0-.1.1-1.2.4-2.6.3-1.2-1.5-1.5-1.8-.3zm-.8 8.6c0 1 0 1.9.1 2.9.1 1.2 1.9 1.1 1.8-.1-.1-.9-.1-1.9-.1-2.8.1-1.3-1.8-1.3-1.8 0zm2.1 7.5c-.7-.2-1.3.3-1.2 1 .6 3 .7 3.3 1.2 3.4.7.2 1.4-.4 1.2-1.1-.7-2.6-.5-3-1.2-3.3zm1.3 9.3c.4.9.8 1.8 1.2 2.6.5 1.1 2.2.3 1.6-.9 0-.1-.1 0-1.1-2.5-.5-1-2.2-.3-1.7.8zm4 7.7c.5.8 1.1 1.6 1.6 2.4.7 1 2.2-.1 1.5-1.1-.5-.7-1.1-1.5-1.6-2.3-.6-1-2.2 0-1.5 1zm6.3 5.2c-.9-.3-1.6.8-1 1.5.2.2 2 2.1 2.4 2.2.9.3 1.7-.9.9-1.6-2-1.7-1.9-1.9-2.3-2.1zm6.4 5.6c-1-.3-1.7 1-.8 1.6.4.3 2.3 1.6 2.6 1.7 1 .4 1.7-1.1.8-1.7-.7-.5-1.3-.8-2-1.3-.4-.2-.4-.3-.6-.3zm7.4 4.2c-1.1-.4-1.7 1.2-.7 1.7 1.1.5 2.3 1 2.7 1.1 1.1.4 1.8-1.3.6-1.8-.3-.1-2.8-1-2.6-1zm8.1 2.7c-1.7-.4-1.7 1.5-.7 1.7.9.2 1.9.4 2.8.6 1.1.2 1.5-1.4.5-1.8.1 0-1.1-.2-2.6-.5zm11.1 1.2c-.2-.1-1.7 0-3.1-.1-1.2 0-1.3 1.8-.1 1.8h2.9c.5 0 .9-.4.9-.9 0-.8-.8-.8-.6-.8zm8.4-1.1c-.5-.2-.5.1-3.2.5-1.2.2-.9 2 .3 1.8.9-.1 1.9-.3 2.8-.5s.9-1.4.1-1.8zm8-2.5c-.5-.2-.6.1-2.8.9-.1.1-.3.1-.4.2-1.1.4-.5 2.1.6 1.7.9-.3 1.8-.7 2.7-1 .5-.2.7-.7.5-1.2-.2-.6-.7-.6-.6-.6zm6.5-3.9c-.1.1-1 .7-2.2 1.4-1 .6-.1 2.2.9 1.6.8-.5 1.6-1 2.4-1.5 1-.7.2-2.3-1.1-1.5zm7.5-5.6c-.8-.3-.9.3-3 2.1-.9.8.3 2.2 1.2 1.4.7-.6 1.4-1.3 2.1-2 .5-.4.3-1.2-.3-1.5zm5.4-6.5c-.9-.3-1 .4-2.7 2.6-.7 1 .7 2.1 1.5 1.1.6-.8 1.2-1.5 1.7-2.3.3-.5 0-1.2-.5-1.4zm2.9-6.9c-.4.9-.8 1.9-1.2 2.5-.5 1.1 1.1 1.9 1.6.8.4-.9.8-1.7 1.2-2.6.2-.5 0-1.1-.5-1.2.1 0-.8-.3-1.1.5zm2.5-7.9c-.2.9-.4 1.8-.7 2.7-.3 1.2 1.4 1.7 1.8.5.3-.9.5-1.9.7-2.8.1-.5-.2-.9-.6-1.1.1 0-1-.3-1.2.7zm2.2-9.1c-.1 0-1.2-.3-1.2 1.1 0 .8-.1 1.7-.1 2.6-.1 1.2 1.7 1.4 1.8.2.1-1 .1-1.9.2-2.9-.1-.5-.4-.8-.7-1zm-1.9-7.4c.3 1.7.3 1.6.4 2.7.1 1.2 2 1 1.8-.2-.1-1-.2-1.9-.4-2.9-.2-1.1-2-.8-1.8.4zm-2-7.6c.5 1.3.5 1.5.8 2.2.4 1.2 2.1.7 1.8-.5-.3-.9-.6-1.8-.9-2.7-.5-1-2.4-.8-1.7 1zm-2.7-9.2c-.7-.2-1.7.4-.9 1.6 1.3 2.2 1.2 2.4 1.7 2.6.8.3 1.5-.6 1.1-1.3-1.3-2.4-1.5-2.7-1.9-2.9zm-6.1-5.2c.6.6 1.3 1.4 1.8 2.1.8.9 2.2-.2 1.4-1.2-.6-.7-1.2-1.5-1.9-2.2-.7-.9-2.1.4-1.3 1.3zm-5.3-7.2c-1-.3-1.7 1-.9 1.6.7.5 1.4 1.1 2.2 1.7.9.8 2.1-.6 1.2-1.4-2.5-2.1-2.6-1.9-2.5-1.9zm-7.2-4.4c-1.1-.4-1.7 1.2-.7 1.7.9.4 1.7.9 2.5 1.3 1.1.6 2-1 .9-1.6-2.5-1.4-2.8-1.4-2.7-1.4z" fill="#fff" opacity=".5"></path><path d="m680.4 97.1c-21-7.3-32.1-30.3-24.8-51.3s30.3-32.1 51.3-24.8 32.1 30.3 24.8 51.3-30.3 32.1-51.3 24.8zm24.7-70.9c-18.1-6.3-38 3.3-44.3 21.4s3.3 38 21.4 44.3 38-3.3 44.3-21.4-3.3-38-21.4-44.3z" fill="#0b83e3"></path><path d="m699.6 43c-2.2 3.2-1.9 2.8-6.7.6l-7.4 10.6c-1.2 1.7-2.6.6-4.6-.3-1-.5-1.2-1.2-.5-2.1l7.4-10.6-3.2-1.5c-1-.5-1.2-1.2-.5-2.1 1-1.4 1.7-2.9 3.4-2.1l11.6 5.4c1 .5 1.2 1.2.5 2.1zm-5 20.8-3.3-1.5-2.5 3.5c-.6.9-1.5 1.1-2.5.7l-2.3-1c-1-.5-1.2-1.2-.5-2.1l9.5-13.4c.6-.9 1.5-1.1 2.5-.7l7 3.3c8.1 3.8.8 15.2-7.9 11.2zm4.4-7.3-2.7-1.3-2.2 3.2 2.7 1.2c.9.4 2.1-.1 2.6-.8.6-.8.5-1.9-.4-2.3zm9.8 16.1c-1 1.4-1.7 2.9-3.4 2.1l-5.9-2.7-1.5 2.1 4.9 2.3c1 .5 1.2 1.2.5 2.1-1.9 2.8-1.7 2.3-8-.7l-3.4 4.8c-.6.9-1.5 1.1-2.5.7l-2.3-1c-1-.5-1.2-1.2-.5-2.1l9.3-13.3c.6-.9 1.5-1.1 2.5-.7l9.6 4.5c1.2.2 1.4 1 .7 1.9z" fill="#fff"></path><path d="m661.5 33.5c-7.2 0-12.8-.7-18.2 4.6-2.6-2.9-6.5-4.6-11-4.6-7.7 0-7.9 0-9.3.1-3.4-1.4-9.2-1.5-14.6 1-3.4-1.4-5.9-1.2-11.9-1.2-4.8 0-8.9 1.9-11.7 5.1-11.2-8.4-28.2-7.4-40.1.1-1.4-2.1-3.5-3.7-6.1-4.6-.8-5.9-5.7-10.4-12.4-10.4h-5.9c-5.9 0-11.1 3.2-13.5 10-1.4.2-2.7.7-4 1.4-10-3.9-22.9-3.1-33.6 3.4-2.4-3-6.2-4.9-11-4.9-6.3 0-9.1-.3-12.6 1.1-5.4-2.4-11.8-2.4-17.4-1 0-7.6-5.6-13.4-13.9-13.4h-29.4c-7.9 0-13.9 5-15.3 12.8l-.4 2.1c-2.6-1.4-6-2.4-10.4-2.5.4-7.9-5.3-14.2-13.8-14.2h-6.6c-7.9 0-13.9 5-15.3 12.8l-.5 3c-9.9-3.1-22-1.7-31.9 4.5-1.4-2.2-3.5-3.8-6.2-4.7-.8-5.9-5.7-10.4-12.4-10.4h-5.9c-5.9 0-11.1 3.2-13.5 10-.9.1-1.7.4-2.5.7-1.5-.5-3.2-.9-5.2-.9-6.3 0-9.1-.3-12.6 1.1-6.8-3-15.1-2.4-21.9.5-3.5-8.7-11.9-14.9-24.1-14.9h-21.4c-7.9 0-13.9 5-15.3 12.8l-.7 4c-10.1-6.2-27-6.5-39.4 2.9-4-5-9.8-7.2-16.2-7.3.4-7.9-5.3-14.2-13.8-14.2-6.1 0-10.4-.5-15 2.3-2.7-.8-1.1-.6-39.5-.6-8.1 0-14 5.3-15.3 12.9-.8 5.5-2.3 11.1 2.1 16.4 1.3 1.5 4 4 8.6 4.6l-4.1 23.5c-1.6 9.1 4.4 16.3 13.6 16.3h6.6c6.3 0 11.4-3.2 13.9-8.4 1.9 5 6.6 8.4 13 8.4 6.6 0 11.2.6 16-3 4.5 3.6 9 3 15.6 3 4.6 0 8.6-1.8 11.4-4.8 10.7 7.6 27.4 7.1 39.2.9 4.7 4.6 10 3.9 16.9 3.9 7.9 0 13.9-5 15.3-12.8l.6-3.5c4.2 0 7.7-.2 12.3-1.7 4.1 15.8 20.6 22.6 34.8 16.8 3.5 1.5 6.2 1.1 12.5 1.1 4.7 0 8.7-1.8 11.5-4.9 8.3 7.6 25.2 7.9 35.2-.6 9.8 7.6 24.3 8 35.8 3 1.9 1.3 4.6 2.5 8.3 2.5 6.6 0 11.2.6 16-3 4.5 3.6 9 3 15.6 3 2.8 0 5.4-.7 7.7-1.9 4 2.3 7.4 1.9 14.2 1.9 7.9 0 13.9-5 15.3-12.8l1.4-7.7h4.3c2.9 17.5 20.3 25.5 35.3 19.4 3.5 1.5 6.2 1.1 12.5 1.1 4.8 0 9-1.9 11.8-5.2 10.6 7.9 26.5 7.6 38 1.4.8-.4 1.6-.9 2.3-1.4 8.2 7.9 25.4 8.3 35.4-.2 11.1 8.6 28.1 7.8 40 .6 2.4 2.9 6.2 4.8 10.9 4.8h6.6c7.9 0 13.9-5 15.3-12.8 3.4-19.2 2-11.3 2.4-13.3.1 0 .9.1 2 .1l3 10.6-7.4 11.9c-6.1 9.9-.1 20.6 11.1 20.6h5.7c6.1 0 11.1-2.8 14.4-8.1 38-61.1 28.7-46.1 30.2-48.5 5.9-10.2-.6-20.6-11.4-20.6z" fill="#bbb"></path><path d="m661.5 28.5c-7.2 0-12.8-.7-18.2 4.6-2.6-2.9-6.5-4.6-11-4.6-7.7 0-7.9 0-9.3.1-3.4-1.4-9.2-1.5-14.6 1-3.4-1.4-5.9-1.2-11.9-1.2-4.8 0-8.9 1.9-11.7 5.1-11.2-8.4-28.2-7.4-40.1.1-1.4-2.1-3.5-3.7-6.1-4.6-.8-5.9-5.7-10.4-12.4-10.4h-5.9c-5.9 0-11.1 3.2-13.5 10-1.4.2-2.7.7-4 1.4-10-3.9-22.9-3.1-33.6 3.4-2.4-3-6.2-4.9-11-4.9-6.3 0-9.1-.3-12.6 1.1-5.4-2.4-11.8-2.4-17.4-1 0-7.6-5.6-13.4-13.9-13.4h-29.4c-7.9 0-13.9 5-15.3 12.8l-.4 2.1c-2.6-1.4-6-2.4-10.4-2.5.4-7.9-5.3-14.2-13.8-14.2h-6.6c-7.9 0-13.9 5-15.3 12.8l-.5 3c-9.9-3.1-22-1.7-31.9 4.5-1.4-2.2-3.5-3.8-6.2-4.7-.8-5.9-5.7-10.4-12.4-10.4h-5.9c-5.9 0-11.1 3.2-13.5 10-.9.1-1.7.4-2.5.7-1.5-.5-3.2-.9-5.2-.9-6.3 0-9.1-.3-12.6 1.1-6.8-3-15.1-2.4-21.9.5-3.5-8.7-11.9-14.9-24.1-14.9h-21.4c-7.9 0-13.9 5-15.3 12.8l-.7 4c-10.1-6.2-27-6.5-39.4 2.9-4-5-9.8-7.2-16.2-7.3.4-7.9-5.3-14.2-13.8-14.2-6.1 0-10.4-.5-15 2.3-2.7-.8-1.1-.6-39.5-.6-8.1 0-14 5.3-15.3 12.9-.8 5.5-2.3 11.1 2.1 16.4 1.3 1.5 4 4 8.6 4.6l-4.1 23.5c-1.6 9.1 4.4 16.3 13.6 16.3h6.6c6.3 0 11.4-3.2 13.9-8.4 1.9 5 6.6 8.4 13 8.4 6.6 0 11.2.6 16-3 4.5 3.6 9 3 15.6 3 4.6 0 8.6-1.8 11.4-4.8 10.7 7.6 27.4 7.1 39.2.9 4.7 4.6 10 3.9 16.9 3.9 7.9 0 13.9-5 15.3-12.8l.6-3.5c4.2 0 7.7-.2 12.3-1.7 4.1 15.8 20.6 22.6 34.8 16.8 3.5 1.5 6.2 1.1 12.5 1.1 4.7 0 8.7-1.8 11.5-4.9 8.3 7.6 25.2 7.9 35.2-.6 9.8 7.6 24.3 8 35.8 3 1.9 1.3 4.6 2.5 8.3 2.5 6.6 0 11.2.6 16-3 4.5 3.6 9 3 15.6 3 2.8 0 5.4-.7 7.7-1.9 4 2.3 7.4 1.9 14.2 1.9 7.9 0 13.9-5 15.3-12.8l1.4-7.7h4.3c2.9 17.5 20.3 25.5 35.3 19.4 3.5 1.5 6.2 1.1 12.5 1.1 4.8 0 9-1.9 11.8-5.2 10.6 7.9 26.5 7.6 38 1.4.8-.4 1.6-.9 2.3-1.4 8.2 7.9 25.4 8.3 35.4-.2 11.1 8.6 28.1 7.8 40 .6 2.4 2.9 6.2 4.8 10.9 4.8h6.6c7.9 0 13.9-5 15.3-12.8 3.4-19.2 2-11.3 2.4-13.3.1 0 .9.1 2 .1l3 10.6-7.4 11.9c-6.1 9.9-.1 20.6 11.1 20.6h5.7c6.1 0 11.1-2.8 14.4-8.1 38-61.1 28.7-46.1 30.2-48.5 5.9-10.2-.6-20.6-11.4-20.6z" fill="#ddd"></path><path d="m661.5 22.5c-7.2 0-12.8-.7-18.2 4.6-2.6-2.9-6.5-4.6-11-4.6-7.7 0-7.9 0-9.3.1-3.4-1.4-9.2-1.5-14.6 1-3.4-1.4-5.9-1.2-11.9-1.2-4.8 0-8.9 1.9-11.7 5.1-11.2-8.4-28.2-7.4-40.1.1-1.4-2.1-3.5-3.7-6.1-4.6-.8-5.9-5.7-10.4-12.4-10.4h-5.9c-5.9 0-11.1 3.2-13.5 10-1.4.2-2.7.7-4 1.4-10-3.9-22.9-3.1-33.6 3.4-2.4-3-6.2-4.9-11-4.9-6.3 0-9.1-.3-12.6 1.1-5.4-2.4-11.8-2.4-17.4-1 0-7.6-5.6-13.4-13.9-13.4h-29.4c-7.9 0-13.9 5-15.3 12.8l-.4 2.1c-2.6-1.4-6-2.4-10.4-2.5.4-7.9-5.3-14.2-13.8-14.2h-6.6c-7.9 0-13.9 5-15.3 12.8l-.5 3c-9.9-3.1-22-1.7-31.9 4.5-1.4-2.2-3.5-3.8-6.2-4.7-.8-5.9-5.7-10.4-12.4-10.4h-5.9c-5.9 0-11.1 3.2-13.5 10-.9.1-1.7.4-2.5.7-1.5-.5-3.2-.9-5.2-.9-6.3 0-9.1-.3-12.6 1.1-6.8-3-15.1-2.4-21.9.5-3.5-8.7-11.9-14.9-24.1-14.9h-21.4c-7.9 0-13.9 5-15.3 12.8l-.7 4c-10.1-6.2-27-6.5-39.4 2.9-4-5-9.8-7.2-16.2-7.3.4-7.9-5.3-14.2-13.8-14.2-6.1 0-10.4-.5-15 2.3-2.7-.8-1.1-.6-39.5-.6-8.1 0-14 5.3-15.3 12.9-.8 5.5-2.3 11.1 2.1 16.4 1.3 1.5 4 4 8.6 4.6l-4.1 23.5c-1.6 9.1 4.4 16.3 13.6 16.3h6.6c6.3 0 11.4-3.2 13.9-8.4 1.9 5 6.6 8.4 13 8.4 6.6 0 11.2.6 16-3 4.5 3.6 9 3 15.6 3 4.6 0 8.6-1.8 11.4-4.8 10.7 7.6 27.4 7.1 39.2.9 4.7 4.6 10 3.9 16.9 3.9 7.9 0 13.9-5 15.3-12.8l.6-3.5c4.2 0 7.7-.2 12.3-1.7 4.1 15.8 20.6 22.6 34.8 16.8 3.5 1.5 6.2 1.1 12.5 1.1 4.7 0 8.7-1.8 11.5-4.9 8.3 7.6 25.2 7.9 35.2-.6 9.8 7.6 24.3 8 35.8 3 1.9 1.3 4.6 2.5 8.3 2.5 6.6 0 11.2.6 16-3 4.5 3.6 9 3 15.6 3 2.8 0 5.4-.7 7.7-1.9 4 2.3 7.4 1.9 14.2 1.9 7.9 0 13.9-5 15.3-12.8l1.4-7.7h4.3c2.9 17.5 20.3 25.5 35.3 19.4 3.5 1.5 6.2 1.1 12.5 1.1 4.8 0 9-1.9 11.8-5.2 10.6 7.9 26.5 7.6 38 1.4.8-.4 1.6-.9 2.3-1.4 8.2 7.9 25.4 8.3 35.4-.2 11.1 8.6 28.1 7.8 40 .6 2.4 2.9 6.2 4.8 10.9 4.8h6.6c7.9 0 13.9-5 15.3-12.8 3.4-19.2 2-11.3 2.4-13.3.1 0 .9.1 2 .1l3 10.6-7.4 11.9c-6.1 9.9-.1 20.6 11.1 20.6h5.7c6.1 0 11.1-2.8 14.4-8.1 38-61.1 28.7-46.1 30.2-48.5 5.9-10.2-.6-20.6-11.4-20.6z" fill="#fff"></path><path d="m64.1 23.8-.8 4.6c-.5 3-2.4 4.6-5.4 4.6h-9.9l-6.2 35.1c-.5 3-2.4 4.6-5.4 4.6h-6.6c-3 0-4.3-1.6-3.7-4.6l6.2-35.1h-9.6c-3 0-4.3-1.6-3.7-4.6l.8-4.6c.5-3 2.4-4.6 5.4-4.6h35.2c3 .1 4.3 1.7 3.7 4.6zm-4.5 44.3 8.1-46c.5-3 2.4-4.6 5.4-4.6h6.6c3 0 4.3 1.6 3.7 4.6l-2.7 15.4c2.8-3.6 6.7-5.8 12.1-5.8 12.4 0 12 10.9 10.9 17.5l-3.4 18.9c-.5 3-2.4 4.6-5.4 4.6h-6.6c-3 0-4.3-1.6-3.7-4.6l3.1-17.4c.5-3.1.5-6.8-3.5-6.8s-5.3 3.7-5.9 6.8l-3.1 17.4c-.5 3-2.4 4.6-5.4 4.6h-6.6c-2.9-.1-4.2-1.7-3.6-4.6zm72.5-36.4c12.7 0 20.7 7.6 18.5 20.4-.5 2.5-2.6 3.6-5.4 3.6h-25.2c-.7 4.1 7.4 8.4 16.6 4.4 4.7-2 5.5.3 7.1 2.8 1.3 2.3.8 4.8-2.1 6.5-5 2.9-10.7 4-15.9 4-31.8.1-23.1-41.7 6.4-41.7zm4.9 16.8c.9-7.8-13.9-7.7-15.7 0zm65.1-10.2c-1.8 10.2-9.9 18.1-22.3 18.1h-9.9l-2.1 11.7c-.5 3-2.4 4.6-5.4 4.6h-6.9c-3 0-4.3-1.6-3.7-4.6l7.8-44.2c.5-3 2.4-4.6 5.4-4.6h21.4c12.4 0 17.5 8.7 15.7 19zm-19.8-5.3h-8.3l-1.8 10.6h8.2c2.7 0 5.2-2.6 5.6-5.2.5-2.8-1-5.4-3.7-5.4zm17.8 19.6c3.9-21.9 28.5-26 32.9-15 .5-3.2 2.2-5 5.5-5h6.6c3 0 4.3 1.6 3.7 4.6l-5.4 31c-.5 3-2.4 4.6-5.4 4.6h-6.6c-3 0-4.3-1.6-3.7-5-8.7 11-31.4 6.3-27.6-15.2zm30.5 0c2-12-12.8-11.8-14.8 0-2.1 11.9 12.7 12 14.8 0zm22.9 6.2 2.7-14.9h-3.2c-1.4 0-2.1-.8-1.9-2.3l1.2-6.8c.2-1.4 1.2-2.3 2.7-2.3h4.9l2.5-7.1c.7-1.8 2.1-2.7 3.9-2.7h5.9c2 0 2.8 1.1 2.5 3.1l-1.2 6.8h7.2c1.4 0 2.1.8 1.9 2.3l-1.2 6.8c-.2 1.4-1.2 2.3-2.7 2.3h-7.2l-2.7 15c-.3 1.8.4 2.4 1.4 2.4 1.6 0 2.4-1.6 2.7-3.1.3-1.3 0-3.7 2.5-3.7 7.4 0 8.4-.9 8 4.8-2 11.2-10.4 14-17.3 14-7.1.1-14.6-2.9-12.6-14.6zm31.2-6.2c3.1-18.3 27.1-26 40-17.5 2.2 1.6 1.9 4-.5 6.4-3.2 3.2-4.6 5.4-8.8 3.3-1.8-.8-3.4-1-4.6-1-11.9 0-14.9 17.5-3.1 17.5 1.2 0 3-.2 5-1 5.1-2.2 5.8.2 7.7 3.3 1.4 2.3.9 4.9-2.1 6.4-4.3 2.4-9.4 3.4-13.8 3.4-13.7.1-21.9-9.2-19.8-20.8zm40.3 15.5 8.1-46c.5-3 2.4-4.6 5.4-4.6h6.6c3 0 4.3 1.6 3.7 4.6l-2.7 15.4c2.8-3.6 6.7-5.8 12.1-5.8 12.4 0 12 10.9 10.9 17.5l-3.4 18.9c-.5 3-2.4 4.6-5.4 4.6h-6.6c-3 0-4.3-1.6-3.7-4.6l3.1-17.4c.5-3.1.5-6.8-3.5-6.8s-5.3 3.7-5.9 6.8l-3.1 17.4c-.5 3-2.4 4.6-5.4 4.6h-6.6c-2.9-.1-4.2-1.7-3.6-4.6zm92.9-44.3-.8 4.6c-.5 3-2.4 4.6-5.4 4.6h-17.9l-1.2 6.9h15c3 0 4.3 1.6 3.7 4.6l-.5 3.1c-.5 3-2.4 4.6-5.3 4.6h-15l-2.8 15.9c-.5 3-2.4 4.6-5.4 4.6h-6.9c-3 0-4.3-1.6-3.7-4.6l7.8-44.2c.5-3 2.4-4.6 5.4-4.6h29.4c2.9 0 4.2 1.6 3.6 4.5zm-4.7 28.8c3.9-21.9 28.5-26 32.9-15 .5-3.2 2.2-5 5.5-5h6.6c3 0 4.3 1.6 3.7 4.6l-5.4 31c-.5 3-2.4 4.6-5.4 4.6h-6.6c-3 0-4.3-1.6-3.7-5-8.7 11-31.4 6.3-27.6-15.2zm30.5 0c2-12-12.8-11.8-14.8 0-2.1 11.9 12.6 12 14.8 0zm18.8 0c3.1-18.3 27.1-26 40-17.5 2.2 1.6 1.9 4-.5 6.4-3.2 3.2-4.6 5.4-8.8 3.3-1.8-.8-3.4-1-4.6-1-11.9 0-14.9 17.5-3.1 17.5 1.2 0 3-.2 5-1 5.1-2.2 5.8.2 7.7 3.3 1.4 2.3.9 4.9-2.1 6.4-4.3 2.4-9.4 3.4-13.8 3.4-13.7.1-21.9-9.2-19.8-20.8zm45 6.2 2.7-14.9h-3.2c-1.4 0-2.1-.8-1.9-2.3l1.2-6.8c.2-1.4 1.2-2.3 2.7-2.3h4.9l2.5-7.1c.7-1.8 2.1-2.7 3.9-2.7h5.9c2 0 2.8 1.1 2.5 3.1l-1.2 6.8h7.2c1.4 0 2.1.8 1.9 2.3l-1.2 6.8c-.2 1.4-1.2 2.3-2.7 2.3h-7.2l-2.7 15c-.3 1.8.4 2.4 1.4 2.4 1.6 0 2.4-1.6 2.7-3.1.3-1.3 0-3.7 2.5-3.7h5.6c2.6 0 2.6 1.9 2.4 4.8-2 11.2-10.4 14-17.3 14-7.1.1-14.7-2.9-12.6-14.6zm31.2-6.2c2-11.6 13.1-20.9 26.8-20.9s21.5 9.3 19.5 20.9c-2.1 11.6-13.2 20.9-26.9 20.9s-21.5-9.3-19.4-20.9zm31.8 0c1.9-11.8-15.3-11.4-17.2 0-2.1 11.5 15.1 11.6 17.2 0zm49.6-17.7-1.5 8.4c-.4 2.4-2 3.5-3.9 3.4-5.9-.7-10.1 2.2-11.1 8.5l-2.3 12.9c-.5 3-2.4 4.6-5.4 4.6h-6.6c-3 0-4.3-1.6-3.7-4.6l5.4-31c.5-3 2.4-4.6 5.4-4.6h5.9c3 0 4.3 1.6 3.7 4.6l-.7 3.9c1.9-5.7 6.3-9.3 12.7-9.3 2.2 0 2.4 1.7 2.1 3.2zm-.4 49.5 9.7-15.6-8.8-30.9c-.9-3.1.9-5.3 4.4-5.3h7.2c2.7 0 4.2 1.1 4.6 3.7l2.7 16.8 9.4-16.9c1.3-2.5 3.3-3.7 5.9-3.7h6.6c3.4 0 4.5 2.2 2.6 5.3l-30.1 48.4c-2.6 4.1-5.3 3.4-11.7 3.4-3.4.1-4.4-2.1-2.5-5.2z" fill="#e90086"></path></svg>