<?xml version="1.0" encoding="utf-8"?>
<!-- Generator: Adobe Illustrator 26.0.3, SVG Export Plug-In . SVG Version: 6.00 Build 0)  -->
<svg version="1.1" id="Layer_1" xmlns="http://www.w3.org/2000/svg" xmlns:xlink="http://www.w3.org/1999/xlink" x="0px" y="0px"
	 viewBox="0 0 950 180" style="enable-background:new 0 0 950 180;" xml:space="preserve">
<style type="text/css">
	.st0{fill:#FFFFFF;}
	.st1{fill:#9BF799;}
	.st2{fill:#FFC1DB;}
	.st3{fill:#111215;}
	.st4{fill:#393D46;}
	.st5{fill:#04EB00;}
</style>
<g id="Layer_1_00000108291950537862736460000016693815078347094666_">
	<g>
		<path class="st0" d="M13.8,38.8v102.5h72.5V38.8H13.8z M61.2,55.6H38.8v-5h22.5L61.2,55.6L61.2,55.6z"/>
		<path class="st1" d="M35.2,53.1c0-4.1,3.4-7.5,7.5-7.5v5c-1.4,0-2.5,1.1-2.5,2.5s1.1,2.5,2.5,2.5h15c1.4,0,2.5-1.1,2.5-2.5
			s-1.1-2.5-2.5-2.5v-5c4.1,0,7.5,3.4,7.5,7.5s-3.4,7.5-7.5,7.5h-15C38.6,60.6,35.2,57.3,35.2,53.1z M67.7,130.6h-35
			c-1.4,0-2.5,1.1-2.5,2.5s1.1,2.5,2.5,2.5h35c1.4,0,2.5-1.1,2.5-2.5S69.1,130.6,67.7,130.6z M75.2,90.6c0,13.8-11.2,25-25,25
			s-25-11.2-25-25s11.2-25,25-25S75.2,76.8,75.2,90.6z M70.2,90.6c0-11-9-20-20-20s-20,9-20,20s9,20,20,20S70.2,101.7,70.2,90.6z
			 M72.7,120.6h-45c-1.4,0-2.5,1.1-2.5,2.5s1.1,2.5,2.5,2.5h45c1.4,0,2.5-1.1,2.5-2.5S74.1,120.6,72.7,120.6z M47.1,81l-1.4-1
			c0,0-2,3-1.9,6.6s3.9,6.2,8.4,3.4C47,89.6,45.9,84.5,47.1,81z M81.9,8.3c-11.9,2.7-13-3-13-3L49.2,38.4L65,37.1
			C65,37.1,77.5,15,81.9,8.3z M15,140h11.9c-9.7-9.3-11.6-57.9-11.9-84.2V140z"/>
		<path class="st2" d="M85,40v84.2C84.7,97.9,82.8,49.3,73.1,40H85z M35.2,52c0,4.1,3.4,7.5,7.5,7.5h15c4.1,0,7.5-3.4,7.5-7.5
			s-3.4-7.5-7.5-7.5h-2.9l2.9,5c1.4,0,2.5,1.1,2.5,2.5s-1.1,2.5-2.5,2.5h-15c-1.4,0-2.5-1.1-2.5-2.5c0-1.2,0.9-2.2,2-2.4l0.2,0.4h15
			c0,0-4.7-6.2-23.3-39.8C21.5,9.5,18.6,6.1,18,5.3l21.8,39.8C37.1,46.2,35.2,48.9,35.2,52z M67.7,129.5h-35c-1.4,0-2.5,1.1-2.5,2.5
			s1.1,2.5,2.5,2.5h35c1.4,0,2.5-1.1,2.5-2.5S69.1,129.5,67.7,129.5z M72.7,119.5h-45c-1.4,0-2.5,1.1-2.5,2.5s1.1,2.5,2.5,2.5h45
			c1.4,0,2.5-1.1,2.5-2.5S74.1,119.5,72.7,119.5z M75.2,89.5c0,13.8-11.2,25-25,25s-25-11.2-25-25s11.2-25,25-25
			S75.2,75.7,75.2,89.5z M70.2,89.5c0-11-9-20-20-20s-20,9-20,20s9,20,20,20c2.6,0,5.1-0.5,7.4-1.4c-0.8-1.5-3.4-5.3-10.4-5.1
			c-8.8,0.2,3.5-5.8,7.8-1.9c2.4,2.2,4.1,4.3,5.1,5.7C66.1,103.3,70.2,96.9,70.2,89.5z"/>
		<path class="st3" d="M82.5,35H69.2L84.6,8.8c0.7-1.2,0.4-2.7-0.8-3.4c-1.2-0.7-2.7-0.4-3.4,0.8L63.3,35h-9.1L69.6,8.8
			c0.7-1.2,0.4-2.7-0.8-3.4c-1.2-0.7-2.7-0.4-3.4,0.8L50,32.3L34.6,6.2c-0.7-1.2-2.3-1.5-3.4-0.8c-1.2,0.7-1.5,2.3-0.8,3.4L53,47.5
			h-9.1L19.6,6.2c-0.7-1.2-2.3-1.5-3.4-0.8c-1.2,0.7-1.5,2.3-0.8,3.4L30.8,35H17.5c-4.1,0-7.5,3.4-7.5,7.5v95c0,4.1,3.4,7.5,7.5,7.5
			h65c4.1,0,7.5-3.4,7.5-7.5v-95C90,38.4,86.6,35,82.5,35z M57.5,52.5c0.9,0,1.7-0.5,2.1-1.2c0.2,0.4,0.4,0.8,0.4,1.2
			c0,1.4-1.1,2.5-2.5,2.5h-15c-1.4,0-2.5-1.1-2.5-2.5c0-0.4,0.2-0.8,0.4-1.2l0,0c0.5,0.7,1.3,1.2,2.1,1.2H57.5z M85,137.5
			c0,1.4-1.1,2.5-2.5,2.5h-65c-1.4,0-2.5-1.1-2.5-2.5v-95c0-1.4,1.1-2.5,2.5-2.5h16.2l4,6.8c-1.6,1.4-2.7,3.4-2.7,5.7
			c0,4.1,3.4,7.5,7.5,7.5h15c4.1,0,7.5-3.4,7.5-7.5S61.6,45,57.5,45l0,0l-2.9-5h28c1.4,0,2.5,1.1,2.5,2.5L85,137.5L85,137.5z M50,65
			c-13.8,0-25,11.2-25,25c0,8.8,4.5,16.4,11.4,20.9c0.3,0.2,0.6,0.4,0.9,0.5l0,0c3.7,2.2,8,3.6,12.7,3.6c4.6,0,8.9-1.3,12.6-3.5h0.1
			c0.4-0.1,0.7-0.3,1-0.6C70.5,106.4,75,98.7,75,90C75,76.2,63.8,65,50,65z M41.3,107.9c1.7-3.2,5-5.4,8.7-5.4s7,2.2,8.7,5.4
			c-2.7,1.3-5.6,2.1-8.7,2.1S43.9,109.2,41.3,107.9z M63,105.1c-2.6-4.6-7.5-7.6-13-7.6c-5.4,0-10.4,3-13,7.6c-4.3-3.7-7-9-7-15.1
			c0-11,9-20,20-20s20,9,20,20C70,96.1,67.2,101.4,63,105.1z M75,122.5c0,1.4-1.1,2.5-2.5,2.5h-45c-1.4,0-2.5-1.1-2.5-2.5
			s1.1-2.5,2.5-2.5h45C73.9,120,75,121.1,75,122.5z M70,132.5c0,1.4-1.1,2.5-2.5,2.5h-35c-1.4,0-2.5-1.1-2.5-2.5s1.1-2.5,2.5-2.5h35
			C68.9,130,70,131.1,70,132.5z M50,75c-5.5,0-10,4.5-10,10s4.5,10,10,10s10-4.5,10-10S55.5,75,50,75z M50,90c-2.8,0-5-2.2-5-5
			s2.2-5,5-5s5,2.2,5,5S52.8,90,50,90z"/>
		<path class="st4" d="M125.8,117l1.7,5.2c-0.4,0.2-0.9,0.4-1.7,0.8c-0.7,0.3-1.6,0.6-2.5,0.9s-2,0.6-3.2,0.9
			c-1.2,0.2-2.5,0.4-3.8,0.4c-1.4,0-2.7-0.2-4-0.6s-2.4-1-3.3-1.7c-0.9-0.8-1.7-1.8-2.3-3c-0.6-1.2-0.8-2.6-0.8-4.2V80.4h-6.8v-5.1
			h6.8V58.6h6.4v16.6h11.4v5.1h-11.4v33.5c0.1,1.8,0.8,3.2,1.9,4c1.2,0.9,2.5,1.3,4,1.3c1.8,0,3.4-0.3,4.8-0.9
			S125.4,117.2,125.8,117z M171.5,80.3c-1.3-1.9-2.9-3.3-4.8-4.3c-2-1-4.4-1.6-7.2-1.6c-4,0-7.8,1.1-11.3,3.2s-6.2,5.1-8.1,8.8V55.5
			h-6.4v69h6.4V94.4c0.6-2,1.4-3.9,2.6-5.6c1.2-1.7,2.5-3.2,4.1-4.4c1.6-1.3,3.3-2.3,5.1-3s3.6-1.1,5.4-1.1c3.7,0,6.5,1.4,8.5,4.2
			s2.9,7,2.9,12.6v27.5h6.4V95.7c0-3.2-0.3-6-0.8-8.7C173.7,84.4,172.8,82.2,171.5,80.3z M230.6,99.6c0,0.5,0,1,0,1.5s0,0.9-0.1,1
			h-42.2c0.2,2.6,0.8,5.1,1.8,7.3c1,2.2,2.4,4.2,4,5.8c1.6,1.6,3.5,2.9,5.6,3.8s4.4,1.4,6.8,1.4c1.6,0,3.2-0.2,4.7-0.7
			c1.6-0.4,3-1,4.4-1.8s2.5-1.7,3.6-2.8c1.1-1.1,1.9-2.3,2.5-3.6l5.6,1.5c-0.8,1.8-1.8,3.5-3.2,5s-3,2.8-4.8,3.9s-3.8,2-6.1,2.6
			c-2.2,0.6-4.5,0.9-6.9,0.9c-3.6,0-6.9-0.7-9.9-2c-3-1.4-5.6-3.2-7.8-5.6s-3.9-5.1-5.2-8.2s-1.8-6.4-1.8-9.9s0.6-6.7,1.8-9.8
			c1.2-3.1,2.9-5.7,5.1-8c2.2-2.3,4.8-4.1,7.8-5.5s6.3-2,9.8-2c3.6,0,6.9,0.7,9.9,2c3,1.4,5.6,3.2,7.7,5.5c2.1,2.3,3.8,5,5,8
			S230.6,96.2,230.6,99.6z M224.5,97.3c-0.2-2.6-0.8-5.1-1.8-7.2c-1-2.2-2.4-4-4-5.6s-3.5-2.8-5.6-3.7c-2.1-0.9-4.4-1.3-6.8-1.3
			s-4.7,0.4-6.8,1.3s-4,2.1-5.6,3.7S191,88,190,90.2s-1.6,4.6-1.8,7.2L224.5,97.3L224.5,97.3z"/>
		<path class="st4" d="M623.6,116.2V94c0-6.1-1.8-10.9-5.3-14.4s-8.4-5.2-14.6-5.2c-6,0-12.2,2.1-18.5,6.4l2.3,4.3
			c2.7-1.9,5.4-3.3,8-4.4c2.7-1,5.2-1.5,7.8-1.5c4.4,0,7.8,1.3,10.2,3.8c2.5,2.6,3.7,6,3.7,10.4v4.4c-2-0.8-4.3-1.5-6.9-1.9
			c-2.6-0.4-5.1-0.7-7.7-0.7c-3,0-5.8,0.4-8.3,1.1s-4.7,1.8-6.5,3.1c-1.8,1.3-3.2,2.9-4.3,4.7c-1,1.8-1.5,3.8-1.5,6s0.4,4.1,1.2,6
			s2,3.5,3.5,4.9s3.2,2.5,5.2,3.3s4.1,1.2,6.5,1.2c4,0,7.7-0.8,11.1-2.4c3.4-1.6,6.3-3.8,8.6-6.8l0.2,3.9c0.1,1.5,0.6,2.6,1.5,3.4
			s2.2,1.2,3.8,1.2c0.6,0,1.4-0.1,2.5-0.3v-5.7C624.4,118.8,623.6,118,623.6,116.2z M617.2,110c0,0.6-0.1,1.2-0.4,1.8
			c-0.3,0.7-0.7,1.3-1.3,1.8c-1.5,2.1-3.6,3.8-6.4,5c-2.8,1.3-5.9,1.9-9.2,1.9c-1.6,0-3.2-0.3-4.6-0.8s-2.7-1.3-3.7-2.3
			s-1.9-2.1-2.5-3.5c-0.6-1.3-0.9-2.7-0.9-4.3c0-3.1,1.4-5.6,4.3-7.5c2.8-1.9,6.5-2.8,11.1-2.8c2.4,0,4.7,0.2,7,0.7
			c2.3,0.4,4.5,1.1,6.7,1.9L617.2,110L617.2,110z M675.7,118.8v5.7c-0.8,0.1-1.4,0.2-1.8,0.2s-0.8,0-1,0c-1.5-0.1-2.7-0.6-3.7-1.6
			c-0.9-1-1.4-2.4-1.4-4.1v-5.7c-2.1,3.8-5.1,6.8-8.8,8.9s-7.6,3.2-11.8,3.2c-5.4,0-9.3-1.8-12-5.3c-2.6-3.6-3.9-8.9-3.9-15.9v-29
			h6.4V103c0,11.2,3.8,16.7,11.4,16.7c1.9,0,3.8-0.3,5.6-0.9s3.5-1.5,5.1-2.7s2.9-2.6,4.2-4.3c1.2-1.6,2.2-3.5,3-5.6v-31h6.4v41
			C673.5,118,674.2,118.8,675.7,118.8z M706.2,117l1.7,5.2c-0.4,0.2-0.9,0.4-1.7,0.8c-0.7,0.3-1.6,0.6-2.5,0.9s-2,0.6-3.2,0.9
			c-1.2,0.2-2.5,0.4-3.8,0.4c-1.4,0-2.7-0.2-4-0.6s-2.4-1-3.3-1.7c-0.9-0.8-1.7-1.8-2.3-3s-0.8-2.6-0.8-4.2V80.4h-6.8v-5.1h6.8V58.6
			h6.4v16.6h11.4v5.1h-11.4v33.5c0.1,1.8,0.8,3.2,1.9,4c1.2,0.9,2.5,1.3,4,1.3c1.8,0,3.4-0.3,4.8-0.9S705.8,117.2,706.2,117z
			 M754.6,87c0.6,2.6,0.8,5.5,0.8,8.7v28.8H749V97c0-5.6-1-9.8-2.9-12.6s-4.7-4.2-8.5-4.2c-1.8,0-3.6,0.4-5.4,1.1
			c-1.8,0.7-3.5,1.7-5.1,3s-2.9,2.7-4.1,4.4c-1.2,1.7-2,3.6-2.6,5.6v30.2H714v-69h6.4v30.9c2-3.7,4.7-6.7,8.1-8.8
			c3.5-2.1,7.2-3.2,11.3-3.2c2.8,0,5.2,0.5,7.2,1.6c2,1,3.6,2.5,4.8,4.3C753.1,82.2,754.1,84.4,754.6,87z M803.9,82.1
			c-2.2-2.3-4.8-4.2-7.8-5.6s-6.3-2.1-9.8-2.1s-6.8,0.7-9.7,2.1s-5.5,3.2-7.7,5.6c-2.2,2.3-3.9,5-5.1,8.1c-1.2,3.1-1.8,6.4-1.8,9.8
			s0.6,6.7,1.8,9.7c1.2,3.1,2.9,5.8,5.1,8.1c2.2,2.3,4.7,4.2,7.7,5.5c3,1.4,6.2,2,9.8,2s6.9-0.7,9.9-2c3-1.4,5.6-3.2,7.8-5.5
			s3.9-5,5.1-8.1c1.2-3.1,1.8-6.3,1.8-9.7c0-3.5-0.6-6.7-1.8-9.8C807.8,87.1,806.1,84.4,803.9,82.1z M803,107.7
			c-0.9,2.4-2.2,4.5-3.9,6.3c-1.6,1.8-3.5,3.2-5.7,4.3c-2.2,1-4.5,1.6-7,1.6s-4.8-0.5-7-1.5s-4.1-2.4-5.7-4.2s-2.9-3.9-3.8-6.2
			c-0.9-2.4-1.4-4.9-1.4-7.7c0-2.8,0.5-5.4,1.4-7.8s2.2-4.6,3.9-6.4c1.6-1.8,3.5-3.3,5.7-4.3c2.1-1,4.4-1.6,6.9-1.6s4.8,0.5,7,1.6
			c2.2,1,4.1,2.5,5.7,4.3c1.6,1.8,2.9,3.9,3.9,6.3s1.4,5,1.4,7.7C804.4,102.7,803.9,105.3,803,107.7z M840.3,75c0.5,0,0.9,0,1.2,0.1
			V81c-4.4,0.1-8.1,1.3-11.3,3.6c-3.2,2.3-5.5,5.4-6.8,9.4v30.6H817V75.2h6V87c1.8-3.8,4.3-6.7,7.4-8.9C833.5,76,836.8,75,840.3,75z
			 M848.3,55.5h6.4V65h-6.4V55.5z M848.3,75.2h6.4v49.3h-6.4V75.2z M889.9,117l1.7,5.2c-0.4,0.2-0.9,0.4-1.7,0.8
			c-0.7,0.3-1.6,0.6-2.5,0.9s-2,0.6-3.2,0.9c-1.2,0.2-2.5,0.4-3.8,0.4c-1.4,0-2.7-0.2-4-0.6s-2.4-1-3.3-1.7c-0.9-0.8-1.7-1.8-2.3-3
			s-0.8-2.6-0.8-4.2V80.4h-6.8v-5.1h6.8V58.6h6.4v16.6h11.4v5.1h-11.4v33.5c0.1,1.8,0.8,3.2,1.9,4c1.2,0.9,2.5,1.3,4,1.3
			c1.8,0,3.4-0.3,4.8-0.9S889.5,117.2,889.9,117z M940,75.2l-25.5,63.6c-0.7,1.8-1.8,3.4-3.5,4.8c-1.6,1.4-3.8,2-6.6,2
			c-0.6,0-1.2,0-1.8,0s-1.3-0.1-2.1-0.2v-5.7c0.5,0.1,1,0.1,1.5,0.1s0.9,0,1.4,0c1.1,0,2-0.2,2.7-0.5s1.3-1,1.9-2.1
			c0.6-1.1,1.3-2.6,2.1-4.6s1.9-4.7,3.4-8.1L892,75.2h6.6l18.3,43.3l16.9-43.3H940z"/>
		<path class="st5" d="M263.8,109l2.3,13.2c-2.1,1-4.6,1.8-7.2,2.4c-2.7,0.6-5.2,0.9-7.6,0.9c-4.8,0-8.5-1.2-11.1-3.7
			s-3.9-6-3.9-10.7V55.5h18v49.3c0,3.8,1.5,5.7,4.6,5.7c0.8,0,1.6-0.1,2.5-0.4C262.2,109.8,263,109.5,263.8,109z M315.8,108.2
			c0.5,0.7,1.4,1.1,2.6,1.2v15.1c-1.5,0.3-2.8,0.6-4.1,0.7c-1.3,0.2-2.4,0.2-3.5,0.2c-3.2,0-5.7-0.6-7.3-1.8
			c-1.7-1.2-2.8-2.9-3.3-5.2l-0.4-1.8c-2.2,2.8-4.8,5-7.7,6.5c-2.9,1.5-6,2.2-9.3,2.2c-2.5,0-4.8-0.4-6.9-1.2s-4-1.9-5.5-3.4
			c-1.5-1.4-2.8-3.1-3.6-5.1s-1.3-4.1-1.3-6.3c0-2.5,0.5-4.8,1.6-6.9s2.6-3.9,4.4-5.4c1.9-1.5,4.1-2.7,6.8-3.5
			c2.6-0.8,5.5-1.2,8.7-1.2c4,0,7.4,0.6,10,1.9v-1.5c0-2.3-0.7-4.1-2-5.2c-1.4-1.1-3.5-1.7-6.6-1.7c-2.8,0-5.5,0.5-7.9,1.4
			s-4.9,2.3-7.6,4L267.7,80c6.6-4.2,14-6.3,22.4-6.3c7.9,0,14.1,1.8,18.3,5.3c4.3,3.5,6.4,8.8,6.4,15.9v9.6
			C315,106.4,315.3,107.5,315.8,108.2z M297.1,103.5c-1.1-0.4-2.2-0.7-3.5-0.9c-1.3-0.2-2.4-0.4-3.4-0.4c-2.2,0-4,0.5-5.5,1.6
			s-2.2,2.4-2.2,4.1c0,1.4,0.6,2.5,1.7,3.4s2.5,1.3,4.2,1.3c1.1,0,2.2-0.2,3.3-0.5c1.1-0.3,2.1-0.8,3-1.4c0.7-0.5,1.3-1.1,1.7-1.7
			c0.4-0.6,0.7-1.2,0.7-1.8L297.1,103.5L297.1,103.5z M370.6,80.3c-1-1.8-2.6-3.4-4.5-4.6c-2-1.2-4.7-1.8-8.1-1.8
			c-4.4,0-8.1,0.7-11.3,2.1c-3.2,1.4-5.7,3.5-7.4,6.2v-7.4h-16.2v49.8h18v-28c0.8-2.1,2.1-3.8,3.8-5.1s3.3-2,4.8-2s2.7,0.6,3.8,1.7
			s1.7,2.9,1.7,5.3v28h18V91.8c0-1.7-0.2-3.6-0.5-5.7C372.3,84,371.6,82.1,370.6,80.3z M410,74.8l-7.7,34.5l-9.5-34.5h-18.4
			l18.1,49.8c-0.4,4.4-2.5,6.6-6.3,6.6c-2,0-4.5-0.5-7.4-1.6v15.3c3,1.2,6.1,1.8,9.3,1.8c2.5,0,4.9-0.4,7.3-1.1s4.5-1.8,6.4-3.3
			c1.9-1.4,3.6-3.1,5-5.1s2.5-4.2,3.2-6.7l16.8-55.7H410z M476.1,108.2c0.5,0.7,1.4,1.1,2.6,1.2v15.1c-1.5,0.3-2.8,0.6-4.1,0.7
			c-1.3,0.2-2.4,0.2-3.5,0.2c-3.2,0-5.7-0.6-7.3-1.8c-1.7-1.2-2.8-2.9-3.3-5.2l-0.4-1.8c-2.2,2.8-4.8,5-7.7,6.5
			c-2.9,1.5-6,2.2-9.3,2.2c-2.5,0-4.8-0.4-6.9-1.2s-4-1.9-5.5-3.4c-1.5-1.4-2.8-3.1-3.6-5.1s-1.3-4.1-1.3-6.3c0-2.5,0.5-4.8,1.6-6.9
			s2.6-3.9,4.4-5.4c1.9-1.5,4.1-2.7,6.8-3.5c2.6-0.8,5.5-1.2,8.7-1.2c4,0,7.4,0.6,10,1.9v-1.5c0-2.3-0.7-4.1-2-5.2
			c-1.4-1.1-3.5-1.7-6.6-1.7c-2.8,0-5.5,0.5-7.9,1.4s-4.9,2.3-7.6,4L428,80c6.6-4.2,14-6.3,22.4-6.3c7.9,0,14.1,1.8,18.3,5.3
			c4.3,3.5,6.4,8.8,6.4,15.9v9.6C475.4,106.4,475.6,107.5,476.1,108.2z M457.4,103.5c-1.1-0.4-2.2-0.7-3.5-0.9
			c-1.3-0.2-2.4-0.4-3.4-0.4c-2.2,0-4,0.5-5.5,1.6s-2.2,2.4-2.2,4.1c0,1.4,0.6,2.5,1.7,3.4s2.5,1.3,4.2,1.3c1.1,0,2.2-0.2,3.3-0.5
			c1.1-0.3,2.1-0.8,3-1.4c0.7-0.5,1.3-1.1,1.7-1.7c0.4-0.6,0.7-1.2,0.7-1.8L457.4,103.5L457.4,103.5z M506.4,76.5
			c-2.6,1.8-4.8,4.4-6.6,7.7v-9.5h-16.5v49.8h18V95c1.4-1.8,3.5-3,6.3-3.8s6-1.1,9.5-1.1V73.9c-0.3-0.1-1.1-0.1-2.3-0.1
			C511.9,73.8,509,74.7,506.4,76.5z M576.4,109.4v15.1c-3.1,0.6-5.6,0.9-7.6,0.9c-6.1,0-9.6-2.3-10.6-6.9l-0.4-1.8
			c-1.7,3-4,5.2-6.9,6.6s-6,2.1-9.3,2.1c-3.4,0-6.5-0.6-9.4-1.9s-5.3-3-7.4-5.3s-3.7-5-4.9-8.2s-1.8-6.7-1.8-10.5
			c0-3.7,0.5-7.1,1.6-10.2s2.6-5.9,4.5-8.2c1.9-2.3,4.2-4.1,6.9-5.4s5.6-1.9,8.8-1.9s6.2,0.7,8.8,2.2c2.7,1.5,4.7,3.5,6.2,6.1V55.5
			h18v49.2c0,1.7,0.2,2.9,0.8,3.5C574.2,108.9,575.1,109.3,576.4,109.4z M555.1,96.3c-0.9-2.2-2.2-4-3.9-5.3c-1.7-1.4-3.5-2-5.4-2
			c-1.3,0-2.5,0.3-3.6,0.8s-2.1,1.4-2.8,2.4c-0.8,1-1.4,2.2-1.9,3.5s-0.7,2.7-0.7,4.3c0,3.2,0.9,5.7,2.7,7.6s4.2,2.8,7.1,2.8
			c3.3,0,6.1-1.7,8.5-5.1L555.1,96.3L555.1,96.3z"/>
	</g>
</g>
</svg>
