<?xml version="1.0" encoding="utf-8"?>
<!-- Generator: Adobe Illustrator 26.3.1, SVG Export Plug-In . SVG Version: 6.00 Build 0)  -->
<svg version="1.1" id="a8ab2bec-8e33-4042-bf0b-3f9f3b20be49"
	 xmlns="http://www.w3.org/2000/svg" xmlns:xlink="http://www.w3.org/1999/xlink" x="0px" y="0px" viewBox="0 0 313.4 82.8"
	 style="enable-background:new 0 0 313.4 82.8;" xml:space="preserve">
<style type="text/css">
	.st0{fill:#6CD24A;}
	.st1{fill:#FFFFFF;}
	.st2{fill:#E10B7F;}
	.st3{fill:#007FBF;}
	.st4{fill:#FFC012;}
	.st5{fill:#1C1C1C;}
</style>
<path class="st0" d="M308,0.3h-26.6c-3,0-5.4,2.4-5.4,5.4v26.5c0,3,2.4,5.4,5.4,5.4l0,0H308c3,0,5.4-2.4,5.4-5.4c0,0,0,0,0,0l0,0
	V5.7C313.4,2.7,311,0.3,308,0.3C308,0.3,308,0.3,308,0.3L308,0.3"/>
<path class="st1" d="M302.9,12l0.3-2.6c0-1.6-4-2.8-9-2.8s-9,1.3-9,2.8l2.4,18.6c0,0.7,1.7,3.4,6.6,3.4s6.6-2.8,6.6-3.4l0.5-3.8h0.4
	c1.6,0,3.2-0.6,4.3-1.8l0,0c2.4-2.4,2.4-6.2,0-8.6C305.3,12.8,304.2,12.2,302.9,12z M294.2,11.2c-4.3,0-7.8-0.9-7.8-2s3.5-2,7.8-2
	s7.8,0.9,7.8,2S298.5,11.2,294.2,11.2z M301.8,22.1h-0.2l1-8l0,0c2.2,0.5,3.5,2.7,3,4.9C305.2,20.8,303.6,22,301.8,22.1L301.8,22.1z
	"/>
<path class="st2" d="M190.4,0.3h-26.6c-3,0-5.4,2.4-5.4,5.4v26.5c0,3,2.4,5.4,5.4,5.4h26.6c3,0,5.4-2.4,5.4-5.4V5.7
	C195.8,2.7,193.4,0.3,190.4,0.3"/>
<path class="st1" d="M176.6,23.9c-0.2,0.8-1.2,3.1-6.6,3.1c-6.3,0-7.5-4-7.5-4l7.3-2.6l0.1,0.1C171.8,22,174.1,23.2,176.6,23.9"/>
<path class="st1" d="M170,20c0.4-1.4,2.6-8.3,11.4-8.6c0.6,0.1,1.1,0.2,1.6,0.4c-4.7,3.4-6.4,10.3-6.6,11.6
	C174.1,22.6,172,21.5,170,20L170,20z"/>
<path class="st1" d="M191.7,25.5h-1.9c-4.4,0-8.7-0.6-12.8-2c0.2-1.1,1.9-8.7,7.1-11.8l0.1-0.1c-0.2-0.1-0.4-0.1-0.6-0.1l-0.7-0.1
	l0,0c0.1-0.3,0.5-0.5,1-0.4s0.9,0.4,0.8,0.8l0,0C189.6,13.3,193,19.2,191.7,25.5"/>
<path class="st3" d="M229.6,0.3h-26.6c-3,0-5.4,2.4-5.4,5.4v26.5c0,3,2.4,5.4,5.4,5.4h26.6c3,0,5.4-2.4,5.4-5.4c0,0,0,0,0,0V5.7
	C235,2.7,232.6,0.3,229.6,0.3C229.6,0.3,229.6,0.3,229.6,0.3"/>
<path class="st1" d="M221,8.2l-0.9-0.5C219,8.6,217.6,9,216.2,9c-1.4,0-2.7-0.4-3.9-1.2l-0.9,0.5l-8,4.2l3.2,6.1l2.4-1.3v11.8h14.4
	V17.3l2.4,1.3l3.1-6.1L221,8.2z M218.1,10.9c-1.9,1-4.2,0.2-5.2-1.7l0,0l0,0l0,0c1.1,0.5,2.2,0.8,3.4,0.8c1.2,0,2.4-0.3,3.5-0.8
	C219.4,9.9,218.8,10.5,218.1,10.9L218.1,10.9z"/>
<path class="st4" d="M268.8,0.3h-26.6c-3,0-5.4,2.4-5.4,5.4v26.5c0,3,2.4,5.4,5.4,5.4h26.6c3,0,5.4-2.4,5.4-5.4c0,0,0,0,0,0l0,0V5.7
	C274.2,2.7,271.8,0.3,268.8,0.3C268.8,0.3,268.8,0.3,268.8,0.3L268.8,0.3"/>
<path class="st1" d="M250.2,14c0.7-0.7,1.4-0.4,2-0.5c1.7-2.9,2.5-6.7,7.2-5.5l0.3,0.1c-0.2,0.2-0.6,0.7-1.1,1.3
	c-2.8,0.3-3.7,2.4-4.6,4.6c-0.3,0.7-0.6,1.3-1,1.8c-0.5,0.7-1.4,1-2.1,0.7c-0.8-0.3-1.2-1.2-0.9-2C250,14.3,250.1,14.1,250.2,14"/>
<path class="st1" d="M260.5,18.9c-2.8,2.8-5.7,6.1-7.1,7.5c-2.9,2.9-9.7,4.4-9.7,4.4s1.5-6.8,4.4-9.7c1.4-1.4,4.8-4.4,7.5-7.1
	c2.7-2.8,4.9-5.4,4.9-5.4c1.1,0.7,2.1,1.4,2.9,2.3c0.9,0.9,1.7,1.8,2.4,2.9C265.9,13.9,263.3,16.1,260.5,18.9"/>
<path class="st1" d="M266.8,11.1c-0.4,0.4-0.6,0.8-0.8,1.1c-0.5-0.7-1.1-1.4-1.7-2c-0.6-0.6-1.3-1.2-2.1-1.8
	c0.2-0.2,0.7-0.5,1.1-0.8c1-0.7,2.4-0.5,3.1,0.4C267.4,8.8,267.5,10.1,266.8,11.1"/>
<polygon class="st5" points="0,14.1 0,0 50.6,0 50.6,14.1 33.4,14.1 33.4,66.6 17.2,66.6 17.2,14.1 "/>
<path class="st5" d="M42.1,66.4c3.3,1.2,8.8,1.2,9.3,1.2c4.3,0,6.1-3.5,6.1-7.7V0h16.3v59.8c0,12.4-6.1,22.9-22.4,22.9
	c-3.6-0.1-7.3-0.7-10.7-1.8L42.1,66.4z"/>
<polygon class="st5" points="135.1,0 115.6,35.4 97.2,0 80.8,0 80.8,66.6 95.6,66.6 95.5,28.1 110.7,56.2 114.5,56.2 116.8,56.2 
	120.6,56.2 136.7,28.1 136.7,66.6 151.5,66.6 151.5,0 "/>
<path class="st5" d="M158.4,44.8h8.9c4.8,0,6.9,3.5,6.9,7s-2.1,7-6.9,7h-4.8v7.7h-4.1V44.8z M162.5,48.4v6.8h4.6
	c1.7,0,3.1-1.5,3.1-3.2c0,0,0,0,0,0c0-0.1,0-0.1,0-0.2c0-1.6-0.9-3.5-2.9-3.5H162.5z"/>
<path class="st5" d="M198.2,66.6h-4.9l-5.1-7.7h-1.7v7.7h-4.1V44.8h8.7c4.8,0,7,3.5,7,7c0,3.1-1.7,6.2-5.5,6.8L198.2,66.6z
	 M186.5,48.5v6.8h4.4c1.7,0,3.1-1.4,3.1-3.1c0-0.1,0-0.2,0-0.3c0-1.6-0.9-3.5-2.9-3.5L186.5,48.5z"/>
<path class="st5" d="M216.7,44.6c6.2-0.1,11.3,4.8,11.4,11s-4.8,11.3-11,11.4c-6.2,0.1-11.3-4.8-11.4-11v-0.2
	C205.6,49.7,210.5,44.7,216.7,44.6L216.7,44.6 M216.7,63c4,0.1,7.3-3,7.4-7c0.1-4-3-7.3-7-7.4c-4-0.1-7.3,3-7.4,7v0.2
	c-0.1,3.9,2.9,7.1,6.8,7.2c0,0,0,0,0,0L216.7,63"/>
<path class="st5" d="M278.4,44.6c6.2-0.1,11.3,4.8,11.4,11c0.1,6.2-4.8,11.3-11,11.4c-6.2,0.1-11.3-4.8-11.4-11v-0.2
	C267.4,49.7,272.2,44.7,278.4,44.6L278.4,44.6 M278.4,63c4,0.1,7.3-3,7.4-7c0.1-4-3-7.3-7-7.4c-4-0.1-7.3,3-7.4,7v0.2
	C271.3,59.7,274.4,62.9,278.4,63C278.3,63,278.4,63,278.4,63L278.4,63"/>
<path class="st5" d="M302,60.3c0.1,1.6,1.4,3.1,3.8,3.1c2.2,0,3.5-1.1,3.6-2.6s-0.9-2.4-3-3l-2.7-0.7c-4.7-1.4-5.5-4.1-5.5-6.1
	c0-3.8,3.3-6.4,7.3-6.4s7.2,2.5,7.2,6.6h-4c0-1.7-1.2-2.8-3.3-2.8c-1.8,0-3.2,1-3.2,2.6c0,0.7,0.2,1.9,2.6,2.5l2.7,0.8
	c4.9,1.3,6.1,4.1,5.9,6.6c-0.2,3.9-3.7,6.2-7.6,6.2c-4.6,0-7.8-3-7.8-6.7L302,60.3z"/>
<polygon class="st5" points="259.3,66.7 259.3,44.8 255.1,44.8 247.7,58.7 240.3,44.8 236.1,44.8 236.1,66.7 240.6,66.7 240.6,54 
	245.9,64.2 249.5,64.2 254.9,54 254.9,66.7 "/>
</svg>
