<?xml version="1.0" encoding="UTF-8"?>
<svg id="uuid-adaf315d-d794-4254-9bba-c493e1bd7a73" data-name="uuid-fa3ab9ab-e702-4d0d-bca6-5efec1cec418" xmlns="http://www.w3.org/2000/svg" viewBox="0 0 316.34 263.36">
  <defs>
    <style>
      .uuid-1b407e93-d9e6-4d2a-a529-468e0734af25 {
        fill: #fff;
      }
    </style>
  </defs>
  <polygon class="uuid-1b407e93-d9e6-4d2a-a529-468e0734af25" points="105.71 90.69 .21 90.69 .21 120.14 36.11 120.14 36.11 229.68 69.8 229.68 69.8 120.14 105.71 120.14 105.71 90.69"/>
  <polygon class="uuid-1b407e93-d9e6-4d2a-a529-468e0734af25" points="88.08 229.27 88.09 229.27 88.09 229.27 88.08 229.27"/>
  <path class="uuid-1b407e93-d9e6-4d2a-a529-468e0734af25" d="M120.16,215.55c0,8.88-3.63,16.14-12.71,16.14-1.01,0-12.5,0-19.36-2.42l-3.03,30.26c8.27,2.82,18.56,3.83,22.39,3.83,34.09,0,46.8-21.99,46.8-47.81v-124.86h-34.09v124.86Z"/>
  <polygon class="uuid-1b407e93-d9e6-4d2a-a529-468e0734af25" points="282 90.69 241.46 164.54 203.02 90.69 168.69 90.69 168.69 229.68 199.6 229.68 199.54 149.25 231.2 207.95 239.01 207.95 243.91 207.95 251.72 207.95 285.49 149.25 285.42 229.68 316.34 229.68 316.34 90.69 282 90.69"/>
  <path class="uuid-1b407e93-d9e6-4d2a-a529-468e0734af25" d="M177.41,236.89h-8.4v20.67h3.84v-7.35h4.56c4.59,0,6.57-3.27,6.57-6.63s-1.98-6.69-6.57-6.69ZM177.23,246.79h-4.38v-6.48h4.5c1.92,0,2.79,1.74,2.79,3.27s-.93,3.21-2.91,3.21Z"/>
  <polygon class="uuid-1b407e93-d9e6-4d2a-a529-468e0734af25" points="206.69 257.56 206.69 257.55 206.68 257.55 206.69 257.56"/>
  <path class="uuid-1b407e93-d9e6-4d2a-a529-468e0734af25" d="M206.66,243.58c0-3.36-2.04-6.69-6.6-6.69h-8.28v20.66h3.84v-7.35h1.59l4.86,7.35h4.61l-5.27-7.49c3.66-.6,5.25-3.51,5.25-6.48ZM195.63,246.79v-6.48h0s4.26,0,4.26,0c1.92,0,2.79,1.74,2.79,3.27s-.9,3.21-2.91,3.21h-4.14Z"/>
  <path class="uuid-1b407e93-d9e6-4d2a-a529-468e0734af25" d="M224.25,236.65h0c-5.88,0-10.47,4.79-10.47,10.61s4.6,10.59,10.47,10.59,10.49-4.72,10.49-10.59-4.61-10.61-10.49-10.61ZM224.25,254.07c-3.75,0-6.66-3.04-6.66-6.81s2.94-6.83,6.66-6.83,6.66,3.05,6.66,6.83-2.94,6.81-6.66,6.81Z"/>
  <path class="uuid-1b407e93-d9e6-4d2a-a529-468e0734af25" d="M282.77,236.65h0c-5.88,0-10.47,4.79-10.47,10.61s4.6,10.59,10.47,10.59,10.49-4.72,10.49-10.59-4.61-10.61-10.49-10.61ZM282.77,254.07c-3.75,0-6.66-3.04-6.66-6.81s2.94-6.83,6.66-6.83,6.66,3.05,6.66,6.83-2.94,6.81-6.66,6.81Z"/>
  <path class="uuid-1b407e93-d9e6-4d2a-a529-468e0734af25" d="M310.28,245.73l-2.55-.75c-2.22-.6-2.46-1.71-2.46-2.37,0-1.47,1.38-2.43,3.09-2.43,1.92,0,3.09,1.08,3.09,2.7h3.84c0-3.87-3.06-6.24-6.87-6.24s-6.96,2.43-6.96,6.06c0,1.83.72,4.44,5.22,5.76l2.55.66c2.01.54,2.94,1.44,2.85,2.82-.09,1.41-1.35,2.49-3.42,2.49-2.22,0-3.51-1.41-3.57-2.91h-3.83c0,3.54,3,6.36,7.41,6.36,3.77,0,7.07-2.13,7.25-5.85.18-2.43-1.02-5.04-5.64-6.3Z"/>
  <polygon class="uuid-1b407e93-d9e6-4d2a-a529-468e0734af25" points="260.64 236.89 253.66 250 246.67 236.89 242.69 236.89 242.66 257.6 246.88 257.6 246.88 245.59 251.98 255.25 255.33 255.25 260.43 245.59 260.43 257.6 264.65 257.6 264.62 236.89 260.64 236.89"/>
  <path class="uuid-1b407e93-d9e6-4d2a-a529-468e0734af25" d="M292.94,18.15c0-2.24-7.1-4.05-15.86-4.05s-15.86,1.82-15.86,4.05,7.1,4.05,15.86,4.05,15.86-1.82,15.86-4.05Z"/>
  <path class="uuid-1b407e93-d9e6-4d2a-a529-468e0734af25" d="M292.52,44.48c2.29,0,4.34-.92,5.85-2.42,1.5-1.5,2.42-3.56,2.42-5.85s-.92-4.34-2.42-5.85c-1.11-1.11-2.52-1.9-4.11-2.24v.02l-2.08,16.34h.34Z"/>
  <path class="uuid-1b407e93-d9e6-4d2a-a529-468e0734af25" d="M250.89,76.3h54.18c6.11,0,11.06-4.95,11.06-11.06V11.06c.01-6.11-4.95-11.06-11.06-11.06h-54.18c-6.11,0-11.06,4.95-11.06,11.06v54.18c0,6.11,4.95,11.06,11.06,11.06ZM258.72,18.54c0-3.17,8.23-5.74,18.37-5.74s18.37,2.57,18.37,5.74h.03l-.69,5.41c2.54.47,4.82,1.7,6.56,3.45,2.26,2.25,3.66,5.39,3.66,8.83s-1.4,6.58-3.66,8.83c-2.25,2.26-5.39,3.66-8.83,3.66-.3,0-.59,0-.88-.03l-.99,7.82h-.03v.05c0,1.16-3.4,6.95-13.54,6.95s-13.54-5.55-13.54-6.95v-.05h-.03l-4.83-37.97h.03Z"/>
  <path class="uuid-1b407e93-d9e6-4d2a-a529-468e0734af25" d="M11.06,76.3h54.18c6.11,0,11.06-4.95,11.06-11.06V11.06c0-6.11-4.95-11.06-11.06-11.06H11.06C4.95,0,0,4.95,0,11.06v54.18c0,6.11,4.95,11.06,11.06,11.06ZM51.58,21.85c1.03.2,1.76.92,1.63,1.61v.02c10.2,3.18,17.05,15.41,14.5,27.92h-.01s-.11-.01-.11-.01c-1.34.06-2.65.08-3.94.08-11.02,0-19.7-1.85-26.13-4.03.46-2.3,3.96-17.81,14.54-24.13l.19-.11c-.44-.11-.87-.2-1.32-.27-.74-.14-1.46-.19-1.46-.19.13-.69,1.08-1.09,2.11-.89ZM46.8,22.69c1.7.18,2.92.59,3.38.76-9.63,6.85-12.99,21.02-13.54,23.68-8.63-3.07-12.91-6.65-12.99-6.72l-.18-.15c.75-2.86,5.39-16.96,23.33-17.57ZM22.84,40.95l.2.17c.08.07,4.66,3.92,13.88,7.1h.01c-.38,1.63-2.43,6.29-13.54,6.29-12.77,0-15.34-8.25-15.34-8.25l14.79-5.31Z"/>
  <path class="uuid-1b407e93-d9e6-4d2a-a529-468e0734af25" d="M111.03,18.13c1.32,2.55,3.97,4.29,7.06,4.29s5.77-1.77,7.09-4.35c-2.09,1.11-4.6,1.71-7.13,1.71s-4.95-.58-7.02-1.65Z"/>
  <path class="uuid-1b407e93-d9e6-4d2a-a529-468e0734af25" d="M145.18,0h-54.18c-6.11,0-11.06,4.95-11.06,11.06v54.18c0,6.11,4.95,11.06,11.06,11.06h54.18c6.11,0,11.06-4.95,11.06-11.06V11.06c0-6.11-4.95-11.06-11.06-11.06ZM144.24,24.91l-6.56,12.38-4.91-2.61v24.06h-29.37v-24.06l-4.91,2.61-6.56-12.38,16.38-8.68,1.77-.94.11.09c1.99,1.56,4.73,2.53,7.86,2.53s5.95-1,7.95-2.6l.05-.04,1.77.94,16.43,8.7h-.01Z"/>
  <path class="uuid-1b407e93-d9e6-4d2a-a529-468e0734af25" d="M225.13,76.3c6.11,0,11.06-4.95,11.06-11.06V11.06c0-6.11-4.95-11.06-11.06-11.06h-54.18c-6.11,0-11.06,4.95-11.06,11.06v54.18c0,6.11,4.95,11.06,11.06,11.06h54.18ZM213.95,14.97c1.52-1.52,4.36-1.14,6.35.84,1.98,1.99,2.36,4.83.84,6.35h-.01c-.75.75-1.18,1.68-1.67,2.19-.83-1.08-1.97-2.46-3.51-3.99-1.65-1.65-3.11-2.85-4.22-3.69.5-.5,1.45-.93,2.22-1.7ZM187.21,27.98c1.38-1.38,2.79-.75,4.07-1.1,3.39-5.82,5.11-13.69,14.6-11.16.24.08.45.16.65.24-.37.44-1.18,1.37-2.28,2.61-5.63.65-7.61,4.81-9.49,9.3-.55,1.32-1.27,2.62-2.15,3.74-1.07,1.37-2.64,2.08-4.34,1.36-2.09-.89-2.42-3.61-1.05-4.99h-.01ZM183.04,42.49c2.95-2.95,9.73-8.88,15.35-14.5s10.05-10.9,10.05-10.9c0,0,2.51,1.35,5.96,4.81,3.45,3.45,4.81,5.96,4.81,5.96,0,0-5.29,4.44-10.9,10.05h0c-5.62,5.62-11.56,12.4-14.5,15.35-5.88,5.88-19.77,9-19.77,9,0,0,3.12-13.89,9-19.77Z"/>
</svg>