<?xml version="1.0" encoding="UTF-8"?>
<svg id="uuid-167865fd-ca26-4747-a423-0ad37c683b40" data-name="uuid-d494a975-c78f-4eaa-ae5c-9872f6a1e510" xmlns="http://www.w3.org/2000/svg" viewBox="0 0 313.38 82.77">
  <path d="M302.63,14.07l-1.02,8.01h.17c1.12,0,2.13-.45,2.87-1.19.73-.74,1.19-1.74,1.19-2.86s-.45-2.13-1.19-2.86c-.55-.54-1.24-.93-2.02-1.1Z"/>
  <ellipse cx="294.21" cy="9.19" rx="7.77" ry="1.99"/>
  <path d="M307.96.28h-26.55c-2.99,0-5.42,2.43-5.42,5.42v26.55c0,2.99,2.43,5.42,5.42,5.42h26.55c2.99,0,5.42-2.43,5.42-5.42V5.7c0-2.99-2.43-5.42-5.42-5.42ZM306.14,22.36c-1.1,1.11-2.64,1.79-4.33,1.79-.14,0-.29,0-.43-.01l-.49,3.83h-.01v.02c0,.57-1.67,3.4-6.64,3.4s-6.64-2.72-6.64-3.4v-.02h-.02l-2.37-18.61h.01c0-1.55,4.03-2.81,9-2.81s9,1.26,9,2.81h.01l-.34,2.65c1.25.23,2.36.83,3.22,1.69,1.11,1.1,1.79,2.64,1.79,4.33s-.69,3.22-1.79,4.33h.03Z"/>
  <path d="M163.87,37.67h26.55c2.99,0,5.42-2.43,5.42-5.42V5.7c0-2.99-2.43-5.42-5.42-5.42h-26.55c-2.99,0-5.42,2.43-5.42,5.42v26.55c0,2.99,2.43,5.42,5.42,5.42ZM183.73,10.98c.51.1.86.45.8.79,5,1.56,8.35,7.55,7.1,13.68v.02s-.04,0-.04,0c-.66.03-1.3.04-1.93.04-5.4,0-9.65-.91-12.81-1.97.23-1.13,1.94-8.73,7.13-11.83l.09-.06c-.21-.05-.43-.1-.65-.13-.36-.07-.72-.1-.72-.1.07-.34.53-.54,1.03-.44ZM181.39,11.4c.83.09,1.43.29,1.66.37-4.72,3.36-6.36,10.3-6.63,11.61-4.23-1.51-6.33-3.26-6.37-3.29l-.09-.08c.37-1.4,2.65-8.31,11.43-8.61ZM169.65,20.35l.1.08s2.28,1.92,6.8,3.48c-.19.8-1.19,3.08-6.63,3.08-6.26,0-7.52-4.04-7.52-4.04l7.25-2.6Z"/>
  <path d="M212.86,9.16c.65,1.25,1.94,2.1,3.46,2.1s2.83-.87,3.48-2.13c-1.03.55-2.26.84-3.5.84s-2.43-.28-3.44-.81Z"/>
  <path d="M229.6.28h-26.55c-2.99,0-5.42,2.43-5.42,5.42v26.55c0,2.99,2.43,5.42,5.42,5.42h26.55c2.99,0,5.42-2.43,5.42-5.42V5.7c0-2.99-2.43-5.42-5.42-5.42ZM225.92,18.54l-2.41-1.28v11.79h-14.39v-11.79l-2.41,1.28-3.21-6.07,8.02-4.25.87-.46.05.04c.97.77,2.31,1.24,3.85,1.24s2.92-.49,3.9-1.27l.03-.02.87.46,8.04,4.26h0s0,0,0,0h-.01s-3.21,6.06-3.21,6.06Z"/>
  <path d="M242.23,37.67h26.55c2.99,0,5.42-2.43,5.42-5.42V5.7c0-2.99-2.43-5.42-5.42-5.42h-26.55c-2.99,0-5.42,2.43-5.42,5.42v26.55c0,2.99,2.43,5.42,5.42,5.42ZM263.29,7.61c.74-.74,2.14-.56,3.11.41.97.97,1.16,2.36.41,3.11h0c-.37.38-.58.83-.82,1.08-.4-.53-.97-1.2-1.72-1.96-.81-.81-1.52-1.4-2.07-1.81.25-.24.71-.46,1.09-.83ZM250.19,14h0c.68-.69,1.37-.38,1.99-.55,1.66-2.85,2.5-6.71,7.15-5.47.12.04.22.08.32.12-.18.21-.58.67-1.12,1.28-2.76.32-3.73,2.36-4.65,4.56-.27.65-.62,1.28-1.06,1.83-.52.67-1.29,1.02-2.13.67-1.02-.44-1.19-1.77-.51-2.44ZM248.14,21.1c1.44-1.44,4.77-4.35,7.52-7.11,2.75-2.75,4.93-5.34,4.93-5.34,0,0,1.23.66,2.92,2.36,1.69,1.69,2.36,2.92,2.36,2.92,0,0-2.59,2.18-5.34,4.93s-5.66,6.08-7.11,7.52c-2.88,2.88-9.69,4.41-9.69,4.41,0,0,1.53-6.81,4.41-9.69Z"/>
  <polygon points="50.57 0 0 0 0 14.12 17.21 14.12 17.21 66.62 33.36 66.62 33.36 14.12 50.57 14.12 50.57 0"/>
  <path d="M57.49,59.85c0,4.25-1.74,7.73-6.09,7.73-.48,0-5.99,0-9.28-1.16h0s-1.45,14.51-1.45,14.51c3.96,1.36,8.89,1.84,10.73,1.84,16.34,0,22.43-10.54,22.43-22.92V.01h-16.34v59.84Z"/>
  <polygon points="115.64 35.4 97.21 0 80.76 0 80.76 66.62 95.57 66.62 95.54 28.06 110.72 56.2 114.46 56.2 116.81 56.2 120.56 56.2 136.74 28.06 136.71 66.62 151.53 66.62 151.53 0 135.07 0 115.64 35.4"/>
  <path d="M167.3,44.85h-8.86v21.79h4.05v-7.75h4.81c4.84,0,6.93-3.45,6.93-6.99s-2.09-7.05-6.93-7.05ZM167.12,55.28h-4.62v-6.83h4.75c2.02,0,2.94,1.84,2.94,3.45s-.98,3.38-3.07,3.38Z"/>
  <path d="M198.15,51.9c0-3.54-2.15-7.05-6.96-7.05h-8.73v21.78h4.05v-7.75h1.68l5.12,7.75h4.87l-5.56-7.9c3.85-.63,5.53-3.7,5.53-6.83ZM186.51,55.28v-6.83h4.49c2.02,0,2.94,1.84,2.94,3.45s-.95,3.38-3.07,3.38h-4.36Z"/>
  <path d="M216.71,44.59c-6.2,0-11.04,5.06-11.04,11.19s4.84,11.16,11.04,11.16,11.07-4.96,11.07-11.16-4.87-11.19-11.07-11.19ZM216.71,62.96c-3.95,0-7.02-3.19-7.02-7.18s3.1-7.21,7.02-7.21,7.02,3.22,7.02,7.21-3.1,7.18-7.02,7.18Z"/>
  <path d="M278.42,44.59c-6.2,0-11.04,5.06-11.04,11.19s4.84,11.16,11.04,11.16,11.07-4.96,11.07-11.16-4.87-11.19-11.07-11.19ZM278.42,62.96c-3.95,0-7.02-3.19-7.02-7.18s3.1-7.21,7.02-7.21,7.02,3.22,7.02,7.21-3.1,7.18-7.02,7.18Z"/>
  <path d="M307.41,54.18l-2.69-.79c-2.34-.63-2.59-1.8-2.59-2.5,0-1.55,1.46-2.56,3.26-2.56,2.03,0,3.26,1.14,3.26,2.85h4.05c0-4.08-3.22-6.58-7.24-6.58s-7.34,2.56-7.34,6.39c0,1.93.76,4.68,5.5,6.07l2.69.7c2.11.57,3.1,1.52,3,2.97-.09,1.48-1.42,2.62-3.6,2.62-2.34,0-3.7-1.49-3.76-3.07h-4.06c0,3.73,3.16,6.7,7.81,6.7,3.98,0,7.46-2.24,7.65-6.16.19-2.56-1.07-5.31-5.94-6.64Z"/>
  <polygon points="255.08 44.85 247.71 58.67 240.34 44.85 236.15 44.85 236.12 66.68 240.57 66.68 240.57 54.02 245.95 64.21 249.47 64.21 254.86 54.02 254.86 66.68 259.31 66.68 259.27 44.85 255.08 44.85"/>
</svg>