<?xml version="1.0" encoding="UTF-8"?><svg id="uuid-4fcd8051-2a95-4315-b3d8-0a26b15b801c" xmlns="http://www.w3.org/2000/svg" viewBox="0 0 316.34 263.36"><defs><style>.uuid-a94d30f8-af94-43fc-a78a-d5e014dc0fa3{fill:#007fbf;}.uuid-10d388b0-a7e1-4f33-b39e-5246d5b53004{fill:#fff;}.uuid-c79951c0-1fe4-43e5-be64-f931c3abd7f9{fill:#ffc012;}.uuid-917bba8e-4fe2-420f-90f1-3da23c9e0c8e{fill:#e10b7f;}.uuid-e02398aa-98e7-4df9-b3a7-a5262e798421{fill:#6cd24a;}</style></defs><g><g><polygon class="uuid-10d388b0-a7e1-4f33-b39e-5246d5b53004" points=".21 90.69 .21 120.14 36.11 120.14 36.11 229.68 69.8 229.68 69.8 120.14 105.71 120.14 105.71 90.69 .21 90.69"/><path class="uuid-10d388b0-a7e1-4f33-b39e-5246d5b53004" d="m88.08,229.27c6.86,2.42,18.36,2.42,19.37,2.42,9.08,0,12.71-7.26,12.71-16.14v-124.86h34.09v124.86c0,25.82-12.71,47.81-46.8,47.81-3.83,0-14.12-1.01-22.39-3.83l3.03-30.26Z"/><polygon class="uuid-10d388b0-a7e1-4f33-b39e-5246d5b53004" points="282 90.69 241.46 164.54 203.02 90.69 168.69 90.69 168.69 229.68 199.6 229.68 199.54 149.25 231.2 207.95 239.01 207.95 243.91 207.95 251.72 207.95 285.49 149.25 285.42 229.68 316.34 229.68 316.34 90.69 282 90.69"/></g><g><path class="uuid-10d388b0-a7e1-4f33-b39e-5246d5b53004" d="m169.01,236.89h8.4c4.59,0,6.57,3.33,6.57,6.69s-1.98,6.63-6.57,6.63h-4.56v7.35h-3.84v-20.66Zm3.84,3.42v6.48h4.38c1.98,0,2.91-1.68,2.91-3.21s-.87-3.27-2.79-3.27h-4.5Z"/><path class="uuid-10d388b0-a7e1-4f33-b39e-5246d5b53004" d="m206.69,257.55h-4.62l-4.86-7.35h-1.59v7.35h-3.84v-20.66h8.28c4.56,0,6.6,3.33,6.6,6.69,0,2.97-1.59,5.88-5.25,6.48l5.28,7.5Zm-11.06-17.24v6.48h4.14c2.01,0,2.91-1.68,2.91-3.21s-.87-3.27-2.79-3.27h-4.26Z"/><path class="uuid-10d388b0-a7e1-4f33-b39e-5246d5b53004" d="m224.25,236.65c5.88,0,10.49,4.74,10.49,10.61s-4.62,10.59-10.49,10.59-10.47-4.77-10.47-10.59,4.59-10.61,10.47-10.61m0,17.42c3.72,0,6.66-3.03,6.66-6.81s-2.94-6.83-6.66-6.83-6.66,3.06-6.66,6.83,2.91,6.81,6.66,6.81"/><path class="uuid-10d388b0-a7e1-4f33-b39e-5246d5b53004" d="m282.77,236.65c5.88,0,10.49,4.74,10.49,10.61s-4.62,10.59-10.49,10.59-10.47-4.77-10.47-10.59,4.59-10.61,10.47-10.61m0,17.42c3.72,0,6.66-3.03,6.66-6.81s-2.94-6.83-6.66-6.83-6.66,3.06-6.66,6.83,2.91,6.81,6.66,6.81"/><path class="uuid-10d388b0-a7e1-4f33-b39e-5246d5b53004" d="m305.09,251.52c.06,1.5,1.35,2.91,3.57,2.91,2.07,0,3.33-1.08,3.42-2.49.09-1.38-.84-2.28-2.85-2.82l-2.55-.66c-4.5-1.32-5.22-3.93-5.22-5.76,0-3.63,3.15-6.06,6.96-6.06s6.87,2.37,6.87,6.24h-3.84c0-1.62-1.17-2.7-3.09-2.7-1.71,0-3.09.96-3.09,2.43,0,.66.24,1.77,2.46,2.37l2.55.75c4.62,1.26,5.82,3.87,5.64,6.3-.18,3.72-3.48,5.85-7.25,5.85-4.41,0-7.41-2.82-7.41-6.36h3.84Z"/><polygon class="uuid-10d388b0-a7e1-4f33-b39e-5246d5b53004" points="264.65 257.6 264.62 236.89 260.64 236.89 253.66 250 246.67 236.89 242.69 236.89 242.66 257.6 246.88 257.6 246.88 245.59 251.98 255.25 255.33 255.25 260.43 245.59 260.43 257.6 264.65 257.6"/></g></g><g><g><path class="uuid-e02398aa-98e7-4df9-b3a7-a5262e798421" d="m305.07,0h-54.18c-6.11,0-11.06,4.95-11.06,11.06v54.18c0,6.11,4.95,11.06,11.06,11.06h54.18c6.11,0,11.06-4.95,11.06-11.06V11.06C316.14,4.95,311.18,0,305.07,0"/><path class="uuid-10d388b0-a7e1-4f33-b39e-5246d5b53004" d="m301.36,45.06c-2.25,2.26-5.39,3.66-8.83,3.66h0c-.3,0-.59,0-.88-.03l-.99,7.82h-.03s0,.03,0,.05c0,1.16-3.4,6.95-13.54,6.95s-13.54-5.55-13.54-6.95c0-.02,0-.03,0-.05h-.03l-4.83-37.97h.03c0-3.17,8.23-5.74,18.37-5.74s18.37,2.57,18.37,5.74h.03l-.69,5.41c2.54.47,4.82,1.7,6.56,3.45,2.26,2.25,3.66,5.39,3.66,8.83,0,3.44-1.4,6.58-3.66,8.83m-7.1-16.92l-2.08,16.34c.11,0,.23,0,.34,0,2.29,0,4.34-.92,5.85-2.42,1.5-1.5,2.42-3.56,2.42-5.85s-.92-4.34-2.42-5.85c-1.11-1.11-2.52-1.9-4.11-2.24m-1.32-9.97c0-2.24-7.1-4.05-15.86-4.05s-15.86,1.82-15.86,4.05,7.1,4.05,15.86,4.05,15.86-1.82,15.86-4.05"/></g><g><path class="uuid-917bba8e-4fe2-420f-90f1-3da23c9e0c8e" d="m65.24,0H11.06C4.95,0,0,4.95,0,11.06v54.18c0,6.11,4.95,11.06,11.06,11.06h54.18c6.11,0,11.06-4.95,11.06-11.06V11.06C76.3,4.95,71.35,0,65.24,0"/><path class="uuid-10d388b0-a7e1-4f33-b39e-5246d5b53004" d="m36.93,48.22c-.38,1.63-2.43,6.29-13.54,6.29-12.77,0-15.34-8.25-15.34-8.25l14.79-5.31.2.17c.08.07,4.66,3.92,13.88,7.1m-13.45-7.96c.75-2.86,5.39-16.96,23.33-17.57,1.7.18,2.92.59,3.38.76-9.63,6.85-12.99,21.02-13.54,23.68-8.63-3.07-12.91-6.65-12.99-6.72l-.18-.15Zm44.23,11.13h-.11c-1.34.06-2.65.08-3.94.08-11.02,0-19.7-1.85-26.13-4.03.46-2.3,3.96-17.81,14.54-24.13l.19-.11c-.44-.11-.87-.2-1.32-.27-.74-.14-1.46-.19-1.46-.19h0c.13-.69,1.08-1.09,2.11-.89,1.03.2,1.76.92,1.63,1.61,0,0,0,0,0,.02,10.2,3.18,17.05,15.41,14.5,27.92"/></g><g><path class="uuid-a94d30f8-af94-43fc-a78a-d5e014dc0fa3" d="m145.18,0h-54.18C84.9,0,79.95,4.95,79.95,11.06v54.18c0,6.11,4.95,11.06,11.06,11.06h54.18c6.11,0,11.06-4.95,11.06-11.06V11.06C156.24,4.95,151.29,0,145.18,0"/><path class="uuid-10d388b0-a7e1-4f33-b39e-5246d5b53004" d="m111.03,18.13c2.07,1.07,4.49,1.65,7.02,1.65s5.04-.6,7.13-1.71c-1.32,2.58-4,4.35-7.09,4.35s-5.74-1.74-7.06-4.29m33.22,6.78l-16.43-8.7-1.77-.94-.05.04c-2,1.6-4.82,2.6-7.95,2.6s-5.87-.97-7.86-2.53l-.11-.09-1.77.94-16.38,8.68,6.56,12.38,4.91-2.61v24.06h29.37v-24.06l4.91,2.61,6.56-12.38Z"/></g><g><path class="uuid-c79951c0-1fe4-43e5-be64-f931c3abd7f9" d="m225.13,0h-54.18c-6.11,0-11.06,4.95-11.06,11.06v54.18c0,6.11,4.95,11.06,11.06,11.06h54.18c6.11,0,11.06-4.95,11.06-11.06V11.06C236.19,4.95,231.24,0,225.13,0"/><path class="uuid-10d388b0-a7e1-4f33-b39e-5246d5b53004" d="m187.21,27.98c1.38-1.38,2.79-.75,4.07-1.1,3.39-5.82,5.11-13.69,14.6-11.16.24.08.45.16.65.24-.37.44-1.18,1.37-2.28,2.61-5.63.65-7.61,4.81-9.49,9.3-.55,1.32-1.27,2.62-2.15,3.74-1.07,1.37-2.64,2.08-4.34,1.36-2.09-.89-2.42-3.61-1.05-4.99m21.09,9.93c-5.62,5.62-11.56,12.4-14.5,15.35-5.88,5.88-19.77,9-19.77,9,0,0,3.12-13.89,9-19.77,2.95-2.95,9.73-8.88,15.35-14.5,5.61-5.61,10.05-10.9,10.05-10.9,0,0,2.51,1.35,5.96,4.81,3.45,3.45,4.81,5.96,4.81,5.96,0,0-5.29,4.44-10.9,10.05m12.82-15.75c-.75.75-1.18,1.68-1.67,2.19-.83-1.08-1.97-2.46-3.51-3.99-1.65-1.65-3.11-2.85-4.22-3.69.5-.5,1.45-.93,2.22-1.7,1.52-1.52,4.36-1.14,6.35.84,1.98,1.99,2.36,4.83.84,6.35"/></g></g></svg>