<svg xmlns="http://www.w3.org/2000/svg" version="1.1" viewBox="0 0 211 211">
  <defs>
    <style>
      .cls-1 {
        fill: #e53a40;
      }

      .cls-2 {
        fill: #256eff;
      }
    </style>
  </defs>
  <path class="cls-2" d="M52,130.9v-13.2c0-.2,0-.5.2-.7l59.7-68.9c.2-.2.5-.3.8-.3h15c.6,0,1,.5,1,1h0v62.1c0,.6.5,1,1,1h20.3c.6,0,1,.5,1,1h0v18c0,.6-.5,1-1,1h-20.3c-.6,0-1,.5-1,1h0v26.1c0,.6-.5,1-1,1h-22.4c-.6,0-1-.5-1-1h0v-26.1c0-.6-.5-1-1-1h-50.4c-.5,0-.9-.5-.9-1h0ZM104.5,111v-25.3c0-.5-.4-1-.9-1-.3,0-.6.1-.8.3l-22.1,25.3c-.3.4-.3,1,0,1.3.2.2.5.3.7.2h22.1c.5,0,.9-.4.9-.9Z"/>
  <g>
    <path class="cls-1" d="M153.1,43.1c1.3,1,2.6,2.1,3.9,3.2l19.2-19.2c-1.2-1.1-2.5-2.2-3.8-3.3l-19.2,19.3Z"/>
    <path class="cls-1" d="M164.8,54.1c1.1,1.3,2.2,2.6,3.2,3.9l19.2-19.3c-1.1-1.3-2.1-2.6-3.3-3.8l-19.2,19.2Z"/>
    <path class="cls-1" d="M169.8,60.5c1,1.4,1.9,2.8,2.8,4.3l19.5-19.5c-1-1.4-2-2.7-3-4.1l-19.3,19.3Z"/>
    <path class="cls-1" d="M102.2,27.1c1.1,0,2.2,0,3.3,0s.7,0,1,0l24-24c-1.1-.3-2.3-.5-3.5-.8l-24.9,24.9Z"/>
    <path class="cls-1" d="M174.2,67.4c.9,1.5,1.7,3.1,2.4,4.7l20-20c-.9-1.5-1.8-2.9-2.7-4.4l-19.7,19.7Z"/>
    <path class="cls-1" d="M146.3,38.4c1.5.9,2.9,1.8,4.3,2.8l19.3-19.3c-1.3-1-2.7-2-4.1-3l-19.5,19.5Z"/>
    <path class="cls-1" d="M113.3,27.4c1.3.1,2.5.3,3.8.5l22.3-22.3c-1.1-.4-2.1-.7-3.2-1l-22.9,22.9Z"/>
    <path class="cls-1" d="M177.9,75.1c.7,1.7,1.3,3.4,1.9,5.1l20.7-20.7c-.8-1.6-1.6-3.1-2.4-4.7l-20.2,20.2Z"/>
    <path class="cls-1" d="M130.8,31.2c1.7.6,3.5,1.2,5.1,1.9l20.2-20.2c-1.5-.8-3.1-1.6-4.7-2.4l-20.7,20.7Z"/>
    <path class="cls-1" d="M138.9,34.5c1.6.7,3.1,1.5,4.7,2.4l19.7-19.7c-1.4-.9-2.9-1.8-4.4-2.7l-20,20Z"/>
    <path class="cls-1" d="M121.9,28.7c1.9.4,3.8.9,5.6,1.4l21-21c-1.6-.7-3.3-1.4-5-2.1l-21.6,21.7Z"/>
    <path class="cls-1" d="M69.8,6.2c-1.6.6-3.1,1.2-4.6,1.8L8,65.3c-.6,1.5-1.2,3.1-1.8,4.6L69.8,6.2Z"/>
    <path class="cls-1" d="M98.5.2c-1,0-2.1.1-3.1.2L.5,95.5c0,1-.2,2-.2,3.1L98.5.2Z"/>
    <path class="cls-1" d="M162.7,51.8l19.1-19.1c-1.2-1.2-2.3-2.4-3.5-3.5l-19.1,19.1c1.2,1.1,2.4,2.3,3.5,3.5Z"/>
    <path class="cls-1" d="M181.2,84.6c.3,1.1.6,2.2.9,3.4l21.5-21.5c-.4-1-.8-2-1.3-3l-21.1,21.1Z"/>
    <path class="cls-1" d="M48.3,159.2l-19.1,19.1c1.2,1.2,2.3,2.4,3.5,3.5l19.1-19.1c-1.2-1.1-2.4-2.3-3.5-3.5Z"/>
    <path class="cls-1" d="M29.9,32c-4.5,4.6-8.5,9.6-12.1,14.9l29.1-29.1c-5.4,3.6-10.4,7.7-14.9,12.1l-2,2Z"/>
    <path class="cls-1" d="M85.5,1.9c-1.2.2-2.4.5-3.6.7L2.6,82c-.3,1.2-.5,2.4-.7,3.6L85.5,1.9Z"/>
    <path class="cls-1" d="M183.2,93.9c.2,1.2.3,2.5.5,3.8l22.9-22.9c-.3-1.1-.7-2.2-1-3.2l-22.3,22.3Z"/>
    <path class="cls-1" d="M184,104.4c0,.4,0,.8,0,1.2,0,1,0,2.1,0,3.1l24.8-24.9c-.2-1.2-.5-2.3-.8-3.5l-24,24Z"/>
    <path class="cls-1" d="M183.3,116.6c-.2,1.7-.5,3.4-.9,5.1l28-28.1c-.1-1.3-.3-2.5-.5-3.8l-26.7,26.7Z"/>
    <path class="cls-1" d="M211,103.7c0-.9,0-1.8,0-2.7l-31.8,31.8c-.6,1.6-1.3,3.2-2,4.8l33.9-33.9Z"/>
    <path class="cls-1" d="M89.3,28.7c1.7-.4,3.4-.7,5.1-.9L121,1.1c-1.2-.2-2.5-.3-3.8-.5l-28,28Z"/>
    <path class="cls-1" d="M97.8,183.7c-1.3-.1-2.5-.3-3.8-.5l-22.3,22.3c1.1.4,2.1.7,3.2,1l22.9-22.9Z"/>
    <path class="cls-1" d="M108.8,184c-1.1,0-2.2,0-3.2,0s-.7,0-1,0l-24,24c1.1.3,2.3.5,3.5.8l24.8-24.9Z"/>
    <path class="cls-1" d="M88,182.1c-1.1-.3-2.3-.5-3.4-.9l-21.1,21.1c1,.4,2,.8,3,1.3l21.5-21.5Z"/>
    <path class="cls-1" d="M121.8,182.3c-1.7.4-3.4.7-5.1.9l-26.7,26.7c1.2.2,2.5.3,3.8.5l28-28.1Z"/>
    <path class="cls-1" d="M72.1,176.6c-1.6-.7-3.1-1.5-4.7-2.4l-19.7,19.7c1.4.9,2.9,1.8,4.4,2.7l20-20Z"/>
    <path class="cls-1" d="M80.2,179.9c-1.7-.6-3.5-1.2-5.1-1.9l-20.2,20.2c1.5.8,3.1,1.6,4.7,2.4l20.7-20.7Z"/>
    <path class="cls-1" d="M203.1,145.8c.6-1.5,1.2-3.1,1.8-4.6l-63.6,63.6c1.6-.6,3.1-1.2,4.6-1.8l57.2-57.3Z"/>
    <path class="cls-1" d="M180.6,179.6c4.7-4.7,8.9-9.9,12.6-15.4l-29,29c5.5-3.7,10.7-7.9,15.4-12.6l1-1Z"/>
    <path class="cls-1" d="M72.1,34.5c2.3-1.1,4.7-2.1,7.2-3L110.7.1c-1.4,0-2.7-.1-4.1-.1l-34.4,34.5Z"/>
    <path class="cls-1" d="M137.7,177.1c-1.6.7-3.2,1.4-4.8,2l-31.8,31.8c.9,0,1.8,0,2.7,0l33.9-33.9Z"/>
    <path class="cls-1" d="M210.6,115.6c0-1,.2-2,.2-3.1l-98.3,98.3c1,0,2.1-.1,3.1-.2l94.9-95Z"/>
    <path class="cls-1" d="M208.4,129.1c.3-1.2.5-2.4.7-3.6l-83.6,83.6c1.2-.2,2.4-.5,3.6-.7l79.2-79.3Z"/>
    <path class="cls-1" d="M27.9,117.1c-.2-1.2-.3-2.5-.5-3.8l-22.9,22.9c.3,1.1.7,2.2,1,3.2l22.3-22.3Z"/>
    <path class="cls-1" d="M30.2,127.6c-.5-1.9-1-3.7-1.4-5.6l-21.7,21.7c.7,1.7,1.3,3.4,2.1,5l21-21Z"/>
    <path class="cls-1" d="M27,106.6c0-.4,0-.7,0-1.1,0-1.1,0-2.2,0-3.2L2.2,127.2c.2,1.2.5,2.3.8,3.5l24-24Z"/>
    <path class="cls-1" d="M31.5,79.4c.9-2.5,1.9-4.9,3-7.2L0,106.6c0,1.4,0,2.8.1,4.1l31.4-31.4Z"/>
    <path class="cls-1" d="M27.8,94.4c.2-1.7.5-3.4.9-5.1L.7,117.4c.1,1.3.3,2.5.5,3.8l26.6-26.7Z"/>
    <path class="cls-1" d="M58,168c-1.3-1-2.6-2.1-3.9-3.2l-19.2,19.2c1.2,1.1,2.5,2.2,3.8,3.3l19.2-19.3Z"/>
    <path class="cls-1" d="M64.8,172.6c-1.5-.9-2.9-1.8-4.3-2.8l-19.3,19.3c1.3,1,2.7,2,4.1,3l19.5-19.5Z"/>
    <path class="cls-1" d="M46.3,157c-1.1-1.3-2.2-2.6-3.2-3.9l-19.2,19.3c1.1,1.3,2.1,2.6,3.3,3.8l19.2-19.2Z"/>
    <path class="cls-1" d="M41.3,150.6c-1-1.4-1.9-2.8-2.8-4.3l-19.5,19.5c1,1.4,2,2.7,3,4.1l19.3-19.3Z"/>
    <path class="cls-1" d="M33.2,136c-.7-1.7-1.3-3.4-1.9-5.1l-20.7,20.7c.8,1.6,1.6,3.1,2.4,4.7l20.2-20.2Z"/>
    <path class="cls-1" d="M36.9,143.6c-.9-1.5-1.7-3.1-2.4-4.7l-20,20c.9,1.5,1.8,2.9,2.7,4.4l19.7-19.7Z"/>
  </g>
</svg>