<svg id="a988d261-bbff-4547-a1ff-f082b59bf966" data-name="Layer 1" xmlns="http://www.w3.org/2000/svg" xmlns:xlink="http://www.w3.org/1999/xlink" viewBox="0 0 593.88 195.58"><defs><style>.a5025422-746c-4083-9f25-ad20c75df333{fill:#2ecc71;}.ed1e7ff2-2a3d-49f4-9aa9-c390d5e752af{fill:url(#a433e60e-c207-44a7-83ad-d3d53b9f8a17);}.fa754b50-0f32-4ceb-80e4-2a217bda347e{fill:#e0e2e4;}.bb385e15-87d2-4d07-af90-4da9f0b5b7dd{fill:url(#b71b0a32-c9cb-46af-8105-ce49411252db);}.e39376ca-5aa2-404d-ada0-9e9b9b50d39f{fill:#f8333c;}</style><linearGradient id="a433e60e-c207-44a7-83ad-d3d53b9f8a17" x1="-685.28" y1="923" x2="-552.25" y2="923" gradientTransform="translate(-647.1 -803.18) rotate(-72.06)" gradientUnits="userSpaceOnUse"><stop offset="0" stop-color="#d5d3da"/><stop offset="0.5" stop-color="#f5f7f8"/><stop offset="1" stop-color="#d5d3da"/></linearGradient><radialGradient id="b71b0a32-c9cb-46af-8105-ce49411252db" cx="168.85" cy="1546.51" r="86.29" gradientTransform="matrix(-0.25, 0.97, 0.28, 0.07, -358.44, -216.23)" gradientUnits="userSpaceOnUse"><stop offset="0" stop-color="#f8333c"/><stop offset="0.78" stop-color="#d0052b"/></radialGradient></defs><g id="b4ed2aeb-9418-488e-b093-bc5170dec759" data-name="wordmark"><path id="e34b2658-4b46-4500-9417-a93d5716fb4b" data-name="direct" d="M126.3,27.9a50.94,50.94,0,0,0-18.1-12.3c-7.2-3-15.6-4.5-25.1-4.5H39V125.9H83.2a66.77,66.77,0,0,0,23.8-4.1,54,54,0,0,0,18.3-11.6A50.5,50.5,0,0,0,137,92.1a65.82,65.82,0,0,0,4.1-23.7,64.66,64.66,0,0,0-3.7-22.2A50,50,0,0,0,126.3,27.9Zm-19,52.3a27,27,0,0,1-5,9.5A22.28,22.28,0,0,1,94.1,96a25.75,25.75,0,0,1-11,2.3H70.5V38.5H83.1a25.13,25.13,0,0,1,10.8,2.2,22.61,22.61,0,0,1,8.2,6.1,27.39,27.39,0,0,1,5.1,9.4A38.87,38.87,0,0,1,109,68.3,37.63,37.63,0,0,1,107.3,80.2ZM151.5,11H183V125.8H151.5ZM281.6,69.5A41.18,41.18,0,0,0,286,50.8a39.06,39.06,0,0,0-2.9-14.5,43.23,43.23,0,0,0-8-12.8,42.78,42.78,0,0,0-12.2-9.1,33.61,33.61,0,0,0-15.5-3.5H194.7V125.7h31.5V90.6H238l20.2,35.3h35.6L269.5,83.7A38.77,38.77,0,0,0,281.6,69.5Zm-30.2-9.6c-1.7,2.1-3.5,3.2-5.4,3.2H226.1V38.5h19.1c1.9,0,3.9,1.1,5.8,3.2s2.9,5.2,2.9,9.1S253.1,57.7,251.4,59.9ZM337,98.4h50.3v27.5H305.5V11h80.4V38.5H337V54.7h41.7V80.2H337ZM475.1,84.8l25.7,15.4a31.9,31.9,0,0,1-7.8,11.3,51.61,51.61,0,0,1-12,8.4,63.32,63.32,0,0,1-14.4,5.2,65.36,65.36,0,0,1-15,1.8,53.47,53.47,0,0,1-23.4-5.1,58.83,58.83,0,0,1-18.3-13.5A62,62,0,0,1,398,89.2a58.56,58.56,0,0,1-4.2-21.7,55.6,55.6,0,0,1,4-20.7,55.23,55.23,0,0,1,11.6-18.3,57.45,57.45,0,0,1,43.1-18.1c11.1,0,20.7,2.3,28.9,6.9s14.2,10.6,18.2,18.2L475.5,52.6a19.79,19.79,0,0,0-4.3-6.9,24.52,24.52,0,0,0-5.9-4.4,28,28,0,0,0-6.7-2.3,31.15,31.15,0,0,0-6.7-.7A23.61,23.61,0,0,0,432.1,48a30.14,30.14,0,0,0-4.7,9.7,40.19,40.19,0,0,0-1.5,10.8A36.89,36.89,0,0,0,427.7,80a29.2,29.2,0,0,0,5.2,9.7,25.83,25.83,0,0,0,8.3,6.7,23.85,23.85,0,0,0,11.1,2.5,29.62,29.62,0,0,0,6.6-.7,25.43,25.43,0,0,0,6.5-2.4,20.35,20.35,0,0,0,9.7-11ZM599,11V38.5H566v87.3H534.5V38.5H501.3V11Z" transform="translate(-5.12 -1.82)"/><path id="ab38279c-8ee6-4a76-8f08-594f49112a2d" data-name="wristbands" class="a5025422-746c-4083-9f25-ad20c75df333" d="M114.6,135.3H133l-24.1,61.5h-14l-8.8-22-8.7,22h-14L39.3,135.3H57.6l13.3,42.2,4.2-12.8-10-29.4H80.6l5.4,19,5.5-19H107L96.9,164.7l4.4,12.8Zm60.9,38.9,13,22.6h-19l-10.8-18.9h-6.3v18.9H135.5V135.3h28.2a17.78,17.78,0,0,1,8.3,1.9,22.41,22.41,0,0,1,6.5,4.8,23.82,23.82,0,0,1,4.3,6.8,21.33,21.33,0,0,1,1.6,7.8,22.59,22.59,0,0,1-2.3,10A20.27,20.27,0,0,1,175.5,174.2Zm-8.3-17.6a6.74,6.74,0,0,0-1.6-4.9,4.45,4.45,0,0,0-3.1-1.7H152.3v13.2H163a3.92,3.92,0,0,0,2.9-1.7A7.92,7.92,0,0,0,167.2,156.6Zm25,40.2H209V135.3H192.1v61.5Zm66.6-31.3a25.88,25.88,0,0,0-5.9-3.7,73.86,73.86,0,0,0-7.7-2.9q-2.7-.9-4.8-1.5a21.19,21.19,0,0,1-3.6-1.3,6.42,6.42,0,0,1-2.2-1.4,2.79,2.79,0,0,1-.8-2,2.27,2.27,0,0,1,1.3-2.3,7.45,7.45,0,0,1,3.6-.7,19.85,19.85,0,0,1,5.7.9,43.62,43.62,0,0,1,5.2,2,39.54,39.54,0,0,1,5.4,2.8l7.3-13.9c-1.4-.7-2.9-1.4-4.7-2.2a59.49,59.49,0,0,0-5.6-2.2,40.2,40.2,0,0,0-6.2-1.6,35.12,35.12,0,0,0-6.6-.7,30.48,30.48,0,0,0-8.7,1.3,22.24,22.24,0,0,0-7.3,3.9,19.42,19.42,0,0,0-5.1,6.5,21.27,21.27,0,0,0-1.9,9,18.46,18.46,0,0,0,.9,6,12.15,12.15,0,0,0,2.8,4.6,17.76,17.76,0,0,0,4.8,3.6,42,42,0,0,0,7,3c1.8.6,3.6,1.2,5.2,1.6s3.1.9,4.4,1.4a10.35,10.35,0,0,1,3,1.6,2.79,2.79,0,0,1,1.1,2.2,2.43,2.43,0,0,1-1.1,2,7.07,7.07,0,0,1-3.8.7,24.37,24.37,0,0,1-7.1-1,64.82,64.82,0,0,1-6.3-2.3,47.65,47.65,0,0,1-6.3-3.4l-7.3,14.8a33.39,33.39,0,0,0,6,2.9,49.13,49.13,0,0,0,6.8,2.2c2.3.6,4.7,1.1,7.1,1.5a56,56,0,0,0,6.9.5,34.45,34.45,0,0,0,8.4-1,25.35,25.35,0,0,0,7.5-3.2,17.42,17.42,0,0,0,5.4-6,20,20,0,0,0,2-9.3,18.48,18.48,0,0,0-1.3-7.4A10.67,10.67,0,0,0,258.8,165.5Zm6.4-15.4H283v46.8h16.9V150.1h17.7V135.4H265.3v14.7Zm109,31a14.34,14.34,0,0,1-1.7,7.1,14.05,14.05,0,0,1-4.8,4.9,21.52,21.52,0,0,1-7.1,2.8,38.86,38.86,0,0,1-8.5.9H321.9V135.3h35.7a12.43,12.43,0,0,1,5.8,1.4,13.94,13.94,0,0,1,4.4,3.6,15.36,15.36,0,0,1,2.8,5,16.47,16.47,0,0,1,1,5.8,16.65,16.65,0,0,1-2.2,8.3,14.09,14.09,0,0,1-6.6,5.9,16.19,16.19,0,0,1,8.4,5.4C373.2,173.3,374.2,176.7,374.2,181.1Zm-35.4-21.9h11.5a6,6,0,0,0,3.2-.9c1-.6,1.4-1.9,1.4-3.8a4.59,4.59,0,0,0-1.2-3.6,4.36,4.36,0,0,0-2.9-1.1h-12ZM357,177.6a6,6,0,0,0-1.2-3.8,3.75,3.75,0,0,0-3.1-1.5H338.8v10.3h13.3a4.91,4.91,0,0,0,3.5-1.3A4.62,4.62,0,0,0,357,177.6Zm52.8-42.3,21.3,61.5H413.9l-3.7-12H393.8l-3.6,12H373l21.4-61.5Zm-2.3,38.2-5.5-19-5.7,19Zm64.8-6.9-24.7-31.3H434.4v61.5h16.9V166.6l24.4,30.2h13.4V135.3H472.2v31.3Zm74-12.5a35.81,35.81,0,0,1,2,11.9,34.2,34.2,0,0,1-2.2,12.7,28.07,28.07,0,0,1-6.3,9.7,26.89,26.89,0,0,1-9.8,6.2,34.2,34.2,0,0,1-12.7,2.2H493.7V135.3h23.6a34.48,34.48,0,0,1,13.4,2.4,26.93,26.93,0,0,1,9.7,6.6A27.94,27.94,0,0,1,546.3,154.1ZM531.2,166a19.27,19.27,0,0,0-1-6.5,13.38,13.38,0,0,0-2.7-5,10.91,10.91,0,0,0-4.4-3.2,13.68,13.68,0,0,0-5.8-1.2h-6.8v32h6.8a13.82,13.82,0,0,0,5.9-1.2,12.15,12.15,0,0,0,4.4-3.4,14.66,14.66,0,0,0,2.7-5.1A22,22,0,0,0,531.2,166Zm66.1,4.7a15.94,15.94,0,0,0-3.7-5.2,27.48,27.48,0,0,0-5.8-3.7,73.86,73.86,0,0,0-7.7-2.9q-2.7-.9-4.8-1.5a21.19,21.19,0,0,1-3.6-1.3,8.37,8.37,0,0,1-2.2-1.4,2.79,2.79,0,0,1-.8-2,2.27,2.27,0,0,1,1.3-2.3,7.45,7.45,0,0,1,3.6-.7,19.85,19.85,0,0,1,5.7.9,43.62,43.62,0,0,1,5.2,2,46.35,46.35,0,0,1,5.4,2.8l7.3-13.9c-1.4-.7-3-1.4-4.7-2.2a59.49,59.49,0,0,0-5.6-2.2,40.2,40.2,0,0,0-6.2-1.6,35.12,35.12,0,0,0-6.6-.7,30.48,30.48,0,0,0-8.7,1.3,22.24,22.24,0,0,0-7.3,3.9,19.42,19.42,0,0,0-5.1,6.5,21.27,21.27,0,0,0-1.9,9,18.46,18.46,0,0,0,.9,6,12.15,12.15,0,0,0,2.8,4.6,17.76,17.76,0,0,0,4.8,3.6,47.35,47.35,0,0,0,7,3c1.8.6,3.6,1.2,5.2,1.6s3.1.9,4.4,1.4a10.35,10.35,0,0,1,3,1.6,2.79,2.79,0,0,1,1.1,2.2,2.43,2.43,0,0,1-1.1,2,7.07,7.07,0,0,1-3.8.7,24.37,24.37,0,0,1-7.1-1,64.82,64.82,0,0,1-6.3-2.3,47.65,47.65,0,0,1-6.3-3.4l-7.3,14.8a41.52,41.52,0,0,0,6,2.9,49.13,49.13,0,0,0,6.8,2.2c2.4.6,4.7,1.1,7.1,1.5a56,56,0,0,0,6.9.5,34.45,34.45,0,0,0,8.4-1,25.35,25.35,0,0,0,7.5-3.2,16.56,16.56,0,0,0,5.4-6,18.83,18.83,0,0,0,2-9.3A17.54,17.54,0,0,0,597.3,170.7Z" transform="translate(-5.12 -1.82)"/></g><g id="f9db426c-b508-4ce3-84a5-455555759843" data-name="wristband"><path class="ed1e7ff2-2a3d-49f4-9aa9-c390d5e752af" d="M45.3,31.5a283.87,283.87,0,0,1-7,37.6,285.15,285.15,0,0,1-11.7,36.4c-6.4,15.7-12.8,25.4-17.1,24.3L30.1,135c7,1.8,19.8-25.4,28.7-60.7S69.3,8.9,62.4,7.1L41.8,2C46,3,47.1,14.6,45.3,31.5Z" transform="translate(-5.12 -1.82)"/><path class="fa754b50-0f32-4ceb-80e4-2a217bda347e" d="M38.5,69.1c-8.9,35.3-21.8,62.5-28.9,60.7S4,97.9,12.9,62.6,34.7.1,41.8,1.9,47.4,33.8,38.5,69.1ZM13.4,62.7c-8.6,34-10,63-3.2,64.8S29.5,102.9,38,68.9s10-63,3.2-64.8C34.4,2.5,21.9,28.7,13.4,62.7Z" transform="translate(-5.12 -1.82)"/><path class="bb385e15-87d2-4d07-af90-4da9f0b5b7dd" d="M39,11h5.1c-.7-2.9-1.8-4.7-3.3-5.1-6.6-1.7-18.7,23.8-27,56.8s-9.7,61.2-3.1,62.9c4.1,1,10.4-8.5,16.6-23.9a298.84,298.84,0,0,1,6.6-33.9c1.6-6.5,3.4-12.7,5.3-18.6V11Z" transform="translate(-5.12 -1.82)"/><path class="e39376ca-5aa2-404d-ada0-9e9b9b50d39f" d="M38.1,69c-8.6,34.2-21.2,60.7-28.1,59S4.6,97,13.2,62.8,34.5,2,41.3,3.8,46.7,34.7,38.1,69ZM13.7,62.8C5.4,95.8,4,124,10.6,125.7s18.7-23.8,27-56.8S47.4,7.7,40.8,6,22,29.8,13.7,62.8Z" transform="translate(-5.12 -1.82)"/></g></svg>