<?xml version="1.0" encoding="UTF-8"?>
<svg id="uuid-0811c901-55ce-4f3d-a0d1-1cb1d442147e" data-name="Layer 1" xmlns="http://www.w3.org/2000/svg" viewBox="0 0 250.84 251.78">
  <defs>
    <style>
      .uuid-4c019fea-e5ab-4579-a3f7-9ce2054ccb48 {
        fill: #007fbf;
      }

      .uuid-eff5d50d-a36f-40d8-8f7c-0a221e8cea8a {
        fill: #6cd24a;
      }

      .uuid-38d584ae-cbf2-4e09-b397-cf04bcdae320 {
        fill: #e10b7f;
      }

      .uuid-b711864e-c6f9-4761-b835-4f67e6ccf4a4 {
        fill: #ffc012;
      }
    </style>
  </defs>
  <path class="uuid-38d584ae-cbf2-4e09-b397-cf04bcdae320" d="M104.72,0H17.8C8.06,0,0,8.06,0,17.8v87.3c0,9.93,7.87,17.8,17.8,17.8h86.92c9.74,0,17.8-8.06,17.8-17.8V17.8C122.52,8.06,114.65,0,104.72,0"/>
  <path class="uuid-4c019fea-e5ab-4579-a3f7-9ce2054ccb48" d="M233.04,0h-86.92c-9.74,0-17.8,8.05-17.8,17.8v87.3c0,9.93,7.87,17.8,17.8,17.8h86.92c9.74,0,17.8-8.06,17.8-17.8V17.8c0-9.74-8.05-17.8-17.8-17.8"/>
  <path class="uuid-eff5d50d-a36f-40d8-8f7c-0a221e8cea8a" d="M233.04,128.89h-86.92c-9.74,0-17.8,8.06-17.8,17.8v87.3c0,9.93,7.87,17.8,17.8,17.8h86.92c9.74,0,17.8-8.05,17.8-17.8v-87.3c0-9.93-8.06-17.8-17.8-17.8"/>
  <path class="uuid-b711864e-c6f9-4761-b835-4f67e6ccf4a4" d="M104.72,128.89H17.8c-9.74,0-17.8,8.06-17.8,17.8v87.3c0,9.93,7.87,17.8,17.8,17.8h86.92c9.74,0,17.8-8.06,17.8-17.8v-87.3c0-9.93-8.06-17.8-17.8-17.8"/>
</svg>