<?xml version="1.0" encoding="UTF-8"?>
<svg id="uuid-db2a018a-f21e-4425-824a-c1737d7de488" data-name="Layer 1" xmlns="http://www.w3.org/2000/svg" viewBox="0 0 250.84 251.78">
  <defs>
    <style>
      .uuid-4cbacf5b-d7e3-4277-93fe-e25039fe9bdb {
        fill: #007fbf;
      }

      .uuid-422bde55-55ae-425c-923a-785ea1fae38d {
        fill: #fff;
      }

      .uuid-a97a0698-6cb3-445d-99d2-2203f98e7877 {
        fill: #6cd24a;
      }

      .uuid-cab84832-19e1-4612-be18-8d91ff6857be {
        fill: #e10b7f;
      }

      .uuid-638985b7-6f96-46fb-83a4-4c1a125d2803 {
        fill: #ffc012;
      }
    </style>
  </defs>
  <g id="uuid-5d4506f0-64f1-49fe-b804-2dc0ea3955a3" data-name="tjm-logo-mark">
    <path class="uuid-cab84832-19e1-4612-be18-8d91ff6857be" d="M104.72,0H17.8C8.06,0,0,8.06,0,17.8v87.3c0,9.93,7.87,17.8,17.8,17.8h86.92c9.74,0,17.8-8.06,17.8-17.8V17.8C122.52,8.06,114.65,0,104.72,0"/>
    <path class="uuid-422bde55-55ae-425c-923a-785ea1fae38d" d="M59.39,77.74c-.56,2.62-3.93,10.12-21.73,10.12-20.42,0-24.54-13.3-24.54-13.3l23.79-8.62.37.19c-.19.38,7.31,6.56,22.11,11.62M37.65,65.01c1.12-4.68,8.62-27.35,37.47-28.29,2.81.37,4.68.94,5.43,1.31-15.36,10.86-20.79,33.72-21.73,38.03-13.86-4.87-20.79-10.68-20.79-10.86l-.38-.19ZM108.65,82.8h0c-2.25,0-4.5.19-6.56.19-17.61,0-31.66-3-41.96-6.56.75-3.75,6.37-28.66,23.42-38.78l.38-.19c-.75-.19-1.31-.38-2.06-.38-1.12-.19-2.43-.37-2.43-.37.19-1.12,1.69-1.69,3.37-1.5,1.69.38,2.81,1.5,2.62,2.62,16.49,5.06,27.35,24.92,23.23,44.96"/>
    <path class="uuid-4cbacf5b-d7e3-4277-93fe-e25039fe9bdb" d="M233.04,0h-86.92c-9.74,0-17.8,8.05-17.8,17.8v87.3c0,9.93,7.87,17.8,17.8,17.8h86.92c9.74,0,17.8-8.06,17.8-17.8V17.8c0-9.74-8.05-17.8-17.8-17.8"/>
    <path class="uuid-422bde55-55ae-425c-923a-785ea1fae38d" d="M178.16,29.22c3.37,1.69,7.31,2.62,11.43,2.81,4.12,0,8.06-.94,11.43-2.81-2.25,4.12-6.37,6.93-11.43,6.93s-9.37-2.81-11.43-6.93M231.36,40.46l-26.42-14.05-2.81-1.5c-3.18,2.44-7.68,4.12-12.74,4.12s-9.37-1.69-12.55-4.12l-.19-.19-2.81,1.5-26.23,14.05,10.49,19.86,7.87-4.12v38.78h47.21v-38.78l7.87,4.12,10.3-19.67Z"/>
    <path class="uuid-a97a0698-6cb3-445d-99d2-2203f98e7877" d="M233.04,128.89h-86.92c-9.74,0-17.8,8.06-17.8,17.8v87.3c0,9.93,7.87,17.8,17.8,17.8h86.92c9.74,0,17.8-8.05,17.8-17.8v-87.3c0-9.93-8.06-17.8-17.8-17.8"/>
    <path class="uuid-422bde55-55ae-425c-923a-785ea1fae38d" d="M227.05,201.39c-3.56,3.56-8.62,5.81-14.24,5.81h-1.5l-1.31,12.55c0,1.87-5.43,11.24-21.73,11.24s-21.73-8.99-21.73-11.24l-7.68-61.07c0-5.06,13.11-9.18,29.41-9.18s29.41,4.12,29.41,9.18l-1.12,8.62c4.12.75,7.68,2.81,10.49,5.62,3.56,3.56,5.81,8.61,5.81,14.23.18,5.62-2.06,10.68-5.81,14.24M215.62,174.22l-3.37,26.41h.56c3.75,0,6.93-1.5,9.37-3.93,2.43-2.43,3.93-5.81,3.93-9.37,0-3.75-1.5-6.93-3.93-9.37-1.69-2.06-3.93-3.19-6.56-3.75M213.56,158.11c0-3.56-11.43-6.56-25.48-6.56s-25.48,3-25.48,6.56,11.43,6.56,25.48,6.56,25.48-3,25.48-6.56"/>
    <path class="uuid-638985b7-6f96-46fb-83a4-4c1a125d2803" d="M104.72,128.89H17.8c-9.74,0-17.8,8.06-17.8,17.8v87.3c0,9.93,7.87,17.8,17.8,17.8h86.92c9.74,0,17.8-8.06,17.8-17.8v-87.3c0-9.93-8.06-17.8-17.8-17.8"/>
    <path class="uuid-422bde55-55ae-425c-923a-785ea1fae38d" d="M43.84,173.85c2.25-2.25,4.5-1.12,6.56-1.69,5.43-9.37,8.24-22.11,23.42-17.98.38.19.75.19,1.12.37-.56.75-1.87,2.25-3.75,4.12-8.99,1.12-12.18,7.68-15.17,14.99-.94,2.06-2.06,4.12-3.37,6-1.69,2.25-4.31,3.37-6.93,2.25-3.56-1.31-3.93-5.81-1.87-8.06M77.74,189.96c-8.99,8.99-18.55,20.04-23.23,24.73-9.37,9.55-31.66,14.42-31.66,14.42,0,0,5.06-22.29,14.43-31.85,4.68-4.68,15.55-14.24,24.73-23.42,8.99-8.99,16.11-17.61,16.11-17.61,0,0,4.12,2.25,9.55,7.68,5.62,5.62,7.68,9.55,7.68,9.55,0,0-8.62,7.31-17.61,16.49M98.35,164.48c-1.12,1.12-1.87,2.62-2.62,3.56-1.31-1.69-3.18-3.93-5.62-6.37-2.62-2.62-5.06-4.68-6.74-6,.75-.75,2.25-1.5,3.56-2.81,2.44-2.44,6.93-1.87,10.12,1.31,3.18,3.37,3.75,7.87,1.31,10.3"/>
  </g>
</svg>