<svg id="bcd8bb7f-15fa-45bf-a681-2a6a9ce3164c" data-name="Layer 1" xmlns="http://www.w3.org/2000/svg" viewBox="0 0 1024.3 227.78"><defs><style>.a1c1b52c-1899-4cc4-98a1-3eaac39998a3{fill:#586477;}.f5a55b50-4cb2-4e21-a233-e6b026be8382{fill:#fff;}.a14e668a-5c1a-49e6-9ba5-c56784b2094a{fill:#bcc1c9;}</style></defs><path id="a7cce4af-5c98-490d-b060-4dfc559f05c5" data-name="dogtags" class="a1c1b52c-1899-4cc4-98a1-3eaac39998a3" d="M74,38.8a4.35,4.35,0,0,0-.8-1.5A3.16,3.16,0,0,1,75.4,36l.6-4.6a3.72,3.72,0,0,1,.9-7l.6-4.6a3.72,3.72,0,0,1,.9-7L79,8.2a3.67,3.67,0,0,1-2.1-3.4,3.69,3.69,0,0,1,3.7-3.7A3.42,3.42,0,0,1,84,4.7a3.65,3.65,0,0,1-3,3.6L80.5,13a3.72,3.72,0,0,1-.9,7L79,24.6a3.72,3.72,0,0,1-.9,7l-.6,4.6a3.67,3.67,0,0,1,2.1,3.4V40A46.07,46.07,0,0,0,74,38.8ZM127.1,69S116.4,49.2,90.3,43.2c2.3,1,4.6,2,6.8,3.2A61,61,0,0,1,113,59a55.43,55.43,0,0,1,10.8,16.9l.2.6-.1.7L107.3,205.5l-.1.6-.3.5c-.1.3-3.7,6.2-11.4,12.2a56.19,56.19,0,0,1-20.7,10,48.64,48.64,0,0,0,5.4,0c39.2-1.2,50.7-30.6,50.7-30.6ZM104.5,205.3,121.1,77s-10.2-29.3-47-35.3a5.89,5.89,0,0,1-2.3,3.5l.2,2a5.65,5.65,0,0,1,3.2,5,4.48,4.48,0,0,1-.4,2A6.1,6.1,0,0,1,76,55.8a6.63,6.63,0,0,1,1.5,4.3,7,7,0,1,1-14,0,7.06,7.06,0,0,1,1.6-4.5,6.1,6.1,0,0,1-1.2-3.4,5.47,5.47,0,0,1,2.4-4.6l-.2-2a5.68,5.68,0,0,1-3.2-4.9H62c-32.1,0-45.5,22.8-45.5,22.8L0,191.8s10.7,30.7,49.6,35.7a77.83,77.83,0,0,0,9.4.6C91.1,228.1,104.5,205.3,104.5,205.3ZM64.8,9.7l.3,3.8a4.16,4.16,0,0,0-2.5,3.8,4.08,4.08,0,0,0,3.1,4l.3,3.8a4.16,4.16,0,0,0-2.5,3.8,4.08,4.08,0,0,0,3.1,4l.3,3.8a4.16,4.16,0,0,0-2.5,3.8,4.08,4.08,0,0,0,3.1,4l.3,3.8a4.16,4.16,0,0,0-2.5,3.8,4.46,4.46,0,0,0,2.1,3.7,4.07,4.07,0,0,0-.8,2.4,4.2,4.2,0,1,0,8.4,0,4.46,4.46,0,0,0-2.1-3.7,4.09,4.09,0,0,0-2.3-6.4l-.3-3.8a4.16,4.16,0,0,0,2.5-3.8,4.08,4.08,0,0,0-3.1-4l-.3-3.8a4.16,4.16,0,0,0,2.5-3.8,4.08,4.08,0,0,0-3.1-4l-.3-3.8A4.16,4.16,0,0,0,71,17.3a4.08,4.08,0,0,0-3.1-4l-.3-3.8A4.39,4.39,0,0,0,70,5.6a4.2,4.2,0,0,0-8.4,0A4.41,4.41,0,0,0,64.8,9.7Z" transform="translate(0 -1.1)"/><g id="e9281a5a-593e-40b2-a992-1cdf701b77b9" data-name="wordmark"><path id="b4fa26d1-bc17-4412-b7c1-9cbab7d22fbb" data-name="black" class="f5a55b50-4cb2-4e21-a233-e6b026be8382" d="M192,56.6H147.8V161.2h45.8c17.6,0,30.2-4.5,37.8-13.4s11.4-22.3,11.4-40.1-4-30.8-11.9-39C223,60.7,210,56.6,192,56.6Zm10.5,71c-2.6,2.7-6.6,4.1-12,4.1H184V86.1h6.4c6.7,0,11,1.6,12.9,4.7s2.9,9.4,2.9,18.7S205,124.9,202.5,127.6Zm95.1-73c-17.4,0-30,4.3-37.9,12.9s-11.9,22.4-11.9,41.4,4,32.8,11.9,41.5,20.6,13,37.9,13,30-4.3,37.9-12.9,11.9-22.4,11.9-41.5-4-32.9-11.9-41.5S314.9,54.6,297.6,54.6Zm10.7,73.5c-1.7,3.9-5.2,5.8-10.7,5.8s-9.1-2-10.8-5.9-2.6-10.3-2.6-19.1.9-15.2,2.6-19.1,5.3-5.9,10.9-5.9,9.1,1.9,10.7,5.7,2.4,10.2,2.4,19.2S310,124.3,308.3,128.1Zm95.4-28.4h38.6v58.4c-18.8,3-32.8,4.5-41.8,4.5s-16.8-1-23.2-3a30,30,0,0,1-15.1-10.1,41.51,41.51,0,0,1-7.6-16.6c-1.4-6.3-2.1-14.4-2.1-24.2,0-20.1,3.7-34.1,11.2-42.2s20.1-12,37.9-12a135.89,135.89,0,0,1,18,1.3c6.7.9,12,1.7,15.9,2.6l5.9,1.4V87.1c-15-1.4-25.6-2-31.9-2s-10.4.3-12.3.9a16.63,16.63,0,0,0-4.6,2,7.43,7.43,0,0,0-2.5,4.6c-.7,3.2-1.1,8.9-1.1,17s.9,14,2.8,17.7,5.7,5.5,11.4,5.5l5.3-.2V125h-4.7ZM526.6,74.1H498.5v87.1H477V74.1H448.6V55h78.1V74.1ZM549.4,55,525.5,161.2H547l4.2-19.2h37.2l4.2,19.2h21.5L590.3,55Zm6,68.3,10.8-50.4h7.5l10.8,50.4Zm91.4-37.9c-1.5,5.1-2.3,13.7-2.3,25.9S646,132.1,649,137s9.3,7.3,18.7,7.3l13-.6V123.1H671V104.4h31v55.1c-14.9,2.4-27,3.6-36.2,3.6-16.6,0-27.9-4.4-34.1-13.3s-9.3-22.9-9.3-42.2,3.2-33.2,9.7-41.7S649.5,53.1,665,53.1a164.51,164.51,0,0,1,31.4,3.3l5.6,1.1-.6,16.7a282.3,282.3,0,0,0-30.7-2c-8,0-13.6.9-16.8,2.8S648.3,80.4,646.8,85.4Zm143.1,43.8c0,11.1-3.4,19.6-10.1,25.3s-15.6,8.6-26.5,8.6c-8.1,0-18.1-1.2-29.8-3.7l-5.6-1.1,2.2-16.7c13.9,1.9,24.6,2.8,32,2.8,11,0,16.6-4.6,16.6-13.7a9.31,9.31,0,0,0-3.8-7.8c-2.6-1.9-7.6-3.9-15.2-6.1q-18.15-5.1-25.5-12.3c-4.9-4.7-7.4-11.3-7.4-19.8,0-10.6,3.2-18.5,9.7-23.7s15.3-7.8,26.5-7.8c7.7,0,17.5,1,29.4,3.1l5.6,1.1-1.7,17c-14.7-1.7-25-2.5-31.1-2.5-11.3,0-17,3.7-17,11.2a8.67,8.67,0,0,0,4.2,7.7c2.8,1.8,9.4,4.3,19.8,7.7s17.6,7.1,21.8,11.3C787.8,114,789.9,120.5,789.9,129.2Z" transform="translate(0 -1.1)"/><path id="ed37cbd7-a2d2-43d7-9004-2b23089fe5dc" data-name="green" d="M808,54.3h17.3v107H808Zm107.1,91.6h-2.3L880.3,54.2H850v107h17.3V69.4h2.2l33.3,91.8h29.7V54.2H915.2v91.7Zm79.5,1.6q-14.1,0-18.9-8.4c-3.2-5.6-4.8-16-4.8-31.4s1.7-25.8,5-31.4,9.7-8.4,19.1-8.4a157,157,0,0,1,28.1,2.5l.6-14.1a135,135,0,0,0-30.6-3.9c-15.5,0-26.1,4.2-31.7,12.6S953,87.5,953,107.2s2.8,34,8.4,42.6,16.2,13,31.8,13a144.42,144.42,0,0,0,30.4-3.4l-.5-14.4A163.09,163.09,0,0,1,994.6,147.5Z" transform="translate(0 -1.1)"/></g><path id="b5e237e2-fa79-49b5-bd3c-711f22be56e6" data-name="tagline" class="a14e668a-5c1a-49e6-9ba5-c56784b2094a" d="M155.3,182.8c-.5,1.7-.7,4.6-.7,8.8s.5,7,1.4,8.6,2.9,2.4,5.8,2.4a59.68,59.68,0,0,0,9.2-.7l.2,5.9a47.53,47.53,0,0,1-10,1.2,19.57,19.57,0,0,1-7.1-1.1,8.5,8.5,0,0,1-4.2-3.5,16.08,16.08,0,0,1-2.1-5.7,46.67,46.67,0,0,1-.6-8.2c0-6.9,1-11.7,2.9-14.4s5.5-4.1,10.7-4.1a47.45,47.45,0,0,1,10.4,1.4l-.2,5.8a63.63,63.63,0,0,0-8.6-.8,9.88,9.88,0,0,0-4.9.9A5.76,5.76,0,0,0,155.3,182.8Zm36.3,18.9-.7.2a12.69,12.69,0,0,1-4.4.7c-1.6,0-2.6-.5-3-1.4a15.37,15.37,0,0,1-.6-5.3V182h-7v13.7c0,4.7.6,8.1,1.9,10.1s3.7,3,7.3,3a14.27,14.27,0,0,0,6.6-2.1v1.5h7V182h-7v19.7Zm25.4-9.4a28.74,28.74,0,0,1-5.2-1.2,1.38,1.38,0,0,1-1-1.4,1.65,1.65,0,0,1,.8-1.5,7.61,7.61,0,0,1,3.4-.5c1.8,0,4.8.3,9.1.8l.1-5.8-1.7-.3a46.21,46.21,0,0,0-8.4-1,11.92,11.92,0,0,0-7.3,2.1c-1.9,1.4-2.8,3.5-2.8,6.3s.7,4.7,2,5.8a12,12,0,0,0,6.1,2.3c2.7.5,4.4.8,5,1.2a1.64,1.64,0,0,1,1,1.5,1.55,1.55,0,0,1-.9,1.5,8.85,8.85,0,0,1-3.5.5c-1.7,0-4.7-.3-9-.8l-.2,5.9,1.7.3a48.21,48.21,0,0,0,8.4.9c7,0,10.5-2.8,10.5-8.5,0-2.6-.6-4.5-1.8-5.6A13.62,13.62,0,0,0,217,192.3Zm23.1,10.3a2.07,2.07,0,0,1-1.5-.5,2.38,2.38,0,0,1-.6-1.1,12.22,12.22,0,0,1-.1-2.2V188h6.5v-6h-6.5v-7.3h-7V182h-3.1v6h3.1v10.9c0,3.8.6,6.4,1.7,7.8s3.3,2.1,6.5,2.1a28.3,28.3,0,0,0,5.3-.8l-.3-5.6ZM268.9,185c1.9,2.4,2.8,5.8,2.8,10.1,0,9.2-4,13.8-12.1,13.8s-12.1-4.6-12.1-13.8c0-4.3.9-7.7,2.8-10.1s4.9-3.6,9.3-3.6S267.1,182.6,268.9,185Zm-4.3,10.1a12.59,12.59,0,0,0-1.1-5.9q-1-1.8-3.9-1.8a4.23,4.23,0,0,0-3.9,1.8,16.37,16.37,0,0,0,0,11.8c.7,1.3,2,1.9,3.9,1.9a4.09,4.09,0,0,0,3.9-1.9A12.31,12.31,0,0,0,264.6,195.1Zm40.8-13.7a18.79,18.79,0,0,0-8.8,2.5,8.66,8.66,0,0,0-6.6-2.5,13,13,0,0,0-6.2,2.1V182h-7v26.2h7V188.6l.6-.2a11.25,11.25,0,0,1,4-.7,2.93,2.93,0,0,1,3,1.6,14.53,14.53,0,0,1,.7,5.5v13.5h7V194.7c0-1.4-.1-3.4-.2-6l.8-.3a14,14,0,0,1,4.1-.7,2.79,2.79,0,0,1,2.9,1.6,12.62,12.62,0,0,1,.7,5v14h7V194.1c0-4.4-.7-7.6-2-9.6S308.8,181.4,305.4,181.4Zm54.1.6a41.14,41.14,0,0,1,.6,7.8,44.24,44.24,0,0,1-.6,8,15.76,15.76,0,0,1-2.2,5.7,8.72,8.72,0,0,1-4.6,3.6,21.51,21.51,0,0,1-7.8,1.1h-12V172.5h12a23.32,23.32,0,0,1,7.6,1,8.58,8.58,0,0,1,4.6,3.2A11.64,11.64,0,0,1,359.5,182Zm-6.8,7.5c0-2-.1-3.6-.2-4.7a9.07,9.07,0,0,0-1-3.3,3.78,3.78,0,0,0-2.3-2,11.68,11.68,0,0,0-4.2-.6h-4.8V202H345c2.6,0,4.5-.7,5.7-2,1-1.1,1.6-3,1.9-5.9C352.7,193,352.7,191.4,352.7,189.5Zm33.1-4.5c1.9,2.4,2.8,5.8,2.8,10.1,0,9.2-4,13.8-12.1,13.8s-12.1-4.6-12.1-13.8c0-4.3.9-7.7,2.8-10.1s4.9-3.6,9.3-3.6S384,182.6,385.8,185Zm-4.3,10.1a12.59,12.59,0,0,0-1.1-5.9q-1-1.8-3.9-1.8a4.23,4.23,0,0,0-3.9,1.8,16.37,16.37,0,0,0,0,11.8c.7,1.3,2,1.9,3.9,1.9a4.09,4.09,0,0,0,3.9-1.9A12.31,12.31,0,0,0,381.5,195.1ZM409,182.2l8.4-.3v5.6l-3.9-.3a6.45,6.45,0,0,1,1.2,3.6q0,5.25-2.7,7.2c-1.8,1.3-4.6,2-8.4,2a12.48,12.48,0,0,1-2.1-.2,8.17,8.17,0,0,0-.5,2.2,1.18,1.18,0,0,0,.9,1.2,21.8,21.8,0,0,0,4.2.4q6.6,0,9,1.8c1.6,1.1,2.4,3.2,2.4,6.2a7.2,7.2,0,0,1-3.5,6.6c-2.3,1.4-5.4,2.1-9.4,2.1s-7-.5-9.1-1.6-3.2-3-3.2-5.7c0-2.2,1.3-4.3,3.8-6.2a4.47,4.47,0,0,1-1.9-4,7.53,7.53,0,0,1,1.6-3.5l.5-.7c-2.4-1.7-3.6-4.2-3.6-7.6s1-5.8,3-7.3a13.09,13.09,0,0,1,8-2.3,23,23,0,0,1,4.5.5Zm-8.3,27.1a4.22,4.22,0,0,0-1.4,3c0,1.5,1.8,2.3,5.5,2.3s5.5-.9,5.5-2.6a1.81,1.81,0,0,0-.9-1.8,11.6,11.6,0,0,0-4-.4Zm7.1-18.5c0-2.6-1.3-3.9-4-3.9s-4,1.3-4,3.9,1.3,3.9,4,3.9S407.8,193.4,407.8,190.8Zm49.1-18.2H430.7V179h9.5v29.3h7.2V179h9.4v-6.4Zm22,31-.2,5.3a16.94,16.94,0,0,1-4.3-.4,7.74,7.74,0,0,1-3.2-1.5,17.72,17.72,0,0,1-7.7,1.8c-5.4,0-8.1-2.9-8.1-8.6,0-2.8.8-4.8,2.3-6s3.8-1.9,6.9-2.1l5.6-.4v-1.6a2.64,2.64,0,0,0-.7-2.2,3.84,3.84,0,0,0-2.4-.6l-9.9.4-.2-4.9a41.16,41.16,0,0,1,10.7-1.5c3.4,0,5.8.7,7.3,2.1s2.2,3.6,2.2,6.7V201a6,6,0,0,0,.4,1.8A1.57,1.57,0,0,0,478.9,203.6Zm-8.8-6.9-4.8.4c-2,.2-2.9,1.2-2.9,3.1s.9,2.9,2.6,2.9a18.48,18.48,0,0,0,4.4-.6l.8-.2v-5.6Zm29.1-14.5,8.4-.3v5.6l-3.9-.3a6.45,6.45,0,0,1,1.2,3.6q0,5.25-2.7,7.2c-1.8,1.3-4.6,2-8.4,2a15,15,0,0,1-2.2-.2,8.17,8.17,0,0,0-.5,2.2,1.18,1.18,0,0,0,.9,1.2,21.8,21.8,0,0,0,4.2.4q6.6,0,9,1.8c1.6,1.1,2.4,3.2,2.4,6.2a7.2,7.2,0,0,1-3.5,6.6c-2.3,1.4-5.4,2.1-9.4,2.1s-7-.5-9.1-1.6-3.2-3-3.2-5.7c0-2.2,1.3-4.3,3.8-6.2a4.47,4.47,0,0,1-1.9-4,7.53,7.53,0,0,1,1.6-3.5l.5-.7c-2.4-1.7-3.6-4.2-3.6-7.6s1-5.8,3-7.3a13.09,13.09,0,0,1,8-2.3,23,23,0,0,1,4.5.5Zm-8.3,27.1a4.22,4.22,0,0,0-1.4,3c0,1.5,1.8,2.3,5.5,2.3s5.5-.9,5.5-2.6a1.81,1.81,0,0,0-.9-1.8,11.6,11.6,0,0,0-4-.4Zm7-18.5c0-2.6-1.3-3.9-4-3.9s-4,1.3-4,3.9,1.3,3.9,4,3.9S497.9,193.4,497.9,190.8Zm25.8,1.5a28.74,28.74,0,0,1-5.2-1.2,1.38,1.38,0,0,1-1-1.4,1.65,1.65,0,0,1,.8-1.5,7.61,7.61,0,0,1,3.4-.5c1.8,0,4.8.3,9.1.8l.1-5.8-1.7-.3a46.21,46.21,0,0,0-8.4-1,11.92,11.92,0,0,0-7.3,2.1c-1.9,1.4-2.8,3.5-2.8,6.3s.7,4.7,2,5.8a12,12,0,0,0,6.1,2.3c2.7.5,4.4.8,5,1.2a1.64,1.64,0,0,1,1,1.5,1.55,1.55,0,0,1-.9,1.5,8.85,8.85,0,0,1-3.5.5c-1.7,0-4.7-.3-9-.8l-.2,5.9,1.7.3a48.21,48.21,0,0,0,8.4.9c7,0,10.5-2.8,10.5-8.5,0-2.6-.6-4.5-1.8-5.6A12.75,12.75,0,0,0,523.7,192.3ZM570,203.6l-.2,5.3a16.94,16.94,0,0,1-4.3-.4,7.74,7.74,0,0,1-3.2-1.5,17.72,17.72,0,0,1-7.7,1.8c-5.4,0-8.1-2.9-8.1-8.6,0-2.8.8-4.8,2.3-6s3.8-1.9,6.9-2.1l5.6-.4v-1.6a2.64,2.64,0,0,0-.7-2.2,3.84,3.84,0,0,0-2.4-.6l-9.9.4-.2-4.9a41.16,41.16,0,0,1,10.7-1.5c3.4,0,5.8.7,7.3,2.1s2.2,3.6,2.2,6.7V201a6,6,0,0,0,.4,1.8A1.57,1.57,0,0,0,570,203.6Zm-8.8-6.9-4.8.4c-2,.2-2.9,1.2-2.9,3.1s.9,2.9,2.6,2.9a18.48,18.48,0,0,0,4.4-.6l.8-.2v-5.6Zm27.3-15.3a13.31,13.31,0,0,0-6.6,2.1V182h-7v26.2h7V188.6l.6-.2a11.41,11.41,0,0,1,4.1-.7c1.6,0,2.6.5,3.1,1.6a12.31,12.31,0,0,1,.8,5v14h7V194.1c0-4.3-.7-7.5-2-9.5C594.4,182.4,592,181.4,588.5,181.4Zm30.7-9.8h7v36.7h-7v-1.1a14.54,14.54,0,0,1-6.3,1.7c-3.8,0-6.5-1.1-8-3.3s-2.3-5.7-2.3-10.5.9-8.3,2.7-10.4,4.5-3.3,8.2-3.3a35.91,35.91,0,0,1,4.7.5l1,.2V171.6Zm0,16.4a33.64,33.64,0,0,0-5.1-.5c-2.8,0-4.2,2.5-4.2,7.6,0,2.7.3,4.7.9,5.8a3.17,3.17,0,0,0,3.1,1.7,18.76,18.76,0,0,0,4.6-.6l.7-.2Zm52.2-6a41.14,41.14,0,0,1,.6,7.8,44.24,44.24,0,0,1-.6,8,15.76,15.76,0,0,1-2.2,5.7,8.72,8.72,0,0,1-4.6,3.6,21.51,21.51,0,0,1-7.8,1.1h-12V172.5h12a23.32,23.32,0,0,1,7.6,1,8.58,8.58,0,0,1,4.6,3.2A11.64,11.64,0,0,1,671.4,182Zm-6.8,7.5c0-2-.1-3.6-.2-4.7a9.07,9.07,0,0,0-1-3.3,3.78,3.78,0,0,0-2.3-2,11.68,11.68,0,0,0-4.2-.6h-4.8V202h4.8c2.6,0,4.5-.7,5.7-2,1-1.1,1.6-3,1.9-5.9C664.6,193,664.6,191.4,664.6,189.5Zm33.1-4.5c1.9,2.4,2.8,5.8,2.8,10.1,0,9.2-4,13.8-12.1,13.8s-12.1-4.6-12.1-13.8c0-4.3.9-7.7,2.8-10.1s4.9-3.6,9.3-3.6S695.9,182.6,697.7,185Zm-4.3,10.1a12.59,12.59,0,0,0-1.1-5.9q-1-1.8-3.9-1.8a4.23,4.23,0,0,0-3.9,1.8,16.37,16.37,0,0,0,0,11.8c.7,1.3,2,1.9,3.9,1.9a4.09,4.09,0,0,0,3.9-1.9A12.31,12.31,0,0,0,693.4,195.1Zm27.5-12.9,8.4-.3v5.6l-3.9-.3a6.45,6.45,0,0,1,1.2,3.6q0,5.25-2.7,7.2c-1.8,1.3-4.6,2-8.4,2a15,15,0,0,1-2.2-.2,8.17,8.17,0,0,0-.5,2.2,1.18,1.18,0,0,0,.9,1.2,21.8,21.8,0,0,0,4.2.4q6.6,0,9,1.8c1.6,1.1,2.4,3.2,2.4,6.2a7.2,7.2,0,0,1-3.5,6.6c-2.3,1.4-5.4,2.1-9.4,2.1s-7-.5-9.1-1.6-3.2-3-3.2-5.7c0-2.2,1.3-4.3,3.8-6.2a4.47,4.47,0,0,1-1.9-4,7.53,7.53,0,0,1,1.6-3.5l.5-.7c-2.4-1.7-3.6-4.2-3.6-7.6s1-5.8,3-7.3a13.09,13.09,0,0,1,8-2.3,23,23,0,0,1,4.5.5Zm-8.2,27.1a4.22,4.22,0,0,0-1.4,3c0,1.5,1.8,2.3,5.5,2.3s5.5-.9,5.5-2.6a1.81,1.81,0,0,0-.9-1.8,11.6,11.6,0,0,0-4-.4Zm7-18.5c0-2.6-1.3-3.9-4-3.9s-4,1.3-4,3.9,1.3,3.9,4,3.9S719.7,193.4,719.7,190.8Zm49.1-18.2H742.6V179h9.5v29.3h7.2V179h9.4v-6.4Zm22,31-.2,5.3a16.94,16.94,0,0,1-4.3-.4,7.74,7.74,0,0,1-3.2-1.5,17.72,17.72,0,0,1-7.7,1.8c-5.4,0-8.1-2.9-8.1-8.6,0-2.8.8-4.8,2.3-6s3.8-1.9,6.9-2.1l5.6-.4v-1.6a2.64,2.64,0,0,0-.7-2.2,3.84,3.84,0,0,0-2.4-.6l-9.9.4-.2-4.9a41.16,41.16,0,0,1,10.7-1.5c3.4,0,5.8.7,7.3,2.1s2.2,3.6,2.2,6.7V201a6,6,0,0,0,.4,1.8A1.57,1.57,0,0,0,790.8,203.6Zm-8.8-6.9-4.8.4c-2,.2-2.9,1.2-2.9,3.1s.9,2.9,2.6,2.9a18.48,18.48,0,0,0,4.4-.6l.8-.2v-5.6Zm29.1-14.5,8.4-.3v5.6l-3.9-.3a6.45,6.45,0,0,1,1.2,3.6q0,5.25-2.7,7.2c-1.8,1.3-4.6,2-8.4,2a15,15,0,0,1-2.2-.2,8.17,8.17,0,0,0-.5,2.2,1.18,1.18,0,0,0,.9,1.2,21.8,21.8,0,0,0,4.2.4q6.6,0,9,1.8c1.6,1.1,2.4,3.2,2.4,6.2a7.2,7.2,0,0,1-3.5,6.6c-2.3,1.4-5.4,2.1-9.4,2.1s-7-.5-9.1-1.6-3.2-3-3.2-5.7c0-2.2,1.3-4.3,3.8-6.2a4.47,4.47,0,0,1-1.9-4,7.53,7.53,0,0,1,1.6-3.5l.5-.7c-2.4-1.7-3.6-4.2-3.6-7.6s1-5.8,3-7.3a13.09,13.09,0,0,1,8-2.3,23,23,0,0,1,4.5.5Zm-8.3,27.1a4.22,4.22,0,0,0-1.4,3c0,1.5,1.8,2.3,5.5,2.3s5.5-.9,5.5-2.6a1.81,1.81,0,0,0-.9-1.8,11.6,11.6,0,0,0-4-.4Zm7-18.5c0-2.6-1.3-3.9-4-3.9s-4,1.3-4,3.9,1.3,3.9,4,3.9S809.8,193.4,809.8,190.8Zm39.4-3.6a31.89,31.89,0,0,1-6.6-2.6,3,3,0,0,1-1.4-2.6c0-2.5,1.9-3.8,5.7-3.8,2,0,5.5.3,10.4.8l.6-5.7L856,173a58.77,58.77,0,0,0-9.9-1c-3.8,0-6.7.9-8.9,2.6s-3.3,4.4-3.3,8a8.6,8.6,0,0,0,2.5,6.6c1.7,1.6,4.5,3,8.6,4.1a16.88,16.88,0,0,1,5.1,2,2.93,2.93,0,0,1,1.3,2.6c0,3.1-1.9,4.6-5.6,4.6a92.1,92.1,0,0,1-10.8-.9l-.7,5.6,1.9.4a53.71,53.71,0,0,0,10,1.3,13.41,13.41,0,0,0,8.9-2.9c2.3-1.9,3.4-4.8,3.4-8.5,0-2.9-.7-5.1-2.1-6.5C855.2,189.6,852.7,188.3,849.2,187.2Zm30.1,14.5-.7.2a12.69,12.69,0,0,1-4.4.7c-1.6,0-2.6-.5-3-1.4a15.37,15.37,0,0,1-.6-5.3V182h-7v13.7c0,4.7.6,8.1,1.9,10.1s3.7,3,7.3,3a14.27,14.27,0,0,0,6.6-2.1v1.5h7V182h-7v19.7Zm34.3-17.1c1.7,2.1,2.5,5.7,2.5,10.8s-.9,8.6-2.8,10.6-4.9,3-9.1,3a24,24,0,0,1-3.7-.3l-.6-.1v10.8h-7V182h7v1.4a11.76,11.76,0,0,1,6-2C909.3,181.4,911.9,182.5,913.6,184.6ZM909,194.9c0-4.8-1.5-7.2-4.6-7.2a10.87,10.87,0,0,0-3.9.8l-.6.3v13.7a31.4,31.4,0,0,0,3.8.3q3,0,4.2-1.8C908.6,199.8,909,197.8,909,194.9Zm33.1-10.3c1.7,2.1,2.5,5.7,2.5,10.8s-.9,8.6-2.8,10.6-4.9,3-9.1,3a24,24,0,0,1-3.7-.3l-.6-.1v10.8h-7V182h7v1.4a11.76,11.76,0,0,1,6-2C937.9,181.4,940.5,182.5,942.1,184.6Zm-4.6,10.3c0-4.8-1.5-7.2-4.6-7.2a10.87,10.87,0,0,0-3.9.8l-.6.3v13.7a31.4,31.4,0,0,0,3.8.3q3,0,4.2-1.8C937.1,199.8,937.5,197.8,937.5,194.9Zm12.7,13.4h7V171.6h-7Zm13.9-29.6h7v-7.1h-7Zm0,29.6h7V182h-7Zm35.2-15-.5,4.9H983.4a4.52,4.52,0,0,0,1.3,3.5,5.23,5.23,0,0,0,3.5,1.1q4.95,0,8.7-.3l1.5-.2.1,5.2a45.76,45.76,0,0,1-10.9,1.5c-4,0-6.8-1-8.6-3.1s-2.7-5.5-2.7-10.2c0-9.4,3.9-14.1,11.6-14.1C995.5,181.4,999.3,185.4,999.3,193.3Zm-6.9-.5c0-2.1-.3-3.6-1-4.4a4.35,4.35,0,0,0-3.5-1.2c-1.7,0-2.8.4-3.5,1.3s-1,2.3-1.1,4.3Zm29.8,2c-1.2-1.2-3.2-2-6-2.5a28.74,28.74,0,0,1-5.2-1.2,1.38,1.38,0,0,1-1-1.4,1.65,1.65,0,0,1,.8-1.5,7.61,7.61,0,0,1,3.4-.5c1.8,0,4.8.3,9.1.8l.1-5.8-1.7-.3a46.21,46.21,0,0,0-8.4-1,11.92,11.92,0,0,0-7.3,2.1c-1.9,1.4-2.8,3.5-2.8,6.3s.7,4.7,2,5.8a12,12,0,0,0,6.1,2.3c2.7.5,4.4.8,5,1.2a1.64,1.64,0,0,1,1,1.5,1.55,1.55,0,0,1-.9,1.5,8.85,8.85,0,0,1-3.5.5c-1.7,0-4.7-.3-9-.8l-.2,5.9,1.7.3a48.21,48.21,0,0,0,8.4.9c7,0,10.5-2.8,10.5-8.5C1024,197.8,1023.4,195.9,1022.2,194.8Z" transform="translate(0 -1.1)"/></svg>